<svg width="175" height="11" viewBox="0 0 175 11" fill="none" xmlns="http://www.w3.org/2000/svg">
<path id="path" d="M1.81641 5.2453C8.68907 2.25157 14.4163 2.25157 18.9981 5.2453C23.5798 8.23904 29.307 8.23904 36.1797 5.2453C43.0524 2.25157 48.7796 2.25157 53.3614 5.2453C57.9431 8.23904 63.6703 8.23904 70.543 5.2453C77.4157 2.25157 83.1429 2.25157 87.7247 5.2453C92.3064 8.23904 98.0336 8.23904 104.906 5.2453C111.779 2.25157 117.506 2.25157 122.088 5.2453C126.67 8.23904 132.397 8.23904 139.27 5.2453C146.142 2.25157 151.869 2.25157 156.451 5.2453C161.033 8.23904 166.76 8.23904 173.633 5.2453" stroke="#FF4575" stroke-width="5.99997"/>
</svg>
