<?xml version="1.0" encoding="UTF-8"?><svg id="Lager_1" xmlns="http://www.w3.org/2000/svg" viewBox="0 0 228.67 353.94"><defs><style>.cls-1{fill:#f3b14a;}.cls-2{fill:#f0836d;}.cls-3{fill:#1d1d1b;}</style></defs><path class="cls-1" d="M192.87,253.35c8.36-7.16,16.57-14.63,24.57-22.37,4.5-4.35,9.2-9.14,11.64-14.08,2.03-4.11,2.16-7.66,2.02-10.87-1.34-31.97-22.64-48.82-45.26-62.22-22.62-13.39-47.64-25.05-58.16-50.29-2.68-6.43-4.38-13.67-7.22-19.97-6.04-13.37-17.33-22.31-32.56-25.78-6.39-1.46-15.44-1.12-24.16,6.69-4.45,3.99-7.73,9.03-10.55,13.81-23.33,39.49-29.49,76.26-28.9,107.33,.58,31.07,7.13,58.34,6,90.46-.52,14.61-2.63,30.17-2.16,44.18,.47,14.01,3.71,26.64,13.02,33.1,9.25,6.42,24.03,6.31,40.28,1.84,16.25-4.47,33.95-13.08,51.55-23.2,3.56-2.05,7.28-4.27,10.52-7.46,3.64-3.59,6.15-7.84,8.7-11.9,11.17-17.82,26.06-35.42,42.62-50.39"/><path class="cls-3" d="M123.65,282.47c-1.06-.84-2.17-1.22-3.53-.95-1.1,.22-2.11,.87-2.73,1.81-1.26,1.91-.68,4.15,.21,6.06,1.36,2.93,4.09,5.21,6.95,6.6,1.54,.75,3.16,1.34,4.83,1.72,.86,.19,1.72,.32,2.59,.43,.96,.12,2.02,.27,2.96,0,2.16-.61,3.15-2.9,3.55-4.94s.32-4.06-.37-5.97c-1.33-3.69-4.34-6.33-8.01-7.58s-8.48-1.12-10.41,2.61c-.81,1.56-.98,3.48-.43,5.15,.63,1.93,2,3.39,3.65,4.53,1.38,.95,3.17,1.84,4.83,2.17,2.35,.46,4.72-.5,5.12-3.08,.33-2.1,.21-4.31-.79-6.23-1.1-2.1-3.6-3.75-6.01-2.97-2.55,.83-3.25,3.88-2.14,6.1s3.29,3.19,5.56,3.45c1.92,.22,3.07-2.27,2.16-3.76-1.03-1.68-2.19-3.31-3.87-4.39s-3.87-1.37-5.88-1.5c-2.57-.16-3.27,3.43-1.26,4.66,1.35,.83,2.67,1.71,4.03,2.53,.63,.38,1.27,.73,1.91,1.08,1.07,.57,2.24,1.32,3.49,1.31,5.52-.05,4.78-10.08-.46-8.63-2.56,.71-2.77,3.76-2.24,5.88,.56,2.26,2.21,4.08,4.6,4.31,1.92,.19,4.08-.85,4.64-2.81,.74-2.59-1.49-4.55-3.68-5.36-1.79-.66-3.61,.17-4.27,1.97-.36,.99-.35,2.14-.08,3.15,.6,2.28,2.55,4.07,4.81,4.63,1.83,.46,3.6-1.2,3.08-3.08-.61-2.17-3.19-2.97-5.09-1.96-2.04,1.08-2.26,3.41-1.62,5.42l3.67-2.82c-2.33-1.21-4.41-2.61-6.19-4.21-.99-.89-1.92-1.84-2.79-2.85-.46-.54-.6-.71-.92-1.14-.17-.23-.37-.69-.58-.86,.27,.79,.11,1.39-.48,1.81,.1-.07,.2-.13,.31-.19,1.18-.7,2.26-1.3,3.46-1.63,.11-.03,1.09-.21,.66-.16,.25-.03,.51-.04,.76-.03,.42,0,.86,.06,1.23,.23-.3-.14,.65,.48,.22,.12,.13,.11,.25,.23,.36,.36,.19,.23,.22,.26,.09,.08,.46,.57,.88,1.19,1.31,1.78,.97,1.31,1.94,2.62,2.91,3.94l1.49-3.67c.27-.06,.09,.03-.08,0,.26,.07,.13,.02-.05-.02-.13-.03-.34-.12-.1-.01-.15-.07-.3-.16-.45-.24-.3-.18-.59-.38-.86-.59,.2,.15-.05-.04-.11-.09-.13-.11-.26-.21-.39-.32-1-.81-1.96-1.66-2.98-2.44-.96-.74-1.95-1.31-3.1-1.71-1.28-.45-2.62-.43-3.94-.59l2.16,3.76v-.02c-.49,.38-.98,.77-1.48,1.15l-.54,.06-1.26-.34h.02v-4.3c-.86,.49-1.61,1.14-2.14,1.99-.36,.58-.61,1.26-.63,1.95,0,.3,0,.61,.09,.9,.32,1.1,1.04-2.26,.58-1.79-.14,.14,.53-.27,.15-.14-.12,.04-.27,.15-.39,.21-.24,.13-.49,.25-.73,.39-.98,.63-1.72,1.55-1.7,2.77,.02,1.62,1.58,2.84,3.16,2.41,1.3-.35,2.21-1.41,2.48-2.72,.07-.35,.07-.72,.15-1.07-.18,.81,.21-.41-.07,.25,.02-.06,.33-.55,.15-.31-.23,.32,.47-.42,.18-.19-.22,.18,.27-.16,.32-.19-.38,.22,.18-.05,.28-.08-.39,.12,.1,0,.28,0,.45-.01-.09-.05,.15,.03,.16,.05,.49,.19,.17,.03,.05,.02,.64,.41,.27,.11,.06,.05,.5,.55,.21,.15,.13,.18,.22,.38,.31,.58,.54,1.24,2.35,1.52,3.42,.9,1.28-.75,1.44-2.18,.9-3.42-1.15-2.62-4.48-3.89-7.16-3.16-1.41,.38-2.63,1.27-3.47,2.46-.37,.53-.66,1.14-.81,1.77-.03,.14-.23,1.33-.09,.6-.02,.13-.04,.27-.08,.4,.19-.46,.54-.78,1.05-.97l3.16,2.41c0,.57-.33,1.08-.68,1.47-.23,.26-.11,.07,.03,0,.2-.1,.4-.22,.61-.32,.59-.31,1.14-.68,1.54-1.21,.36-.47,.61-1.05,.6-1.67,0-.23-.2-1.53-.17-.54,.06,.2,.05,.38-.04,.55-.07,.15-.07,.17,0,.04,.09-.15,.06-.12-.09,.09l.14-.15c.23-.15,.14-.1-.04,0,.13-.07,.26-.14,.38-.22,1.68-.97,1.55-3.32,0-4.32-1.21-.78-2.85-.22-3.58,.93-.47,.75-.44,1.77,0,2.52,.49,.83,1.25,1.13,2.16,1.24,.29,.04,.59,.03,.88,.05,.16,.01,.32,.03,.48,.04-.49-.05,0,0,.11,.02,.26,.05,.53,.11,.78,.18,.12,.04,.24,.08,.36,.11,.07,.02,.45,.18,.12,.04s.04,.03,.1,.06c.13,.07,.26,.14,.39,.21,.2,.12,.4,.25,.6,.38,.1,.07,.19,.15,.29,.21-.15-.1-.29-.23-.06-.05s.47,.38,.7,.58c2.5,2.1,5.08,4.73,8.63,4.01,1.47-.3,2.42-2.41,1.49-3.67s-1.81-2.45-2.72-3.67c-.86-1.16-1.66-2.53-2.74-3.5-2.28-2.03-5.64-2.21-8.43-1.22s-7.32,2.93-5.81,6.6c.54,1.32,1.6,2.47,2.52,3.54,.81,.94,1.67,1.84,2.59,2.67,2.23,2.03,4.72,3.78,7.4,5.17,1.84,.95,4.37-.64,3.67-2.82-.01-.03-.24-.74-.21-.75,.03,.08,.03,.16,0,.24-.05,.24-.17,.44-.37,.61-.81,.78-2.06,.15-2.35-.9l3.08-3.08c-.06-.02-.72-.25-.27-.05-.2-.1-.4-.21-.58-.34,.29,.19,.05,.03-.09-.11-.08-.08-.15-.16-.22-.24,.14,.19,.17,.21,.07,.07-.09-.15-.19-.31-.26-.47,.22,.51,0-.12-.01-.21,.1,.42,.02,.08,.03-.17l-.03,.25c.17-.55-.03-.29-.59,.75l-1.26,.34c-.23,.01-.39-.17-.07,.02,.21,.12,.43,.22,.63,.37-.16-.13-.18-.14-.06-.02,.13,.13,.11,.1-.06-.08-.07-.9-.44-.87,.26-1.71-.27,.32,.21-.24,.4-.19-.05-.01-.81,.04-.06,.06-.12,0-.56-.11-.23,.01,.21,.03,.2,.02-.03-.03,.28,.13,.34,.15,.18,.06-.12-.07-.1-.06,.06,.04-.18-.19-.21-.23-.1-.11,.11,.36-.26-.63-.12-.26,.1,.27-.08-.32-.09-.37-.06-.23-.11-.46-.14-.7,.03,.26,.04,.27,.02,.01l-.05,.27c.07-.23,.07-.26,0-.08-.05,.13-.13,.23-.24,.32-1.87,2.04-3.21-1.8-2.82-.19-.15-.61-.05-.09-.03,.08,.04,.49,.15-.41,0,.08-.14,.43,.17-.25,.27-.35,.19-.18,.47-.29,.72-.33,.11-.02,.22-.03,.32-.04,.18,.07,.18,.06,0-.03-.31-.3-.96-.49-1.35-.7s-.79-.43-1.17-.65c-1.54-.89-3.02-1.9-4.54-2.84l-1.26,4.66c.24,.02,.49,.03,.73,.05,.07,0,.83,.1,.22,.01,.36,.05,.72,.12,1.07,.2,.32,.08,.61,.19,.92,.29-.6-.18-.16-.08,0,.02,.14,.08,.28,.16,.41,.24,.15,.09,.51,.43,0-.02,.1,.09,.21,.17,.3,.27,.23,.21,.43,.45,.64,.68,.41,.44-.3-.44,.07,.07,.11,.16,.23,.32,.34,.49,.25,.36,.48,.74,.71,1.11l2.16-3.76c.4,.04-.17-.07-.29-.1-.48-.13-.17-.08-.07-.02-.11-.06-.21-.12-.31-.18-.24-.13-.03,0,.02,.05-.09-.07-.18-.16-.26-.24-.04-.04-.38-.39-.18-.19,.08,.1,.08,.09,0-.03-.08-.14-.08-.13,0,.03,.11,.05,.04,.18,0-.06,0,.01,.04,.48,.02,.19-.04-.53,.01,.03-.14,.27-.14,.22-.41,.41-.66,.48-.1,.03-.19,.02-.28,.04-.26,.04-.26-.16-.03,.06-.27-.25,.14,.14,.22,.22,.02,.02,.24,.31,.09,.1-.16-.23,.08,.17,.11,.22,.05,.1,.11,.2,.15,.3-.02-.05-.12-.34-.05-.07s.14,.52,.2,.78c-.1-.47,.02,.23,.02,.38,.01,.23,.01,.47,0,.7,0,.27-.03,.54-.05,.81,0-.09,.12-.33,.01-.12-.04,.14-.03,.14,.03,0,.08-.2,.24-.35,.48-.42,.53-.4,.28-.27,.69-.34-.37,.06-.17,.03,0,.05-.23-.03-.45-.1-.67-.17-.28-.09-.55-.2-.82-.3s-.06-.02,0,0c-.16-.07-.32-.14-.47-.21-1.1-.52-1.87-.99-2.51-1.65-.09-.09-.43-.5-.35-.4,.08,.12-.22-.4-.29-.51,.21,.34,.01,.02-.05-.19-.03-.1-.04-.21-.07-.31-.1-.24-.02,.39,0-.06,0-.21,0-.41,.02-.62-.04,.5,.08-.03,.1-.24,.03-.25-.02,.07-.06,.13,.01-.02,.15-.27,.15-.27-.03-.03,.07-.11-.1,.09,.09-.11,.19-.2,.28-.3,.31-.33,.09-.05,0,0,.1-.06,.2-.12,.31-.17,.28-.13,.06-.01,.01,0,.13-.04,.26-.07,.39-.1,.05-.01,.59-.09,.33-.06-.23,.02,.22,0,.21,0,.32,0,.63,0,.95,.02,.13,0,.26,.02,.39,.03-.38-.03,.04,0,.11,.01,.25,.05,.51,.1,.76,.16,.29,.07,.58,.15,.87,.25,.12,.04,.24,.08,.36,.13,.11,.04,.36,.14,.11,.04,.5,.22,.99,.48,1.45,.78,.11,.07,.55,.37,.47,.31-.21-.15,.19,.16,.23,.19,.13,.11,.25,.22,.37,.33,.18,.17,.35,.34,.52,.53,.08,.09,.51,.65,.3,.34,.15,.21,.29,.43,.42,.65,.07,.12,.44,.85,.33,.6,.5,1.18,.57,1.76,.52,2.92,0,.17-.02,.35-.04,.52,0-.06,.05-.31,0-.02-.05,.26-.1,.51-.17,.77-.08,.29-.17,.59-.29,.87,.02-.06,.11-.25-.01,0-.03,.07-.07,.15-.11,.22-.08,.12-.07,.13,.02,.03,.07,0,.54-.29,.6-.35,.17-.13,.23,0-.06-.01-.24-.02-.49-.02-.73-.04-.12,0-.24-.02-.36-.03-.06,0-.57-.06-.27-.03,.27,.03-.13-.02-.15-.02-.16-.03-.32-.05-.48-.08-1.08-.19-2.15-.47-3.19-.83-.27-.09-.53-.19-.79-.3-.47-.18-.17-.07-.07-.03-.15-.07-.29-.13-.43-.2-.53-.25-1.05-.54-1.56-.85-.23-.14-.46-.29-.68-.44-.13-.09-.25-.18-.37-.27,.2,.15,.11,.09-.03-.03-.43-.36-.84-.74-1.23-1.15-.18-.19-.34-.39-.51-.59,.3,.37-.17-.26-.25-.38-.16-.25-.3-.5-.44-.76-.05-.1-.1-.2-.15-.29-.02-.05-.2-.46-.09-.2s-.02-.08-.03-.11c-.05-.17-.11-.34-.16-.51-.14-.51-.05-.25-.03-.13-.03-.27,.1-.24,0-.11-.22,.26-.25,.38-.59,.54,.15-.07,.28,.02,.07-.04-.51-.13-.33,.14-1-.39,1.06,.84,2.5,1.03,3.54,0,.87-.87,1.06-2.69,0-3.54h0Z"/><path class="cls-3" d="M153.44,282.47c-1.06-.84-2.17-1.22-3.53-.95-1.1,.22-2.11,.87-2.73,1.81-1.26,1.91-.68,4.15,.21,6.06,1.36,2.93,4.09,5.21,6.95,6.6,1.54,.75,3.16,1.34,4.83,1.72,.86,.19,1.72,.32,2.59,.43,.96,.12,2.02,.27,2.96,0,2.16-.61,3.15-2.9,3.55-4.94s.32-4.06-.37-5.97c-1.33-3.69-4.34-6.33-8.01-7.58s-8.48-1.12-10.41,2.61c-.81,1.56-.98,3.48-.43,5.15,.63,1.93,2,3.39,3.65,4.53,1.38,.95,3.17,1.84,4.83,2.17,2.35,.46,4.72-.5,5.12-3.08,.33-2.1,.21-4.31-.79-6.23-1.1-2.1-3.6-3.75-6.01-2.97-2.55,.83-3.25,3.88-2.14,6.1s3.29,3.19,5.56,3.45c1.92,.22,3.07-2.27,2.16-3.76-1.03-1.68-2.19-3.31-3.87-4.39s-3.87-1.37-5.88-1.5c-2.57-.16-3.27,3.43-1.26,4.66,1.35,.83,2.67,1.71,4.03,2.53,.63,.38,1.27,.73,1.91,1.08,1.07,.57,2.24,1.32,3.49,1.31,5.52-.05,4.78-10.08-.46-8.63-2.56,.71-2.77,3.76-2.24,5.88,.56,2.26,2.21,4.08,4.6,4.31,1.92,.19,4.08-.85,4.64-2.81,.74-2.59-1.49-4.55-3.68-5.36-1.79-.66-3.61,.17-4.27,1.97-.36,.99-.35,2.14-.08,3.15,.6,2.28,2.55,4.07,4.81,4.63,1.83,.46,3.6-1.2,3.08-3.08-.61-2.17-3.19-2.97-5.09-1.96-2.04,1.08-2.26,3.41-1.62,5.42l3.67-2.82c-2.33-1.21-4.41-2.61-6.19-4.21-.99-.89-1.92-1.84-2.79-2.85-.46-.54-.6-.71-.92-1.14-.17-.23-.37-.69-.58-.86,.27,.79,.11,1.39-.48,1.81,.1-.07,.2-.13,.31-.19,1.18-.7,2.26-1.3,3.46-1.63,.11-.03,1.09-.21,.66-.16,.25-.03,.51-.04,.76-.03,.42,0,.86,.06,1.23,.23-.3-.14,.65,.48,.22,.12,.13,.11,.25,.23,.36,.36,.19,.23,.22,.26,.09,.08,.46,.57,.88,1.19,1.31,1.78,.97,1.31,1.94,2.62,2.91,3.94l1.49-3.67c.27-.06,.09,.03-.08,0,.26,.07,.13,.02-.05-.02-.13-.03-.34-.12-.1-.01-.15-.07-.3-.16-.45-.24-.3-.18-.59-.38-.86-.59,.2,.15-.05-.04-.11-.09-.13-.11-.26-.21-.39-.32-1-.81-1.96-1.66-2.98-2.44-.96-.74-1.95-1.31-3.1-1.71-1.28-.45-2.62-.43-3.94-.59l2.16,3.76v-.02c-.49,.38-.98,.77-1.48,1.15l-.54,.06-1.26-.34h.02v-4.3c-.86,.49-1.61,1.14-2.14,1.99-.36,.58-.61,1.26-.63,1.95,0,.3,0,.61,.09,.9,.32,1.1,1.04-2.26,.58-1.79-.14,.14,.53-.27,.15-.14-.12,.04-.27,.15-.39,.21-.24,.13-.49,.25-.73,.39-.98,.63-1.72,1.55-1.7,2.77,.02,1.62,1.58,2.84,3.16,2.41,1.3-.35,2.21-1.41,2.48-2.72,.07-.35,.07-.72,.15-1.07-.18,.81,.21-.41-.07,.25,.02-.06,.33-.55,.15-.31-.23,.32,.47-.42,.18-.19-.22,.18,.27-.16,.32-.19-.38,.22,.18-.05,.28-.08-.39,.12,.1,0,.28,0,.45-.01-.09-.05,.15,.03,.16,.05,.49,.19,.17,.03,.05,.02,.64,.41,.27,.11,.06,.05,.5,.55,.21,.15,.13,.18,.22,.38,.31,.58,.54,1.24,2.35,1.52,3.42,.9,1.28-.75,1.44-2.18,.9-3.42-1.15-2.62-4.48-3.89-7.16-3.16-1.41,.38-2.63,1.27-3.47,2.46-.37,.53-.66,1.14-.81,1.77-.03,.14-.23,1.33-.09,.6-.02,.13-.04,.27-.08,.4,.19-.46,.54-.78,1.05-.97l3.16,2.41c0,.57-.33,1.08-.68,1.47-.23,.26-.11,.07,.03,0,.2-.1,.4-.22,.61-.32,.59-.31,1.14-.68,1.54-1.21,.36-.47,.61-1.05,.6-1.67,0-.23-.2-1.53-.17-.54,.06,.2,.05,.38-.04,.55-.07,.15-.07,.17,0,.04,.09-.15,.06-.12-.09,.09l.14-.15c.23-.15,.14-.1-.04,0,.13-.07,.26-.14,.38-.22,1.68-.97,1.55-3.32,0-4.32-1.21-.78-2.85-.22-3.58,.93-.47,.75-.44,1.77,0,2.52,.49,.83,1.25,1.13,2.16,1.24,.29,.04,.59,.03,.88,.05,.16,.01,.32,.03,.48,.04-.49-.05,0,0,.11,.02,.26,.05,.53,.11,.78,.18,.12,.04,.24,.08,.36,.11,.07,.02,.45,.18,.12,.04s.04,.03,.1,.06c.13,.07,.26,.14,.39,.21,.2,.12,.4,.25,.6,.38,.1,.07,.19,.15,.29,.21-.15-.1-.29-.23-.06-.05s.47,.38,.7,.58c2.5,2.1,5.08,4.73,8.63,4.01,1.47-.3,2.42-2.41,1.49-3.67s-1.81-2.45-2.72-3.67c-.86-1.16-1.66-2.53-2.74-3.5-2.28-2.03-5.64-2.21-8.43-1.22s-7.32,2.93-5.81,6.6c.54,1.32,1.6,2.47,2.52,3.54,.81,.94,1.67,1.84,2.59,2.67,2.23,2.03,4.72,3.78,7.4,5.17,1.84,.95,4.37-.64,3.67-2.82-.01-.03-.24-.74-.21-.75,.03,.08,.03,.16,0,.24-.05,.24-.17,.44-.37,.61-.81,.78-2.06,.15-2.35-.9l3.08-3.08c-.06-.02-.72-.25-.27-.05-.2-.1-.4-.21-.58-.34,.29,.19,.05,.03-.09-.11-.08-.08-.15-.16-.22-.24,.14,.19,.17,.21,.07,.07-.09-.15-.19-.31-.26-.47,.22,.51,0-.12-.01-.21,.1,.42,.02,.08,.03-.17l-.03,.25c.17-.55-.03-.29-.59,.75l-1.26,.34c-.23,.01-.39-.17-.07,.02,.21,.12,.43,.22,.63,.37-.16-.13-.18-.14-.06-.02,.13,.13,.11,.1-.06-.08-.07-.9-.44-.87,.26-1.71-.27,.32,.21-.24,.4-.19-.05-.01-.81,.04-.06,.06-.12,0-.56-.11-.23,.01,.21,.03,.2,.02-.03-.03,.28,.13,.34,.15,.18,.06-.12-.07-.1-.06,.06,.04-.18-.19-.21-.23-.1-.11,.11,.36-.26-.63-.12-.26,.1,.27-.08-.32-.09-.37-.06-.23-.11-.46-.14-.7,.03,.26,.04,.27,.02,.01l-.05,.27c.07-.23,.07-.26,0-.08-.05,.13-.13,.23-.24,.32-1.87,2.04-3.21-1.8-2.82-.19-.15-.61-.05-.09-.03,.08,.04,.49,.15-.41,0,.08-.14,.43,.17-.25,.27-.35,.19-.18,.47-.29,.72-.33,.11-.02,.22-.03,.32-.04,.18,.07,.18,.06,0-.03-.31-.3-.96-.49-1.35-.7s-.79-.43-1.17-.65c-1.54-.89-3.02-1.9-4.54-2.84l-1.26,4.66c.24,.02,.49,.03,.73,.05,.07,0,.83,.1,.22,.01,.36,.05,.72,.12,1.07,.2,.32,.08,.61,.19,.92,.29-.6-.18-.16-.08,0,.02,.14,.08,.28,.16,.41,.24,.15,.09,.51,.43,0-.02,.1,.09,.21,.17,.3,.27,.23,.21,.43,.45,.64,.68,.41,.44-.3-.44,.07,.07,.11,.16,.23,.32,.34,.49,.25,.36,.48,.74,.71,1.11l2.16-3.76c.4,.04-.17-.07-.29-.1-.48-.13-.17-.08-.07-.02-.11-.06-.21-.12-.31-.18-.24-.13-.03,0,.02,.05-.09-.07-.18-.16-.26-.24-.04-.04-.38-.39-.18-.19,.08,.1,.08,.09,0-.03-.08-.14-.08-.13,0,.03,.11,.05,.04,.18,0-.06,0,.01,.04,.48,.02,.19-.04-.53,.01,.03-.14,.27-.14,.22-.41,.41-.66,.48-.1,.03-.19,.02-.28,.04-.26,.04-.26-.16-.03,.06-.27-.25,.14,.14,.22,.22,.02,.02,.24,.31,.09,.1-.16-.23,.08,.17,.11,.22,.05,.1,.11,.2,.15,.3-.02-.05-.12-.34-.05-.07s.14,.52,.2,.78c-.1-.47,.02,.23,.02,.38,.01,.23,.01,.47,0,.7,0,.27-.03,.54-.05,.81,0-.09,.12-.33,.01-.12-.04,.14-.03,.14,.03,0,.08-.2,.24-.35,.48-.42,.53-.4,.28-.27,.69-.34-.37,.06-.17,.03,0,.05-.23-.03-.45-.1-.67-.17-.28-.09-.55-.2-.82-.3s-.06-.02,0,0c-.16-.07-.32-.14-.47-.21-1.1-.52-1.87-.99-2.51-1.65-.09-.09-.43-.5-.35-.4,.08,.12-.22-.4-.29-.51,.21,.34,.01,.02-.05-.19-.03-.1-.04-.21-.07-.31-.1-.24-.02,.39,0-.06,0-.21,0-.41,.02-.62-.04,.5,.08-.03,.1-.24,.03-.25-.02,.07-.06,.13,.01-.02,.15-.27,.15-.27-.03-.03,.07-.11-.1,.09,.09-.11,.19-.2,.28-.3,.31-.33,.09-.05,0,0,.1-.06,.2-.12,.31-.17,.28-.13,.06-.01,.01,0,.13-.04,.26-.07,.39-.1,.05-.01,.59-.09,.33-.06-.23,.02,.22,0,.21,0,.32,0,.63,0,.95,.02,.13,0,.26,.02,.39,.03-.38-.03,.04,0,.11,.01,.25,.05,.51,.1,.76,.16,.29,.07,.58,.15,.87,.25,.12,.04,.24,.08,.36,.13,.11,.04,.36,.14,.11,.04,.5,.22,.99,.48,1.45,.78,.11,.07,.55,.37,.47,.31-.21-.15,.19,.16,.23,.19,.13,.11,.25,.22,.37,.33,.18,.17,.35,.34,.52,.53,.08,.09,.51,.65,.3,.34,.15,.21,.29,.43,.42,.65,.07,.12,.44,.85,.33,.6,.5,1.18,.57,1.76,.52,2.92,0,.17-.02,.35-.04,.52,0-.06,.05-.31,0-.02-.05,.26-.1,.51-.17,.77-.08,.29-.17,.59-.29,.87,.02-.06,.11-.25-.01,0-.03,.07-.07,.15-.11,.22-.08,.12-.07,.13,.02,.03,.07,0,.54-.29,.6-.35,.17-.13,.23,0-.06-.01-.24-.02-.49-.02-.73-.04-.12,0-.24-.02-.36-.03-.06,0-.57-.06-.27-.03,.27,.03-.13-.02-.15-.02-.16-.03-.32-.05-.48-.08-1.08-.19-2.15-.47-3.19-.83-.27-.09-.53-.19-.79-.3-.47-.18-.17-.07-.07-.03-.15-.07-.29-.13-.43-.2-.53-.25-1.05-.54-1.56-.85-.23-.14-.46-.29-.68-.44-.13-.09-.25-.18-.37-.27,.2,.15,.11,.09-.03-.03-.43-.36-.84-.74-1.23-1.15-.18-.19-.34-.39-.51-.59,.3,.37-.17-.26-.25-.38-.16-.25-.3-.5-.44-.76-.05-.1-.1-.2-.15-.29-.02-.05-.2-.46-.09-.2s-.02-.08-.03-.11c-.05-.17-.11-.34-.16-.51-.14-.51-.05-.25-.03-.13-.03-.27,.1-.24,0-.11-.22,.26-.25,.38-.59,.54,.15-.07,.28,.02,.07-.04-.51-.13-.33,.14-1-.39,1.06,.84,2.5,1.03,3.54,0,.87-.87,1.06-2.69,0-3.54h0Z"/><path class="cls-3" d="M148.72,308.15c-1.06-.84-2.17-1.22-3.53-.95-1.1,.22-2.11,.87-2.73,1.81-1.26,1.91-.68,4.15,.21,6.06,1.36,2.93,4.09,5.21,6.95,6.6,1.54,.75,3.16,1.34,4.83,1.72,.86,.19,1.72,.32,2.59,.43,.96,.12,2.02,.27,2.96,0,2.16-.61,3.15-2.9,3.55-4.94s.32-4.06-.37-5.97c-1.33-3.69-4.34-6.33-8.01-7.58s-8.48-1.12-10.41,2.61c-.81,1.56-.98,3.48-.43,5.15,.63,1.93,2,3.39,3.65,4.53,1.38,.95,3.17,1.84,4.83,2.17,2.35,.46,4.72-.5,5.12-3.08,.33-2.1,.21-4.31-.79-6.23-1.1-2.1-3.6-3.75-6.01-2.97-2.55,.83-3.25,3.88-2.14,6.1s3.29,3.19,5.56,3.45c1.92,.22,3.07-2.27,2.16-3.76-1.03-1.68-2.19-3.31-3.87-4.39s-3.87-1.37-5.88-1.5c-2.57-.16-3.27,3.43-1.26,4.66,1.35,.83,2.67,1.71,4.03,2.53,.63,.38,1.27,.73,1.91,1.08,1.07,.57,2.24,1.32,3.49,1.31,5.52-.05,4.78-10.08-.46-8.63-2.56,.71-2.77,3.76-2.24,5.88,.56,2.26,2.21,4.08,4.6,4.31,1.92,.19,4.08-.85,4.64-2.81,.74-2.59-1.49-4.55-3.68-5.36-1.79-.66-3.61,.17-4.27,1.97-.36,.99-.35,2.14-.08,3.15,.6,2.28,2.55,4.07,4.81,4.63,1.83,.46,3.6-1.2,3.08-3.08-.61-2.17-3.19-2.97-5.09-1.96-2.04,1.08-2.26,3.41-1.62,5.42l3.67-2.82c-2.33-1.21-4.41-2.61-6.19-4.21-.99-.89-1.92-1.84-2.79-2.85-.46-.54-.6-.71-.92-1.14-.17-.23-.37-.69-.58-.86,.27,.79,.11,1.39-.48,1.81,.1-.07,.2-.13,.31-.19,1.18-.7,2.26-1.3,3.46-1.63,.11-.03,1.09-.21,.66-.16,.25-.03,.51-.04,.76-.03,.42,0,.86,.06,1.23,.23-.3-.14,.65,.48,.22,.12,.13,.11,.25,.23,.36,.36,.19,.23,.22,.26,.09,.08,.46,.57,.88,1.19,1.31,1.78,.97,1.31,1.94,2.62,2.91,3.94l1.49-3.67c.27-.06,.09,.03-.08,0,.26,.07,.13,.02-.05-.02-.13-.03-.34-.12-.1-.01-.15-.07-.3-.16-.45-.24-.3-.18-.59-.38-.86-.59,.2,.15-.05-.04-.11-.09-.13-.11-.26-.21-.39-.32-1-.81-1.96-1.66-2.98-2.44-.96-.74-1.95-1.31-3.1-1.71-1.28-.45-2.62-.43-3.94-.59l2.16,3.76v-.02c-.49,.38-.98,.77-1.48,1.15l-.54,.06-1.26-.34h.02v-4.3c-.86,.49-1.61,1.14-2.14,1.99-.36,.58-.61,1.26-.63,1.95,0,.3,0,.61,.09,.9,.32,1.1,1.04-2.26,.58-1.79-.14,.14,.53-.27,.15-.14-.12,.04-.27,.15-.39,.21-.24,.13-.49,.25-.73,.39-.98,.63-1.72,1.55-1.7,2.77,.02,1.62,1.58,2.84,3.16,2.41,1.3-.35,2.21-1.41,2.48-2.72,.07-.35,.07-.72,.15-1.07-.18,.81,.21-.41-.07,.25,.02-.06,.33-.55,.15-.31-.23,.32,.47-.42,.18-.19-.22,.18,.27-.16,.32-.19-.38,.22,.18-.05,.28-.08-.39,.12,.1,0,.28,0,.45-.01-.09-.05,.15,.03,.16,.05,.49,.19,.17,.03,.05,.02,.64,.41,.27,.11,.06,.05,.5,.55,.21,.15,.13,.18,.22,.38,.31,.58,.54,1.24,2.35,1.52,3.42,.9,1.28-.75,1.44-2.18,.9-3.42-1.15-2.62-4.48-3.89-7.16-3.16-1.41,.38-2.63,1.27-3.47,2.46-.37,.53-.66,1.14-.81,1.77-.03,.14-.23,1.33-.09,.6-.02,.13-.04,.27-.08,.4,.19-.46,.54-.78,1.05-.97l3.16,2.41c0,.57-.33,1.08-.68,1.47-.23,.26-.11,.07,.03,0,.2-.1,.4-.22,.61-.32,.59-.31,1.14-.68,1.54-1.21,.36-.47,.61-1.05,.6-1.67,0-.23-.2-1.53-.17-.54,.06,.2,.05,.38-.04,.55-.07,.15-.07,.17,0,.04,.09-.15,.06-.12-.09,.09l.14-.15c.23-.15,.14-.1-.04,0,.13-.07,.26-.14,.38-.22,1.68-.97,1.55-3.32,0-4.32-1.21-.78-2.85-.22-3.58,.93-.47,.75-.44,1.77,0,2.52,.49,.83,1.25,1.13,2.16,1.24,.29,.04,.59,.03,.88,.05,.16,.01,.32,.03,.48,.04-.49-.05,0,0,.11,.02,.26,.05,.53,.11,.78,.18,.12,.04,.24,.08,.36,.11,.07,.02,.45,.18,.12,.04s.04,.03,.1,.06c.13,.07,.26,.14,.39,.21,.2,.12,.4,.25,.6,.38,.1,.07,.19,.15,.29,.21-.15-.1-.29-.23-.06-.05s.47,.38,.7,.58c2.5,2.1,5.08,4.73,8.63,4.01,1.47-.3,2.42-2.41,1.49-3.67s-1.81-2.45-2.72-3.67c-.86-1.16-1.66-2.53-2.74-3.5-2.28-2.03-5.64-2.21-8.43-1.22s-7.32,2.93-5.81,6.6c.54,1.32,1.6,2.47,2.52,3.54,.81,.94,1.67,1.84,2.59,2.67,2.23,2.03,4.72,3.78,7.4,5.17,1.84,.95,4.37-.64,3.67-2.82-.01-.03-.24-.74-.21-.75,.03,.08,.03,.16,0,.24-.05,.24-.17,.44-.37,.61-.81,.78-2.06,.15-2.35-.9l3.08-3.08c-.06-.02-.72-.25-.27-.05-.2-.1-.4-.21-.58-.34,.29,.19,.05,.03-.09-.11-.08-.08-.15-.16-.22-.24,.14,.19,.17,.21,.07,.07-.09-.15-.19-.31-.26-.47,.22,.51,0-.12-.01-.21,.1,.42,.02,.08,.03-.17l-.03,.25c.17-.55-.03-.29-.59,.75l-1.26,.34c-.23,.01-.39-.17-.07,.02,.21,.12,.43,.22,.63,.37-.16-.13-.18-.14-.06-.02,.13,.13,.11,.1-.06-.08-.07-.9-.44-.87,.26-1.71-.27,.32,.21-.24,.4-.19-.05-.01-.81,.04-.06,.06-.12,0-.56-.11-.23,.01,.21,.03,.2,.02-.03-.03,.28,.13,.34,.15,.18,.06-.12-.07-.1-.06,.06,.04-.18-.19-.21-.23-.1-.11,.11,.36-.26-.63-.12-.26,.1,.27-.08-.32-.09-.37-.06-.23-.11-.46-.14-.7,.03,.26,.04,.27,.02,.01l-.05,.27c.07-.23,.07-.26,0-.08-.05,.13-.13,.23-.24,.32-1.87,2.04-3.21-1.8-2.82-.19-.15-.61-.05-.09-.03,.08,.04,.49,.15-.41,0,.08-.14,.43,.17-.25,.27-.35,.19-.18,.47-.29,.72-.33,.11-.02,.22-.03,.32-.04,.18,.07,.18,.06,0-.03-.31-.3-.96-.49-1.35-.7s-.79-.43-1.17-.65c-1.54-.89-3.02-1.9-4.54-2.84l-1.26,4.66c.24,.02,.49,.03,.73,.05,.07,0,.83,.1,.22,.01,.36,.05,.72,.12,1.07,.2,.32,.08,.61,.19,.92,.29-.6-.18-.16-.08,0,.02,.14,.08,.28,.16,.41,.24,.15,.09,.51,.43,0-.02,.1,.09,.21,.17,.3,.27,.23,.21,.43,.45,.64,.68,.41,.44-.3-.44,.07,.07,.11,.16,.23,.32,.34,.49,.25,.36,.48,.74,.71,1.11l2.16-3.76c.4,.04-.17-.07-.29-.1-.48-.13-.17-.08-.07-.02-.11-.06-.21-.12-.31-.18-.24-.13-.03,0,.02,.05-.09-.07-.18-.16-.26-.24-.04-.04-.38-.39-.18-.19,.08,.1,.08,.09,0-.03-.08-.14-.08-.13,0,.03,.11,.05,.04,.18,0-.06,0,.01,.04,.48,.02,.19-.04-.53,.01,.03-.14,.27-.14,.22-.41,.41-.66,.48-.1,.03-.19,.02-.28,.04-.26,.04-.26-.16-.03,.06-.27-.25,.14,.14,.22,.22,.02,.02,.24,.31,.09,.1-.16-.23,.08,.17,.11,.22,.05,.1,.11,.2,.15,.3-.02-.05-.12-.34-.05-.07s.14,.52,.2,.78c-.1-.47,.02,.23,.02,.38,.01,.23,.01,.47,0,.7,0,.27-.03,.54-.05,.81,0-.09,.12-.33,.01-.12-.04,.14-.03,.14,.03,0,.08-.2,.24-.35,.48-.42,.53-.4,.28-.27,.69-.34-.37,.06-.17,.03,0,.05-.23-.03-.45-.1-.67-.17-.28-.09-.55-.2-.82-.3s-.06-.02,0,0c-.16-.07-.32-.14-.47-.21-1.1-.52-1.87-.99-2.51-1.65-.09-.09-.43-.5-.35-.4,.08,.12-.22-.4-.29-.51,.21,.34,.01,.02-.05-.19-.03-.1-.04-.21-.07-.31-.1-.24-.02,.39,0-.06,0-.21,0-.41,.02-.62-.04,.5,.08-.03,.1-.24,.03-.25-.02,.07-.06,.13,.01-.02,.15-.27,.15-.27-.03-.03,.07-.11-.1,.09,.09-.11,.19-.2,.28-.3,.31-.33,.09-.05,0,0,.1-.06,.2-.12,.31-.17,.28-.13,.06-.01,.01,0,.13-.04,.26-.07,.39-.1,.05-.01,.59-.09,.33-.06-.23,.02,.22,0,.21,0,.32,0,.63,0,.95,.02,.13,0,.26,.02,.39,.03-.38-.03,.04,0,.11,.01,.25,.05,.51,.1,.76,.16,.29,.07,.58,.15,.87,.25,.12,.04,.24,.08,.36,.13,.11,.04,.36,.14,.11,.04,.5,.22,.99,.48,1.45,.78,.11,.07,.55,.37,.47,.31-.21-.15,.19,.16,.23,.19,.13,.11,.25,.22,.37,.33,.18,.17,.35,.34,.52,.53,.08,.09,.51,.65,.3,.34,.15,.21,.29,.43,.42,.65,.07,.12,.44,.85,.33,.6,.5,1.18,.57,1.76,.52,2.92,0,.17-.02,.35-.04,.52,0-.06,.05-.31,0-.02-.05,.26-.1,.51-.17,.77-.08,.29-.17,.59-.29,.87,.02-.06,.11-.25-.01,0-.03,.07-.07,.15-.11,.22-.08,.12-.07,.13,.02,.03,.07,0,.54-.29,.6-.35,.17-.13,.23,0-.06-.01-.24-.02-.49-.02-.73-.04-.12,0-.24-.02-.36-.03-.06,0-.57-.06-.27-.03,.27,.03-.13-.02-.15-.02-.16-.03-.32-.05-.48-.08-1.08-.19-2.15-.47-3.19-.83-.27-.09-.53-.19-.79-.3-.47-.18-.17-.07-.07-.03-.15-.07-.29-.13-.43-.2-.53-.25-1.05-.54-1.56-.85-.23-.14-.46-.29-.68-.44-.13-.09-.25-.18-.37-.27,.2,.15,.11,.09-.03-.03-.43-.36-.84-.74-1.23-1.15-.18-.19-.34-.39-.51-.59,.3,.37-.17-.26-.25-.38-.16-.25-.3-.5-.44-.76-.05-.1-.1-.2-.15-.29-.02-.05-.2-.46-.09-.2s-.02-.08-.03-.11c-.05-.17-.11-.34-.16-.51-.14-.51-.05-.25-.03-.13-.03-.27,.1-.24,0-.11-.22,.26-.25,.38-.59,.54,.15-.07,.28,.02,.07-.04-.51-.13-.33,.14-1-.39,1.06,.84,2.5,1.03,3.54,0,.87-.87,1.06-2.69,0-3.54h0Z"/><path class="cls-3" d="M108.57,308.15c-1.06-.84-2.17-1.22-3.53-.95-1.1,.22-2.11,.87-2.73,1.81-1.26,1.91-.68,4.15,.21,6.06,1.36,2.93,4.09,5.21,6.95,6.6,1.54,.75,3.16,1.34,4.83,1.72,.86,.19,1.72,.32,2.59,.43,.96,.12,2.02,.27,2.96,0,2.16-.61,3.15-2.9,3.55-4.94s.32-4.06-.37-5.97c-1.33-3.69-4.34-6.33-8.01-7.58s-8.48-1.12-10.41,2.61c-.81,1.56-.98,3.48-.43,5.15,.63,1.93,2,3.39,3.65,4.53,1.38,.95,3.17,1.84,4.83,2.17,2.35,.46,4.72-.5,5.12-3.08,.33-2.1,.21-4.31-.79-6.23-1.1-2.1-3.6-3.75-6.01-2.97-2.55,.83-3.25,3.88-2.14,6.1s3.29,3.19,5.56,3.45c1.92,.22,3.07-2.27,2.16-3.76-1.03-1.68-2.19-3.31-3.87-4.39s-3.87-1.37-5.88-1.5c-2.57-.16-3.27,3.43-1.26,4.66,1.35,.83,2.67,1.71,4.03,2.53,.63,.38,1.27,.73,1.91,1.08,1.07,.57,2.24,1.32,3.49,1.31,5.52-.05,4.78-10.08-.46-8.63-2.56,.71-2.77,3.76-2.24,5.88,.56,2.26,2.21,4.08,4.6,4.31,1.92,.19,4.08-.85,4.64-2.81,.74-2.59-1.49-4.55-3.68-5.36-1.79-.66-3.61,.17-4.27,1.97-.36,.99-.35,2.14-.08,3.15,.6,2.28,2.55,4.07,4.81,4.63,1.83,.46,3.6-1.2,3.08-3.08-.61-2.17-3.19-2.97-5.09-1.96-2.04,1.08-2.26,3.41-1.62,5.42l3.67-2.82c-2.33-1.21-4.41-2.61-6.19-4.21-.99-.89-1.92-1.84-2.79-2.85-.46-.54-.6-.71-.92-1.14-.17-.23-.37-.69-.58-.86,.27,.79,.11,1.39-.48,1.81,.1-.07,.2-.13,.31-.19,1.18-.7,2.26-1.3,3.46-1.63,.11-.03,1.09-.21,.66-.16,.25-.03,.51-.04,.76-.03,.42,0,.86,.06,1.23,.23-.3-.14,.65,.48,.22,.12,.13,.11,.25,.23,.36,.36,.19,.23,.22,.26,.09,.08,.46,.57,.88,1.19,1.31,1.78,.97,1.31,1.94,2.62,2.91,3.94l1.49-3.67c.27-.06,.09,.03-.08,0,.26,.07,.13,.02-.05-.02-.13-.03-.34-.12-.1-.01-.15-.07-.3-.16-.45-.24-.3-.18-.59-.38-.86-.59,.2,.15-.05-.04-.11-.09-.13-.11-.26-.21-.39-.32-1-.81-1.96-1.66-2.98-2.44-.96-.74-1.95-1.31-3.1-1.71-1.28-.45-2.62-.43-3.94-.59l2.16,3.76v-.02c-.49,.38-.98,.77-1.48,1.15l-.54,.06-1.26-.34h.02v-4.3c-.86,.49-1.61,1.14-2.14,1.99-.36,.58-.61,1.26-.63,1.95,0,.3,0,.61,.09,.9,.32,1.1,1.04-2.26,.58-1.79-.14,.14,.53-.27,.15-.14-.12,.04-.27,.15-.39,.21-.24,.13-.49,.25-.73,.39-.98,.63-1.72,1.55-1.7,2.77,.02,1.62,1.58,2.84,3.16,2.41,1.3-.35,2.21-1.41,2.48-2.72,.07-.35,.07-.72,.15-1.07-.18,.81,.21-.41-.07,.25,.02-.06,.33-.55,.15-.31-.23,.32,.47-.42,.18-.19-.22,.18,.27-.16,.32-.19-.38,.22,.18-.05,.28-.08-.39,.12,.1,0,.28,0,.45-.01-.09-.05,.15,.03,.16,.05,.49,.19,.17,.03,.05,.02,.64,.41,.27,.11,.06,.05,.5,.55,.21,.15,.13,.18,.22,.38,.31,.58,.54,1.24,2.35,1.52,3.42,.9,1.28-.75,1.44-2.18,.9-3.42-1.15-2.62-4.48-3.89-7.16-3.16-1.41,.38-2.63,1.27-3.47,2.46-.37,.53-.66,1.14-.81,1.77-.03,.14-.23,1.33-.09,.6-.02,.13-.04,.27-.08,.4,.19-.46,.54-.78,1.05-.97l3.16,2.41c0,.57-.33,1.08-.68,1.47-.23,.26-.11,.07,.03,0,.2-.1,.4-.22,.61-.32,.59-.31,1.14-.68,1.54-1.21,.36-.47,.61-1.05,.6-1.67,0-.23-.2-1.53-.17-.54,.06,.2,.05,.38-.04,.55-.07,.15-.07,.17,0,.04,.09-.15,.06-.12-.09,.09l.14-.15c.23-.15,.14-.1-.04,0,.13-.07,.26-.14,.38-.22,1.68-.97,1.55-3.32,0-4.32-1.21-.78-2.85-.22-3.58,.93-.47,.75-.44,1.77,0,2.52,.49,.83,1.25,1.13,2.16,1.24,.29,.04,.59,.03,.88,.05,.16,.01,.32,.03,.48,.04-.49-.05,0,0,.11,.02,.26,.05,.53,.11,.78,.18,.12,.04,.24,.08,.36,.11,.07,.02,.45,.18,.12,.04s.04,.03,.1,.06c.13,.07,.26,.14,.39,.21,.2,.12,.4,.25,.6,.38,.1,.07,.19,.15,.29,.21-.15-.1-.29-.23-.06-.05s.47,.38,.7,.58c2.5,2.1,5.08,4.73,8.63,4.01,1.47-.3,2.42-2.41,1.49-3.67s-1.81-2.45-2.72-3.67c-.86-1.16-1.66-2.53-2.74-3.5-2.28-2.03-5.64-2.21-8.43-1.22s-7.32,2.93-5.81,6.6c.54,1.32,1.6,2.47,2.52,3.54,.81,.94,1.67,1.84,2.59,2.67,2.23,2.03,4.72,3.78,7.4,5.17,1.84,.95,4.37-.64,3.67-2.82-.01-.03-.24-.74-.21-.75,.03,.08,.03,.16,0,.24-.05,.24-.17,.44-.37,.61-.81,.78-2.06,.15-2.35-.9l3.08-3.08c-.06-.02-.72-.25-.27-.05-.2-.1-.4-.21-.58-.34,.29,.19,.05,.03-.09-.11-.08-.08-.15-.16-.22-.24,.14,.19,.17,.21,.07,.07-.09-.15-.19-.31-.26-.47,.22,.51,0-.12-.01-.21,.1,.42,.02,.08,.03-.17l-.03,.25c.17-.55-.03-.29-.59,.75l-1.26,.34c-.23,.01-.39-.17-.07,.02,.21,.12,.43,.22,.63,.37-.16-.13-.18-.14-.06-.02,.13,.13,.11,.1-.06-.08-.07-.9-.44-.87,.26-1.71-.27,.32,.21-.24,.4-.19-.05-.01-.81,.04-.06,.06-.12,0-.56-.11-.23,.01,.21,.03,.2,.02-.03-.03,.28,.13,.34,.15,.18,.06-.12-.07-.1-.06,.06,.04-.18-.19-.21-.23-.1-.11,.11,.36-.26-.63-.12-.26,.1,.27-.08-.32-.09-.37-.06-.23-.11-.46-.14-.7,.03,.26,.04,.27,.02,.01l-.05,.27c.07-.23,.07-.26,0-.08-.05,.13-.13,.23-.24,.32-1.87,2.04-3.21-1.8-2.82-.19-.15-.61-.05-.09-.03,.08,.04,.49,.15-.41,0,.08-.14,.43,.17-.25,.27-.35,.19-.18,.47-.29,.72-.33,.11-.02,.22-.03,.32-.04,.18,.07,.18,.06,0-.03-.31-.3-.96-.49-1.35-.7s-.79-.43-1.17-.65c-1.54-.89-3.02-1.9-4.54-2.84l-1.26,4.66c.24,.02,.49,.03,.73,.05,.07,0,.83,.1,.22,.01,.36,.05,.72,.12,1.07,.2,.32,.08,.61,.19,.92,.29-.6-.18-.16-.08,0,.02,.14,.08,.28,.16,.41,.24,.15,.09,.51,.43,0-.02,.1,.09,.21,.17,.3,.27,.23,.21,.43,.45,.64,.68,.41,.44-.3-.44,.07,.07,.11,.16,.23,.32,.34,.49,.25,.36,.48,.74,.71,1.11l2.16-3.76c.4,.04-.17-.07-.29-.1-.48-.13-.17-.08-.07-.02-.11-.06-.21-.12-.31-.18-.24-.13-.03,0,.02,.05-.09-.07-.18-.16-.26-.24-.04-.04-.38-.39-.18-.19,.08,.1,.08,.09,0-.03-.08-.14-.08-.13,0,.03,.11,.05,.04,.18,0-.06,0,.01,.04,.48,.02,.19-.04-.53,.01,.03-.14,.27-.14,.22-.41,.41-.66,.48-.1,.03-.19,.02-.28,.04-.26,.04-.26-.16-.03,.06-.27-.25,.14,.14,.22,.22,.02,.02,.24,.31,.09,.1-.16-.23,.08,.17,.11,.22,.05,.1,.11,.2,.15,.3-.02-.05-.12-.34-.05-.07s.14,.52,.2,.78c-.1-.47,.02,.23,.02,.38,.01,.23,.01,.47,0,.7,0,.27-.03,.54-.05,.81,0-.09,.12-.33,.01-.12-.04,.14-.03,.14,.03,0,.08-.2,.24-.35,.48-.42,.53-.4,.28-.27,.69-.34-.37,.06-.17,.03,0,.05-.23-.03-.45-.1-.67-.17-.28-.09-.55-.2-.82-.3s-.06-.02,0,0c-.16-.07-.32-.14-.47-.21-1.1-.52-1.87-.99-2.51-1.65-.09-.09-.43-.5-.35-.4,.08,.12-.22-.4-.29-.51,.21,.34,.01,.02-.05-.19-.03-.1-.04-.21-.07-.31-.1-.24-.02,.39,0-.06,0-.21,0-.41,.02-.62-.04,.5,.08-.03,.1-.24,.03-.25-.02,.07-.06,.13,.01-.02,.15-.27,.15-.27-.03-.03,.07-.11-.1,.09,.09-.11,.19-.2,.28-.3,.31-.33,.09-.05,0,0,.1-.06,.2-.12,.31-.17,.28-.13,.06-.01,.01,0,.13-.04,.26-.07,.39-.1,.05-.01,.59-.09,.33-.06-.23,.02,.22,0,.21,0,.32,0,.63,0,.95,.02,.13,0,.26,.02,.39,.03-.38-.03,.04,0,.11,.01,.25,.05,.51,.1,.76,.16,.29,.07,.58,.15,.87,.25,.12,.04,.24,.08,.36,.13,.11,.04,.36,.14,.11,.04,.5,.22,.99,.48,1.45,.78,.11,.07,.55,.37,.47,.31-.21-.15,.19,.16,.23,.19,.13,.11,.25,.22,.37,.33,.18,.17,.35,.34,.52,.53,.08,.09,.51,.65,.3,.34,.15,.21,.29,.43,.42,.65,.07,.12,.44,.85,.33,.6,.5,1.18,.57,1.76,.52,2.92,0,.17-.02,.35-.04,.52,0-.06,.05-.31,0-.02-.05,.26-.1,.51-.17,.77-.08,.29-.17,.59-.29,.87,.02-.06,.11-.25-.01,0-.03,.07-.07,.15-.11,.22-.08,.12-.07,.13,.02,.03,.07,0,.54-.29,.6-.35,.17-.13,.23,0-.06-.01-.24-.02-.49-.02-.73-.04-.12,0-.24-.02-.36-.03-.06,0-.57-.06-.27-.03,.27,.03-.13-.02-.15-.02-.16-.03-.32-.05-.48-.08-1.08-.19-2.15-.47-3.19-.83-.27-.09-.53-.19-.79-.3-.47-.18-.17-.07-.07-.03-.15-.07-.29-.13-.43-.2-.53-.25-1.05-.54-1.56-.85-.23-.14-.46-.29-.68-.44-.13-.09-.25-.18-.37-.27,.2,.15,.11,.09-.03-.03-.43-.36-.84-.74-1.23-1.15-.18-.19-.34-.39-.51-.59,.3,.37-.17-.26-.25-.38-.16-.25-.3-.5-.44-.76-.05-.1-.1-.2-.15-.29-.02-.05-.2-.46-.09-.2s-.02-.08-.03-.11c-.05-.17-.11-.34-.16-.51-.14-.51-.05-.25-.03-.13-.03-.27,.1-.24,0-.11-.22,.26-.25,.38-.59,.54,.15-.07,.28,.02,.07-.04-.51-.13-.33,.14-1-.39,1.06,.84,2.5,1.03,3.54,0,.87-.87,1.06-2.69,0-3.54h0Z"/><path class="cls-2" d="M7.78,195.02c.94,7.9,10.76,13.45,19.28,14.13s16.96-3.97,21.23-10.81c5.32-8.52,4.75-19.73,11.32-27.45,3.85-4.52,9.93-7.55,12.05-12.97,1.76-4.49,.25-9.68-2.75-13.62s-7.3-6.83-11.63-9.48c-8.6-5.25-18.04-9.95-28.26-10.62-10.22-.67-21.35,3.62-25.53,12.25-1.82,3.76-2.21,7.97-2.58,12.1-1.41,15.85-2.47,33.03,6.86,46.48"/></svg>