<?xml version="1.0" encoding="UTF-8"?><svg id="Lager_1" xmlns="http://www.w3.org/2000/svg" xmlns:xlink="http://www.w3.org/1999/xlink" viewBox="0 0 1050.9 898"><defs><style>.cls-1{fill:#f4a94a;}.cls-2{fill:#f5b38e;}.cls-3{fill:#f37965;}.cls-4{fill:#1b1b1a;}</style></defs><path class="cls-2" d="M3.69,224.14c56.84-42.84,130.51-56.76,201.64-59.33,9.68-.35,19.46-.51,28.94,1.46,14.76,3.06,28.07,11.14,39.61,20.83,16.24,13.63,29.76,31.09,36.02,51.35,6.26,20.25,4.6,43.42-7,61.16-6.76,10.33-16.4,18.34-25.17,27.03-59.51,58.99-78.42,148.99-134.73,211.04-13.94,15.37-33.29,29.72-53.62,25.59-14.39-2.92-25.38-14.52-33.81-26.55-30.11-42.95-39.59-96.75-45.65-148.85C4.6,342.1,1.3,296.1,.05,250.04c-.27-9.81,.28-21.18,8.12-27.07"/><image width="468" height="898" transform="translate(582.9)" xlink:href="../../Skärmavbild 2022-09-15 kl. 10.37.34.png"/><path class="cls-3" d="M247.79,462.83c-6.54-.95-13.03,2.93-17.04,8.19s-6.02,11.73-7.95,18.05c-2.13,6.94-4.27,13.99-4.46,21.25-.08,2.93,.19,5.97,1.55,8.57,2.84,5.45,9.44,7.55,15.42,8.96,9.93,2.35,21.01,4.08,29.81-1.08,7.59-4.45,11.64-12.99,14.98-21.12,.9-2.18,1.78-4.44,1.78-6.79,0-2.25-.81-4.42-1.86-6.41-7.22-13.68-24.48-19.16-33.16-31.97"/><path class="cls-1" d="M21.5,584.95c-5.82,20.98-4.81,43.79,2.85,64.17,5.52,14.67,14.27,27.87,23,40.89,17.74,26.45,36.75,53.69,64.67,69.01,27.92,15.32,67.4,14.52,87.27-10.37,8.78-11,12.65-25.02,16.1-38.66,8.35-33.04,15.49-66.99,12.8-100.96-.38-4.76-1.05-9.77-3.97-13.56-2.72-3.53-6.99-5.46-11.17-6.98-38.37-13.92-81.18-3.66-121.51-9.96-17.72-2.77-35.4-8.76-53.17-6.33-5.5,.75-11.18,2.5-14.89,6.62s-4.58,11.16-.64,15.06"/><path class="cls-4" d="M248.61,402.43c-4.49,1.07-4.57,8.22-1.5,10.8,2.3,1.93,5.53,1.31,7.43-.9,2-2.34,2.6-5.38,2.04-8.37s-2.44-5.74-4.77-7.62c-.84-.68-2.03-1.03-3.03-.39-1.98,1.27-2.51,3.76-1.85,5.93s2.67,4.16,5.14,3.43c1.25-.37,2.17-1.77,1.75-3.08s-1.73-2.14-3.08-1.75c-.42,.12,.65-.01,.24-.02,.01,0,.68,.13,.37,.04,.63,.18,.45,.22,.23,.07,.09,.06,.49,.43,.22,.14-.19-.2,.32,.53,.14,.18-.05-.09-.11-.18-.16-.27-.27-.43,.09,.18,.07,.18-.02,0-.12-.36-.12-.38-.03-.11-.04-.23-.07-.33-.09-.27,.02,.62,.03,.19,0-.11,0-.23,0-.33-.03-.49,.04,.18-.05,.21-.04,.01,.5-1.11,0-.16,.1-.19,.29-.31-.16,.17,.28-.3-.52,.34-.15,.1l-3.03-.39c.72,.58,1.34,1.22,1.94,1.92,.18,.21-.05-.06-.07-.09,.08,.12,.16,.23,.24,.34,.12,.17,.23,.35,.34,.53,.13,.21,.25,.43,.36,.65,.07,.14,.32,.72,.15,.28,.17,.44,.32,.89,.43,1.35,.06,.25,.11,.51,.15,.76-.06-.48,0,.18,0,.34,0,.24,0,.49-.02,.73-.02,.49,.08-.31-.03,.16-.06,.24-.11,.47-.18,.7-.06,.18-.28,.71-.07,.26-.19,.39-.4,.74-.63,1.11-.14,.24,.09-.12,.11-.13-.09,.08-.16,.18-.24,.27-.06,.06-.13,.12-.19,.19-.1,.1-.35,.19-.08,.08,.43-.18-.33,.12-.31,.16-.03-.05,.5-.13,.23-.1-.07,0-.16,.04-.23,.07-.41,.14,.52-.02-.04-.03-.27,0,.26,.03,.27,.04,0-.01-.24-.08-.27-.08-.05,0,.68,.2,.29,.11-.05-.01-.1-.07-.14-.09-.12-.05,.47,.4,.15,.1-.37-.36,.23,.42,.05,.09-.07-.13-.15-.25-.23-.38-.28-.47,.13,.44,.02,.06-.04-.13-.09-.26-.12-.39-.04-.15-.07-.31-.11-.47-.12-.53,.02,.45,0,.05,0-.25,.11-.89,0-1.09,0,0-.11,.56-.04,.34,.02-.08,.03-.17,.05-.26,.04-.16,.11-.32,.14-.48,.05-.22-.13,.31-.14,.32,.04-.03,.08-.16,.11-.21,.27-.51-.23,.31-.06,.06,.03-.04,.08-.08,.12-.11,.22-.18-.49,.35-.25,.2,.38-.24-.61,.17-.04,.03,1.27-.3,2.15-1.82,1.75-3.08-.43-1.33-1.71-2.07-3.08-1.75h0Z"/><path class="cls-4" d="M250.07,406.83c3.22,0,3.22-5,0-5s-3.22,5,0,5h0Z"/><path class="cls-4" d="M250.51,407.28c3.22,0,3.22-5,0-5s-3.22,5,0,5h0Z"/><path class="cls-4" d="M249.29,402.75l.43-1.34c.1-.33,.12-.66,.04-1-.02-.33-.11-.64-.3-.93-.16-.29-.37-.53-.64-.7-.24-.22-.52-.37-.85-.45l-.66-.09c-.45,0-.87,.12-1.26,.34l-.51,.39c-.31,.31-.52,.68-.64,1.1l-.43,1.34c-.1,.33-.12,.66-.04,1,.02,.33,.11,.64,.3,.93,.16,.29,.37,.53,.64,.7,.24,.22,.52,.37,.85,.45l.66,.09c.45,0,.87-.12,1.26-.34l.51-.39c.31-.31,.52-.68,.64-1.1h0Z"/><path class="cls-4" d="M248.5,402.73l1.55-.44c1.2-.34,1.96-1.52,1.79-2.74-.15-1.14-1.21-2.27-2.46-2.17-.71,.06-1.28,.17-1.92,.44s-1.12,.57-1.65,1.02c-.82,.69-1.44,1.7-1.72,2.73s-.27,2.26,.1,3.28c.19,.52,.4,1.02,.73,1.47,.48,.66,.93,1.1,1.61,1.58,.51,.35,1.35,.41,1.93,.25s1.21-.61,1.49-1.15c.31-.58,.46-1.28,.25-1.93s-.59-1.1-1.15-1.49c-.05-.03-.09-.06-.13-.1l.51,.39c-.22-.17-.41-.37-.58-.59l.39,.51c-.17-.22-.3-.46-.41-.71l.25,.6c-.12-.28-.2-.57-.24-.88l.09,.66c-.03-.28-.04-.55,0-.82l-.09,.66c.04-.28,.11-.54,.22-.8l-.25,.6c.11-.25,.25-.49,.42-.71l-.39,.51c.17-.22,.37-.41,.59-.58l-.51,.39c.24-.19,.5-.34,.78-.46l-.6,.25c.26-.1,.52-.17,.8-.21l-.66,.09c.05,0,.11-.01,.17-.02l-.66-4.91-1.55,.44c-.61,.17-1.17,.6-1.49,1.15s-.45,1.33-.25,1.93c.41,1.28,1.73,2.13,3.08,1.75h0Z"/><path class="cls-4" d="M279.49,414.1c1.73-.81,2.21-3.09,2.05-4.81s-.68-3.69-2.06-4.88c-.99-.85-2.34-1.24-3.61-.82-1.15,.38-2.07,1.26-2.61,2.32-1.13,2.22-1.22,4.85-.58,7.23s2.09,4.78,4.04,6.41c.99,.83,2.57,1.08,3.54,0,1.29-1.44,1.37-3.52,.7-5.27-.35-.93-.81-1.76-1.61-2.37-1.05-.81-2.37-.92-3.54-.28s-1.61,2.31-.9,3.42,2.19,1.57,3.42,.9c-.67,.37-1.24,.31-1.89,0,.3,.15-.47-.41-.27-.21,.22,.21-.07,.11-.17-.25,.04,.13,.18,.3,.25,.42,.2,.35-.07-.1-.09-.22,.02,.1,.07,.2,.1,.29,.06,.18,.09,.36,.13,.54,.1,.43-.02-.49-.03-.24,0,.1,0,.2,.01,.3,0,.12-.05,.48,.02,0,.08-.53,.02-.08-.01-.02-.15,.29,.15-.31,.15-.32-.11,.22-.29,.33,.18-.2h3.54c-.26-.22-.51-.45-.75-.69s-.45-.62-.72-.82c.01,0,.28,.39,.13,.16-.05-.07-.1-.14-.15-.22-.12-.17-.23-.35-.34-.53-.21-.34-.39-.7-.57-1.06-.21-.43,.12,.35-.04-.11-.08-.22-.15-.43-.22-.65-.04-.12-.38-1.24-.3-1.28,.01,0,.05,.51,.03,.21,0-.09-.02-.18-.02-.28-.01-.21-.02-.43-.02-.64,0-.18,.01-.36,.03-.54,0-.07,.04-.2,.03-.27,.03,.12-.09,.49-.01,.14s.19-.69,.28-1.04c.06-.25-.1,.23-.11,.24,.04-.04,.07-.15,.09-.2,.06-.1,.23-.31,.25-.42,0,.05-.42,.45-.15,.21,.03-.03,.11-.09,.13-.13,.05-.1-.5,.31-.14,.13-.15,.08-.3,.13-.48,.16-.4,.06-.24,.04-.12,.04,.02,0-.65-.1-.37-.03-.71-.18-.55-.26-.37-.15,.09,.06,.22,.16-.11-.1-.38-.3-.09-.07-.02,.02,.27,.32-.2-.34-.14-.19,.05,.13,.16,.25,.22,.37,.05,.1,.22,.49,.04,.07s-.01,0,.02,.09c.09,.27,.16,.56,.22,.84,.01,.06,.02,.12,.03,.19,.07,.34-.04-.24-.04-.29,0,.14,.03,.29,.03,.43s0,.28,0,.42c0,.08-.01,.15-.01,.23,0,.33,.04-.3,.05-.34-.04,.11-.05,.24-.08,.35-.12,.41-.01,.01,.1-.2-.23,.44,.33-.34,.15-.16s.61-.37,.19-.17c-1.19,.56-1.58,2.36-.9,3.42,.79,1.22,2.15,1.49,3.42,.9h0Z"/><path class="cls-4" d="M230.69,427.6c-4.49,1.07-4.57,8.22-1.5,10.8,2.3,1.93,5.53,1.31,7.43-.9,2-2.34,2.6-5.38,2.04-8.37s-2.44-5.74-4.77-7.62c-.84-.68-2.03-1.03-3.03-.39-1.98,1.27-2.51,3.76-1.85,5.93s2.67,4.16,5.14,3.43c1.25-.37,2.17-1.77,1.75-3.08s-1.73-2.14-3.08-1.75c-.42,.12,.65-.01,.24-.02,.01,0,.68,.13,.37,.04,.63,.18,.45,.22,.23,.07,.09,.06,.49,.43,.22,.14-.19-.2,.32,.53,.14,.18-.05-.09-.11-.18-.16-.27-.27-.43,.09,.18,.07,.18-.02,0-.12-.36-.12-.38-.03-.11-.04-.23-.07-.33-.09-.27,.02,.62,.03,.19,0-.11,0-.23,0-.33-.03-.49,.04,.18-.05,.21-.04,.01,.5-1.11,0-.16,.1-.19,.29-.31-.16,.17,.28-.3-.52,.34-.15,.1l-3.03-.39c.72,.58,1.34,1.22,1.94,1.92,.18,.21-.05-.06-.07-.09,.08,.12,.16,.23,.24,.34,.12,.17,.23,.35,.34,.53,.13,.21,.25,.43,.36,.65,.07,.14,.32,.72,.15,.28,.17,.44,.32,.89,.43,1.35,.06,.25,.11,.51,.15,.76-.06-.48,0,.18,0,.34,0,.24,0,.49-.02,.73-.02,.49,.08-.31-.03,.16-.06,.24-.11,.47-.18,.7-.06,.18-.28,.71-.07,.26-.19,.39-.4,.74-.63,1.11-.14,.24,.09-.12,.11-.13-.09,.08-.16,.18-.24,.27-.06,.06-.13,.12-.19,.19-.1,.1-.35,.19-.08,.08,.43-.18-.33,.12-.31,.16-.03-.05,.5-.13,.23-.1-.07,0-.16,.04-.23,.07-.41,.14,.52-.02-.04-.03-.27,0,.26,.03,.27,.04,0-.01-.24-.08-.27-.08-.05,0,.68,.2,.29,.11-.05-.01-.1-.07-.14-.09-.12-.05,.47,.4,.15,.1-.37-.36,.23,.42,.05,.09-.07-.13-.15-.25-.23-.38-.28-.47,.13,.44,.02,.06-.04-.13-.09-.26-.12-.39-.04-.15-.07-.31-.11-.47-.12-.53,.02,.45,0,.05,0-.25,.11-.89,0-1.09,0,0-.11,.56-.04,.34,.02-.08,.03-.17,.05-.26,.04-.16,.11-.32,.14-.48,.05-.22-.13,.31-.14,.32,.04-.03,.08-.16,.11-.21,.27-.51-.23,.31-.06,.06,.03-.04,.08-.08,.12-.11,.22-.18-.49,.35-.25,.2,.38-.24-.61,.17-.04,.03,1.27-.3,2.15-1.82,1.75-3.08-.43-1.33-1.71-2.07-3.08-1.75h0Z"/><path class="cls-4" d="M232.15,432c3.22,0,3.22-5,0-5s-3.22,5,0,5h0Z"/><path class="cls-4" d="M232.6,432.45c3.22,0,3.22-5,0-5s-3.22,5,0,5h0Z"/><path class="cls-4" d="M231.38,427.92l.43-1.34c.1-.33,.12-.66,.04-1-.02-.33-.11-.64-.3-.93-.16-.29-.37-.53-.64-.7-.24-.22-.52-.37-.85-.45l-.66-.09c-.45,0-.87,.12-1.26,.34l-.51,.39c-.31,.31-.52,.68-.64,1.1l-.43,1.34c-.1,.33-.12,.66-.04,1,.02,.33,.11,.64,.3,.93,.16,.29,.37,.53,.64,.7,.24,.22,.52,.37,.85,.45l.66,.09c.45,0,.87-.12,1.26-.34l.51-.39c.31-.31,.52-.68,.64-1.1h0Z"/><path class="cls-4" d="M230.59,427.9l1.55-.44c1.2-.34,1.96-1.52,1.79-2.74-.15-1.14-1.21-2.27-2.46-2.17-.71,.06-1.28,.17-1.92,.44s-1.12,.57-1.65,1.02c-.82,.69-1.44,1.7-1.72,2.73s-.27,2.26,.1,3.28c.19,.52,.4,1.02,.73,1.47,.48,.66,.93,1.1,1.61,1.58,.51,.35,1.35,.41,1.93,.25s1.21-.61,1.49-1.15c.31-.58,.46-1.28,.25-1.93s-.59-1.1-1.15-1.49c-.05-.03-.09-.06-.13-.1l.51,.39c-.22-.17-.41-.37-.58-.59l.39,.51c-.17-.22-.3-.46-.41-.71l.25,.6c-.12-.28-.2-.57-.24-.88l.09,.66c-.03-.28-.04-.55,0-.82l-.09,.66c.04-.28,.11-.54,.22-.8l-.25,.6c.11-.25,.25-.49,.42-.71l-.39,.51c.17-.22,.37-.41,.59-.58l-.51,.39c.24-.19,.5-.34,.78-.46l-.6,.25c.26-.1,.52-.17,.8-.21l-.66,.09c.05,0,.11-.01,.17-.02l-.66-4.91-1.55,.44c-.61,.17-1.17,.6-1.49,1.15s-.45,1.33-.25,1.93c.41,1.28,1.73,2.13,3.08,1.75h0Z"/><path class="cls-4" d="M261.58,439.27c1.73-.81,2.21-3.09,2.05-4.81s-.68-3.69-2.06-4.88c-.99-.85-2.34-1.24-3.61-.82-1.15,.38-2.07,1.26-2.61,2.32-1.13,2.22-1.22,4.85-.58,7.23s2.09,4.78,4.04,6.41c.99,.83,2.57,1.08,3.54,0,1.29-1.44,1.37-3.52,.7-5.27-.35-.93-.81-1.76-1.61-2.37-1.05-.81-2.37-.92-3.54-.28s-1.61,2.31-.9,3.42,2.19,1.57,3.42,.9c-.67,.37-1.24,.31-1.89,0,.3,.15-.47-.41-.27-.21,.22,.21-.07,.11-.17-.25,.04,.13,.18,.3,.25,.42,.2,.35-.07-.1-.09-.22,.02,.1,.07,.2,.1,.29,.06,.18,.09,.36,.13,.54,.1,.43-.02-.49-.03-.24,0,.1,0,.2,.01,.3,0,.12-.05,.48,.02,0,.08-.53,.02-.08-.01-.02-.15,.29,.15-.31,.15-.32-.11,.22-.29,.33,.18-.2h3.54c-.26-.22-.51-.45-.75-.69s-.45-.62-.72-.82c.01,0,.28,.39,.13,.16-.05-.07-.1-.14-.15-.22-.12-.17-.23-.35-.34-.53-.21-.34-.39-.7-.57-1.06-.21-.43,.12,.35-.04-.11-.08-.22-.15-.43-.22-.65-.04-.12-.38-1.24-.3-1.28,.01,0,.05,.51,.03,.21,0-.09-.02-.18-.02-.28-.01-.21-.02-.43-.02-.64,0-.18,.01-.36,.03-.54,0-.07,.04-.2,.03-.27,.03,.12-.09,.49-.01,.14s.19-.69,.28-1.04c.06-.25-.1,.23-.11,.24,.04-.04,.07-.15,.09-.2,.06-.1,.23-.31,.25-.42,0,.05-.42,.45-.15,.21,.03-.03,.11-.09,.13-.13,.05-.1-.5,.31-.14,.13-.15,.08-.3,.13-.48,.16-.4,.06-.24,.04-.12,.04,.02,0-.65-.1-.37-.03-.71-.18-.55-.26-.37-.15,.09,.06,.22,.16-.11-.1-.38-.3-.09-.07-.02,.02,.27,.32-.2-.34-.14-.19,.05,.13,.16,.25,.22,.37,.05,.1,.22,.49,.04,.07s-.01,0,.02,.09c.09,.27,.16,.56,.22,.84,.01,.06,.02,.12,.03,.19,.07,.34-.04-.24-.04-.29,0,.14,.03,.29,.03,.43s0,.28,0,.42c0,.08-.01,.15-.01,.23,0,.33,.04-.3,.05-.34-.04,.11-.05,.24-.08,.35-.12,.41-.01,.01,.1-.2-.23,.44,.33-.34,.15-.16s.61-.37,.19-.17c-1.19,.56-1.58,2.36-.9,3.42,.79,1.22,2.15,1.49,3.42,.9h0Z"/><path class="cls-4" d="M81.48,720.39c-2.34-1.21-5.36-1.65-7.87-.69-1.46,.56-2.66,1.39-3.54,2.7s-1.12,2.95-.76,4.45c.69,2.84,3.55,4.75,6.35,4.92,3.15,.19,5.79-2.47,5.74-5.58-.05-2.84-1.96-5.61-4.71-6.47-1.42-.44-3.06-.21-4.32,.55s-2.12,1.99-2.63,3.38c-.86,2.35-.28,5.5,1.72,7.11,1.47,1.19,3.17,1.57,5.02,1.26,1.4-.23,2.78-1.05,3.76-2.06,1.14-1.19,1.85-2.72,1.92-4.37s-.63-3.12-1.68-4.29c-1.78-2-5.05-2.89-7.58-1.97-.86,.31-1.51,.71-2.22,1.29-.47,.38-.73,1.19-.73,1.77,0,.61,.27,1.35,.73,1.77s1.1,.76,1.77,.73,1.23-.29,1.77-.73c.32-.26-.55,.36-.2,.16,.06-.03,.11-.07,.16-.1,.12-.07,.68-.33,.21-.13s.07,0,.2-.04c.17-.04,.34-.08,.51-.1l-.66,.09c.42-.05,.83-.05,1.25,0l-.66-.09c.22,.03,.45,.07,.67,.13,.26,.07,.98,.42,.14,0,.2,.1,.41,.19,.6,.31,.08,.05,.16,.1,.24,.16,.44,.3-.31-.27-.16-.13s.3,.27,.44,.43c.38,.42-.31-.47-.1-.14,.05,.08,.11,.16,.15,.24s.09,.17,.14,.25c.19,.34-.25-.7-.07-.16,.07,.22,.12,.44,.16,.67l-.09-.66c.04,.31,.03,.62,0,.93l.09-.66c-.04,.22-.09,.43-.15,.64-.14,.49,.27-.54,.08-.17-.05,.09-.09,.18-.14,.27-.14,.24-.6,.72-.02,.09-.15,.17-.29,.34-.46,.5-.08,.07-.16,.14-.24,.21-.14,.13,.58-.42,.13-.11-.17,.12-.35,.22-.54,.32-.2,.1-.5,.15,.22-.08-.1,.03-.19,.07-.29,.1-.23,.07-.46,.12-.7,.16l.66-.09c-.34,.04-.67,.05-1.01,0l.66,.09c-.2-.03-.4-.07-.59-.14-.24-.08-.36-.28,.21,.1-.07-.05-.15-.08-.23-.12-.08-.04-.15-.1-.23-.14-.24-.14,.52,.44,.26,.2-.12-.11-.23-.28-.36-.37,.07,.05,.43,.59,.18,.23-.04-.06-.08-.12-.11-.18s-.07-.12-.1-.19c-.2-.38,.09,.19,.11,.28-.07-.34-.21-.66-.26-1.01l.09,.66c-.05-.41-.05-.83,0-1.24l-.09,.66c.05-.37,.16-.71,.27-1.07,.07-.21-.32,.7-.09,.24,.04-.08,.08-.15,.12-.23,.15-.25,.55-.62-.05,.01,.12-.12,.22-.25,.35-.37,.18-.16,.39-.21-.24,.18,.07-.04,.14-.1,.21-.14s.15-.08,.23-.12c.34-.19-.63,.23-.28,.12,.21-.06,.41-.12,.62-.15l-.66,.09c.24-.03,.47-.03,.71,0l-.66-.09c.2,.03,.4,.07,.6,.14,.49,.17-.42-.21-.23-.1,.09,.05,.18,.09,.27,.15,.08,.05,.15,.1,.22,.15,.32,.21-.57-.48-.15-.11,.15,.13,.28,.28,.42,.42,.33,.35-.36-.51-.13-.18,.05,.08,.11,.15,.16,.23,.12,.18,.22,.37,.31,.57,.18,.36-.23-.62-.11-.26,.04,.12,.08,.23,.12,.35,.06,.2,.1,.41,.13,.62l-.09-.66c.04,.33,.04,.65,0,.98l.09-.66c-.02,.14-.05,.29-.09,.43-.02,.07-.05,.14-.07,.21-.05,.21,.31-.63,.13-.31-.06,.12-.13,.23-.2,.35-.2,.33,.15-.23,.2-.25-.05,.02-.12,.13-.16,.17-.06,.06-.12,.11-.17,.16-.22,.21,.27-.22,.29-.22-.1,.02-.3,.18-.39,.23-.31,.17,.58-.2,.31-.13-.07,.02-.14,.05-.21,.07-.14,.04-.29,.07-.43,.09l.66-.09c-.33,.04-.65,.03-.98-.01l.66,.09c-.21-.03-.42-.08-.63-.14-.09-.03-.18-.06-.26-.09-.38-.12,.68,.32,.17,.07-.17-.08-.33-.17-.49-.27-.1-.06-.2-.16-.31-.21,.11,.05,.54,.44,.22,.16-.15-.13-.29-.28-.42-.43-.33-.35,.36,.52,.14,.18-.05-.08-.1-.15-.15-.23-.05-.09-.1-.18-.15-.28-.23-.42,.21,.61,.1,.23-.06-.2-.11-.39-.15-.6l.09,.66c-.03-.24-.03-.48,0-.72l-.09,.66c.03-.22,.08-.44,.15-.65,.19-.55-.26,.5-.07,.15,.05-.08,.09-.17,.14-.25,.06-.1,.16-.2,.21-.31-.04,.1-.45,.54-.16,.22,.19-.21,.8-.61,.04-.1,.18-.12,.36-.25,.55-.35,.08-.05,.17-.09,.25-.13,.36-.18-.69,.26-.15,.07,.44-.16,.89-.26,1.35-.32l-.66,.09c.65-.08,1.3-.07,1.96,0l-.66-.09c.43,.06,.85,.14,1.27,.27,.2,.06,.39,.14,.58,.2,.26,.09-.66-.31-.22-.09,.11,.05,.21,.1,.32,.16,1.16,.6,2.77,.34,3.42-.9,.61-1.15,.34-2.78-.9-3.42h0Z"/><path class="cls-4" d="M75.54,726.64c.81-.41,1.62-.81,2.42-1.22,.29-.16,.53-.37,.7-.64,.22-.24,.37-.52,.45-.85,.1-.33,.12-.66,.04-1-.02-.33-.11-.64-.3-.93l-.39-.51c-.31-.31-.68-.52-1.1-.64l-.66-.09c-.45,0-.87,.12-1.26,.34l-2.42,1.22c-.29,.16-.53,.37-.7,.64-.22,.24-.37,.52-.45,.85-.1,.33-.12,.66-.04,1,.02,.33,.11,.64,.3,.93l.39,.51c.31,.31,.68,.52,1.1,.64l.66,.09c.45,0,.87-.12,1.26-.34h0Z"/><path class="cls-4" d="M93.02,729.63c-.35,.75-.56,1.47-.55,2.32s.19,1.56,.53,2.3,.93,1.28,1.65,1.59c.61,.26,1.24,.31,1.89,.16,.58-.14,.99-.45,1.44-.82l-1.1,.64c.76-.11,1.57-.58,2.07-1.16,.68-.8,.98-1.65,1.09-2.68,.15-1.45-.44-2.89-1.34-3.99-1.03-1.26-2.83-1.8-4.38-1.29-1.02,.33-1.82,.96-2.41,1.84-.49,.72-.67,1.56-.75,2.41-.14,1.53,.45,3.07,1.43,4.21,1.15,1.34,3.09,1.85,4.78,1.37,3.46-.98,5.25-5.59,3.32-8.65-1.15-1.81-3.25-2.83-5.38-2.76-1.12,.04-2.12,.32-3.12,.8s-1.72,1.24-2.38,2.09c-.37,.48-.4,1.38-.25,1.93,.16,.58,.61,1.21,1.15,1.49,.58,.31,1.28,.46,1.93,.25l.6-.25c.38-.22,.67-.52,.9-.9l.05-.06-.39,.51c.2-.25,.43-.47,.68-.67l-.51,.39c.3-.23,.62-.41,.97-.56l-.6,.25c.37-.15,.76-.26,1.16-.32l-.66,.09c.4-.05,.79-.06,1.19-.01l-.66-.09c.36,.05,.71,.14,1.05,.28l-.6-.25c.26,.11,.5,.25,.73,.43l-.51-.39c.23,.18,.43,.38,.61,.61l-.39-.51c.13,.17,.23,.36,.32,.55l-.25-.6c.11,.26,.18,.53,.22,.81l-.09-.66c.04,.31,.03,.61,0,.92l.09-.66c-.05,.33-.14,.65-.26,.96l.25-.6c-.13,.31-.29,.59-.49,.86l.39-.51c-.17,.22-.36,.41-.58,.59l.51-.39c-.2,.15-.41,.28-.64,.37l.6-.25c-.19,.07-.39,.13-.59,.16l.66-.09c-.21,.02-.41,.03-.62,0l.66,.09c-.18-.03-.35-.07-.52-.14l.6,.25c-.18-.08-.34-.18-.5-.3l.51,.39c-.15-.12-.29-.26-.41-.42l.39,.51c-.17-.22-.31-.47-.42-.73l.25,.6c-.11-.29-.19-.58-.23-.89l.09,.66c-.03-.28-.04-.56,0-.84l-.09,.66c.03-.23,.09-.45,.17-.67l-.25,.6c.07-.17,.16-.33,.28-.49l-.39,.51c.1-.13,.22-.25,.35-.35l-.51,.39c.13-.09,.26-.17,.4-.23l-.6,.25c.15-.06,.3-.1,.46-.13l-.66,.09c.14-.02,.28-.02,.42,0l-.66-.09c.13,.02,.26,.05,.39,.1l-.6-.25c.14,.06,.27,.14,.39,.23l-.51-.39c.15,.12,.28,.26,.4,.41l-.39-.51c.16,.21,.28,.43,.38,.66l-.25-.6c.11,.26,.18,.53,.22,.81l-.09-.66c.03,.25,.04,.5,0,.75l.09-.66c-.03,.19-.07,.36-.14,.54l.25-.6c-.06,.13-.13,.26-.22,.37l.39-.51c-.07,.09-.15,.16-.24,.23l.51-.39c-.1,.07-.19,.13-.3,.17l.6-.25c-.09,.04-.19,.07-.28,.09-.51,.11-.89,.38-1.3,.71l.51-.39c-.06,.05-.12,.08-.2,.11l.6-.25s-.06,.02-.09,.03l.66-.09s-.09,0-.13,0l.66,.09s-.08-.02-.13-.03l.6,.25s-.08-.04-.12-.07l.51,.39c-.05-.04-.1-.09-.14-.14l.39,.51c-.08-.11-.15-.23-.2-.36l.25,.6c-.07-.19-.12-.39-.16-.6l.09,.66c-.04-.27-.04-.54-.01-.81l-.09,.66c.03-.21,.08-.42,.16-.62l-.25,.6,.03-.06c.29-.62,.44-1.24,.25-1.93-.16-.58-.61-1.21-1.15-1.49-.58-.31-1.28-.46-1.93-.25-.59,.19-1.22,.57-1.49,1.15h0Z"/></svg>