<svg width="176" height="11" viewBox="0 0 176 11" fill="none" xmlns="http://www.w3.org/2000/svg">
<rect width="176" height="11" fill="#F5F5F5"/>
<g id="Assets" clip-path="url(#clip0_1862_60)">
<rect width="1768" height="962" transform="translate(-326 -811)" fill="white"/>
<rect id="Rectangle 14" x="-328" y="-253" width="1770" height="404" fill="#FFECEA"/>
<path id="path" d="M2 5.2453C8.87266 2.25157 14.5999 2.25157 19.1816 5.2453C23.7634 8.23904 29.4906 8.23904 36.3633 5.2453C43.236 2.25157 48.9632 2.25157 53.5449 5.2453C58.1267 8.23904 63.8539 8.23904 70.7266 5.2453C77.5993 2.25157 83.3265 2.25157 87.9082 5.2453C92.49 8.23904 98.2172 8.23904 105.09 5.2453C111.963 2.25157 117.69 2.25157 122.272 5.2453C126.853 8.23904 132.581 8.23904 139.453 5.2453C146.326 2.25157 152.053 2.25157 156.635 5.2453C161.217 8.23904 166.944 8.23904 173.816 5.2453" stroke="#FF4575" stroke-width="5.99997"/>
</g>
<defs>
<clipPath id="clip0_1862_60">
<rect width="1768" height="962" fill="white" transform="translate(-326 -811)"/>
</clipPath>
</defs>
</svg>
