<svg width="31" height="31" viewBox="0 0 31 31" fill="none" xmlns="http://www.w3.org/2000/svg">
<path id="Ic-ArrowDown" d="M15.5 21.8682L21.5 15.8682L19.4 13.7682L17 16.1682V9.86816H14V16.1682L11.6 13.7682L9.5 15.8682L15.5 21.8682ZM15.5 30.8682C13.425 30.8682 11.475 30.4744 9.65 29.6869C7.825 28.8994 6.2375 27.8307 4.8875 26.4807C3.5375 25.1307 2.46875 23.5432 1.68125 21.7182C0.89375 19.8932 0.5 17.9432 0.5 15.8682C0.5 13.7932 0.89375 11.8432 1.68125 10.0182C2.46875 8.19316 3.5375 6.60566 4.8875 5.25566C6.2375 3.90566 7.825 2.83691 9.65 2.04941C11.475 1.26191 13.425 0.868164 15.5 0.868164C17.575 0.868164 19.525 1.26191 21.35 2.04941C23.175 2.83691 24.7625 3.90566 26.1125 5.25566C27.4625 6.60566 28.5312 8.19316 29.3187 10.0182C30.1062 11.8432 30.5 13.7932 30.5 15.8682C30.5 17.9432 30.1062 19.8932 29.3187 21.7182C28.5312 23.5432 27.4625 25.1307 26.1125 26.4807C24.7625 27.8307 23.175 28.8994 21.35 29.6869C19.525 30.4744 17.575 30.8682 15.5 30.8682ZM15.5 27.8682C18.85 27.8682 21.6875 26.7057 24.0125 24.3807C26.3375 22.0557 27.5 19.2182 27.5 15.8682C27.5 12.5182 26.3375 9.68067 24.0125 7.35566C21.6875 5.03066 18.85 3.86816 15.5 3.86816C12.15 3.86816 9.3125 5.03066 6.9875 7.35566C4.6625 9.68067 3.5 12.5182 3.5 15.8682C3.5 19.2182 4.6625 22.0557 6.9875 24.3807C9.3125 26.7057 12.15 27.8682 15.5 27.8682Z" fill="white"/>
</svg>
