<svg width="31" height="32" viewBox="0 0 31 32" fill="none" xmlns="http://www.w3.org/2000/svg">
<path id="Ic-Web" d="M15.495 31.3631C23.97 31.3631 30.99 24.3582 30.99 15.8682C30.99 7.39317 23.97 0.373169 15.48 0.373169C7.005 0.373169 0 7.39317 0 15.8682C0 24.3582 7.02 31.3631 15.495 31.3631ZM6.465 6.43317C7.965 5.00817 9.78 3.91317 11.805 3.31317C10.74 4.37817 9.84 5.87817 9.165 7.70817C8.115 7.37817 7.21501 6.94317 6.465 6.43317ZM19.2001 3.32817C21.21 3.92817 23.025 5.00817 24.51 6.43317C23.775 6.95816 22.8751 7.37817 21.825 7.72317C21.15 5.87817 20.25 4.37817 19.2001 3.32817ZM16.545 3.80817C17.79 4.40817 18.93 6.02817 19.74 8.23317C18.75 8.41316 17.685 8.51817 16.545 8.56317V3.80817ZM11.25 8.23317C12.075 6.02817 13.2001 4.40817 14.445 3.80817V8.56317C13.305 8.51817 12.24 8.41316 11.25 8.23317ZM2.445 14.8182C2.65501 12.2682 3.61501 9.91317 5.085 7.97817C6 8.65316 7.185 9.23817 8.565 9.67317C8.17501 11.2332 7.92 12.9731 7.845 14.8182H2.445ZM23.145 14.8182C23.07 12.9731 22.815 11.2332 22.425 9.67317C23.805 9.23817 24.99 8.66817 25.89 7.97817C27.375 9.91317 28.335 12.2682 28.545 14.8182H23.145ZM9.99 14.8182C10.065 13.1832 10.29 11.6232 10.635 10.2132C11.835 10.4532 13.1099 10.6032 14.445 10.6632V14.8182H9.99ZM16.545 14.8182V10.6632C17.88 10.6032 19.155 10.4532 20.355 10.2132C20.7 11.6232 20.925 13.1832 21 14.8182H16.545ZM2.445 16.9182H7.845C7.92 18.7931 8.17501 20.5482 8.565 22.1232C7.2 22.5581 6.03 23.1281 5.13 23.8032C3.63 21.8531 2.65501 19.4832 2.445 16.9182ZM9.99 16.9182H14.445V21.1482C13.125 21.2081 11.835 21.3581 10.65 21.5832C10.29 20.1581 10.05 18.5681 9.99 16.9182ZM16.545 21.1482V16.9182H21C20.94 18.5681 20.7 20.1581 20.34 21.5832C19.155 21.3581 17.88 21.2081 16.545 21.1482ZM22.425 22.1232C22.83 20.5482 23.07 18.7931 23.145 16.9182H28.545C28.335 19.4832 27.3601 21.8531 25.86 23.8032C24.9601 23.1281 23.79 22.5581 22.425 22.1232ZM16.545 23.2482C17.6699 23.2931 18.735 23.3982 19.71 23.5782C18.9 25.7382 17.775 27.3432 16.545 27.9281V23.2482ZM11.28 23.5782C12.255 23.3982 13.32 23.2931 14.445 23.2482V27.9281C13.215 27.3432 12.09 25.7382 11.28 23.5782ZM6.50999 25.3482C7.245 24.8382 8.145 24.4182 9.18 24.0881C9.85501 25.8882 10.74 27.3581 11.775 28.4081C9.795 27.8082 7.995 26.7432 6.50999 25.3482ZM21.81 24.0881C22.845 24.4182 23.745 24.8382 24.4801 25.3482C22.995 26.7432 21.1949 27.8082 19.215 28.4081C20.25 27.3581 21.135 25.8882 21.81 24.0881Z" fill="white"/>
</svg>
