<svg width="32" height="33" viewBox="0 0 32 33" fill="none" xmlns="http://www.w3.org/2000/svg">
<path id="Ic-Github" d="M10.6452 26.1366C10.6452 26.0045 10.5161 25.8723 10.3226 25.8723C10.129 25.8723 10 26.0045 10 26.1366C10 26.2688 10.129 26.4009 10.3226 26.3348C10.5161 26.3348 10.6452 26.2688 10.6452 26.1366ZM8.64516 25.8062C8.64516 25.9384 8.77419 26.1366 8.96774 26.1366C9.09677 26.2027 9.29032 26.1366 9.35484 26.0045C9.35484 25.8723 9.29032 25.7402 9.09677 25.6741C8.90323 25.608 8.70968 25.6741 8.64516 25.8062ZM11.5484 25.7402C11.3548 25.7402 11.2258 25.8723 11.2258 26.0705C11.2258 26.2027 11.4194 26.2688 11.6129 26.2027C11.8065 26.1366 11.9355 26.0705 11.871 25.9384C11.871 25.8062 11.6774 25.6741 11.5484 25.7402ZM15.7419 0.368164C6.83871 0.368164 0 7.3719 0 16.49C0 23.8241 4.45161 30.101 10.9032 32.3475C11.7419 32.4796 12 31.951 12 31.5546C12 31.0921 12 28.8456 12 27.4581C12 27.4581 7.48387 28.4492 6.51613 25.4759C6.51613 25.4759 5.80645 23.5598 4.77419 23.0973C4.77419 23.0973 3.29032 22.0401 4.83871 22.0401C4.83871 22.0401 6.45161 22.1722 7.35484 23.758C8.77419 26.3348 11.0968 25.608 12.0645 25.1455C12.1935 24.0884 12.5806 23.3615 13.0968 22.899C9.48387 22.5026 5.80645 21.974 5.80645 15.631C5.80645 13.781 6.32258 12.922 7.35484 11.7327C7.16129 11.2702 6.64516 9.5523 7.54839 7.23975C8.83871 6.84331 12 9.02372 12 9.02372C13.2903 8.62728 14.6452 8.49514 16 8.49514C17.4194 8.49514 18.7742 8.62728 20.0645 9.02372C20.0645 9.02372 23.1613 6.77724 24.5161 7.23975C25.4194 9.5523 24.8387 11.2702 24.7097 11.7327C25.7419 12.922 26.3871 13.781 26.3871 15.631C26.3871 21.974 22.5806 22.5026 18.9677 22.899C19.5484 23.4276 20.0645 24.4187 20.0645 26.0045C20.0645 28.1849 20 30.9599 20 31.4885C20 31.951 20.3226 32.4796 21.1613 32.2814C27.6129 30.101 32 23.8241 32 16.49C32 7.3719 24.7097 0.368164 15.7419 0.368164ZM6.25806 23.1633C6.12903 23.2294 6.19355 23.4276 6.25806 23.5598C6.3871 23.6258 6.51613 23.6919 6.64516 23.6258C6.70968 23.5598 6.70968 23.3615 6.58065 23.2294C6.45161 23.1633 6.32258 23.0973 6.25806 23.1633ZM5.54839 22.6347C5.48387 22.7669 5.54839 22.833 5.67742 22.899C5.80645 22.9651 5.93548 22.9651 6 22.833C6 22.7669 5.93548 22.7008 5.80645 22.6347C5.67742 22.5687 5.6129 22.5687 5.54839 22.6347ZM7.6129 25.0134C7.54839 25.0794 7.54839 25.2777 7.74194 25.4098C7.87097 25.542 8.06452 25.608 8.12903 25.4759C8.19355 25.4098 8.19355 25.2116 8.06452 25.0794C7.93548 24.9473 7.74194 24.8812 7.6129 25.0134ZM6.90323 24.0223C6.77419 24.0884 6.77419 24.2866 6.90323 24.4187C7.03226 24.5509 7.16129 24.6169 7.29032 24.5509C7.35484 24.4848 7.35484 24.2866 7.29032 24.1544C7.16129 24.0223 7.03226 23.9562 6.90323 24.0223Z" fill="white"/>
</svg>
