<svg width="32" height="33" viewBox="0 0 32 33" fill="none" xmlns="http://www.w3.org/2000/svg">
<g id="Btn - instagram">
<path id="&#239;&#133;&#173;" d="M16 11.4775C13 11.4775 10.6094 13.915 10.6094 16.8682C10.6094 19.8682 13 22.2588 16 22.2588C18.9531 22.2588 21.3906 19.8682 21.3906 16.8682C21.3906 13.915 18.9531 11.4775 16 11.4775ZM16 20.3838C14.0781 20.3838 12.4844 18.8369 12.4844 16.8682C12.4844 14.9463 14.0312 13.3994 16 13.3994C17.9219 13.3994 19.4688 14.9463 19.4688 16.8682C19.4688 18.8369 17.9219 20.3838 16 20.3838ZM22.8438 11.29C22.8438 10.5869 22.2812 10.0244 21.5781 10.0244C20.875 10.0244 20.3125 10.5869 20.3125 11.29C20.3125 11.9932 20.875 12.5557 21.5781 12.5557C22.2812 12.5557 22.8438 11.9932 22.8438 11.29ZM26.4062 12.5557C26.3125 10.8682 25.9375 9.36816 24.7188 8.14941C23.5 6.93066 22 6.55566 20.3125 6.46191C18.5781 6.36816 13.375 6.36816 11.6406 6.46191C9.95312 6.55566 8.5 6.93066 7.23438 8.14941C6.01562 9.36816 5.64062 10.8682 5.54688 12.5557C5.45312 14.29 5.45312 19.4932 5.54688 21.2275C5.64062 22.915 6.01562 24.3682 7.23438 25.6338C8.5 26.8525 9.95312 27.2275 11.6406 27.3213C13.375 27.415 18.5781 27.415 20.3125 27.3213C22 27.2275 23.5 26.8525 24.7188 25.6338C25.9375 24.3682 26.3125 22.915 26.4062 21.2275C26.5 19.4932 26.5 14.29 26.4062 12.5557ZM24.1562 23.0557C23.8281 23.9932 23.0781 24.6963 22.1875 25.0713C20.7812 25.6338 17.5 25.4932 16 25.4932C14.4531 25.4932 11.1719 25.6338 9.8125 25.0713C8.875 24.6963 8.17188 23.9932 7.79688 23.0557C7.23438 21.6963 7.375 18.415 7.375 16.8682C7.375 15.3682 7.23438 12.0869 7.79688 10.6807C8.17188 9.79004 8.875 9.08691 9.8125 8.71191C11.1719 8.14941 14.4531 8.29004 16 8.29004C17.5 8.29004 20.7812 8.14941 22.1875 8.71191C23.0781 9.04004 23.7812 9.79004 24.1562 10.6807C24.7188 12.0869 24.5781 15.3682 24.5781 16.8682C24.5781 18.415 24.7188 21.6963 24.1562 23.0557Z" fill="black"/>
</g>
</svg>
