<svg width="32" height="33" viewBox="0 0 32 33" fill="none" xmlns="http://www.w3.org/2000/svg">
<g id="Btn - linkedin">
<path id="&#239;&#131;&#161;" d="M10.1875 25.8682V11.8525H5.82812V25.8682H10.1875ZM7.98438 9.97754C9.39062 9.97754 10.5156 8.80566 10.5156 7.39941C10.5156 6.04004 9.39062 4.91504 7.98438 4.91504C6.625 4.91504 5.5 6.04004 5.5 7.39941C5.5 8.80566 6.625 9.97754 7.98438 9.97754ZM26.4531 25.8682H26.5V18.1807C26.5 14.4307 25.6562 11.5244 21.25 11.5244C19.1406 11.5244 17.7344 12.6963 17.125 13.7744H17.0781V11.8525H12.9062V25.8682H17.2656V18.9307C17.2656 17.1025 17.5938 15.3682 19.8438 15.3682C22.0938 15.3682 22.1406 17.4307 22.1406 19.0713V25.8682H26.4531Z" fill="black"/>
</g>
</svg>
