<svg width="32" height="33" viewBox="0 0 32 33" fill="none" xmlns="http://www.w3.org/2000/svg">
<g id="Btn - stackoverflow">
<path id="StackOverflow" d="M19 25.8682H9V23.8682H19V25.8682ZM25 14.2032L23.379 4.86816L21.386 5.21416L23.006 14.5492L25 14.2032ZM19.036 21.1402L9.29 20.1652L9.104 22.1812L18.859 23.0602L19.036 21.1402ZM19.574 18.5532L10.298 15.9452L9.772 17.8992L19.078 20.3992L19.574 18.5532ZM20.778 16.1402L12.481 11.2762L11.452 13.0192L19.75 17.8842L20.778 16.1402ZM22.644 14.6732L17.305 6.84416L15.633 7.98416L20.972 15.8132L22.644 14.6732ZM20 18.8682V26.8682H8V18.8682H6V28.8682H22V18.8682H20Z" fill="black"/>
</g>
</svg>
