<svg width="31" height="32" viewBox="0 0 31 32" fill="none" xmlns="http://www.w3.org/2000/svg">
<path id="Ic-Web" d="M15.495 31.8633C23.97 31.8633 30.99 24.8583 30.99 16.3683C30.99 7.89329 23.97 0.873291 15.48 0.873291C7.005 0.873291 0 7.89329 0 16.3683C0 24.8583 7.02 31.8633 15.495 31.8633ZM6.465 6.93329C7.965 5.50829 9.78 4.41329 11.805 3.81329C10.74 4.87829 9.84 6.3783 9.165 8.20829C8.115 7.87829 7.21501 7.4433 6.465 6.93329ZM19.2001 3.82829C21.21 4.42829 23.025 5.50829 24.51 6.93329C23.775 7.45828 22.8751 7.87829 21.825 8.22329C21.15 6.3783 20.25 4.87829 19.2001 3.82829ZM16.545 4.30829C17.79 4.90829 18.93 6.52829 19.74 8.73329C18.75 8.91329 17.685 9.0183 16.545 9.06329V4.30829ZM11.25 8.73329C12.075 6.52829 13.2001 4.90829 14.445 4.30829V9.06329C13.305 9.0183 12.24 8.91329 11.25 8.73329ZM2.445 15.3184C2.65501 12.7683 3.61501 10.4133 5.085 8.47829C6 9.15329 7.185 9.7383 8.565 10.1733C8.17501 11.7333 7.92 13.4732 7.845 15.3184H2.445ZM23.145 15.3184C23.07 13.4732 22.815 11.7333 22.425 10.1733C23.805 9.7383 24.99 9.16829 25.89 8.47829C27.375 10.4133 28.335 12.7683 28.545 15.3184H23.145ZM9.99 15.3184C10.065 13.6833 10.29 12.1233 10.635 10.7133C11.835 10.9533 13.1099 11.1033 14.445 11.1633V15.3184H9.99ZM16.545 15.3184V11.1633C17.88 11.1033 19.155 10.9533 20.355 10.7133C20.7 12.1233 20.925 13.6833 21 15.3184H16.545ZM2.445 17.4183H7.845C7.92 19.2933 8.17501 21.0483 8.565 22.6233C7.2 23.0583 6.03 23.6282 5.13 24.3033C3.63 22.3532 2.65501 19.9833 2.445 17.4183ZM9.99 17.4183H14.445V21.6483C13.125 21.7082 11.835 21.8583 10.65 22.0833C10.29 20.6583 10.05 19.0682 9.99 17.4183ZM16.545 21.6483V17.4183H21C20.94 19.0682 20.7 20.6583 20.34 22.0833C19.155 21.8583 17.88 21.7082 16.545 21.6483ZM22.425 22.6233C22.83 21.0483 23.07 19.2933 23.145 17.4183H28.545C28.335 19.9833 27.3601 22.3532 25.86 24.3033C24.9601 23.6282 23.79 23.0583 22.425 22.6233ZM16.545 23.7483C17.6699 23.7932 18.735 23.8983 19.71 24.0783C18.9 26.2383 17.775 27.8433 16.545 28.4282V23.7483ZM11.28 24.0783C12.255 23.8983 13.32 23.7932 14.445 23.7483V28.4282C13.215 27.8433 12.09 26.2383 11.28 24.0783ZM6.50999 25.8483C7.245 25.3383 8.145 24.9184 9.18 24.5882C9.85501 26.3883 10.74 27.8583 11.775 28.9082C9.795 28.3083 7.995 27.2433 6.50999 25.8483ZM21.81 24.5882C22.845 24.9184 23.745 25.3383 24.4801 25.8483C22.995 27.2433 21.1949 28.3083 19.215 28.9082C20.25 27.8583 21.135 26.3883 21.81 24.5882Z" fill="white"/>
</svg>
