<svg xmlns="http://www.w3.org/2000/svg" xmlns:xlink="http://www.w3.org/1999/xlink" width="500" zoomAndPan="magnify" viewBox="0 0 375 374.999991" height="500" preserveAspectRatio="xMidYMid meet" version="1.0"><defs><filter x="0%" y="0%" width="100%" height="100%" id="448a89371b"><feColorMatrix values="0 0 0 0 1 0 0 0 0 1 0 0 0 0 1 0 0 0 1 0" color-interpolation-filters="sRGB"/></filter><g/><mask id="268dc0d132"><g filter="url(#448a89371b)"><rect x="-37.5" width="450" fill="#000000" y="-37.499999" height="449.999989" fill-opacity="0.4784"/></g></mask><clipPath id="982143a64b"><rect x="0" width="183" y="0" height="207"/></clipPath></defs><g mask="url(#268dc0d132)"><g transform="matrix(1, 0, 0, 1, 96, 84)"><g clip-path="url(#982143a64b)"><g fill="#ffffff" fill-opacity="1"><g transform="translate(0.652, 155.333964)"><g><path d="M 1.203125 0 L 1.203125 -1.5 L 4.953125 -2.859375 C 6.953125 -3.648438 8.503906 -4.625 9.609375 -5.78125 C 10.710938 -6.9375 11.613281 -8.5625 12.3125 -10.65625 L 43.25 -99.40625 L 56.015625 -99.40625 L 86.5 -10.0625 C 87.300781 -7.851562 88.203125 -6.171875 89.203125 -5.015625 C 90.203125 -3.867188 91.753906 -2.898438 93.859375 -2.109375 L 95.65625 -1.5 L 95.65625 0 L 57.515625 0 L 57.515625 -1.5 L 59.765625 -2.25 C 61.867188 -3.050781 63.144531 -4.175781 63.59375 -5.625 C 64.050781 -7.082031 63.976562 -8.8125 63.375 -10.8125 L 56.3125 -32.4375 L 22.96875 -32.4375 L 15.765625 -11.265625 C 15.066406 -9.054688 14.84375 -7.300781 15.09375 -6 C 15.34375 -4.695312 16.519531 -3.648438 18.625 -2.859375 L 21.921875 -1.5 L 21.921875 0 Z M 24.03125 -35.4375 L 55.40625 -35.4375 L 40.25 -82.140625 Z M 24.03125 -35.4375 "/></g></g></g><g fill="#ffffff" fill-opacity="1"><g transform="translate(98.258595, 155.333964)"><g><path d="M 3 0 L 3 -1.796875 L 55.109375 -96.109375 L 26.578125 -96.109375 C 23.273438 -96.109375 20.597656 -95.359375 18.546875 -93.859375 C 16.492188 -92.359375 14.664062 -90.15625 13.0625 -87.25 L 6.15625 -75.078125 L 4.65625 -75.078125 L 5.703125 -99.109375 L 79.140625 -99.109375 L 79.140625 -97.3125 L 27.03125 -3 L 59.765625 -3 C 63.066406 -3 65.691406 -3.773438 67.640625 -5.328125 C 69.597656 -6.878906 71.378906 -9.109375 72.984375 -12.015625 L 79.4375 -24.03125 L 80.9375 -24.03125 L 79.890625 0 Z M 3 0 "/></g></g></g></g></g></g><g fill="#000000" fill-opacity="1"><g transform="translate(69.178461, 210.569151)"><g><path d="M 6.515625 -5.828125 L 5.421875 -5.859375 C 4.328125 -5.890625 3.128906 -5.976562 1.828125 -6.125 C 1.804688 -6.125 1.785156 -6.140625 1.765625 -6.171875 C 1.734375 -6.171875 1.703125 -6.1875 1.671875 -6.21875 C 1.648438 -6.25 1.648438 -6.316406 1.671875 -6.421875 C 1.773438 -6.828125 1.921875 -7.039062 2.109375 -7.0625 C 3.160156 -7.207031 4.195312 -7.285156 5.21875 -7.296875 L 5.84375 -7.328125 L 9.96875 -7.328125 C 10.195312 -7.328125 10.421875 -7.3125 10.640625 -7.28125 C 10.796875 -7.226562 10.816406 -7 10.703125 -6.59375 C 10.578125 -6.175781 10.429688 -5.945312 10.265625 -5.90625 C 10.179688 -5.882812 10.097656 -5.875 10.015625 -5.875 L 9.375 -5.875 C 8.46875 -5.84375 7.515625 -5.828125 6.515625 -5.828125 Z M 6.515625 -5.828125 "/></g></g></g><g fill="#000000" fill-opacity="1"><g transform="translate(85.255894, 210.569151)"><g/></g></g><g fill="#000000" fill-opacity="1"><g transform="translate(99.498164, 210.569151)"><g><path d="M 72.40625 -12.25 C 70.707031 -12.445312 68.988281 -12.546875 67.25 -12.546875 C 66.488281 -12.566406 65.71875 -12.585938 64.9375 -12.609375 C 57.78125 -12.898438 50.609375 -12.972656 43.421875 -12.828125 C 43.066406 -12.828125 42.769531 -12.828125 42.53125 -12.828125 C 42.144531 -12.859375 41.859375 -12.859375 41.671875 -12.828125 C 41.492188 -12.796875 41.351562 -12.695312 41.25 -12.53125 C 41.144531 -12.363281 41.019531 -12.09375 40.875 -11.71875 C 40.78125 -11.507812 40.664062 -11.242188 40.53125 -10.921875 C 39.332031 -8.304688 38.234375 -5.648438 37.234375 -2.953125 C 36.578125 -1.210938 36.070312 0.566406 35.71875 2.390625 C 35.582031 2.960938 35.535156 3.519531 35.578125 4.0625 C 35.617188 4.601562 35.863281 5.085938 36.3125 5.515625 C 36.375 5.566406 36.394531 5.625 36.375 5.6875 C 36.351562 5.75 36.3125 5.8125 36.25 5.875 C 36.1875 5.9375 36.117188 5.972656 36.046875 5.984375 C 34.984375 6.148438 34.347656 5.769531 34.140625 4.84375 C 34.015625 4.332031 33.988281 3.800781 34.0625 3.25 C 34.0625 3.207031 34.0625 3.175781 34.0625 3.15625 C 34.144531 2.21875 34.3125 1.285156 34.5625 0.359375 C 34.820312 -0.554688 35.109375 -1.476562 35.421875 -2.40625 C 36.429688 -5.195312 37.546875 -7.953125 38.765625 -10.671875 C 38.828125 -10.785156 38.875 -10.898438 38.90625 -11.015625 C 38.96875 -11.148438 39.035156 -11.285156 39.109375 -11.421875 C 39.203125 -11.617188 39.289062 -11.816406 39.375 -12.015625 C 39.457031 -12.210938 39.488281 -12.421875 39.46875 -12.640625 C 39.375 -12.710938 39.273438 -12.757812 39.171875 -12.78125 C 39.078125 -12.800781 38.976562 -12.800781 38.875 -12.78125 C 38.863281 -12.78125 38.84375 -12.78125 38.8125 -12.78125 C 37.96875 -12.78125 37.125 -12.769531 36.28125 -12.75 C 36.050781 -12.75 35.804688 -12.75 35.546875 -12.75 C 35.234375 -12.738281 34.96875 -12.640625 34.75 -12.453125 C 34.539062 -12.273438 34.335938 -12.054688 34.140625 -11.796875 C 33.878906 -11.472656 33.617188 -11.144531 33.359375 -10.8125 C 32.265625 -9.40625 31.15625 -8.015625 30.03125 -6.640625 C 28.382812 -4.640625 26.660156 -2.710938 24.859375 -0.859375 C 23.054688 0.992188 21.144531 2.738281 19.125 4.375 C 16.59375 6.457031 13.898438 8.296875 11.046875 9.890625 C 6.691406 12.222656 2.125 13.328125 -2.65625 13.203125 C -7.15625 13.109375 -11.210938 11.894531 -14.828125 9.5625 C -15.847656 8.914062 -16.75 8.128906 -17.53125 7.203125 C -18.0625 6.554688 -18.476562 5.851562 -18.78125 5.09375 C -19.09375 4.34375 -19.25 3.523438 -19.25 2.640625 C -19.207031 1.578125 -18.960938 0.59375 -18.515625 -0.3125 C -18.078125 -1.21875 -17.460938 -2.039062 -16.671875 -2.78125 C -15.597656 -3.832031 -14.410156 -4.71875 -13.109375 -5.4375 C -11.859375 -6.164062 -10.5625 -6.804688 -9.21875 -7.359375 C -7.882812 -7.910156 -6.539062 -8.398438 -5.1875 -8.828125 C -2.988281 -9.535156 -0.769531 -10.128906 1.46875 -10.609375 C 3.71875 -11.085938 5.96875 -11.5 8.21875 -11.84375 C 13.582031 -12.582031 18.957031 -13.070312 24.34375 -13.3125 C 27.09375 -13.488281 29.832031 -13.578125 32.5625 -13.578125 C 33.3125 -13.554688 33.894531 -13.867188 34.3125 -14.515625 C 35.03125 -15.535156 35.757812 -16.5625 36.5 -17.59375 C 37.632812 -19.164062 38.75 -20.765625 39.84375 -22.390625 C 44.945312 -30.015625 49.84375 -37.765625 54.53125 -45.640625 C 54.914062 -46.316406 55.296875 -47 55.671875 -47.6875 C 55.859375 -48.03125 56.046875 -48.378906 56.234375 -48.734375 C 56.472656 -49.191406 56.847656 -49.445312 57.359375 -49.5 C 57.628906 -49.5 57.828125 -49.421875 57.953125 -49.265625 C 58.085938 -49.109375 58.109375 -48.898438 58.015625 -48.640625 C 57.910156 -48.429688 57.796875 -48.226562 57.671875 -48.03125 C 56.910156 -46.675781 56.238281 -45.300781 55.65625 -43.90625 C 55.425781 -43.414062 55.207031 -42.929688 55 -42.453125 C 52.9375 -37.984375 50.863281 -33.503906 48.78125 -29.015625 C 47.1875 -25.554688 45.582031 -22.09375 43.96875 -18.625 C 43.5 -17.59375 43.039062 -16.566406 42.59375 -15.546875 C 42.488281 -15.335938 42.390625 -15.132812 42.296875 -14.9375 C 42.273438 -14.894531 42.253906 -14.847656 42.234375 -14.796875 C 42.171875 -14.648438 42.117188 -14.503906 42.078125 -14.359375 C 42.046875 -14.222656 42.0625 -14.085938 42.125 -13.953125 C 42.257812 -13.859375 42.414062 -13.804688 42.59375 -13.796875 C 42.769531 -13.785156 42.929688 -13.78125 43.078125 -13.78125 C 43.203125 -13.800781 43.316406 -13.8125 43.421875 -13.8125 C 44.160156 -13.789062 44.90625 -13.789062 45.65625 -13.8125 C 46.675781 -13.8125 47.695312 -13.800781 48.71875 -13.78125 C 54.289062 -13.6875 59.867188 -13.566406 65.453125 -13.421875 C 67.285156 -13.390625 69.101562 -13.316406 70.90625 -13.203125 C 71.070312 -13.179688 71.242188 -13.171875 71.421875 -13.171875 C 71.515625 -13.171875 71.617188 -13.171875 71.734375 -13.171875 C 71.972656 -13.171875 72.203125 -13.148438 72.421875 -13.109375 C 72.640625 -13.066406 72.847656 -12.988281 73.046875 -12.875 C 73.078125 -12.84375 73.101562 -12.796875 73.125 -12.734375 C 73.144531 -12.679688 73.144531 -12.640625 73.125 -12.609375 C 73.125 -12.546875 73.097656 -12.488281 73.046875 -12.4375 C 72.992188 -12.382812 72.953125 -12.351562 72.921875 -12.34375 C 72.765625 -12.28125 72.59375 -12.25 72.40625 -12.25 Z M 32.46875 -12.09375 C 32.53125 -12.21875 32.535156 -12.328125 32.484375 -12.421875 C 32.441406 -12.523438 32.363281 -12.578125 32.25 -12.578125 C 32.070312 -12.597656 31.882812 -12.597656 31.6875 -12.578125 C 31.582031 -12.578125 31.484375 -12.578125 31.390625 -12.578125 C 24.648438 -12.492188 17.898438 -12.03125 11.140625 -11.1875 C 8.566406 -10.875 6 -10.460938 3.4375 -9.953125 C 0.882812 -9.441406 -1.644531 -8.800781 -4.15625 -8.03125 C -5.488281 -7.625 -6.804688 -7.15625 -8.109375 -6.625 C -9.421875 -6.09375 -10.695312 -5.460938 -11.9375 -4.734375 C -13.226562 -4.003906 -14.40625 -3.117188 -15.46875 -2.078125 C -16.71875 -0.796875 -17.421875 0.5625 -17.578125 2 C -17.734375 3.445312 -17.34375 4.835938 -16.40625 6.171875 C -15.71875 7.109375 -14.898438 7.914062 -13.953125 8.59375 C -10.460938 11.0625 -6.3125 12.316406 -1.5 12.359375 C -0.269531 12.359375 1.144531 12.203125 2.75 11.890625 C 4.332031 11.554688 5.863281 11.066406 7.34375 10.421875 C 8.832031 9.785156 10.273438 9.035156 11.671875 8.171875 C 15.109375 6.054688 18.289062 3.59375 21.21875 0.78125 C 23.25 -1.125 25.160156 -3.128906 26.953125 -5.234375 C 28.742188 -7.335938 30.488281 -9.476562 32.1875 -11.65625 C 32.28125 -11.8125 32.375 -11.957031 32.46875 -12.09375 Z M 40.671875 -14.875 C 41.960938 -17.820312 43.300781 -20.757812 44.6875 -23.6875 C 44.75 -23.84375 44.953125 -24.300781 45.296875 -25.0625 C 45.648438 -25.832031 46.054688 -26.722656 46.515625 -27.734375 C 46.984375 -28.753906 47.40625 -29.710938 47.78125 -30.609375 C 48.164062 -31.515625 48.4375 -32.191406 48.59375 -32.640625 C 48.75 -33.085938 48.703125 -33.128906 48.453125 -32.765625 C 48.390625 -32.691406 48.34375 -32.613281 48.3125 -32.53125 C 48.09375 -32.21875 47.882812 -31.90625 47.6875 -31.59375 C 46.0625 -29.050781 44.421875 -26.515625 42.765625 -23.984375 C 41.109375 -21.460938 39.394531 -18.972656 37.625 -16.515625 C 37.457031 -16.285156 37.285156 -16.039062 37.109375 -15.78125 C 36.765625 -15.3125 36.429688 -14.84375 36.109375 -14.375 C 35.972656 -14.175781 35.929688 -14.007812 35.984375 -13.875 C 36.046875 -13.75 36.1875 -13.6875 36.40625 -13.6875 C 36.757812 -13.6875 37.109375 -13.695312 37.453125 -13.71875 C 38.015625 -13.757812 38.566406 -13.78125 39.109375 -13.78125 C 39.523438 -13.769531 39.847656 -13.859375 40.078125 -14.046875 C 40.316406 -14.242188 40.515625 -14.519531 40.671875 -14.875 Z M 40.671875 -14.875 "/></g></g></g><g fill="#000000" fill-opacity="1"><g transform="translate(146.076711, 210.569151)"><g><path d="M 2.921875 -11.359375 C 2.628906 -11.066406 2.367188 -10.925781 2.140625 -10.9375 C 1.910156 -10.945312 1.84375 -11.203125 1.9375 -11.703125 C 2.082031 -12.421875 2.410156 -13.078125 2.921875 -13.671875 C 3.015625 -13.765625 3.128906 -13.816406 3.265625 -13.828125 C 3.410156 -13.847656 3.550781 -13.832031 3.6875 -13.78125 C 3.75 -13.738281 3.804688 -13.679688 3.859375 -13.609375 C 3.921875 -13.546875 3.953125 -13.484375 3.953125 -13.421875 C 3.835938 -12.617188 3.492188 -11.929688 2.921875 -11.359375 Z M 6.21875 -6.90625 C 6.28125 -6.90625 6.332031 -6.890625 6.375 -6.859375 C 6.425781 -6.835938 6.460938 -6.804688 6.484375 -6.765625 C 6.484375 -6.734375 6.472656 -6.6875 6.453125 -6.625 C 6.441406 -6.5625 6.410156 -6.507812 6.359375 -6.46875 C 6.148438 -6.289062 5.914062 -6.125 5.65625 -5.96875 C 5.207031 -5.71875 4.765625 -5.453125 4.328125 -5.171875 C 3.171875 -4.453125 2.003906 -3.773438 0.828125 -3.140625 C -0.078125 -2.648438 -0.707031 -1.941406 -1.0625 -1.015625 C -1.84375 0.828125 -2.664062 2.65625 -3.53125 4.46875 C -3.90625 5.3125 -4.316406 6.132812 -4.765625 6.9375 C -5.222656 7.738281 -5.75 8.515625 -6.34375 9.265625 C -7.476562 10.742188 -8.929688 11.597656 -10.703125 11.828125 C -12.148438 12.003906 -13.550781 11.914062 -14.90625 11.5625 C -15.988281 11.269531 -16.992188 10.835938 -17.921875 10.265625 C -18.273438 10.023438 -18.597656 9.769531 -18.890625 9.5 C -20.242188 8.269531 -20.085938 6.984375 -18.421875 5.640625 C -17.867188 5.210938 -17.285156 4.828125 -16.671875 4.484375 C -15.710938 3.941406 -14.742188 3.429688 -13.765625 2.953125 C -12.515625 2.347656 -11.265625 1.753906 -10.015625 1.171875 C -7.953125 0.203125 -5.910156 -0.769531 -3.890625 -1.75 C -3.492188 -1.945312 -3.171875 -2.101562 -2.921875 -2.21875 C -2.566406 -2.382812 -2.3125 -2.519531 -2.15625 -2.625 C -2 -2.726562 -1.867188 -2.859375 -1.765625 -3.015625 C -1.671875 -3.171875 -1.554688 -3.421875 -1.421875 -3.765625 C -1.316406 -4.046875 -1.15625 -4.40625 -0.9375 -4.84375 C -0.601562 -5.59375 -0.289062 -6.34375 0 -7.09375 C 0.21875 -7.625 0.429688 -8.144531 0.640625 -8.65625 C 0.785156 -8.988281 0.960938 -9.28125 1.171875 -9.53125 C 1.390625 -9.769531 1.644531 -9.8125 1.9375 -9.65625 C 2.15625 -9.539062 2.238281 -9.363281 2.1875 -9.125 C 2.101562 -8.894531 1.953125 -8.492188 1.734375 -7.921875 C 1.554688 -7.429688 1.375 -6.921875 1.1875 -6.390625 C 1 -5.859375 0.851562 -5.398438 0.75 -5.015625 C 0.644531 -4.628906 0.609375 -4.398438 0.640625 -4.328125 C 0.679688 -4.265625 0.804688 -4.273438 1.015625 -4.359375 C 1.222656 -4.453125 1.5625 -4.625 2.03125 -4.875 C 2.050781 -4.875 2.0625 -4.875 2.0625 -4.875 C 2.8125 -5.289062 3.550781 -5.707031 4.28125 -6.125 C 4.550781 -6.269531 4.828125 -6.4375 5.109375 -6.625 C 5.117188 -6.625 5.125 -6.625 5.125 -6.625 C 5.3125 -6.71875 5.488281 -6.800781 5.65625 -6.875 C 5.832031 -6.945312 6.019531 -6.957031 6.21875 -6.90625 Z M -2.921875 -0.3125 C -2.804688 -0.53125 -2.804688 -0.738281 -2.921875 -0.9375 C -3.148438 -0.957031 -3.363281 -0.894531 -3.5625 -0.75 C -3.601562 -0.726562 -3.65625 -0.710938 -3.71875 -0.703125 C -4.539062 -0.304688 -5.363281 0.0859375 -6.1875 0.484375 C -8.351562 1.503906 -10.503906 2.523438 -12.640625 3.546875 C -13.828125 4.140625 -15.007812 4.769531 -16.1875 5.4375 C -16.675781 5.726562 -17.132812 6.070312 -17.5625 6.46875 C -18.394531 7.207031 -18.492188 7.921875 -17.859375 8.609375 C -17.722656 8.785156 -17.578125 8.9375 -17.421875 9.0625 C -16.609375 9.664062 -15.738281 10.132812 -14.8125 10.46875 C -13.894531 10.800781 -12.90625 10.976562 -11.84375 11 C -10.300781 11 -9 10.375 -7.9375 9.125 C -7.195312 8.269531 -6.582031 7.351562 -6.09375 6.375 C -5.332031 4.800781 -4.585938 3.222656 -3.859375 1.640625 C -3.546875 0.984375 -3.234375 0.332031 -2.921875 -0.3125 Z M -2.921875 -0.3125 "/></g></g></g><g fill="#000000" fill-opacity="1"><g transform="translate(155.644023, 210.569151)"><g><path d="M 14 -6.71875 C 14.3125 -6.90625 14.554688 -6.953125 14.734375 -6.859375 C 14.910156 -6.765625 14.84375 -6.488281 14.53125 -6.03125 C 14.144531 -5.5 13.441406 -4.929688 12.421875 -4.328125 C 11.410156 -3.734375 10.515625 -3.472656 9.734375 -3.546875 C 8.960938 -3.628906 8.738281 -4.207031 9.0625 -5.28125 C 9.382812 -6.351562 9.554688 -6.953125 9.578125 -7.078125 C 9.609375 -7.210938 9.585938 -7.285156 9.515625 -7.296875 C 9.441406 -7.316406 9.265625 -7.226562 8.984375 -7.03125 C 8.179688 -6.476562 7.394531 -5.898438 6.625 -5.296875 C 6.300781 -5.046875 5.976562 -4.78125 5.65625 -4.5 C 5.457031 -4.320312 5.25 -4.144531 5.03125 -3.96875 C 5.03125 -3.96875 5.023438 -3.957031 5.015625 -3.9375 C 4.773438 -3.707031 4.488281 -3.550781 4.15625 -3.46875 C 4 -3.425781 3.835938 -3.410156 3.671875 -3.421875 C 3.503906 -3.429688 3.359375 -3.5 3.234375 -3.625 C 3.109375 -3.75 3.0625 -3.882812 3.09375 -4.03125 C 3.125 -4.1875 3.234375 -4.410156 3.421875 -4.703125 C 3.617188 -4.992188 3.828125 -5.316406 4.046875 -5.671875 C 4.273438 -6.023438 4.398438 -6.238281 4.421875 -6.3125 C 4.453125 -6.394531 4.441406 -6.476562 4.390625 -6.5625 C 4.328125 -6.644531 4.257812 -6.671875 4.1875 -6.640625 C 4.113281 -6.609375 3.828125 -6.414062 3.328125 -6.0625 C 2.835938 -5.707031 2.171875 -5.210938 1.328125 -4.578125 C 0.929688 -4.285156 0.546875 -3.984375 0.171875 -3.671875 C 0.078125 -3.578125 -0.0234375 -3.488281 -0.140625 -3.40625 C -0.421875 -3.164062 -0.726562 -3.039062 -1.0625 -3.03125 C -1.300781 -3.007812 -1.476562 -3.0625 -1.59375 -3.1875 C -1.707031 -3.3125 -1.722656 -3.484375 -1.640625 -3.703125 C -1.585938 -3.859375 -1.523438 -4.003906 -1.453125 -4.140625 C -1.398438 -4.203125 -1.367188 -4.265625 -1.359375 -4.328125 C -0.648438 -5.753906 0.046875 -7.1875 0.734375 -8.625 C 0.753906 -8.664062 0.773438 -8.71875 0.796875 -8.78125 C 0.867188 -8.925781 0.945312 -9.070312 1.03125 -9.21875 C 1.25 -9.445312 1.503906 -9.519531 1.796875 -9.4375 C 2.128906 -9.34375 2.257812 -9.148438 2.1875 -8.859375 C 2.019531 -8.410156 1.863281 -7.96875 1.71875 -7.53125 C 1.632812 -7.332031 1.550781 -7.132812 1.46875 -6.9375 C 1.332031 -6.59375 1.289062 -6.367188 1.34375 -6.265625 C 1.394531 -6.171875 1.617188 -6.238281 2.015625 -6.46875 C 2.273438 -6.644531 2.535156 -6.820312 2.796875 -7 C 3.109375 -7.21875 3.414062 -7.414062 3.71875 -7.59375 C 4.164062 -7.875 4.628906 -8.113281 5.109375 -8.3125 C 5.335938 -8.40625 5.570312 -8.472656 5.8125 -8.515625 C 6.0625 -8.566406 6.296875 -8.515625 6.515625 -8.359375 C 6.671875 -8.222656 6.738281 -8.070312 6.71875 -7.90625 C 6.695312 -7.738281 6.648438 -7.578125 6.578125 -7.421875 C 6.453125 -7.128906 6.398438 -6.941406 6.421875 -6.859375 C 6.441406 -6.773438 6.507812 -6.757812 6.625 -6.8125 C 6.75 -6.863281 6.957031 -6.976562 7.25 -7.15625 C 7.539062 -7.332031 7.859375 -7.53125 8.203125 -7.75 C 8.628906 -8.019531 9.078125 -8.28125 9.546875 -8.53125 C 9.941406 -8.789062 10.363281 -8.945312 10.8125 -9 C 11.425781 -9.039062 11.675781 -8.789062 11.5625 -8.25 C 11.457031 -7.71875 11.242188 -7.078125 10.921875 -6.328125 C 10.597656 -5.585938 10.5625 -5.128906 10.8125 -4.953125 C 11.070312 -4.785156 11.640625 -5.015625 12.515625 -5.640625 C 13.390625 -6.273438 13.882812 -6.632812 14 -6.71875 Z M 14 -6.71875 "/></g></g></g><g fill="#000000" fill-opacity="1"><g transform="translate(173.931674, 210.569151)"><g><path d="M 9.71875 -6.8125 C 9.925781 -6.695312 9.941406 -6.410156 9.765625 -5.953125 C 9.503906 -5.609375 9.226562 -5.289062 8.9375 -5 C 8.644531 -4.707031 8.320312 -4.441406 7.96875 -4.203125 C 7.945312 -4.203125 7.9375 -4.195312 7.9375 -4.1875 C 7.695312 -4.019531 7.445312 -3.878906 7.1875 -3.765625 C 5.0625 -2.992188 3.972656 -3.445312 3.921875 -5.125 C 3.054688 -4.375 2.476562 -3.910156 2.1875 -3.734375 C 1.476562 -3.316406 0.710938 -3.128906 -0.109375 -3.171875 C -0.710938 -3.210938 -1.125 -3.398438 -1.34375 -3.734375 C -1.5625 -4.066406 -1.539062 -4.519531 -1.28125 -5.09375 C -0.894531 -5.988281 -0.335938 -6.789062 0.390625 -7.5 C 1.234375 -8.289062 2.175781 -8.921875 3.21875 -9.390625 C 3.769531 -9.671875 4.347656 -9.78125 4.953125 -9.71875 C 5.566406 -9.675781 5.9375 -9.332031 6.0625 -8.6875 C 6.113281 -8.488281 6.0625 -8.3125 5.90625 -8.15625 C 5.707031 -7.976562 5.476562 -7.9375 5.21875 -8.03125 C 5.207031 -8.03125 5.1875 -8.035156 5.15625 -8.046875 C 5.125 -8.054688 5.097656 -8.070312 5.078125 -8.09375 C 4.816406 -8.445312 4.554688 -8.59375 4.296875 -8.53125 C 4.035156 -8.476562 3.753906 -8.363281 3.453125 -8.1875 C 2.078125 -7.382812 1.054688 -6.265625 0.390625 -4.828125 C 0.347656 -4.765625 0.320312 -4.691406 0.3125 -4.609375 C 0.3125 -4.535156 0.335938 -4.476562 0.390625 -4.4375 C 0.546875 -4.382812 0.722656 -4.394531 0.921875 -4.46875 C 1.117188 -4.539062 1.316406 -4.648438 1.515625 -4.796875 C 1.710938 -4.953125 1.878906 -5.078125 2.015625 -5.171875 C 2.023438 -5.203125 2.03125 -5.21875 2.03125 -5.21875 C 2.6875 -5.757812 3.328125 -6.316406 3.953125 -6.890625 C 4.234375 -7.179688 4.578125 -7.34375 4.984375 -7.375 C 5.578125 -7.375 5.820312 -7.113281 5.71875 -6.59375 C 5.664062 -6.394531 5.609375 -6.195312 5.546875 -6 C 5.316406 -5.15625 5.304688 -4.65625 5.515625 -4.5 C 5.734375 -4.351562 6.0625 -4.351562 6.5 -4.5 C 6.945312 -4.65625 7.390625 -4.9375 7.828125 -5.34375 C 8.273438 -5.757812 8.648438 -6.140625 8.953125 -6.484375 C 9.253906 -6.828125 9.507812 -6.9375 9.71875 -6.8125 Z M 9.71875 -6.8125 "/></g></g></g><g fill="#000000" fill-opacity="1"><g transform="translate(186.928191, 210.569151)"><g><path d="M 6.484375 -6.390625 C 6.773438 -6.679688 7.019531 -6.84375 7.21875 -6.875 C 7.414062 -6.914062 7.539062 -6.882812 7.59375 -6.78125 C 7.65625 -6.6875 7.617188 -6.554688 7.484375 -6.390625 C 6.703125 -5.441406 5.820312 -4.625 4.84375 -3.9375 C 3.875 -3.25 2.875 -2.847656 1.84375 -2.734375 C 0.8125 -2.628906 0.1875 -3.195312 -0.03125 -4.4375 C -0.1875 -5.65625 0.550781 -8.144531 2.1875 -11.90625 C 3.832031 -15.664062 5.132812 -18.75 6.09375 -21.15625 C 6.175781 -21.363281 6.296875 -21.550781 6.453125 -21.71875 C 6.671875 -21.925781 6.925781 -21.972656 7.21875 -21.859375 C 7.320312 -21.816406 7.421875 -21.742188 7.515625 -21.640625 C 7.609375 -21.546875 7.640625 -21.375 7.609375 -21.125 C 3.378906 -11.101562 1.332031 -5.65625 1.46875 -4.78125 C 1.601562 -3.90625 2.164062 -3.6875 3.15625 -4.125 C 4.15625 -4.570312 4.925781 -5.023438 5.46875 -5.484375 C 6.007812 -5.941406 6.347656 -6.242188 6.484375 -6.390625 Z M 6.484375 -6.390625 "/></g></g></g><g fill="#000000" fill-opacity="1"><g transform="translate(197.727877, 210.569151)"><g/></g></g><g fill="#000000" fill-opacity="1"><g transform="translate(211.970151, 210.569151)"><g><path d="M 76.046875 10.796875 C 76.109375 10.859375 76.140625 10.945312 76.140625 11.0625 L 76.140625 11.140625 C 76.140625 11.191406 76.140625 11.234375 76.140625 11.265625 C 76.085938 11.378906 76.015625 11.460938 75.921875 11.515625 C 75.828125 11.566406 75.71875 11.59375 75.59375 11.59375 C 75.539062 11.59375 75.484375 11.585938 75.421875 11.578125 C 75.359375 11.566406 75.3125 11.550781 75.28125 11.53125 C 74.851562 11.15625 74.378906 10.898438 73.859375 10.765625 C 73.347656 10.628906 72.835938 10.535156 72.328125 10.484375 C 72.015625 10.429688 71.710938 10.378906 71.421875 10.328125 C 64.691406 9.003906 57.929688 7.984375 51.140625 7.265625 C 47.679688 6.929688 44.210938 6.644531 40.734375 6.40625 C 38.054688 6.226562 35.375 6.113281 32.6875 6.0625 C 30.914062 6.039062 29.15625 5.988281 27.40625 5.90625 C 26.113281 5.863281 24.8125 5.863281 23.5 5.90625 C 23.082031 5.925781 22.675781 5.9375 22.28125 5.9375 C 21.082031 5.957031 19.882812 5.972656 18.6875 5.984375 C 15.425781 6.035156 12.175781 6.117188 8.9375 6.234375 C 6.144531 6.328125 3.359375 6.492188 0.578125 6.734375 C -2.203125 6.972656 -4.96875 7.335938 -7.71875 7.828125 C -9.582031 8.117188 -11.410156 8.578125 -13.203125 9.203125 C -13.265625 9.222656 -13.332031 9.253906 -13.40625 9.296875 C -13.601562 9.378906 -13.804688 9.441406 -14.015625 9.484375 C -14.222656 9.535156 -14.441406 9.539062 -14.671875 9.5 C -14.929688 9.457031 -15.09375 9.316406 -15.15625 9.078125 C -15.164062 9.003906 -15.15625 8.921875 -15.125 8.828125 C -15.09375 8.742188 -15.050781 8.671875 -15 8.609375 C -14.644531 8.316406 -14.28125 8.046875 -13.90625 7.796875 C -10.507812 5.390625 -7.191406 2.882812 -3.953125 0.28125 C 1.742188 -4.195312 7.195312 -8.953125 12.40625 -13.984375 C 15.644531 -17.109375 18.925781 -20.175781 22.25 -23.1875 C 24.375 -25.113281 26.488281 -27.054688 28.59375 -29.015625 C 29.613281 -29.984375 30.625 -30.96875 31.625 -31.96875 C 31.757812 -32.113281 31.882812 -32.242188 32 -32.359375 C 32.0625 -32.390625 32.113281 -32.425781 32.15625 -32.46875 C 32.25 -32.570312 32.335938 -32.675781 32.421875 -32.78125 C 32.515625 -32.882812 32.5625 -33.015625 32.5625 -33.171875 C 32.375 -33.328125 32.171875 -33.425781 31.953125 -33.46875 C 31.734375 -33.507812 31.503906 -33.53125 31.265625 -33.53125 C 31.171875 -33.53125 31.066406 -33.53125 30.953125 -33.53125 C 28.472656 -33.707031 25.992188 -33.820312 23.515625 -33.875 C 21.046875 -33.9375 18.5625 -33.910156 16.0625 -33.796875 C 13.96875 -33.722656 11.867188 -33.59375 9.765625 -33.40625 C 7.660156 -33.226562 5.566406 -32.953125 3.484375 -32.578125 C 3.378906 -32.566406 3.28125 -32.550781 3.1875 -32.53125 C 2.8125 -32.46875 2.445312 -32.378906 2.09375 -32.265625 C 1.738281 -32.160156 1.40625 -31.992188 1.09375 -31.765625 C 1.144531 -31.367188 1.289062 -31.046875 1.53125 -30.796875 C 1.769531 -30.554688 2.046875 -30.335938 2.359375 -30.140625 C 2.515625 -30.023438 2.671875 -29.90625 2.828125 -29.78125 C 3.710938 -29.070312 4.675781 -28.484375 5.71875 -28.015625 C 5.757812 -27.992188 5.796875 -27.953125 5.828125 -27.890625 C 5.859375 -27.835938 5.878906 -27.796875 5.890625 -27.765625 C 5.890625 -27.640625 5.851562 -27.554688 5.78125 -27.515625 C 5.71875 -27.484375 5.648438 -27.453125 5.578125 -27.421875 C 5.097656 -27.328125 4.65625 -27.378906 4.25 -27.578125 C 3.445312 -27.960938 2.675781 -28.394531 1.9375 -28.875 C 1.195312 -29.363281 0.507812 -29.925781 -0.125 -30.5625 C -1.132812 -31.582031 -0.972656 -32.351562 0.359375 -32.875 C 1.085938 -33.164062 1.84375 -33.394531 2.625 -33.5625 C 3.769531 -33.820312 4.921875 -34.015625 6.078125 -34.140625 C 7.234375 -34.273438 8.390625 -34.40625 9.546875 -34.53125 C 9.660156 -34.53125 9.78125 -34.539062 9.90625 -34.5625 C 12.894531 -34.84375 15.882812 -34.988281 18.875 -35 C 21.875 -35.019531 24.867188 -34.988281 27.859375 -34.90625 C 29.503906 -34.851562 31.15625 -34.738281 32.8125 -34.5625 C 33.21875 -34.519531 33.609375 -34.535156 33.984375 -34.609375 C 34.359375 -34.691406 34.703125 -34.890625 35.015625 -35.203125 C 35.097656 -35.304688 35.210938 -35.378906 35.359375 -35.421875 C 35.503906 -35.472656 35.644531 -35.519531 35.78125 -35.5625 C 35.84375 -35.582031 35.894531 -35.601562 35.9375 -35.625 C 36.113281 -35.65625 36.265625 -35.617188 36.390625 -35.515625 C 36.515625 -35.421875 36.554688 -35.269531 36.515625 -35.0625 C 36.503906 -34.84375 36.519531 -34.675781 36.5625 -34.5625 C 36.613281 -34.445312 36.75 -34.375 36.96875 -34.34375 C 37.0625 -34.332031 37.15625 -34.328125 37.25 -34.328125 C 37.664062 -34.285156 38.078125 -34.21875 38.484375 -34.125 C 38.734375 -34.0625 38.847656 -33.890625 38.828125 -33.609375 C 38.796875 -33.515625 38.742188 -33.4375 38.671875 -33.375 C 38.609375 -33.320312 38.539062 -33.296875 38.46875 -33.296875 C 38.019531 -33.253906 37.566406 -33.226562 37.109375 -33.21875 C 36.617188 -33.21875 36.226562 -33.21875 35.9375 -33.21875 C 35.570312 -33.226562 35.296875 -33.21875 35.109375 -33.1875 C 34.929688 -33.15625 34.769531 -33.082031 34.625 -32.96875 C 34.476562 -32.851562 34.273438 -32.65625 34.015625 -32.375 C 33.816406 -32.1875 33.5625 -31.9375 33.25 -31.625 C 30.75 -29.175781 28.203125 -26.773438 25.609375 -24.421875 C 24.742188 -23.617188 23.878906 -22.820312 23.015625 -22.03125 C 19.234375 -18.5 15.453125 -14.941406 11.671875 -11.359375 C 6.753906 -6.742188 1.644531 -2.375 -3.65625 1.75 C -4.851562 2.6875 -6.0625 3.625 -7.28125 4.5625 C -8.007812 5.125 -8.742188 5.679688 -9.484375 6.234375 C -9.523438 6.265625 -9.570312 6.300781 -9.625 6.34375 C -9.75 6.425781 -9.859375 6.515625 -9.953125 6.609375 C -10.046875 6.710938 -10.09375 6.847656 -10.09375 7.015625 C -9.6875 6.960938 -9.28125 6.90625 -8.875 6.84375 C -7.882812 6.695312 -6.890625 6.539062 -5.890625 6.375 C -2.742188 5.90625 0.425781 5.570312 3.625 5.375 C 7.65625 5.144531 11.691406 4.984375 15.734375 4.890625 C 19.785156 4.796875 23.832031 4.757812 27.875 4.78125 C 34.050781 4.820312 40.207031 5.117188 46.34375 5.671875 C 55.5 6.492188 64.554688 7.898438 73.515625 9.890625 C 73.585938 9.898438 73.664062 9.914062 73.75 9.9375 C 74.289062 10.039062 74.816406 10.171875 75.328125 10.328125 C 75.609375 10.429688 75.847656 10.585938 76.046875 10.796875 Z M 76.046875 10.796875 "/></g></g></g><g fill="#000000" fill-opacity="1"><g transform="translate(232.119762, 210.569151)"><g><path d="M 9.71875 -6.8125 C 9.925781 -6.695312 9.941406 -6.410156 9.765625 -5.953125 C 9.503906 -5.609375 9.226562 -5.289062 8.9375 -5 C 8.644531 -4.707031 8.320312 -4.441406 7.96875 -4.203125 C 7.945312 -4.203125 7.9375 -4.195312 7.9375 -4.1875 C 7.695312 -4.019531 7.445312 -3.878906 7.1875 -3.765625 C 5.0625 -2.992188 3.972656 -3.445312 3.921875 -5.125 C 3.054688 -4.375 2.476562 -3.910156 2.1875 -3.734375 C 1.476562 -3.316406 0.710938 -3.128906 -0.109375 -3.171875 C -0.710938 -3.210938 -1.125 -3.398438 -1.34375 -3.734375 C -1.5625 -4.066406 -1.539062 -4.519531 -1.28125 -5.09375 C -0.894531 -5.988281 -0.335938 -6.789062 0.390625 -7.5 C 1.234375 -8.289062 2.175781 -8.921875 3.21875 -9.390625 C 3.769531 -9.671875 4.347656 -9.78125 4.953125 -9.71875 C 5.566406 -9.675781 5.9375 -9.332031 6.0625 -8.6875 C 6.113281 -8.488281 6.0625 -8.3125 5.90625 -8.15625 C 5.707031 -7.976562 5.476562 -7.9375 5.21875 -8.03125 C 5.207031 -8.03125 5.1875 -8.035156 5.15625 -8.046875 C 5.125 -8.054688 5.097656 -8.070312 5.078125 -8.09375 C 4.816406 -8.445312 4.554688 -8.59375 4.296875 -8.53125 C 4.035156 -8.476562 3.753906 -8.363281 3.453125 -8.1875 C 2.078125 -7.382812 1.054688 -6.265625 0.390625 -4.828125 C 0.347656 -4.765625 0.320312 -4.691406 0.3125 -4.609375 C 0.3125 -4.535156 0.335938 -4.476562 0.390625 -4.4375 C 0.546875 -4.382812 0.722656 -4.394531 0.921875 -4.46875 C 1.117188 -4.539062 1.316406 -4.648438 1.515625 -4.796875 C 1.710938 -4.953125 1.878906 -5.078125 2.015625 -5.171875 C 2.023438 -5.203125 2.03125 -5.21875 2.03125 -5.21875 C 2.6875 -5.757812 3.328125 -6.316406 3.953125 -6.890625 C 4.234375 -7.179688 4.578125 -7.34375 4.984375 -7.375 C 5.578125 -7.375 5.820312 -7.113281 5.71875 -6.59375 C 5.664062 -6.394531 5.609375 -6.195312 5.546875 -6 C 5.316406 -5.15625 5.304688 -4.65625 5.515625 -4.5 C 5.734375 -4.351562 6.0625 -4.351562 6.5 -4.5 C 6.945312 -4.65625 7.390625 -4.9375 7.828125 -5.34375 C 8.273438 -5.757812 8.648438 -6.140625 8.953125 -6.484375 C 9.253906 -6.828125 9.507812 -6.9375 9.71875 -6.8125 Z M 9.71875 -6.8125 "/></g></g></g><g fill="#000000" fill-opacity="1"><g transform="translate(245.116279, 210.569151)"><g><path d="M 10.875 -6.25 C 10.71875 -6.101562 10.550781 -5.972656 10.375 -5.859375 C 9.800781 -5.492188 9.28125 -5.207031 8.8125 -5 C 8.351562 -4.800781 7.8125 -4.59375 7.1875 -4.375 C 6.257812 -4.101562 5.664062 -4.164062 5.40625 -4.5625 C 5.144531 -4.96875 5.101562 -5.53125 5.28125 -6.25 C 5.53125 -7.257812 5.675781 -8 5.71875 -8.46875 C 5.757812 -8.945312 5.601562 -9.113281 5.25 -8.96875 C 4.894531 -8.820312 4.253906 -8.332031 3.328125 -7.5 C 2.023438 -6.382812 0.914062 -5.109375 0 -3.671875 C -0.113281 -3.472656 -0.253906 -3.3125 -0.421875 -3.1875 C -0.597656 -3.0625 -0.8125 -3 -1.0625 -3 C -1.300781 -3 -1.472656 -3.0625 -1.578125 -3.1875 C -1.679688 -3.3125 -1.6875 -3.484375 -1.59375 -3.703125 C -1.0625 -4.859375 -0.519531 -6.007812 0.03125 -7.15625 C 0.976562 -9.132812 1.910156 -11.109375 2.828125 -13.078125 C 3.515625 -14.546875 4.191406 -16.019531 4.859375 -17.5 C 5.273438 -18.363281 5.675781 -19.226562 6.0625 -20.09375 C 6.101562 -20.164062 6.144531 -20.242188 6.1875 -20.328125 C 6.226562 -20.421875 6.269531 -20.515625 6.3125 -20.609375 C 6.363281 -20.710938 6.421875 -20.820312 6.484375 -20.9375 C 6.535156 -21.039062 6.632812 -21.125 6.78125 -21.1875 C 6.925781 -21.25 7.070312 -21.285156 7.21875 -21.296875 C 7.375 -21.316406 7.488281 -21.3125 7.5625 -21.28125 C 7.6875 -21.195312 7.753906 -21.109375 7.765625 -21.015625 C 7.773438 -20.929688 7.757812 -20.835938 7.71875 -20.734375 C 7.695312 -20.722656 7.6875 -20.691406 7.6875 -20.640625 C 7.507812 -20.117188 7.320312 -19.613281 7.125 -19.125 C 5.988281 -16.382812 4.753906 -13.691406 3.421875 -11.046875 C 3.316406 -10.859375 3.195312 -10.640625 3.0625 -10.390625 C 2.863281 -10.035156 2.679688 -9.6875 2.515625 -9.34375 C 2.347656 -9 2.289062 -8.769531 2.34375 -8.65625 C 2.40625 -8.539062 2.671875 -8.628906 3.140625 -8.921875 C 3.285156 -9.015625 3.414062 -9.113281 3.53125 -9.21875 C 3.90625 -9.46875 4.28125 -9.703125 4.65625 -9.921875 C 4.96875 -10.140625 5.320312 -10.257812 5.71875 -10.28125 C 6.65625 -10.34375 7.179688 -9.914062 7.296875 -9 C 7.347656 -8.632812 7.335938 -8.269531 7.265625 -7.90625 C 7.191406 -7.550781 7.101562 -7.203125 7 -6.859375 C 6.988281 -6.765625 6.972656 -6.664062 6.953125 -6.5625 C 6.796875 -5.957031 6.835938 -5.609375 7.078125 -5.515625 C 7.328125 -5.429688 7.671875 -5.484375 8.109375 -5.671875 C 8.554688 -5.859375 9.003906 -6.082031 9.453125 -6.34375 C 9.765625 -6.507812 10.039062 -6.648438 10.28125 -6.765625 C 10.519531 -6.878906 10.695312 -6.925781 10.8125 -6.90625 C 11.03125 -6.875 11.128906 -6.785156 11.109375 -6.640625 C 11.085938 -6.503906 11.007812 -6.375 10.875 -6.25 Z M 10.875 -6.25 "/></g></g></g><g fill="#000000" fill-opacity="1"><g transform="translate(259.452326, 210.569151)"><g><path d="M 5.328125 -5.640625 C 4.847656 -5.078125 4.28125 -4.554688 3.625 -4.078125 C 2.976562 -3.609375 2.242188 -3.289062 1.421875 -3.125 C 0.597656 -2.957031 -0.0351562 -3.015625 -0.484375 -3.296875 C -0.941406 -3.585938 -1.035156 -4.226562 -0.765625 -5.21875 C -0.410156 -6.226562 0.078125 -7.195312 0.703125 -8.125 C 0.847656 -8.3125 1.054688 -8.445312 1.328125 -8.53125 C 1.523438 -8.570312 1.695312 -8.535156 1.84375 -8.421875 C 1.988281 -8.316406 2.046875 -8.179688 2.015625 -8.015625 C 1.878906 -7.691406 1.726562 -7.367188 1.5625 -7.046875 C 1.40625 -6.722656 1.300781 -6.515625 1.25 -6.421875 C 0.9375 -5.847656 0.71875 -5.25 0.59375 -4.625 C 0.59375 -4.269531 1.066406 -4.25 2.015625 -4.5625 C 2.972656 -4.875 3.898438 -5.445312 4.796875 -6.28125 C 5.703125 -7.113281 6.132812 -7.359375 6.09375 -7.015625 C 6.0625 -6.671875 5.804688 -6.210938 5.328125 -5.640625 Z M 2.984375 -10.125 C 2.941406 -10.09375 2.847656 -10.050781 2.703125 -10 C 2.566406 -9.945312 2.421875 -9.910156 2.265625 -9.890625 C 2.109375 -9.867188 1.984375 -9.894531 1.890625 -9.96875 C 1.804688 -10.039062 1.804688 -10.179688 1.890625 -10.390625 C 2.035156 -10.765625 2.1875 -11.09375 2.34375 -11.375 C 2.5 -11.65625 2.703125 -11.96875 2.953125 -12.3125 C 3.109375 -12.46875 3.28125 -12.550781 3.46875 -12.5625 C 3.65625 -12.570312 3.8125 -12.519531 3.9375 -12.40625 C 4.0625 -12.300781 4.097656 -12.148438 4.046875 -11.953125 C 3.847656 -11.242188 3.492188 -10.632812 2.984375 -10.125 Z M 2.984375 -10.125 "/></g></g></g><g fill="#000000" fill-opacity="1"><g transform="translate(268.791906, 210.569151)"><g><path d="M 6.421875 -8.21875 C 6.347656 -7.601562 6.0625 -7.203125 5.5625 -7.015625 C 5.0625 -6.828125 4.894531 -7.070312 5.0625 -7.75 C 5.238281 -8.4375 4.929688 -8.609375 4.140625 -8.265625 C 3.359375 -7.929688 2.710938 -7.507812 2.203125 -7 C 1.421875 -6.195312 0.726562 -5.332031 0.125 -4.40625 C 0.0625 -4.320312 0.0078125 -4.253906 -0.03125 -4.203125 C -0.207031 -3.941406 -0.382812 -3.695312 -0.5625 -3.46875 C -0.675781 -3.3125 -0.8125 -3.210938 -0.96875 -3.171875 C -1.125 -3.128906 -1.285156 -3.117188 -1.453125 -3.140625 C -1.597656 -3.160156 -1.710938 -3.21875 -1.796875 -3.3125 C -1.878906 -3.414062 -1.890625 -3.535156 -1.828125 -3.671875 C -1.722656 -3.910156 -1.601562 -4.15625 -1.46875 -4.40625 C -0.664062 -5.894531 0.148438 -7.390625 0.984375 -8.890625 C 0.992188 -8.910156 1 -8.929688 1 -8.953125 C 1.113281 -9.179688 1.253906 -9.394531 1.421875 -9.59375 C 1.597656 -9.789062 1.800781 -9.867188 2.03125 -9.828125 C 2.269531 -9.796875 2.425781 -9.660156 2.5 -9.421875 C 2.601562 -9.109375 2.6875 -8.929688 2.75 -8.890625 C 2.820312 -8.847656 2.984375 -8.875 3.234375 -8.96875 C 3.773438 -9.164062 4.300781 -9.304688 4.8125 -9.390625 C 5.320312 -9.472656 5.738281 -9.453125 6.0625 -9.328125 C 6.382812 -9.210938 6.503906 -8.84375 6.421875 -8.21875 Z M 6.421875 -8.21875 "/></g></g></g><g fill="#000000" fill-opacity="1"><g transform="translate(279.60497, 210.569151)"><g/></g></g><g fill="#000000" fill-opacity="1"><g transform="translate(293.847232, 210.569151)"><g><path d="M 6.515625 -5.828125 L 5.421875 -5.859375 C 4.328125 -5.890625 3.128906 -5.976562 1.828125 -6.125 C 1.804688 -6.125 1.785156 -6.140625 1.765625 -6.171875 C 1.734375 -6.171875 1.703125 -6.1875 1.671875 -6.21875 C 1.648438 -6.25 1.648438 -6.316406 1.671875 -6.421875 C 1.773438 -6.828125 1.921875 -7.039062 2.109375 -7.0625 C 3.160156 -7.207031 4.195312 -7.285156 5.21875 -7.296875 L 5.84375 -7.328125 L 9.96875 -7.328125 C 10.195312 -7.328125 10.421875 -7.3125 10.640625 -7.28125 C 10.796875 -7.226562 10.816406 -7 10.703125 -6.59375 C 10.578125 -6.175781 10.429688 -5.945312 10.265625 -5.90625 C 10.179688 -5.882812 10.097656 -5.875 10.015625 -5.875 L 9.375 -5.875 C 8.46875 -5.84375 7.515625 -5.828125 6.515625 -5.828125 Z M 6.515625 -5.828125 "/></g></g></g></svg>