<svg width="78" height="22" viewBox="0 0 78 22" fill="none" xmlns="http://www.w3.org/2000/svg">
<path id="Lets scroll" d="M3.824 5.16H1.232V17H8.496V14.6H3.824V5.16ZM13.3744 17.208C15.5664 17.208 17.1504 16.072 17.4384 14.296H15.1824C15.0064 14.872 14.3504 15.208 13.4224 15.208C12.3344 15.208 11.7424 14.712 11.5984 13.656L17.4064 13.624V13C17.4064 10.392 15.8384 8.744 13.3264 8.744C10.9104 8.744 9.23038 10.488 9.23038 12.984C9.23038 15.448 10.9584 17.208 13.3744 17.208ZM13.3424 10.744C14.3344 10.744 14.9584 11.288 14.9584 12.136H11.6304C11.8224 11.176 12.3664 10.744 13.3424 10.744ZM22.0194 17V11.048H23.5394V9H22.0194V6.52H19.5554V9H18.0354V11.048H19.5554V17H22.0194ZM24.0708 14.472C24.0708 16.088 25.3988 17.208 27.5108 17.208C29.5908 17.208 31.0468 16.168 31.0468 14.456C31.0468 13.176 30.3268 12.568 29.0148 12.28L27.5268 11.96C26.9668 11.832 26.6628 11.624 26.6628 11.256C26.6628 10.824 27.0148 10.536 27.5748 10.536C28.1668 10.536 28.5028 10.904 28.5028 11.448H30.8388C30.8388 9.832 29.5428 8.744 27.6868 8.744C25.7668 8.744 24.3428 9.704 24.3428 11.368C24.3428 12.776 25.0628 13.416 26.5348 13.736L28.0068 14.056C28.5988 14.184 28.7268 14.44 28.7268 14.68C28.7268 15.096 28.3748 15.368 27.6068 15.368C26.8548 15.368 26.4388 15.032 26.4068 14.472H24.0708ZM35.9926 14.472C35.9926 16.088 37.3206 17.208 39.4326 17.208C41.5126 17.208 42.9686 16.168 42.9686 14.456C42.9686 13.176 42.2486 12.568 40.9366 12.28L39.4486 11.96C38.8886 11.832 38.5846 11.624 38.5846 11.256C38.5846 10.824 38.9366 10.536 39.4966 10.536C40.0886 10.536 40.4246 10.904 40.4246 11.448H42.7606C42.7606 9.832 41.4646 8.744 39.6086 8.744C37.6886 8.744 36.2646 9.704 36.2646 11.368C36.2646 12.776 36.9846 13.416 38.4566 13.736L39.9286 14.056C40.5206 14.184 40.6486 14.44 40.6486 14.68C40.6486 15.096 40.2966 15.368 39.5286 15.368C38.7766 15.368 38.3606 15.032 38.3286 14.472H35.9926ZM43.8241 12.968C43.8241 15.528 45.4561 17.208 47.9841 17.208C50.2241 17.208 51.8561 15.832 52.0161 13.816H49.5361C49.3761 14.6 48.8481 15 47.9841 15C46.9281 15 46.3041 14.248 46.3041 12.968C46.3041 11.736 46.9761 10.952 48.0161 10.952C48.8641 10.952 49.3601 11.336 49.5361 12.136H52.0161C51.8561 10.04 50.2881 8.744 47.9201 8.744C45.5201 8.744 43.8241 10.504 43.8241 12.968ZM58.8695 9C58.5335 8.92 58.2135 8.888 57.9255 8.888C56.8535 8.888 56.1495 9.416 55.8135 10.2L55.6855 9.016H53.3655V17H55.8295V13.528C55.8295 11.944 56.6775 11.32 58.0855 11.32H58.8695V9ZM59.4491 12.984C59.4491 15.512 61.3051 17.192 63.8651 17.192C66.4091 17.192 68.2651 15.512 68.2651 12.984C68.2651 10.456 66.4091 8.76 63.8651 8.76C61.3051 8.76 59.4491 10.456 59.4491 12.984ZM61.9291 12.968C61.9291 11.768 62.7131 10.968 63.8651 10.968C65.0011 10.968 65.7851 11.768 65.7851 12.968C65.7851 14.184 65.0011 14.984 63.8651 14.984C62.7131 14.984 61.9291 14.184 61.9291 12.968ZM72.1576 17V4.936H69.6936V17H72.1576ZM76.4701 17V4.936H74.0061V17H76.4701Z" fill="#0B24F5"/>
</svg>
