 <svg width="134" height="36" viewBox="0 0 134 36" fill="none" xmlns="http://www.w3.org/2000/svg">
<path d="M11.349 7.736H0.596999V1.4H29.877V7.736H19.125V35H11.349V7.736ZM60.5569 28.76V35H34.5409V1.4H59.9329V7.64H42.2689V14.936H57.8689V20.984H42.2689V28.76H60.5569ZM83.2102 35.576C79.7862 35.576 76.6822 34.84 73.8982 33.368C71.1462 31.864 68.9702 29.8 67.3702 27.176C65.8022 24.52 65.0182 21.528 65.0182 18.2C65.0182 14.872 65.8022 11.896 67.3702 9.272C68.9702 6.616 71.1462 4.552 73.8982 3.08C76.6822 1.576 79.8022 0.823999 83.2582 0.823999C86.1702 0.823999 88.7942 1.336 91.1302 2.36C93.4982 3.384 95.4822 4.856 97.0822 6.776L92.0902 11.384C89.8182 8.76 87.0022 7.448 83.6422 7.448C81.5622 7.448 79.7062 7.912 78.0742 8.84C76.4422 9.736 75.1622 11 74.2342 12.632C73.3382 14.264 72.8902 16.12 72.8902 18.2C72.8902 20.28 73.3382 22.136 74.2342 23.768C75.1622 25.4 76.4422 26.68 78.0742 27.608C79.7062 28.504 81.5622 28.952 83.6422 28.952C87.0022 28.952 89.8182 27.624 92.0902 24.968L97.0822 29.576C95.4822 31.528 93.4982 33.016 91.1302 34.04C88.7622 35.064 86.1222 35.576 83.2102 35.576ZM133.629 1.4V35H125.853V21.224H110.589V35H102.813V1.4H110.589V14.648H125.853V1.4H133.629Z" fill="white"/>
</svg>
