<svg width="124" height="124" viewBox="0 0 124 124" fill="none" xmlns="http://www.w3.org/2000/svg">
<g class="circle">
<path d="M106.473 75.9399L107.407 73.7551L122.193 80.0743L121.175 82.4578L114.377 79.5528L114.321 79.6853C115.986 80.9189 116.71 82.9508 115.587 85.577C114.144 88.9536 111.057 89.8265 107.636 88.3646C104.26 86.9215 102.744 84.0553 104.234 80.5684C105.3 78.0746 107.18 76.9729 109.563 77.4432L109.629 77.2887L106.473 75.9399ZM111.751 78.4305C109.456 77.4496 107.749 78.3904 106.74 80.7518C105.712 83.1573 106.029 84.8587 108.655 85.9811C111.303 87.1129 112.783 86.1534 113.783 83.8141C114.839 81.3423 114.267 79.5057 111.928 78.5059L111.751 78.4305Z" fill="#2B2D31"/>
<path d="M99.3831 89.0336C100.93 87.1057 102.805 86.6102 104.34 87.842C105.781 88.9987 105.599 90.76 104.332 92.7596L101.387 97.3502L101.929 97.7858C103.464 99.0176 104.548 98.7795 105.975 97.0013C107.357 95.2793 107.471 93.9864 106.105 92.8898L106.03 92.8297L107.637 90.8269L107.712 90.887C109.827 92.5845 110.006 95.6208 107.633 98.5781C105.259 101.535 102.583 101.573 100.356 99.7849L94.7031 95.2483L96.1903 93.3952L98.5113 95.258L98.6164 95.127C97.4347 93.3785 97.6856 91.1487 99.3831 89.0336ZM102.849 89.9686C102.1 89.3677 101.339 89.5877 100.407 90.7481C98.7099 92.8632 98.3544 94.9166 100.189 96.3888L102.706 92.4084C103.416 91.2551 103.579 90.5545 102.849 89.9686Z" fill="#2B2D31"/>
<path d="M89.2427 99.1663C92.4172 96.8393 95.9781 97.3536 98.149 100.315C100.348 103.315 99.7528 106.847 96.5783 109.174C93.6941 111.288 90.3924 111.208 88.633 108.808L88.4911 108.615L90.5623 107.096L90.6474 107.213C91.7399 108.703 93.3631 108.644 95.2407 107.268C97.4086 105.679 97.6244 103.943 96.0779 101.833C94.5597 99.7622 92.8256 99.4263 90.6577 101.015C88.7801 102.392 88.2353 103.922 89.3278 105.412L89.4272 105.548L87.356 107.066L87.1999 106.853C85.4405 104.453 86.3585 101.28 89.2427 99.1663Z" fill="#2B2D31"/>
<path d="M81.2955 104.278L83.7153 103.349L89.4771 118.361L87.0572 119.29L83.8754 110.999L80.6937 112.221L79.0492 117.916L76.226 119L78.3607 112.036L71.9744 107.855L74.82 106.763L79.8595 110.047L83.0412 108.826L81.2955 104.278Z" fill="#2B2D31"/>
<path d="M59.2758 108.634L62.0098 108.529C64.5759 108.43 66.2022 109.496 66.3143 112.398L66.5356 118.129L68.5501 118.051L68.6334 120.21L66.6189 120.288L66.7199 122.902L64.1538 123.001L64.0529 120.387L59.7361 120.553L59.6527 118.395L63.9695 118.228L63.7538 112.641C63.6973 111.178 63.011 110.82 61.5241 110.877L59.3657 110.961L59.2758 108.634Z" fill="#2B2D31"/>
<path d="M52.701 107.444C56.5909 108.186 58.7355 111.161 58.0476 114.768C57.3506 118.422 54.2661 120.375 50.3762 119.633C46.4628 118.886 44.3136 115.935 45.0106 112.281C45.6986 108.674 48.7875 106.698 52.701 107.444ZM52.2693 109.708C49.4167 109.164 47.9817 110.282 47.5095 112.758C47.0329 115.257 47.9508 116.849 50.8034 117.393C53.6324 117.933 55.072 116.79 55.5486 114.291C56.0208 111.816 55.0983 110.247 52.2693 109.708Z" fill="#2B2D31"/>
<path d="M34.3046 100.055L36.6654 101.438C38.8812 102.736 39.6778 104.51 38.21 107.016L35.3107 111.965L37.0503 112.984L35.9585 114.848L34.219 113.829L32.8967 116.086L30.6809 114.788L32.0032 112.531L28.2756 110.348L29.3674 108.484L33.0949 110.667L35.9214 105.842C36.6614 104.579 36.2756 103.908 34.9917 103.156L33.1279 102.064L34.3046 100.055Z" fill="#2B2D31"/>
<path d="M29.5626 95.6561C32.4429 98.3737 32.6512 102.035 30.1313 104.706C27.5784 107.411 23.9279 107.399 21.0475 104.681C18.1497 101.947 17.9249 98.3034 20.4778 95.5977C22.9977 92.9268 26.6648 92.922 29.5626 95.6561ZM27.9815 97.3319C25.8692 95.339 24.0576 95.5105 22.3282 97.3435C20.5824 99.1939 20.4999 101.03 22.6122 103.023C24.707 104.999 26.5351 104.81 28.2809 102.96C30.0103 101.127 30.0762 99.3083 27.9815 97.3319Z" fill="#2B2D31"/>
<path d="M26.6602 86.9174L27.9786 89.1491L14.1959 97.2911L12.9874 95.2454L15.839 93.5608L15.7291 93.3749C13.5839 94.0846 11.5722 93.3217 10.144 90.9041C8.26416 87.7219 9.37185 84.6424 12.5541 82.7625C15.7363 80.8827 18.9229 81.3696 20.815 84.5724C22.1822 86.8868 21.8419 89.0948 20.2056 90.6189L20.2545 90.7015L26.6602 86.9174ZM18.1881 91.9222C20.2958 90.6771 20.5355 88.7236 19.2416 86.5333C17.9354 84.3223 16.3314 83.5416 13.8724 84.9942C11.3928 86.4591 11.3353 88.2491 12.6048 90.3982C13.9597 92.6918 15.7911 93.3382 18.0021 92.0321L18.1881 91.9222Z" fill="#2B2D31"/>
<path d="M2.96008 65.1736C2.87421 63.7842 3.95294 62.5633 5.34229 62.4775C6.7556 62.3901 7.97647 63.4688 8.06235 64.8582C8.1497 66.2715 7.07097 67.4924 5.65766 67.5797C4.26832 67.6656 3.04744 66.5869 2.96008 65.1736Z" fill="#2B2D31"/>
<path d="M16.6727 46.677L15.7146 48.8512L1 42.3669L2.04523 39.995L8.80957 42.9759L8.86763 42.8441C7.21638 41.5919 6.51544 39.552 7.66714 36.9385C9.14789 33.5783 12.2449 32.74 15.649 34.2401C19.0092 35.7209 20.4926 38.6039 18.9635 42.0739C17.8699 44.5556 15.9774 45.6362 13.5999 45.1393L13.5322 45.293L16.6727 46.677ZM11.4231 44.1276C13.7071 45.1341 15.4246 44.2124 16.4602 41.8625C17.5151 39.4686 17.2173 37.7637 14.6038 36.612C11.9683 35.4507 10.4775 36.3936 9.45166 38.7215C8.36771 41.1813 8.91938 43.0243 11.2474 44.0501L11.4231 44.1276Z" fill="#2B2D31"/>
<path d="M23.823 33.7251C22.2547 35.636 20.3746 36.111 18.8533 34.8625C17.4248 33.6902 17.6267 31.9309 18.9147 29.9453L21.9105 25.3871L21.3724 24.9456C19.8512 23.6971 18.765 23.9234 17.3186 25.6859C15.9178 27.3927 15.7893 28.6843 17.1436 29.7957L17.2178 29.8566L15.5886 31.8417L15.5144 31.7808C13.418 30.0603 13.2723 27.0223 15.678 24.091C18.0836 21.1598 20.7601 21.152 22.9678 22.9638L28.5705 27.562L27.0632 29.3986L24.7627 27.5106L24.6562 27.6405C25.8187 29.4018 25.5435 31.6287 23.823 33.7251ZM20.3678 32.7523C21.1099 33.3614 21.8735 33.1497 22.8174 31.9995C24.5379 29.9031 24.9159 27.8537 23.0978 26.3616L20.5369 30.3142C19.8142 31.4597 19.6443 32.1585 20.3678 32.7523Z" fill="#2B2D31"/>
<path d="M33.9774 23.7112C30.7776 26.0033 27.2225 25.45 25.0842 22.4648C22.9179 19.4407 23.5521 15.9161 26.7519 13.6241C29.6591 11.5417 32.9597 11.6572 34.6927 14.0766L34.8325 14.2717L32.7448 15.7671L32.6609 15.65C31.5848 14.1477 29.9611 14.1889 28.0686 15.5446C25.8833 17.1099 25.6485 18.8427 27.1719 20.9694C28.6673 23.0571 30.3975 23.4119 32.5827 21.8466C34.4753 20.491 35.0368 18.9669 33.9607 17.4646L33.8629 17.328L35.9505 15.8326L36.1043 16.0472C37.8373 18.4666 36.8845 21.6288 33.9774 23.7112Z" fill="#2B2D31"/>
<path d="M42.1053 18.5653L39.6751 19.4668L34.0827 4.39065L36.5129 3.48918L39.6012 11.8148L42.7965 10.6296L44.5049 4.95301L47.3401 3.9013L45.1272 10.8401L51.466 15.093L48.6083 16.1531L43.6061 12.8122L40.4109 13.9975L42.1053 18.5653Z" fill="#2B2D31"/>
<path d="M64.1949 14.422L61.4599 14.4959C58.8928 14.5653 57.2789 13.4805 57.2005 10.5775L57.0455 4.84363L55.0302 4.89809L54.9719 2.73888L56.9872 2.68442L56.9165 0.069374L59.4835 0L59.5542 2.61505L63.8726 2.49834L63.931 4.65755L59.6126 4.77426L59.7636 10.3642C59.8032 11.8277 60.4853 12.1934 61.9728 12.1532L64.132 12.0948L64.1949 14.422Z" fill="#2B2D31"/>
<path d="M70.4756 15.6069C66.5945 14.8204 64.484 11.8215 65.2133 8.22268C65.9521 4.57679 69.0588 2.65959 72.9399 3.44607C76.8445 4.23731 78.9597 7.21267 78.2209 10.8586C77.4917 14.4574 74.3802 16.3981 70.4756 15.6069ZM70.9332 13.3488C73.7793 13.9255 75.2271 12.8231 75.7276 10.3533C76.2329 7.85999 75.3332 6.2574 72.4871 5.68065C69.6644 5.10867 68.2119 6.23461 67.7066 8.72793C67.2062 11.1977 68.1106 12.7768 70.9332 13.3488Z" fill="#2B2D31"/>
<path d="M89.0941 23.2431L86.7487 21.8342C84.5474 20.5118 83.7704 18.7292 85.2658 16.2398L88.2195 11.3228L86.4913 10.2847L87.6036 8.43306L89.3318 9.47119L90.6789 7.22869L92.8802 8.55107L91.5331 10.7936L95.2364 13.0181L94.1241 14.8697L90.4209 12.6452L87.5413 17.4388C86.7874 18.6937 87.1657 19.369 88.4413 20.1352L90.2929 21.2475L89.0941 23.2431Z" fill="#2B2D31"/>
<path d="M93.7939 27.6828C90.9434 24.934 90.775 21.2708 93.3239 18.6276C95.9061 15.9498 99.5563 16.0023 102.407 18.7511C105.275 21.5166 105.46 25.1625 102.878 27.8403C100.329 30.4835 96.6617 30.4483 93.7939 27.6828ZM95.3932 26.0243C97.4836 28.0401 99.297 27.8884 101.046 26.0744C102.812 24.2431 102.915 22.4081 100.824 20.3923C98.7511 18.3932 96.921 18.5622 95.1551 20.3935C93.4059 22.2075 93.3201 24.0252 95.3932 26.0243Z" fill="#2B2D31"/>
<path d="M96.6294 36.4709L95.3358 34.2248L109.208 26.2356L110.393 28.2945L107.523 29.9474L107.631 30.1346C109.784 29.4486 111.787 30.2337 113.189 32.6669C115.033 35.8697 113.892 38.9368 110.689 40.7814C107.486 42.626 104.305 42.1039 102.448 38.8803C101.107 36.551 101.471 34.3469 103.124 32.841L103.077 32.7578L96.6294 36.4709ZM105.156 31.56C103.035 32.7817 102.774 34.7325 104.043 36.937C105.325 39.1623 106.92 39.9606 109.395 38.5353C111.891 37.0979 111.968 35.3086 110.722 33.1456C109.393 30.8371 107.569 30.1706 105.343 31.4522L105.156 31.56Z" fill="#2B2D31"/>
<path d="M120.1 58.5177C120.17 59.9079 119.077 61.1162 117.687 61.186C116.273 61.257 115.065 60.1642 114.995 58.774C114.924 57.3598 116.017 56.1515 117.431 56.0804C118.821 56.0106 120.029 57.1034 120.1 58.5177Z" fill="#2B2D31"/>
</g>
<mask id="mask0_12545_134" style="mask-type:alpha" maskUnits="userSpaceOnUse" x="42" y="41" width="41" height="42">
<rect x="42.2378" y="41.717" width="40.3249" height="40.3249" fill="#D9D9D9"/>
</mask>
<g mask="url(#mask0_12545_134)">
<path d="M61.3448 74.4812V53.3039L51.2854 63.3637L49.7988 61.8796L62.4004 49.2781L75.0019 61.8796L73.5154 63.3637L63.456 53.3039V74.4812H61.3448Z" fill="#2B2D31"/>
</g>
</svg>
