<svg width="122" height="123" viewBox="0 0 122 123" fill="none" xmlns="http://www.w3.org/2000/svg">
<path d="M105.473 75.9399L106.407 73.7551L121.193 80.0743L120.175 82.4578L113.377 79.5528L113.321 79.6853C114.986 80.9189 115.71 82.9508 114.587 85.577C113.144 88.9536 110.057 89.8265 106.636 88.3646C103.26 86.9215 101.744 84.0553 103.234 80.5684C104.3 78.0746 106.18 76.9729 108.563 77.4432L108.629 77.2887L105.473 75.9399ZM110.751 78.4305C108.456 77.4496 106.749 78.3904 105.74 80.7518C104.712 83.1573 105.029 84.8587 107.655 85.9811C110.303 87.1129 111.783 86.1534 112.783 83.8141C113.839 81.3423 113.267 79.5057 110.928 78.5059L110.751 78.4305Z" fill="#2B2D31"/>
<path d="M98.3831 89.0336C99.9303 87.1057 101.805 86.6102 103.34 87.842C104.781 88.9987 104.599 90.76 103.332 92.7596L100.387 97.3502L100.929 97.7858C102.464 99.0176 103.548 98.7795 104.975 97.0013C106.357 95.2793 106.471 93.9864 105.105 92.8898L105.03 92.8297L106.637 90.8269L106.712 90.887C108.827 92.5845 109.006 95.6208 106.633 98.5781C104.259 101.535 101.583 101.573 99.3558 99.7849L93.7031 95.2483L95.1903 93.3952L97.5113 95.258L97.6164 95.127C96.4347 93.3785 96.6856 91.1487 98.3831 89.0336ZM101.849 89.9686C101.1 89.3677 100.339 89.5877 99.4074 90.7481C97.7099 92.8632 97.3544 94.9166 99.1887 96.3888L101.706 92.4084C102.416 91.2551 102.579 90.5544 101.849 89.9686Z" fill="#2B2D31"/>
<path d="M88.2427 99.1663C91.4172 96.8393 94.9781 97.3536 97.149 100.315C99.3483 103.315 98.7528 106.847 95.5783 109.174C92.6941 111.288 89.3924 111.208 87.633 108.808L87.4911 108.615L89.5623 107.096L89.6474 107.213C90.7399 108.703 92.3631 108.644 94.2407 107.268C96.4086 105.679 96.6244 103.943 95.0779 101.833C93.5597 99.7622 91.8256 99.4263 89.6577 101.015C87.7801 102.392 87.2353 103.922 88.3278 105.412L88.4272 105.548L86.356 107.066L86.1999 106.853C84.4405 104.453 85.3585 101.28 88.2427 99.1663Z" fill="#2B2D31"/>
<path d="M80.2955 104.278L82.7153 103.349L88.4771 118.361L86.0572 119.29L82.8754 110.999L79.6937 112.221L78.0492 117.916L75.226 119L77.3607 112.036L70.9744 107.855L73.82 106.763L78.8595 110.047L82.0412 108.826L80.2955 104.278Z" fill="#2B2D31"/>
<path d="M58.2758 108.634L61.0098 108.529C63.5759 108.43 65.2022 109.496 65.3143 112.398L65.5356 118.129L67.5501 118.051L67.6334 120.21L65.6189 120.288L65.7199 122.902L63.1538 123.001L63.0529 120.387L58.7361 120.553L58.6527 118.395L62.9695 118.228L62.7538 112.641C62.6973 111.178 62.011 110.82 60.5241 110.877L58.3657 110.961L58.2758 108.634Z" fill="#2B2D31"/>
<path d="M51.701 107.444C55.5909 108.186 57.7355 111.161 57.0476 114.768C56.3506 118.422 53.2661 120.375 49.3762 119.633C45.4628 118.886 43.3136 115.935 44.0106 112.281C44.6986 108.674 47.7875 106.698 51.701 107.444ZM51.2693 109.708C48.4167 109.164 46.9817 110.282 46.5095 112.758C46.0329 115.257 46.9508 116.849 49.8034 117.393C52.6324 117.933 54.072 116.79 54.5486 114.291C55.0208 111.816 54.0983 110.247 51.2693 109.708Z" fill="#2B2D31"/>
<path d="M33.3046 100.055L35.6654 101.438C37.8812 102.736 38.6778 104.51 37.21 107.016L34.3107 111.965L36.0503 112.984L34.9585 114.848L33.219 113.829L31.8967 116.086L29.6809 114.788L31.0032 112.531L27.2756 110.348L28.3674 108.484L32.0949 110.667L34.9214 105.842C35.6614 104.579 35.2756 103.908 33.9917 103.156L32.1279 102.064L33.3046 100.055Z" fill="#2B2D31"/>
<path d="M28.5626 95.6561C31.4429 98.3737 31.6512 102.035 29.1313 104.706C26.5784 107.411 22.9279 107.399 20.0475 104.681C17.1497 101.947 16.9249 98.3034 19.4778 95.5977C21.9977 92.9268 25.6648 92.922 28.5626 95.6561ZM26.9815 97.3319C24.8692 95.339 23.0576 95.5105 21.3282 97.3435C19.5824 99.1939 19.4999 101.03 21.6122 103.023C23.707 104.999 25.5351 104.81 27.2809 102.96C29.0103 101.127 29.0762 99.3083 26.9815 97.3319Z" fill="#2B2D31"/>
<path d="M25.6602 86.9174L26.9786 89.1491L13.1959 97.2911L11.9874 95.2454L14.839 93.5608L14.7291 93.3749C12.5839 94.0846 10.5722 93.3217 9.14403 90.9041C7.26416 87.7219 8.37185 84.6424 11.5541 82.7625C14.7363 80.8827 17.9229 81.3696 19.815 84.5724C21.1822 86.8868 20.8419 89.0948 19.2056 90.6189L19.2545 90.7015L25.6602 86.9174ZM17.1881 91.9222C19.2958 90.6771 19.5355 88.7236 18.2416 86.5333C16.9354 84.3223 15.3314 83.5416 12.8724 84.9942C10.3928 86.4591 10.3353 88.2491 11.6048 90.3982C12.9597 92.6918 14.7911 93.3382 17.0021 92.0321L17.1881 91.9222Z" fill="#2B2D31"/>
<path d="M1.96008 65.1736C1.87421 63.7842 2.95294 62.5633 4.34229 62.4775C5.75559 62.3901 6.97647 63.4688 7.06235 64.8582C7.1497 66.2715 6.07097 67.4924 4.65766 67.5797C3.26832 67.6656 2.04744 66.5869 1.96008 65.1736Z" fill="#2B2D31"/>
<path d="M15.6727 46.677L14.7146 48.8512L0 42.3669L1.04523 39.995L7.80957 42.9759L7.86763 42.8441C6.21638 41.5919 5.51544 39.552 6.66714 36.9385C8.14789 33.5783 11.2449 32.74 14.649 34.2401C18.0092 35.7209 19.4926 38.6039 17.9635 42.0739C16.8699 44.5556 14.9774 45.6362 12.5999 45.1393L12.5322 45.293L15.6727 46.677ZM10.4231 44.1276C12.7071 45.1341 14.4246 44.2124 15.4602 41.8625C16.5151 39.4686 16.2173 37.7637 13.6038 36.612C10.9683 35.4507 9.47754 36.3936 8.45166 38.7215C7.36771 41.1813 7.91938 43.0243 10.2474 44.0501L10.4231 44.1276Z" fill="#2B2D31"/>
<path d="M22.823 33.7251C21.2547 35.636 19.3746 36.111 17.8533 34.8625C16.4248 33.6902 16.6267 31.9309 17.9147 29.9453L20.9105 25.3871L20.3724 24.9456C18.8512 23.6971 17.765 23.9234 16.3186 25.6859C14.9178 27.3927 14.7893 28.6843 16.1436 29.7957L16.2178 29.8566L14.5886 31.8417L14.5144 31.7808C12.418 30.0603 12.2723 27.0223 14.678 24.091C17.0836 21.1598 19.7601 21.152 21.9678 22.9638L27.5705 27.562L26.0632 29.3986L23.7627 27.5106L23.6562 27.6405C24.8187 29.4018 24.5435 31.6287 22.823 33.7251ZM19.3678 32.7523C20.1099 33.3614 20.8735 33.1497 21.8174 31.9995C23.5379 29.9031 23.9159 27.8537 22.0978 26.3616L19.5369 30.3142C18.8142 31.4597 18.6443 32.1585 19.3678 32.7523Z" fill="#2B2D31"/>
<path d="M32.9774 23.7112C29.7776 26.0033 26.2225 25.45 24.0842 22.4648C21.9179 19.4407 22.5521 15.9161 25.7519 13.6241C28.6591 11.5417 31.9597 11.6572 33.6927 14.0766L33.8325 14.2717L31.7448 15.7671L31.6609 15.65C30.5848 14.1477 28.9611 14.1889 27.0686 15.5446C24.8833 17.1099 24.6485 18.8427 26.1719 20.9694C27.6673 23.0571 29.3975 23.4119 31.5827 21.8466C33.4753 20.491 34.0368 18.9669 32.9607 17.4646L32.8629 17.328L34.9505 15.8326L35.1043 16.0472C36.8373 18.4666 35.8845 21.6288 32.9774 23.7112Z" fill="#2B2D31"/>
<path d="M41.1053 18.5653L38.6751 19.4668L33.0827 4.39065L35.5129 3.48918L38.6012 11.8148L41.7965 10.6296L43.5049 4.95301L46.3401 3.9013L44.1272 10.8401L50.466 15.093L47.6083 16.1531L42.6061 12.8122L39.4109 13.9975L41.1053 18.5653Z" fill="#2B2D31"/>
<path d="M63.1949 14.422L60.4599 14.4959C57.8928 14.5653 56.2789 13.4805 56.2005 10.5775L56.0455 4.84363L54.0302 4.89809L53.9719 2.73888L55.9872 2.68442L55.9165 0.069374L58.4835 0L58.5542 2.61505L62.8726 2.49834L62.931 4.65755L58.6126 4.77426L58.7636 10.3642C58.8032 11.8277 59.4853 12.1934 60.9728 12.1532L63.132 12.0948L63.1949 14.422Z" fill="#2B2D31"/>
<path d="M69.4756 15.6069C65.5945 14.8204 63.484 11.8215 64.2133 8.22268C64.9521 4.57679 68.0588 2.65959 71.9399 3.44607C75.8445 4.23731 77.9597 7.21267 77.2209 10.8586C76.4917 14.4574 73.3802 16.3981 69.4756 15.6069ZM69.9332 13.3488C72.7793 13.9255 74.2271 12.8231 74.7276 10.3533C75.2329 7.85999 74.3332 6.2574 71.4871 5.68065C68.6644 5.10867 67.2119 6.23461 66.7066 8.72793C66.2062 11.1977 67.1106 12.7768 69.9332 13.3488Z" fill="#2B2D31"/>
<path d="M88.0941 23.2431L85.7487 21.8342C83.5474 20.5118 82.7704 18.7292 84.2658 16.2398L87.2195 11.3228L85.4913 10.2847L86.6036 8.43306L88.3318 9.47119L89.6789 7.22869L91.8802 8.55107L90.5331 10.7936L94.2364 13.0181L93.1241 14.8697L89.4209 12.6452L86.5413 17.4388C85.7874 18.6937 86.1657 19.369 87.4413 20.1352L89.2929 21.2475L88.0941 23.2431Z" fill="#2B2D31"/>
<path d="M92.7939 27.6828C89.9434 24.934 89.775 21.2708 92.3239 18.6276C94.9061 15.9498 98.5563 16.0023 101.407 18.7511C104.275 21.5166 104.46 25.1625 101.878 27.8403C99.3286 30.4835 95.6617 30.4483 92.7939 27.6828ZM94.3932 26.0243C96.4836 28.0401 98.297 27.8884 100.046 26.0744C101.812 24.2431 101.915 22.4081 99.8242 20.3923C97.7511 18.3932 95.921 18.5622 94.1551 20.3935C92.4059 22.2075 92.3201 24.0252 94.3932 26.0243Z" fill="#2B2D31"/>
<path d="M95.6294 36.4709L94.3358 34.2248L108.208 26.2356L109.393 28.2945L106.523 29.9474L106.631 30.1346C108.784 29.4486 110.787 30.2337 112.189 32.6669C114.033 35.8697 112.892 38.9368 109.689 40.7814C106.486 42.626 103.305 42.1039 101.448 38.8803C100.107 36.551 100.471 34.3469 102.124 32.841L102.077 32.7578L95.6294 36.4709ZM104.156 31.56C102.035 32.7817 101.774 34.7325 103.043 36.937C104.325 39.1623 105.92 39.9606 108.395 38.5353C110.891 37.0979 110.968 35.3086 109.722 33.1456C108.393 30.8371 106.569 30.1706 104.343 31.4522L104.156 31.56Z" fill="#2B2D31"/>
<path d="M119.1 58.5177C119.17 59.9079 118.077 61.1162 116.687 61.186C115.273 61.257 114.065 60.1642 113.995 58.774C113.924 57.3598 115.017 56.1515 116.431 56.0804C117.821 56.0106 119.029 57.1034 119.1 58.5177Z" fill="#2B2D31"/>
<mask id="mask0_12536_974" style="mask-type:alpha" maskUnits="userSpaceOnUse" x="40" y="41" width="41" height="41">
<rect x="40.9053" y="41.3809" width="40" height="40" fill="#D9D9D9"/>
</mask>
<g mask="url(#mask0_12536_974)">
<path d="M59.8582 73.8809V52.8742L49.8799 62.8529L48.4053 61.3809L60.9053 48.8809L73.4053 61.3809L71.9307 62.8529L61.9524 52.8742V73.8809H59.8582Z" fill="#2B2D31"/>
</g>
</svg>
