<svg width="40" height="40" viewBox="0 0 40 40" fill="none" xmlns="http://www.w3.org/2000/svg">
<mask id="mask0_12518_1931" style="mask-type:alpha" maskUnits="userSpaceOnUse" x="0" y="0" width="40" height="40">
<rect width="40" height="40" fill="#D9D9D9"/>
</mask>
<g mask="url(#mask0_12518_1931)">
<path d="M20.0481 34.1669C16.1131 34.1669 12.7682 32.7895 10.0135 30.0348C7.25906 27.2804 5.88184 23.9355 5.88184 20.0002C5.88184 16.2289 7.16114 12.9944 9.71975 10.2969C12.2784 7.59913 15.4113 6.13802 19.1185 5.91357C19.2754 5.91357 19.4382 5.91927 19.6068 5.93066C19.7757 5.94233 19.9804 5.95552 20.221 5.97024C19.4349 6.80719 18.8207 7.79149 18.3785 8.92316C17.936 10.0551 17.7148 11.2475 17.7148 12.5002C17.7148 15.2316 18.6709 17.5534 20.5831 19.4657C22.495 21.3776 24.8167 22.3336 27.5481 22.3336C28.7995 22.3336 29.9914 22.1227 31.1239 21.7011C32.2564 21.2794 33.2354 20.6961 34.061 19.9511C34.0766 20.1619 34.09 20.3415 34.1014 20.4898C34.1128 20.6379 34.1185 20.7845 34.1185 20.9298C33.9049 24.637 32.4493 27.77 29.7518 30.3286C27.0541 32.8875 23.8195 34.1669 20.0481 34.1669ZM20.0481 32.0727C22.7748 32.0727 25.1854 31.2695 27.2802 29.6632C29.3749 28.0568 30.7841 26.0854 31.5077 23.749C30.8879 23.9707 30.2414 24.1391 29.5681 24.2544C28.8948 24.37 28.2214 24.4277 27.5481 24.4277C24.2439 24.4277 21.43 23.2658 19.1064 20.9419C16.7828 18.6183 15.621 15.8044 15.621 12.5002C15.621 11.885 15.6759 11.2497 15.7856 10.5944C15.895 9.93913 16.0756 9.23399 16.3273 8.47899C13.8898 9.29649 11.8885 10.7637 10.3235 12.8807C8.75822 14.9976 7.97559 17.3708 7.97559 20.0002C7.97559 23.3477 9.15086 26.1968 11.5014 28.5473C13.8517 30.8976 16.7006 32.0727 20.0481 32.0727Z" fill="#2B2D31"/>
</g>
</svg>
