<svg width="40" height="40" viewBox="0 0 40 40" fill="none" xmlns="http://www.w3.org/2000/svg">
<mask id="mask0_12518_1932" style="mask-type:alpha" maskUnits="userSpaceOnUse" x="0" y="0" width="40" height="40">
<rect width="40" height="40" fill="#D9D9D9"/>
</mask>
<g mask="url(#mask0_12518_1932)">
<path d="M20.0002 25.406C21.4943 25.406 22.7689 24.8786 23.8239 23.8239C24.8786 22.7689 25.406 21.4943 25.406 20.0002C25.406 18.506 24.8786 17.2314 23.8239 16.1764C22.7689 15.1217 21.4943 14.5943 20.0002 14.5943C18.506 14.5943 17.2314 15.1217 16.1764 16.1764C15.1217 17.2314 14.5943 18.506 14.5943 20.0002C14.5943 21.4943 15.1217 22.7689 16.1764 23.8239C17.2314 24.8786 18.506 25.406 20.0002 25.406ZM20.0002 27.5002C17.9191 27.5002 16.1488 26.7704 14.6893 25.311C13.2299 23.8516 12.5002 22.0813 12.5002 20.0002C12.5002 17.9191 13.2299 16.1488 14.6893 14.6893C16.1488 13.2299 17.9191 12.5002 20.0002 12.5002C22.0813 12.5002 23.8516 13.2299 25.311 14.6893C26.7704 16.1488 27.5002 17.9191 27.5002 20.0002C27.5002 22.0813 26.7704 23.8516 25.311 25.311C23.8516 26.7704 22.0813 27.5002 20.0002 27.5002ZM8.3335 21.0472H2.0835V18.9531H8.3335V21.0472ZM37.9168 21.0472H31.6668V18.9531H37.9168V21.0472ZM18.9531 8.3335V2.0835H21.0472V8.3335H18.9531ZM18.9531 37.9168V31.6668H21.0472V37.9168H18.9531ZM11.0793 12.4702L7.19266 8.701L8.67641 7.151L12.436 11.0131L11.0793 12.4702ZM31.341 32.8322L27.5385 28.9618L28.9489 27.5131L32.8077 31.2993L31.341 32.8322ZM27.5131 11.0514L31.2993 7.19266L32.8493 8.65933L29.0043 12.4531L27.5131 11.0514ZM7.16808 31.3239L11.0214 27.5214L12.4552 28.9381L8.68516 32.8239L7.16808 31.3239Z" fill="#2B2D31"/>
</g>
</svg>
