<svg width="40" height="40" viewBox="0 0 40 40" fill="none" xmlns="http://www.w3.org/2000/svg">
<mask id="mask0_12546_142" style="mask-type:alpha" maskUnits="userSpaceOnUse" x="0" y="0" width="40" height="40">
<rect width="40" height="40" transform="matrix(-1 0 0 1 40 0)" fill="#D9D9D9"/>
</mask>
<g mask="url(#mask0_12546_142)">
<path d="M21.6665 30.5556C18.2776 30.5556 15.3933 29.3681 13.0136 26.9931C10.6341 24.6181 9.44442 21.7316 9.44442 18.3335C9.44442 14.9446 10.6341 12.0603 13.0136 9.68058C15.3933 7.30114 18.2776 6.11141 21.6665 6.11141C25.0646 6.11141 27.9511 7.30114 30.3261 9.68058C32.7011 12.0603 33.8886 14.9446 33.8886 18.3335C33.8886 21.7316 32.7011 24.6181 30.3261 26.9931C27.9511 29.3681 25.0646 30.5556 21.6665 30.5556ZM21.6665 25.0002C23.9721 25.0002 26.0207 24.3821 27.8123 23.146C29.604 21.9099 30.8887 20.3057 31.6665 18.3335C30.8887 16.3891 29.604 14.7918 27.8123 13.5418C26.0207 12.2918 23.9721 11.6668 21.6665 11.6668C19.3887 11.6668 17.354 12.2918 15.5623 13.5418C13.7707 14.7918 12.4721 16.3891 11.6665 18.3335C12.4721 20.3057 13.7707 21.9099 15.5623 23.146C17.354 24.3821 19.3887 25.0002 21.6665 25.0002ZM21.6665 22.5002C20.1387 22.5002 18.7359 22.1321 17.4582 21.396C16.1804 20.6599 15.1804 19.6391 14.4582 18.3335C15.1804 17.0557 16.1804 16.0418 17.4582 15.2918C18.7359 14.5418 20.1387 14.1668 21.6665 14.1668C23.2221 14.1668 24.6387 14.5418 25.9165 15.2918C27.1943 16.0418 28.1943 17.0557 28.9165 18.3335C28.1943 19.6391 27.1943 20.6599 25.9165 21.396C24.6387 22.1321 23.2221 22.5002 21.6665 22.5002ZM21.6665 20.5556C21.0646 20.5556 20.5437 20.3427 20.104 19.9168C19.6643 19.491 19.4444 18.9632 19.4444 18.3335C19.4444 17.7316 19.6643 17.2107 20.104 16.771C20.5437 16.3313 21.0646 16.1114 21.6665 16.1114C22.2962 16.1114 22.824 16.3313 23.2498 16.771C23.6757 17.2107 23.8886 17.7316 23.8886 18.3335C23.8886 18.9632 23.6757 19.491 23.2498 19.9168C22.824 20.3427 22.2962 20.5556 21.6665 20.5556ZM21.6665 33.3335C23.7498 33.3335 25.7012 32.9377 27.5207 32.146C29.3401 31.3543 30.9234 30.2849 32.2707 28.9377C33.6179 27.5904 34.6873 26.0071 35.479 24.1877C36.2707 22.3682 36.6665 20.4168 36.6665 18.3335C36.6665 16.2779 36.2707 14.3404 35.479 12.521C34.6873 10.7016 33.6179 9.11127 32.2707 7.75016C30.9234 6.38905 29.3401 5.31266 27.5207 4.521C25.7012 3.72933 23.7498 3.3335 21.6665 3.3335C19.6109 3.3335 17.6734 3.72933 15.854 4.521C14.0346 5.31266 12.4443 6.38905 11.0832 7.75016C9.72206 9.11127 8.64567 10.7016 7.854 12.521C7.06233 14.3404 6.6665 16.2779 6.6665 18.3335C6.6665 20.1668 6.97206 21.8936 7.58317 23.5139C8.19428 25.1345 9.0415 26.6067 10.1248 27.9306L3.36108 34.7222L5.31942 36.6668L12.1111 29.8889C13.435 30.9722 14.9072 31.8172 16.5278 32.4239C18.148 33.0303 19.8609 33.3335 21.6665 33.3335Z" fill="#2B2D31"/>
</g>
</svg>
