<svg width="121" height="126" viewBox="0 0 121 126" fill="none" xmlns="http://www.w3.org/2000/svg">
<path d="M108.879 103.708L94.2883 95.9891C86.9534 105.707 77.0732 112.23 64.6475 115.56C57.6001 117.448 50.95 118.037 44.6972 117.327C38.4196 116.525 33.1114 114.518 28.7726 111.308C24.5266 108.072 21.7203 103.905 20.3538 98.8047C18.7387 92.7773 18.9916 87.0445 21.1123 81.6063C23.301 76.0506 27.5918 70.18 33.9847 63.9946C29.492 61.3224 26.0226 58.5747 23.5766 55.7516C21.1057 52.8357 19.3982 49.6159 18.454 46.0922C17.1869 41.3631 17.3206 36.8548 18.8553 32.5675C20.3899 28.2803 23.1682 24.5542 27.1902 21.3894C31.28 18.1071 36.3386 15.6584 42.366 14.0433C50.8043 11.7823 58.1201 12.0085 64.3135 14.722C70.4819 17.3428 74.4855 22.0842 76.3242 28.9461C77.6659 33.9535 77.3285 38.8144 75.312 43.529C73.3882 48.2187 69.5726 53.2662 63.8652 58.6716L86.1042 70.4532C87.0444 65.4307 87.313 59.9422 86.9101 53.9875L105.75 54.7534C106.206 63.8742 105.214 72.0412 102.774 79.2545L117.012 86.7695L108.879 103.708ZM46.3166 28.7872C43.0711 29.6569 40.6983 31.1871 39.1982 33.378C37.7909 35.5441 37.435 37.9253 38.1307 40.5217C38.6525 42.469 39.6595 44.1869 41.1516 45.6755C42.6188 47.0713 45.2212 48.8089 48.9588 50.8884C53.0171 47.1176 55.7127 44.01 57.0455 41.5658C58.3534 39.0288 58.6968 36.6012 58.0757 34.283C57.4296 31.8721 56.0733 30.1484 54.0066 29.112C51.94 28.0755 49.3766 27.9673 46.3166 28.7872ZM61.6306 98.1802C68.3998 96.3664 73.9642 92.838 78.3238 87.595L48.9283 71.9169C45.2409 75.5883 42.7929 78.878 41.5844 81.7859C40.3758 84.6938 40.1815 87.6777 41.0014 90.7378C41.9705 94.3542 44.3295 96.8528 48.0786 98.2335C51.8277 99.6142 56.345 99.5964 61.6306 98.1802Z" fill="#111111"/>
</svg>
