<svg width="119" height="119" viewBox="0 0 119 119" fill="none" xmlns="http://www.w3.org/2000/svg">
<path fill-rule="evenodd" clip-rule="evenodd" d="M46.7521 44.4714H65.1674V53.6443C67.8201 48.3686 74.6229 43.6285 84.8421 43.6285C104.432 43.6285 109.083 54.1302 109.083 73.3983V109.083H89.25V77.7864C89.25 66.8136 86.5973 60.6256 79.8441 60.6256C70.4778 60.6256 66.5855 67.2946 66.5855 77.7815V109.083H46.7521V44.4714V44.4714ZM12.7429 108.24H32.5763V43.6285H12.7429V108.24V108.24ZM35.4174 22.5605C35.4181 24.2229 35.0884 25.8689 34.4475 27.4027C33.8065 28.9366 32.8671 30.3278 31.6838 31.4954C29.2859 33.8785 26.0402 35.2124 22.6596 35.2042C19.2849 35.202 16.0467 33.8714 13.6454 31.5004C12.4663 30.3288 11.5301 28.936 10.8902 27.402C10.2504 25.8679 9.91956 24.2227 9.91669 22.5605C9.91669 19.2037 11.2554 15.9907 13.6503 13.6206C16.0496 11.2464 19.2891 9.91526 22.6646 9.91675C26.0461 9.91675 29.2889 11.2505 31.6838 13.6206C34.0737 15.9907 35.4174 19.2037 35.4174 22.5605Z" fill="#FFA7BE"/>
</svg>
