<svg width="120" height="120" viewBox="0 0 120 120" fill="none" xmlns="http://www.w3.org/2000/svg">
<path d="M118.215 24.6849C114.04 26.5349 109.555 27.7849 104.84 28.3499C109.705 25.4389 113.345 20.8572 115.08 15.4599C110.509 18.1748 105.507 20.0859 100.29 21.1099C96.7819 17.3642 92.1353 14.8815 87.0716 14.0473C82.008 13.213 76.8105 14.0739 72.2862 16.4962C67.7619 18.9185 64.1639 22.7667 62.0508 27.4434C59.9377 32.1201 59.4277 37.3636 60.6 42.3599C51.3384 41.8949 42.2781 39.4876 34.0071 35.2944C25.7361 31.1012 18.4392 25.2157 12.59 18.0199C10.59 21.4699 9.44 25.4699 9.44 29.7299C9.43777 33.5649 10.3822 37.3411 12.1894 40.7236C13.9966 44.106 16.6108 46.9901 19.8 49.1199C16.1014 49.0022 12.4844 48.0028 9.25 46.2049V46.5049C9.24963 51.8836 11.1102 57.0968 14.5159 61.2599C17.9217 65.423 22.6629 68.2795 27.935 69.3449C24.5039 70.2735 20.9067 70.4103 17.415 69.7449C18.9025 74.373 21.8 78.42 25.7018 81.3195C29.6037 84.219 34.3146 85.8258 39.175 85.9149C30.9242 92.392 20.7344 95.9053 10.245 95.8899C8.38691 95.8904 6.53038 95.7819 4.685 95.5649C15.3324 102.411 27.7267 106.044 40.385 106.03C83.235 106.03 106.66 70.5399 106.66 39.7599C106.66 38.7599 106.635 37.7499 106.59 36.7499C111.146 33.4548 115.08 29.3744 118.205 24.6999L118.215 24.6849V24.6849Z" fill="#FFA7BE"/>
</svg>
