<svg width="80" height="80" viewBox="0 0 80 80" fill="none" xmlns="http://www.w3.org/2000/svg">
<path fill-rule="evenodd" clip-rule="evenodd" d="M29.716 27.876H44.572V35.276C46.712 31.02 52.2 27.196 60.444 27.196C76.248 27.196 80 35.668 80 51.212V80H64V54.752C64 45.9 61.86 40.908 56.412 40.908C48.856 40.908 45.716 46.288 45.716 54.748V80H29.716V27.876V27.876ZM2.28 79.32H18.28V27.196H2.28V79.32V79.32ZM20.572 10.2C20.5726 11.5411 20.3066 12.8689 19.7895 14.1063C19.2725 15.3438 18.5146 16.4661 17.56 17.408C15.6256 19.3305 13.0072 20.4066 10.28 20.4C7.55756 20.3982 4.94524 19.3248 3.008 17.412C2.05685 16.4669 1.30154 15.3433 0.785375 14.1057C0.269206 12.8682 0.00231653 11.5409 0 10.2C0 7.492 1.08 4.9 3.012 2.988C4.94754 1.07263 7.56096 -0.00119684 10.284 1.00106e-06C13.012 1.00106e-06 15.628 1.076 17.56 2.988C19.488 4.9 20.572 7.492 20.572 10.2Z" fill="#111111"/>
</svg>
