<svg width="150" height="150" viewBox="0 0 150 150" fill="none" xmlns="http://www.w3.org/2000/svg">
<path d="M42.9872 37.9699C44.5871 36.3866 46.7474 35.499 48.9983 35.5H48.9985C51.2539 35.5 53.4164 36.3896 55.0132 37.9698C56.6058 39.5493 57.5005 41.6896 57.5005 43.925V43.9252C57.501 45.0324 57.2814 46.1287 56.8545 47.1503C56.4276 48.1719 55.8019 49.0984 55.0138 49.8761L55.0125 49.8774C53.4139 51.4661 51.2501 52.3555 48.9962 52.35H48.9953C46.7449 52.3485 44.5854 51.4613 42.9839 49.8803C42.1985 49.0997 41.5749 48.172 41.1487 47.15C40.7224 46.128 40.502 45.0319 40.5 43.9246C40.5001 41.6888 41.3916 39.5489 42.9872 37.9699ZM42.9872 37.9699L42.6355 37.6145M42.9872 37.9699L42.6355 37.6145M42.6355 37.6145C40.945 39.2875 40 41.5555 40 43.925H58.0005C58.0005 41.5555 57.052 39.2875 55.365 37.6145C53.6745 35.9415 51.3855 35 48.9985 35C46.6158 34.999 44.3291 35.9386 42.6355 37.6145ZM109.5 79.8105V104.5H96.5V82.908C96.5 79.013 96.0323 75.8862 94.9121 73.7173C94.3476 72.6242 93.6108 71.7615 92.6747 71.1744C91.7373 70.5866 90.6312 70.2945 89.3605 70.2945C85.9209 70.2945 83.4179 71.5283 81.7959 73.7814C80.1948 76.0056 79.5015 79.1554 79.5015 82.9045V104.5H66.5015V59.8915H78.5005V65.8665L79.4472 66.0911C81.2199 62.5656 85.8283 59.2965 92.8885 59.2965C99.716 59.2965 103.805 61.1227 106.224 64.4946C108.674 67.9102 109.5 73.0218 109.5 79.8105ZM55.495 59.2965V103.905H42.495V59.2965H55.495Z" fill="#E74A3C" stroke="#E74A3C"/>
<circle cx="75" cy="75" r="73.5" stroke="#E74A3C" stroke-width="3"/>
</svg>
