<svg xmlns="http://www.w3.org/2000/svg" viewBox="0 0 21.96 21.95"><defs><style>.cls-1{fill:#0b24f5;}</style></defs><title>scroll-blue</title><g id="Layer_2" data-name="Layer 2"><g id="Layer_1-2" data-name="Layer 1"><path class="cls-1" d="M11.62,22H10.34a.53.53,0,0,0-.17,0,10.27,10.27,0,0,1-4.34-1.25A10.85,10.85,0,0,1,.17,12.88C.09,12.46.06,12,0,11.61V10.33c0-.29.06-.57.1-.85A10.64,10.64,0,0,1,3.15,3.29,10.72,10.72,0,0,1,12.08.05a10.5,10.5,0,0,1,6.16,2.69A10.81,10.81,0,0,1,22,10.51a10.38,10.38,0,0,1-1.29,5.62,10.77,10.77,0,0,1-7.79,5.64C12.46,21.85,12,21.89,11.62,22ZM11,7.5H4.63A.3.3,0,0,0,4.37,8l.08.12,6.2,9.71c.23.35.44.35.66,0q3.11-4.86,6.2-9.71c.09-.13.18-.27.09-.43s-.25-.17-.41-.17Z"/></g></g></svg>