<svg xmlns="http://www.w3.org/2000/svg" viewBox="0 0 21.96 21.96"><defs><style>.cls-1{fill:#fff;}</style></defs><title>Asset 2</title><g id="Layer_2" data-name="Layer 2"><g id="Layer_1-2" data-name="Layer 1"><path class="cls-1" d="M11.62,22H10.33l-.16,0a10.48,10.48,0,0,1-4.83-1.53A10.8,10.8,0,0,1,.17,12.87C.09,12.46.06,12,0,11.62V10.34c0-.06,0-.13,0-.19a9.64,9.64,0,0,1,.77-3.3A10.77,10.77,0,0,1,10.5,0a10,10,0,0,1,6.09,1.53,10.75,10.75,0,0,1,5.35,9,10.34,10.34,0,0,1-1.28,5.63,10.82,10.82,0,0,1-7.79,5.64C12.46,21.86,12,21.9,11.62,22Zm-.4-7.51h6.17a1.2,1.2,0,0,0,.19,0,.29.29,0,0,0,.26-.44,1.18,1.18,0,0,0-.11-.19Q14.66,9,11.56,4.17c-.24-.38-.44-.38-.68,0l-4,6.32L4.66,13.91c-.1.16-.16.32,0,.45a.54.54,0,0,0,.34.09Z"/></g></g></svg>