<svg version="1.1" id="Layer_1" xmlns="http://www.w3.org/2000/svg" xmlns:xlink="http://www.w3.org/1999/xlink" x="0px" y="0px"
	 width="100%" viewBox="0 0 512 512" enable-background="new 0 0 512 512" xml:space="preserve">
<path fill="#0B23F5" opacity="1.000000" stroke="none" 
	d="
M238.000000,0.999998 
	C250.354233,1.000000 262.708466,1.000000 275.722168,1.373059 
	C304.792572,3.996255 332.376831,10.076847 358.273682,21.994942 
	C443.847443,61.377197 494.733185,127.568954 510.337616,220.638824 
	C511.251282,226.088150 512.113708,231.546082 513.000000,237.000000 
	C513.000000,250.354233 513.000000,263.708466 512.623413,277.697571 
	C510.303558,297.233154 507.417175,316.014160 501.092926,333.963287 
	C466.172943,433.071564 397.086121,492.112213 293.389557,510.279022 
	C287.611481,511.291321 281.797363,512.097717 276.000000,513.000000 
	C263.312439,513.000000 250.624878,513.000000 237.283478,512.628967 
	C226.096268,510.754974 215.436401,509.850861 205.049088,507.656525 
	C99.058281,485.266174 19.293726,400.420074 3.727844,293.845001 
	C2.953545,288.543610 1.915330,283.280792 1.000001,278.000000 
	C1.000000,264.312439 1.000000,250.624878 1.375685,236.300995 
	C3.669768,216.929672 6.514512,198.307465 12.754284,180.510468 
	C47.586559,81.162376 116.724319,21.961735 220.611572,3.723759 
	C226.389053,2.709490 232.203018,1.903129 238.000000,0.999998 
M394.948883,212.449310 
	C400.039307,204.446899 405.369324,196.581436 410.070221,188.356400 
	C411.432709,185.972504 412.207306,181.867493 411.037781,179.809311 
	C409.857086,177.731369 405.938660,177.190933 403.193573,176.038956 
	C402.768616,175.860626 402.204376,176.014252 401.704529,176.014267 
	C305.236053,176.014343 208.767593,176.014282 112.299133,176.016144 
	C110.966492,176.016159 109.620186,175.922180 108.303612,176.074265 
	C102.937042,176.694138 100.314445,181.370789 102.604561,186.288284 
	C103.302422,187.786789 104.266556,189.166641 105.161179,190.567337 
	C135.973053,238.808807 166.793411,287.044861 197.607727,335.284760 
	C215.075043,362.629883 232.516907,389.991272 250.008835,417.320618 
	C254.359467,424.118073 259.598145,424.147705 263.970337,417.523438 
	C264.428375,416.829468 264.849823,416.111420 265.297516,415.410522 
	C308.382874,347.958954 351.469116,280.507965 394.948883,212.449310 
z"/>
<path fill="#FEFEFF" opacity="1.000000" stroke="none" 
	d="
M237.531342,0.999998 
	C232.203018,1.903129 226.389053,2.709490 220.611572,3.723759 
	C116.724319,21.961735 47.586559,81.162376 12.754284,180.510468 
	C6.514512,198.307465 3.669768,216.929672 1.375685,235.832336 
	C1.000000,157.739319 1.000000,79.478622 1.000000,1.000000 
	C79.687424,1.000000 158.375061,1.000000 237.531342,0.999998 
z"/>
<path fill="#FEFEFF" opacity="1.000000" stroke="none" 
	d="
M513.000000,236.531342 
	C512.113708,231.546082 511.251282,226.088150 510.337616,220.638824 
	C494.733185,127.568954 443.847443,61.377197 358.273682,21.994942 
	C332.376831,10.076847 304.792572,3.996255 276.190826,1.373059 
	C354.926910,1.000000 433.853790,1.000000 513.000000,1.000000 
	C513.000000,79.354088 513.000000,157.708389 513.000000,236.531342 
z"/>
<path fill="#FEFEFF" opacity="1.000000" stroke="none" 
	d="
M1.000001,278.468658 
	C1.915330,283.280792 2.953545,288.543610 3.727844,293.845001 
	C19.293726,400.420074 99.058281,485.266174 205.049088,507.656525 
	C215.436401,509.850861 226.096268,510.754974 236.814819,512.628967 
	C158.406448,513.000000 79.812904,513.000000 1.000000,513.000000 
	C1.000000,434.979248 1.000000,356.958282 1.000001,278.468658 
z"/>
<path fill="#FEFEFF" opacity="1.000000" stroke="none" 
	d="
M276.468658,513.000000 
	C281.797363,512.097717 287.611481,511.291321 293.389557,510.279022 
	C397.086121,492.112213 466.172943,433.071564 501.092926,333.963287 
	C507.417175,316.014160 510.303558,297.233154 512.623413,278.166260 
	C513.000000,356.260681 513.000000,434.521362 513.000000,513.000000 
	C434.312561,513.000000 355.624939,513.000000 276.468658,513.000000 
z"/>
<path fill="#FFFFFF" opacity="1.000000" stroke="none" 
	d="
M394.752075,212.753143 
	C351.469116,280.507965 308.382874,347.958954 265.297516,415.410522 
	C264.849823,416.111420 264.428375,416.829468 263.970337,417.523438 
	C259.598145,424.147705 254.359467,424.118073 250.008835,417.320618 
	C232.516907,389.991272 215.075043,362.629883 197.607727,335.284760 
	C166.793411,287.044861 135.973053,238.808807 105.161179,190.567337 
	C104.266556,189.166641 103.302422,187.786789 102.604561,186.288284 
	C100.314445,181.370789 102.937042,176.694138 108.303612,176.074265 
	C109.620186,175.922180 110.966492,176.016159 112.299133,176.016144 
	C208.767593,176.014282 305.236053,176.014343 401.704529,176.014267 
	C402.204376,176.014252 402.768616,175.860626 403.193573,176.038956 
	C405.938660,177.190933 409.857086,177.731369 411.037781,179.809311 
	C412.207306,181.867493 411.432709,185.972504 410.070221,188.356400 
	C405.369324,196.581436 400.039307,204.446899 394.752075,212.753143 
z"/>
</svg>