<svg width="150" height="150" viewBox="0 0 150 150" fill="none" xmlns="http://www.w3.org/2000/svg">
<path d="M101.557 103.86V82.45H110.01V111H34V82.45H42.4535V103.86H101.557V103.86Z" fill="black"/>
<path d="M50.9128 96.725H93.1624V89.585H50.9128V96.725ZM88.7817 31L81.9976 35.26L107.216 63.895L114 59.635L88.7817 31ZM67.8257 47.885L100.29 70.72L105.695 65.235L73.2304 42.4L67.8198 47.885H67.8257ZM57.2174 63.75L95.5184 78.815L99.0881 72.345L60.787 57.28L57.2174 63.75V63.75ZM51.7416 80.47L93.0913 87.815L94.8317 80.825L53.482 73.485L51.7416 80.47V80.47Z" fill="black"/>
</svg>
