<svg width="80" height="80" viewBox="0 0 80 80" fill="none" xmlns="http://www.w3.org/2000/svg">
<path d="M15.765 48.4943L58.4362 55.6531L60.2421 48.7652L17.5709 41.6025L15.765 48.4943V48.4943ZM21.4059 32.1791L60.9218 46.9519L64.5335 40.6056L25.0177 25.7425L21.4059 32.1791V32.1791ZM32.3577 16.586L65.8879 38.9768L71.4221 33.6274L37.8919 11.2405L32.3577 16.586V16.586ZM54.0332 0L47.0378 4.1681L73.0095 32.2694L80 28.0974L54.0332 0ZM14.8572 64.4446H58.4362V57.4663H14.8572V64.4446V64.4446Z" fill="#111111"/>
<path d="M69.1071 73.0789V52.2222H77.7143V80H0V52.2222H8.60714V73.0789H69.1071Z" fill="#111111"/>
</svg>
