<svg width="41" height="40" viewBox="0 0 41 40" fill="none" xmlns="http://www.w3.org/2000/svg">
<path d="M13.4323 19.5985L24.8113 21.5075L25.2928 19.6707L13.9138 17.7606L13.4323 19.5985V19.5985ZM14.9365 15.2477L25.4741 19.1871L26.4372 17.4948L15.8997 13.5313L14.9365 15.2477V15.2477ZM17.857 11.0896L26.7984 17.0604L28.2742 15.6339L19.3328 9.6641L17.857 11.0896V11.0896ZM23.6371 6.66663L21.7717 7.77812L28.6975 15.2718L30.5616 14.1593L23.6371 6.66663ZM13.1902 23.8518H24.8113V21.991H13.1902V23.8518V23.8518Z" fill="white"/>
<path d="M27.6568 26.1544V20.5927H29.9521V28.0001H9.22827V20.5927H11.5235V26.1544H27.6568Z" fill="white"/>
<circle cx="20.1616" cy="20" r="18.5" stroke="white" stroke-width="3"/>
</svg>
