<svg width="150" height="150" viewBox="0 0 150 150" fill="none" xmlns="http://www.w3.org/2000/svg">
<path d="M112.687 51.2984C109.903 52.5317 106.913 53.3651 103.77 53.7417C107.013 51.801 109.44 48.7466 110.597 45.1484C107.549 46.9584 104.214 48.2324 100.737 48.9151C98.3979 46.4179 95.3002 44.7628 91.9244 44.2066C88.5486 43.6505 85.0837 44.2244 82.0675 45.8392C79.0513 47.4541 76.6526 50.0196 75.2438 53.1374C73.8351 56.2552 73.4951 59.7509 74.2767 63.0817C68.1023 62.7717 62.0621 61.1669 56.5481 58.3714C51.0341 55.5759 46.1695 51.6523 42.27 46.8551C40.9367 49.1551 40.17 51.8217 40.17 54.6617C40.1685 57.2184 40.7981 59.7359 42.0029 61.9908C43.2077 64.2458 44.9505 66.1685 47.0767 67.5884C44.6109 67.5099 42.1996 66.8437 40.0433 65.6451V65.8451C40.0431 69.4309 41.2834 72.9063 43.5539 75.6817C45.8244 78.4571 48.9852 80.3615 52.5 81.0717C50.2126 81.6908 47.8145 81.782 45.4867 81.3384C46.4783 84.4238 48.41 87.1218 51.0112 89.0548C53.6125 90.9878 56.7531 92.059 59.9933 92.1184C54.4928 96.4364 47.6996 98.7787 40.7067 98.7684C39.4679 98.7687 38.2303 98.6964 37 98.5517C44.0983 103.116 52.3611 105.538 60.8 105.528C89.3667 105.528 104.983 81.8684 104.983 61.3484C104.983 60.6817 104.967 60.0084 104.937 59.3417C107.974 57.145 110.596 54.4247 112.68 51.3084L112.687 51.2984V51.2984Z" fill="black"/>
</svg>
