<svg width="32" height="33" viewBox="0 0 32 33" fill="none" xmlns="http://www.w3.org/2000/svg">
<g id="Btn - twitter">
<path id="&#239;&#130;&#153;" d="M25.5156 11.9932C26.4531 11.29 27.2969 10.4463 27.9531 9.46191C27.1094 9.83691 26.125 10.1182 25.1406 10.2119C26.1719 9.60254 26.9219 8.66504 27.2969 7.49316C26.3594 8.05566 25.2812 8.47754 24.2031 8.71191C23.2656 7.72754 22 7.16504 20.5938 7.16504C17.875 7.16504 15.6719 9.36816 15.6719 12.0869C15.6719 12.4619 15.7188 12.8369 15.8125 13.2119C11.7344 12.9775 8.07812 11.0088 5.64062 8.05566C5.21875 8.75879 4.98438 9.60254 4.98438 10.54C4.98438 12.2275 5.82812 13.7275 7.1875 14.6182C6.39062 14.5713 5.59375 14.3838 4.9375 14.0088V14.0557C4.9375 16.4463 6.625 18.415 8.875 18.8838C8.5 18.9775 8.03125 19.0713 7.60938 19.0713C7.28125 19.0713 7 19.0244 6.67188 18.9775C7.28125 20.9463 9.10938 22.3525 11.2656 22.3994C9.57812 23.7119 7.46875 24.5088 5.17188 24.5088C4.75 24.5088 4.375 24.4619 4 24.415C6.15625 25.8213 8.73438 26.6182 11.5469 26.6182C20.5938 26.6182 25.5156 19.165 25.5156 12.6494C25.5156 12.415 25.5156 12.2275 25.5156 11.9932Z" fill="black"/>
</g>
</svg>
