<svg width="120" height="120" viewBox="0 0 120 120" fill="none" xmlns="http://www.w3.org/2000/svg">
<path d="M40.1562 120C51.1962 120 60.1562 111.04 60.1562 100V80H40.1562C29.1163 80 20.1562 88.96 20.1562 100C20.1562 111.04 29.1163 120 40.1562 120Z" fill="#0ACF83"/>
<path d="M20.1562 60C20.1562 48.96 29.1163 40 40.1562 40H60.1562V80H40.1562C29.1163 80 20.1562 71.04 20.1562 60Z" fill="#A259FF"/>
<path d="M20.1562 20C20.1562 8.96 29.1163 0 40.1562 0H60.1562V40H40.1562C29.1163 40 20.1562 31.04 20.1562 20Z" fill="#F24E1E"/>
<path d="M60.1562 0H80.1563C91.1963 0 100.156 8.96 100.156 20C100.156 31.04 91.1963 40 80.1563 40H60.1562V0Z" fill="#FF7262"/>
<path d="M100.156 60C100.156 71.04 91.1963 80 80.1563 80C69.1163 80 60.1562 71.04 60.1562 60C60.1562 48.96 69.1163 40 80.1563 40C91.1963 40 100.156 48.96 100.156 60Z" fill="#1ABCFE"/>
</svg>
