<svg width="2888" height="11" viewBox="0 0 2888 11" fill="none" xmlns="http://www.w3.org/2000/svg">
<g clip-path="url(#clip0_11_36)">
<path d="M-5 5.2453C1.87266 2.25157 7.59988 2.25157 12.1816 5.2453C16.7634 8.23904 22.4906 8.23904 29.3633 5.2453C36.236 2.25157 41.9632 2.25157 46.5449 5.2453C51.1267 8.23904 56.8539 8.23904 63.7266 5.2453C70.5993 2.25157 76.3265 2.25157 80.9082 5.2453C85.49 8.23904 91.2172 8.23904 98.0899 5.2453C104.963 2.25157 110.69 2.25157 115.272 5.2453C119.853 8.23904 125.581 8.23904 132.453 5.2453C139.326 2.25157 145.053 2.25157 149.635 5.2453C154.217 8.23904 159.944 8.23904 166.816 5.2453" stroke="#E55039" stroke-width="5.99997"/>
<path d="M166.816 5.2453C173.689 2.25157 179.416 2.25157 183.998 5.2453C188.58 8.23904 194.307 8.23904 201.18 5.2453C208.052 2.25157 213.78 2.25157 218.361 5.2453C222.943 8.23904 228.67 8.23904 235.543 5.2453C242.416 2.25157 248.143 2.25157 252.725 5.2453C257.306 8.23904 263.034 8.23904 269.906 5.2453C276.779 2.25157 282.506 2.25157 287.088 5.2453C291.67 8.23904 297.397 8.23904 304.27 5.2453C311.142 2.25157 316.869 2.25157 321.451 5.2453C326.033 8.23904 331.76 8.23904 338.633 5.2453" stroke="#E55039" stroke-width="5.99997"/>
<path d="M338.633 5.2453C345.506 2.25157 351.233 2.25157 355.815 5.2453C360.396 8.23904 366.124 8.23904 372.996 5.2453C379.869 2.25157 385.596 2.25157 390.178 5.2453C394.76 8.23904 400.487 8.23904 407.36 5.2453C414.232 2.25157 419.96 2.25157 424.541 5.2453C429.123 8.23904 434.85 8.23904 441.723 5.2453C448.596 2.25157 454.323 2.25157 458.905 5.2453C463.486 8.23904 469.214 8.23904 476.086 5.2453C482.959 2.25157 488.686 2.25157 493.268 5.2453C497.85 8.23904 503.577 8.23904 510.45 5.2453" stroke="#E55039" stroke-width="5.99997"/>
<path d="M510.449 5.2453C517.322 2.25157 523.049 2.25157 527.631 5.2453C532.213 8.23904 537.94 8.23904 544.813 5.2453C551.685 2.25157 557.413 2.25157 561.994 5.2453C566.576 8.23904 572.303 8.23904 579.176 5.2453C586.049 2.25157 591.776 2.25157 596.358 5.2453C600.939 8.23904 606.667 8.23904 613.539 5.2453C620.412 2.25157 626.139 2.25157 630.721 5.2453C635.303 8.23904 641.03 8.23904 647.903 5.2453C654.775 2.25157 660.503 2.25157 665.084 5.2453C669.666 8.23904 675.393 8.23904 682.266 5.2453" stroke="#E55039" stroke-width="5.99997"/>
<path d="M682.266 5.2453C689.139 2.25157 694.866 2.25157 699.448 5.2453C704.029 8.23904 709.757 8.23904 716.629 5.2453C723.502 2.25157 729.229 2.25157 733.811 5.2453C738.393 8.23904 744.12 8.23904 750.993 5.2453C757.865 2.25157 763.592 2.25157 768.174 5.2453C772.756 8.23904 778.483 8.23904 785.356 5.2453C792.229 2.25157 797.956 2.25157 802.538 5.2453C807.119 8.23904 812.847 8.23904 819.719 5.2453C826.592 2.25157 832.319 2.25157 836.901 5.2453C841.483 8.23904 847.21 8.23904 854.082 5.2453" stroke="#E55039" stroke-width="5.99997"/>
<path d="M854.083 5.2453C860.955 2.25157 866.682 2.25157 871.264 5.2453C875.846 8.23904 881.573 8.23904 888.446 5.2453C895.318 2.25157 901.046 2.25157 905.627 5.2453C910.209 8.23904 915.936 8.23904 922.809 5.2453C929.682 2.25157 935.409 2.25157 939.991 5.2453C944.573 8.23904 950.3 8.23904 957.172 5.2453C964.045 2.25157 969.772 2.25157 974.354 5.2453C978.936 8.23904 984.663 8.23904 991.536 5.2453C998.408 2.25157 1004.14 2.25157 1008.72 5.2453C1013.3 8.23904 1019.03 8.23904 1025.9 5.2453" stroke="#E55039" stroke-width="5.99997"/>
<path d="M1025.9 5.2453C1032.77 2.25157 1038.5 2.25157 1043.08 5.2453C1047.66 8.23904 1053.39 8.23904 1060.26 5.2453C1067.14 2.25157 1072.86 2.25157 1077.44 5.2453C1082.03 8.23904 1087.75 8.23904 1094.63 5.2453C1101.5 2.25157 1107.23 2.25157 1111.81 5.2453C1116.39 8.23904 1122.12 8.23904 1128.99 5.2453C1135.86 2.25157 1141.59 2.25157 1146.17 5.2453C1150.75 8.23904 1156.48 8.23904 1163.35 5.2453C1170.22 2.25157 1175.95 2.25157 1180.53 5.2453C1185.12 8.23904 1190.84 8.23904 1197.72 5.2453" stroke="#E55039" stroke-width="5.99997"/>
<path d="M1197.72 5.2453C1204.59 2.25157 1210.32 2.25157 1214.9 5.2453C1219.48 8.23904 1225.21 8.23904 1232.08 5.2453C1238.95 2.25157 1244.68 2.25157 1249.26 5.2453C1253.84 8.23904 1259.57 8.23904 1266.44 5.2453C1273.31 2.25157 1279.04 2.25157 1283.62 5.2453C1288.21 8.23904 1293.93 8.23904 1300.81 5.2453C1307.68 2.25157 1313.41 2.25157 1317.99 5.2453C1322.57 8.23904 1328.3 8.23904 1335.17 5.2453C1342.04 2.25157 1347.77 2.25157 1352.35 5.2453C1356.93 8.23904 1362.66 8.23904 1369.53 5.2453" stroke="#E55039" stroke-width="5.99997"/>
<path d="M1369.53 5.2453C1376.4 2.25157 1382.13 2.25157 1386.71 5.2453C1391.3 8.23904 1397.02 8.23904 1403.9 5.2453C1410.77 2.25157 1416.5 2.25157 1421.08 5.2453C1425.66 8.23904 1431.39 8.23904 1438.26 5.2453C1445.13 2.25157 1450.86 2.25157 1455.44 5.2453C1460.02 8.23904 1465.75 8.23904 1472.62 5.2453C1479.49 2.25157 1485.22 2.25157 1489.8 5.2453C1494.39 8.23904 1500.11 8.23904 1506.99 5.2453C1513.86 2.25157 1519.59 2.25157 1524.17 5.2453C1528.75 8.23904 1534.48 8.23904 1541.35 5.2453" stroke="#E55039" stroke-width="5.99997"/>
</g>
<g clip-path="url(#clip1_11_36)">
<path d="M1371 5.2453C1377.87 2.25157 1383.6 2.25157 1388.18 5.2453C1392.76 8.23904 1398.49 8.23904 1405.36 5.2453C1412.24 2.25157 1417.96 2.25157 1422.54 5.2453C1427.13 8.23904 1432.85 8.23904 1439.73 5.2453C1446.6 2.25157 1452.33 2.25157 1456.91 5.2453C1461.49 8.23904 1467.22 8.23904 1474.09 5.2453C1480.96 2.25157 1486.69 2.25157 1491.27 5.2453C1495.85 8.23904 1501.58 8.23904 1508.45 5.2453C1515.33 2.25157 1521.05 2.25157 1525.63 5.2453C1530.22 8.23904 1535.94 8.23904 1542.82 5.2453" stroke="#E55039" stroke-width="5.99997"/>
<path d="M1542.82 5.2453C1549.69 2.25157 1555.42 2.25157 1560 5.2453C1564.58 8.23904 1570.31 8.23904 1577.18 5.2453C1584.05 2.25157 1589.78 2.25157 1594.36 5.2453C1598.94 8.23904 1604.67 8.23904 1611.54 5.2453C1618.42 2.25157 1624.14 2.25157 1628.73 5.2453C1633.31 8.23904 1639.03 8.23904 1645.91 5.2453C1652.78 2.25157 1658.51 2.25157 1663.09 5.2453C1667.67 8.23904 1673.4 8.23904 1680.27 5.2453C1687.14 2.25157 1692.87 2.25157 1697.45 5.2453C1702.03 8.23904 1707.76 8.23904 1714.63 5.2453" stroke="#E55039" stroke-width="5.99997"/>
<path d="M1714.63 5.2453C1721.51 2.25157 1727.23 2.25157 1731.82 5.2453C1736.4 8.23904 1742.12 8.23904 1749 5.2453C1755.87 2.25157 1761.6 2.25157 1766.18 5.2453C1770.76 8.23904 1776.49 8.23904 1783.36 5.2453C1790.23 2.25157 1795.96 2.25157 1800.54 5.2453C1805.12 8.23904 1810.85 8.23904 1817.72 5.2453C1824.6 2.25157 1830.32 2.25157 1834.91 5.2453C1839.49 8.23904 1845.21 8.23904 1852.09 5.2453C1858.96 2.25157 1864.69 2.25157 1869.27 5.2453C1873.85 8.23904 1879.58 8.23904 1886.45 5.2453" stroke="#E55039" stroke-width="5.99997"/>
<path d="M1886.45 5.2453C1893.32 2.25157 1899.05 2.25157 1903.63 5.2453C1908.21 8.23904 1913.94 8.23904 1920.81 5.2453C1927.68 2.25157 1933.41 2.25157 1937.99 5.2453C1942.58 8.23904 1948.3 8.23904 1955.18 5.2453C1962.05 2.25157 1967.78 2.25157 1972.36 5.2453C1976.94 8.23904 1982.67 8.23904 1989.54 5.2453C1996.41 2.25157 2002.14 2.25157 2006.72 5.2453C2011.3 8.23904 2017.03 8.23904 2023.9 5.2453C2030.77 2.25157 2036.5 2.25157 2041.08 5.2453C2045.67 8.23904 2051.39 8.23904 2058.27 5.2453" stroke="#E55039" stroke-width="5.99997"/>
<path d="M2058.27 5.2453C2065.14 2.25157 2070.87 2.25157 2075.45 5.2453C2080.03 8.23904 2085.76 8.23904 2092.63 5.2453C2099.5 2.25157 2105.23 2.25157 2109.81 5.2453C2114.39 8.23904 2120.12 8.23904 2126.99 5.2453C2133.87 2.25157 2139.59 2.25157 2144.17 5.2453C2148.76 8.23904 2154.48 8.23904 2161.36 5.2453C2168.23 2.25157 2173.96 2.25157 2178.54 5.2453C2183.12 8.23904 2188.85 8.23904 2195.72 5.2453C2202.59 2.25157 2208.32 2.25157 2212.9 5.2453C2217.48 8.23904 2223.21 8.23904 2230.08 5.2453" stroke="#E55039" stroke-width="5.99997"/>
<path d="M2230.08 5.2453C2236.96 2.25157 2242.68 2.25157 2247.26 5.2453C2251.85 8.23904 2257.57 8.23904 2264.45 5.2453C2271.32 2.25157 2277.05 2.25157 2281.63 5.2453C2286.21 8.23904 2291.94 8.23904 2298.81 5.2453C2305.68 2.25157 2311.41 2.25157 2315.99 5.2453C2320.57 8.23904 2326.3 8.23904 2333.17 5.2453C2340.04 2.25157 2345.77 2.25157 2350.35 5.2453C2354.94 8.23904 2360.66 8.23904 2367.54 5.2453C2374.41 2.25157 2380.14 2.25157 2384.72 5.2453C2389.3 8.23904 2395.03 8.23904 2401.9 5.2453" stroke="#E55039" stroke-width="5.99997"/>
<path d="M2401.9 5.2453C2408.77 2.25157 2414.5 2.25157 2419.08 5.2453C2423.66 8.23904 2429.39 8.23904 2436.26 5.2453C2443.14 2.25157 2448.86 2.25157 2453.44 5.2453C2458.03 8.23904 2463.75 8.23904 2470.63 5.2453C2477.5 2.25157 2483.23 2.25157 2487.81 5.2453C2492.39 8.23904 2498.12 8.23904 2504.99 5.2453C2511.86 2.25157 2517.59 2.25157 2522.17 5.2453C2526.75 8.23904 2532.48 8.23904 2539.35 5.2453C2546.22 2.25157 2551.95 2.25157 2556.53 5.2453C2561.12 8.23904 2566.84 8.23904 2573.72 5.2453" stroke="#E55039" stroke-width="5.99997"/>
<path d="M2573.72 5.2453C2580.59 2.25157 2586.32 2.25157 2590.9 5.2453C2595.48 8.23904 2601.21 8.23904 2608.08 5.2453C2614.95 2.25157 2620.68 2.25157 2625.26 5.2453C2629.84 8.23904 2635.57 8.23904 2642.44 5.2453C2649.31 2.25157 2655.04 2.25157 2659.62 5.2453C2664.21 8.23904 2669.93 8.23904 2676.81 5.2453C2683.68 2.25157 2689.41 2.25157 2693.99 5.2453C2698.57 8.23904 2704.3 8.23904 2711.17 5.2453C2718.04 2.25157 2723.77 2.25157 2728.35 5.2453C2732.93 8.23904 2738.66 8.23904 2745.53 5.2453" stroke="#E55039" stroke-width="5.99997"/>
<path d="M2745.53 5.2453C2752.4 2.25157 2758.13 2.25157 2762.71 5.2453C2767.3 8.23904 2773.02 8.23904 2779.9 5.2453C2786.77 2.25157 2792.5 2.25157 2797.08 5.2453C2801.66 8.23904 2807.39 8.23904 2814.26 5.2453C2821.13 2.25157 2826.86 2.25157 2831.44 5.2453C2836.02 8.23904 2841.75 8.23904 2848.62 5.2453C2855.49 2.25157 2861.22 2.25157 2865.8 5.2453C2870.39 8.23904 2876.11 8.23904 2882.99 5.2453C2889.86 2.25157 2895.59 2.25157 2900.17 5.2453C2904.75 8.23904 2910.48 8.23904 2917.35 5.2453" stroke="#E55039" stroke-width="5.99997"/>
</g>
<defs>
<clipPath id="clip0_11_36">
<rect width="1512" height="11" fill="white"/>
</clipPath>
<clipPath id="clip1_11_36">
<rect width="1512" height="11" fill="white" transform="translate(1376)"/>
</clipPath>
</defs>
</svg>
