<svg width="1552" height="114" viewBox="0 0 1552 114" fill="none" xmlns="http://www.w3.org/2000/svg">
<rect width="1552" height="114" fill="#FF4575"/>
<path d="M15.4476 69V50.7732H18.8326V66.1358H28.3626V69H15.4476ZM39.3146 69V66.1879L39.1323 65.589V60.6677C39.1323 59.713 38.8459 58.9753 38.273 58.4545C37.7002 57.9164 36.8322 57.6473 35.6692 57.6473C34.888 57.6473 34.1156 57.7688 33.3518 58.0118C32.6054 58.2549 31.9718 58.5934 31.451 59.0273L30.1751 56.6578C30.9215 56.085 31.8068 55.6597 32.831 55.382C33.8726 55.0869 34.9488 54.9393 36.0598 54.9393C38.0734 54.9393 39.627 55.4254 40.7206 56.3975C41.8316 57.3522 42.3871 58.8364 42.3871 60.85V69H39.3146ZM34.9401 69.1823C33.8986 69.1823 32.9872 69.0087 32.2061 68.6615C31.425 68.297 30.8174 67.8022 30.3834 67.1773C29.9668 66.535 29.7585 65.8146 29.7585 65.0161C29.7585 64.235 29.9408 63.532 30.3053 62.907C30.6872 62.2821 31.3034 61.7874 32.154 61.4229C33.0046 61.0583 34.1329 60.876 35.539 60.876H39.5749V63.0372H35.7733C34.6624 63.0372 33.9159 63.2195 33.5341 63.584C33.1522 63.9312 32.9612 64.3652 32.9612 64.8859C32.9612 65.4761 33.1956 65.9448 33.6642 66.292C34.1329 66.6392 34.7839 66.8128 35.6171 66.8128C36.4156 66.8128 37.1273 66.6305 37.7523 66.266C38.3945 65.9014 38.8545 65.3633 39.1323 64.6516L39.6791 66.6045C39.3666 67.4203 38.8025 68.0539 37.9866 68.5053C37.1881 68.9566 36.1726 69.1823 34.9401 69.1823ZM52.4488 69.1823C51.2684 69.1823 50.2269 68.9653 49.3243 68.5313C48.4216 68.08 47.7186 67.403 47.2151 66.5003C46.7117 65.5803 46.46 64.4259 46.46 63.0372V55.0955H49.7148V62.5946C49.7148 63.8444 49.9926 64.7818 50.5481 65.4067C51.1209 66.0143 51.9281 66.3181 52.9696 66.3181C53.7334 66.3181 54.393 66.1618 54.9485 65.8494C55.5214 65.5369 55.964 65.0682 56.2765 64.4433C56.6063 63.8184 56.7712 63.0459 56.7712 62.1259V55.0955H60.026V69H56.9274V65.2505L57.4742 66.3962C57.0056 67.2988 56.3199 67.9932 55.4172 68.4792C54.5146 68.9479 53.5251 69.1823 52.4488 69.1823ZM64.2875 69V55.0955H67.3861V58.9232L67.0216 57.8035C67.4382 56.8661 68.0891 56.1544 68.9744 55.6684C69.8771 55.1823 70.9967 54.9393 72.3334 54.9393V58.0379C72.1945 58.0032 72.0643 57.9858 71.9428 57.9858C71.8213 57.9684 71.6998 57.9598 71.5783 57.9598C70.3458 57.9598 69.365 58.3243 68.6359 59.0534C67.9069 59.7651 67.5423 60.8327 67.5423 62.2561V69H64.2875ZM82.6694 69V66.1879L82.4871 65.589V60.6677C82.4871 59.713 82.2007 58.9753 81.6278 58.4545C81.055 57.9164 80.187 57.6473 79.024 57.6473C78.2428 57.6473 77.4704 57.7688 76.7066 58.0118C75.9602 58.2549 75.3266 58.5934 74.8058 59.0273L73.5299 56.6578C74.2763 56.085 75.1616 55.6597 76.1858 55.382C77.2273 55.0869 78.3036 54.9393 79.4146 54.9393C81.4282 54.9393 82.9818 55.4254 84.0754 56.3975C85.1864 57.3522 85.7419 58.8364 85.7419 60.85V69H82.6694ZM78.2949 69.1823C77.2534 69.1823 76.342 69.0087 75.5609 68.6615C74.7797 68.297 74.1722 67.8022 73.7382 67.1773C73.3216 66.535 73.1133 65.8146 73.1133 65.0161C73.1133 64.235 73.2956 63.532 73.6601 62.907C74.042 62.2821 74.6582 61.7874 75.5088 61.4229C76.3594 61.0583 77.4877 60.876 78.8938 60.876H82.9297V63.0372H79.1281C78.0172 63.0372 77.2707 63.2195 76.8888 63.584C76.507 63.9312 76.316 64.3652 76.316 64.8859C76.316 65.4761 76.5504 65.9448 77.019 66.292C77.4877 66.6392 78.1387 66.8128 78.9719 66.8128C79.7704 66.8128 80.4821 66.6305 81.1071 66.266C81.7493 65.9014 82.2093 65.3633 82.4871 64.6516L83.0339 66.6045C82.7214 67.4203 82.1573 68.0539 81.3414 68.5053C80.5429 68.9566 79.5274 69.1823 78.2949 69.1823ZM97.4276 69V50.7732H100.813V66.1358H110.343V69H97.4276ZM112.857 74.2337C112.18 74.2337 111.503 74.1209 110.826 73.8952C110.149 73.6695 109.584 73.3571 109.133 72.9578L110.435 70.5623C110.765 70.8574 111.138 71.0917 111.555 71.2653C111.971 71.4389 112.396 71.5257 112.83 71.5257C113.421 71.5257 113.898 71.3782 114.263 71.0831C114.627 70.788 114.966 70.2932 115.278 69.5989L116.085 67.7762L116.346 67.3856L121.605 55.0955H124.73L118.22 70.1196C117.786 71.1612 117.3 71.9857 116.762 72.5933C116.241 73.2008 115.651 73.6261 114.992 73.8692C114.349 74.1122 113.638 74.2337 112.857 74.2337ZM115.721 69.4947L109.445 55.0955H112.83L117.934 67.0992L115.721 69.4947ZM132.762 69.1823C131.304 69.1823 130.002 68.8785 128.856 68.2709C127.728 67.646 126.843 66.7954 126.201 65.7192C125.558 64.6429 125.237 63.4191 125.237 62.0478C125.237 60.6591 125.558 59.4353 126.201 58.3764C126.843 57.3001 127.728 56.4582 128.856 55.8507C130.002 55.2431 131.304 54.9393 132.762 54.9393C134.116 54.9393 135.305 55.2171 136.329 55.7725C137.371 56.3107 138.161 57.1092 138.699 58.1681L136.199 59.6262C135.783 58.9666 135.271 58.4805 134.663 58.1681C134.073 57.8556 133.43 57.6994 132.736 57.6994C131.938 57.6994 131.217 57.873 130.575 58.2201C129.933 58.5673 129.429 59.0707 129.065 59.7304C128.7 60.3726 128.518 61.1451 128.518 62.0478C128.518 62.9504 128.7 63.7316 129.065 64.3912C129.429 65.0335 129.933 65.5282 130.575 65.8754C131.217 66.2226 131.938 66.3962 132.736 66.3962C133.43 66.3962 134.073 66.2399 134.663 65.9275C135.271 65.615 135.783 65.129 136.199 64.4693L138.699 65.9275C138.161 66.969 137.371 67.7762 136.329 68.349C135.305 68.9045 134.116 69.1823 132.762 69.1823ZM144.041 65.9014L144.119 61.8134L151.384 55.0955H155.29L149.119 61.2927L147.4 62.7248L144.041 65.9014ZM141.385 69V49.6796H144.64V69H141.385ZM151.879 69L146.801 62.7248L148.858 60.1209L155.837 69H151.879ZM165.829 54.9393C166.94 54.9393 167.929 55.1563 168.797 55.5903C169.682 56.0242 170.377 56.6926 170.88 57.5952C171.383 58.4805 171.635 59.6262 171.635 61.0323V69H168.38V61.4489C168.38 60.2164 168.085 59.2964 167.495 58.6888C166.922 58.0813 166.115 57.7775 165.073 57.7775C164.31 57.7775 163.633 57.9337 163.042 58.2462C162.452 58.5586 161.992 59.0273 161.662 59.6522C161.35 60.2598 161.194 61.0323 161.194 61.9697V69H157.939V49.6796H161.194V58.8451L160.491 57.6994C160.977 56.8141 161.68 56.1371 162.6 55.6684C163.537 55.1823 164.613 54.9393 165.829 54.9393ZM182.039 69.1823C180.615 69.1823 179.348 68.8785 178.237 68.2709C177.126 67.646 176.249 66.7954 175.607 65.7192C174.965 64.6429 174.644 63.4191 174.644 62.0478C174.644 60.6591 174.965 59.4353 175.607 58.3764C176.249 57.3001 177.126 56.4582 178.237 55.8507C179.348 55.2431 180.615 54.9393 182.039 54.9393C183.479 54.9393 184.755 55.2431 185.866 55.8507C186.995 56.4582 187.871 57.2914 188.496 58.3503C189.138 59.4092 189.46 60.6417 189.46 62.0478C189.46 63.4191 189.138 64.6429 188.496 65.7192C187.871 66.7954 186.995 67.646 185.866 68.2709C184.755 68.8785 183.479 69.1823 182.039 69.1823ZM182.039 66.3962C182.837 66.3962 183.549 66.2226 184.174 65.8754C184.799 65.5282 185.285 65.0248 185.632 64.3652C185.996 63.7055 186.179 62.9331 186.179 62.0478C186.179 61.1451 185.996 60.3726 185.632 59.7304C185.285 59.0707 184.799 58.5673 184.174 58.2201C183.549 57.873 182.846 57.6994 182.065 57.6994C181.266 57.6994 180.554 57.873 179.93 58.2201C179.322 58.5673 178.836 59.0707 178.471 59.7304C178.107 60.3726 177.925 61.1451 177.925 62.0478C177.925 62.9331 178.107 63.7055 178.471 64.3652C178.836 65.0248 179.322 65.5282 179.93 65.8754C180.554 66.2226 181.258 66.3962 182.039 66.3962ZM192.572 69V49.6796H195.827V69H192.572ZM217.648 54.9393C218.759 54.9393 219.74 55.1563 220.591 55.5903C221.459 56.0242 222.136 56.6926 222.622 57.5952C223.108 58.4805 223.351 59.6262 223.351 61.0323V69H220.096V61.4489C220.096 60.2164 219.827 59.2964 219.289 58.6888C218.751 58.0813 217.978 57.7775 216.971 57.7775C216.26 57.7775 215.626 57.9337 215.071 58.2462C214.533 58.5586 214.107 59.0186 213.795 59.6262C213.5 60.2338 213.352 61.0062 213.352 61.9436V69H210.097V61.4489C210.097 60.2164 209.828 59.2964 209.29 58.6888C208.752 58.0813 207.98 57.7775 206.973 57.7775C206.261 57.7775 205.627 57.9337 205.072 58.2462C204.534 58.5586 204.109 59.0186 203.796 59.6262C203.501 60.2338 203.353 61.0062 203.353 61.9436V69H200.099V55.0955H203.197V58.793L202.65 57.6994C203.119 56.7967 203.796 56.111 204.681 55.6423C205.584 55.1737 206.608 54.9393 207.754 54.9393C209.056 54.9393 210.184 55.2605 211.139 55.9027C212.111 56.545 212.753 57.5171 213.066 58.819L211.79 58.3764C212.241 57.3348 212.988 56.5016 214.029 55.8767C215.071 55.2518 216.277 54.9393 217.648 54.9393ZM236.269 63.9225C235.678 63.9225 235.175 63.7229 234.758 63.3236C234.342 62.9244 234.133 62.3949 234.133 61.7353C234.133 61.093 234.342 60.5723 234.758 60.173C235.175 59.7738 235.678 59.5741 236.269 59.5741C236.893 59.5741 237.406 59.7738 237.805 60.173C238.204 60.5723 238.404 61.093 238.404 61.7353C238.404 62.3949 238.204 62.9244 237.805 63.3236C237.406 63.7229 236.893 63.9225 236.269 63.9225ZM252.713 59.1575H261.8V62.0217H252.713V59.1575ZM252.999 69H249.614V50.7732H262.92V53.6114H252.999V69ZM265.627 69V55.0955H268.725V58.9232L268.361 57.8035C268.777 56.8661 269.428 56.1544 270.314 55.6684C271.216 55.1823 272.336 54.9393 273.673 54.9393V58.0379C273.534 58.0032 273.403 57.9858 273.282 57.9858C273.16 57.9684 273.039 57.9598 272.917 57.9598C271.685 57.9598 270.704 58.3243 269.975 59.0534C269.246 59.7651 268.881 60.8327 268.881 62.2561V69H265.627ZM282.556 69.1823C281.132 69.1823 279.865 68.8785 278.754 68.2709C277.643 67.646 276.766 66.7954 276.124 65.7192C275.482 64.6429 275.161 63.4191 275.161 62.0478C275.161 60.6591 275.482 59.4353 276.124 58.3764C276.766 57.3001 277.643 56.4582 278.754 55.8507C279.865 55.2431 281.132 54.9393 282.556 54.9393C283.996 54.9393 285.272 55.2431 286.383 55.8507C287.512 56.4582 288.388 57.2914 289.013 58.3503C289.655 59.4092 289.977 60.6417 289.977 62.0478C289.977 63.4191 289.655 64.6429 289.013 65.7192C288.388 66.7954 287.512 67.646 286.383 68.2709C285.272 68.8785 283.996 69.1823 282.556 69.1823ZM282.556 66.3962C283.354 66.3962 284.066 66.2226 284.691 65.8754C285.316 65.5282 285.802 65.0248 286.149 64.3652C286.513 63.7055 286.696 62.9331 286.696 62.0478C286.696 61.1451 286.513 60.3726 286.149 59.7304C285.802 59.0707 285.316 58.5673 284.691 58.2201C284.066 57.873 283.363 57.6994 282.582 57.6994C281.783 57.6994 281.071 57.873 280.447 58.2201C279.839 58.5673 279.353 59.0707 278.988 59.7304C278.624 60.3726 278.442 61.1451 278.442 62.0478C278.442 62.9331 278.624 63.7055 278.988 64.3652C279.353 65.0248 279.839 65.5282 280.447 65.8754C281.071 66.2226 281.775 66.3962 282.556 66.3962ZM300.979 54.9393C302.09 54.9393 303.079 55.1563 303.947 55.5903C304.832 56.0242 305.527 56.6926 306.03 57.5952C306.533 58.4805 306.785 59.6262 306.785 61.0323V69H303.53V61.4489C303.53 60.2164 303.235 59.2964 302.645 58.6888C302.072 58.0813 301.265 57.7775 300.223 57.7775C299.46 57.7775 298.783 57.9337 298.193 58.2462C297.602 58.5586 297.142 59.0273 296.812 59.6522C296.5 60.2598 296.344 61.0323 296.344 61.9697V69H293.089V55.0955H296.188V58.8451L295.641 57.6994C296.127 56.8141 296.83 56.1371 297.75 55.6684C298.687 55.1823 299.763 54.9393 300.979 54.9393ZM316.148 69.1823C314.62 69.1823 313.44 68.7917 312.607 68.0105C311.773 67.212 311.357 66.0403 311.357 64.4954V52.023H314.611V64.4173C314.611 65.0769 314.776 65.589 315.106 65.9535C315.453 66.3181 315.931 66.5003 316.538 66.5003C317.267 66.5003 317.875 66.3094 318.361 65.9275L319.272 68.2449C318.89 68.5573 318.422 68.7917 317.866 68.9479C317.311 69.1042 316.738 69.1823 316.148 69.1823ZM309.065 57.8035V55.1997H318.335V57.8035H309.065ZM328.028 69.1823C326.483 69.1823 325.129 68.8785 323.966 68.2709C322.82 67.646 321.926 66.7954 321.284 65.7192C320.659 64.6429 320.346 63.4191 320.346 62.0478C320.346 60.6591 320.65 59.4353 321.258 58.3764C321.883 57.3001 322.733 56.4582 323.81 55.8507C324.903 55.2431 326.144 54.9393 327.533 54.9393C328.887 54.9393 330.093 55.2344 331.152 55.8246C332.211 56.4148 333.044 57.248 333.652 58.3243C334.26 59.4005 334.563 60.6677 334.563 62.1259C334.563 62.2648 334.555 62.421 334.537 62.5946C334.537 62.7682 334.529 62.9331 334.511 63.0893H322.924V60.9281H332.793L331.517 61.6051C331.534 60.8066 331.369 60.1036 331.022 59.496C330.675 58.8885 330.198 58.4111 329.59 58.0639C329 57.7167 328.314 57.5431 327.533 57.5431C326.734 57.5431 326.031 57.7167 325.424 58.0639C324.834 58.4111 324.365 58.8971 324.018 59.5221C323.688 60.1296 323.523 60.85 323.523 61.6832V62.204C323.523 63.0372 323.714 63.775 324.096 64.4173C324.478 65.0595 325.016 65.5543 325.71 65.9014C326.405 66.2486 327.203 66.4222 328.106 66.4222C328.887 66.4222 329.59 66.3007 330.215 66.0577C330.84 65.8146 331.395 65.4328 331.881 64.912L333.626 66.9169C333.001 67.646 332.211 68.2102 331.256 68.6094C330.319 68.9913 329.243 69.1823 328.028 69.1823ZM345.579 54.9393C346.69 54.9393 347.68 55.1563 348.548 55.5903C349.433 56.0242 350.127 56.6926 350.631 57.5952C351.134 58.4805 351.386 59.6262 351.386 61.0323V69H348.131V61.4489C348.131 60.2164 347.836 59.2964 347.246 58.6888C346.673 58.0813 345.866 57.7775 344.824 57.7775C344.06 57.7775 343.383 57.9337 342.793 58.2462C342.203 58.5586 341.743 59.0273 341.413 59.6522C341.101 60.2598 340.945 61.0323 340.945 61.9697V69H337.69V55.0955H340.788V58.8451L340.242 57.6994C340.728 56.8141 341.431 56.1371 342.351 55.6684C343.288 55.1823 344.364 54.9393 345.579 54.9393ZM361.425 69.1823C360.088 69.1823 358.882 68.8872 357.806 68.297C356.747 67.6894 355.913 66.8562 355.306 65.7973C354.698 64.7384 354.395 63.4886 354.395 62.0478C354.395 60.607 354.698 59.3571 355.306 58.2983C355.913 57.2394 356.747 56.4148 357.806 55.8246C358.882 55.2344 360.088 54.9393 361.425 54.9393C362.588 54.9393 363.629 55.1997 364.549 55.7205C365.47 56.2239 366.199 56.9963 366.737 58.0379C367.275 59.0794 367.544 60.416 367.544 62.0478C367.544 63.6621 367.284 64.9988 366.763 66.0577C366.242 67.0992 365.522 67.8804 364.602 68.4011C363.682 68.9219 362.623 69.1823 361.425 69.1823ZM361.815 66.3962C362.597 66.3962 363.291 66.2226 363.899 65.8754C364.523 65.5282 365.018 65.0248 365.383 64.3652C365.765 63.7055 365.956 62.9331 365.956 62.0478C365.956 61.1451 365.765 60.3726 365.383 59.7304C365.018 59.0707 364.523 58.5673 363.899 58.2201C363.291 57.873 362.597 57.6994 361.815 57.6994C361.034 57.6994 360.331 57.873 359.706 58.2201C359.099 58.5673 358.604 59.0707 358.222 59.7304C357.858 60.3726 357.675 61.1451 357.675 62.0478C357.675 62.9331 357.858 63.7055 358.222 64.3652C358.604 65.0248 359.099 65.5282 359.706 65.8754C360.331 66.2226 361.034 66.3962 361.815 66.3962ZM366.034 69V65.7192L366.164 62.0217L365.903 58.3243V49.6796H369.132V69H366.034ZM380.925 69V50.7732H388.892C390.871 50.7732 392.607 51.1551 394.1 51.9189C395.593 52.6827 396.756 53.7416 397.589 55.0955C398.422 56.4495 398.839 58.0466 398.839 59.8866C398.839 61.7093 398.422 63.3063 397.589 64.6776C396.756 66.0316 395.593 67.0905 394.1 67.8543C392.607 68.6181 390.871 69 388.892 69H380.925ZM384.31 66.1358H388.736C390.108 66.1358 391.288 65.8754 392.277 65.3546C393.284 64.8339 394.057 64.1048 394.595 63.1674C395.15 62.23 395.428 61.1364 395.428 59.8866C395.428 58.6194 395.15 57.5258 394.595 56.6058C394.057 55.6684 393.284 54.9393 392.277 54.4185C391.288 53.8978 390.108 53.6374 388.736 53.6374H384.31V66.1358ZM408.66 69.1823C407.115 69.1823 405.761 68.8785 404.598 68.2709C403.452 67.646 402.558 66.7954 401.916 65.7192C401.291 64.6429 400.979 63.4191 400.979 62.0478C400.979 60.6591 401.282 59.4353 401.89 58.3764C402.515 57.3001 403.366 56.4582 404.442 55.8507C405.535 55.2431 406.777 54.9393 408.165 54.9393C409.519 54.9393 410.726 55.2344 411.785 55.8246C412.844 56.4148 413.677 57.248 414.284 58.3243C414.892 59.4005 415.196 60.6677 415.196 62.1259C415.196 62.2648 415.187 62.421 415.17 62.5946C415.17 62.7682 415.161 62.9331 415.144 63.0893H403.557V60.9281H413.425L412.149 61.6051C412.167 60.8066 412.002 60.1036 411.654 59.496C411.307 58.8885 410.83 58.4111 410.222 58.0639C409.632 57.7167 408.946 57.5431 408.165 57.5431C407.367 57.5431 406.664 57.7167 406.056 58.0639C405.466 58.4111 404.997 58.8971 404.65 59.5221C404.32 60.1296 404.155 60.85 404.155 61.6832V62.204C404.155 63.0372 404.346 63.775 404.728 64.4173C405.11 65.0595 405.648 65.5543 406.343 65.9014C407.037 66.2486 407.835 66.4222 408.738 66.4222C409.519 66.4222 410.222 66.3007 410.847 66.0577C411.472 65.8146 412.028 65.4328 412.514 64.912L414.258 66.9169C413.633 67.646 412.844 68.2102 411.889 68.6094C410.951 68.9913 409.875 69.1823 408.66 69.1823ZM421.765 69L415.802 55.0955H419.187L424.317 67.3596H422.651L427.962 55.0955H431.087L425.124 69H421.765ZM439.275 69.1823C437.73 69.1823 436.376 68.8785 435.213 68.2709C434.068 67.646 433.174 66.7954 432.531 65.7192C431.907 64.6429 431.594 63.4191 431.594 62.0478C431.594 60.6591 431.898 59.4353 432.505 58.3764C433.13 57.3001 433.981 56.4582 435.057 55.8507C436.151 55.2431 437.392 54.9393 438.781 54.9393C440.135 54.9393 441.341 55.2344 442.4 55.8246C443.459 56.4148 444.292 57.248 444.9 58.3243C445.507 59.4005 445.811 60.6677 445.811 62.1259C445.811 62.2648 445.802 62.421 445.785 62.5946C445.785 62.7682 445.776 62.9331 445.759 63.0893H434.172V60.9281H444.04L442.765 61.6051C442.782 60.8066 442.617 60.1036 442.27 59.496C441.923 58.8885 441.445 58.4111 440.838 58.0639C440.247 57.7167 439.562 57.5431 438.781 57.5431C437.982 57.5431 437.279 57.7167 436.672 58.0639C436.081 58.4111 435.613 58.8971 435.265 59.5221C434.936 60.1296 434.771 60.85 434.771 61.6832V62.204C434.771 63.0372 434.962 63.775 435.344 64.4173C435.725 65.0595 436.264 65.5543 436.958 65.9014C437.652 66.2486 438.451 66.4222 439.353 66.4222C440.135 66.4222 440.838 66.3007 441.463 66.0577C442.088 65.8146 442.643 65.4328 443.129 64.912L444.874 66.9169C444.249 67.646 443.459 68.2102 442.504 68.6094C441.567 68.9913 440.49 69.1823 439.275 69.1823ZM448.937 69V49.6796H452.192V69H448.937ZM462.713 69.1823C461.29 69.1823 460.023 68.8785 458.912 68.2709C457.801 67.646 456.924 66.7954 456.282 65.7192C455.64 64.6429 455.318 63.4191 455.318 62.0478C455.318 60.6591 455.64 59.4353 456.282 58.3764C456.924 57.3001 457.801 56.4582 458.912 55.8507C460.023 55.2431 461.29 54.9393 462.713 54.9393C464.154 54.9393 465.43 55.2431 466.541 55.8507C467.669 56.4582 468.546 57.2914 469.171 58.3503C469.813 59.4092 470.134 60.6417 470.134 62.0478C470.134 63.4191 469.813 64.6429 469.171 65.7192C468.546 66.7954 467.669 67.646 466.541 68.2709C465.43 68.8785 464.154 69.1823 462.713 69.1823ZM462.713 66.3962C463.512 66.3962 464.224 66.2226 464.848 65.8754C465.473 65.5282 465.959 65.0248 466.307 64.3652C466.671 63.7055 466.853 62.9331 466.853 62.0478C466.853 61.1451 466.671 60.3726 466.307 59.7304C465.959 59.0707 465.473 58.5673 464.848 58.2201C464.224 57.873 463.521 57.6994 462.739 57.6994C461.941 57.6994 461.229 57.873 460.604 58.2201C459.997 58.5673 459.511 59.0707 459.146 59.7304C458.782 60.3726 458.599 61.1451 458.599 62.0478C458.599 62.9331 458.782 63.7055 459.146 64.3652C459.511 65.0248 459.997 65.5282 460.604 65.8754C461.229 66.2226 461.932 66.3962 462.713 66.3962ZM480.954 69.1823C479.826 69.1823 478.793 68.9219 477.855 68.4011C476.935 67.8804 476.198 67.0992 475.642 66.0577C475.104 64.9988 474.835 63.6621 474.835 62.0478C474.835 60.416 475.095 59.0794 475.616 58.0379C476.154 56.9963 476.883 56.2239 477.803 55.7205C478.723 55.1997 479.774 54.9393 480.954 54.9393C482.325 54.9393 483.532 55.2344 484.573 55.8246C485.632 56.4148 486.465 57.2394 487.073 58.2983C487.698 59.3571 488.01 60.607 488.01 62.0478C488.01 63.4886 487.698 64.7471 487.073 65.8233C486.465 66.8822 485.632 67.7068 484.573 68.297C483.532 68.8872 482.325 69.1823 480.954 69.1823ZM473.247 74.0514V55.0955H476.345V58.3764L476.241 62.0738L476.501 65.7712V74.0514H473.247ZM480.589 66.3962C481.371 66.3962 482.065 66.2226 482.672 65.8754C483.297 65.5282 483.792 65.0248 484.157 64.3652C484.521 63.7055 484.703 62.9331 484.703 62.0478C484.703 61.1451 484.521 60.3726 484.157 59.7304C483.792 59.0707 483.297 58.5673 482.672 58.2201C482.065 57.873 481.371 57.6994 480.589 57.6994C479.808 57.6994 479.105 57.873 478.48 58.2201C477.855 58.5673 477.361 59.0707 476.996 59.7304C476.632 60.3726 476.449 61.1451 476.449 62.0478C476.449 62.9331 476.632 63.7055 476.996 64.3652C477.361 65.0248 477.855 65.5282 478.48 65.8754C479.105 66.2226 479.808 66.3962 480.589 66.3962ZM497.633 69.1823C496.088 69.1823 494.734 68.8785 493.571 68.2709C492.425 67.646 491.531 66.7954 490.889 65.7192C490.264 64.6429 489.951 63.4191 489.951 62.0478C489.951 60.6591 490.255 59.4353 490.863 58.3764C491.488 57.3001 492.338 56.4582 493.414 55.8507C494.508 55.2431 495.749 54.9393 497.138 54.9393C498.492 54.9393 499.698 55.2344 500.757 55.8246C501.816 56.4148 502.649 57.248 503.257 58.3243C503.865 59.4005 504.168 60.6677 504.168 62.1259C504.168 62.2648 504.16 62.421 504.142 62.5946C504.142 62.7682 504.134 62.9331 504.116 63.0893H492.529V60.9281H502.398L501.122 61.6051C501.139 60.8066 500.974 60.1036 500.627 59.496C500.28 58.8885 499.803 58.4111 499.195 58.0639C498.605 57.7167 497.919 57.5431 497.138 57.5431C496.339 57.5431 495.636 57.7167 495.029 58.0639C494.439 58.4111 493.97 58.8971 493.623 59.5221C493.293 60.1296 493.128 60.85 493.128 61.6832V62.204C493.128 63.0372 493.319 63.775 493.701 64.4173C494.083 65.0595 494.621 65.5543 495.315 65.9014C496.01 66.2486 496.808 66.4222 497.711 66.4222C498.492 66.4222 499.195 66.3007 499.82 66.0577C500.445 65.8146 501 65.4328 501.486 64.912L503.231 66.9169C502.606 67.646 501.816 68.2102 500.861 68.6094C499.924 68.9913 498.848 69.1823 497.633 69.1823ZM507.295 69V55.0955H510.393V58.9232L510.029 57.8035C510.445 56.8661 511.096 56.1544 511.982 55.6684C512.884 55.1823 514.004 54.9393 515.341 54.9393V58.0379C515.202 58.0032 515.072 57.9858 514.95 57.9858C514.828 57.9684 514.707 57.9598 514.585 57.9598C513.353 57.9598 512.372 58.3243 511.643 59.0534C510.914 59.7651 510.55 60.8327 510.55 62.2561V69H507.295ZM525.737 69V50.7732H529.122V66.1358H538.652V69H525.737ZM549.604 69V66.1879L549.422 65.589V60.6677C549.422 59.713 549.136 58.9753 548.563 58.4545C547.99 57.9164 547.122 57.6473 545.959 57.6473C545.178 57.6473 544.405 57.7688 543.642 58.0118C542.895 58.2549 542.262 58.5934 541.741 59.0273L540.465 56.6578C541.211 56.085 542.097 55.6597 543.121 55.382C544.162 55.0869 545.239 54.9393 546.35 54.9393C548.363 54.9393 549.917 55.4254 551.01 56.3975C552.121 57.3522 552.677 58.8364 552.677 60.85V69H549.604ZM545.23 69.1823C544.188 69.1823 543.277 69.0087 542.496 68.6615C541.715 68.297 541.107 67.8022 540.673 67.1773C540.257 66.535 540.048 65.8146 540.048 65.0161C540.048 64.235 540.231 63.532 540.595 62.907C540.977 62.2821 541.593 61.7874 542.444 61.4229C543.294 61.0583 544.423 60.876 545.829 60.876H549.865V63.0372H546.063C544.952 63.0372 544.206 63.2195 543.824 63.584C543.442 63.9312 543.251 64.3652 543.251 64.8859C543.251 65.4761 543.485 65.9448 543.954 66.292C544.423 66.6392 545.074 66.8128 545.907 66.8128C546.705 66.8128 547.417 66.6305 548.042 66.266C548.684 65.9014 549.144 65.3633 549.422 64.6516L549.969 66.6045C549.656 67.4203 549.092 68.0539 548.276 68.5053C547.478 68.9566 546.462 69.1823 545.23 69.1823ZM562.739 69.1823C561.558 69.1823 560.517 68.9653 559.614 68.5313C558.711 68.08 558.008 67.403 557.505 66.5003C557.002 65.5803 556.75 64.4259 556.75 63.0372V55.0955H560.005V62.5946C560.005 63.8444 560.282 64.7818 560.838 65.4067C561.411 66.0143 562.218 66.3181 563.259 66.3181C564.023 66.3181 564.683 66.1618 565.238 65.8494C565.811 65.5369 566.254 65.0682 566.566 64.4433C566.896 63.8184 567.061 63.0459 567.061 62.1259V55.0955H570.316V69H567.217V65.2505L567.764 66.3962C567.295 67.2988 566.61 67.9932 565.707 68.4792C564.804 68.9479 563.815 69.1823 562.739 69.1823ZM574.577 69V55.0955H577.676V58.9232L577.311 57.8035C577.728 56.8661 578.379 56.1544 579.264 55.6684C580.167 55.1823 581.287 54.9393 582.623 54.9393V58.0379C582.484 58.0032 582.354 57.9858 582.233 57.9858C582.111 57.9684 581.99 57.9598 581.868 57.9598C580.636 57.9598 579.655 58.3243 578.926 59.0534C578.197 59.7651 577.832 60.8327 577.832 62.2561V69H574.577ZM592.959 69V66.1879L592.777 65.589V60.6677C592.777 59.713 592.49 58.9753 591.918 58.4545C591.345 57.9164 590.477 57.6473 589.314 57.6473C588.533 57.6473 587.76 57.7688 586.996 58.0118C586.25 58.2549 585.616 58.5934 585.096 59.0273L583.82 56.6578C584.566 56.085 585.451 55.6597 586.476 55.382C587.517 55.0869 588.593 54.9393 589.704 54.9393C591.718 54.9393 593.272 55.4254 594.365 56.3975C595.476 57.3522 596.032 58.8364 596.032 60.85V69H592.959ZM588.585 69.1823C587.543 69.1823 586.632 69.0087 585.851 68.6615C585.07 68.297 584.462 67.8022 584.028 67.1773C583.611 66.535 583.403 65.8146 583.403 65.0161C583.403 64.235 583.585 63.532 583.95 62.907C584.332 62.2821 584.948 61.7874 585.799 61.4229C586.649 61.0583 587.778 60.876 589.184 60.876H593.22V63.0372H589.418C588.307 63.0372 587.561 63.2195 587.179 63.584C586.797 63.9312 586.606 64.3652 586.606 64.8859C586.606 65.4761 586.84 65.9448 587.309 66.292C587.778 66.6392 588.428 66.8128 589.262 66.8128C590.06 66.8128 590.772 66.6305 591.397 66.266C592.039 65.9014 592.499 65.3633 592.777 64.6516L593.324 66.6045C593.011 67.4203 592.447 68.0539 591.631 68.5053C590.833 68.9566 589.817 69.1823 588.585 69.1823ZM607.717 69V50.7732H611.102V66.1358H620.632V69H607.717ZM623.146 74.2337C622.469 74.2337 621.792 74.1209 621.115 73.8952C620.438 73.6695 619.874 73.3571 619.423 72.9578L620.725 70.5623C621.055 70.8574 621.428 71.0917 621.844 71.2653C622.261 71.4389 622.686 71.5257 623.12 71.5257C623.71 71.5257 624.188 71.3782 624.552 71.0831C624.917 70.788 625.255 70.2932 625.568 69.5989L626.375 67.7762L626.635 67.3856L631.895 55.0955H635.02L628.51 70.1196C628.076 71.1612 627.59 71.9857 627.052 72.5933C626.531 73.2008 625.941 73.6261 625.281 73.8692C624.639 74.1122 623.927 74.2337 623.146 74.2337ZM626.011 69.4947L619.735 55.0955H623.12L628.224 67.0992L626.011 69.4947ZM643.052 69.1823C641.594 69.1823 640.292 68.8785 639.146 68.2709C638.018 67.646 637.133 66.7954 636.49 65.7192C635.848 64.6429 635.527 63.4191 635.527 62.0478C635.527 60.6591 635.848 59.4353 636.49 58.3764C637.133 57.3001 638.018 56.4582 639.146 55.8507C640.292 55.2431 641.594 54.9393 643.052 54.9393C644.406 54.9393 645.595 55.2171 646.619 55.7725C647.661 56.3107 648.451 57.1092 648.989 58.1681L646.489 59.6262C646.072 58.9666 645.56 58.4805 644.953 58.1681C644.363 57.8556 643.72 57.6994 643.026 57.6994C642.227 57.6994 641.507 57.873 640.865 58.2201C640.223 58.5673 639.719 59.0707 639.355 59.7304C638.99 60.3726 638.808 61.1451 638.808 62.0478C638.808 62.9504 638.99 63.7316 639.355 64.3912C639.719 65.0335 640.223 65.5282 640.865 65.8754C641.507 66.2226 642.227 66.3962 643.026 66.3962C643.72 66.3962 644.363 66.2399 644.953 65.9275C645.56 65.615 646.072 65.129 646.489 64.4693L648.989 65.9275C648.451 66.969 647.661 67.7762 646.619 68.349C645.595 68.9045 644.406 69.1823 643.052 69.1823ZM654.331 65.9014L654.409 61.8134L661.674 55.0955H665.58L659.408 61.2927L657.69 62.7248L654.331 65.9014ZM651.675 69V49.6796H654.93V69H651.675ZM662.169 69L657.091 62.7248L659.148 60.1209L666.126 69H662.169ZM676.118 54.9393C677.229 54.9393 678.219 55.1563 679.087 55.5903C679.972 56.0242 680.666 56.6926 681.17 57.5952C681.673 58.4805 681.925 59.6262 681.925 61.0323V69H678.67V61.4489C678.67 60.2164 678.375 59.2964 677.785 58.6888C677.212 58.0813 676.405 57.7775 675.363 57.7775C674.599 57.7775 673.922 57.9337 673.332 58.2462C672.742 58.5586 672.282 59.0273 671.952 59.6522C671.64 60.2598 671.484 61.0323 671.484 61.9697V69H668.229V49.6796H671.484V58.8451L670.781 57.6994C671.267 56.8141 671.97 56.1371 672.89 55.6684C673.827 55.1823 674.903 54.9393 676.118 54.9393ZM692.328 69.1823C690.905 69.1823 689.638 68.8785 688.527 68.2709C687.416 67.646 686.539 66.7954 685.897 65.7192C685.255 64.6429 684.934 63.4191 684.934 62.0478C684.934 60.6591 685.255 59.4353 685.897 58.3764C686.539 57.3001 687.416 56.4582 688.527 55.8507C689.638 55.2431 690.905 54.9393 692.328 54.9393C693.769 54.9393 695.045 55.2431 696.156 55.8507C697.284 56.4582 698.161 57.2914 698.786 58.3503C699.428 59.4092 699.749 60.6417 699.749 62.0478C699.749 63.4191 699.428 64.6429 698.786 65.7192C698.161 66.7954 697.284 67.646 696.156 68.2709C695.045 68.8785 693.769 69.1823 692.328 69.1823ZM692.328 66.3962C693.127 66.3962 693.839 66.2226 694.464 65.8754C695.088 65.5282 695.575 65.0248 695.922 64.3652C696.286 63.7055 696.469 62.9331 696.469 62.0478C696.469 61.1451 696.286 60.3726 695.922 59.7304C695.575 59.0707 695.088 58.5673 694.464 58.2201C693.839 57.873 693.136 57.6994 692.354 57.6994C691.556 57.6994 690.844 57.873 690.219 58.2201C689.612 58.5673 689.126 59.0707 688.761 59.7304C688.397 60.3726 688.214 61.1451 688.214 62.0478C688.214 62.9331 688.397 63.7055 688.761 64.3652C689.126 65.0248 689.612 65.5282 690.219 65.8754C690.844 66.2226 691.547 66.3962 692.328 66.3962ZM702.862 69V49.6796H706.117V69H702.862ZM727.938 54.9393C729.049 54.9393 730.03 55.1563 730.881 55.5903C731.749 56.0242 732.426 56.6926 732.912 57.5952C733.398 58.4805 733.641 59.6262 733.641 61.0323V69H730.386V61.4489C730.386 60.2164 730.117 59.2964 729.579 58.6888C729.041 58.0813 728.268 57.7775 727.261 57.7775C726.55 57.7775 725.916 57.9337 725.36 58.2462C724.822 58.5586 724.397 59.0186 724.085 59.6262C723.789 60.2338 723.642 61.0062 723.642 61.9436V69H720.387V61.4489C720.387 60.2164 720.118 59.2964 719.58 58.6888C719.042 58.0813 718.269 57.7775 717.263 57.7775C716.551 57.7775 715.917 57.9337 715.362 58.2462C714.824 58.5586 714.398 59.0186 714.086 59.6262C713.791 60.2338 713.643 61.0062 713.643 61.9436V69H710.388V55.0955H713.487V58.793L712.94 57.6994C713.409 56.7967 714.086 56.111 714.971 55.6423C715.874 55.1737 716.898 54.9393 718.044 54.9393C719.346 54.9393 720.474 55.2605 721.429 55.9027C722.401 56.545 723.043 57.5171 723.356 58.819L722.08 58.3764C722.531 57.3348 723.277 56.5016 724.319 55.8767C725.36 55.2518 726.567 54.9393 727.938 54.9393ZM746.558 63.9225C745.968 63.9225 745.465 63.7229 745.048 63.3236C744.632 62.9244 744.423 62.3949 744.423 61.7353C744.423 61.093 744.632 60.5723 745.048 60.173C745.465 59.7738 745.968 59.5741 746.558 59.5741C747.183 59.5741 747.695 59.7738 748.095 60.173C748.494 60.5723 748.693 61.093 748.693 61.7353C748.693 62.3949 748.494 62.9244 748.095 63.3236C747.695 63.7229 747.183 63.9225 746.558 63.9225ZM763.003 59.1575H772.09V62.0217H763.003V59.1575ZM763.289 69H759.904V50.7732H773.21V53.6114H763.289V69ZM775.917 69V55.0955H779.015V58.9232L778.651 57.8035C779.067 56.8661 779.718 56.1544 780.603 55.6684C781.506 55.1823 782.626 54.9393 783.962 54.9393V58.0379C783.823 58.0032 783.693 57.9858 783.572 57.9858C783.45 57.9684 783.329 57.9598 783.207 57.9598C781.975 57.9598 780.994 58.3243 780.265 59.0534C779.536 59.7651 779.171 60.8327 779.171 62.2561V69H775.917ZM792.845 69.1823C791.422 69.1823 790.155 68.8785 789.044 68.2709C787.933 67.646 787.056 66.7954 786.414 65.7192C785.772 64.6429 785.451 63.4191 785.451 62.0478C785.451 60.6591 785.772 59.4353 786.414 58.3764C787.056 57.3001 787.933 56.4582 789.044 55.8507C790.155 55.2431 791.422 54.9393 792.845 54.9393C794.286 54.9393 795.562 55.2431 796.673 55.8507C797.801 56.4582 798.678 57.2914 799.303 58.3503C799.945 59.4092 800.266 60.6417 800.266 62.0478C800.266 63.4191 799.945 64.6429 799.303 65.7192C798.678 66.7954 797.801 67.646 796.673 68.2709C795.562 68.8785 794.286 69.1823 792.845 69.1823ZM792.845 66.3962C793.644 66.3962 794.356 66.2226 794.981 65.8754C795.606 65.5282 796.092 65.0248 796.439 64.3652C796.803 63.7055 796.986 62.9331 796.986 62.0478C796.986 61.1451 796.803 60.3726 796.439 59.7304C796.092 59.0707 795.606 58.5673 794.981 58.2201C794.356 57.873 793.653 57.6994 792.871 57.6994C792.073 57.6994 791.361 57.873 790.736 58.2201C790.129 58.5673 789.643 59.0707 789.278 59.7304C788.914 60.3726 788.731 61.1451 788.731 62.0478C788.731 62.9331 788.914 63.7055 789.278 64.3652C789.643 65.0248 790.129 65.5282 790.736 65.8754C791.361 66.2226 792.064 66.3962 792.845 66.3962ZM811.268 54.9393C812.379 54.9393 813.369 55.1563 814.237 55.5903C815.122 56.0242 815.816 56.6926 816.32 57.5952C816.823 58.4805 817.075 59.6262 817.075 61.0323V69H813.82V61.4489C813.82 60.2164 813.525 59.2964 812.935 58.6888C812.362 58.0813 811.555 57.7775 810.513 57.7775C809.749 57.7775 809.073 57.9337 808.482 58.2462C807.892 58.5586 807.432 59.0273 807.102 59.6522C806.79 60.2598 806.634 61.0323 806.634 61.9697V69H803.379V55.0955H806.477V58.8451L805.931 57.6994C806.417 56.8141 807.12 56.1371 808.04 55.6684C808.977 55.1823 810.053 54.9393 811.268 54.9393ZM826.438 69.1823C824.91 69.1823 823.73 68.7917 822.896 68.0105C822.063 67.212 821.646 66.0403 821.646 64.4954V52.023H824.901V64.4173C824.901 65.0769 825.066 65.589 825.396 65.9535C825.743 66.3181 826.221 66.5003 826.828 66.5003C827.557 66.5003 828.165 66.3094 828.651 65.9275L829.562 68.2449C829.18 68.5573 828.712 68.7917 828.156 68.9479C827.601 69.1042 827.028 69.1823 826.438 69.1823ZM819.355 57.8035V55.1997H828.625V57.8035H819.355ZM838.317 69.1823C836.773 69.1823 835.419 68.8785 834.256 68.2709C833.11 67.646 832.216 66.7954 831.574 65.7192C830.949 64.6429 830.636 63.4191 830.636 62.0478C830.636 60.6591 830.94 59.4353 831.548 58.3764C832.172 57.3001 833.023 56.4582 834.099 55.8507C835.193 55.2431 836.434 54.9393 837.823 54.9393C839.177 54.9393 840.383 55.2344 841.442 55.8246C842.501 56.4148 843.334 57.248 843.942 58.3243C844.549 59.4005 844.853 60.6677 844.853 62.1259C844.853 62.2648 844.844 62.421 844.827 62.5946C844.827 62.7682 844.818 62.9331 844.801 63.0893H833.214V60.9281H843.082L841.807 61.6051C841.824 60.8066 841.659 60.1036 841.312 59.496C840.965 58.8885 840.487 58.4111 839.88 58.0639C839.29 57.7167 838.604 57.5431 837.823 57.5431C837.024 57.5431 836.321 57.7167 835.714 58.0639C835.123 58.4111 834.655 58.8971 834.308 59.5221C833.978 60.1296 833.813 60.85 833.813 61.6832V62.204C833.813 63.0372 834.004 63.775 834.386 64.4173C834.768 65.0595 835.306 65.5543 836 65.9014C836.694 66.2486 837.493 66.4222 838.396 66.4222C839.177 66.4222 839.88 66.3007 840.505 66.0577C841.13 65.8146 841.685 65.4328 842.171 64.912L843.916 66.9169C843.291 67.646 842.501 68.2102 841.546 68.6094C840.609 68.9913 839.533 69.1823 838.317 69.1823ZM855.869 54.9393C856.98 54.9393 857.97 55.1563 858.838 55.5903C859.723 56.0242 860.417 56.6926 860.921 57.5952C861.424 58.4805 861.676 59.6262 861.676 61.0323V69H858.421V61.4489C858.421 60.2164 858.126 59.2964 857.536 58.6888C856.963 58.0813 856.156 57.7775 855.114 57.7775C854.35 57.7775 853.673 57.9337 853.083 58.2462C852.493 58.5586 852.033 59.0273 851.703 59.6522C851.391 60.2598 851.234 61.0323 851.234 61.9697V69H847.98V55.0955H851.078V58.8451L850.531 57.6994C851.017 56.8141 851.72 56.1371 852.64 55.6684C853.578 55.1823 854.654 54.9393 855.869 54.9393ZM871.715 69.1823C870.378 69.1823 869.172 68.8872 868.095 68.297C867.036 67.6894 866.203 66.8562 865.596 65.7973C864.988 64.7384 864.684 63.4886 864.684 62.0478C864.684 60.607 864.988 59.3571 865.596 58.2983C866.203 57.2394 867.036 56.4148 868.095 55.8246C869.172 55.2344 870.378 54.9393 871.715 54.9393C872.878 54.9393 873.919 55.1997 874.839 55.7205C875.759 56.2239 876.488 56.9963 877.026 58.0379C877.565 59.0794 877.834 60.416 877.834 62.0478C877.834 63.6621 877.573 64.9988 877.053 66.0577C876.532 67.0992 875.811 67.8804 874.891 68.4011C873.971 68.9219 872.912 69.1823 871.715 69.1823ZM872.105 66.3962C872.886 66.3962 873.581 66.2226 874.188 65.8754C874.813 65.5282 875.308 65.0248 875.673 64.3652C876.054 63.7055 876.245 62.9331 876.245 62.0478C876.245 61.1451 876.054 60.3726 875.673 59.7304C875.308 59.0707 874.813 58.5673 874.188 58.2201C873.581 57.873 872.886 57.6994 872.105 57.6994C871.324 57.6994 870.621 57.873 869.996 58.2201C869.389 58.5673 868.894 59.0707 868.512 59.7304C868.147 60.3726 867.965 61.1451 867.965 62.0478C867.965 62.9331 868.147 63.7055 868.512 64.3652C868.894 65.0248 869.389 65.5282 869.996 65.8754C870.621 66.2226 871.324 66.3962 872.105 66.3962ZM876.323 69V65.7192L876.454 62.0217L876.193 58.3243V49.6796H879.422V69H876.323ZM891.215 69V50.7732H899.182C901.161 50.7732 902.897 51.1551 904.39 51.9189C905.883 52.6827 907.046 53.7416 907.879 55.0955C908.712 56.4495 909.129 58.0466 909.129 59.8866C909.129 61.7093 908.712 63.3063 907.879 64.6776C907.046 66.0316 905.883 67.0905 904.39 67.8543C902.897 68.6181 901.161 69 899.182 69H891.215ZM894.6 66.1358H899.026C900.397 66.1358 901.578 65.8754 902.567 65.3546C903.574 64.8339 904.347 64.1048 904.885 63.1674C905.44 62.23 905.718 61.1364 905.718 59.8866C905.718 58.6194 905.44 57.5258 904.885 56.6058C904.347 55.6684 903.574 54.9393 902.567 54.4185C901.578 53.8978 900.397 53.6374 899.026 53.6374H894.6V66.1358ZM918.95 69.1823C917.405 69.1823 916.051 68.8785 914.888 68.2709C913.742 67.646 912.848 66.7954 912.206 65.7192C911.581 64.6429 911.269 63.4191 911.269 62.0478C911.269 60.6591 911.572 59.4353 912.18 58.3764C912.805 57.3001 913.655 56.4582 914.732 55.8507C915.825 55.2431 917.066 54.9393 918.455 54.9393C919.809 54.9393 921.016 55.2344 922.074 55.8246C923.133 56.4148 923.967 57.248 924.574 58.3243C925.182 59.4005 925.485 60.6677 925.485 62.1259C925.485 62.2648 925.477 62.421 925.459 62.5946C925.459 62.7682 925.451 62.9331 925.433 63.0893H913.846V60.9281H923.715L922.439 61.6051C922.456 60.8066 922.291 60.1036 921.944 59.496C921.597 58.8885 921.12 58.4111 920.512 58.0639C919.922 57.7167 919.236 57.5431 918.455 57.5431C917.657 57.5431 916.954 57.7167 916.346 58.0639C915.756 58.4111 915.287 58.8971 914.94 59.5221C914.61 60.1296 914.445 60.85 914.445 61.6832V62.204C914.445 63.0372 914.636 63.775 915.018 64.4173C915.4 65.0595 915.938 65.5543 916.632 65.9014C917.327 66.2486 918.125 66.4222 919.028 66.4222C919.809 66.4222 920.512 66.3007 921.137 66.0577C921.762 65.8146 922.317 65.4328 922.803 64.912L924.548 66.9169C923.923 67.646 923.133 68.2102 922.179 68.6094C921.241 68.9913 920.165 69.1823 918.95 69.1823ZM932.055 69L926.092 55.0955H929.477L934.607 67.3596H932.94L938.252 55.0955H941.377L935.414 69H932.055ZM949.565 69.1823C948.02 69.1823 946.666 68.8785 945.503 68.2709C944.358 67.646 943.464 66.7954 942.821 65.7192C942.196 64.6429 941.884 63.4191 941.884 62.0478C941.884 60.6591 942.188 59.4353 942.795 58.3764C943.42 57.3001 944.271 56.4582 945.347 55.8507C946.441 55.2431 947.682 54.9393 949.07 54.9393C950.424 54.9393 951.631 55.2344 952.69 55.8246C953.749 56.4148 954.582 57.248 955.189 58.3243C955.797 59.4005 956.101 60.6677 956.101 62.1259C956.101 62.2648 956.092 62.421 956.075 62.5946C956.075 62.7682 956.066 62.9331 956.049 63.0893H944.462V60.9281H954.33L953.054 61.6051C953.072 60.8066 952.907 60.1036 952.56 59.496C952.212 58.8885 951.735 58.4111 951.127 58.0639C950.537 57.7167 949.852 57.5431 949.07 57.5431C948.272 57.5431 947.569 57.7167 946.961 58.0639C946.371 58.4111 945.902 58.8971 945.555 59.5221C945.225 60.1296 945.061 60.85 945.061 61.6832V62.204C945.061 63.0372 945.251 63.775 945.633 64.4173C946.015 65.0595 946.553 65.5543 947.248 65.9014C947.942 66.2486 948.741 66.4222 949.643 66.4222C950.424 66.4222 951.127 66.3007 951.752 66.0577C952.377 65.8146 952.933 65.4328 953.419 64.912L955.163 66.9169C954.538 67.646 953.749 68.2102 952.794 68.6094C951.857 68.9913 950.78 69.1823 949.565 69.1823ZM959.227 69V49.6796H962.482V69H959.227ZM973.003 69.1823C971.58 69.1823 970.312 68.8785 969.202 68.2709C968.091 67.646 967.214 66.7954 966.572 65.7192C965.929 64.6429 965.608 63.4191 965.608 62.0478C965.608 60.6591 965.929 59.4353 966.572 58.3764C967.214 57.3001 968.091 56.4582 969.202 55.8507C970.312 55.2431 971.58 54.9393 973.003 54.9393C974.444 54.9393 975.72 55.2431 976.831 55.8507C977.959 56.4582 978.836 57.2914 979.461 58.3503C980.103 59.4092 980.424 60.6417 980.424 62.0478C980.424 63.4191 980.103 64.6429 979.461 65.7192C978.836 66.7954 977.959 67.646 976.831 68.2709C975.72 68.8785 974.444 69.1823 973.003 69.1823ZM973.003 66.3962C973.802 66.3962 974.513 66.2226 975.138 65.8754C975.763 65.5282 976.249 65.0248 976.596 64.3652C976.961 63.7055 977.143 62.9331 977.143 62.0478C977.143 61.1451 976.961 60.3726 976.596 59.7304C976.249 59.0707 975.763 58.5673 975.138 58.2201C974.513 57.873 973.81 57.6994 973.029 57.6994C972.231 57.6994 971.519 57.873 970.894 58.2201C970.286 58.5673 969.8 59.0707 969.436 59.7304C969.071 60.3726 968.889 61.1451 968.889 62.0478C968.889 62.9331 969.071 63.7055 969.436 64.3652C969.8 65.0248 970.286 65.5282 970.894 65.8754C971.519 66.2226 972.222 66.3962 973.003 66.3962ZM991.244 69.1823C990.115 69.1823 989.083 68.9219 988.145 68.4011C987.225 67.8804 986.487 67.0992 985.932 66.0577C985.394 64.9988 985.125 63.6621 985.125 62.0478C985.125 60.416 985.385 59.0794 985.906 58.0379C986.444 56.9963 987.173 56.2239 988.093 55.7205C989.013 55.1997 990.063 54.9393 991.244 54.9393C992.615 54.9393 993.822 55.2344 994.863 55.8246C995.922 56.4148 996.755 57.2394 997.363 58.2983C997.988 59.3571 998.3 60.607 998.3 62.0478C998.3 63.4886 997.988 64.7471 997.363 65.8233C996.755 66.8822 995.922 67.7068 994.863 68.297C993.822 68.8872 992.615 69.1823 991.244 69.1823ZM983.536 74.0514V55.0955H986.635V58.3764L986.531 62.0738L986.791 65.7712V74.0514H983.536ZM990.879 66.3962C991.66 66.3962 992.355 66.2226 992.962 65.8754C993.587 65.5282 994.082 65.0248 994.446 64.3652C994.811 63.7055 994.993 62.9331 994.993 62.0478C994.993 61.1451 994.811 60.3726 994.446 59.7304C994.082 59.0707 993.587 58.5673 992.962 58.2201C992.355 57.873 991.66 57.6994 990.879 57.6994C990.098 57.6994 989.395 57.873 988.77 58.2201C988.145 58.5673 987.65 59.0707 987.286 59.7304C986.921 60.3726 986.739 61.1451 986.739 62.0478C986.739 62.9331 986.921 63.7055 987.286 64.3652C987.65 65.0248 988.145 65.5282 988.77 65.8754C989.395 66.2226 990.098 66.3962 990.879 66.3962ZM1007.92 69.1823C1006.38 69.1823 1005.02 68.8785 1003.86 68.2709C1002.71 67.646 1001.82 66.7954 1001.18 65.7192C1000.55 64.6429 1000.24 63.4191 1000.24 62.0478C1000.24 60.6591 1000.55 59.4353 1001.15 58.3764C1001.78 57.3001 1002.63 56.4582 1003.7 55.8507C1004.8 55.2431 1006.04 54.9393 1007.43 54.9393C1008.78 54.9393 1009.99 55.2344 1011.05 55.8246C1012.11 56.4148 1012.94 57.248 1013.55 58.3243C1014.15 59.4005 1014.46 60.6677 1014.46 62.1259C1014.46 62.2648 1014.45 62.421 1014.43 62.5946C1014.43 62.7682 1014.42 62.9331 1014.41 63.0893H1002.82V60.9281H1012.69L1011.41 61.6051C1011.43 60.8066 1011.26 60.1036 1010.92 59.496C1010.57 58.8885 1010.09 58.4111 1009.48 58.0639C1008.89 57.7167 1008.21 57.5431 1007.43 57.5431C1006.63 57.5431 1005.93 57.7167 1005.32 58.0639C1004.73 58.4111 1004.26 58.8971 1003.91 59.5221C1003.58 60.1296 1003.42 60.85 1003.42 61.6832V62.204C1003.42 63.0372 1003.61 63.775 1003.99 64.4173C1004.37 65.0595 1004.91 65.5543 1005.61 65.9014C1006.3 66.2486 1007.1 66.4222 1008 66.4222C1008.78 66.4222 1009.48 66.3007 1010.11 66.0577C1010.73 65.8146 1011.29 65.4328 1011.78 64.912L1013.52 66.9169C1012.9 67.646 1012.11 68.2102 1011.15 68.6094C1010.21 68.9913 1009.14 69.1823 1007.92 69.1823ZM1017.58 69V55.0955H1020.68V58.9232L1020.32 57.8035C1020.74 56.8661 1021.39 56.1544 1022.27 55.6684C1023.17 55.1823 1024.29 54.9393 1025.63 54.9393V58.0379C1025.49 58.0032 1025.36 57.9858 1025.24 57.9858C1025.12 57.9684 1025 57.9598 1024.88 57.9598C1023.64 57.9598 1022.66 58.3243 1021.93 59.0534C1021.2 59.7651 1020.84 60.8327 1020.84 62.2561V69H1017.58ZM1036.03 69V50.7732H1039.41V66.1358H1048.94V69H1036.03ZM1059.89 69V66.1879L1059.71 65.589V60.6677C1059.71 59.713 1059.43 58.9753 1058.85 58.4545C1058.28 57.9164 1057.41 57.6473 1056.25 57.6473C1055.47 57.6473 1054.7 57.7688 1053.93 58.0118C1053.18 58.2549 1052.55 58.5934 1052.03 59.0273L1050.75 56.6578C1051.5 56.085 1052.39 55.6597 1053.41 55.382C1054.45 55.0869 1055.53 54.9393 1056.64 54.9393C1058.65 54.9393 1060.21 55.4254 1061.3 56.3975C1062.41 57.3522 1062.97 58.8364 1062.97 60.85V69H1059.89ZM1055.52 69.1823C1054.48 69.1823 1053.57 69.0087 1052.79 68.6615C1052 68.297 1051.4 67.8022 1050.96 67.1773C1050.55 66.535 1050.34 65.8146 1050.34 65.0161C1050.34 64.235 1050.52 63.532 1050.88 62.907C1051.27 62.2821 1051.88 61.7874 1052.73 61.4229C1053.58 61.0583 1054.71 60.876 1056.12 60.876H1060.15V63.0372H1056.35C1055.24 63.0372 1054.5 63.2195 1054.11 63.584C1053.73 63.9312 1053.54 64.3652 1053.54 64.8859C1053.54 65.4761 1053.78 65.9448 1054.24 66.292C1054.71 66.6392 1055.36 66.8128 1056.2 66.8128C1057 66.8128 1057.71 66.6305 1058.33 66.266C1058.97 65.9014 1059.43 65.3633 1059.71 64.6516L1060.26 66.6045C1059.95 67.4203 1059.38 68.0539 1058.57 68.5053C1057.77 68.9566 1056.75 69.1823 1055.52 69.1823ZM1073.03 69.1823C1071.85 69.1823 1070.81 68.9653 1069.9 68.5313C1069 68.08 1068.3 67.403 1067.79 66.5003C1067.29 65.5803 1067.04 64.4259 1067.04 63.0372V55.0955H1070.29V62.5946C1070.29 63.8444 1070.57 64.7818 1071.13 65.4067C1071.7 66.0143 1072.51 66.3181 1073.55 66.3181C1074.31 66.3181 1074.97 66.1618 1075.53 65.8494C1076.1 65.5369 1076.54 65.0682 1076.86 64.4433C1077.19 63.8184 1077.35 63.0459 1077.35 62.1259V55.0955H1080.61V69H1077.51V65.2505L1078.05 66.3962C1077.59 67.2988 1076.9 67.9932 1076 68.4792C1075.09 68.9479 1074.1 69.1823 1073.03 69.1823ZM1084.87 69V55.0955H1087.97V58.9232L1087.6 57.8035C1088.02 56.8661 1088.67 56.1544 1089.55 55.6684C1090.46 55.1823 1091.58 54.9393 1092.91 54.9393V58.0379C1092.77 58.0032 1092.64 57.9858 1092.52 57.9858C1092.4 57.9684 1092.28 57.9598 1092.16 57.9598C1090.93 57.9598 1089.94 58.3243 1089.22 59.0534C1088.49 59.7651 1088.12 60.8327 1088.12 62.2561V69H1084.87ZM1103.25 69V66.1879L1103.07 65.589V60.6677C1103.07 59.713 1102.78 58.9753 1102.21 58.4545C1101.63 57.9164 1100.77 57.6473 1099.6 57.6473C1098.82 57.6473 1098.05 57.7688 1097.29 58.0118C1096.54 58.2549 1095.91 58.5934 1095.39 59.0273L1094.11 56.6578C1094.86 56.085 1095.74 55.6597 1096.77 55.382C1097.81 55.0869 1098.88 54.9393 1099.99 54.9393C1102.01 54.9393 1103.56 55.4254 1104.66 56.3975C1105.77 57.3522 1106.32 58.8364 1106.32 60.85V69H1103.25ZM1098.87 69.1823C1097.83 69.1823 1096.92 69.0087 1096.14 68.6615C1095.36 68.297 1094.75 67.8022 1094.32 67.1773C1093.9 66.535 1093.69 65.8146 1093.69 65.0161C1093.69 64.235 1093.88 63.532 1094.24 62.907C1094.62 62.2821 1095.24 61.7874 1096.09 61.4229C1096.94 61.0583 1098.07 60.876 1099.47 60.876H1103.51V63.0372H1099.71C1098.6 63.0372 1097.85 63.2195 1097.47 63.584C1097.09 63.9312 1096.9 64.3652 1096.9 64.8859C1096.9 65.4761 1097.13 65.9448 1097.6 66.292C1098.07 66.6392 1098.72 66.8128 1099.55 66.8128C1100.35 66.8128 1101.06 66.6305 1101.69 66.266C1102.33 65.9014 1102.79 65.3633 1103.07 64.6516L1103.61 66.6045C1103.3 67.4203 1102.74 68.0539 1101.92 68.5053C1101.12 68.9566 1100.11 69.1823 1098.87 69.1823ZM1118.01 69V50.7732H1121.39V66.1358H1130.92V69H1118.01ZM1133.44 74.2337C1132.76 74.2337 1132.08 74.1209 1131.41 73.8952C1130.73 73.6695 1130.16 73.3571 1129.71 72.9578L1131.01 70.5623C1131.34 70.8574 1131.72 71.0917 1132.13 71.2653C1132.55 71.4389 1132.98 71.5257 1133.41 71.5257C1134 71.5257 1134.48 71.3782 1134.84 71.0831C1135.21 70.788 1135.55 70.2932 1135.86 69.5989L1136.66 67.7762L1136.93 67.3856L1142.18 55.0955H1145.31L1138.8 70.1196C1138.37 71.1612 1137.88 71.9857 1137.34 72.5933C1136.82 73.2008 1136.23 73.6261 1135.57 73.8692C1134.93 74.1122 1134.22 74.2337 1133.44 74.2337ZM1136.3 69.4947L1130.03 55.0955H1133.41L1138.51 67.0992L1136.3 69.4947ZM1153.34 69.1823C1151.88 69.1823 1150.58 68.8785 1149.44 68.2709C1148.31 67.646 1147.42 66.7954 1146.78 65.7192C1146.14 64.6429 1145.82 63.4191 1145.82 62.0478C1145.82 60.6591 1146.14 59.4353 1146.78 58.3764C1147.42 57.3001 1148.31 56.4582 1149.44 55.8507C1150.58 55.2431 1151.88 54.9393 1153.34 54.9393C1154.7 54.9393 1155.88 55.2171 1156.91 55.7725C1157.95 56.3107 1158.74 57.1092 1159.28 58.1681L1156.78 59.6262C1156.36 58.9666 1155.85 58.4805 1155.24 58.1681C1154.65 57.8556 1154.01 57.6994 1153.32 57.6994C1152.52 57.6994 1151.8 57.873 1151.15 58.2201C1150.51 58.5673 1150.01 59.0707 1149.64 59.7304C1149.28 60.3726 1149.1 61.1451 1149.1 62.0478C1149.1 62.9504 1149.28 63.7316 1149.64 64.3912C1150.01 65.0335 1150.51 65.5282 1151.15 65.8754C1151.8 66.2226 1152.52 66.3962 1153.32 66.3962C1154.01 66.3962 1154.65 66.2399 1155.24 65.9275C1155.85 65.615 1156.36 65.129 1156.78 64.4693L1159.28 65.9275C1158.74 66.969 1157.95 67.7762 1156.91 68.349C1155.88 68.9045 1154.7 69.1823 1153.34 69.1823ZM1164.62 65.9014L1164.7 61.8134L1171.96 55.0955H1175.87L1169.7 61.2927L1167.98 62.7248L1164.62 65.9014ZM1161.96 69V49.6796H1165.22V69H1161.96ZM1172.46 69L1167.38 62.7248L1169.44 60.1209L1176.42 69H1172.46ZM1186.41 54.9393C1187.52 54.9393 1188.51 55.1563 1189.38 55.5903C1190.26 56.0242 1190.96 56.6926 1191.46 57.5952C1191.96 58.4805 1192.21 59.6262 1192.21 61.0323V69H1188.96V61.4489C1188.96 60.2164 1188.66 59.2964 1188.07 58.6888C1187.5 58.0813 1186.69 57.7775 1185.65 57.7775C1184.89 57.7775 1184.21 57.9337 1183.62 58.2462C1183.03 58.5586 1182.57 59.0273 1182.24 59.6522C1181.93 60.2598 1181.77 61.0323 1181.77 61.9697V69H1178.52V49.6796H1181.77V58.8451L1181.07 57.6994C1181.56 56.8141 1182.26 56.1371 1183.18 55.6684C1184.12 55.1823 1185.19 54.9393 1186.41 54.9393ZM1202.62 69.1823C1201.19 69.1823 1199.93 68.8785 1198.82 68.2709C1197.71 67.646 1196.83 66.7954 1196.19 65.7192C1195.54 64.6429 1195.22 63.4191 1195.22 62.0478C1195.22 60.6591 1195.54 59.4353 1196.19 58.3764C1196.83 57.3001 1197.71 56.4582 1198.82 55.8507C1199.93 55.2431 1201.19 54.9393 1202.62 54.9393C1204.06 54.9393 1205.33 55.2431 1206.45 55.8507C1207.57 56.4582 1208.45 57.2914 1209.08 58.3503C1209.72 59.4092 1210.04 60.6417 1210.04 62.0478C1210.04 63.4191 1209.72 64.6429 1209.08 65.7192C1208.45 66.7954 1207.57 67.646 1206.45 68.2709C1205.33 68.8785 1204.06 69.1823 1202.62 69.1823ZM1202.62 66.3962C1203.42 66.3962 1204.13 66.2226 1204.75 65.8754C1205.38 65.5282 1205.86 65.0248 1206.21 64.3652C1206.58 63.7055 1206.76 62.9331 1206.76 62.0478C1206.76 61.1451 1206.58 60.3726 1206.21 59.7304C1205.86 59.0707 1205.38 58.5673 1204.75 58.2201C1204.13 57.873 1203.43 57.6994 1202.64 57.6994C1201.85 57.6994 1201.13 57.873 1200.51 58.2201C1199.9 58.5673 1199.42 59.0707 1199.05 59.7304C1198.69 60.3726 1198.5 61.1451 1198.5 62.0478C1198.5 62.9331 1198.69 63.7055 1199.05 64.3652C1199.42 65.0248 1199.9 65.5282 1200.51 65.8754C1201.13 66.2226 1201.84 66.3962 1202.62 66.3962ZM1213.15 69V49.6796H1216.41V69H1213.15ZM1238.23 54.9393C1239.34 54.9393 1240.32 55.1563 1241.17 55.5903C1242.04 56.0242 1242.72 56.6926 1243.2 57.5952C1243.69 58.4805 1243.93 59.6262 1243.93 61.0323V69H1240.68V61.4489C1240.68 60.2164 1240.41 59.2964 1239.87 58.6888C1239.33 58.0813 1238.56 57.7775 1237.55 57.7775C1236.84 57.7775 1236.21 57.9337 1235.65 58.2462C1235.11 58.5586 1234.69 59.0186 1234.37 59.6262C1234.08 60.2338 1233.93 61.0062 1233.93 61.9436V69H1230.68V61.4489C1230.68 60.2164 1230.41 59.2964 1229.87 58.6888C1229.33 58.0813 1228.56 57.7775 1227.55 57.7775C1226.84 57.7775 1226.21 57.9337 1225.65 58.2462C1225.11 58.5586 1224.69 59.0186 1224.38 59.6262C1224.08 60.2338 1223.93 61.0062 1223.93 61.9436V69H1220.68V55.0955H1223.78V58.793L1223.23 57.6994C1223.7 56.7967 1224.38 56.111 1225.26 55.6423C1226.16 55.1737 1227.19 54.9393 1228.33 54.9393C1229.64 54.9393 1230.76 55.2605 1231.72 55.9027C1232.69 56.545 1233.33 57.5171 1233.65 58.819L1232.37 58.3764C1232.82 57.3348 1233.57 56.5016 1234.61 55.8767C1235.65 55.2518 1236.86 54.9393 1238.23 54.9393ZM1256.85 63.9225C1256.26 63.9225 1255.75 63.7229 1255.34 63.3236C1254.92 62.9244 1254.71 62.3949 1254.71 61.7353C1254.71 61.093 1254.92 60.5723 1255.34 60.173C1255.75 59.7738 1256.26 59.5741 1256.85 59.5741C1257.47 59.5741 1257.99 59.7738 1258.38 60.173C1258.78 60.5723 1258.98 61.093 1258.98 61.7353C1258.98 62.3949 1258.78 62.9244 1258.38 63.3236C1257.99 63.7229 1257.47 63.9225 1256.85 63.9225ZM1273.29 59.1575H1282.38V62.0217H1273.29V59.1575ZM1273.58 69H1270.19V50.7732H1283.5V53.6114H1273.58V69ZM1286.21 69V55.0955H1289.3V58.9232L1288.94 57.8035C1289.36 56.8661 1290.01 56.1544 1290.89 55.6684C1291.8 55.1823 1292.92 54.9393 1294.25 54.9393V58.0379C1294.11 58.0032 1293.98 57.9858 1293.86 57.9858C1293.74 57.9684 1293.62 57.9598 1293.5 57.9598C1292.26 57.9598 1291.28 58.3243 1290.55 59.0534C1289.83 59.7651 1289.46 60.8327 1289.46 62.2561V69H1286.21ZM1303.14 69.1823C1301.71 69.1823 1300.44 68.8785 1299.33 68.2709C1298.22 67.646 1297.35 66.7954 1296.7 65.7192C1296.06 64.6429 1295.74 63.4191 1295.74 62.0478C1295.74 60.6591 1296.06 59.4353 1296.7 58.3764C1297.35 57.3001 1298.22 56.4582 1299.33 55.8507C1300.44 55.2431 1301.71 54.9393 1303.14 54.9393C1304.58 54.9393 1305.85 55.2431 1306.96 55.8507C1308.09 56.4582 1308.97 57.2914 1309.59 58.3503C1310.24 59.4092 1310.56 60.6417 1310.56 62.0478C1310.56 63.4191 1310.24 64.6429 1309.59 65.7192C1308.97 66.7954 1308.09 67.646 1306.96 68.2709C1305.85 68.8785 1304.58 69.1823 1303.14 69.1823ZM1303.14 66.3962C1303.93 66.3962 1304.65 66.2226 1305.27 65.8754C1305.9 65.5282 1306.38 65.0248 1306.73 64.3652C1307.09 63.7055 1307.28 62.9331 1307.28 62.0478C1307.28 61.1451 1307.09 60.3726 1306.73 59.7304C1306.38 59.0707 1305.9 58.5673 1305.27 58.2201C1304.65 57.873 1303.94 57.6994 1303.16 57.6994C1302.36 57.6994 1301.65 57.873 1301.03 58.2201C1300.42 58.5673 1299.93 59.0707 1299.57 59.7304C1299.2 60.3726 1299.02 61.1451 1299.02 62.0478C1299.02 62.9331 1299.2 63.7055 1299.57 64.3652C1299.93 65.0248 1300.42 65.5282 1301.03 65.8754C1301.65 66.2226 1302.35 66.3962 1303.14 66.3962ZM1321.56 54.9393C1322.67 54.9393 1323.66 55.1563 1324.53 55.5903C1325.41 56.0242 1326.11 56.6926 1326.61 57.5952C1327.11 58.4805 1327.36 59.6262 1327.36 61.0323V69H1324.11V61.4489C1324.11 60.2164 1323.81 59.2964 1323.22 58.6888C1322.65 58.0813 1321.84 57.7775 1320.8 57.7775C1320.04 57.7775 1319.36 57.9337 1318.77 58.2462C1318.18 58.5586 1317.72 59.0273 1317.39 59.6522C1317.08 60.2598 1316.92 61.0323 1316.92 61.9697V69H1313.67V55.0955H1316.77V58.8451L1316.22 57.6994C1316.71 56.8141 1317.41 56.1371 1318.33 55.6684C1319.27 55.1823 1320.34 54.9393 1321.56 54.9393ZM1336.73 69.1823C1335.2 69.1823 1334.02 68.7917 1333.19 68.0105C1332.35 67.212 1331.94 66.0403 1331.94 64.4954V52.023H1335.19V64.4173C1335.19 65.0769 1335.36 65.589 1335.69 65.9535C1336.03 66.3181 1336.51 66.5003 1337.12 66.5003C1337.85 66.5003 1338.45 66.3094 1338.94 65.9275L1339.85 68.2449C1339.47 68.5573 1339 68.7917 1338.45 68.9479C1337.89 69.1042 1337.32 69.1823 1336.73 69.1823ZM1329.64 57.8035V55.1997H1338.91V57.8035H1329.64ZM1348.61 69.1823C1347.06 69.1823 1345.71 68.8785 1344.55 68.2709C1343.4 67.646 1342.51 66.7954 1341.86 65.7192C1341.24 64.6429 1340.93 63.4191 1340.93 62.0478C1340.93 60.6591 1341.23 59.4353 1341.84 58.3764C1342.46 57.3001 1343.31 56.4582 1344.39 55.8507C1345.48 55.2431 1346.72 54.9393 1348.11 54.9393C1349.47 54.9393 1350.67 55.2344 1351.73 55.8246C1352.79 56.4148 1353.62 57.248 1354.23 58.3243C1354.84 59.4005 1355.14 60.6677 1355.14 62.1259C1355.14 62.2648 1355.13 62.421 1355.12 62.5946C1355.12 62.7682 1355.11 62.9331 1355.09 63.0893H1343.5V60.9281H1353.37L1352.1 61.6051C1352.11 60.8066 1351.95 60.1036 1351.6 59.496C1351.25 58.8885 1350.78 58.4111 1350.17 58.0639C1349.58 57.7167 1348.89 57.5431 1348.11 57.5431C1347.31 57.5431 1346.61 57.7167 1346 58.0639C1345.41 58.4111 1344.94 58.8971 1344.6 59.5221C1344.27 60.1296 1344.1 60.85 1344.1 61.6832V62.204C1344.1 63.0372 1344.29 63.775 1344.68 64.4173C1345.06 65.0595 1345.6 65.5543 1346.29 65.9014C1346.98 66.2486 1347.78 66.4222 1348.69 66.4222C1349.47 66.4222 1350.17 66.3007 1350.79 66.0577C1351.42 65.8146 1351.97 65.4328 1352.46 64.912L1354.21 66.9169C1353.58 67.646 1352.79 68.2102 1351.84 68.6094C1350.9 68.9913 1349.82 69.1823 1348.61 69.1823ZM1366.16 54.9393C1367.27 54.9393 1368.26 55.1563 1369.13 55.5903C1370.01 56.0242 1370.71 56.6926 1371.21 57.5952C1371.71 58.4805 1371.97 59.6262 1371.97 61.0323V69H1368.71V61.4489C1368.71 60.2164 1368.42 59.2964 1367.83 58.6888C1367.25 58.0813 1366.45 57.7775 1365.4 57.7775C1364.64 57.7775 1363.96 57.9337 1363.37 58.2462C1362.78 58.5586 1362.32 59.0273 1361.99 59.6522C1361.68 60.2598 1361.52 61.0323 1361.52 61.9697V69H1358.27V55.0955H1361.37V58.8451L1360.82 57.6994C1361.31 56.8141 1362.01 56.1371 1362.93 55.6684C1363.87 55.1823 1364.94 54.9393 1366.16 54.9393ZM1382 69.1823C1380.67 69.1823 1379.46 68.8872 1378.39 68.297C1377.33 67.6894 1376.49 66.8562 1375.89 65.7973C1375.28 64.7384 1374.97 63.4886 1374.97 62.0478C1374.97 60.607 1375.28 59.3571 1375.89 58.2983C1376.49 57.2394 1377.33 56.4148 1378.39 55.8246C1379.46 55.2344 1380.67 54.9393 1382 54.9393C1383.17 54.9393 1384.21 55.1997 1385.13 55.7205C1386.05 56.2239 1386.78 56.9963 1387.32 58.0379C1387.85 59.0794 1388.12 60.416 1388.12 62.0478C1388.12 63.6621 1387.86 64.9988 1387.34 66.0577C1386.82 67.0992 1386.1 67.8804 1385.18 68.4011C1384.26 68.9219 1383.2 69.1823 1382 69.1823ZM1382.4 66.3962C1383.18 66.3962 1383.87 66.2226 1384.48 65.8754C1385.1 65.5282 1385.6 65.0248 1385.96 64.3652C1386.34 63.7055 1386.54 62.9331 1386.54 62.0478C1386.54 61.1451 1386.34 60.3726 1385.96 59.7304C1385.6 59.0707 1385.1 58.5673 1384.48 58.2201C1383.87 57.873 1383.18 57.6994 1382.4 57.6994C1381.61 57.6994 1380.91 57.873 1380.29 58.2201C1379.68 58.5673 1379.18 59.0707 1378.8 59.7304C1378.44 60.3726 1378.26 61.1451 1378.26 62.0478C1378.26 62.9331 1378.44 63.7055 1378.8 64.3652C1379.18 65.0248 1379.68 65.5282 1380.29 65.8754C1380.91 66.2226 1381.61 66.3962 1382.4 66.3962ZM1386.61 69V65.7192L1386.74 62.0217L1386.48 58.3243V49.6796H1389.71V69H1386.61ZM1401.5 69V50.7732H1409.47C1411.45 50.7732 1413.19 51.1551 1414.68 51.9189C1416.17 52.6827 1417.34 53.7416 1418.17 55.0955C1419 56.4495 1419.42 58.0466 1419.42 59.8866C1419.42 61.7093 1419 63.3063 1418.17 64.6776C1417.34 66.0316 1416.17 67.0905 1414.68 67.8543C1413.19 68.6181 1411.45 69 1409.47 69H1401.5ZM1404.89 66.1358H1409.32C1410.69 66.1358 1411.87 65.8754 1412.86 65.3546C1413.86 64.8339 1414.64 64.1048 1415.17 63.1674C1415.73 62.23 1416.01 61.1364 1416.01 59.8866C1416.01 58.6194 1415.73 57.5258 1415.17 56.6058C1414.64 55.6684 1413.86 54.9393 1412.86 54.4185C1411.87 53.8978 1410.69 53.6374 1409.32 53.6374H1404.89V66.1358ZM1429.24 69.1823C1427.69 69.1823 1426.34 68.8785 1425.18 68.2709C1424.03 67.646 1423.14 66.7954 1422.5 65.7192C1421.87 64.6429 1421.56 63.4191 1421.56 62.0478C1421.56 60.6591 1421.86 59.4353 1422.47 58.3764C1423.09 57.3001 1423.95 56.4582 1425.02 55.8507C1426.12 55.2431 1427.36 54.9393 1428.74 54.9393C1430.1 54.9393 1431.31 55.2344 1432.36 55.8246C1433.42 56.4148 1434.26 57.248 1434.86 58.3243C1435.47 59.4005 1435.78 60.6677 1435.78 62.1259C1435.78 62.2648 1435.77 62.421 1435.75 62.5946C1435.75 62.7682 1435.74 62.9331 1435.72 63.0893H1424.14V60.9281H1434L1432.73 61.6051C1432.75 60.8066 1432.58 60.1036 1432.23 59.496C1431.89 58.8885 1431.41 58.4111 1430.8 58.0639C1430.21 57.7167 1429.53 57.5431 1428.74 57.5431C1427.95 57.5431 1427.24 57.7167 1426.64 58.0639C1426.05 58.4111 1425.58 58.8971 1425.23 59.5221C1424.9 60.1296 1424.73 60.85 1424.73 61.6832V62.204C1424.73 63.0372 1424.93 63.775 1425.31 64.4173C1425.69 65.0595 1426.23 65.5543 1426.92 65.9014C1427.62 66.2486 1428.42 66.4222 1429.32 66.4222C1430.1 66.4222 1430.8 66.3007 1431.43 66.0577C1432.05 65.8146 1432.61 65.4328 1433.09 64.912L1434.84 66.9169C1434.21 67.646 1433.42 68.2102 1432.47 68.6094C1431.53 68.9913 1430.45 69.1823 1429.24 69.1823ZM1442.34 69L1436.38 55.0955H1439.77L1444.9 67.3596H1443.23L1448.54 55.0955H1451.67L1445.7 69H1442.34ZM1459.85 69.1823C1458.31 69.1823 1456.96 68.8785 1455.79 68.2709C1454.65 67.646 1453.75 66.7954 1453.11 65.7192C1452.49 64.6429 1452.17 63.4191 1452.17 62.0478C1452.17 60.6591 1452.48 59.4353 1453.09 58.3764C1453.71 57.3001 1454.56 56.4582 1455.64 55.8507C1456.73 55.2431 1457.97 54.9393 1459.36 54.9393C1460.71 54.9393 1461.92 55.2344 1462.98 55.8246C1464.04 56.4148 1464.87 57.248 1465.48 58.3243C1466.09 59.4005 1466.39 60.6677 1466.39 62.1259C1466.39 62.2648 1466.38 62.421 1466.36 62.5946C1466.36 62.7682 1466.36 62.9331 1466.34 63.0893H1454.75V60.9281H1464.62L1463.34 61.6051C1463.36 60.8066 1463.2 60.1036 1462.85 59.496C1462.5 58.8885 1462.02 58.4111 1461.42 58.0639C1460.83 57.7167 1460.14 57.5431 1459.36 57.5431C1458.56 57.5431 1457.86 57.7167 1457.25 58.0639C1456.66 58.4111 1456.19 58.8971 1455.85 59.5221C1455.52 60.1296 1455.35 60.85 1455.35 61.6832V62.204C1455.35 63.0372 1455.54 63.775 1455.92 64.4173C1456.31 65.0595 1456.84 65.5543 1457.54 65.9014C1458.23 66.2486 1459.03 66.4222 1459.93 66.4222C1460.71 66.4222 1461.42 66.3007 1462.04 66.0577C1462.67 65.8146 1463.22 65.4328 1463.71 64.912L1465.45 66.9169C1464.83 67.646 1464.04 68.2102 1463.08 68.6094C1462.15 68.9913 1461.07 69.1823 1459.85 69.1823ZM1469.52 69V49.6796H1472.77V69H1469.52ZM1483.29 69.1823C1481.87 69.1823 1480.6 68.8785 1479.49 68.2709C1478.38 67.646 1477.5 66.7954 1476.86 65.7192C1476.22 64.6429 1475.9 63.4191 1475.9 62.0478C1475.9 60.6591 1476.22 59.4353 1476.86 58.3764C1477.5 57.3001 1478.38 56.4582 1479.49 55.8507C1480.6 55.2431 1481.87 54.9393 1483.29 54.9393C1484.73 54.9393 1486.01 55.2431 1487.12 55.8507C1488.25 56.4582 1489.13 57.2914 1489.75 58.3503C1490.39 59.4092 1490.71 60.6417 1490.71 62.0478C1490.71 63.4191 1490.39 64.6429 1489.75 65.7192C1489.13 66.7954 1488.25 67.646 1487.12 68.2709C1486.01 68.8785 1484.73 69.1823 1483.29 69.1823ZM1483.29 66.3962C1484.09 66.3962 1484.8 66.2226 1485.43 65.8754C1486.05 65.5282 1486.54 65.0248 1486.89 64.3652C1487.25 63.7055 1487.43 62.9331 1487.43 62.0478C1487.43 61.1451 1487.25 60.3726 1486.89 59.7304C1486.54 59.0707 1486.05 58.5673 1485.43 58.2201C1484.8 57.873 1484.1 57.6994 1483.32 57.6994C1482.52 57.6994 1481.81 57.873 1481.18 58.2201C1480.58 58.5673 1480.09 59.0707 1479.73 59.7304C1479.36 60.3726 1479.18 61.1451 1479.18 62.0478C1479.18 62.9331 1479.36 63.7055 1479.73 64.3652C1480.09 65.0248 1480.58 65.5282 1481.18 65.8754C1481.81 66.2226 1482.51 66.3962 1483.29 66.3962ZM1501.53 69.1823C1500.41 69.1823 1499.37 68.9219 1498.43 68.4011C1497.51 67.8804 1496.78 67.0992 1496.22 66.0577C1495.68 64.9988 1495.41 63.6621 1495.41 62.0478C1495.41 60.416 1495.67 59.0794 1496.2 58.0379C1496.73 56.9963 1497.46 56.2239 1498.38 55.7205C1499.3 55.1997 1500.35 54.9393 1501.53 54.9393C1502.9 54.9393 1504.11 55.2344 1505.15 55.8246C1506.21 56.4148 1507.04 57.2394 1507.65 58.2983C1508.28 59.3571 1508.59 60.607 1508.59 62.0478C1508.59 63.4886 1508.28 64.7471 1507.65 65.8233C1507.04 66.8822 1506.21 67.7068 1505.15 68.297C1504.11 68.8872 1502.9 69.1823 1501.53 69.1823ZM1493.83 74.0514V55.0955H1496.92V58.3764L1496.82 62.0738L1497.08 65.7712V74.0514H1493.83ZM1501.17 66.3962C1501.95 66.3962 1502.64 66.2226 1503.25 65.8754C1503.88 65.5282 1504.37 65.0248 1504.74 64.3652C1505.1 63.7055 1505.28 62.9331 1505.28 62.0478C1505.28 61.1451 1505.1 60.3726 1504.74 59.7304C1504.37 59.0707 1503.88 58.5673 1503.25 58.2201C1502.64 57.873 1501.95 57.6994 1501.17 57.6994C1500.39 57.6994 1499.68 57.873 1499.06 58.2201C1498.43 58.5673 1497.94 59.0707 1497.58 59.7304C1497.21 60.3726 1497.03 61.1451 1497.03 62.0478C1497.03 62.9331 1497.21 63.7055 1497.58 64.3652C1497.94 65.0248 1498.43 65.5282 1499.06 65.8754C1499.68 66.2226 1500.39 66.3962 1501.17 66.3962ZM1518.21 69.1823C1516.67 69.1823 1515.31 68.8785 1514.15 68.2709C1513 67.646 1512.11 66.7954 1511.47 65.7192C1510.84 64.6429 1510.53 63.4191 1510.53 62.0478C1510.53 60.6591 1510.83 59.4353 1511.44 58.3764C1512.07 57.3001 1512.92 56.4582 1513.99 55.8507C1515.09 55.2431 1516.33 54.9393 1517.72 54.9393C1519.07 54.9393 1520.28 55.2344 1521.34 55.8246C1522.4 56.4148 1523.23 57.248 1523.84 58.3243C1524.44 59.4005 1524.75 60.6677 1524.75 62.1259C1524.75 62.2648 1524.74 62.421 1524.72 62.5946C1524.72 62.7682 1524.71 62.9331 1524.7 63.0893H1513.11V60.9281H1522.98L1521.7 61.6051C1521.72 60.8066 1521.55 60.1036 1521.21 59.496C1520.86 58.8885 1520.38 58.4111 1519.77 58.0639C1519.18 57.7167 1518.5 57.5431 1517.72 57.5431C1516.92 57.5431 1516.22 57.7167 1515.61 58.0639C1515.02 58.4111 1514.55 58.8971 1514.2 59.5221C1513.87 60.1296 1513.71 60.85 1513.71 61.6832V62.204C1513.71 63.0372 1513.9 63.775 1514.28 64.4173C1514.66 65.0595 1515.2 65.5543 1515.89 65.9014C1516.59 66.2486 1517.39 66.4222 1518.29 66.4222C1519.07 66.4222 1519.77 66.3007 1520.4 66.0577C1521.02 65.8146 1521.58 65.4328 1522.07 64.912L1523.81 66.9169C1523.19 67.646 1522.4 68.2102 1521.44 68.6094C1520.5 68.9913 1519.43 69.1823 1518.21 69.1823ZM1527.87 69V55.0955H1530.97V58.9232L1530.61 57.8035C1531.03 56.8661 1531.68 56.1544 1532.56 55.6684C1533.46 55.1823 1534.58 54.9393 1535.92 54.9393V58.0379C1535.78 58.0032 1535.65 57.9858 1535.53 57.9858C1535.41 57.9684 1535.29 57.9598 1535.17 57.9598C1533.93 57.9598 1532.95 58.3243 1532.22 59.0534C1531.49 59.7651 1531.13 60.8327 1531.13 62.2561V69H1527.87Z" fill="white"/>
</svg>
