<svg width="50" height="50" viewBox="0 0 50 50" fill="none" xmlns="http://www.w3.org/2000/svg">
<path d="M24.5786 9.25402L23.1644 10.6848C22.8297 11.0234 22.8297 11.5724 23.1644 11.9111L34.2451 23.1212H9.85714C9.38379 23.1212 9 23.5094 9 23.9883V26.0117C9 26.4906 9.38379 26.8788 9.85714 26.8788H34.2451L23.1644 38.0889C22.8297 38.4276 22.8297 38.9766 23.1644 39.3153L24.5786 40.746C24.9134 41.0847 25.4561 41.0847 25.7909 40.746L40.749 25.6132C41.0837 25.2746 41.0837 24.7255 40.749 24.3868L25.7908 9.25402C25.4561 8.91533 24.9134 8.91533 24.5786 9.25402Z" fill="#333333"/>
</svg>
