<svg width="291" height="238" viewBox="0 0 291 238" fill="none" xmlns="http://www.w3.org/2000/svg">
<path d="M26.1733 52.8887C19.8637 52.8887 14.1289 55.2483 9.59385 59.0091L113.448 156.316C116.592 159.262 121.408 159.262 124.552 156.316L228.406 59.0091C223.871 55.2483 218.136 52.8887 211.827 52.8887H26.1733ZM1.78189 69.8167C0.677573 72.7034 0 75.8016 0 79.062V211.826C0 214.561 0.540789 217.154 1.32996 219.638L75.6662 139.04L1.78189 69.8167ZM236.218 69.8167L162.179 139.182L235.314 223.112C236.98 219.677 238 215.878 238 211.826C238 167.572 238 123.317 238 79.062C238 75.8016 237.322 72.7034 236.218 69.8167V69.8167ZM85.3118 148.065L8.70293 231.143C13.3535 235.355 19.4504 238 26.1733 238H211.827C217.329 238 222.435 236.248 226.663 233.313L152.52 148.22L133.591 165.962C125.43 173.607 112.57 173.607 104.409 165.962L85.3118 148.065Z" fill="#F5F4F0"/>
<path d="M79.3331 0C64.7973 0 52.8887 11.9086 52.8887 26.4444V33.0556C52.8887 34.8089 53.5852 36.4905 54.825 37.7303C56.0648 38.9701 57.7464 39.6667 59.4998 39.6667C61.2532 39.6667 62.9347 38.9701 64.1745 37.7303C65.4144 36.4905 66.1109 34.8089 66.1109 33.0556V26.4444C66.1109 19.005 71.8936 13.2222 79.3331 13.2222H264.444C271.884 13.2222 277.666 19.005 277.666 26.4444V158.667C277.666 166.106 271.884 171.889 264.444 171.889H257.833C256.08 171.889 254.398 172.585 253.158 173.825C251.919 175.065 251.222 176.747 251.222 178.5C251.222 180.253 251.919 181.935 253.158 183.175C254.398 184.415 256.08 185.111 257.833 185.111H264.444C278.98 185.111 290.889 173.203 290.889 158.667V26.4444C290.889 11.9086 278.98 0 264.444 0H79.3331Z" fill="#F5F4F0"/>
</svg>
