<svg width="156" height="238" viewBox="0 0 156 238" fill="none" xmlns="http://www.w3.org/2000/svg">
<path d="M139.521 0H16.0449C7.2086 0 0 7.2086 0 16.0449V221.955C0 230.791 7.2086 238 16.0449 238H139.521C148.358 238 155.566 230.791 155.566 221.955V16.0449C155.566 7.2086 148.358 0 139.521 0ZM77.5506 227.362C71.5046 227.362 66.6214 222.478 66.6214 216.432C66.6214 210.386 71.5046 205.503 77.5506 205.503C83.5965 205.503 88.4797 210.386 88.4797 216.432C88.4797 222.42 83.5965 227.362 77.5506 227.362ZM142.544 196.958H13.022V29.9971H142.486V196.958H142.544Z" fill="#F5F4F0"/>
</svg>
