<svg width="138" height="138" viewBox="0 0 138 138" fill="none" xmlns="http://www.w3.org/2000/svg">
<path d="M33.824 99.16H31.232V111H38.496V108.6H33.824V99.16ZM43.3744 111.208C45.5664 111.208 47.1504 110.072 47.4384 108.296H45.1824C45.0064 108.872 44.3504 109.208 43.4224 109.208C42.3344 109.208 41.7424 108.712 41.5984 107.656L47.4064 107.624V107C47.4064 104.392 45.8384 102.744 43.3264 102.744C40.9104 102.744 39.2304 104.488 39.2304 106.984C39.2304 109.448 40.9584 111.208 43.3744 111.208ZM43.3424 104.744C44.3344 104.744 44.9584 105.288 44.9584 106.136H41.6304C41.8224 105.176 42.3664 104.744 43.3424 104.744ZM52.0194 111V105.048H53.5394V103H52.0194V100.52H49.5554V103H48.0354V105.048H49.5554V111H52.0194ZM54.0708 108.472C54.0708 110.088 55.3988 111.208 57.5108 111.208C59.5908 111.208 61.0468 110.168 61.0468 108.456C61.0468 107.176 60.3268 106.568 59.0148 106.28L57.5268 105.96C56.9668 105.832 56.6628 105.624 56.6628 105.256C56.6628 104.824 57.0148 104.536 57.5748 104.536C58.1668 104.536 58.5028 104.904 58.5028 105.448H60.8388C60.8388 103.832 59.5428 102.744 57.6868 102.744C55.7668 102.744 54.3428 103.704 54.3428 105.368C54.3428 106.776 55.0628 107.416 56.5348 107.736L58.0068 108.056C58.5988 108.184 58.7268 108.44 58.7268 108.68C58.7268 109.096 58.3748 109.368 57.6068 109.368C56.8548 109.368 56.4388 109.032 56.4068 108.472H54.0708ZM65.9926 108.472C65.9926 110.088 67.3206 111.208 69.4326 111.208C71.5126 111.208 72.9686 110.168 72.9686 108.456C72.9686 107.176 72.2486 106.568 70.9366 106.28L69.4486 105.96C68.8886 105.832 68.5846 105.624 68.5846 105.256C68.5846 104.824 68.9366 104.536 69.4966 104.536C70.0886 104.536 70.4246 104.904 70.4246 105.448H72.7606C72.7606 103.832 71.4646 102.744 69.6086 102.744C67.6886 102.744 66.2646 103.704 66.2646 105.368C66.2646 106.776 66.9846 107.416 68.4566 107.736L69.9286 108.056C70.5206 108.184 70.6486 108.44 70.6486 108.68C70.6486 109.096 70.2966 109.368 69.5286 109.368C68.7766 109.368 68.3606 109.032 68.3286 108.472H65.9926ZM73.8241 106.968C73.8241 109.528 75.4561 111.208 77.9841 111.208C80.2241 111.208 81.8561 109.832 82.0161 107.816H79.5361C79.3761 108.6 78.8481 109 77.9841 109C76.9281 109 76.3041 108.248 76.3041 106.968C76.3041 105.736 76.9761 104.952 78.0161 104.952C78.8641 104.952 79.3601 105.336 79.5361 106.136H82.0161C81.8561 104.04 80.2881 102.744 77.9201 102.744C75.5201 102.744 73.8241 104.504 73.8241 106.968ZM88.8695 103C88.5335 102.92 88.2135 102.888 87.9255 102.888C86.8535 102.888 86.1495 103.416 85.8135 104.2L85.6855 103.016H83.3655V111H85.8295V107.528C85.8295 105.944 86.6775 105.32 88.0855 105.32H88.8695V103ZM89.4491 106.984C89.4491 109.512 91.3051 111.192 93.8651 111.192C96.4091 111.192 98.2651 109.512 98.2651 106.984C98.2651 104.456 96.4091 102.76 93.8651 102.76C91.3051 102.76 89.4491 104.456 89.4491 106.984ZM91.9291 106.968C91.9291 105.768 92.7131 104.968 93.8651 104.968C95.0011 104.968 95.7851 105.768 95.7851 106.968C95.7851 108.184 95.0011 108.984 93.8651 108.984C92.7131 108.984 91.9291 108.184 91.9291 106.968ZM102.158 111V98.936H99.6936V111H102.158ZM106.47 111V98.936H104.006V111H106.47Z" fill="#0B24F5"/>
<rect x="31" y="116" width="76" height="3" fill="#0B24F5"/>
<path d="M78 57.5L68.5 67M68.5 67L59 57.5M68.5 67L68.5 37" stroke="#0B24F5" stroke-width="3" stroke-linecap="round" stroke-linejoin="round"/>
</svg>
