<svg width="199" height="199" viewBox="0 0 199 199" fill="none" xmlns="http://www.w3.org/2000/svg">
<g clip-path="url(#clip0_1_2)">
<rect width="199" height="199" fill="white"/>
<path fill-rule="evenodd" clip-rule="evenodd" d="M99.5 0C44.5529 0 0 45.6658 0 102.037C0 147.126 28.5174 185.329 68.0509 198.833C73.0259 199.766 74.8471 196.612 74.8471 193.902C74.8471 191.459 74.7583 185.062 74.7138 176.533C47.0404 182.708 41.177 162.851 41.177 162.851C36.6462 151.079 30.1165 147.925 30.1165 147.925C21.0993 141.573 30.7828 141.706 30.7828 141.706C40.7772 142.417 46.0188 152.234 46.0188 152.234C54.9027 167.826 69.2946 163.34 74.9804 160.719C75.8688 154.144 78.4451 149.613 81.2879 147.081C59.2114 144.505 35.9799 135.754 35.9799 96.6622C35.9799 85.5123 39.8444 76.4058 46.1964 69.2983C45.1748 66.7218 41.7545 56.3271 47.1737 42.2897C47.1737 42.2897 55.5246 39.5356 74.5362 52.7289C82.4873 50.4634 90.9714 49.3528 99.4556 49.3084C107.895 49.3528 116.424 50.4634 124.375 52.7289C143.387 39.5356 151.693 42.2897 151.693 42.2897C157.112 56.3271 153.692 66.7218 152.67 69.2983C159.022 76.4502 162.887 85.5567 162.887 96.6622C162.887 135.842 139.611 144.46 117.446 146.992C120.999 150.146 124.197 156.365 124.197 165.872C124.197 179.509 124.064 190.526 124.064 193.858C124.064 196.567 125.841 199.766 130.905 198.744C170.527 185.284 199 147.081 199 102.037C199 45.6658 154.447 0 99.5 0Z" fill="#262525"/>
</g>
<defs>
<clipPath id="clip0_1_2">
<rect width="199" height="199" fill="white"/>
</clipPath>
</defs>
</svg>
