<?xml version="1.0" encoding="UTF-8"?>
<svg xmlns="http://www.w3.org/2000/svg" xmlns:xlink="http://www.w3.org/1999/xlink" viewBox="0 0 100 100" width="100px" height="100px">
<g id="surface238629169">
<path style=" stroke:none;fill-rule:nonzero;fill:rgb(100%,100%,100%);fill-opacity:1;" d="M 50 4 C 24.601562 4 4 24.601562 4 50 C 4 75.398438 24.601562 96 50 96 C 75.398438 96 96 75.398438 96 50 C 96 24.601562 75.398438 4 50 4 Z M 38 70 C 38 71.199219 37.199219 72 36 72 L 28 72 C 26.800781 72 26 71.199219 26 70 L 26 40 C 26 38.800781 26.800781 38 28 38 L 36 38 C 37.199219 38 38 38.800781 38 40 Z M 32 36 C 28.800781 36 26 33.199219 26 30 C 26 26.800781 28.800781 24 32 24 C 35.199219 24 38 26.800781 38 30 C 38 33.199219 35.199219 36 32 36 Z M 76 70 C 76 71.199219 75.199219 72 74 72 L 66 72 C 64.800781 72 64 71.199219 64 70 L 64 55 C 64 52.199219 61.800781 50 59 50 C 56.199219 50 54 52.199219 54 55 L 54 70 C 54 71.199219 53.199219 72 52 72 L 44 72 C 42.800781 72 42 71.199219 42 70 L 42 40 C 42 38.800781 42.800781 38 44 38 L 52 38 C 53 38 54 39 54 40 C 56.199219 38.800781 58.398438 38 61 38 C 69.199219 38 76 44.800781 76 53 Z M 76 70 "/>
</g>
</svg>
