<?xml version="1.0" encoding="UTF-8" standalone="no"?>
<svg
   xmlns:dc="http://purl.org/dc/elements/1.1/"
   xmlns:cc="http://creativecommons.org/ns#"
   xmlns:rdf="http://www.w3.org/1999/02/22-rdf-syntax-ns#"
   xmlns:svg="http://www.w3.org/2000/svg"
   xmlns="http://www.w3.org/2000/svg"
   xmlns:sodipodi="http://sodipodi.sourceforge.net/DTD/sodipodi-0.dtd"
   xmlns:inkscape="http://www.inkscape.org/namespaces/inkscape"
   width="23"
   height="34"
   viewBox="0 0 23 34"
   fill="none"
   version="1.1"
   id="svg12"
   sodipodi:docname="Arrowpicture.svg"
   inkscape:version="1.0.2 (e86c8708, 2021-01-15)">
  <metadata
     id="metadata18">
    <rdf:RDF>
      <cc:Work
         rdf:about="">
        <dc:format>image/svg+xml</dc:format>
        <dc:type
           rdf:resource="http://purl.org/dc/dcmitype/StillImage" />
      </cc:Work>
    </rdf:RDF>
  </metadata>
  <defs
     id="defs16" />
  <sodipodi:namedview
     pagecolor="#ffffff"
     bordercolor="#666666"
     borderopacity="1"
     objecttolerance="10"
     gridtolerance="10"
     guidetolerance="10"
     inkscape:pageopacity="0"
     inkscape:pageshadow="2"
     inkscape:window-width="1416"
     inkscape:window-height="808"
     id="namedview14"
     showgrid="false"
     inkscape:zoom="18.5"
     inkscape:cx="11.013514"
     inkscape:cy="18.405405"
     inkscape:window-x="0"
     inkscape:window-y="25"
     inkscape:window-maximized="0"
     inkscape:current-layer="svg12" />
  <path
     style="fill:#eb5577;fill-opacity:1;stroke-width:0.817195;stroke-linecap:square;stroke-opacity:0;paint-order:markers stroke fill"
     d="m 10.932433,33.343531 c -0.253525,-0.07633 -0.580971,-0.39176 -5.2847776,-5.09083 -4.65302436,-4.648339 -5.02261386,-5.030889 -5.12697216,-5.306755 -0.3448019,-0.911467 0.3517922,-1.949561 1.31318836,-1.956969 0.6680869,-0.0051 0.4194342,-0.217195 4.3967775,3.749517 1.9923973,1.987071 3.6403703,3.612857 3.6621617,3.612857 0.02179,0 0.03986,-6.014189 0.04015,-13.364864 l 5.4e-4,-13.3648654 0.1268142,-0.2723299 c 0.227458,-0.488489 0.828048,-0.8898322 1.331577,-0.8898322 0.503529,0 1.104119,0.4013432 1.33159,0.8898322 l 0.126813,0.2723299 5.41e-4,13.3648654 c 2.7e-4,7.350675 0.01884,13.364864 0.04122,13.364864 0.02238,0 1.645243,-1.604687 3.606359,-3.565972 3.906107,-3.906456 3.77778,-3.79619 4.417978,-3.79619 0.989903,0 1.697821,1.028601 1.346706,1.956757 -0.104362,0.275875 -0.473798,0.658241 -5.126973,5.306414 -4.882016,4.876769 -5.022264,5.011375 -5.308101,5.094595 -0.356254,0.10372 -0.542082,0.10301 -0.895594,-0.0034 z"
     id="path843" />
</svg>
