<?xml version="1.0" encoding="UTF-8"?>
<svg width="6531.7" height="6815" version="1.1" viewBox="0 0 6531.7 6815" xml:space="preserve" xmlns="http://www.w3.org/2000/svg" xmlns:cc="http://creativecommons.org/ns#" xmlns:dc="http://purl.org/dc/elements/1.1/" xmlns:rdf="http://www.w3.org/1999/02/22-rdf-syntax-ns#"><metadata><rdf:RDF><cc:Work rdf:about=""><dc:format>image/svg+xml</dc:format><dc:type rdf:resource="http://purl.org/dc/dcmitype/StillImage"/><dc:title/></cc:Work></rdf:RDF></metadata><g transform="matrix(1.3333 0 0 -1.3333 0 6815)"><g transform="scale(.1)" fill="#ff8080"><g transform="scale(2.0743)"><path d="m16199 14697-190.9 208.2c-15.8 88.7-74.6 167.9-164 204.7-10.7 4.4-21.6 6.7-32.5 9.6l-362.6 395.5c-101.3 110.8-273.3 118.5-384 17.1-110.8-101.3-118.5-273.4-17.2-384.1l375.7-409.8c-10.8-45.5-21.7-94.1-33.2-145.7-57.1-255.9-131.9-591-242.1-751.1-13-18.9-27.9-28.3-44.5-17-245.6 169.1-425.7 113.4-563.6-87.2-115.5-167.6-141.8-460.3-168.3-755.8-21.4-239.4-32-475.1-37.6-478.3-137.1-78.3-395.4 92.2-633.1 249-345.8 228.1-665.6 438.9-986.8 222.1-7.1-4.3-14.1-8.9-21.1-14-376.2-274.9-473.5-575.6-554.2-825-40.4-125.1-72.6-224.8-161.8-243.3-342.3-70.9-471.7 82.3-651.9 295.7-125.3 148.5-267.8 317.4-486.3 486.4-424.7 328.8-716.3 38.9-1030.8-273.9-174.37-173.3-362.58-360.4-521.04-269.4-91.75 52.6-201.61 272.4-311.96 493.1-122.84 245.7-246.16 492.3-418.7 647-148 132.9-280.96 130.5-413.72 128.2-44.02-0.8-87.94-1.5-123.37 351.7-34.52 343.2-247.6 577.9-472.88 826-119.6 131.7-243.6 268.4-323.24 412.5-4.82 8.8-11.04 16.3-16.68 24.3l224.56 336.9c83.74 125.6 49.8 295.1-75.74 378.9-125.44 83.5-295.04 49.7-378.77-75.9l-681.72-1022.5c-83.65-125.6-49.76-295.2 75.73-378.8 125.54-83.7 295.14-49.8 378.83 75.7l129.15 193.7c83.4-112.1 174.99-213.2 264.52-311.8 163.38-179.9 317.89-350 334.18-512.4 85.62-852.8 379.26-847.6 673.91-842.4 26.61 0.4 31.87 20.1 42.47 10.5 95.21-85.4 195.3-285.5 294.94-484.8 147.81-295.9 295.04-590.3 527.41-723.7 518.24-297.2 859.75 42.3 1176.2 357 138.5 137.7 266.9 265.3 313.9 228.9 170.5-132 294.3-278.5 402.9-407.2 301.8-357.3 518.1-613.8 1176.9-477.3 401.1 83.2 476.8 316.8 571.6 610.5 55.8 172.4 123.1 380.2 357.9 551.8l1.7 1.2c31.9 8.6 201.7-103.3 385.1-224.3 371.4-245.1 775.1-511.3 1200.8-268.2 241.9 138.1 276.5 523.9 310.8 905.1 11.5 130 23.2 259.1 37.8 354.2 272.1-114.1 480.7 5.1 644.6 243.4 133.7 194.3 216.8 480.1 278.9 740 98.2-50 220.7-37.8 306.7 40.8 110.7 101.3 118.4 273.4 17.1 384.2" fill="#eb5577"/></g><g transform="scale(2.0459)"><path d="m15417 3232.3c-19.9 0-40.3 0.63-61.3 1.9-288.6 18.48-452.4 153.58-539 263.7-257 326.9-165.8 845.1-122 1094.1 92.5 526.66 295.9 1359 444 1817.6 37.8 116.91 147.6 194.58 270.8 191.74 122.8-3.17 228.7-86.9 260.4-205.62 37.4-140.63 89.8-309.06 150.6-504.13 116-373.19 260.5-837.67 352.5-1292.5 23.9-118.05 127.4-726.48-182.6-1105.6-139.9-170.88-338.1-261.15-573.4-261.15m-1.1 2089.1c-70.8-294.68-134.6-591.18-175.7-825.3-22.7-129.48-92.1-523.49 12-655.8 10-12.76 36.7-46.82 138.9-53.32 8.9-0.59 17.6-0.89 25.9-0.89 85.6 0 121.1 29.38 144.6 58.07 99.8 122.15 113.3 423.87 68.5 645.14-56.8 280.91-134.2 563.47-214.2 832.1" fill="#eb5577"/></g><g transform="scale(2.5298)"><path d="m7645.1 16300c435.26 0 753.27-1146.9 788.1-1770 34.78-623.1 22.69-1717.3-589.94-1958.9-682.12-268.9-463.44 646.1-550.17 896-99.69 287.3-339.99 576.5-385.85 865.5-84.2 530.4-43.88 1060.6 244.93 1578.5 124.67 223.8 238.91 350.1 492.93 388.9" fill="#f5f5f5" fill-rule="evenodd"/></g><g transform="scale(2.5992)"><path d="m10721 14411c0.6-170.2-8.2-530.8-61.2-849.8-78.5-473-251.6-625.5-415.5-614.9-423.87 27.1-253.28 646.1-351.31 1001.6-77.49 281-292.17 271.7-299.44 792-7.66 552 515.35 1560.5 942.05 678.1 149.2-308.5 185.1-668.1 185.4-1007" fill="#0b24f5" fill-rule="evenodd"/></g><g transform="scale(2.9054)"><path d="m3640.3 11472c0 1226.9 484.81 2337.1 1268.6 3140.3 782.26 801.6 1863.3 1297.5 3057.5 1297.5 497.89 0 921.79-57.8 1332.2-198.2 192.26-65.8 59.61-720.6 548.42-730.8 103.22-2.2 172.34 46.3 223.14 101.8 216.2 236.3 310 130.5 334.1-193.4 8-108.6-3.5-244-18.5-427.3-32.4-393 8.6-951.6 596.9-1062.2 334.9-10.3 468.5 123.5 525.2 257.2 68.4 161.5 24.9 323 88.6 231 501.5-724.6 696.1-1459 696.1-2415.9 0-390.1-46.4-768.9-136.6-1128.2-90.6-360.82-225-702.38-400.6-1016.6-150.3-269.02-264.1-575.06-353.6-889.85-87.1-305.77-152.6-626.55-207.3-930.01-47.4-263.23-49-515.38-50.4-736.62-0.3-48.94-0.5-96.23-1.5-144.45-3.9-210.88-60.4-342.19-130.4-393.78-11.9-8.78-21.6-13.25-28.6-13.49-4.7-0.07-10.8 2.3-17.8 7.33-57.7 41.44-103 155.57-108 354.27-1.5 59.74-2.4 119.67-3.3 185.37-1.7 114.3-3.6 245.3-8.1 387.72-6 188.3-142.7 420.25-315.6 539.44-76.3 52.66-161.5 87.52-250 94.47-99.5 7.92-198.6-17.82-289.5-89-145.28-113.75-262.5-356.23-294.72-795.51-8.33-113.89-19.21-248.67-29.74-380.28-43.4-538.61-82.46-1022.5-45.7-1532.9 21.02-291.42-60.79-520.74-174.44-627.61-25.71-24.3-50.45-38.89-72.03-42.16-12.87-1.9-27.16 1.82-41.89 12.18-92.86 64.91-175.39 256.24-210.78 621.8-8.64 89.45-10.77 220.1-13.25 371.96-5.3 328.52-12.22 751-86.18 1123.1-39.27 197.56-165.14 374.85-310.8 461.58-76.64 45.67-160.28 69.42-244.74 64.22-91.97-5.61-179.56-43.02-254.52-119.84-112.59-115.37-194.23-333.44-196.67-691.32-1.31-191.19-25.68-300.68-59.85-348.59l-1.55 1.45c-71.56 62.02-129 206.47-123.39 397.9 13.73 462.96-107.59 777.89-268.12 928.92-84.49 79.5-182.38 121.04-284.88 123.8-102.63 2.72-202.31-34.15-290.45-111.17-162.21-141.84-290.39-445.89-293.69-909.78-4.54-647.06 123.9-1210.4 257.76-1797 120.74-529.52 245.98-1078.7 275.03-1715 35.62-779.44-165.65-1291.3-429.57-1516.8-88.11-75.3-180.28-114.06-267.6-114.99-84.91-0.89-170.99 34.15-249.74 106.18-231.29 211.64-391.2 699.62-335.95 1496.7 35.17 507.77 148.1 1013 260.75 1517.5 142.83 639.63 285.46 1278 279.88 1937.3-4.3 503.68-102.91 828.89-231.84 985.5-79.54 96.64-175.15 145.59-278.85 148.72-102.6 3.03-199.35-39.86-283.13-126.69-137.84-143.01-253-442.31-281.02-872.16-12.46-190.57-42.82-309.25-80.92-366.79-85.59 91.99-159.04 305.77-173.08 623.27-58.17 1311-187.62 1462.6-494.66 1822.4-78.68 92.18-170.75 200.11-276.07 351.83-229.26 330.34-413.74 757.13-541.98 1226.8-130.96 480.06-202.55 1005.2-202.55 1519m989.76 3411.5c-852.5-873.6-1379.8-2079.8-1379.8-3411.5 0-544.4 76.99-1104.9 217.84-1621 139.67-511.69 342.7-979.67 596.74-1345.7 117.96-170.06 216.43-285.36 300.48-383.86 245.88-288.05 349.54-409.55 401.72-1586.2 18.59-420.01 138.92-726.05 281.3-876.32 72.76-76.82 156.47-122.29 245.16-133.58 101.64-12.98 197.67 17.55 280.72 94.96 114.06 106.21 202.2 320.05 223.78 650.85 20.79 318.16 86.26 525.67 163.32 616.15 74.75-102.91 131.23-339.47 134.57-730.15 5.2-615.05-132.61-1232.1-270.73-1850.4-116.37-521.09-232.98-1043.1-269.87-1575.5-64.4-928.91 153.23-1526.2 462.34-1809 154.71-141.56 332.51-210.02 514.82-208.2 179.97 1.893 358.47 72.037 517.48 207.85 343.22 293.17 606.86 916.59 565.21 1829.2-30.63 671.84-159.73 1237.8-284.19 1783.4-128.96 565.49-252.83 1108.5-248.63 1710.2 2.4 339.46 72.69 541.36 161.18 618.8 11.73 10.22 20.37 15.28 25.29 15.15 5.1-0.07 14.42-6.41 27.44-18.62 89.58-84.36 156.32-294.66 146.27-634.92-9.36-315.44 110.04-574.81 257.45-702.64 68.94-59.85 147.27-96.2 228.71-104.67 92.93-9.7 182.83 15.77 261.92 81.78 120.94 101.05 211.26 313 213.7 662.62 1.69 242.89 37.62 371.06 86.98 421.62 1.89 1.96-4.07 2.37-1.45 2.51 4.99 0.31 13.36-3.09 23.82-9.32 57.3-34.15 108.41-111.69 126.45-202.62 68.59-344.87 75.1-744.09 80.09-1054.5 2.62-161.42 4.92-300.23 14.77-402.45 47.84-494.04 197.73-779.5 375.33-903.62 102.35-71.52 212.6-95.68 322.25-79.19 100.85 15.18 196.81 65.19 280.75 144.24 188.37 177.08 326.26 523.64 296.26 938.48-34.48 479.76 3.5 950.74 45.7 1474.9 9.4 116.47 19 235.6 29.8 383.32 22.9 313.31 79.4 465.06 145.4 516.75 6.7 5.3 13.5 7.26 19.8 6.78 17.2-1.41 37.9-11.01 59.6-25.98 81.4-56.14 145.6-155.85 148-231.71 4.8-148.72 6.6-272.24 8.1-380.01 1-71.52 2-136.46 3.3-189.98 8.4-335.34 122.4-554.82 269.5-660.52 78.5-56.41 166.1-82.92 255.4-80.44 87.1 2.45 172.1 32.11 248.1 88.15 156.9 115.5 282.4 355.23 288.8 701.44 0.9 45.81 1.2 96.68 1.5 149.06 1.3 205.13 2.8 438.94 44.4 669.61 51.6 286.46 114.2 592.06 199.5 891.91 82.8 290.83 185.7 569.65 318.6 807.62 193 345.28 340.1 718.58 438.7 1111 98.3 391.5 148.9 802 148.9 1222.7 0 988.7-290.8 1908.2-789.3 2673.7-297.5 456.8-667.6 727.8-653.1 12.6 5.3-265-9.4-402.5-250.8-387.1-384.6 5.7-239.9 621.8-219.7 1156.6 20.5 540.8-425.8 1018.7-721.6 585.6-46.5-68.2-109.9-127.4-257.97-105.2-182.35 27.4 50.77 585.6-457.21 709.6-431.53 105.4-884.61 182-1366.6 182-1302.7 0-2482.3-541.2-3336.3-1416.3m1330.8-7977.7-0.27-0.24 0.27 0.24m2.2 0.04c3.86-0.14 3.1-0.45 0.69-0.97l-1 0.97h0.31m0.69-0.97-1-0.2-2.16 0.89 0.27 0.24 1.89 0.04 1-0.97" fill="#cb133e"/></g><g transform="scale(2.9372)"><path d="m3875.1 11524c0 1213.7 479.57 2311.9 1254.9 3106.3 773.82 793 1843.2 1283.5 3024.4 1283.5 492.54 0 911.84-57.1 1317.7-196 190.22-65.1 59.04-712.8 542.6-722.9 102.1-2.2 170.4 45.8 220.7 100.7 213.9 233.7 306.7 129 330.4-191.4 8-107.4-3.3-241.3-18.3-422.6-31.9-388.8 8.6-941.3 590.5-1050.7 331.3-10.2 463.4 122.1 519.5 254.4 67.7 159.7 24.6 319.5 87.6 228.5 496.1-716.7 688.6-1443.2 688.6-2389.8 0-385.8-45.9-760.5-135.2-1115.9-89.5-357-222.5-694.84-396.1-1005.7-148.7-266.1-261.2-568.84-349.8-880.22-86.1-302.46-150.9-619.77-205.1-919.92-46.9-260.41-48.5-509.83-49.8-728.64-0.3-48.48-0.6-95.26-1.5-142.89-3.8-208.64-59.7-338.52-129-389.59-11.7-8.61-21.4-13.11-28.3-13.35-4.6-0.06-10.7 2.32-17.6 7.29-57 40.99-101.9 153.89-106.8 350.47-1.5 59.1-2.3 118.34-3.3 183.33-1.7 113.03-3.5 242.68-8 383.49-6 186.3-141.3 415.74-312.2 533.64-75.5 52.09-159.7 86.58-247.3 93.49-98.4 7.76-196.4-17.67-286.4-88.08-143.7-112.52-259.69-352.34-291.46-786.93-8.24-112.59-19-245.98-29.45-376.17-42.93-532.75-81.54-1011.5-45.21-1516.3 20.73-288.26-60.13-515.15-172.51-620.86-25.43-24-49.91-38.47-71.36-41.67-12.63-1.91-26.76 1.81-41.37 12.02-91.82 64.24-173.46 253.5-208.46 615.14-8.58 88.45-10.69 217.69-13.11 367.93-5.27 324.93-12.08 742.81-85.25 1110.9-38.84 195.39-163.35 370.79-307.46 456.59-75.82 45.18-158.55 68.67-242.07 63.49-91-5.58-177.61-42.55-251.8-118.54-111.4-114.12-192.09-329.8-194.61-683.85-1.22-189.12-25.33-297.42-59.1-344.78l-1.57 1.4c-70.78 61.35-127.6 204.24-122.05 393.57 13.59 458.02-106.43 769.5-265.18 918.93-83.62 78.64-180.44 119.7-281.83 122.39-101.49 2.76-200.12-33.7-287.31-109.93-160.46-140.3-287.25-441.06-290.52-899.9-4.49-640.09 122.6-1197.3 254.97-1777.6 119.44-523.8 243.33-1067.1 272.06-1696.5 35.21-770.96-163.89-1277.3-424.96-1500.3-87.12-74.49-178.29-112.9-264.67-113.75-83.99-0.92-169.17 33.71-247.03 105-228.79 209.31-387 692.01-332.33 1480.6 34.8 502.24 146.5 1002 257.94 1501.1 141.32 632.68 282.37 1264.2 276.86 1916.2-4.26 498.26-101.8 819.93-229.3 974.84-78.68 95.6-173.33 144.04-275.87 147.11-101.53 3.06-197.23-39.36-280.07-125.29-136.38-141.46-250.27-437.52-277.98-862.72-12.36-188.48-42.35-305.87-80.07-362.83-84.68 90.97-157.3 302.43-171.19 616.57-57.53 1296.7-185.55 1446.7-489.3 1802.6-77.83 91.17-168.9 198.01-273.08 348.05-226.78 326.77-409.27 748.94-536.12 1213.6-129.54 474.8-200.36 994.3-200.36 1502.5m979.05 3374.6c-843.24-864.1-1364.9-2057.3-1364.9-3374.6 0-538.5 76.16-1092.9 215.48-1603.4 138.12-506.19 338.99-969.05 590.28-1331.2 116.68-168.18 214.08-282.31 297.26-379.71 243.19-284.96 345.73-405.08 397.31-1569.1 18.42-415.47 137.41-718.17 278.29-866.88 71.94-75.92 154.81-120.89 242.51-132.13 100.5-12.8 195.52 17.43 277.68 93.93 112.82 105.14 200.01 316.66 221.36 643.84 20.57 314.72 85.32 519.95 161.55 609.52 73.95-101.83 129.81-335.82 133.08-722.24 5.18-608.4-131.14-1218.8-267.77-1830.4-115.11-515.42-230.45-1031.8-266.95-1558.3-63.7-918.89 151.57-1509.7 457.34-1789.5 153.03-140.03 328.91-207.78 509.25-205.94 178.03 1.839 354.59 71.291 511.92 205.6 339.43 290 600.26 906.63 559.06 1809.4-30.3 664.57-158.01 1224.4-281.08 1764.2-127.64 559.34-250.14 1096.5-245.98 1691.7 2.38 335.83 71.9 535.47 159.43 612.11 11.61 10.14 20.13 15.11 25.03 15.01 5.04-0.1 14.26-6.33 27.13-18.42 88.62-83.48 154.64-291.5 144.66-628.07-9.22-312 108.91-568.64 254.7-695.05 68.19-59.2 145.68-95.12 226.27-103.53 91.89-9.6 180.81 15.59 259.05 80.89 119.64 99.96 208.97 309.58 211.43 655.45 1.63 240.26 37.17 367.08 85.99 417.03 1.88 1.97-3.98 2.42-1.39 2.52 4.87 0.3 13.17-3.1 23.56-9.26 56.65-33.74 107.21-110.45 125.01-200.4 67.89-341.17 74.36-736.07 79.3-1043.1 2.58-159.65 4.87-296.99 14.6-398.07 47.33-488.72 195.59-771.13 371.27-893.9 101.25-70.75 210.27-94.61 318.67-78.31 99.85 14.98 194.74 64.52 277.78 142.69 186.41 175.2 322.71 517.94 293.11 928.29-34.2 474.6 3.4 940.51 45.1 1459 9.4 115.14 18.9 233.01 29.5 379.13 22.7 309.96 78.5 460 143.9 511.13 6.6 5.31 13.3 7.19 19.6 6.71 17-1.33 37.5-10.83 58.9-25.67 80.5-55.53 144.1-154.16 146.4-229.2 4.7-147.14 6.5-269.33 8-375.9 1-70.71 2-134.95 3.3-187.96 8.3-331.71 121-548.75 266.5-653.37 77.8-55.77 164.4-82.02 252.7-79.5 86.1 2.35 170.2 31.76 245.3 87.16 155.3 114.29 279.4 351.42 285.8 693.88 0.9 45.28 1.2 95.57 1.5 147.45 1.3 202.85 2.7 434.19 43.8 662.36 51.1 283.37 113 585.59 197.5 882.27 81.8 287.61 183.7 563.45 315.1 798.81 190.8 341.58 336.5 710.84 433.9 1099.1 97.3 387.2 147.2 793.3 147.2 1209.4 0 978-287.5 1887.6-780.7 2644.8-294.2 451.8-660.2 720-646 12.5 5.3-262.1-9.2-398.2-248.2-382.9-380.3 5.6-237.2 615.1-217.1 1144.1 20.2 534.9-421.3 1007.6-713.9 579.2-46-67.4-108.7-126.1-255.15-104-180.38 27.1 50.25 579.2-452.27 701.9-426.93 104.3-875.04 180-1351.8 180-1288.6 0-2455.4-535.4-3300.2-1401m1316.4-7891.3-0.27-0.24 0.27 0.24m2.18 0.03c3.82-0.1 3.07-0.41 0.69-0.98l-0.99 0.98h0.3m0.69-0.98-0.99-0.17-2.15 0.88 0.27 0.24 1.88 0.03 0.99-0.98" fill="#eb5577"/></g><g transform="scale(2.5642)"><path d="m8027.8 16300c429.41 0 743.19-1131.5 777.51-1746.2 34.36-614.7 22.42-1694.3-581.98-1932.6-672.95-265.3-457.21 637.4-542.78 884-98.35 283.4-335.46 568.7-380.66 853.9-83.07 523.2-43.29 1046.3 241.63 1557.3 123 220.7 235.67 345.3 486.28 383.6" fill="#0b24f5" fill-rule="evenodd"/></g><g transform="scale(2.6336)"><path d="m10965 14435c0.6-168-8.1-523.9-60.3-838.7-77.5-466.8-248.4-617.3-410.2-606.9-418.2 26.8-249.8 637.8-346.7 988.6-76.4 277.3-288.36 268.2-295.42 781.6-7.56 544.8 508.62 1540.1 929.82 669.3 147.2-304.5 182.6-659.4 182.8-993.9" fill="#eb5577" fill-rule="evenodd"/></g><g transform="scale(2.1026)"><path d="m15440 3424.7c-19.4 0-39.3 0.62-59.7 1.85-280.9 17.98-440.2 149.48-524.4 256.59-250.1 318.07-161.4 822.3-118.9 1064.6 90.2 512.46 288.1 1322.3 432.2 1768.5 36.7 113.77 143.5 189.34 263.4 186.53 119.5-3.04 222.6-84.51 253.4-200.03 36.4-136.83 87.4-300.72 146.4-490.48 112.9-363.16 253.5-815.07 343.1-1257.7 23.2-114.85 124-706.82-177.8-1075.7-135.9-166.27-328.9-254.11-557.7-254.11m-1.1 2032.7c-68.9-286.73-131.1-575.23-171.1-803.04-22.1-125.93-89.6-509.36 11.7-638.1 9.8-12.41 35.8-45.56 135.3-51.89 8.5-0.57 16.9-0.85 25.2-0.85 83.2 0 117.7 28.58 140.5 56.5 97.3 118.85 110.2 412.48 66.7 627.73-55.2 273.33-130.6 548.27-208.3 809.65" fill="#f5f5f5"/></g><g transform="scale(2.1196)"><path d="m16201 14819-733.9 800.6c-99.1 108.4-267.4 115.9-375.9 16.7-108.3-99.1-115.8-267.5-16.7-375.9l237.5-259.1c-23.6-77.3-45.5-175.2-70.2-286-55.9-250.3-129-578.3-236.9-735-12.8-18.5-27.3-27.8-43.5-16.7-240.5 165.5-416.7 111-551.7-85.3-113.1-164.1-138.7-450.5-164.6-739.7-21.1-234.2-31.4-464.9-36.9-468-134.1-76.6-387 90.1-619.6 243.6-338.4 223.2-651.2 429.6-965.6 217.4-7-4.2-13.9-8.8-20.6-13.7-368.3-269-463.5-563.3-542.4-807.3-39.6-122.5-71.1-220.1-158.5-238.1-334.8-69.4-461.4 80.4-637.8 289.4-122.7 145.3-262.2 310.5-475.9 475.9-415.7 321.8-701 38.1-1008.8-267.9-170.6-169.7-354.83-352.8-509.91-263.8-89.73 51.5-197.29 266.6-305.29 482.7-120.16 240.3-240.84 481.7-409.74 633.1-144.79 130-274.95 127.7-404.88 125.4-43.07-0.8-86.05-1.4-120.73 344.2-33.78 335.9-242.26 565.5-462.77 808.4-87.94 96.8-178.29 196.4-250.8 299.8l305.86 458.8c81.9 122.8 48.73 288.8-74.17 370.7-122.76 81.8-288.68 48.7-370.68-74.2l-667.14-1000.6c-81.81-122.9-48.64-288.9 74.16-370.7 122.85-82 288.78-48.7 370.73 74l49.11 73.7c55.2-65.9 112.1-128.9 168.19-190.7 159.93-176.1 311.14-342.5 327.09-501.5 83.74-834.5 371.15-829.4 659.5-824.4 25.99 0.5 31.14 19.7 41.56 10.3 93.13-83.5 191.08-279.4 288.59-474.4 144.65-289.6 288.73-577.8 516.18-708.2 507.12-290.9 841.37 41.4 1151.1 349.3 135.6 134.8 261.1 259.7 307.2 224.1 166.9-129.2 287.9-272.6 394.3-398.5 295.2-349.8 507-600.7 1151.8-467.1 392.5 81.4 466.5 310 559.4 597.4 54.5 168.8 120.3 372.2 350.1 540.1l1.6 1.1c31.3 8.4 197.6-101.1 376.9-219.5 363.6-239.8 758.6-500.4 1175.1-262.4 236.8 135.2 270.7 512.6 304.2 885.7 11.4 127.1 22.8 253.6 36.9 346.6 266.4-111.6 470.5 5 631 238.2 153.1 222.4 238.3 567.3 302.2 850.8l62.9-68.5c99.1-108.4 267.4-115.9 375.9-16.8 108.3 99.2 115.8 267.6 16.6 376" fill="#f5f5f5"/></g><g transform="scale(2.9889)"><path d="m6613.5 1245.2c-81.54 0-164.08 34.06-239.63 103.22-224.83 205.69-380.31 680.05-326.57 1455 34.19 493.56 143.96 984.71 253.47 1475.1 92.17 412.7 184.25 824.89 234.13 1242.8 15.8-149.02 37.41-294.76 62.94-439.06-35.67-174.25-74.51-348.13-113.36-522.11-109.5-490.38-219.28-981.5-253.47-1475.1-53.7-774.87 101.75-1249.2 326.58-1455 75.61-69.19 158.18-103.21 239.79-103.21h3.01c17.96 0.2 36.17 2.04 54.47 5.52-51.43-113.55-111.82-207.2-177.86-280.51-20.31-4.25-40.45-6.46-60.36-6.66-1.04 0-2.07-0.03-3.14-0.03m817.99 232.8c166.32 328.61 267.03 788.89 240.53 1369.7-29.78 653.09-155.28 1203.2-276.23 1733.7-125.43 549.67-245.81 1077.6-241.72 1662.5 0.8 109.84 8.86 204.9 22.51 285.6 40.49-109.18 64.31-268.13 58.12-477.94-8.67-291.85 96.09-534.35 229.72-664.2 35.23-174.21 74.91-348.09 115.06-524.21 120.98-530.47 246.48-1080.6 276.25-1733.7 35.27-772.3-154.44-1331.5-424.24-1651.4m1867.3 2947.3c-72.13 87.25-133.16 266.12-161.97 563.96-8.43 86.92-10.5 213.92-12.88 361.57-5.18 319.32-11.88 729.97-83.78 1091.7-38.17 192.01-160.52 364.39-302.15 448.7-67.68 40.32-141.02 63.1-215.43 63.1-7.46 0-14.96-0.23-22.45-0.7-69.16-4.25-135.74-26.94-196.06-71.5 33.56 104.92 79.39 182.48 132.29 236.68 72.94 74.71 158.02 111.04 247.52 116.53 7.42 0.43 14.85 0.67 22.28 0.67 74.41 0 147.78-22.75 215.6-63.14 141.62-84.31 263.88-256.65 302.12-448.69 71.9-361.68 78.62-772.37 83.71-1091.7 2.47-147.61 4.48-274.62 12.88-361.57 5.42-55.84 11.98-107.5 19.51-155.18 2.07-87.82 6.08-175.98 12.51-265.01 12.01-166.69-10.57-312.49-53.7-425.41m607.05 4.98c71.97 170.87 110.88 384.26 93.81 620.44-33.55 466.39 3.27 924.26 44.37 1433.8 9.2 113.16 18.5 228.98 29 372.58 6.7 92.08 16.4 169.77 28.5 234.81 37.9-48.28 62.9-103.52 64.3-149.69 4.7-144.57 6.5-264.65 7.9-369.4 1.1-69.53 2-132.66 3.3-184.69 1.3-52.29 5.2-101.68 11.5-148.18-19.1-309.72-26.8-606.85-5.2-907.53 28.5-395.5-99.8-727.1-277.48-902.15m-1517.6 1350.4c19.44 63.4 34.03 136.6 42.53 220.25 7.26-55.31 13.28-111.28 18.3-167.39-10.97-11.81-22.32-22.58-33.93-32.25-8.83-7.4-17.8-14.26-26.9-20.61m-2551.3 108.73c34.56 102.05 58.85 228.45 68.75 380.15 0.74 11.3 1.54 22.51 2.38 33.52 10.4-91.14 16.66-196.8 17.7-317.64 0-1.78 0-3.62 0.03-5.39-17.13-23.52-35.19-44-53.93-61.5-11.41-10.6-23.05-20.34-34.93-29.14m5576.5 344.78c38.6 104.92 62.6 230.22 65.2 374.59 0.9 44.5 1.2 93.91 1.5 144.9 1.3 199.34 2.7 426.68 43 650.92 50.3 278.46 111.1 575.46 194.1 867.01 80.5 282.65 180.5 553.72 309.7 785.01 187.5 335.68 330.6 698.56 426.4 1080.1 95.6 380.6 144.7 779.6 144.7 1188.6 0 961.1-282.6 1854.9-767.2 2599.1-151.2 232.1-321.8 415-448 437.1 14.8 202 74.9 284 158.7 284 128.2 0 311.6-191.6 473-439.5 484.7-744.1 767.2-1638 767.2-2599 0-409-49.1-808-144.6-1188.6-95.9-381.5-238.9-744.41-426.5-1080-129.2-231.32-229.3-502.36-309.7-785.08-82.9-291.48-143.8-588.54-194-867.01-40.4-224.23-41.8-451.51-43.1-650.85-0.3-50.98-0.6-100.4-1.4-144.97-5.9-312.72-111.6-536.05-249-656.23m-6121.2 165.81c-5.08 44.8-8.86 92.41-11.07 142.63-56.54 1274.3-182.34 1421.7-480.85 1771.4-76.48 89.6-165.98 194.58-268.36 342.03-222.86 321.12-402.19 736-526.85 1192.6-127.31 466.59-196.9 977.09-196.9 1476.6 0 947.7 297.6 1823.8 802.14 2535.4-392.29-655.8-618.43-1427.5-618.43-2253.7 0-499.5 69.56-1010 196.9-1476.6 124.63-456.61 303.99-871.48 526.89-1192.6 102.34-147.48 191.81-252.4 268.32-342 294.16-344.68 420.66-492.96 478.34-1717-71.96-111.61-132.75-272.88-170.13-478.81m5539.6 61.63c-4 32.83-6.7 69.06-7.6 108.74-1.5 58.08-2.4 116.3-3.3 180.17-1.6 111.08-3.5 238.48-7.9 376.86-5.8 183.08-138.8 408.55-306.7 524.41-74.2 51.19-157 85.08-243.1 91.88-11.1 0.87-22.2 1.3-33.2 1.3-85.5 0-169.9-26.6-248.2-87.86-2.91-2.27-5.82-4.62-8.73-7.02 51.23 137.44 118.03 230.45 192.43 288.73 78.2 61.2 162.7 87.83 248.1 87.83 11.1 0 22.2-0.44 33.4-1.31 85.9-6.79 168.8-40.68 242.9-91.87 106.5-73.4 198.8-190.77 253.7-313.5-22.2-108.53-42.6-216.4-61.7-322.09-46.1-255.88-47.6-500.99-49-716.05-0.2-40.72-0.4-80.27-1.1-120.22m-2959 26.3c-30.85 302.42-129.58 514.71-251.6 629.57-82.17 77.28-177.32 117.63-276.96 120.28-3.48 0.1-6.99 0.13-10.47 0.13-96.06 0-189.2-35.87-271.88-108.17-0.5-0.43-1-0.9-1.54-1.33 49.59 126.33 114.03 220.75 185.26 283.01 82.67 72.34 175.82 108.2 271.87 108.2 3.48 0 7-0.03 10.48-0.13 99.63-2.68 194.78-42.99 276.92-120.35 127.81-120.21 230.02-347.29 255.52-672.72-26.94-16.73-52.8-37.48-77.29-62.57-42.12-43.16-79.8-101.11-110.31-175.92m-1319.5 9.97c-34.7 301.85-112.02 507.75-205.83 621.74-77.32 93.95-170.33 141.56-271.1 144.57-3.35 0.1-6.73 0.13-10.08 0.13-83.14 0-162.13-31.25-232.89-92.61 43.63 108.84 95.62 193.12 151.46 251.03 78.69 81.61 169.13 123.29 265.15 123.29 3.34 0 6.69-0.03 10.07-0.13 100.77-3.04 193.75-50.62 271.07-144.57 82.77-100.54 152.67-272.54 191.81-518.86-71.06-90.77-131.08-219.08-169.66-384.59m4366.5 7064.5c-12.8 1.5-24.9 3.8-36.4 6.9-48.4 28.2-90.3 61.3-126.5 98.1-115.3 196.1-33.1 628.7-18.4 1017.2 14.5 382.6-211.4 732.8-446.3 732.8-87.8 0-176.9-48.9-255.2-163.5-2.2-3.3-4.5-6.6-6.9-9.9-2.5 0.1-4.9 0.1-7.4 0.1-68.17 0-137.16-29.5-201.23-96.3-11.14 0.7-22.88 2-35.23 3.8-177.25 26.7 49.39 569.2-444.44 689.8-419.56 102.5-859.92 176.9-1328.4 176.9-951.22 0-1834.9-296.8-2567.6-805.1-240.36-142.9-466.93-307.6-677.11-491.3 59.82 68.9 121.65 136.1 185.29 201.3 830.14 850.7 1976.8 1376.8 3243.2 1376.8 468.47 0 908.9-74.5 1328.4-176.9 493.76-120.6 267.19-663.1 444.45-689.8 21.01-3.2 40.21-4.6 58.01-4.6 103.6 0 154.1 50.3 192.8 106.9 78.2 114.6 167.3 163.5 255.1 163.5 234.9 0 460.7-350.2 446.3-732.8-14.5-381.7-94.1-806.1 12.5-1006.8-6.9-54.4-9.9-119.5-8.4-196.2 1.6-78.8 1.4-146-6.5-200.9" fill="#f5f5f5"/></g><g transform="scale(2.7953)"><path d="m7139.5 1338.7c70.62 78.38 135.19 178.51 190.18 299.93 72.87 13.85 147.68 51.98 219.84 113.62 21.5 18.39 42.6 38.57 63.25 60.6-72.91-157.58-162.21-278.47-259.69-361.75-70.08-59.96-142.67-97.63-213.58-112.4m2885.9 3336.7c-11.5 0-23.9 4.18-36.7 13.13-15.63 10.94-30.95 25.32-45.86 43.35 46.11 120.74 70.26 276.65 57.46 454.88-6.91 95.2-11.21 189.46-13.42 283.37 43.22-273.28 116.92-423.46 198.32-480.38 12.7-8.98 25.2-13.17 36.7-13.17 2.3 0 4.5 0.18 6.7 0.5 7.9 1.22 16.2 3.87 24.9 7.91-33.2-116.63-85.4-207.96-146.4-265.31-26.7-25.22-52.4-40.42-74.9-43.78-2.3-0.36-4.5-0.5-6.8-0.5m-2970.6 758.96c-27.3 154.29-50.41 310.13-67.29 469.47 27.04 226.34 42.5 454.27 40.57 684.66-1.15 131.5-8.45 251.28-20.86 359.53 41.25 176.98 105.43 314.18 181.41 411.23 21.54-135.41 34.35-291.78 35.89-469.54 4.14-493.51-71.55-975.76-169.72-1455.4m926.6 326.19c-142.88 138.84-254.89 398.14-245.63 710.2 6.62 224.34-18.85 394.31-62.14 511.04 29.16 172.87 82.1 284.09 143.46 337.82 12.05 10.52 20.93 15.78 26.11 15.78h0.18c5.3-0.11 14.99-6.65 28.51-19.35 1.18-1.11 2.33-2.22 3.51-3.37-17.78-92.37-28.48-203.84-29.41-335.06-2.97-425.04 55.53-821.89 135.41-1217.1m576.22 469.37-1.64 1.46c-74.38 64.47-134.08 214.61-128.25 413.56 3.11 104.85-0.47 202.38-9.63 292.42 32.63 79.99 72.91 141.95 117.95 188.1 26.19 26.84 53.84 49.02 82.64 66.9 6.05-76.95 8.05-159.05 5.48-246.2-1.47-50.37 1.25-97.63 7.33-141.13-7.16-64.93-11.2-135.76-11.77-212.82-1.29-198.73-26.62-312.53-62.11-362.29m476.56 7.72c-5.37 60-11.81 119.85-19.57 178.98 5.48 53.92 8.59 111.91 9.05 174.05 1.72 252.46 39.07 385.72 90.37 438.2 1.97 2.08-4.19 2.54-1.47 2.65 0.22 0.04 0.43 0.04 0.65 0.04 5.18 0 13.66-3.58 24.11-9.77 30.8-18.35 59.89-48.76 83.35-86.97-0.32-13.92-0.53-28.23-0.64-42.96-2.22-327.52-78.74-538.81-185.85-654.22m-3207.4 110.33c-74.49 80.07-140.1 248.81-168.04 495.37 39.96 220.2 104.96 392.63 181.91 511.98 0.94-19.21 1.79-38.53 2.69-58.24 8.37-189.4 37.06-343.26 76.81-458.1-3.69-35.6-6.8-72.19-9.23-109.76-12.99-198.05-44.51-321.4-84.14-381.25m509.39 46.33c-0.04 1.9-0.04 3.86-0.04 5.76-1.1 129.22-7.79 242.2-18.92 339.65 24.08 310.48 90.05 513.94 167.21 604.62 18.86-25.97 36.6-60.1 52.7-102.67-11.49-70.87-20.36-149.75-26.05-236.58-18.6-285.66-85-487.36-174.9-610.78m5368.1 255.29c-4.8 0-11 2.54-18.2 7.65-47.6 34.24-87.2 116.17-104 252 0.6 42.72 0.9 85 1.2 128.54 1.5 229.96 3 492.05 52.3 765.65 20.4 113.01 42.2 228.35 66 344.4 34-75.91 54.5-153.76 56.8-225.48 4.8-147.97 6.7-284.2 8.5-402.97 0.9-68.33 1.9-130.61 3.3-192.72 4.7-184.67 42.9-299.04 93.8-351.99-17.2-162.23-68.5-265.91-129.6-311.06-12.4-9.05-22.5-13.77-29.8-14.02h-0.3m-810.1 22.64c-6.7 49.73-10.9 102.53-12.3 158.45-1.4 55.63-2.4 123.14-3.5 197.48-1.6 112.01-3.5 240.4-8.4 394.99-1.6 49.37-28.3 108.43-68.9 160.05 29.8 160.42 72.8 248.53 120.8 286.02 6.2 5.01 12.5 7.12 18.6 7.12 0.6 0 1.2-0.04 1.9-0.07 14.8-1.15 32.1-8.19 50.4-19.39-10.7-63.65-19.4-137.77-25.7-223.56-11.3-153.54-21.2-277.36-31-398.42-15.5-193.58-30.6-380.14-41.9-562.67m-4408.3 690.17-2.25 0.93 0.29 0.25 1.96 0.04 1.04-1.04-1.04-0.18m1.04 0.18-1.04 1.04h0.33c4-0.11 3.22-0.43 0.71-1.04m5795.8 7130.4c17 87.6 13.1 155.7 30.5 155.7 6.1 0 14.9-8.6 28.3-27.9 11.7-16.9 23.2-33.8 34.6-50.8-25-28.2-55.6-54.5-93.4-77m-535.7 5.4c-11.6 0-23.8 0.4-36.5 1.2-11.9 0.2-23.3 0.9-34.3 2.2 8.4 58.7 8.6 130.5 6.9 214.8-1.6 82 1.6 151.6 9 209.8 41.3-77.7 108.7-124.1 214.9-125.6 12.7-0.8 24.8-1.2 36.4-1.2 9.9 0 19.4 0.3 28.5 0.9-2.9-196.6-38.7-302.1-224.9-302.1m-7157.6 542c150 249 320.61 483.5 509.47 701.2 224.74 196.4 467 372.5 724.01 525.3-259.55-180-501.46-384.9-722.33-611.3-185.92-190.5-356.92-396.2-511.15-615.2m5936.7 1155.7c-7.8 0-15.9 0.3-24.3 0.8 68.5 71.5 142.2 103.1 215.1 103.1 2.7 0 5.3 0 7.9-0.1-40.4-56.1-94.4-103.8-198.7-103.8" fill="#ff8080"/></g><g transform="scale(2.9372)"><path d="m6915.9 1169.5c-177.89 0-351.22 67.79-502.25 205.98-305.8 279.86-521.03 870.65-457.33 1789.5 36.49 526.62 151.81 1043 266.95 1558.4 136.59 611.56 272.94 1222 267.77 1830.4-3.27 386.46-59.14 620.49-133.09 722.28-56.21-66.01-106.18-195.01-136.79-384.34-15.32 40.52-32.21 73-50.15 97.71-73.44-86.3-136.22-279.92-159.13-575.4-0.85-11.21-1.67-22.61-2.42-34.12-10.08-154.36-34.79-282.99-69.96-386.83-60.88-45.18-127.67-67.17-197.81-67.13-14.64 0-29.41 0.95-44.33 2.86-87.73 11.16-170.53 56.14-242.54 132.13-140.85 148.64-259.87 451.38-278.25 866.84-51.62 1164-154.13 1284.1-397.35 1569.1-83.14 97.44-180.58 211.53-297.22 379.71-251.29 362.11-452.16 825-590.29 1331.1-139.31 510.5-215.47 1065-215.47 1603.5 0 917.5 252.96 1774.6 691.47 2502.4 146.77 208.4 309.51 404.2 486.44 585.5 210.2 215.4 440.42 410.4 687.42 581.7 745.64 517.2 1644.8 819.3 2612.8 819.3 476.74 0 924.85-75.7 1351.8-180 502.52-122.7 271.89-674.8 452.27-701.9 12.56-1.9 24.51-3.2 35.85-4 8-0.5 15.7-0.7 23.2-0.7 99.2 0 150.6 45.3 189.1 98.7 2.4 3.3 4.7 6.7 7 10 79.7 116.6 170.3 166.5 259.7 166.5 239 0 468.9-356.4 454.2-745.7-15-395.3-98.7-835.6 18.6-1035.2-220.4 223.7-234.4 583.9-211.6 860.9 14.9 181.4 26.3 315.3 18.3 422.7-15 201.8-57.4 318-140.1 318-48.7 0-111.3-40.2-190.4-126.6-49.2-53.8-115.7-100.9-214.2-100.9-2.2 0-4.4 0-6.5 0.1-483.55 10.1-352.34 657.9-542.52 722.9-405.96 138.9-825.2 196-1317.7 196-1181.2 0-2250.6-490.4-3024.4-1283.4-238.22-244.1-448.52-516.9-625.55-812.9-513.41-724.1-816.25-1615.7-816.25-2580.1 0-508.2 70.82-1027.7 200.36-1502.5 126.85-464.61 309.34-886.78 536.12-1213.6 104.18-150.04 195.25-256.88 273.08-348.05 303.75-355.85 431.77-505.89 489.3-1802.6 2.25-51.1 6.1-99.55 11.27-145.13 26.59-234.65 89.03-395.24 159.92-471.44 37.72 56.96 67.71 174.35 80.07 362.83 2.32 35.75 5.28 70.58 8.79 104.45 28.08-81.2 61.99-141.87 98.08-180.64 37.69 56.92 67.72 174.31 80.08 362.82 16.17 248.06 61.65 452.16 123.85 607.28 72.01 62.43 152.39 94.23 237 94.23 3.4 0 6.84-0.03 10.25-0.13 102.54-3.07 197.19-51.51 275.87-147.11 95.46-116 174.14-325.52 209.45-632.68 11.81-103.02 18.76-217 19.85-342.16 1.83-219.25-12.87-436.16-38.61-651.56-50.76-425.27-144.46-844.71-238.25-1264.7-111.44-499.04-223.14-998.83-257.94-1501.1-54.67-788.54 103.54-1271.2 332.33-1480.6 76.87-70.37 160.86-105.03 243.83-105.03 1.09 0 2.15 0.03 3.2 0.03 20.26 0.21 40.75 2.45 61.42 6.78 67.48 14.06 136.56 49.91 203.25 106.97 92.78 79.26 177.76 194.3 247.14 344.27 230.66 246.36 397.21 732.15 364.73 1442.7-28.7 629.4-152.62 1172.6-272.02 1696.4-132.41 580.28-259.46 1137.5-254.97 1777.6 1.8 251.63 40.75 455.74 102 611.91 0.54 0.44 1.06 0.91 1.57 1.36 84.12 73.57 178.91 110.07 276.65 110.07 3.54 0 7.12-0.04 10.66-0.14 101.39-2.69 198.21-43.75 281.83-122.39 124.16-116.88 224.63-332.9 256.02-640.64 8.72-85.69 12.12-178.5 9.16-278.29-5.55-189.33 51.27-332.22 122.05-393.57l1.57-1.4c33.77 47.36 57.88 155.66 59.1 344.78 0.55 73.34 4.4 140.75 11.21 202.54 17.15-122.15 62.2-213.46 115.04-259.29l1.56-1.43c33.84 47.39 57.91 155.69 59.17 344.85 1.26 182.86 23.43 328.85 59.92 442.97 61.39 45.35 129.14 68.43 199.51 72.75 7.63 0.48 15.25 0.72 22.85 0.72 75.71 0 150.34-23.19 219.22-64.21 144.11-85.8 268.62-261.2 307.46-456.59 73.17-368.1 79.98-785.98 85.25-1110.9 2.42-150.24 4.53-279.48 13.11-367.93 29.32-303.08 91.42-485.09 164.82-573.88 14.2-17.16 28.77-30.84 43.64-41.26 12.16-8.51 24.01-12.5 34.94-12.5 2.17 0 4.32 0.14 6.43 0.48 21.45 3.2 45.93 17.67 71.36 41.67 58.01 54.58 107.65 141.5 139.25 252.49 15.08 7.04 31.18 18.58 47.73 34.18 112.38 105.71 193.24 332.56 172.51 620.86-36.33 504.83 2.18 983.51 45.14 1516.3 10.5 130.19 21.2 263.52 29.4 376.17 15.1 205.57 49 367.56 95.8 493.12 2.9 2.45 5.9 4.84 8.8 7.15 79.7 62.34 165.6 89.4 252.6 89.4 11.2 0 22.5-0.44 33.8-1.32 87.6-6.91 171.8-41.4 247.3-93.49 170.9-117.9 306.2-347.34 312.2-533.64 4.5-140.81 6.3-270.46 8-383.49 1-64.99 1.8-124.23 3.3-183.33 1-40.38 3.7-77.25 7.8-110.65 16-129.27 53.7-207.24 99-239.82 6.8-4.87 12.8-7.29 17.4-7.29h0.2c6.9 0.24 16.6 4.74 28.3 13.35 58.3 42.97 107 141.63 123.4 296.03 5.7-5.96 11.6-11.1 17.6-15.46 6.8-4.9 12.8-7.25 17.4-7.25h0.2c6.9 0.24 16.6 4.66 28.4 13.35 69.2 51.03 125 180.91 129 389.51 0.8 47.7 1.1 94.48 1.5 142.89 1.3 218.85 2.8 468.27 49.7 728.68 54.2 300.15 118.9 617.46 205 919.92 88.7 311.38 201.2 614.12 349.9 880.22 173.6 310.88 306.6 648.78 396.2 1005.7 89.3 355.4 135.2 730.1 135.2 1116 0 946.5-192.5 1673-688.6 2389.7-12.8 18.4-21.1 26.5-27 26.5-23.1 0-6.6-127.5-60.7-254.9-15.4-36.5-36.7-73-66.3-106.5-10.9 16.1-21.8 32.2-33 48.3-12.7 18.3-21.1 26.5-26.9 26.5-16.5 0-12.9-64.8-29-148.2-75.6-45.3-181.1-75.1-328.9-75.1-11.5 0-23.3 0.2-35.4 0.5-97.9 18.4-180.5 49.4-250 90 11.7-3.1 24-5.5 37.1-7 10.4-1.2 21.3-1.9 32.6-2.1 12.2-0.7 23.7-1.2 34.7-1.2 177.3 0 211.3 100.5 214.1 287.6 179.6 11.8 191.1 145.7 186.3 383.1-1.1 54.2 0.1 102.7 3.2 145.8 128.5-22.5 302.1-208.6 455.9-444.9 493.2-757.2 780.7-1666.8 780.7-2644.8 0-416.1-49.9-822.2-147.2-1209.4-97.4-388.25-243.1-757.51-433.9-1099.1-131.4-235.36-233.3-511.2-315.1-798.81-84.5-296.68-146.4-598.9-197.5-882.27-41.1-228.17-42.5-459.51-43.8-662.36-0.3-51.88-0.6-102.17-1.5-147.45-2.7-146.91-27.1-274.41-66.4-381.17-10.6-9.3-21.4-18.01-32.4-26.08-75.2-55.43-159.3-84.78-245.3-87.16-3.8-0.14-7.6-0.17-11.5-0.17-84.4 0-166.8 26.32-241.2 79.7-145.5 104.55-258.3 321.66-266.5 653.37-1.4 52.94-2.3 117.26-3.3 187.94-1.6 106.59-3.4 228.78-8.1 375.89-2.4 75.04-65.8 173.67-146.3 229.2-21.5 14.81-41.9 24.34-59.1 25.7-0.6 0.04-1.2 0.07-1.8 0.07-5.6 0-11.7-2.04-17.7-6.77-48.2-37.69-91.1-129.04-119.4-298.41-17.4 10.65-33.9 17.36-47.9 18.45-0.7 0.03-1.3 0.07-1.9 0.07-5.7 0-11.7-2.01-17.7-6.78-45.6-35.68-86.6-119.53-114.9-272.19-12.2-66.19-22.1-145.24-29-238.94-10.6-146.12-20.1-263.99-29.5-379.13-41.7-518.52-79.3-984.43-45.1-1459 17.3-240.33-22.2-457.47-95.5-631.34-3.5-3.51-7.1-6.95-10.7-10.32-82.97-78.2-177.96-127.67-277.71-142.69-21.66-3.23-43.31-4.9-64.93-4.9-86.71 0-172.71 26.59-253.77 83.24-175.75 122.77-323.95 405.15-371.27 893.87-9.81 101.09-12.09 238.39-14.61 398.07-5 307.09-11.37 701.99-79.26 1043.1-17.91 89.95-68.36 166.66-125.05 200.43-9.9 5.89-17.97 9.26-22.91 9.26h-0.61c-2.59-0.13 3.2-0.58 1.33-2.52-45.97-47.05-80.18-162.26-85.43-376.17-22.33 36.36-50.01 65.3-79.32 82.77-9.94 5.89-18.01 9.29-22.95 9.29-0.2 0-0.41 0-0.61-0.03-2.59-0.1 3.27-0.55 1.39-2.52-48.82-49.95-84.36-176.77-85.99-417.03-0.45-59.14-3.41-114.32-8.62-165.63-8.65-85.12-23.49-159.61-43.27-224.12-60.33-42.02-126.17-61.93-194.27-61.93-12.39 0-24.85 0.64-37.38 1.97-80.62 8.38-158.07 44.33-226.3 103.53-145.78 126.45-263.89 383.05-254.63 695.05 9.94 336.57-56.07 544.59-144.69 628.11-12.84 12.08-22.13 18.28-27.14 18.35h-0.23c-4.91 0-13.39-5.01-24.83-14.98-54.94-48.14-102.81-144.8-131.41-293.24-1.12 1.09-2.21 2.15-3.34 3.2-12.87 12.09-22.09 18.32-27.13 18.42h-0.17c-4.94 0-13.38-5-24.86-15.01-58.38-51.14-108.77-156.99-136.52-321.5-13.89-82.12-22.09-178.84-22.91-290.61-4.16-595.19 118.34-1132.4 245.98-1691.7 123.07-539.76 250.78-1099.6 281.08-1764.2 26.96-591.07-75.51-1059.4-244.76-1393.8-40.82-48.38-83.44-91.38-127.39-128.93-157.29-134.35-333.89-203.73-511.88-205.6-2.32-0.04-4.67-0.04-7.01-0.04m-743.46 5838.2-1.88-0.03-0.27-0.24 2.15-0.88 0.99 0.17-0.99 0.98 0.99-0.98c2.38 0.57 3.13 0.88-0.69 0.98h-0.3m-1.88-0.03-0.27-0.24 0.27 0.24m188.79 286.66-1.84-0.03-0.27-0.24 2.11-0.88 1.02 0.2-1.02 0.95 1.02-0.95c2.38 0.51 3.13 0.82-0.68 0.95h-0.34m-1.84-0.03-0.27-0.24 0.27 0.24" fill="#0b24f5"/></g><g transform="scale(2.6323)"><path d="m8396 12684c206.29 426.5 205.03 1071.7 181.48 1492.9-33.43 598.8-339.09 1701-757.39 1701-5.62-0.9-11.21-1.8-16.71-2.7 8.88 16.9 18.08 33.9 27.54 50.9 119.81 215 229.57 336.4 473.68 373.7 418.3 0 723.96-1102.2 757.39-1701 33.47-598.8 21.85-1650.4-566.91-1882.6-35.48-14-68.46-24.6-99.08-32.2" fill="#cb133e"/></g><g transform="scale(2.5642)"><path d="m8506.4 13006c-409.1 0-253.61 716.8-328.41 932.3-98.35 283.4-335.43 568.7-380.66 853.9-80.22 505.4-45.87 1010.6 213.36 1505 5.65 1 11.38 1.9 17.16 2.8 429.41 0 743.19-1131.5 777.51-1746.2 24.18-432.4 25.47-1094.7-186.3-1532.6-41.65-10.4-79.08-15.2-112.66-15.2" fill="#eb5577"/></g><g transform="scale(2.6165)"><path d="m11066 13498c-5.2 0-10.4 0.2-15.6 0.5-41.5 2.7-77.3 11.1-108.1 24.4 12.5 49.2 23.8 103.1 33.5 162 52.6 316.9 61.4 675.1 60.8 844.2-0.3 336.6-35.9 693.9-184.1 1000.3-102.2 211.4-210 313.5-314.6 339.2 105.6 238.5 263.1 431 433.2 431 121.2 0 248.8-97.6 368.9-345.7 148.2-306.5 183.7-663.7 184-1000.3 0.6-169.1-8.2-527.3-60.7-844.2-75.5-454.9-239.2-611.4-397.3-611.4" fill="#f5f5f5"/></g><g transform="scale(2.5473)"><path d="m11240 13891c-289.6 124.7-157.1 670.1-247.3 997.1-79.1 286.7-298.2 277.2-305.5 808.1-2.5 179.9 50.3 407.3 137.4 604.2 107.5-26.3 218.2-131.2 323.2-348.3 152.2-314.8 188.8-681.8 189.1-1027.6 0.6-173.6-8.5-541.5-62.4-867-10.1-60.6-21.6-116-34.5-166.5" fill="#eb5577"/></g><g transform="scale(2.1442)"><path d="m15822 3843.6c126.2 337.8 59.2 728.53 40.9 818.77-87.8 434.05-225.7 877.2-336.4 1233.3-57.9 186.09-107.9 346.8-143.5 480.97-30.3 113.29-131.4 193.18-248.5 196.16-2.2 0.09-4.2 0.09-6.3 0.09 22.1 76.02 43.5 146.54 64 209.64 35.3 109.5 136.9 183.01 251.8 183.01 2.2 0 4.3-0.05 6.4-0.1 117.2-2.98 218.4-82.83 248.5-196.11 35.7-134.17 85.7-294.93 143.7-481.06 110.7-356.08 248.5-799.23 336.4-1233.3 22.8-112.59 121.5-693.17-174.3-1054.8-52.7-64.36-114-116.73-182.7-156.56m-885.6 238.27c-3.1 25.75-4.7 53.03-5.1 81.11 2.5-26.73 4.2-53.92 5.1-81.11" fill="#eb5577"/></g><g transform="scale(2.0215)"><path d="m16060 4122.6c-8.6 0-17.3 0.29-26.2 0.89-103.5 6.58-130.5 41.06-140.7 53.96-27.9 35.47-43.5 89.44-50.9 152.17-0.9 28.84-2.7 57.68-5.4 86.02-2.5 160.13 29.9 344.35 44.2 425.52 41.6 236.95 106.2 537.02 177.8 835.26 49.6-166.65 98.2-338.6 141.7-512.23-26.9-172.3-58.6-460.4 27.8-570.22 7.3-9.4 23.6-30.17 71.7-43.33-3-150.88-32.1-293.89-93.8-369.28-23.7-29.03-59.6-58.76-146.2-58.76" fill="#ff8080"/></g><g transform="scale(2.0979)"><path d="m15798 3833.8c-19.4 0-39.3 0.62-59.7 1.95-281.5 18.02-441.3 149.77-525.7 257.17-250.6 318.8-161.7 824.17-119 1067 77.3 439.54 233.6 1097.4 367.7 1558.2 2.2 0 4.3 0 6.5-0.1 119.6-3.05 223-84.7 253.9-200.49 36.5-137.14 87.6-301.4 146.7-491.59 113.2-363.99 254.1-816.93 343.9-1260.6 18.7-92.24 87.2-491.6-41.9-836.85-107.8-62.44-233.5-94.76-372.4-94.76m-532.7 338.29c7.1-60.44 22.1-112.44 49-146.62 9.8-12.44 35.9-45.67 135.5-52.01 8.6-0.57 17-0.86 25.3-0.86 83.4 0 118 28.65 140.9 56.63 59.4 72.65 87.5 210.46 90.4 355.84 17.4-4.81 39.1-8.53 66.4-10.3 8.7-0.52 17.1-0.85 25.2-0.85 83.5 0 118.2 28.69 141 56.58 97.4 119.12 110.5 413.42 66.9 629.16-55.4 274.04-130.9 549.56-209 811.49-68.9-287.38-131.2-576.49-171.3-804.77-4-22.69-9.4-53.72-15.1-90.09-41.9 167.31-88.7 333.01-136.5 493.6-69-287.39-131.3-576.54-171.4-804.87-13.8-78.22-45-255.74-42.5-410.03 0.4-28.7 2.1-56.59 5.2-82.9" fill="#0b24f5"/></g><g transform="scale(2.1487)"><path d="m11589 11892c-223.2 0-333.8 131.1-478.5 302.4-121 143.4-258.6 306.3-469.5 469.5-128.2 99.3-243.9 140.2-351.6 140.2-236.7 0-434.82-197-643.5-404.5-137.89-137.1-284.82-283.1-417.55-283.1-14.66 0-29.13 1.7-43.42 5.5-11.91 4.3-23.87 9-35.97 14.1-2 1-4.05 2.1-6.05 3.3-88.52 50.8-194.63 263-301.16 476.1-118.53 237.2-237.58 475.3-404.19 624.6-61.53 55.2-120.4 86.2-177.69 103.5-4.65 4.7-9.3 9.1-13.96 13.3-2 1.8-3.81 2.5-5.63 2.5-4.05 0-8.1-3.7-14.33-7.1-46.4 10-91.96 12.1-137.25 12.1-16.89 0-33.69-0.3-50.54-0.6h-5.95c-40.49 0-80.52 14.5-113.14 339.5-33.32 331.4-238.98 557.9-456.51 797.5-86.74 95.5-175.87 193.7-247.4 295.7l255.36 383.1c48.36-57.9 99.88-114.7 150.61-170.6 217.52-239.5 423.18-466.1 456.45-797.5 32.62-325 72.69-339.5 113.18-339.5h5.91c16.94 0.3 33.84 0.6 50.82 0.6 111.51 0 224.6-13 348.63-124.2 166.56-149.4 285.61-387.6 404.14-624.6 106.58-213.2 212.64-425.4 301.21-476.1 27.64-15.9 56.21-23 85.49-23 132.68 0 279.6 146 417.5 283.1 208.64 207.5 406.84 404.5 643.44 404.5 107.7 0 223.4-40.9 351.7-140.1 210.9-163.3 348.4-326.2 469.4-469.6 144.6-171.3 255.4-302.4 478.5-302.4 45.3 0 95.1 5.4 150.8 16.9 86.2 17.9 117.2 114.1 156.4 235 77.7 240.7 171.7 531 534.8 796.4 6.8 4.8 13.5 9.3 20.4 13.5 91.6 61.8 183.1 87.6 275.1 87.6 219.6 0 442.3-146.9 677.5-302.1 127.6-84.1 261.3-172.3 377.6-221.1-35.4-145.6-51-319.5-66.7-494.4-1.2-13.6-2.4-27.1-3.6-40.7-53.5 15.8-106.6 36.2-159.2 60.2-98.1 50.2-204.4 120.3-306.7 187.8-119.1 78.6-235 155.1-349 211.4-72.8 45.1-127.9 75-148.7 75-1.5 0-2.8-0.1-3.9-0.4l-1.6-1.2c-3.5-2.5-6.9-5.1-10.3-7.7-54.9 15.9-109.5 24.9-163.9 24.9-92 0-183.4-25.8-275-87.6-7-4.1-13.8-8.6-20.4-13.5-363.3-265.3-457.2-555.6-535-796.3-2.4-7.4-4.7-14.6-7.1-21.8-37.4-62.3-67.1-124-92.1-184.3-16-14.3-34.7-24.3-57.2-28.9-55.6-11.5-105.5-16.9-150.7-16.9m2959.1 760.6c5.7 45.5 10.6 91.9 15.2 138.6 19.8-2.9 39.2-4.5 58.3-4.8-20.1-49.8-44.2-94.9-73.5-133.8m-313.1 1066.8c23.3 192 59.1 365.4 137.5 479.1 79.2 115.2 172.8 180.9 285.5 180.9 34.6 0 70.9-6.2 109.2-19l121.4-132.5c-10.4-43.8-20.9-90.8-32-140.6-21.9-98.1-46.5-208.3-74.8-315.1-3.2-1.6-6.5-2.4-9.9-2.4-4.4 0-9 1.5-13.8 4.7-96.1 66.1-181.8 96.7-258.7 96.7-102.9 0-189.8-54.7-264.4-151.8m1303.8 576.1-12.2 13.3c1.8 7.6 3.5 15.2 5.1 22.7l14.5-15.7c-2.4-6.8-4.9-13.6-7.4-20.3m437.8 524c-71.1 0-142 28.8-193.7 85.4l-62.7 68.3c-4.1-18.4-8.3-37.2-12.6-56.7l-421.2 459.5c0.6 1.5 1.3 3 1.9 4.5 5.9 14.4 13.5 27.6 21.6 40.4l-251 273.7c-97.8 106.9-90.4 273.1 16.5 370.8 50.3 46.1 113.8 68.8 177.1 68.8 71 0 141.9-28.7 193.7-85.2l723.9-789.8c97.9-106.9 90.5-273-16.4-370.9-50.4-46-113.8-68.8-177.1-68.8m-9374.3 94c-50.64 84.6-51.52 194.4 6.79 281.9l658.11 987.2c50.82 76.2 134.45 117.4 219.67 117.4 50.26 0 101.08-14.3 145.99-44.3 121.19-80.8 153.9-244.5 73.11-365.7l-212.26-318.4c-14.48 16.1-31.19 30.6-50.03 43.2-44.91 29.9-95.69 44.3-145.95 44.3-85.21 0-168.84-41.2-219.71-117.5l-220.6-330.8c-48.54-19-92-52.6-123.14-99.3l-131.98-198" fill="#0b24f5"/></g><g transform="scale(2.0484)"><path d="m12375 12522c26.2 63.2 57.3 128 96.6 193.3-27.3-83.8-52.5-154.1-96.6-193.3m2244.5 568.7c-11.7 0-23.8 0.9-36.3 2.6-11.3 2.9-22.5 6-33.8 9.3 1.2 14.2 2.4 28.4 3.7 42.7 16.5 183.4 32.8 365.8 70 518.6 42.5-17.8 82.8-30.7 119.8-36.5-1-10.8-1.9-21.6-2.9-32.5-21.8-242.4-32.5-481.1-38.1-484.3-24.1-13.7-51.8-19.9-82.4-19.9m718.5 321.4c-20.1 0.3-40.4 1.9-61.2 5 4.2 43.3 8.1 86.8 12 130.3 11.8 131.5 23.7 262.4 38.3 358.6 37.1-15.5 73.1-26.8 108-34.1-18.6-169.1-44.8-329.8-97.1-459.8m168 1034c29.7 112.1 55.5 227.7 78.4 330.6 11.7 52.3 22.7 101.5 33.7 147.5l-127.4 138.9c49.1-16.4 101.3-43.3 156.7-81.4 5-3.4 9.8-5 14.5-5 11.1 0 21.3 8.7 30.6 22.2 15.7 22.9 30.8 49.3 45.1 78.5-53-228.6-120.3-479.2-211.4-611.6-6.3-9.2-13-16.1-20.2-19.7m756 454c8.8 37 17.2 73.4 25.3 108.9l12.8-13.9c-12.1-32.4-24.8-64.1-38.1-95m-9304.5 700.7c-11.91 13.3-22.41 27.6-31.39 42.5l138.44 207.7c32.66 49 78.26 84.2 129.17 104.1l-236.22-354.3" fill="#ff8080"/></g><g transform="scale(2.0707)"><path d="m12130 12313c-417.1 0-606.4 224.3-852.2 515.4-108.9 129-232.8 275.7-403.7 408-5.5 4.3-12.1 6.3-19.8 6.3-57.6 0-172.1-113.9-294.6-235.7-230.9-229.5-475.1-472.3-791.23-472.3-74.57 0-153.14 13.5-236.45 43.9 14.83-3.9 29.85-5.8 45.06-5.8 137.73 0 290.19 151.6 433.32 293.8 216.5 215.3 422.1 419.8 667.7 419.8 111.8 0 231.8-42.4 364.9-145.5 218.8-169.3 361.6-338.4 487.2-487.2 150.1-177.8 264.9-313.8 496.5-313.8 46.9 0 98.7 5.6 156.4 17.6 23.3 4.8 42.7 15.1 59.4 30 43.5 38.7 68.6 108.3 95.5 191.2 2.5 7.4 4.9 14.9 7.3 22.6 80.8 249.7 178.2 551 555.2 826.3 6.9 5.1 13.9 9.8 21.2 14.1 95 64.1 189.9 90.9 285.4 90.9 56.4 0 113-9.4 170-25.9-226.6-170.3-292.7-374.7-347.8-544.8-94.9-294.2-170.8-528.3-572.6-611.5-123.2-25.6-230.9-37.4-326.7-37.4m-2635.3 280.2c-36.8 15.4-74.56 34-113.25 56.2-232.86 133.5-380.3 428.6-528.42 724.9-94.75 189.6-189.89 380-280.92 471.9 59.45-17.9 120.54-50.1 184.38-107.4 172.89-155 296.43-402 419.43-648.1 110.54-221.2 220.65-441.3 312.5-494.1 2.08-1.2 4.2-2.3 6.28-3.4m5131.6 333.1c-67.1 0-133.6 9.5-199.4 26.3 12.4-1.6 24.4-2.5 35.9-2.5 30.3 0 57.8 6.1 81.5 19.6 5.6 3.2 16.2 239.3 37.8 479.2 1 10.7 1.9 21.4 2.8 32.1 14.7-2.3 28.9-3.5 42.4-3.5 30.3 0 57.7 6 81.5 19.6 5.7 3.2 16.2 239.3 37.7 479.2 7.9 87.9 15.8 175.7 26 259.9 77.4 100.7 167.5 157.5 274.3 157.5 79.7 0 168.7-31.7 268.5-100.3 4.9-3.4 9.7-5 14.3-5 3.5 0 6.9 0.9 10.2 2.5 7.1 3.5 13.8 10.4 20 19.5 90.2 131 156.7 378.9 209.2 605 86.4 175.9 148.7 454.6 197.9 674.7 33.7 151.4 62.4 279.6 96.6 365.1l437-476.8c-0.4-1.9-0.9-3.9-1.4-5.8-42.1-189-92.5-414.6-166-617.6l-15.1 16.4c-1.7-7.8-3.5-15.7-5.3-23.6-8-35.2-16.3-71.2-25-107.8-33.6-77.6-71.4-149.6-114.4-212.2-121.4-176.3-267.1-287.6-444.9-287.6-62.9 0-129.8 13.9-201 43.8-14.6-95.2-26.2-224.7-37.9-354.8-6.2-69.1-12.4-138.4-19.9-206.3-34.4 7.2-70 18.3-106.8 33.7-14.4-95.2-26.2-224.6-37.9-354.8-3.8-43-7.7-86-11.8-128.8-4.8-48.5-9.9-96.6-15.8-143.8-32.9-43.6-72.1-79.8-119.1-106.7-119.1-68-236.4-96.2-351.9-96.2m-398 97.9c-155.6 70.8-306.8 170.5-453 267-82.3 54.3-161.8 106.7-227.4 147.3 118.2-58.5 238.5-137.8 362.1-219.4 106.2-70 216.5-142.7 318.3-194.9m-5781.9 824.5c-270.97 0-527.36 56.8-606.46 844.7-16.33 162.7-171.11 333.1-334.77 513.3-69.35 76.4-140 154.3-207.08 237.6-53.56-65.9-132.57-101.5-212.93-101.5-51.62 0-103.83 14.7-150.19 45.6-19.51 13-36.85 28.1-51.87 44.8l233.69 350.5 228.91 343.4c52.79 79.1 139.57 121.8 228 121.8 52.15 0 104.84-14.8 151.44-45.9 19.56-13 36.9-28.1 51.92-44.8l-154.64-232c38.2-59.4 82.87-117.6 130.54-174.8l-264.98-397.5c74.22-105.9 166.7-207.8 256.72-306.9 225.72-248.6 439.13-483.6 473.71-827.5 33.85-337.3 75.39-352.4 117.4-352.4 2.08 0 4.11 0 6.18 0.1 17.48 0.3 34.92 0.6 52.45 0.6 46.99 0 94.27-2.2 142.41-12.6-5.31-2.8-12.17-5.6-21.82-5.7-22.94-0.4-45.83-0.8-68.63-0.8" fill="#0b24f5"/></g></g></g></svg>
