<?xml version="1.0" encoding="UTF-8"?><svg id="Lager_1" xmlns="http://www.w3.org/2000/svg" viewBox="0 0 350.03 642.93"><defs><style>.cls-1{fill:#f3b14a;}.cls-2{fill:#f0836d;}.cls-3{fill:#f5b38e;}.cls-4{fill:#1d1d1b;}</style></defs><path class="cls-3" d="M16.06,82.01C72.9,39.17,146.57,25.26,217.7,22.68c9.68-.35,19.46-.51,28.94,1.46,14.76,3.06,28.07,11.14,39.61,20.83,16.24,13.63,29.76,31.09,36.02,51.35,6.26,20.25,4.6,43.42-7,61.16-6.76,10.33-16.4,18.34-25.17,27.03-59.51,58.99-78.42,148.99-134.73,211.04-13.94,15.37-33.29,29.72-53.62,25.59-14.39-2.92-25.38-14.52-33.81-26.55-30.11-42.95-39.59-96.75-45.65-148.85-5.32-45.77-8.62-91.78-9.87-137.84-.27-9.81,.28-21.18,8.12-27.07"/><path class="cls-2" d="M260.16,320.69c-6.54-.95-13.03,2.93-17.04,8.19s-6.02,11.73-7.95,18.05c-2.13,6.94-4.27,13.99-4.46,21.25-.08,2.93,.19,5.97,1.55,8.57,2.84,5.45,9.44,7.55,15.42,8.96,9.93,2.35,21.01,4.08,29.81-1.08,7.59-4.45,11.64-12.99,14.98-21.12,.9-2.18,1.78-4.44,1.78-6.79,0-2.25-.81-4.42-1.86-6.41-7.22-13.68-24.48-19.16-33.16-31.97"/><path class="cls-1" d="M33.87,442.81c-5.82,20.98-4.81,43.79,2.85,64.17,5.52,14.67,14.27,27.87,23,40.89,17.74,26.45,36.75,53.69,64.67,69.01,27.92,15.32,67.4,14.52,87.27-10.37,8.78-11,12.65-25.02,16.1-38.66,8.35-33.04,15.49-66.99,12.8-100.96-.38-4.76-1.05-9.77-3.97-13.56-2.72-3.53-6.99-5.46-11.17-6.98-38.37-13.92-81.18-3.66-121.51-9.96-17.72-2.77-35.4-8.76-53.17-6.33-5.5,.75-11.18,2.5-14.89,6.62s-4.58,11.16-.64,15.06"/><path class="cls-4" d="M-11.01,456.05c16.55,4.65,32.62,12.92,45.34,24.58,6.41,5.88,11.42,12.8,14.36,21.02s4.41,16.75,5.02,25.3c1.22,17.01-1.41,34.19-7.62,50.07-5.82,14.9-15.01,28.37-26.53,39.44s-24.31,19.09-38.7,24.45c-1.82,.68-3.66,1.31-5.51,1.89-3.06,.97-1.75,5.79,1.33,4.82,15.5-4.9,29.85-13.04,42.12-23.69s22.72-24.38,29.54-39.46c7.36-16.25,11.05-34.12,10.64-51.96-.21-8.96-1.39-18-3.74-26.66s-6.5-17.15-12.73-24.08c-5.98-6.66-13.36-12.15-20.94-16.84-7.77-4.81-16.11-8.73-24.76-11.68-2.15-.73-4.32-1.4-6.5-2.02-3.1-.87-4.43,3.95-1.33,4.82h0Z"/><path class="cls-4" d="M-9.85,478.26c4.85-1.7,9.62,.44,13.52,3.36,4.14,3.1,7.54,7.3,10.52,11.49,6.08,8.55,10.5,18.22,12.82,28.46s2.44,20.3,.11,30.19c-2.16,9.19-6.37,17.98-12.3,25.35-6.58,8.19-15.15,14.81-25.06,18.43-1.27,.46-2.12,1.7-1.75,3.08,.34,1.22,1.8,2.21,3.08,1.75,19.53-7.14,34.28-24.26,40.01-44.08,6.29-21.72,.98-45.71-11.56-64.19-3.61-5.32-7.73-10.5-12.86-14.41s-11.58-6.44-17.87-4.23c-1.27,.45-2.12,1.71-1.75,3.08,.34,1.24,1.8,2.19,3.08,1.75h0Z"/><path class="cls-4" d="M-5.62,511.84c3.97-1.15,7.01,4.26,8.51,7.22,2.5,4.91,4.91,10.08,5.68,15.59,1.2,8.54-2.16,17.42-8.03,23.61-3.36,3.54-7.51,6.22-12.21,7.6-3.08,.9-1.77,5.73,1.33,4.82,10.13-2.98,18.04-10.96,21.86-20.68,1.85-4.71,2.66-9.96,2.08-15-.74-6.49-3.38-12.48-6.3-18.26-2.64-5.22-7.57-11.66-14.26-9.72-3.08,.9-1.77,5.72,1.33,4.82h0Z"/></svg>