<svg xmlns="http://www.w3.org/2000/svg" xmlns:xlink="http://www.w3.org/1999/xlink" width="40" zoomAndPan="magnify" viewBox="0 0 30 30.000001" height="40" preserveAspectRatio="xMidYMid meet" version="1.0"><defs><clipPath id="5e5b29b5cb"><path d="M 3 2.089844 L 28 2.089844 L 28 26.765625 L 3 26.765625 Z M 3 2.089844 " clip-rule="nonzero"/></clipPath></defs><g clip-path="url(#5e5b29b5cb)"><path fill="#f8f4eb" d="M 13.953125 2.945312 C 8.296875 3.554688 3.746094 8.074219 3.128906 13.570312 C 2.390625 19.679688 6.203125 24.933594 11.617188 26.644531 L 11.617188 23.832031 C 11.617188 23.832031 11.125 23.957031 10.511719 23.957031 C 8.789062 23.957031 8.050781 22.488281 7.925781 21.636719 C 7.804688 21.144531 7.558594 20.78125 7.1875 20.414062 C 6.820312 20.292969 6.695312 20.292969 6.695312 20.167969 C 6.695312 19.925781 7.066406 19.925781 7.1875 19.925781 C 7.925781 19.925781 8.542969 20.78125 8.789062 21.144531 C 9.402344 22.125 10.140625 22.367188 10.511719 22.367188 C 11.003906 22.367188 11.371094 22.246094 11.617188 22.125 C 11.742188 21.269531 12.109375 20.414062 12.847656 19.925781 C 10.019531 19.3125 7.925781 17.726562 7.925781 15.039062 C 7.925781 13.695312 8.542969 12.351562 9.402344 11.375 C 9.28125 11.128906 9.15625 10.519531 9.15625 9.664062 C 9.15625 9.175781 9.15625 8.441406 9.527344 7.707031 C 9.527344 7.707031 11.25 7.707031 12.96875 9.296875 C 13.585938 9.050781 14.445312 8.929688 15.308594 8.929688 C 16.167969 8.929688 17.03125 9.050781 17.769531 9.296875 C 19.367188 7.707031 21.210938 7.707031 21.210938 7.707031 C 21.457031 8.441406 21.457031 9.175781 21.457031 9.664062 C 21.457031 10.640625 21.335938 11.128906 21.210938 11.375 C 22.074219 12.351562 22.6875 13.570312 22.6875 15.039062 C 22.6875 17.726562 20.597656 19.3125 17.769531 19.925781 C 18.503906 20.535156 18.996094 21.636719 18.996094 22.734375 L 18.996094 26.765625 C 24.042969 25.179688 27.609375 20.535156 27.609375 15.160156 C 27.609375 7.832031 21.335938 2.089844 13.953125 2.945312 Z M 13.953125 2.945312 " fill-opacity="1" fill-rule="nonzero"/></g></svg>