<svg xmlns="http://www.w3.org/2000/svg" xmlns:xlink="http://www.w3.org/1999/xlink" width="40" zoomAndPan="magnify" viewBox="0 0 30 30.000001" height="40" preserveAspectRatio="xMidYMid meet" version="1.0"><defs><clipPath id="203efa598c"><path d="M 2.574219 2.46875 L 27.25 2.46875 L 27.25 27.144531 L 2.574219 27.144531 Z M 2.574219 2.46875 " clip-rule="nonzero"/></clipPath></defs><g clip-path="url(#203efa598c)"><path fill="#f8f4eb" d="M 14.910156 2.46875 C 8.09375 2.46875 2.574219 7.992188 2.574219 14.804688 C 2.574219 21.621094 8.09375 27.144531 14.910156 27.144531 C 21.726562 27.144531 27.25 21.621094 27.25 14.804688 C 27.238281 7.992188 21.714844 2.46875 14.910156 2.46875 Z M 11.289062 21.375 L 8.394531 21.375 L 8.394531 12.039062 L 11.289062 12.039062 Z M 9.847656 10.800781 C 8.917969 10.800781 8.160156 10.042969 8.160156 9.113281 C 8.160156 8.183594 8.917969 7.425781 9.847656 7.425781 C 10.777344 7.425781 11.535156 8.183594 11.535156 9.113281 C 11.535156 10.042969 10.777344 10.800781 9.847656 10.800781 Z M 22.164062 21.375 L 19.269531 21.375 L 19.269531 16.707031 C 19.269531 16.046875 19.269531 14.402344 17.796875 14.402344 C 16.117188 14.402344 16.011719 16.097656 16.011719 16.097656 L 16.011719 21.375 L 13.128906 21.375 L 13.128906 12.039062 L 16.023438 12.039062 L 16.023438 13.320312 C 16.707031 11.933594 18.117188 11.824219 19.035156 11.824219 C 20.082031 11.824219 21.023438 12.230469 21.554688 13.128906 C 22.015625 13.886719 22.164062 14.988281 22.164062 16.707031 Z M 22.164062 21.375 " fill-opacity="1" fill-rule="nonzero"/></g></svg>