<?xml version="1.0" encoding="UTF-8" standalone="no"?>
<!-- Created with Inkscape (http://www.inkscape.org/) -->

<svg
   width="210mm"
   height="297mm"
   viewBox="0 0 210 297"
   version="1.1"
   id="svg5"
   inkscape:version="1.1.1 (c3084ef, 2021-09-22)"
   sodipodi:docname="raglan-purple-grey-round.svg"
   xmlns:inkscape="http://www.inkscape.org/namespaces/inkscape"
   xmlns:sodipodi="http://sodipodi.sourceforge.net/DTD/sodipodi-0.dtd"
   xmlns="http://www.w3.org/2000/svg"
   xmlns:svg="http://www.w3.org/2000/svg">
  <sodipodi:namedview
     id="namedview7"
     pagecolor="#ffffff"
     bordercolor="#666666"
     borderopacity="1.0"
     inkscape:pageshadow="2"
     inkscape:pageopacity="0.0"
     inkscape:pagecheckerboard="0"
     inkscape:document-units="mm"
     showgrid="false"
     inkscape:zoom="0.77771465"
     inkscape:cx="449.39362"
     inkscape:cy="581.83294"
     inkscape:window-width="1708"
     inkscape:window-height="1081"
     inkscape:window-x="82"
     inkscape:window-y="25"
     inkscape:window-maximized="0"
     inkscape:current-layer="g843" />
  <defs
     id="defs2">
    <style
       id="style824">.cls-1{fill:none;}.cls-2{fill:#1d1d1b;}</style>
  </defs>
  <g
     inkscape:label="Layer 1"
     inkscape:groupmode="layer"
     id="layer1">
    <g
       id="g843"
       transform="matrix(0.13229166,0,0,0.13229166,25.515471,33.347005)"
       style="display:inline">
      <path
         class="cls-1"
         d="m 1263.85,1829.75 c 1.33,10.12 2.07,19.78 3.94,29.22 4.54,22.91 8.52,46 14.68,68.5 12.21,44.51 33.19,85 59.38,122.93 24.5,35.49 54,66.29 87.58,93 a 430.13,430.13 0 0 0 108,62.55 c 42.86,17.18 87.24,28.25 133.19,30.51 28.89,1.41 58,-1.15 87,-3 28.34,-1.79 55.59,-9.35 82.55,-18 a 418.34,418.34 0 0 0 107.12,-52.19 c 34.21,-23.24 66.16,-49.58 91.24,-82.88 17,-22.55 33.9,-45.44 48.05,-69.81 19.22,-33.12 32.49,-69 41.45,-106.43 a 447.85,447.85 0 0 0 12.43,-98 c 0.25,-17.37 0,-34.74 0,-52.11 q 0,-521.77 -0.06,-1043.55 a 90.77,90.77 0 0 0 -1.59,-15.3 c -5.83,-33.77 -36.53,-58.89 -69.4,-58.74 -57.2,0.25 -114.39,0.07 -171.59,0.07 -34.1,0 -68.2,0 -102.29,-0.07 -4.15,0 -6.85,0.68 -9.09,4.92 -5.88,11.13 -12.17,22.09 -19,32.68 a 242.78,242.78 0 0 1 -56.13,61.23 c -20.74,16 -42.76,29.5 -67.14,39.55 a 288.78,288.78 0 0 1 -99,21.45 c -14.29,0.59 -28.74,-1.68 -43.08,-3 a 230.56,230.56 0 0 1 -86,-26.06 c -18,-9.46 -34.93,-21.21 -51.06,-33.61 -13.49,-10.37 -26.52,-22 -37.23,-35.17 -12.29,-15.11 -22.45,-32.11 -32.26,-49 -5.24,-9 -10.26,-13.3 -21.7,-13.21 -86.61,0.65 -173.23,0.33 -259.85,0.43 A 69.45,69.45 0 0 0 998,638.25 c -32,7.67 -55.32,36.7 -55.32,69.23 q 0.08,523 -0.18,1046 c -0.05,40 33.68,74.85 74.6,74.29 29.42,-0.41 58.84,-0.08 88.27,-0.08 h 8.91 v -6.23 c 0.55,-128.59 1.37,-257.17 1.59,-385.75 q 0.4,-241.31 0,-482.59 c -0.07,-43.67 42,-81.85 87,-75 a 282,282 0 0 0 27.71,77 c 18.85,35.36 44.66,64.94 75.62,89.72 a 348.1,348.1 0 0 0 75.84,45.78 378.09,378.09 0 0 0 133.53,32.19 c 23.83,1.37 48,-1.18 71.9,-3 30.78,-2.33 60.43,-10.28 89.11,-21.46 55.09,-21.47 103,-53.1 140.55,-99.57 28.07,-34.77 47.77,-73.4 56.4,-117.48 0.43,-2.18 4,-5.17 6.28,-5.32 15.8,-1.08 31.44,0.19 46.24,6.47 25.36,10.77 46.18,38.58 46.18,66.2 q 0.07,259.94 0,519.87 v 312.65 c 0,11.61 -0.14,23.22 0,34.82 0.41,26.87 -6,52.41 -14.93,77.45 -11.4,31.85 -28,60.84 -50.43,86 -27.72,31.08 -60.19,56 -98.85,72.62 -34.73,14.91 -71,21.88 -108.51,23 -12.66,0.37 -25.41,-1.87 -38.1,-3.08 -26.52,-2.52 -51.67,-10.13 -75.84,-21 -38.08,-17.17 -70.92,-41.22 -98.13,-73.23 -20.33,-23.92 -37,-49.92 -47.28,-79.43 -6.76,-19.43 -11.37,-39.72 -15.35,-59.94 -1.38,-7 -2.81,-9.08 -9.79,-9 -47.57,0.26 -95.14,0.13 -142.71,0.15 -2.38,-0.14 -4.79,0.06 -8.46,0.22 z"
         transform="translate(-942.46,-636.1)"
         id="path830" />
      <path
         class="cls-1"
         d="m 1291.64,670.54 c 48.06,87.86 120.24,139.46 218.26,150.21 115.44,12.64 221.64,-46.81 275.24,-149.12 12,22.46 19.39,46.32 23.62,71.11 2.4,14.11 5.8,28.66 4.53,42.62 a 329,329 0 0 1 -11.85,61.75 c -14.31,49.16 -42.23,90.2 -80.57,123.74 q -52.93,46.32 -122.13,61.81 a 280.65,280.65 0 0 1 -80.28,6.1 268.28,268.28 0 0 1 -86.77,-20.93 272.92,272.92 0 0 1 -92.6,-63.38 c -35.15,-36.73 -58.95,-79.89 -69.44,-129.66 -4.05,-19.23 -8.15,-39.56 -6,-58.7 2.68,-24.23 11.37,-47.85 18.08,-71.56 2.27,-8.11 6.41,-15.71 9.91,-23.99 z"
         transform="translate(-942.46,-636.1)"
         id="path834" />
      <ellipse
         style="fill:#ffffff;stroke:#000000;stroke-width:36.8734;stroke-linecap:round;stroke-linejoin:round;paint-order:markers stroke fill"
         id="path1115"
         cx="595.72357"
         cy="785.97345"
         rx="737.46887"
         ry="737.46881" />
      <g
         id="g2214"
         transform="matrix(0.79999996,0,0,0.79999996,114.03261,205.57264)">
        <path
           class="cls-2"
           d="m 1263.85,1829.75 c 3.67,-0.16 6.08,-0.36 8.5,-0.36 47.57,0 95.14,0.11 142.71,-0.15 7,0 8.41,2 9.79,9 4,20.22 8.59,40.51 15.35,59.94 10.26,29.51 27,55.51 47.28,79.43 27.21,32 60,56.06 98.13,73.23 24.17,10.9 49.32,18.51 75.84,21 12.69,1.21 25.44,3.45 38.1,3.08 37.47,-1.1 73.78,-8.07 108.51,-23 38.66,-16.59 71.13,-41.54 98.85,-72.62 22.45,-25.16 39,-54.15 50.43,-86 9,-25 15.34,-50.58 14.93,-77.45 -0.17,-11.6 0,-23.21 0,-34.82 V 1468.47 948.6 c 0,-27.62 -20.82,-55.43 -46.18,-66.2 -14.8,-6.28 -30.44,-7.55 -46.24,-6.47 -2.28,0.15 -5.85,3.14 -6.28,5.32 -8.63,44.08 -28.33,82.71 -56.4,117.48 -37.5,46.47 -85.46,78.1 -140.55,99.57 -28.68,11.18 -58.33,19.13 -89.11,21.46 -23.93,1.81 -48.07,4.36 -71.9,3 -46.1298,-2.4807 -91.4145,-13.3943 -133.61,-32.2 -27.1265,-11.9679 -52.6128,-27.3525 -75.84,-45.78 -31,-24.78 -56.77,-54.36 -75.62,-89.72 -12.9315,-24.1828 -22.2664,-50.12253 -27.71,-77 -45,-6.81 -87.12,31.37 -87,75 0.24,160.86 0.24,321.7233 0,482.59 -0.22,128.58 -1,257.16 -1.59,385.75 v 6.23 h -8.91 c -29.43,0 -58.85,-0.33 -88.27,0.08 -40.92,0.56 -74.65,-34.24 -74.6,-74.29 0.37333,-348.6667 0.43333,-697.3333 0.18,-1046 0,-32.53 23.31,-61.56 55.32,-69.23 5.2784,-1.19497 10.6784,-1.76886 16.09,-1.71 86.62,-0.1 173.24,0.22 259.85,-0.43 11.44,-0.09 16.46,4.17 21.7,13.21 9.81,16.92 20,33.92 32.26,49 10.71,13.15 23.74,24.8 37.23,35.17 16.13,12.4 33.1,24.15 51.06,33.61 26.68,14.24313 55.9016,23.09796 86,26.06 14.34,1.36 28.79,3.63 43.08,3 34.0061,-1.26114 67.5216,-8.52284 99,-21.45 24.38,-10 46.4,-23.55 67.14,-39.55 22.0808,-16.99423 41.0715,-37.66269 56.14,-61.1 6.81,-10.59 13.1,-21.55 19,-32.68 2.24,-4.24 4.94,-4.93 9.09,-4.92 34.09,0.11 68.19,0.07 102.29,0.07 57.2,0 114.39,0.18 171.59,-0.07 32.87,-0.15 63.57,25 69.4,58.74 0.962,5.04582 1.4939,10.1642 1.59,15.3 0.073,347.8467 0.093,695.6967 0.06,1043.55 0,17.37 0.21,34.74 0,52.11 -0.5169,33.0251 -4.6856,65.8916 -12.43,98 -9,37.46 -22.23,73.31 -41.45,106.43 -14.15,24.37 -31.05,47.26 -48.05,69.81 -25.08,33.3 -57,59.64 -91.24,82.88 -33.0335,22.4188 -69.106,39.9937 -107.12,52.19 -27,8.69 -54.21,16.25 -82.55,18 -29,1.82 -58.11,4.38 -87,3 -46,-2.26 -90.33,-13.33 -133.19,-30.51 -38.8495,-15.4885 -75.2324,-36.5603 -108,-62.55 -33.59,-26.68 -63.08,-57.48 -87.58,-93 -26.19,-38 -47.17,-78.42 -59.38,-122.93 -6.16,-22.49 -10.14,-45.59 -14.68,-68.5 -1.94,-9.39 -2.68,-19.05 -4.01,-29.17 z"
           id="path832"
           style="fill:#663399;fill-opacity:1"
           sodipodi:nodetypes="cscccccccccccscscccccccccccccccscccccccccccccccccscccccccccccccccccc"
           transform="translate(-942.46,-636.1)" />
        <path
           id="path1169"
           style="fill:#a0a0a0;stroke:none;stroke-width:2.55149"
           d="M 846.68,60.129747 831.06225,82.839625 C 793.08587,138.05869 733.78673,179.09598 667.38477,196.1083 c -25.4394,6.51763 -85.84062,9.00018 -114.6661,4.71494 -84.44743,-12.55407 -158.10526,-60.46636 -198.87283,-129.363199 -3.44775,-5.826647 -6.99166,-10.60367 -7.87223,-10.613383 -2.10538,-0.02524 -7.9662,15.228354 -18.22731,47.426352 -7.17945,22.52813 -8.3469,29.91285 -8.27614,52.44096 0.14213,45.22676 19.17473,98.74363 49.68455,139.69968 43.10738,57.86686 114.69472,99.26335 189.80076,109.75616 84.75531,11.84088 176.35701,-19.37029 238.32906,-81.20477 35.36078,-35.28227 53.85687,-67.44528 68.03064,-118.30604 11.46272,-41.13259 6.3171,-95.45209 -13.10323,-138.318949 z" />
      </g>
    </g>
  </g>
</svg>
