<svg width="1498" height="11" viewBox="0 0 1498 11" fill="none" xmlns="http://www.w3.org/2000/svg">
<path d="M2 5.2453C8.87266 2.25157 14.5999 2.25157 19.1816 5.2453C23.7634 8.23904 29.4906 8.23904 36.3633 5.2453C43.236 2.25157 48.9632 2.25157 53.5449 5.2453C58.1267 8.23904 63.8539 8.23904 70.7266 5.2453C77.5993 2.25157 83.3265 2.25157 87.9082 5.2453C92.49 8.23904 98.2172 8.23904 105.09 5.2453C111.963 2.25157 117.69 2.25157 122.272 5.2453C126.853 8.23904 132.581 8.23904 139.453 5.2453C146.326 2.25157 152.053 2.25157 156.635 5.2453C161.217 8.23904 166.944 8.23904 173.816 5.2453" stroke="#FF4575" stroke-width="5.99997"/>
<path d="M173.817 5.2453C180.689 2.25157 186.416 2.25157 190.998 5.2453C195.58 8.23904 201.307 8.23904 208.18 5.2453C215.052 2.25157 220.78 2.25157 225.361 5.2453C229.943 8.23904 235.67 8.23904 242.543 5.2453C249.416 2.25157 255.143 2.25157 259.725 5.2453C264.307 8.23904 270.034 8.23904 276.906 5.2453C283.779 2.25157 289.506 2.25157 294.088 5.2453C298.67 8.23904 304.397 8.23904 311.27 5.2453C318.142 2.25157 323.87 2.25157 328.451 5.2453C333.033 8.23904 338.76 8.23904 345.633 5.2453" stroke="#FF4575" stroke-width="5.99997"/>
<path d="M345.633 5.2453C352.506 2.25157 358.233 2.25157 362.815 5.2453C367.396 8.23904 373.124 8.23904 379.996 5.2453C386.869 2.25157 392.596 2.25157 397.178 5.2453C401.76 8.23904 407.487 8.23904 414.36 5.2453C421.232 2.25157 426.96 2.25157 431.541 5.2453C436.123 8.23904 441.85 8.23904 448.723 5.2453C455.596 2.25157 461.323 2.25157 465.905 5.2453C470.486 8.23904 476.214 8.23904 483.086 5.2453C489.959 2.25157 495.686 2.25157 500.268 5.2453C504.85 8.23904 510.577 8.23904 517.45 5.2453" stroke="#FF4575" stroke-width="5.99997"/>
<path d="M517.449 5.2453C524.322 2.25157 530.049 2.25157 534.631 5.2453C539.213 8.23904 544.94 8.23904 551.813 5.2453C558.685 2.25157 564.413 2.25157 568.994 5.2453C573.576 8.23904 579.303 8.23904 586.176 5.2453C593.049 2.25157 598.776 2.25157 603.358 5.2453C607.939 8.23904 613.667 8.23904 620.539 5.2453C627.412 2.25157 633.139 2.25157 637.721 5.2453C642.303 8.23904 648.03 8.23904 654.903 5.2453C661.775 2.25157 667.503 2.25157 672.084 5.2453C676.666 8.23904 682.393 8.23904 689.266 5.2453" stroke="#FF4575" stroke-width="5.99997"/>
<path d="M689.266 5.2453C696.139 2.25157 701.866 2.25157 706.448 5.2453C711.029 8.23904 716.757 8.23904 723.629 5.2453C730.502 2.25157 736.229 2.25157 740.811 5.2453C745.393 8.23904 751.12 8.23904 757.993 5.2453C764.865 2.25157 770.592 2.25157 775.174 5.2453C779.756 8.23904 785.483 8.23904 792.356 5.2453C799.229 2.25157 804.956 2.25157 809.538 5.2453C814.119 8.23904 819.847 8.23904 826.719 5.2453C833.592 2.25157 839.319 2.25157 843.901 5.2453C848.483 8.23904 854.21 8.23904 861.082 5.2453" stroke="#FF4575" stroke-width="5.99997"/>
<path d="M861.083 5.2453C867.955 2.25157 873.682 2.25157 878.264 5.2453C882.846 8.23904 888.573 8.23904 895.446 5.2453C902.318 2.25157 908.046 2.25157 912.627 5.2453C917.209 8.23904 922.936 8.23904 929.809 5.2453C936.682 2.25157 942.409 2.25157 946.991 5.2453C951.573 8.23904 957.3 8.23904 964.172 5.2453C971.045 2.25157 976.772 2.25157 981.354 5.2453C985.936 8.23904 991.663 8.23904 998.536 5.2453C1005.41 2.25157 1011.14 2.25157 1015.72 5.2453C1020.3 8.23904 1026.03 8.23904 1032.9 5.2453" stroke="#FF4575" stroke-width="5.99997"/>
<path d="M1032.9 5.2453C1039.77 2.25157 1045.5 2.25157 1050.08 5.2453C1054.66 8.23904 1060.39 8.23904 1067.26 5.2453C1074.14 2.25157 1079.86 2.25157 1084.44 5.2453C1089.03 8.23904 1094.75 8.23904 1101.63 5.2453C1108.5 2.25157 1114.23 2.25157 1118.81 5.2453C1123.39 8.23904 1129.12 8.23904 1135.99 5.2453C1142.86 2.25157 1148.59 2.25157 1153.17 5.2453C1157.75 8.23904 1163.48 8.23904 1170.35 5.2453C1177.22 2.25157 1182.95 2.25157 1187.53 5.2453C1192.12 8.23904 1197.84 8.23904 1204.72 5.2453" stroke="#FF4575" stroke-width="5.99997"/>
<path d="M1204.72 5.2453C1211.59 2.25157 1217.32 2.25157 1221.9 5.2453C1226.48 8.23904 1232.21 8.23904 1239.08 5.2453C1245.95 2.25157 1251.68 2.25157 1256.26 5.2453C1260.84 8.23904 1266.57 8.23904 1273.44 5.2453C1280.31 2.25157 1286.04 2.25157 1290.62 5.2453C1295.21 8.23904 1300.93 8.23904 1307.81 5.2453C1314.68 2.25157 1320.41 2.25157 1324.99 5.2453C1329.57 8.23904 1335.3 8.23904 1342.17 5.2453C1349.04 2.25157 1354.77 2.25157 1359.35 5.2453C1363.93 8.23904 1369.66 8.23904 1376.53 5.2453" stroke="#FF4575" stroke-width="5.99997"/>
<path d="M1376.53 5.2453C1383.4 2.25157 1389.13 2.25157 1393.71 5.2453C1398.3 8.23904 1404.02 8.23904 1410.9 5.2453C1417.77 2.25157 1423.5 2.25157 1428.08 5.2453C1432.66 8.23904 1438.39 8.23904 1445.26 5.2453C1452.13 2.25157 1457.86 2.25157 1462.44 5.2453C1467.02 8.23904 1472.75 8.23904 1479.62 5.2453C1486.49 2.25157 1492.22 2.25157 1496.8 5.2453C1501.39 8.23904 1507.11 8.23904 1513.99 5.2453C1520.86 2.25157 1526.59 2.25157 1531.17 5.2453C1535.75 8.23904 1541.48 8.23904 1548.35 5.2453" stroke="#FF4575" stroke-width="5.99997"/>
</svg>
