<svg xmlns="http://www.w3.org/2000/svg" data-name="Layer 2" viewBox="0 0 100 125" x="0px" y="0px"><title>i-148</title><path d="M85.2,62.77,55.3,92.69a7.48,7.48,0,0,1-10.6,0L14.8,62.77A7.47,7.47,0,0,1,20.07,50a7.37,7.37,0,0,1,5.3,2.2L42.58,69.41V12.6a7.42,7.42,0,1,1,14.84,0V69.41L74.63,52.2a7.37,7.37,0,0,1,5.3-2.2A7.47,7.47,0,0,1,85.2,62.77Z"/><text x="0" y="115" fill="#000000" font-size="5px" font-weight="bold" font-family="'Helvetica Neue', Helvetica, Arial-Unicode, Arial, Sans-serif"></text><text x="0" y="120" fill="#000000" font-size="5px" font-weight="bold" font-family="'Helvetica Neue', Helvetica, Arial-Unicode, Arial, Sans-serif"></text></svg>