<?xml version="1.0" encoding="utf-8"?>
<!-- Generator: Adobe Illustrator 19.0.0, SVG Export Plug-In . SVG Version: 6.00 Build 0)  -->
<svg version="1.1" id="Layer_1" xmlns="http://www.w3.org/2000/svg" xmlns:xlink="http://www.w3.org/1999/xlink" x="0px" y="0px"
	 viewBox="0 0 1400 980" style="enable-background:new 0 0 1400 980;" xml:space="preserve">
<style type="text/css">
	.st0{fill:#A3DBEF;}
	.st1{fill:#7CB5DB;}
	.st2{fill:#B6B7B8;}
	.st3{fill:#404041;}
	.st4{fill:#929294;}
	.st5{fill:#29282A;}
	.st6{fill:#FBF1C4;}
	.st7{fill:#F7E289;}
	.st8{fill:#121112;}
	.st9{fill:#08459E;}
	.st10{fill:#CE202F;}
	.st11{fill:#C1D1E7;}
	.st12{fill:#E8BDC1;}
	.st13{fill:#FDF8E2;}
	.st14{fill:#9B1823;}
	.st15{fill:#D75460;}
	.st16{fill:#FFFFFF;}
	.st17{fill:#DBDBDB;}
	.st18{fill:#6D6E70;}
</style>
<rect y="3" class="st0" width="1400" height="977"/>
<g>
	<polygon class="st1" points="1114.5,660.4 1027.2,660.4 1004.2,682 1004.2,700.4 987.2,700.4 964.2,722 964.2,805 987.2,826.6 
		1074.5,826.6 1161.7,826.6 1184.7,805 1184.7,786.6 1201.7,786.6 1224.7,765 1224.7,682 1201.7,660.4 	"/>
	<path class="st1" d="M764.1,665.3L764.1,665.3c-11.5,0-20.9,9.4-20.9,20.9v0.7c0,2.9,2.3,5.2,5.2,5.2h3.2c2.9,0,5.2-2.3,5.2-5.2
		c0-4.4,3.5-7.9,7.9-7.9c2.4,0,4.6,1.1,6.1,2.9l38.9,47.1h-94.4h-10.5h-16.5h-16.5h-5.6h-99.3l38.9-47.1c1.5-1.8,3.7-2.9,6.1-2.9
		l0,0c4.4,0,7.9,3.5,7.9,7.9c0,2.9,2.3,5.2,5.2,5.2h3.2c2.9,0,5.2-2.3,5.2-5.2v-0.7c0-11.5-9.4-20.9-20.9-20.9
		c-6.2,0-12.1,2.8-16.1,7.6l-46.3,56v87.9c0,5,4.1,9,9,9h112.6c5,0,9-4.1,9-9v-39.4c0-4.1,3.4-7.5,7.5-7.5c4.1,0,7.5,3.4,7.5,7.5
		v39.4c0,0.9,0.1,1.8,0.4,2.7c0.2,0.6,0.4,1.1,0.7,1.6c1.1,2,3,3.6,5.2,4.3c0.6,0.2,1.2,0.3,1.8,0.4c0.3,0,0.6,0,0.9,0h112.6
		c0.3,0,0.6,0,0.9,0c0.6-0.1,1.2-0.2,1.8-0.4c2.3-0.7,4.1-2.3,5.2-4.3c0.3-0.5,0.5-1.1,0.7-1.6c0.3-0.8,0.4-1.7,0.4-2.7v-87.9
		l-46.3-56C776.2,668,770.3,665.3,764.1,665.3z"/>
	<path class="st1" d="M203.8,284h6.4l11.5,204h7.1h24.8H275h12.4h12.4h21.4h24.8h7.1l0,0L364,295l0.6-10.9h6.4
		c3.1,0,5.7-2.5,5.7-5.7v-1.7c0-3-2.4-5.5-5.3-5.6c2.6-4.3,2-9.9-1.7-13.6c-3.5-3.5-8.7-4.2-12.9-2.1c2.1-4.2,1.4-9.4-2.1-12.9
		c-2.8-2.8-6.8-3.8-10.4-3c-1.9-1.5-4.2-2.4-6.8-2.5c0.2-0.9,0.3-1.8,0.3-2.7c0-6.2-5-11.2-11.2-11.2c-6.2,0-11.2,5-11.2,11.2
		c0,0.9,0.1,1.8,0.3,2.7c-3.6,0.1-6.7,1.8-8.7,4.5c-0.5-1.1-1.2-2.1-2-3c0.8-0.5,1.5-1,2.2-1.7c4.4-4.4,4.4-11.4,0-15.8
		c-4.2-4.2-10.9-4.3-15.3-0.4c-1.7-1.1-3.6-1.7-5.8-1.8c0.2-0.9,0.3-1.8,0.3-2.7c0-6.2-5-11.2-11.2-11.2c-6.2,0-11.2,5-11.2,11.2
		c0,0.9,0.1,1.8,0.3,2.7c-5,0.1-9.1,3.5-10.5,8c-0.2-0.2-0.3-0.4-0.5-0.5c-4.4-4.4-11.4-4.4-15.8,0c-4.3,4.3-4.3,11.2-0.2,15.6
		c-0.8,0.5-1.5,1-2.2,1.7c-0.7,0.7-1.3,1.5-1.8,2.4c-1.6-0.9-3.5-1.4-5.5-1.4c-6.2,0-11.2,5-11.2,11.2c0,0.9,0.1,1.8,0.3,2.7
		c-6.1,0.1-10.9,5.1-10.9,11.1c0,0.5,0,0.9,0.1,1.4h-2.8c-3.1,0-5.7,2.5-5.7,5.7v1.7C198.2,281.5,200.7,284,203.8,284z M272.9,237.6
		c0.4,0.5,0.8,1,1.3,1.5c3.5,3.5,8.7,4.2,12.9,2.1c-1.5,3.1-1.6,6.7-0.1,9.9c-0.3-0.4-0.6-0.8-1-1.2c-3.9-3.9-9.9-4.3-14.2-1.3
		c-0.1-2.6-1.2-5.3-3.2-7.3c-0.2-0.2-0.4-0.4-0.7-0.6C269.9,240.2,271.6,239.1,272.9,237.6z M287.4,271L287.4,271l-1.2,0
		c-0.5-1.3-1.3-2.5-2.3-3.6c0.8-0.5,1.5-1,2.2-1.7c3.4-3.4,4.2-8.6,2.1-12.7c0.3,0.4,0.6,0.8,1,1.2c0.5,0.5,1,0.9,1.6,1.3
		c0,0.1,0,0.2,0,0.4c0,6.1,4.9,11,10.9,11.1c-0.2,0.9-0.3,1.8-0.3,2.7c0,0.5,0,0.9,0.1,1.4H287.4z M265.8,270.1
		c-0.1,0.3-0.3,0.6-0.4,0.9h-2.1C264.2,270.8,265,270.5,265.8,270.1z M337.1,259.2c-0.2,0.1-0.3,0.3-0.5,0.4
		c-3.1,3.1-4,7.4-2.7,11.3h-10.3c0.1-0.4,0.1-0.9,0.1-1.4c0-0.9-0.1-1.8-0.3-2.7c5-0.1,9.2-3.5,10.5-8.2
		C334.8,259,335.9,259.2,337.1,259.2z M257.6,238.5c-0.6,0.2-1.3,0.4-1.9,0.7c0.3-0.6,0.5-1.2,0.7-1.9
		C256.8,237.8,257.1,238.2,257.6,238.5z M247,262.1c1-0.3,1.9-0.8,2.7-1.4c0.1,2.6,1.2,5.3,3.2,7.3c1.5,1.5,3.4,2.5,5.4,3h-8.5
		c0.1-0.4,0.1-0.9,0.1-1.4C250,266.7,248.8,264,247,262.1z"/>
	<path class="st1" d="M614.6,284h2l11.5,204h60.2h60.2l11.5-204h1.3h0.7c2.4,0,4.3-1.9,4.3-4.3v-1.3c0-2.4-2-4.3-4.3-4.3h-0.7h-68.6
		v-51.5l37.9-37.9l-7.3-7.3l-40.9,40.9h0V274h-68c-2.4,0-4.3,2-4.3,4.3v1.3C610.3,282.1,612.2,284,614.6,284z"/>
	<path class="st1" d="M1200.7,455.2h-44.3h-1.2c28.3-24.5,46.2-60.7,46.2-101c0-73.8-59.8-133.6-133.6-133.6
		c-73.8,0-133.6,59.8-133.6,133.6s59.8,133.6,133.6,133.6h44.3h44.3h44.3h44.3v-32.6H1200.7z M969.3,354.3c0-9.6,7.8-17.5,17.5-17.5
		c1.7,0,3.4,0.3,5,0.7c-1.2,5.4-1.8,11-1.8,16.7c0,5.7,0.6,11.3,1.8,16.7c-1.6,0.5-3.2,0.7-5,0.7
		C977.1,371.7,969.3,363.9,969.3,354.3z M1085.3,273.3c0,1.7-0.3,3.4-0.7,5c-5.4-1.2-11-1.8-16.7-1.8c-5.7,0-11.3,0.6-16.7,1.8
		c-0.5-1.6-0.7-3.2-0.7-5c0-9.6,7.8-17.5,17.5-17.5c1.2,0,2.4,0.1,3.5,0.4C1079.3,257.8,1085.3,264.8,1085.3,273.3z M1161.1,341.9
		c3.2,3.2,5.1,7.5,5.1,12.3c0,4.8-2,9.2-5.1,12.3c-0.8,0.8-1.7,1.5-2.6,2.1c-1.4,0.9-2.9,1.7-4.6,2.2c-1.6,0.5-3.4,0.8-5.2,0.8
		c-1.7,0-3.4-0.3-5-0.7c1.2-5.4,1.8-11,1.8-16.7c0-1.3,0-2.7-0.1-4c-0.1-2.7-0.4-5.3-0.8-7.9c-0.2-1.3-0.4-2.6-0.7-3.8
		c-0.1-0.4-0.2-0.7-0.2-1c1.6-0.5,3.2-0.7,5-0.7c1.8,0,3.6,0.3,5.2,0.8c1.6,0.5,3.2,1.3,4.6,2.2
		C1159.5,340.4,1160.3,341.1,1161.1,341.9z M998.2,309.3c-6.8-6.8-6.8-17.9,0-24.7c6.8-6.8,17.9-6.8,24.7,0c1.2,1.2,2.2,2.6,3,4
		c-9.5,6.1-17.6,14.2-23.7,23.7C1000.7,311.5,999.4,310.6,998.2,309.3z M998.2,399.2c1.2-1.2,2.6-2.2,4-3
		c6.1,9.5,14.2,17.6,23.7,23.7c-0.8,1.4-1.8,2.8-3,4c-6.8,6.8-17.9,6.8-24.7,0C991.3,417.1,991.3,406,998.2,399.2z M1112.7,423.9
		c-1.2-1.2-2.2-2.6-3-4c0.5-0.3,1.1-0.7,1.6-1c3.1-2.1,6.1-4.4,8.8-6.9c2.8-2.5,5.3-5.2,7.7-8.1c2-2.4,3.8-5,5.5-7.6
		c1.4,0.8,2.8,1.8,4,3c1.3,1.3,2.3,2.7,3.1,4.2c2.7,5.1,2.7,11.2,0,16.2c-0.8,1.5-1.8,2.9-3.1,4.2
		C1130.6,430.7,1119.5,430.7,1112.7,423.9z M1140.5,305.1c-0.8,1.5-1.8,2.9-3.1,4.2c-1.2,1.2-2.6,2.2-4,3c-2.4-3.7-5-7.2-8-10.4
		c-0.8-0.9-1.7-1.8-2.6-2.7c-4-4-8.4-7.5-13.1-10.5c0.8-1.4,1.8-2.8,3-4c6.8-6.8,17.9-6.8,24.7,0c1.3,1.3,2.3,2.7,3.1,4.2
		C1143.2,293.9,1143.2,300,1140.5,305.1z M1050.3,435.2c0-1.7,0.3-3.4,0.7-5c5.4,1.2,11,1.8,16.7,1.8c5.7,0,11.3-0.6,16.7-1.8
		c0.5,1.6,0.7,3.2,0.7,5c0,8.4-6,15.5-13.9,17.1c-1.1,0.2-2.3,0.4-3.5,0.4C1058.1,452.7,1050.3,444.9,1050.3,435.2z"/>
	<polygon class="st1" points="361,665.7 333.4,665.7 310.5,665.7 290.1,665.7 282.9,665.7 260,665.7 232.3,665.7 209.4,665.7 
		182.1,665.7 182.1,665.7 182.1,693 182.1,697 182.1,827.4 290.1,827.4 398.1,827.4 398.1,697 398.1,679.1 398.1,665.7 383.9,665.7 
			"/>
	<polygon class="st1" points="200.7,662.4 227.9,657.6 227.9,657.6 250.5,653.6 250.5,653.6 263.1,651.4 394.9,628.1 389.4,597.3 
		352.9,603.7 352.9,603.7 325.7,608.5 325.7,608.5 303.1,612.5 303.1,612.5 282.9,616.1 282.9,616.1 253.3,621.3 253.3,621.3 
		226.1,626.1 226.1,626.1 203.6,630 203.6,630 192.1,632.1 176.6,634.8 182.1,665.7 200.7,662.4 	"/>
</g>
<g>
	<polygon class="st2" points="1204.7,662 1181.7,640.4 1007.2,640.4 984.2,662 984.2,745 1007.2,766.6 1181.7,766.6 1204.7,745 	"/>
	<polygon class="st3" points="1192.4,668.6 1171.9,650.4 1017,650.4 996.5,668.6 996.5,738.4 1017,756.6 1171.9,756.6 1192.4,738.4 
			"/>
	<polygon class="st4" points="1094.5,640.4 1094.5,766.6 1181.7,766.6 1204.7,745 1204.7,662 1181.7,640.4 	"/>
	<polygon class="st5" points="1094.5,650.4 1094.5,756.6 1171.9,756.6 1192.4,738.4 1192.4,668.6 1171.9,650.4 	"/>
	<polygon class="st6" points="1094.5,677 1086.9,681 1088.4,672.6 1082.3,666.7 1090.7,665.4 1094.5,657.8 1098.2,665.4 
		1106.7,666.7 1100.6,672.6 1102,681 	"/>
	<polygon class="st6" points="1046.3,677 1038.7,681 1040.2,672.6 1034.1,666.7 1042.5,665.4 1046.3,657.8 1050,665.4 1058.5,666.7 
		1052.4,672.6 1053.8,681 	"/>
	<polygon class="st7" points="1142.7,677 1135.1,681 1136.6,672.6 1130.5,666.7 1138.9,665.4 1142.7,657.8 1146.4,665.4 
		1154.9,666.7 1148.8,672.6 1150.2,681 	"/>
	<polygon class="st6" points="1094.5,745.2 1086.9,749.2 1088.4,740.8 1082.3,734.8 1090.7,733.6 1094.5,726 1098.2,733.6 
		1106.7,734.8 1100.6,740.8 1102,749.2 	"/>
	<polygon class="st6" points="1046.3,745.2 1038.7,749.2 1040.2,740.8 1034.1,734.8 1042.5,733.6 1046.3,726 1050,733.6 
		1058.5,734.8 1052.4,740.8 1053.8,749.2 	"/>
	<polygon class="st7" points="1142.7,745.2 1135.1,749.2 1136.6,740.8 1130.5,734.8 1138.9,733.6 1142.7,726 1146.4,733.6 
		1154.9,734.8 1148.8,740.8 1150.2,749.2 	"/>
	<g>
		<rect x="1016.4" y="657.8" class="st5" width="1.2" height="7"/>
	</g>
	<g>
		<rect x="1016.4" y="669.8" class="st5" width="1.2" height="7"/>
	</g>
	<g>
		<rect x="1016.4" y="681.9" class="st5" width="1.2" height="7"/>
	</g>
	<g>
		<rect x="1016.4" y="693.9" class="st5" width="1.2" height="7"/>
	</g>
	<g>
		<rect x="1016.4" y="706" class="st5" width="1.2" height="7"/>
	</g>
	<g>
		<rect x="1016.4" y="718.1" class="st5" width="1.2" height="7"/>
	</g>
	<g>
		<rect x="1016.4" y="730.1" class="st5" width="1.2" height="7"/>
	</g>
	<g>
		<rect x="1016.4" y="742.2" class="st5" width="1.2" height="7"/>
	</g>
	<g>
		<rect x="1171" y="657.8" class="st8" width="1.2" height="7"/>
	</g>
	<g>
		<rect x="1171" y="669.8" class="st8" width="1.2" height="7"/>
	</g>
	<g>
		<rect x="1171" y="681.9" class="st8" width="1.2" height="7"/>
	</g>
	<g>
		<rect x="1171" y="693.9" class="st8" width="1.2" height="7"/>
	</g>
	<g>
		<rect x="1171" y="706" class="st8" width="1.2" height="7"/>
	</g>
	<g>
		<rect x="1171" y="718.1" class="st8" width="1.2" height="7"/>
	</g>
	<g>
		<rect x="1171" y="730.1" class="st8" width="1.2" height="7"/>
	</g>
	<g>
		<rect x="1171" y="742.2" class="st8" width="1.2" height="7"/>
	</g>
	<polygon class="st7" points="1102,681 1100.6,672.6 1106.7,666.7 1098.2,665.4 1094.5,657.8 1094.5,677 	"/>
	<polygon class="st7" points="1102,749.2 1100.6,740.8 1106.7,734.8 1098.2,733.6 1094.5,726 1094.5,745.2 	"/>
</g>
<g>
	<path class="st5" d="M806.5,708.9H695.4h-10.5h-33.1h-5.6H530.3v87.9c0,5,4.1,9,9,9h112.6c5,0,9-4.1,9-9v-39.4
		c0-4.1,3.4-7.5,7.5-7.5l0,0c4.1,0,7.5,3.4,7.5,7.5v39.4c0,5,4.1,9,9,9h112.6c5,0,9-4.1,9-9V708.9z"/>
	<path class="st8" d="M684.9,708.9h-16.5v40.9c4.1,0,7.5,3.4,7.5,7.5v39.4c0,5,4.1,9,9,9h112.6c5,0,9-4.1,9-9v-87.9H695.4H684.9z"/>
	<path class="st8" d="M576.5,652.9l-46.3,56h16.7l38.9-47.1c1.5-1.8,3.7-2.9,6.1-2.9l0,0c4.4,0,7.9,3.5,7.9,7.9l0,0
		c0,2.9,2.3,5.2,5.2,5.2h3.2c2.9,0,5.2-2.3,5.2-5.2v-0.7c0-11.5-9.4-20.9-20.9-20.9l0,0C586.4,645.3,580.5,648,576.5,652.9z"/>
	<path d="M760.2,652.9l46.3,56h-16.7l-38.9-47.1c-1.5-1.8-3.7-2.9-6.1-2.9l0,0c-4.4,0-7.9,3.5-7.9,7.9l0,0c0,2.9-2.3,5.2-5.2,5.2
		h-3.2c-2.9,0-5.2-2.3-5.2-5.2v-0.7c0-11.5,9.4-20.9,20.9-20.9l0,0C750.3,645.3,756.2,648,760.2,652.9z"/>
	<path class="st9" d="M637.1,793.9h-83.7c-6.6,0-12-5.4-12-12v-49.1c0-6.6,5.4-12,12-12h83.7c6.6,0,12,5.4,12,12v49.1
		C649.1,788.5,643.7,793.9,637.1,793.9z"/>
	<path class="st10" d="M783.3,793.9h-83.7c-6.6,0-12-5.4-12-12v-49.1c0-6.6,5.4-12,12-12h83.7c6.6,0,12,5.4,12,12v49.1
		C795.3,788.5,789.9,793.9,783.3,793.9z"/>
	<polygon class="st11" points="541.4,769 589.6,720.8 577.8,720.8 541.4,757.2 	"/>
	<path class="st11" d="M603.2,720.8l-61.8,61.8v2.3c0,1.4,0.4,2.8,1,4l68.1-68.1H603.2z"/>
	<path class="st11" d="M599.3,793.9l49.8-49.8v-14.3c0-3.2-1.7-6-4.2-7.6l-71.7,71.7H599.3z"/>
	<path class="st12" d="M735.3,720.8l-47.7,47.7v16.4c0,1.1,0.2,2.1,0.5,3l67.1-67.1H735.3z"/>
	<path class="st12" d="M765.8,720.8l-72.5,72.5c1,0.4,2.1,0.6,3.3,0.6h5.6l73.1-73.1H765.8z"/>
	<polygon class="st12" points="743.8,793.9 795.3,742.3 795.3,735.6 737,793.9 	"/>
</g>
<g>
	<path class="st6" d="M217.7,222c-0.8,0.5-1.5,1-2.2,1.7c-4.4,4.4-4.4,11.4,0,15.8c4.4,4.4,11.4,4.4,15.8,0c0.7-0.7,1.2-1.4,1.7-2.2
		c4.4,4.2,11.3,4.1,15.6-0.2c4.4-4.4,4.4-11.4,0-15.8c-3.5-3.5-8.7-4.2-12.9-2.1c2.1-4.2,1.4-9.4-2.1-12.9c-4.4-4.4-11.4-4.4-15.8,0
		C213.5,210.7,213.5,217.6,217.7,222z"/>
	<path class="st13" d="M219,238.5c0.2-0.9,0.3-1.8,0.3-2.7c0-6.2-5-11.2-11.2-11.2c-6.2,0-11.2,5-11.2,11.2c0,0.9,0.1,1.8,0.3,2.7
		c-6.1,0.1-10.9,5.1-10.9,11.1c0,6.2,5,11.2,11.2,11.2c4.9,0,9.1-3.2,10.6-7.6c1.5,4.4,5.6,7.6,10.6,7.6c6.2,0,11.2-5,11.2-11.2
		C230,243.5,225.1,238.6,219,238.5z"/>
	<path class="st13" d="M266.2,198.9c0.2-0.9,0.3-1.8,0.3-2.7c0-6.2-5-11.2-11.2-11.2c-6.2,0-11.2,5-11.2,11.2c0,0.9,0.1,1.8,0.3,2.7
		c-6.1,0.1-10.9,5.1-10.9,11.1c0,6.2,5,11.2,11.2,11.2c4.9,0,9.1-3.2,10.6-7.6c1.5,4.4,5.6,7.6,10.6,7.6c6.2,0,11.2-5,11.2-11.2
		C277.1,203.9,272.2,199,266.2,198.9z"/>
	<path class="st6" d="M317.5,217c0.2-0.9,0.3-1.8,0.3-2.7c0-6.2-5-11.2-11.2-11.2c-6.2,0-11.2,5-11.2,11.2c0,0.9,0.1,1.8,0.3,2.7
		c-6.1,0.1-10.9,5.1-10.9,11.1c0,6.2,5,11.2,11.2,11.2c4.9,0,9.1-3.2,10.6-7.6c1.5,4.4,5.6,7.6,10.6,7.6c6.2,0,11.2-5,11.2-11.2
		C328.4,222,323.5,217.1,317.5,217z"/>
	<path class="st13" d="M263.8,247.3c0.8-0.5,1.5-1,2.2-1.7c4.4-4.4,4.4-11.4,0-15.8c-4.4-4.4-11.4-4.4-15.8,0
		c-0.7,0.7-1.2,1.4-1.7,2.2c-4.4-4.2-11.3-4.1-15.6,0.2c-4.4,4.4-4.4,11.4,0,15.8c3.5,3.5,8.7,4.2,12.9,2.1
		c-2.1,4.2-1.4,9.4,2.1,12.9c4.4,4.4,11.4,4.4,15.8,0C268,258.6,268,251.7,263.8,247.3z"/>
	<path class="st6" d="M285.1,218.5c0.8-0.5,1.5-1,2.2-1.7c4.4-4.4,4.4-11.4,0-15.8c-4.4-4.4-11.4-4.4-15.8,0
		c-0.7,0.7-1.2,1.4-1.7,2.2c-4.4-4.2-11.3-4.1-15.6,0.2c-4.4,4.4-4.4,11.4,0,15.8c3.5,3.5,8.7,4.2,12.9,2.1
		c-2.1,4.2-1.4,9.4,2.1,12.9c4.4,4.4,11.4,4.4,15.8,0C289.2,229.8,289.3,222.9,285.1,218.5z"/>
	<path class="st13" d="M281.6,246.9c-0.2,0.9-0.3,1.8-0.3,2.7c0,6.2,5,11.2,11.2,11.2c6.2,0,11.2-5,11.2-11.2c0-0.9-0.1-1.8-0.3-2.7
		c6.1-0.1,10.9-5.1,10.9-11.1c0-6.2-5-11.2-11.2-11.2c-4.9,0-9.1,3.2-10.6,7.6c-1.5-4.4-5.6-7.6-10.6-7.6c-6.2,0-11.2,5-11.2,11.2
		C270.7,241.8,275.6,246.8,281.6,246.9z"/>
	<path class="st13" d="M318.7,238c-0.8,0.5-1.5,1-2.2,1.7c-4.4,4.4-4.4,11.4,0,15.8c4.4,4.4,11.4,4.4,15.8,0
		c0.7-0.7,1.2-1.4,1.7-2.2c4.4,4.2,11.3,4.1,15.6-0.2c4.4-4.4,4.4-11.4,0-15.8c-3.5-3.5-8.7-4.2-12.9-2.1c2.1-4.2,1.4-9.4-2.1-12.9
		c-4.4-4.4-11.4-4.4-15.8,0C314.6,226.7,314.5,233.6,318.7,238z"/>
	<polygon class="st10" points="333,468 201.7,468 190.2,264 344.6,264 	"/>
	<polygon class="st14" points="267.4,468 333,468 344.6,264 267.4,264 	"/>
	<path class="st15" d="M350.9,264H183.8c-3.1,0-5.7-2.5-5.7-5.7v-1.7c0-3.1,2.6-5.7,5.7-5.7h167.1c3.1,0,5.7,2.5,5.7,5.7v1.7
		C356.6,261.5,354.1,264,350.9,264z"/>
	<rect x="208.8" y="264" class="st16" width="24.8" height="204"/>
	<rect x="255" y="264" class="st16" width="24.8" height="204"/>
	<rect x="301.1" y="264" class="st17" width="24.8" height="204"/>
	<ellipse class="st16" cx="267.4" cy="357.1" rx="55.1" ry="36.1"/>
	<path class="st10" d="M350.1,251h-82.7V264h82.7c3.6,0,6.5-2.9,6.5-6.5C356.6,253.9,353.7,251,350.1,251z"/>
	<rect x="267.4" y="264" class="st17" width="12.4" height="204"/>
	<path class="st17" d="M322.5,357.1c0-20-24.7-36.1-55.1-36.1v72.3C297.8,393.3,322.5,377.1,322.5,357.1z"/>
</g>
<g>
	<polygon class="st5" points="710.8,164.6 703.5,157.3 662.6,198.3 662.6,198.3 662.6,318.3 672.9,318.3 672.9,202.5 	"/>
	<path class="st16" d="M742.1,264H594.6c-2.4,0-4.3-1.9-4.3-4.3v-1.3c0-2.4,1.9-4.3,4.3-4.3h147.5c2.4,0,4.3,1.9,4.3,4.3v1.3
		C746.4,262.1,744.5,264,742.1,264z"/>
	<polygon class="st10" points="728.5,468 608.2,468 596.6,264 740.1,264 	"/>
	<polygon class="st14" points="668.4,468 728.5,468 740.1,264 668.4,264 	"/>
	<path class="st17" d="M741.4,254h-73.1v10h73.1c2.7,0,5-2.2,5-5C746.4,256.3,744.2,254,741.4,254z"/>
</g>
<g>
	<circle class="st3" cx="1047.8" cy="334.3" r="77.9"/>
	<path class="st5" d="M1125.6,334.3c0-43-34.9-77.9-77.9-77.9v155.7C1090.8,412.1,1125.6,377.3,1125.6,334.3z"/>
	<rect x="1047.8" y="435.2" class="st5" width="44.3" height="32.6"/>
	<rect x="1092.1" y="435.2" class="st3" width="44.3" height="32.6"/>
	<rect x="1136.4" y="435.2" class="st5" width="44.3" height="32.6"/>
	<rect x="1180.7" y="435.2" class="st3" width="44.3" height="32.6"/>
	<path class="st16" d="M1047.8,216.6c-65,0-117.7,52.7-117.7,117.7s52.7,117.7,117.7,117.7s117.7-52.7,117.7-117.7
		S1112.8,216.6,1047.8,216.6z M1092.7,264.6c6.8-6.8,17.9-6.8,24.7,0c6.8,6.8,6.8,17.9,0,24.7c-6.8,6.8-17.9,6.8-24.7,0
		C1085.9,282.5,1085.9,271.5,1092.7,264.6z M949.3,334.3c0-9.6,7.8-17.5,17.5-17.5c9.6,0,17.5,7.8,17.5,17.5
		c0,9.6-7.8,17.5-17.5,17.5C957.1,351.7,949.3,343.9,949.3,334.3z M1002.9,403.9c-6.8,6.8-17.9,6.8-24.7,0c-6.8-6.8-6.8-17.9,0-24.7
		c6.8-6.8,17.9-6.8,24.7,0C1009.7,386,1009.7,397.1,1002.9,403.9z M1002.9,289.3c-6.8,6.8-17.9,6.8-24.7,0c-6.8-6.8-6.8-17.9,0-24.7
		c6.8-6.8,17.9-6.8,24.7,0C1009.7,271.5,1009.7,282.5,1002.9,289.3z M1047.8,432.7c-9.6,0-17.5-7.8-17.5-17.5
		c0-9.6,7.8-17.5,17.5-17.5c9.6,0,17.5,7.8,17.5,17.5C1065.3,424.9,1057.4,432.7,1047.8,432.7z M1047.8,270.7
		c-9.6,0-17.5-7.8-17.5-17.5c0-9.6,7.8-17.5,17.5-17.5c9.6,0,17.5,7.8,17.5,17.5C1065.3,262.9,1057.4,270.7,1047.8,270.7z
		 M1117.4,403.9c-6.8,6.8-17.9,6.8-24.7,0c-6.8-6.8-6.8-17.9,0-24.7c6.8-6.8,17.9-6.8,24.7,0C1124.2,386,1124.2,397.1,1117.4,403.9z
		 M1128.8,351.7c-9.6,0-17.5-7.8-17.5-17.5c0-9.6,7.8-17.5,17.5-17.5c9.6,0,17.5,7.8,17.5,17.5
		C1146.2,343.9,1138.4,351.7,1128.8,351.7z"/>
	<g>
		<path class="st4" d="M1047.8,200.7c-73.8,0-133.6,59.8-133.6,133.6s59.8,133.6,133.6,133.6c73.8,0,133.6-59.8,133.6-133.6
			S1121.5,200.7,1047.8,200.7z M1047.8,451.9c-65,0-117.7-52.7-117.7-117.7s52.7-117.7,117.7-117.7s117.7,52.7,117.7,117.7
			S1112.8,451.9,1047.8,451.9z"/>
	</g>
	<circle class="st2" cx="1047.8" cy="334.3" r="44.3"/>
	<path class="st18" d="M1165.5,334.3c0,65-52.7,117.7-117.7,117.7v15.9c73.8,0,133.6-59.8,133.6-133.6s-59.8-133.6-133.6-133.6v15.9
		C1112.8,216.6,1165.5,269.3,1165.5,334.3z"/>
	<path class="st17" d="M1065.3,253.3c0,9.6-7.8,17.5-17.5,17.5v127.1c9.6,0,17.5,7.8,17.5,17.5c0,9.6-7.8,17.5-17.5,17.5v19.2
		c65,0,117.7-52.7,117.7-117.7s-52.7-117.7-117.7-117.7v19.2C1057.4,235.8,1065.3,243.6,1065.3,253.3z M1146.2,334.3
		c0,9.6-7.8,17.5-17.5,17.5c-9.6,0-17.5-7.8-17.5-17.5c0-9.6,7.8-17.5,17.5-17.5C1138.4,316.8,1146.2,324.6,1146.2,334.3z
		 M1092.7,264.6c6.8-6.8,17.9-6.8,24.7,0c6.8,6.8,6.8,17.9,0,24.7c-6.8,6.8-17.9,6.8-24.7,0C1085.9,282.5,1085.9,271.5,1092.7,264.6
		z M1092.7,379.2c6.8-6.8,17.9-6.8,24.7,0c6.8,6.8,6.8,17.9,0,24.7c-6.8,6.8-17.9,6.8-24.7,0C1085.9,397.1,1085.9,386,1092.7,379.2z
		"/>
	<path class="st4" d="M1092.1,334.3c0-24.5-19.8-44.3-44.3-44.3v88.6C1072.3,378.6,1092.1,358.7,1092.1,334.3z"/>
	<circle class="st4" cx="1047.8" cy="334.3" r="9.6"/>
	<circle class="st5" cx="1066.1" cy="315.9" r="4.3"/>
	<circle class="st3" cx="1029.4" cy="352.6" r="4.3"/>
	<circle class="st5" cx="1066.1" cy="352.6" r="4.3"/>
	<circle class="st3" cx="1029.4" cy="315.9" r="4.3"/>
	<path class="st18" d="M1057.4,334.3c0-5.3-4.3-9.6-9.6-9.6v19.2C1053.1,343.9,1057.4,339.6,1057.4,334.3z"/>
</g>
<g>
	
		<rect x="157.7" y="595.8" transform="matrix(0.9848 -0.1736 0.1736 0.9848 -102.1421 55.4356)" class="st5" width="216.1" height="31.3"/>
	
		<rect x="264.8" y="586.4" transform="matrix(-0.9848 0.1736 -0.1736 -0.9848 737.4974 1139.6587)" class="st8" width="108.1" height="31.3"/>
	<rect x="162.1" y="645.7" class="st3" width="216.1" height="161.7"/>
	<rect x="162.1" y="645.7" class="st5" width="216.1" height="31.3"/>
	<rect x="270.1" y="645.7" class="st5" width="108" height="161.7"/>
	<rect x="270.1" y="645.7" class="st8" width="108" height="31.3"/>
	<polygon class="st16" points="162.1,673 189.4,645.7 162.1,645.7 	"/>
	<polygon class="st16" points="181,677 208.6,677 240,645.7 212.3,645.7 	"/>
	<polygon class="st16" points="231.5,677 259.2,677 290.5,645.7 262.9,645.7 	"/>
	<polygon class="st17" points="282.1,677 309.7,677 341,645.7 313.4,645.7 	"/>
	<polygon class="st17" points="360.2,677 378.1,659.1 378.1,645.7 363.9,645.7 332.6,677 	"/>
	<polygon class="st16" points="161.4,641.7 183.6,610 156.6,614.8 	"/>
	<polygon class="st16" points="180.7,642.4 207.9,637.6 233.3,601.3 206.1,606.1 	"/>
	<polygon class="st16" points="230.5,633.6 257.7,628.8 283.1,592.5 255.9,597.3 	"/>
	<polygon class="st17" points="280.2,624.8 307.5,620 332.9,583.7 305.7,588.5 	"/>
	<polygon class="st17" points="357.2,611.2 371.8,590.5 369.4,577.3 355.4,579.7 330,616 	"/>
	<rect x="180.7" y="717.4" class="st16" width="178.9" height="2"/>
	<polygon class="st16" points="359.6,757.8 301.4,757.8 299.4,757.8 240.8,757.8 238.8,757.8 180.7,757.8 180.7,759.9 238.8,759.9 
		238.8,796.9 240.8,796.9 240.8,759.9 299.4,759.9 299.4,796.9 301.4,796.9 301.4,759.9 359.6,759.9 	"/>
	<polygon class="st17" points="299.4,757.8 270.1,757.8 270.1,759.9 299.4,759.9 299.4,796.9 301.4,796.9 301.4,759.9 359.6,759.9 
		359.6,757.8 301.4,757.8 	"/>
	<rect x="270.1" y="717.4" class="st17" width="89.5" height="2"/>
	<polygon class="st17" points="270.1,666 290.5,645.7 270.1,645.7 	"/>
	<polygon class="st17" points="283.1,592.5 262.9,596.1 266.5,616.2 	"/>
</g>
<g>
	<polygon class="st2" points="1164.7,702 1141.7,680.4 967.2,680.4 944.2,702 944.2,785 967.2,806.6 1141.7,806.6 1164.7,785 	"/>
	<polygon class="st3" points="1152.4,708.6 1131.9,690.4 977,690.4 956.5,708.6 956.5,778.4 977,796.6 1131.9,796.6 1152.4,778.4 	
		"/>
	<polygon class="st4" points="1054.5,680.4 1054.5,806.6 1141.7,806.6 1164.7,785 1164.7,702 1141.7,680.4 	"/>
	<polygon class="st5" points="1054.5,690.4 1054.5,796.6 1131.9,796.6 1152.4,778.4 1152.4,708.6 1131.9,690.4 	"/>
	<polygon class="st6" points="1054.5,717 1046.9,721 1048.4,712.6 1042.3,706.7 1050.7,705.4 1054.5,697.8 1058.2,705.4 
		1066.7,706.7 1060.6,712.6 1062,721 	"/>
	<polygon class="st6" points="1006.3,717 998.7,721 1000.2,712.6 994.1,706.7 1002.5,705.4 1006.3,697.8 1010,705.4 1018.5,706.7 
		1012.4,712.6 1013.8,721 	"/>
	<polygon class="st7" points="1102.7,717 1095.1,721 1096.6,712.6 1090.5,706.7 1098.9,705.4 1102.7,697.8 1106.4,705.4 
		1114.9,706.7 1108.8,712.6 1110.2,721 	"/>
	<polygon class="st6" points="1054.5,785.2 1046.9,789.2 1048.4,780.8 1042.3,774.8 1050.7,773.6 1054.5,766 1058.2,773.6 
		1066.7,774.8 1060.6,780.8 1062,789.2 	"/>
	<polygon class="st6" points="1006.3,785.2 998.7,789.2 1000.2,780.8 994.1,774.8 1002.5,773.6 1006.3,766 1010,773.6 1018.5,774.8 
		1012.4,780.8 1013.8,789.2 	"/>
	<polygon class="st7" points="1102.7,785.2 1095.1,789.2 1096.6,780.8 1090.5,774.8 1098.9,773.6 1102.7,766 1106.4,773.6 
		1114.9,774.8 1108.8,780.8 1110.2,789.2 	"/>
	<g>
		<rect x="976.4" y="697.8" class="st5" width="1.2" height="7"/>
	</g>
	<g>
		<rect x="976.4" y="709.8" class="st5" width="1.2" height="7"/>
	</g>
	<g>
		<rect x="976.4" y="721.9" class="st5" width="1.2" height="7"/>
	</g>
	<g>
		<rect x="976.4" y="733.9" class="st5" width="1.2" height="7"/>
	</g>
	<g>
		<rect x="976.4" y="746" class="st5" width="1.2" height="7"/>
	</g>
	<g>
		<rect x="976.4" y="758.1" class="st5" width="1.2" height="7"/>
	</g>
	<g>
		<rect x="976.4" y="770.1" class="st5" width="1.2" height="7"/>
	</g>
	<g>
		<rect x="976.4" y="782.2" class="st5" width="1.2" height="7"/>
	</g>
	<g>
		<rect x="1131" y="697.8" class="st8" width="1.2" height="7"/>
	</g>
	<g>
		<rect x="1131" y="709.8" class="st8" width="1.2" height="7"/>
	</g>
	<g>
		<rect x="1131" y="721.9" class="st8" width="1.2" height="7"/>
	</g>
	<g>
		<rect x="1131" y="733.9" class="st8" width="1.2" height="7"/>
	</g>
	<g>
		<rect x="1131" y="746" class="st8" width="1.2" height="7"/>
	</g>
	<g>
		<rect x="1131" y="758.1" class="st8" width="1.2" height="7"/>
	</g>
	<g>
		<rect x="1131" y="770.1" class="st8" width="1.2" height="7"/>
	</g>
	<g>
		<rect x="1131" y="782.2" class="st8" width="1.2" height="7"/>
	</g>
	<polygon class="st7" points="1062,721 1060.6,712.6 1066.7,706.7 1058.2,705.4 1054.5,697.8 1054.5,717 	"/>
	<polygon class="st7" points="1062,789.2 1060.6,780.8 1066.7,774.8 1058.2,773.6 1054.5,766 1054.5,785.2 	"/>
</g>
</svg>
