<?xml version="1.0" standalone="no"?>
<!DOCTYPE svg PUBLIC "-//W3C//DTD SVG 20010904//EN"
 "http://www.w3.org/TR/2001/REC-SVG-20010904/DTD/svg10.dtd">
<svg version="1.0" xmlns="http://www.w3.org/2000/svg"
 width="450.000000pt" height="676.000000pt" viewBox="0 0 450.000000 676.000000"
 preserveAspectRatio="xMidYMid meet">
<metadata>
Created by potrace 1.10, written by Peter Selinger 2001-2011
</metadata>
<g transform="translate(0.000000,676.000000) scale(0.100000,-0.100000)"
fill="#000000" stroke="none">
<path d="M2508 6443 c7 -3 16 -2 19 1 4 3 -2 6 -13 5 -11 0 -14 -3 -6 -6z"/>
<path d="M2224 6242 c-11 -9 -33 -24 -49 -32 -15 -8 -30 -21 -33 -29 -2 -7 5
-4 17 8 11 11 27 21 34 21 16 1 63 37 56 44 -3 3 -14 -2 -25 -12z"/>
<path d="M2100 6230 c0 -5 5 -10 11 -10 5 0 7 5 4 10 -3 6 -8 10 -11 10 -2 0
-4 -4 -4 -10z"/>
<path d="M2780 6226 c0 -2 8 -10 18 -17 15 -13 16 -12 3 4 -13 16 -21 21 -21
13z"/>
<path d="M2233 6214 c4 -4 2 -13 -4 -20 -8 -9 -5 -11 10 -7 25 7 27 19 4 27
-10 4 -14 4 -10 0z"/>
<path d="M2967 6169 c7 -7 15 -10 18 -7 3 3 -2 9 -12 12 -14 6 -15 5 -6 -5z"/>
<path d="M2310 6160 c0 -5 5 -10 11 -10 5 0 7 5 4 10 -3 6 -8 10 -11 10 -2 0
-4 -4 -4 -10z"/>
<path d="M1900 6145 c-8 -9 -8 -15 -2 -15 12 0 26 19 19 26 -2 2 -10 -2 -17
-11z"/>
<path d="M2947 6109 c7 -7 15 -10 18 -7 3 3 -2 9 -12 12 -14 6 -15 5 -6 -5z"/>
<path d="M1675 6101 c-3 -5 -2 -12 3 -15 5 -3 9 1 9 9 0 17 -3 19 -12 6z"/>
<path d="M1890 6088 c-12 -22 -12 -22 6 -6 10 10 15 20 12 24 -4 3 -12 -5 -18
-18z"/>
<path d="M2050 6080 c-6 -11 -8 -20 -4 -20 3 0 1 -7 -6 -15 -11 -13 -10 -14 4
-9 9 4 15 12 13 18 -2 6 0 19 5 29 5 9 6 17 4 17 -3 0 -10 -9 -16 -20z"/>
<path d="M2218 6093 c7 -3 16 -2 19 1 4 3 -2 6 -13 5 -11 0 -14 -3 -6 -6z"/>
<path d="M2730 6070 c6 -11 18 -19 28 -19 16 1 16 2 0 6 -10 2 -18 11 -18 19
0 8 -5 14 -10 14 -7 0 -7 -6 0 -20z"/>
<path d="M2941 6063 c7 -10 14 -20 16 -22 1 -2 1 6 0 18 -1 11 -8 21 -15 21
-12 0 -12 -3 -1 -17z"/>
<path d="M2545 6060 c-13 -6 -15 -9 -5 -9 8 0 22 4 30 9 18 12 2 12 -25 0z"/>
<path d="M2796 6057 c3 -10 9 -15 12 -12 3 3 0 11 -7 18 -10 9 -11 8 -5 -6z"/>
<path d="M2860 6059 c-13 -10 -13 -10 1 -6 8 3 26 -4 40 -14 20 -16 21 -19 6
-19 -10 0 -31 7 -47 15 -26 14 -29 14 -24 0 4 -8 12 -15 20 -15 8 0 14 -3 14
-8 0 -4 10 -13 23 -21 20 -13 21 -13 8 2 -7 10 -10 17 -6 17 10 0 69 -42 74
-53 1 -4 19 -19 40 -32 20 -14 47 -33 60 -42 24 -17 24 -17 10 5 -8 12 -19 22
-25 22 -7 0 -14 9 -17 20 -3 13 -11 18 -21 14 -21 -8 -42 6 -25 17 10 6 9 10
-6 15 -34 14 -56 40 -49 60 4 14 4 16 -4 5 -8 -11 -12 -10 -23 8 -15 23 -27
26 -49 10z"/>
<path d="M2163 6035 c-7 -7 -18 -15 -25 -18 -7 -2 -10 -7 -7 -11 3 -4 17 2 30
13 13 11 22 21 19 24 -3 3 -10 -1 -17 -8z"/>
<path d="M2500 6040 c0 -5 5 -10 11 -10 5 0 7 5 4 10 -3 6 -8 10 -11 10 -2 0
-4 -4 -4 -10z"/>
<path d="M2580 6046 c0 -2 7 -7 16 -10 8 -3 12 -2 9 4 -6 10 -25 14 -25 6z"/>
<path d="M2669 6035 c17 -34 31 -51 31 -39 0 7 -9 22 -21 35 -16 19 -18 20
-10 4z"/>
<path d="M2701 6034 c0 -11 3 -14 6 -6 3 7 2 16 -1 19 -3 4 -6 -2 -5 -13z"/>
<path d="M3006 6016 c16 -20 33 -36 37 -36 5 0 1 7 -7 16 -9 8 -16 19 -16 24
0 5 -10 14 -21 21 -18 9 -17 5 7 -25z"/>
<path d="M1697 6033 c-4 -3 -7 -11 -7 -17 0 -6 5 -5 12 2 6 6 9 14 7 17 -3 3
-9 2 -12 -2z"/>
<path d="M2051 6014 c-12 -14 -20 -28 -17 -31 3 -3 -3 -13 -12 -22 -10 -9 -13
-13 -8 -8 14 10 28 9 22 -2 -4 -5 3 -7 15 -4 11 3 26 14 32 24 7 11 18 19 25
19 7 0 10 5 6 12 -5 7 -15 2 -32 -17 -19 -22 -26 -25 -32 -14 -6 9 1 22 23 41
21 18 27 27 16 28 -8 0 -26 -12 -38 -26z"/>
<path d="M2760 6033 c0 -7 -7 -10 -17 -6 -18 7 32 -72 61 -96 28 -24 18 6 -15
44 -18 20 -29 39 -25 42 3 4 13 -2 20 -13 8 -10 16 -17 19 -14 2 3 -6 16 -19
30 -13 13 -24 19 -24 13z"/>
<path d="M2220 6015 c-7 -9 -8 -15 -2 -15 5 0 12 7 16 15 3 8 4 15 2 15 -2 0
-9 -7 -16 -15z"/>
<path d="M2820 6022 c0 -12 19 -26 26 -19 2 2 -2 10 -11 17 -9 8 -15 8 -15 2z"/>
<path d="M2951 6027 c2 -1 15 -11 28 -22 l24 -20 -14 23 c-8 12 -20 22 -28 22
-8 0 -12 -1 -10 -3z"/>
<path d="M2156 5991 c-10 -11 -25 -17 -34 -14 -15 4 -15 3 -2 -6 11 -7 20 -5
36 10 11 10 24 16 29 12 4 -5 5 -2 1 5 -9 16 -10 16 -30 -7z"/>
<path d="M2508 6003 c6 -2 18 -2 25 0 6 3 1 5 -13 5 -14 0 -19 -2 -12 -5z"/>
<path d="M1935 5990 c-3 -5 -1 -10 4 -10 6 0 11 5 11 10 0 6 -2 10 -4 10 -3 0
-8 -4 -11 -10z"/>
<path d="M1981 5989 c0 -9 -8 -22 -16 -29 -8 -7 -15 -17 -15 -23 0 -6 9 -2 21
10 12 12 19 28 16 39 -4 15 -5 15 -6 3z"/>
<path d="M1905 5965 c-4 -16 -12 -35 -19 -40 -16 -14 -18 -35 -3 -29 21 8 44
58 36 79 -6 17 -8 16 -14 -10z"/>
<path d="M2856 5965 c18 -27 34 -33 34 -12 0 17 -20 37 -37 37 -10 0 -10 -6 3
-25z"/>
<path d="M1666 5961 c-12 -13 -14 -21 -6 -26 6 -4 9 -1 8 7 -2 7 2 12 8 11 6
-1 11 5 11 13 0 18 0 18 -21 -5z"/>
<path d="M2155 5958 c-11 -12 -14 -18 -7 -14 17 10 15 -5 -5 -34 -9 -14 -10
-19 -3 -12 20 18 41 15 38 -5 -3 -21 -68 -84 -79 -78 -4 3 -12 -2 -19 -10 -7
-8 -16 -13 -20 -10 -10 6 -35 -24 -27 -32 4 -3 2 -12 -4 -20 -7 -8 -8 -13 -1
-13 5 0 15 6 21 14 9 11 9 15 -1 19 -9 4 -8 6 3 6 9 1 19 8 23 16 3 8 10 15
16 15 8 0 8 -6 0 -20 -7 -13 -7 -26 -2 -36 8 -15 10 -15 15 0 4 10 3 15 -3 11
-15 -9 -12 2 6 30 19 30 74 65 100 65 16 0 17 -2 4 -10 -8 -5 -10 -10 -4 -10
6 0 19 10 28 23 9 12 14 16 10 8 -5 -9 -3 -12 4 -7 14 8 16 52 3 60 -5 4 -7
-2 -4 -13 3 -14 -3 -21 -28 -30 -41 -14 -39 -15 -34 11 3 12 0 27 -6 35 -6 7
-8 24 -5 38 8 30 7 30 -19 3z"/>
<path d="M3100 5965 c0 -8 4 -15 10 -15 5 0 7 7 4 15 -4 8 -8 15 -10 15 -2 0
-4 -7 -4 -15z"/>
<path d="M2202 5957 c-6 -7 -7 -18 -3 -25 6 -10 11 -9 22 4 12 15 12 17 0 9
-11 -6 -13 -4 -8 8 8 20 3 22 -11 4z"/>
<path d="M2367 5963 c-4 -3 -7 -14 -7 -24 0 -10 -6 -33 -14 -51 -31 -73 -56
-141 -52 -145 4 -4 46 78 46 89 0 3 8 23 17 44 13 29 24 94 17 94 0 0 -4 -3
-7 -7z"/>
<path d="M2477 5957 c4 -6 -5 -8 -21 -5 -14 3 -26 1 -26 -3 0 -5 13 -9 30 -9
36 0 80 -41 80 -76 0 -14 4 -23 10 -19 6 4 6 15 0 31 -15 38 -11 53 5 24 8
-14 14 -19 14 -10 0 8 -6 24 -14 34 -8 11 -15 14 -15 8 0 -9 -5 -9 -20 0 -11
7 -20 18 -20 24 0 6 -7 11 -15 11 -8 0 -11 -5 -8 -10z"/>
<path d="M2560 5959 c0 -5 5 -7 10 -4 6 3 10 8 10 11 0 2 -4 4 -10 4 -5 0 -10
-5 -10 -11z"/>
<path d="M2841 5954 c0 -11 3 -14 6 -6 3 7 2 16 -1 19 -3 4 -6 -2 -5 -13z"/>
<path d="M2904 5933 c3 -34 -7 -45 -18 -18 -3 8 -11 15 -17 15 -7 0 -5 -8 6
-20 10 -12 25 -18 32 -16 7 3 15 1 18 -4 4 -6 1 -10 -4 -10 -6 0 -11 -8 -11
-17 0 -14 4 -12 17 7 9 14 22 28 27 32 6 4 -2 8 -18 8 -19 0 -27 4 -23 13 3 8
1 20 -4 28 -6 9 -8 3 -5 -18z"/>
<path d="M3080 5935 c19 -14 43 -25 54 -25 14 0 5 8 -26 25 -26 14 -50 25 -54
25 -5 0 7 -11 26 -25z"/>
<path d="M1845 5941 c-9 -16 9 -20 23 -5 10 12 10 14 -2 14 -8 0 -17 -4 -21
-9z"/>
<path d="M3150 5939 c0 -5 5 -7 10 -4 6 3 10 8 10 11 0 2 -4 4 -10 4 -5 0 -10
-5 -10 -11z"/>
<path d="M1700 5920 c-20 -17 -21 -19 -5 -14 15 5 13 0 -9 -20 -37 -33 -30
-42 8 -10 15 14 26 28 22 31 -3 3 -1 12 5 20 16 18 8 16 -21 -7z"/>
<path d="M1794 5919 c-18 -20 -6 -27 14 -7 9 9 12 7 12 -11 0 -12 -4 -19 -10
-16 -5 3 -10 -2 -10 -11 0 -15 4 -14 25 6 14 13 25 24 25 25 0 0 -9 8 -19 17
-18 15 -21 15 -37 -3z"/>
<path d="M2100 5934 c0 -17 17 -36 24 -26 3 5 -1 15 -9 22 -8 7 -15 9 -15 4z"/>
<path d="M2260 5933 c1 -10 26 -43 32 -43 10 0 3 35 -7 42 -13 10 -25 10 -25
1z"/>
<path d="M2322 5926 c7 -8 15 -12 17 -11 5 6 -10 25 -20 25 -5 0 -4 -6 3 -14z"/>
<path d="M2581 5911 c6 -17 9 -65 7 -105 -2 -55 0 -72 9 -69 7 3 12 8 11 11 0
4 0 9 2 12 8 21 8 50 0 55 -6 3 -10 28 -10 54 0 31 -5 53 -15 61 -13 11 -13 8
-4 -19z"/>
<path d="M1745 5920 c2 -4 -2 -16 -10 -26 -17 -22 -19 -34 -6 -34 5 0 17 14
25 32 19 38 19 35 1 35 -8 0 -12 -3 -10 -7z"/>
<path d="M1955 5905 c-17 -13 -37 -24 -45 -24 -12 0 -11 2 3 10 9 5 17 15 17
21 0 6 -10 2 -23 -10 -13 -12 -28 -22 -34 -22 -6 0 -16 -6 -22 -13 -6 -8 -21
-13 -33 -12 -13 1 -36 -7 -52 -18 -16 -12 -26 -16 -22 -9 4 7 4 12 -1 13 -4 0
-19 2 -33 4 -14 1 -31 -3 -39 -9 -8 -6 -24 -12 -35 -12 -43 -3 -46 -4 -46 -21
1 -16 2 -16 13 -3 7 9 20 14 30 12 18 -4 24 -22 6 -22 -15 0 -34 -22 -37 -45
-2 -18 -1 -18 8 -3 6 9 16 15 23 12 7 -2 22 4 32 16 10 11 13 20 7 20 -6 0 -9
7 -5 15 3 9 8 13 11 10 3 -3 16 2 29 10 30 20 29 7 -2 -29 -14 -17 -23 -36
-21 -43 3 -7 1 -15 -5 -18 -5 -4 -7 -10 -4 -15 3 -4 -3 -11 -12 -14 -12 -5
-13 -10 -5 -18 6 -6 8 -17 5 -24 -3 -8 0 -14 7 -14 6 0 8 5 4 12 -5 8 -2 9 9
5 10 -4 25 -10 35 -13 14 -5 15 -4 2 6 -12 9 -11 10 9 8 13 -2 26 2 28 9 3 9
-4 10 -29 2 -43 -12 -43 -12 -27 9 13 15 12 16 -4 3 -9 -8 -21 -11 -25 -7 -4
4 2 14 12 22 13 9 15 14 6 14 -9 0 -8 4 5 13 13 10 15 16 6 21 -15 10 4 36 26
36 8 0 21 6 28 13 34 30 43 35 49 29 4 -3 11 0 16 8 7 10 10 11 10 3 0 -9 6
-7 20 4 10 9 32 17 48 18 17 1 44 14 62 29 18 15 35 25 37 22 8 -7 -65 -76
-81 -76 -8 0 -18 -5 -21 -10 -4 -7 2 -9 19 -4 31 7 34 -6 5 -24 -12 -7 -18
-16 -15 -19 8 -9 46 27 46 44 0 7 5 13 10 13 13 0 69 61 70 75 0 20 -46 14
-75 -10z m-300 -134 c-3 -6 -11 -11 -17 -11 -6 0 -6 6 2 15 14 17 26 13 15 -4z"/>
<path d="M2623 5914 c-7 -7 -13 -19 -13 -26 0 -10 2 -10 9 1 6 9 11 -7 16 -52
4 -36 5 -69 2 -74 -3 -5 -2 -15 3 -23 12 -20 24 70 16 123 -9 55 -17 69 -33
51z"/>
<path d="M2982 5914 c10 -10 20 -15 24 -12 3 4 -5 12 -18 18 -22 12 -22 12 -6
-6z"/>
<path d="M1628 5902 c-8 -9 -8 -13 -1 -9 6 4 13 2 15 -4 2 -7 8 -6 16 4 10 12
10 16 -2 20 -8 3 -20 -2 -28 -11z"/>
<path d="M2210 5905 c-7 -9 -11 -17 -9 -20 3 -2 10 5 17 15 14 24 10 26 -8 5z"/>
<path d="M2423 5908 c-13 -21 -12 -37 2 -32 7 3 16 0 20 -5 3 -6 11 -9 16 -5
5 3 -1 14 -13 25 -13 12 -17 18 -10 14 6 -3 12 -1 12 4 0 15 -17 14 -27 -1z"/>
<path d="M2467 5906 c-3 -8 1 -17 9 -20 22 -9 23 -8 17 14 -6 23 -19 26 -26 6z"/>
<path d="M2735 5900 c3 -5 8 -10 11 -10 2 0 4 5 4 10 0 6 -5 10 -11 10 -5 0
-7 -4 -4 -10z"/>
<path d="M2835 5900 c28 -12 37 -12 30 0 -3 6 -16 10 -28 9 -21 0 -21 -1 -2
-9z"/>
<path d="M3160 5894 c0 -8 5 -12 10 -9 6 4 8 11 5 16 -9 14 -15 11 -15 -7z"/>
<path d="M3095 5890 c3 -5 11 -10 16 -10 6 0 7 5 4 10 -3 6 -11 10 -16 10 -6
0 -7 -4 -4 -10z"/>
<path d="M1582 5865 c-17 -37 -14 -45 4 -12 9 16 14 31 11 33 -2 2 -9 -7 -15
-21z"/>
<path d="M1766 5874 c-9 -24 -2 -26 12 -4 7 11 8 20 3 20 -5 0 -12 -7 -15 -16z"/>
<path d="M2060 5875 c-8 -9 -8 -15 -2 -15 12 0 26 19 19 26 -2 2 -10 -2 -17
-11z"/>
<path d="M2105 5882 c-6 -4 -19 -20 -29 -37 -19 -30 -19 -30 1 -12 11 9 25 17
31 17 7 0 12 5 12 11 0 5 4 8 9 4 5 -3 12 -1 15 4 3 5 -1 12 -10 15 -19 7 -17
7 -29 -2z"/>
<path d="M2310 5880 c0 -17 -88 -62 -109 -55 -13 4 -23 0 -30 -12 -5 -10 -13
-15 -17 -11 -9 9 -34 -10 -34 -26 0 -6 5 -3 11 7 8 13 14 15 30 7 14 -8 19 -8
17 2 -2 8 9 12 32 13 29 0 35 -3 33 -20 -1 -17 1 -17 17 5 10 14 16 27 14 30
-3 2 -9 -2 -14 -10 -8 -12 -10 -12 -10 -2 0 8 8 16 18 19 20 6 68 63 53 63 -6
0 -11 -4 -11 -10z"/>
<path d="M2677 5826 c-3 -39 -5 -71 -4 -73 8 -8 22 77 17 107 -5 29 -7 23 -13
-34z"/>
<path d="M2810 5886 c0 -2 7 -7 16 -10 8 -3 12 -2 9 4 -6 10 -25 14 -25 6z"/>
<path d="M2956 5871 c-19 -7 -19 -8 0 -13 13 -3 21 0 21 8 0 8 -1 14 -1 13 -1
0 -10 -4 -20 -8z"/>
<path d="M1620 5860 c-8 -5 -10 -10 -5 -10 6 0 17 5 25 10 8 5 11 10 5 10 -5
0 -17 -5 -25 -10z"/>
<path d="M2374 5861 c4 -6 16 -16 27 -21 15 -9 19 -7 19 6 0 10 -3 14 -6 11
-4 -3 -16 -2 -27 4 -14 8 -18 8 -13 0z"/>
<path d="M2866 5859 c4 -8 -1 -9 -17 -4 l-24 8 20 -24 c11 -13 22 -26 24 -29
2 -3 1 3 -2 13 -4 11 -1 20 8 23 16 6 11 24 -6 24 -6 0 -7 -5 -3 -11z"/>
<path d="M2015 5849 c-11 -17 1 -21 15 -4 8 9 8 15 2 15 -6 0 -14 -5 -17 -11z"/>
<path d="M2720 5851 c0 -6 5 -13 10 -16 6 -3 10 -11 10 -16 0 -6 -5 -7 -12 -3
-7 4 -8 3 -4 -5 4 -6 12 -9 17 -6 5 4 9 1 9 -6 0 -7 3 -10 6 -6 8 7 -18 67
-28 67 -5 0 -8 -4 -8 -9z"/>
<path d="M1966 5806 c-16 -22 -22 -35 -13 -27 19 15 22 8 8 -18 -8 -13 -6 -18
5 -18 8 0 13 6 10 13 -3 8 -1 16 4 19 6 4 10 0 10 -7 0 -7 11 1 25 17 40 47
50 74 13 33 -23 -25 -38 -34 -47 -29 -11 7 -10 11 4 18 9 6 15 17 14 25 -3 11
-14 2 -33 -26z"/>
<path d="M2780 5843 c0 -6 5 -15 12 -19 8 -5 6 -9 -7 -14 -16 -6 -16 -7 -3
-13 22 -8 30 17 13 40 -8 10 -15 13 -15 6z"/>
<path d="M2930 5831 c0 -6 5 -13 10 -16 6 -3 10 1 10 9 0 9 -4 16 -10 16 -5 0
-10 -4 -10 -9z"/>
<path d="M2363 5790 c0 -25 2 -35 4 -22 2 12 2 32 0 45 -2 12 -4 2 -4 -23z"/>
<path d="M1488 5795 c2 -14 6 -25 8 -25 2 0 4 11 4 25 0 14 -4 25 -9 25 -4 0
-6 -11 -3 -25z"/>
<path d="M1520 5772 c0 -53 9 -50 20 6 5 29 3 39 -7 39 -9 0 -13 -14 -13 -45z"/>
<path d="M2385 5810 c3 -5 8 -10 11 -10 2 0 4 5 4 10 0 6 -5 10 -11 10 -5 0
-7 -4 -4 -10z"/>
<path d="M2880 5811 c0 -11 30 -36 30 -25 0 5 5 1 11 -9 6 -9 15 -15 20 -11 6
3 -4 17 -22 30 -37 27 -39 28 -39 15z"/>
<path d="M1860 5800 c0 -5 5 -10 10 -10 6 0 10 5 10 10 0 6 -4 10 -10 10 -5 0
-10 -4 -10 -10z"/>
<path d="M2827 5796 c-7 -17 15 -32 31 -22 12 7 36 -124 30 -158 -3 -14 -2
-26 3 -26 13 0 15 62 3 122 -13 63 -21 81 -34 73 -5 -3 -13 2 -18 11 -8 15
-10 15 -15 0z"/>
<path d="M2710 5791 c0 -5 5 -13 10 -16 6 -3 10 -2 10 4 0 5 -4 13 -10 16 -5
3 -10 2 -10 -4z"/>
<path d="M1815 5770 c-4 -6 -11 -8 -16 -5 -5 4 -9 1 -9 -4 0 -15 11 -13 34 4
11 8 15 15 9 15 -7 0 -15 -5 -18 -10z"/>
<path d="M2745 5770 c3 -5 1 -20 -5 -32 -10 -21 -10 -21 3 -5 18 22 27 22 27
-2 0 -11 5 -23 10 -26 6 -3 10 -2 10 4 0 19 -23 60 -37 65 -8 3 -11 1 -8 -4z"/>
<path d="M1870 5760 c-8 -5 -10 -10 -5 -10 6 0 17 5 25 10 8 5 11 10 5 10 -5
0 -17 -5 -25 -10z"/>
<path d="M2697 5756 c-4 -10 -3 -15 3 -11 6 3 10 1 10 -5 0 -6 5 -8 10 -5 6 3
10 11 10 16 0 6 -4 8 -9 5 -5 -4 -11 -1 -13 6 -3 7 -7 5 -11 -6z"/>
<path d="M3055 5760 c3 -5 8 -10 11 -10 2 0 4 5 4 10 0 6 -5 10 -11 10 -5 0
-7 -4 -4 -10z"/>
<path d="M1465 5745 c-11 -8 -15 -15 -9 -15 5 0 15 5 21 11 8 8 13 7 18 -1 5
-8 1 -16 -9 -22 -9 -5 -16 -18 -16 -28 0 -30 14 -24 28 12 9 26 9 35 -1 45
-11 11 -16 10 -32 -2z"/>
<path d="M1731 5751 c-11 -7 -9 -10 8 -16 13 -4 25 -4 28 -1 4 3 -1 6 -11 6
-9 0 -14 5 -11 10 8 12 4 12 -14 1z"/>
<path d="M2320 5744 c0 -8 5 -12 10 -9 6 4 8 11 5 16 -9 14 -15 11 -15 -7z"/>
<path d="M3085 5750 c-3 -5 -1 -10 4 -10 6 0 11 5 11 10 0 6 -2 10 -4 10 -3 0
-8 -4 -11 -10z"/>
<path d="M1550 5717 c-19 -17 -36 -39 -38 -47 -2 -8 11 -1 27 17 17 17 36 33
42 35 7 2 10 9 8 16 -2 7 -18 -1 -39 -21z"/>
<path d="M1625 5719 c-20 -18 -34 -37 -32 -43 2 -6 -5 -26 -15 -45 -10 -18
-17 -36 -13 -39 3 -3 5 0 5 6 0 7 7 12 15 12 9 0 12 6 9 15 -5 11 -2 13 12 8
14 -5 16 -3 10 12 -4 11 0 25 10 36 10 11 13 19 9 19 -5 0 2 11 15 25 33 35
18 31 -25 -6z m-5 -34 c-7 -9 -15 -13 -17 -11 -7 7 7 26 19 26 6 0 6 -6 -2
-15z"/>
<path d="M2139 5733 c-13 -16 -12 -17 4 -4 9 7 17 15 17 17 0 8 -8 3 -21 -13z"/>
<path d="M2512 5730 c7 -10 14 -18 15 -16 6 6 -9 36 -18 36 -5 0 -4 -9 3 -20z"/>
<path d="M2900 5735 c0 -11 7 -33 16 -50 10 -19 14 -43 10 -65 -5 -35 -5 -35
9 -10 l15 25 -6 -31 c-7 -37 10 -74 34 -74 16 1 16 1 0 11 -9 5 -15 16 -12 24
7 16 -32 140 -52 170 -14 19 -14 19 -14 0z"/>
<path d="M2975 5733 c13 -29 35 -116 36 -138 0 -14 2 -16 6 -5 3 8 10 18 15
21 8 5 -48 139 -59 139 -3 0 -2 -8 2 -17z"/>
<path d="M1390 5709 c-7 -11 -10 -23 -7 -25 2 -2 9 7 15 21 14 30 7 33 -8 4z"/>
<path d="M1800 5720 c-8 -5 -10 -10 -5 -10 6 0 17 5 25 10 8 5 11 10 5 10 -5
0 -17 -5 -25 -10z"/>
<path d="M2056 5714 c-5 -14 -4 -15 9 -4 17 14 19 20 6 20 -5 0 -12 -7 -15
-16z"/>
<path d="M1421 5713 c-1 -6 -4 -20 -7 -30 -5 -17 -5 -17 6 0 6 10 9 23 6 30
-3 9 -5 9 -5 0z"/>
<path d="M2569 5691 c-8 -17 -17 -31 -20 -31 -3 0 -6 -7 -6 -15 0 -26 11 -16
29 27 21 48 17 65 -3 19z"/>
<path d="M2645 5703 c1 -10 7 -31 14 -46 6 -16 11 -40 11 -55 1 -23 2 -25 11
-10 7 12 7 30 0 53 -6 21 -6 35 0 35 5 0 9 -5 9 -12 0 -6 3 -9 6 -5 3 3 -1 15
-9 27 -11 15 -16 18 -20 8 -4 -9 -6 -7 -6 5 -1 9 -5 17 -9 17 -5 0 -8 -8 -7
-17z"/>
<path d="M1568 5695 c-7 -9 -19 -22 -25 -30 -7 -7 -13 -16 -13 -20 0 -11 19 5
40 35 22 31 20 42 -2 15z"/>
<path d="M2097 5690 c-3 -11 -3 -20 -1 -20 2 0 8 9 14 20 6 11 7 20 2 20 -6 0
-12 -9 -15 -20z"/>
<path d="M1441 5684 c0 -11 3 -14 6 -6 3 7 2 16 -1 19 -3 4 -6 -2 -5 -13z"/>
<path d="M2623 5655 c0 -22 2 -30 4 -17 2 12 2 30 0 40 -3 9 -5 -1 -4 -23z"/>
<path d="M2798 5656 c9 -19 19 -32 21 -30 6 6 -21 64 -30 64 -5 0 -1 -15 9
-34z"/>
<path d="M3039 5675 c17 -34 31 -51 31 -39 0 7 -9 22 -21 35 -16 19 -18 20
-10 4z"/>
<path d="M1626 5662 c-3 -6 0 -12 6 -15 9 -3 1 -17 -21 -40 -18 -19 -31 -41
-29 -48 3 -8 14 2 30 24 13 20 27 34 31 31 3 -3 4 6 3 20 -4 31 -11 41 -20 28z"/>
<path d="M2853 5620 c0 -30 2 -43 4 -27 2 15 2 39 0 55 -2 15 -4 2 -4 -28z"/>
<path d="M1427 5653 c-4 -3 -7 -11 -7 -17 0 -6 5 -5 12 2 6 6 9 14 7 17 -3 3
-9 2 -12 -2z"/>
<path d="M2601 5644 c0 -11 3 -14 6 -6 3 7 2 16 -1 19 -3 4 -6 -2 -5 -13z"/>
<path d="M3240 5655 c0 -2 15 -12 33 -20 l32 -16 -24 21 c-22 19 -41 26 -41
15z"/>
<path d="M1215 5639 c-4 -6 -5 -12 -2 -15 2 -3 7 2 10 11 7 17 1 20 -8 4z"/>
<path d="M1470 5644 c0 -6 7 -19 16 -30 14 -18 14 -18 3 6 -14 31 -19 36 -19
24z"/>
<path d="M1500 5641 c0 -6 4 -13 10 -16 6 -3 7 1 4 9 -7 18 -14 21 -14 7z"/>
<path d="M1704 5626 c-35 -18 -36 -21 -16 -24 13 -2 19 -8 16 -14 -4 -7 -2 -8
5 -4 6 4 9 12 5 17 -3 6 8 15 25 22 17 6 31 14 31 18 0 11 -28 5 -66 -15z"/>
<path d="M1820 5640 c-9 -6 -10 -10 -3 -10 6 0 15 5 18 10 8 12 4 12 -15 0z"/>
<path d="M2701 5639 c-1 -9 8 -24 19 -34 11 -10 20 -13 20 -7 0 7 -4 12 -8 12
-5 0 -14 10 -20 23 -7 15 -11 17 -11 6z"/>
<path d="M2642 5610 c0 -19 2 -27 5 -17 2 9 2 25 0 35 -3 9 -5 1 -5 -18z"/>
<path d="M3210 5628 c0 -8 7 -21 15 -28 19 -16 19 -1 0 24 -12 16 -15 17 -15
4z"/>
<path d="M3246 5617 c11 -14 22 -23 27 -20 10 6 0 21 -25 34 -20 11 -20 11 -2
-14z"/>
<path d="M1430 5610 c-6 -11 -8 -20 -4 -20 3 0 1 -8 -7 -17 -12 -17 -12 -17 4
-2 10 8 19 25 22 37 5 27 -1 28 -15 2z"/>
<path d="M1391 5594 c0 -11 3 -14 6 -6 3 7 2 16 -1 19 -3 4 -6 -2 -5 -13z"/>
<path d="M1462 5572 c-1 -19 1 -33 5 -29 9 10 13 56 5 61 -4 2 -8 -12 -10 -32z"/>
<path d="M1659 5582 c7 -13 7 -22 -1 -30 -7 -7 -8 -12 -2 -12 12 0 34 21 34
32 0 4 -9 12 -21 18 -18 10 -19 10 -10 -8z"/>
<path d="M1764 5590 c-12 -5 -25 -13 -29 -19 -3 -6 -11 -8 -17 -5 -7 4 -8 2
-4 -4 10 -17 17 -15 51 13 32 27 32 29 -1 15z"/>
<path d="M3036 5585 c4 -8 8 -15 10 -15 2 0 4 7 4 15 0 8 -4 15 -10 15 -5 0
-7 -7 -4 -15z"/>
<path d="M1501 5574 c0 -11 3 -14 6 -6 3 7 2 16 -1 19 -3 4 -6 -2 -5 -13z"/>
<path d="M1270 5528 c-36 -45 -36 -52 0 -18 18 16 30 34 28 40 -1 5 -14 -5
-28 -22z"/>
<path d="M1550 5545 c0 -8 2 -15 4 -15 2 0 6 7 10 15 3 8 1 15 -4 15 -6 0 -10
-7 -10 -15z"/>
<path d="M1615 5549 c-11 -17 1 -21 15 -4 8 9 8 15 2 15 -6 0 -14 -5 -17 -11z"/>
<path d="M3015 5550 c-3 -5 -1 -10 4 -10 6 0 11 5 11 10 0 6 -2 10 -4 10 -3 0
-8 -4 -11 -10z"/>
<path d="M1383 5538 c-6 -7 -13 -22 -16 -33 -6 -17 -4 -17 13 4 11 13 20 27
20 32 0 12 -6 11 -17 -3z"/>
<path d="M1765 5540 c3 -5 16 -10 28 -9 21 0 21 1 2 9 -28 12 -37 12 -30 0z"/>
<path d="M1436 5525 c-9 -26 -7 -32 5 -12 6 10 9 21 6 23 -2 3 -7 -2 -11 -11z"/>
<path d="M1566 5524 c-3 -8 -10 -13 -15 -9 -6 3 -15 -3 -20 -14 -17 -30 -12
-39 5 -11 l15 25 -5 -25 c-5 -24 -5 -24 19 5 13 17 24 33 25 38 0 13 -18 7
-24 -9z"/>
<path d="M1646 5515 c-15 -8 -33 -12 -39 -8 -5 3 -7 1 -4 -4 4 -6 0 -24 -8
-39 -8 -15 -12 -30 -10 -32 7 -7 25 9 25 24 0 8 5 14 10 14 6 0 10 8 11 18 0
10 3 12 6 4 2 -6 9 -9 15 -6 6 4 5 10 -3 15 -10 6 -8 9 8 9 12 0 25 5 28 10 9
14 -5 12 -39 -5z"/>
<path d="M1720 5523 c-26 -11 -42 -33 -35 -50 5 -15 7 -15 15 -3 5 8 24 20 42
27 19 6 25 12 15 12 -10 1 -15 6 -12 11 7 11 -2 12 -25 3z"/>
<path d="M1270 5480 c-6 -11 -8 -20 -6 -20 3 0 10 9 16 20 6 11 8 20 6 20 -3
0 -10 -9 -16 -20z"/>
<path d="M1306 5484 c-9 -8 -16 -23 -16 -32 0 -15 2 -15 10 -2 33 48 35 64 6
34z"/>
<path d="M1390 5463 c0 -25 3 -33 9 -24 5 7 6 22 3 34 -4 15 -2 18 8 12 9 -5
11 -4 6 3 -14 23 -26 11 -26 -25z"/>
<path d="M1459 5486 c8 -10 9 -16 1 -21 -5 -3 -10 -1 -10 5 0 6 -4 8 -10 5 -5
-3 -10 -16 -10 -27 0 -21 0 -21 24 1 23 22 25 51 4 51 -6 0 -6 -6 1 -14z"/>
<path d="M1788 5483 c7 -3 16 -2 19 1 4 3 -2 6 -13 5 -11 0 -14 -3 -6 -6z"/>
<path d="M1636 5450 c-14 -17 -26 -37 -25 -43 0 -7 6 -3 12 7 7 11 20 28 30
38 10 11 17 22 14 24 -2 3 -16 -9 -31 -26z"/>
<path d="M1753 5473 c-7 -2 -13 -9 -13 -15 0 -7 5 -7 13 1 8 6 18 7 22 3 5 -4
5 -1 1 6 -4 6 -8 12 -9 11 -1 0 -8 -3 -14 -6z"/>
<path d="M1331 5446 c-10 -12 -8 -13 8 -9 13 3 21 1 21 -8 0 -7 2 -10 5 -7 7
7 -5 38 -15 38 -4 0 -13 -6 -19 -14z"/>
<path d="M1517 5442 c-19 -20 -23 -37 -7 -27 10 6 33 45 27 45 -2 0 -11 -8
-20 -18z"/>
<path d="M1270 5430 c0 -5 5 -10 11 -10 5 0 7 5 4 10 -3 6 -8 10 -11 10 -2 0
-4 -4 -4 -10z"/>
<path d="M1655 5420 c-10 -11 -14 -20 -9 -20 5 0 15 9 22 20 7 11 11 20 9 20
-2 0 -12 -9 -22 -20z"/>
<path d="M1760 5430 c-13 -8 -13 -10 2 -10 9 0 20 5 23 10 8 13 -5 13 -25 0z"/>
<path d="M1445 5420 c-3 -5 -1 -10 4 -10 6 0 11 5 11 10 0 6 -2 10 -4 10 -3 0
-8 -4 -11 -10z"/>
<path d="M1566 5417 c5 -15 -52 -61 -65 -52 -5 3 -7 -4 -4 -16 4 -14 8 -17 13
-9 4 7 13 10 19 6 7 -4 9 -1 5 7 -3 8 -1 18 5 22 6 3 11 1 11 -6 0 -6 9 0 20
14 24 30 24 33 6 40 -9 4 -13 1 -10 -6z"/>
<path d="M1073 5403 c0 -9 4 -10 14 -2 7 6 13 12 13 14 0 1 -6 2 -13 2 -8 0
-14 -6 -14 -14z"/>
<path d="M1327 5405 c-4 -8 -2 -17 3 -20 6 -4 10 3 10 14 0 25 -6 27 -13 6z"/>
<path d="M1477 5413 c-4 -3 -7 -11 -7 -17 0 -6 5 -5 12 2 6 6 9 14 7 17 -3 3
-9 2 -12 -2z"/>
<path d="M1690 5399 c-19 -10 -43 -18 -52 -19 -21 0 -35 -20 -14 -20 24 0 106
38 106 50 0 5 -1 10 -2 9 -2 -1 -19 -9 -38 -20z"/>
<path d="M1241 5403 c0 -6 -4 -20 -7 -30 -5 -14 -4 -15 5 -7 7 7 11 20 8 30
-3 11 -5 14 -6 7z"/>
<path d="M1301 5388 c-1 -16 4 -28 9 -28 12 0 12 8 0 35 -8 18 -9 17 -9 -7z"/>
<path d="M1371 5403 c-1 -6 -4 -20 -7 -30 -5 -17 -5 -17 6 0 6 10 9 23 6 30
-3 9 -5 9 -5 0z"/>
<path d="M2790 5390 c0 -5 5 -10 11 -10 5 0 7 5 4 10 -3 6 -8 10 -11 10 -2 0
-4 -4 -4 -10z"/>
<path d="M3131 5384 c0 -11 3 -14 6 -6 3 7 2 16 -1 19 -3 4 -6 -2 -5 -13z"/>
<path d="M1255 5358 l-20 -21 23 12 c12 6 22 16 22 21 0 13 -2 12 -25 -12z"/>
<path d="M1457 5353 c-7 -39 -1 -40 11 -4 6 17 7 31 3 31 -5 0 -11 -12 -14
-27z"/>
<path d="M1400 5359 c0 -5 5 -7 10 -4 6 3 10 8 10 11 0 2 -4 4 -10 4 -5 0 -10
-5 -10 -11z"/>
<path d="M1560 5345 c-13 -14 -21 -27 -18 -31 3 -3 16 9 28 25 26 37 22 40
-10 6z"/>
<path d="M1642 5345 c-24 -13 -48 -24 -54 -22 -7 1 -12 -16 -12 -42 -1 -30 -6
-46 -16 -49 -13 -5 -13 -3 -1 11 19 24 4 21 -22 -4 -20 -20 -21 -21 -2 -15 16
6 18 5 8 -5 -10 -10 -16 -10 -25 -1 -9 9 -6 17 11 36 13 14 21 30 19 37 -2 7
-14 -4 -26 -24 -13 -19 -28 -38 -35 -41 -7 -2 -4 -5 6 -5 17 -1 16 -3 -2 -28
-10 -16 -22 -46 -26 -68 -3 -22 -13 -50 -21 -62 -18 -28 -30 -118 -15 -108 6
3 11 11 11 17 0 6 9 19 21 29 12 10 18 23 13 30 -4 7 -3 9 3 6 5 -3 10 0 10 8
0 24 -15 17 -31 -12 -8 -16 -15 -22 -16 -15 0 18 32 72 43 72 5 0 7 7 4 15 -3
7 3 24 14 37 15 17 19 18 15 6 -3 -10 0 -18 6 -18 7 0 -1 -13 -17 -30 -27 -28
-24 -44 4 -17 10 10 12 9 9 -3 -2 -8 -7 -19 -13 -23 -6 -5 -4 -7 5 -4 9 2 15
16 16 32 1 16 6 31 13 33 6 2 11 8 11 13 0 6 -4 7 -10 4 -5 -3 -10 -2 -10 3 0
6 14 15 30 21 17 5 30 14 30 20 0 5 9 7 20 4 15 -4 19 -2 14 10 -6 17 -32 12
-49 -9 -13 -16 -60 -30 -51 -15 4 6 13 11 21 11 8 0 17 5 20 10 12 19 -13 10
-43 -15 -17 -14 -33 -22 -36 -17 -6 10 10 37 24 38 5 1 15 2 21 3 7 0 28 18
47 39 20 20 33 31 28 25 -10 -18 9 -16 28 2 8 8 19 15 25 15 6 0 11 5 11 11 0
7 -9 5 -24 -5 -23 -15 -56 -13 -56 3 0 12 74 49 88 44 6 -3 10 -9 6 -14 -6
-11 7 -12 21 -1 6 4 16 18 23 31 13 23 13 23 -9 7 -31 -21 -56 -22 -39 -1 17
20 12 19 -38 -10z"/>
<path d="M3022 5345 c0 -16 2 -22 5 -12 2 9 2 23 0 30 -3 6 -5 -1 -5 -18z"/>
<path d="M1415 5329 c-11 -16 -19 -34 -18 -39 2 -5 -4 -7 -12 -4 -8 4 -15 1
-15 -5 0 -6 5 -11 11 -11 8 0 8 -4 1 -13 -14 -17 -42 -97 -42 -122 0 -11 -7
-31 -16 -43 -8 -12 -13 -22 -10 -22 12 0 50 66 48 86 -1 12 12 49 28 83 17 34
30 67 30 73 0 6 7 20 17 30 9 10 12 18 7 18 -5 0 -18 -14 -29 -31z"/>
<path d="M3201 5344 c0 -11 3 -14 6 -6 3 7 2 16 -1 19 -3 4 -6 -2 -5 -13z"/>
<path d="M1475 5331 c-3 -12 -13 -21 -21 -21 -15 0 -19 -16 -6 -24 9 -6 47 53
39 60 -3 3 -8 -4 -12 -15z"/>
<path d="M3082 5330 c0 -14 2 -19 5 -12 2 6 2 18 0 25 -3 6 -5 1 -5 -13z"/>
<path d="M1330 5325 c0 -8 2 -15 4 -15 2 0 6 7 10 15 3 8 1 15 -4 15 -6 0 -10
-7 -10 -15z"/>
<path d="M3142 5300 c0 -19 2 -27 5 -17 2 9 2 25 0 35 -3 9 -5 1 -5 -18z"/>
<path d="M2881 5304 c0 -11 3 -14 6 -6 3 7 2 16 -1 19 -3 4 -6 -2 -5 -13z"/>
<path d="M1512 5290 c-7 -11 -8 -20 -3 -20 9 0 24 30 18 36 -1 2 -8 -6 -15
-16z"/>
<path d="M3015 5290 c-3 -5 1 -10 9 -10 9 0 16 5 16 10 0 6 -4 10 -9 10 -6 0
-13 -4 -16 -10z"/>
<path d="M1430 5278 c0 -2 -3 -28 -6 -58 -4 -30 -3 -52 1 -48 12 12 23 98 13
104 -4 3 -8 4 -8 2z"/>
<path d="M1139 5255 c-1 -3 -2 -8 -3 -12 -1 -5 -5 -15 -10 -23 -7 -12 -6 -13
4 -3 13 12 23 43 14 43 -2 0 -5 -2 -5 -5z"/>
<path d="M1480 5250 c-9 -6 -10 -10 -3 -10 6 0 15 5 18 10 8 12 4 12 -15 0z"/>
<path d="M1317 5208 c-26 -44 -49 -118 -28 -88 6 8 11 23 11 32 0 9 6 23 13
30 19 19 40 59 34 65 -3 2 -17 -15 -30 -39z"/>
<path d="M2900 5240 c0 -5 5 -10 10 -10 6 0 10 5 10 10 0 6 -4 10 -10 10 -5 0
-10 -4 -10 -10z"/>
<path d="M1598 5223 c6 -2 18 -2 25 0 6 3 1 5 -13 5 -14 0 -19 -2 -12 -5z"/>
<path d="M3040 5220 c0 -5 5 -10 11 -10 5 0 7 -4 4 -10 -3 -5 -1 -10 4 -10 6
0 11 -8 11 -17 0 -10 8 -27 16 -38 15 -19 15 -19 8 10 -3 17 -11 34 -15 40 -5
5 -9 17 -9 27 0 10 -7 18 -15 18 -8 0 -15 -4 -15 -10z"/>
<path d="M1455 5209 c-4 -6 -5 -12 -2 -15 2 -3 7 2 10 11 7 17 1 20 -8 4z"/>
<path d="M1738 5203 c6 -2 18 -2 25 0 6 3 1 5 -13 5 -14 0 -19 -2 -12 -5z"/>
<path d="M1986 5192 c-3 -5 8 -6 25 -4 16 2 29 6 29 8 0 8 -49 4 -54 -4z"/>
<path d="M2433 5171 c31 -37 68 -106 62 -113 -2 -2 7 -4 21 -4 23 0 24 1 9 12
-9 7 -16 15 -16 18 3 21 -1 35 -14 52 -13 18 -14 18 -9 -6 6 -24 5 -23 -14 5
-10 17 -30 39 -43 50 -20 17 -19 15 4 -14z"/>
<path d="M1391 5182 c-1 -8 -6 -10 -13 -6 -8 5 -7 1 2 -10 15 -19 26 -7 17 17
-4 9 -6 9 -6 -1z"/>
<path d="M1727 5179 c7 -7 15 -10 18 -7 3 3 -2 9 -12 12 -14 6 -15 5 -6 -5z"/>
<path d="M1843 5176 c-13 -6 -23 -14 -23 -17 0 -13 39 3 44 17 3 8 4 13 3 13
-1 -1 -12 -6 -24 -13z"/>
<path d="M1164 5164 c-4 -10 -9 -22 -11 -26 -2 -5 0 -8 6 -8 11 0 26 39 17 47
-3 3 -9 -3 -12 -13z"/>
<path d="M1768 5173 c7 -3 16 -2 19 1 4 3 -2 6 -13 5 -11 0 -14 -3 -6 -6z"/>
<path d="M2228 5173 c6 -2 18 -2 25 0 6 3 1 5 -13 5 -14 0 -19 -2 -12 -5z"/>
<path d="M1246 5148 c-9 -12 -16 -32 -15 -43 1 -15 3 -13 9 8 5 16 14 35 21
43 6 8 9 14 6 14 -3 0 -13 -10 -21 -22z"/>
<path d="M1435 5160 c-4 -6 -10 -8 -15 -5 -10 6 -30 -48 -31 -89 l-2 -31 -7
30 c-6 23 -7 20 -4 -15 3 -32 1 -41 -6 -30 -5 8 -10 11 -10 5 0 -5 4 -16 9
-24 7 -11 10 -9 16 8 3 11 10 21 14 21 5 0 6 11 4 24 -6 27 12 67 29 63 6 -1
13 5 15 13 4 13 3 13 -7 0 -9 -13 -10 -12 -7 5 2 11 9 19 16 17 7 -1 10 2 6 8
-8 13 -12 13 -20 0z"/>
<path d="M1938 5163 c7 -3 16 -2 19 1 4 3 -2 6 -13 5 -11 0 -14 -3 -6 -6z"/>
<path d="M2075 5161 c-3 -5 0 -13 6 -17 8 -5 9 -3 4 6 -6 10 -2 12 18 8 14 -3
32 -1 39 3 8 6 0 9 -24 9 -20 0 -39 -4 -43 -9z"/>
<path d="M2490 5166 c0 -2 7 -9 15 -16 13 -11 14 -10 9 4 -5 14 -24 23 -24 12z"/>
<path d="M2377 5141 c23 -22 39 -28 28 -11 -3 5 -16 15 -28 21 l-22 11 22 -21z"/>
<path d="M2415 5143 c3 -12 8 -31 10 -42 5 -28 30 -63 38 -54 4 3 7 -1 7 -10
0 -9 -5 -17 -11 -17 -5 0 -7 -4 -4 -10 12 -19 33 13 24 37 -5 13 -6 23 -2 23
4 0 -5 12 -19 28 -14 15 -31 36 -37 47 -12 19 -12 19 -6 -2z"/>
<path d="M1790 5139 c0 -5 5 -7 10 -4 6 3 10 8 10 11 0 2 -4 4 -10 4 -5 0 -10
-5 -10 -11z"/>
<path d="M2200 5140 c-24 -15 -7 -19 20 -5 15 8 19 14 10 14 -8 1 -22 -3 -30
-9z"/>
<path d="M1755 5130 c-16 -7 -17 -9 -3 -9 9 -1 20 4 23 9 7 11 7 11 -20 0z"/>
<path d="M1981 5128 c-28 -6 -40 -13 -32 -18 7 -4 28 -4 47 0 19 4 34 4 34 0
0 -5 10 -6 23 -3 12 3 19 2 15 -2 -10 -10 -108 -13 -136 -3 -14 5 -32 4 -44
-3 -11 -6 -41 -11 -66 -11 -25 0 -55 -6 -66 -14 -18 -12 -18 -14 -3 -14 9 0
17 4 17 9 0 5 41 7 91 5 50 -2 97 -1 103 3 6 4 39 8 74 8 41 1 66 6 72 14 6
11 11 9 19 -8 7 -12 9 -26 6 -31 -6 -9 28 -16 50 -10 6 2 18 3 28 4 9 0 15 5
13 11 -2 5 -9 9 -15 7 -7 -1 -9 2 -6 8 5 8 14 6 29 -4 15 -9 28 -11 37 -5 8 5
19 9 24 9 6 0 4 -4 -3 -9 -15 -9 3 -19 48 -27 24 -4 24 -4 6 11 -11 8 -23 15
-26 15 -3 0 -6 9 -7 21 -2 16 1 18 12 9 8 -6 20 -8 26 -4 7 4 9 3 6 -3 -4 -6
0 -14 9 -17 10 -4 13 -2 8 6 -4 6 5 3 19 -8 27 -20 43 -44 28 -44 -5 0 -11 7
-15 15 -7 20 -22 19 -30 -1 -5 -12 -2 -15 10 -10 12 4 15 2 10 -9 -3 -8 -1
-14 4 -12 5 1 25 -23 44 -53 20 -30 36 -50 36 -43 0 6 -4 15 -10 18 -13 8 -13
25 -1 25 5 0 13 -9 16 -21 4 -11 9 -19 11 -16 2 2 -1 18 -7 36 -11 30 -12 31
-26 14 -8 -10 -12 -12 -8 -6 3 7 0 23 -7 35 -6 13 -13 28 -14 35 -4 25 -45 71
-74 83 -35 14 -134 5 -109 -11 11 -7 11 -9 -3 -9 -10 0 -18 5 -18 12 0 9 -3 9
-12 0 -15 -15 -88 -16 -88 -2 0 6 -11 8 -26 4 -19 -5 -25 -3 -20 4 5 8 2 10
-8 6 -9 -3 -16 -1 -16 5 0 13 -18 13 -79 -1z m314 -28 c3 -5 -1 -10 -10 -10
-9 0 -13 5 -10 10 3 6 8 10 10 10 2 0 7 -4 10 -10z m-124 -19 c4 7 11 10 14 7
10 -10 -4 -28 -21 -28 -8 0 -14 8 -13 18 0 12 2 13 6 3 4 -11 7 -11 14 0z"/>
<path d="M2550 5073 c10 -38 20 -78 22 -91 l3 -23 13 22 c9 14 10 19 2 14 -9
-6 -11 3 -8 33 2 22 0 38 -4 36 -3 -2 -9 9 -13 25 -3 16 -12 35 -19 41 -10 8
-9 -7 4 -57z"/>
<path d="M1495 5120 c-3 -5 -1 -10 4 -10 6 0 11 5 11 10 0 6 -2 10 -4 10 -3 0
-8 -4 -11 -10z"/>
<path d="M2140 5120 c0 -5 7 -10 16 -10 8 0 12 5 9 10 -3 6 -10 10 -16 10 -5
0 -9 -4 -9 -10z"/>
<path d="M3017 5123 c-11 -11 -8 -20 7 -20 8 0 12 6 9 14 -6 15 -7 15 -16 6z"/>
<path d="M3070 5100 c0 -5 5 -10 11 -10 5 0 7 5 4 10 -3 6 -8 10 -11 10 -2 0
-4 -4 -4 -10z"/>
<path d="M1337 5061 c-9 -17 -11 -31 -6 -31 6 0 6 -8 -1 -19 -5 -11 -10 -29
-10 -40 0 -11 -10 -25 -22 -32 -17 -9 -20 -9 -15 2 3 8 8 23 12 34 7 19 7 19
-7 1 -14 -17 -16 -17 -44 -2 -47 26 -69 40 -75 50 -4 4 -10 3 -13 -3 -4 -6
-12 -9 -17 -5 -5 3 -7 10 -4 15 4 5 1 9 -5 9 -6 0 -13 -7 -16 -15 -3 -8 -21
-20 -38 -26 -53 -19 -71 -65 -69 -174 3 -137 39 -366 68 -431 16 -36 47 -78
89 -119 36 -35 65 -72 64 -82 0 -10 3 -79 7 -153 3 -74 8 -169 10 -210 2 -41
8 -97 13 -125 5 -27 10 -57 10 -65 -1 -28 19 -70 102 -220 33 -61 34 -61 108
-178 28 -45 52 -84 52 -87 0 -2 22 -37 50 -79 27 -41 51 -81 52 -88 2 -7 13
-24 26 -38 12 -14 31 -43 42 -65 11 -22 20 -36 20 -31 0 5 10 -4 22 -20 54
-70 135 -162 171 -194 62 -56 64 -66 14 -83 -23 -9 -34 -16 -25 -16 9 -1 28 3
42 9 19 7 26 6 26 -3 0 -9 2 -9 8 0 6 9 12 8 24 -6 20 -23 14 -31 -23 -31 -28
0 -59 -34 -59 -65 0 -9 20 -36 45 -60 41 -39 48 -43 73 -34 33 12 65 62 49 78
-8 8 -8 11 1 11 7 0 14 0 17 0 3 0 4 -1 3 -3 -2 -2 5 -12 15 -22 10 -9 16 -24
13 -31 -3 -8 -2 -14 3 -14 13 0 24 -52 13 -59 -10 -6 -10 -79 -1 -96 3 -5 6
-23 7 -40 1 -16 7 -34 13 -40 11 -10 7 65 -7 137 -4 21 -2 28 10 28 21 0 20 3
-6 73 -15 39 -37 72 -63 96 -142 129 -301 313 -398 459 -121 182 -232 355
-239 373 -4 10 -19 36 -33 59 -14 23 -50 85 -79 138 -43 80 -55 111 -64 177
-22 153 -43 521 -31 534 7 7 49 -10 49 -21 0 -6 10 -8 25 -4 19 5 23 3 19 -9
-4 -10 0 -15 10 -15 13 0 16 9 15 43 -3 56 10 207 18 220 3 6 1 7 -5 3 -8 -5
-12 3 -12 24 0 19 4 29 10 25 6 -4 9 -3 8 2 -3 12 12 141 19 160 5 12 3 14 -8
8 -12 -8 -12 -6 0 9 12 14 12 19 2 25 -10 6 -9 10 4 15 14 5 16 15 12 49 -4
30 -3 37 4 25 11 -20 29 -24 29 -7 0 5 -4 7 -10 4 -16 -10 -12 11 5 25 8 7 15
20 15 28 0 13 -3 12 -15 -4 -11 -15 -11 -8 3 33 12 37 22 53 35 53 9 0 17 4
17 10 0 5 -8 6 -17 3 -14 -6 -13 -2 4 23 20 28 20 31 5 42 -15 10 -15 12 6 18
12 3 22 13 22 20 0 8 5 14 10 14 6 0 10 7 10 17 0 13 -3 12 -19 -5 -10 -12
-22 -22 -28 -22 -5 0 -17 -15 -28 -32 -10 -18 -22 -35 -25 -38 -13 -9 -22 -50
-11 -50 6 0 13 11 17 25 3 13 12 29 20 36 25 21 20 5 -38 -113 -4 -10 -8 -22
-8 -28 0 -6 -9 -20 -19 -32 -20 -20 -20 -20 -16 38 2 33 2 49 -1 37 -3 -13 -9
-23 -14 -23 -12 0 -23 34 -11 38 12 4 35 71 27 79 -3 4 -9 -8 -12 -25 -4 -18
-11 -32 -15 -32 -10 0 -6 31 6 63 4 9 3 17 -3 17 -16 0 -23 -16 -25 -59 0 -22
-5 -37 -9 -35 -15 9 -8 -9 8 -20 22 -16 27 -172 8 -247 -15 -57 -24 -279 -13
-279 8 0 -5 -62 -15 -79 -4 -6 -2 -11 3 -11 6 0 11 -12 10 -27 0 -19 -3 -23
-7 -13 -4 8 -15 15 -24 16 -10 0 -27 1 -37 2 -32 3 -138 109 -165 165 -16 33
-31 91 -41 157 -8 58 -19 134 -25 170 -21 140 -10 209 39 254 29 27 91 16 150
-25 25 -18 49 -38 53 -43 5 -7 8 -7 8 2 0 27 19 10 23 -20 3 -30 4 -29 5 8 1
22 8 62 16 87 7 25 12 48 9 51 -3 2 1 14 7 26 6 12 9 24 7 26 -3 3 -12 -9 -20
-25z m70 -333 c-3 -7 -5 -2 -5 12 0 14 2 19 5 13 2 -7 2 -19 0 -25z m-14 -155
c-7 -2 -13 -20 -13 -38 0 -19 -4 -36 -9 -39 -9 -6 -6 57 4 74 3 5 12 10 18 9
9 0 9 -2 0 -6z m662 -2073 c3 -5 -1 -10 -9 -10 -8 0 -18 5 -21 10 -3 6 1 10 9
10 8 0 18 -4 21 -10z m-25 -36 c22 -19 30 -34 28 -52 -5 -40 -30 -49 -67 -23
-35 25 -49 64 -31 86 18 21 34 19 70 -11z"/>
<path d="M1411 5064 c0 -11 3 -14 6 -6 3 7 2 16 -1 19 -3 4 -6 -2 -5 -13z"/>
<path d="M1690 5070 c0 -6 7 -10 15 -10 8 0 15 2 15 4 0 2 -7 6 -15 10 -8 3
-15 1 -15 -4z"/>
<path d="M2075 5070 c-3 -5 1 -10 9 -10 9 0 16 5 16 10 0 6 -4 10 -9 10 -6 0
-13 -4 -16 -10z"/>
<path d="M1810 5061 c14 -10 13 -12 -9 -15 -5 0 -13 -5 -18 -10 -5 -5 -3 -6 5
-2 6 4 12 3 12 -2 0 -5 -18 -17 -40 -27 -22 -10 -40 -21 -40 -25 0 -5 -12 -11
-26 -14 -15 -4 -24 -10 -21 -13 3 -3 19 -1 34 4 34 12 53 7 53 -15 0 -13 2
-13 14 3 12 17 16 18 32 5 18 -14 18 -14 4 4 -13 18 -13 19 1 14 10 -4 16 -1
16 9 0 9 -8 18 -18 20 -14 4 -15 8 -6 18 8 9 16 10 25 3 9 -8 11 -7 6 7 -5 13
-3 16 7 13 8 -3 13 -10 12 -15 -1 -6 10 -8 25 -6 23 3 24 2 7 -6 -13 -6 -15
-10 -6 -10 8 -1 34 -10 58 -22 23 -11 49 -18 55 -16 7 3 2 6 -11 6 -18 1 -22
4 -14 12 7 7 27 7 61 1 28 -5 49 -6 47 -2 -3 5 2 10 10 14 8 3 17 1 20 -5 4
-5 10 -7 15 -4 4 3 25 -2 46 -10 37 -15 38 -15 19 1 -20 16 -20 16 3 11 12 -3
22 -1 22 4 0 5 -10 10 -22 10 -20 1 -21 2 -4 6 11 3 25 -1 30 -10 6 -8 27 -18
46 -21 19 -4 42 -9 51 -12 18 -5 22 27 5 38 -7 5 -5 8 6 8 9 0 22 -8 27 -17 8
-14 11 -15 11 -3 0 10 6 8 19 -9 15 -20 18 -21 18 -5 0 19 -35 51 -49 46 -5
-1 -8 4 -8 10 0 10 -2 10 -8 0 -9 -13 -42 -6 -42 9 0 5 -10 8 -22 8 -18 -1
-19 -2 -5 -6 9 -2 15 -9 12 -14 -4 -5 2 -9 12 -10 13 0 14 -2 4 -6 -10 -4 -8
-9 10 -19 24 -13 24 -13 2 -14 -12 0 -26 6 -30 13 -4 7 -30 18 -58 23 -27 6
-59 14 -70 18 -16 6 -17 6 -5 -3 12 -9 11 -11 -7 -11 -15 0 -21 5 -17 14 4 11
-2 14 -28 13 -18 -1 -44 2 -58 6 -14 4 -3 -3 24 -16 l48 -24 -28 -8 c-36 -9
-152 -10 -161 -1 -3 3 9 6 28 6 28 1 31 2 16 11 -9 6 -36 11 -58 11 -24 0 -36
4 -29 8 12 8 2 13 -55 26 -16 4 -17 3 -5 -5z m345 -61 c3 -6 -1 -7 -9 -4 -18
7 -21 14 -7 14 6 0 13 -4 16 -10z m-359 -26 c-9 -6 -26 -10 -36 -7 -32 8 -23
18 16 19 31 0 34 -1 20 -12z"/>
<path d="M1895 5060 c-6 -10 19 -14 63 -10 12 1 22 -3 22 -9 0 -6 8 -11 18
-11 14 0 15 -2 2 -10 -10 -6 -2 -9 28 -7 39 1 41 2 20 14 -13 7 -31 12 -41 13
-10 0 -16 4 -13 9 8 13 -28 20 -47 10 -10 -6 -18 -5 -22 1 -8 13 -22 13 -30 0z"/>
<path d="M2830 5049 c0 -5 5 -7 10 -4 6 3 10 8 10 11 0 2 -4 4 -10 4 -5 0 -10
-5 -10 -11z"/>
<path d="M2925 5043 c-16 -9 -37 -25 -47 -37 -9 -11 -17 -16 -18 -10 0 5 6 16
13 23 9 11 7 10 -10 0 -13 -8 -23 -17 -23 -21 0 -5 -8 -8 -17 -8 -16 -1 -16
-2 2 -17 16 -13 17 -15 3 -10 -12 4 -18 1 -18 -8 0 -8 -8 -19 -17 -24 -11 -6
-13 -11 -5 -11 16 0 73 41 67 50 -2 3 5 7 16 7 19 2 20 1 5 -22 -12 -19 -13
-23 -2 -19 7 3 18 16 25 30 6 15 7 23 1 19 -5 -3 -10 -1 -10 4 0 14 17 14 25
1 4 -6 11 -5 19 3 18 16 9 30 -15 24 -11 -3 -16 -1 -13 4 3 6 13 9 22 7 10 -1
28 5 42 15 22 15 22 17 5 17 -11 -1 -33 -8 -50 -17z"/>
<path d="M1730 5046 c0 -2 7 -6 15 -10 8 -3 15 -1 15 4 0 6 -7 10 -15 10 -8 0
-15 -2 -15 -4z"/>
<path d="M2676 5035 c-3 -8 -1 -15 4 -15 6 0 10 7 10 15 0 8 -2 15 -4 15 -2 0
-6 -7 -10 -15z"/>
<path d="M2543 5018 c3 -16 -1 -29 -9 -32 -12 -5 -16 -46 -4 -46 3 0 11 14 19
31 10 23 11 36 2 52 -11 21 -11 21 -8 -5z"/>
<path d="M1660 5014 c0 -14 3 -14 15 -4 8 7 15 14 15 16 0 2 -7 4 -15 4 -8 0
-15 -7 -15 -16z"/>
<path d="M1705 5020 c3 -5 18 -10 32 -10 32 0 28 5 -10 14 -19 4 -26 3 -22 -4z"/>
<path d="M2970 5020 c0 -6 12 -8 28 -5 l27 6 -30 -14 -30 -15 43 0 c45 0 54
11 23 28 -25 13 -61 13 -61 0z"/>
<path d="M3050 5021 c0 -9 24 -21 42 -21 6 0 6 6 -2 15 -14 16 -40 20 -40 6z"/>
<path d="M2510 5011 c0 -7 -4 -9 -10 -6 -12 7 -12 -2 0 -30 7 -18 8 -18 15 8
4 15 5 31 1 34 -3 4 -6 1 -6 -6z"/>
<path d="M2655 4990 c-3 -5 -1 -10 4 -10 6 0 11 5 11 10 0 6 -2 10 -4 10 -3 0
-8 -4 -11 -10z"/>
<path d="M1840 4980 c0 -13 11 -13 30 0 12 8 11 10 -7 10 -13 0 -23 -4 -23
-10z"/>
<path d="M1590 4976 c0 -2 13 -6 29 -8 17 -2 28 -1 25 4 -5 8 -54 12 -54 4z"/>
<path d="M2985 4970 c-3 -5 -2 -10 4 -10 5 0 13 5 16 10 3 6 2 10 -4 10 -5 0
-13 -4 -16 -10z"/>
<path d="M1890 4960 c8 -5 24 -10 34 -10 26 0 18 6 -19 14 -22 5 -26 4 -15 -4z"/>
<path d="M2666 4954 c-4 -9 -4 -19 -1 -22 2 -3 7 3 11 12 4 9 4 19 1 22 -2 3
-7 -3 -11 -12z"/>
<path d="M2913 4944 c0 -8 6 -14 14 -14 7 0 13 4 13 9 0 5 -6 11 -13 14 -8 3
-14 -1 -14 -9z"/>
<path d="M1565 4930 c-3 -5 -1 -10 5 -10 6 0 8 -4 5 -10 -4 -6 1 -7 11 -3 11
4 13 8 6 11 -7 2 -10 8 -6 13 3 5 1 9 -5 9 -5 0 -13 -4 -16 -10z"/>
<path d="M1660 4921 c-13 -25 -13 -31 0 -31 6 0 10 10 10 23 0 18 2 19 10 7 8
-13 10 -12 10 3 0 23 -17 22 -30 -2z"/>
<path d="M1720 4921 c14 -11 30 -21 35 -21 11 0 -7 14 -40 31 -13 7 -12 3 5
-10z"/>
<path d="M2830 4925 c-8 -9 -8 -15 -2 -15 12 0 26 19 19 26 -2 2 -10 -2 -17
-11z"/>
<path d="M1782 4923 c-16 -6 -5 -23 16 -23 14 0 14 2 3 9 -11 7 -7 10 15 14
25 3 25 4 4 5 -14 0 -31 -2 -38 -5z"/>
<path d="M2013 4920 c-43 -10 -143 -59 -143 -70 0 -5 33 7 74 26 65 31 84 35
157 36 106 2 159 -13 211 -60 24 -22 37 -29 31 -17 -20 36 -65 67 -117 81 -55
15 -161 17 -213 4z"/>
<path d="M2874 4905 c-16 -13 -17 -14 -1 -9 10 4 26 -1 38 -12 16 -15 19 -15
14 -2 -4 11 1 18 15 23 12 4 19 9 17 12 -3 2 -15 -1 -27 -7 -16 -9 -24 -9 -29
-1 -5 8 -13 6 -27 -4z"/>
<path d="M1105 4874 c-15 -23 -17 -46 -13 -173 4 -123 8 -154 26 -195 12 -27
25 -46 28 -43 4 4 0 21 -9 39 -34 74 -40 323 -8 361 7 10 22 17 33 17 22 0 81
-58 105 -104 11 -22 17 -26 23 -15 11 17 3 31 -55 90 -58 59 -101 67 -130 23z"/>
<path d="M1419 4888 c0 -2 -2 -14 -3 -27 -3 -22 -2 -23 11 -6 16 22 17 35 3
35 -5 0 -10 -1 -11 -2z"/>
<path d="M1680 4880 c-8 -5 -11 -12 -8 -16 4 -3 14 1 23 10 18 17 9 21 -15 6z"/>
<path d="M2947 4876 c-6 -14 26 -26 65 -24 20 2 20 38 0 38 -7 0 -11 -4 -8 -8
2 -4 -4 -8 -15 -8 -10 0 -19 4 -19 8 0 14 -18 9 -23 -6z"/>
<path d="M1618 4873 c7 -3 16 -2 19 1 4 3 -2 6 -13 5 -11 0 -14 -3 -6 -6z"/>
<path d="M2100 4869 c-25 -3 -78 -18 -119 -33 -41 -14 -85 -26 -98 -26 -20 0
-22 -2 -11 -14 9 -9 19 -11 30 -5 10 5 27 5 42 0 13 -6 26 -7 28 -3 2 4 17 15
34 24 l31 17 0 -30 c0 -38 7 -45 67 -61 46 -12 49 -12 68 12 14 18 18 34 15
57 -7 39 3 41 53 15 46 -23 91 -63 84 -74 -3 -4 4 -8 15 -8 31 0 26 13 -18 53
-63 57 -129 85 -151 64 -10 -9 -11 -9 -7 -1 10 17 -11 21 -63 13z m18 -46 c-5
-26 -38 -29 -38 -4 0 15 6 21 21 21 14 0 19 -5 17 -17z m42 -18 c0 -14 -2 -25
-4 -25 -2 0 -13 -3 -23 -6 -15 -6 -16 -4 -5 7 6 7 12 21 12 31 0 10 5 18 10
18 6 0 10 -11 10 -25z"/>
<path d="M2736 4863 c-14 -48 -15 -86 -2 -125 24 -71 56 -271 56 -349 0 -57
20 -159 31 -159 4 0 2 -11 -4 -25 -7 -14 -15 -25 -19 -25 -5 0 -8 -4 -8 -10 0
-14 -32 -50 -45 -50 -5 0 -3 5 5 10 10 7 11 10 2 10 -7 0 -15 -6 -18 -14 -4
-10 -29 -17 -71 -22 -67 -7 -70 -24 -5 -24 18 0 40 -6 48 -14 17 -18 18 -30 2
-23 -9 3 -13 -7 -14 -29 0 -27 3 -34 18 -34 11 0 17 4 14 9 -4 5 -2 20 3 33 5
14 6 31 1 38 -8 13 27 50 48 50 6 0 19 16 31 36 12 19 25 33 30 30 9 -6 21 40
21 85 0 15 -4 30 -9 34 -6 3 -7 -9 -4 -31 4 -25 3 -35 -4 -31 -6 4 -13 24 -15
46 -3 30 0 37 11 33 11 -4 13 -1 7 14 -9 21 -12 42 -20 124 -3 30 -10 70 -15
88 -6 18 -8 39 -5 47 3 7 -3 33 -14 57 l-19 43 46 0 c25 0 49 -4 52 -8 3 -4
23 -10 44 -14 44 -7 65 12 65 59 0 32 9 35 39 11 24 -21 19 -63 -7 -63 -10 0
-12 -3 -6 -9 15 -14 84 -1 84 16 0 8 -4 12 -9 8 -6 -3 -15 4 -21 15 -9 16 -8
20 6 20 36 0 -15 36 -67 48 -83 20 -139 13 -211 -25 -25 -13 -28 -12 -28 3 0
10 7 26 17 36 15 17 15 18 0 18 -25 0 -20 21 11 48 15 13 21 21 15 17 -7 -3
-13 -1 -13 4 0 6 -5 11 -11 11 -5 0 -7 -6 -3 -12 6 -10 4 -10 -7 0 -18 17 -27
15 -33 -5z m164 -117 c0 -16 -18 -31 -27 -22 -8 8 5 36 17 36 5 0 10 -6 10
-14z m55 -23 c-9 -37 -20 -47 -42 -38 -12 5 -14 9 -5 12 6 3 10 9 6 14 -3 5
-1 9 5 9 6 0 8 7 5 15 -4 11 0 15 16 15 19 0 21 -4 15 -27z m-125 -8 c0 -18
-5 -25 -20 -25 -11 0 -20 2 -20 4 0 2 -3 11 -6 19 -5 14 6 21 39 26 4 0 7 -10
7 -24z"/>
<path d="M3050 4865 c0 -8 8 -11 20 -8 11 3 20 7 20 8 0 1 -9 5 -20 8 -12 3
-20 0 -20 -8z"/>
<path d="M1475 4859 c-4 -6 -5 -12 -2 -15 2 -3 7 2 10 11 7 17 1 20 -8 4z"/>
<path d="M1340 4830 c0 -11 4 -20 9 -20 5 0 7 9 4 20 -3 11 -7 20 -9 20 -2 0
-4 -9 -4 -20z"/>
<path d="M1538 4833 c-19 -23 -20 -53 0 -46 11 5 11 7 0 15 -10 7 -8 13 11 28
13 11 19 20 14 20 -6 0 -17 -8 -25 -17z"/>
<path d="M1707 4826 c-4 -10 -1 -13 8 -9 8 3 12 9 9 14 -7 12 -11 11 -17 -5z"/>
<path d="M1620 4819 c0 -5 5 -7 10 -4 6 3 10 8 10 11 0 2 -4 4 -10 4 -5 0 -10
-5 -10 -11z"/>
<path d="M2854 4823 c-12 -2 -32 -15 -44 -28 l-22 -24 41 21 c23 11 61 23 85
25 49 6 156 -14 156 -28 0 -6 4 -8 9 -4 6 3 14 -3 20 -12 5 -10 13 -15 17 -10
14 14 -29 46 -77 56 -49 11 -142 13 -185 4z"/>
<path d="M2395 4810 c-4 -6 -13 -9 -21 -6 -8 3 -14 0 -14 -8 0 -23 11 -25 32
-4 11 11 17 22 15 24 -3 3 -8 0 -12 -6z"/>
<path d="M2505 4790 c4 -6 11 -8 16 -5 14 9 11 15 -7 15 -8 0 -12 -5 -9 -10z"/>
<path d="M1588 4783 c7 -3 16 -2 19 1 4 3 -2 6 -13 5 -11 0 -14 -3 -6 -6z"/>
<path d="M1790 4779 c0 -5 5 -7 10 -4 6 3 10 8 10 11 0 2 -4 4 -10 4 -5 0 -10
-5 -10 -11z"/>
<path d="M1852 4781 c-11 -6 -10 -10 4 -15 9 -3 19 -4 22 -1 3 3 0 5 -7 5 -7
0 -9 5 -6 10 7 12 4 12 -13 1z"/>
<path d="M1909 4773 c-13 -16 -12 -17 4 -4 16 13 21 21 13 21 -2 0 -10 -8 -17
-17z"/>
<path d="M2250 4770 c0 -6 7 -10 15 -10 8 0 15 2 15 4 0 2 -7 6 -15 10 -8 3
-15 1 -15 -4z"/>
<path d="M1625 4759 c-11 -17 1 -21 15 -4 8 9 8 15 2 15 -6 0 -14 -5 -17 -11z"/>
<path d="M1926 4754 c-9 -25 -2 -26 17 -4 13 16 14 20 3 20 -8 0 -17 -7 -20
-16z"/>
<path d="M1960 4744 c-13 -13 -21 -24 -17 -24 16 0 67 31 67 40 0 17 -24 10
-50 -16z"/>
<path d="M2301 4763 c-1 -7 -9 -13 -18 -13 -15 0 -16 -2 -3 -10 18 -11 35 2
27 22 -4 9 -6 10 -6 1z"/>
<path d="M1578 4753 c7 -3 16 -2 19 1 4 3 -2 6 -13 5 -11 0 -14 -3 -6 -6z"/>
<path d="M3110 4740 c0 -5 5 -10 10 -10 6 0 10 5 10 10 0 6 -4 10 -10 10 -5 0
-10 -4 -10 -10z"/>
<path d="M2245 4730 c-3 -5 1 -10 10 -10 9 0 13 5 10 10 -3 6 -8 10 -10 10 -2
0 -7 -4 -10 -10z"/>
<path d="M1251 4717 c-15 -7 -28 -26 -33 -44 -5 -18 -13 -33 -18 -33 -6 0 -10
-6 -10 -14 0 -8 -4 -16 -10 -18 -5 -1 -12 -17 -16 -33 -4 -22 0 -38 14 -55 11
-14 24 -22 28 -18 4 4 2 13 -3 20 -6 7 -9 24 -8 38 2 14 4 35 4 48 1 12 4 21
9 21 23 -4 32 4 32 27 0 19 7 28 29 35 20 7 28 15 24 25 -6 17 -11 17 -42 1z"/>
<path d="M1560 4719 c0 -5 5 -7 10 -4 6 3 10 8 10 11 0 2 -4 4 -10 4 -5 0 -10
-5 -10 -11z"/>
<path d="M1530 4709 c0 -5 5 -7 10 -4 6 3 10 8 10 11 0 2 -4 4 -10 4 -5 0 -10
-5 -10 -11z"/>
<path d="M1997 4703 c3 -6 11 -9 19 -6 20 7 17 19 -5 19 -11 0 -17 -6 -14 -13z"/>
<path d="M2216 4705 c4 -8 10 -15 15 -15 4 0 6 7 3 15 -4 8 -10 15 -15 15 -4
0 -6 -7 -3 -15z"/>
<path d="M2043 4695 c-3 -9 -3 -18 -1 -21 3 -3 8 4 11 16 6 23 -1 27 -10 5z"/>
<path d="M2080 4699 c0 -5 10 -9 22 -9 12 0 18 3 14 7 -10 11 -36 12 -36 2z"/>
<path d="M2136 4695 c4 -8 10 -15 15 -15 5 0 9 7 9 15 0 8 -7 15 -15 15 -9 0
-12 -6 -9 -15z"/>
<path d="M2323 4694 c-23 -10 -33 -11 -33 -3 0 8 -5 8 -15 -1 -8 -7 -15 -9
-15 -6 0 4 -7 0 -17 -9 -10 -11 -27 -15 -44 -13 -16 3 -30 0 -32 -5 -3 -11
-151 -12 -167 -2 -5 3 -11 1 -14 -4 -8 -13 110 -25 171 -17 26 3 57 6 68 6 10
1 24 5 30 10 7 6 25 11 41 13 16 2 30 7 31 11 1 4 10 14 20 22 22 17 17 16
-24 -2z"/>
<path d="M2180 4690 c0 -5 7 -10 15 -10 8 0 15 5 15 10 0 6 -7 10 -15 10 -8 0
-15 -4 -15 -10z"/>
<path d="M1315 4680 c-3 -5 -3 -15 0 -20 4 -6 1 -17 -5 -25 -8 -10 -9 -15 -2
-15 17 0 34 37 22 45 -6 4 -8 11 -5 16 4 5 4 9 1 9 -3 0 -8 -4 -11 -10z"/>
<path d="M3080 4640 c0 -5 5 -10 11 -10 5 0 7 5 4 10 -3 6 -8 10 -11 10 -2 0
-4 -4 -4 -10z"/>
<path d="M1546 4628 c3 -5 10 -6 15 -3 13 9 11 12 -6 12 -8 0 -12 -4 -9 -9z"/>
<path d="M2969 4631 c11 -7 11 -9 0 -13 -8 -3 -11 -9 -7 -13 4 -4 15 -2 23 5
13 11 13 15 3 21 -7 5 -17 9 -23 9 -5 0 -4 -4 4 -9z"/>
<path d="M1590 4620 c-9 -6 -10 -10 -3 -10 6 0 15 5 18 10 8 12 4 12 -15 0z"/>
<path d="M2675 4620 c-3 -5 -1 -10 4 -10 6 0 11 5 11 10 0 6 -2 10 -4 10 -3 0
-8 -4 -11 -10z"/>
<path d="M2895 4620 c-3 -5 -1 -10 4 -10 6 0 11 5 11 10 0 6 -2 10 -4 10 -3 0
-8 -4 -11 -10z"/>
<path d="M2920 4621 c0 -5 5 -13 10 -16 6 -3 10 -2 10 4 0 5 -4 13 -10 16 -5
3 -10 2 -10 -4z"/>
<path d="M3010 4620 c0 -5 7 -7 15 -4 8 4 15 8 15 10 0 2 -7 4 -15 4 -8 0 -15
-4 -15 -10z"/>
<path d="M1286 4607 c3 -10 9 -15 12 -12 3 3 0 11 -7 18 -10 9 -11 8 -5 -6z"/>
<path d="M3076 4595 c4 -8 8 -15 10 -15 2 0 4 7 4 15 0 8 -4 15 -10 15 -5 0
-7 -7 -4 -15z"/>
<path d="M2904 4572 c3 -3 0 -12 -7 -21 -11 -14 -10 -14 5 -2 15 11 23 11 48
1 16 -7 30 -18 30 -24 0 -6 4 -5 9 3 6 9 11 10 15 2 5 -8 16 -6 37 4 35 19 40
39 6 26 -15 -6 -46 -4 -86 4 -34 7 -60 10 -57 7z"/>
<path d="M1510 4540 c0 -13 18 -22 24 -11 3 5 -1 11 -9 15 -8 3 -15 1 -15 -4z"/>
<path d="M1269 4515 c-2 -18 4 -46 16 -68 24 -47 33 -30 12 21 -9 21 -18 46
-20 57 -3 15 -5 12 -8 -10z"/>
<path d="M1555 4530 c-3 -5 -1 -10 5 -10 8 0 8 -6 0 -21 -7 -11 -9 -23 -7 -26
5 -5 17 26 16 41 0 5 5 13 13 17 10 7 9 9 -4 9 -9 0 -20 -4 -23 -10z"/>
<path d="M3098 4515 c2 -14 6 -25 8 -25 2 0 4 11 4 25 0 14 -4 25 -9 25 -4 0
-6 -11 -3 -25z"/>
<path d="M1730 4510 c-8 -5 -10 -10 -5 -10 6 0 17 5 25 10 8 5 11 10 5 10 -5
0 -17 -5 -25 -10z"/>
<path d="M1595 4470 c3 -5 8 -10 11 -10 2 0 4 5 4 10 0 6 -5 10 -11 10 -5 0
-7 -4 -4 -10z"/>
<path d="M1534 4435 c0 -19 3 -32 8 -29 5 3 7 16 5 29 -5 37 -12 37 -13 0z"/>
<path d="M2003 4420 c6 -10 15 -16 19 -14 14 9 9 22 -11 27 -17 4 -18 2 -8
-13z"/>
<path d="M3091 4414 c0 -11 3 -14 6 -6 3 7 2 16 -1 19 -3 4 -6 -2 -5 -13z"/>
<path d="M2980 4400 c0 -5 5 -10 11 -10 5 0 7 5 4 10 -3 6 -8 10 -11 10 -2 0
-4 -4 -4 -10z"/>
<path d="M1520 4380 c0 -5 6 -10 13 -10 8 -1 7 -5 -4 -13 -13 -10 -13 -15 -1
-37 l14 -25 -6 24 c-3 15 1 29 10 35 12 9 11 13 -6 24 -12 7 -20 8 -20 2z"/>
<path d="M2470 4360 c0 -13 18 -22 24 -11 3 5 -1 11 -9 15 -8 3 -15 1 -15 -4z"/>
<path d="M3087 4343 c-4 -3 -7 -11 -7 -17 0 -6 5 -5 12 2 6 6 9 14 7 17 -3 3
-9 2 -12 -2z"/>
<path d="M1470 4294 c0 -19 -5 -44 -11 -55 -9 -18 -8 -19 9 -8 14 9 19 23 18
55 -1 52 -16 60 -16 8z"/>
<path d="M1760 4326 c0 -2 8 -10 18 -17 15 -13 16 -12 3 4 -13 16 -21 21 -21
13z"/>
<path d="M2350 4318 c0 -4 6 -8 14 -8 8 0 17 4 20 8 2 4 -4 8 -15 8 -10 0 -19
-4 -19 -8z"/>
<path d="M2271 4303 c-7 -8 -11 -16 -8 -19 2 -2 10 2 17 11 17 20 9 27 -9 8z"/>
<path d="M2505 4300 c-3 -5 -1 -10 4 -10 6 0 11 5 11 10 0 6 -2 10 -4 10 -3 0
-8 -4 -11 -10z"/>
<path d="M1535 4275 c-3 -8 -7 -22 -10 -31 -3 -8 -1 -13 4 -10 5 3 11 17 13
31 6 27 0 34 -7 10z"/>
<path d="M1422 4260 c0 -14 2 -19 5 -12 2 6 2 18 0 25 -3 6 -5 1 -5 -13z"/>
<path d="M1576 4265 c4 -8 8 -15 10 -15 2 0 4 7 4 15 0 8 -4 15 -10 15 -5 0
-7 -7 -4 -15z"/>
<path d="M2326 4245 c-7 -19 15 -65 40 -86 22 -18 88 -49 93 -43 3 2 -4 11
-15 18 -18 14 -18 15 6 20 69 15 110 13 132 -5 11 -11 30 -19 42 -19 21 1 21
1 1 16 -56 44 -118 54 -179 29 -49 -21 -91 2 -99 53 -4 29 -13 36 -21 17z"/>
<path d="M2088 4213 c7 -3 16 -2 19 1 4 3 -2 6 -13 5 -11 0 -14 -3 -6 -6z"/>
<path d="M2160 4199 c0 -5 5 -7 10 -4 6 3 10 8 10 11 0 2 -4 4 -10 4 -5 0 -10
-5 -10 -11z"/>
<path d="M1496 4187 c3 -10 9 -15 12 -12 3 3 0 11 -7 18 -10 9 -11 8 -5 -6z"/>
<path d="M2075 4190 c-3 -5 -1 -10 4 -10 6 0 11 5 11 10 0 6 -2 10 -4 10 -3 0
-8 -4 -11 -10z"/>
<path d="M1565 4171 c-6 -11 13 -26 22 -17 4 3 1 6 -6 6 -7 0 -9 5 -6 10 3 6
4 10 1 10 -3 0 -7 -4 -11 -9z"/>
<path d="M1345 4010 c5 -146 22 -258 50 -316 8 -18 12 -40 9 -51 -4 -13 -3
-15 4 -4 7 10 15 4 33 -28 12 -23 26 -41 31 -41 9 0 8 1 -40 96 -38 75 -63
169 -63 232 1 77 -9 198 -20 228 -6 20 -7 -18 -4 -116z"/>
<path d="M2200 4130 c0 -5 5 -10 10 -10 6 0 10 5 10 10 0 6 -4 10 -10 10 -5 0
-10 -4 -10 -10z"/>
<path d="M1445 4119 c-4 -6 -5 -12 -2 -15 2 -3 7 2 10 11 7 17 1 20 -8 4z"/>
<path d="M1550 4099 c0 -11 5 -17 10 -14 6 3 10 13 10 21 0 8 -4 14 -10 14 -5
0 -10 -9 -10 -21z"/>
<path d="M1610 4114 c0 -13 18 -39 24 -34 2 3 -2 14 -10 24 -8 11 -14 16 -14
10z"/>
<path d="M2310 4101 c0 -5 5 -13 10 -16 6 -3 10 -2 10 4 0 5 -4 13 -10 16 -5
3 -10 2 -10 -4z"/>
<path d="M1526 4075 c4 -8 8 -15 10 -15 2 0 4 7 4 15 0 8 -4 15 -10 15 -5 0
-7 -7 -4 -15z"/>
<path d="M1888 4083 c7 -3 16 -2 19 1 4 3 -2 6 -13 5 -11 0 -14 -3 -6 -6z"/>
<path d="M1720 4070 c-9 -6 -10 -10 -3 -10 6 0 15 5 18 10 8 12 4 12 -15 0z"/>
<path d="M2570 4065 c10 -12 9 -21 -3 -48 -17 -34 -19 -77 -4 -77 11 0 33 55
42 103 7 35 6 37 -20 37 -23 0 -26 -2 -15 -15z"/>
<path d="M2980 4071 c0 -6 4 -13 10 -16 6 -3 7 1 4 9 -7 18 -14 21 -14 7z"/>
<path d="M1481 4065 c1 -19 18 -51 18 -35 0 8 -4 22 -9 30 -5 8 -9 11 -9 5z"/>
<path d="M1560 4055 c-11 -13 -10 -14 4 -9 9 3 16 10 16 15 0 13 -6 11 -20 -6z"/>
<path d="M1596 4057 c3 -10 9 -15 12 -12 3 3 0 11 -7 18 -10 9 -11 8 -5 -6z"/>
<path d="M1649 4053 c-13 -16 -12 -17 4 -4 9 7 17 15 17 17 0 8 -8 3 -21 -13z"/>
<path d="M2150 4066 c0 -2 8 -10 18 -17 15 -13 16 -12 3 4 -13 16 -21 21 -21
13z"/>
<path d="M2015 4050 c3 -5 8 -10 11 -10 2 0 4 5 4 10 0 6 -5 10 -11 10 -5 0
-7 -4 -4 -10z"/>
<path d="M2220 4050 c0 -5 5 -10 11 -10 5 0 7 5 4 10 -3 6 -8 10 -11 10 -2 0
-4 -4 -4 -10z"/>
<path d="M1976 4041 c-3 -5 1 -11 9 -15 8 -3 15 -1 15 4 0 13 -18 22 -24 11z"/>
<path d="M2279 4037 c6 -8 9 -17 6 -21 -3 -3 0 -2 6 3 12 10 4 31 -13 31 -7 0
-7 -4 1 -13z"/>
<path d="M1575 4030 c3 -5 11 -10 16 -10 6 0 7 5 4 10 -3 6 -11 10 -16 10 -6
0 -7 -4 -4 -10z"/>
<path d="M2360 4030 c20 -13 33 -13 25 0 -3 6 -14 10 -23 10 -15 0 -15 -2 -2
-10z"/>
<path d="M1685 4020 c3 -5 8 -10 11 -10 2 0 4 5 4 10 0 6 -5 10 -11 10 -5 0
-7 -4 -4 -10z"/>
<path d="M1933 4023 c-17 -6 -17 -33 0 -33 7 0 13 9 13 20 0 11 0 20 -1 19 0
0 -6 -3 -12 -6z"/>
<path d="M2126 4017 c3 -10 9 -15 12 -12 3 3 0 11 -7 18 -10 9 -11 8 -5 -6z"/>
<path d="M2238 4023 c6 -2 9 -10 6 -15 -4 -7 -2 -8 5 -4 13 9 5 26 -12 25 -9
0 -8 -2 1 -6z"/>
<path d="M2415 4020 c-3 -5 -1 -10 4 -10 6 0 11 5 11 10 0 6 -2 10 -4 10 -3 0
-8 -4 -11 -10z"/>
<path d="M2307 3999 c7 -7 15 -10 18 -7 3 3 -2 9 -12 12 -14 6 -15 5 -6 -5z"/>
<path d="M2751 3974 c0 -11 3 -14 6 -6 3 7 2 16 -1 19 -3 4 -6 -2 -5 -13z"/>
<path d="M2115 3970 c3 -5 8 -10 11 -10 2 0 4 5 4 10 0 6 -5 10 -11 10 -5 0
-7 -4 -4 -10z"/>
<path d="M2196 3971 c-3 -5 1 -11 9 -14 9 -4 12 -1 8 9 -6 16 -10 17 -17 5z"/>
<path d="M1605 3960 c-4 -6 -10 -8 -15 -5 -5 3 -11 1 -14 -4 -8 -13 22 -7 36
7 7 7 9 12 6 12 -4 0 -10 -5 -13 -10z"/>
<path d="M2967 3939 c-9 -17 -21 -27 -27 -24 -6 4 -17 -9 -25 -29 -18 -43 -18
-47 -2 -43 16 3 57 49 55 62 -1 5 4 21 11 33 7 13 11 25 9 27 -2 2 -11 -10
-21 -26z"/>
<path d="M1625 3950 c-3 -5 -1 -10 4 -10 6 0 11 5 11 10 0 6 -2 10 -4 10 -3 0
-8 -4 -11 -10z"/>
<path d="M1853 3945 c0 -8 4 -12 8 -9 4 2 10 0 14 -6 3 -5 11 -10 17 -10 7 0
2 9 -10 20 -25 24 -29 24 -29 5z"/>
<path d="M2070 3950 c-8 -5 -10 -10 -5 -10 6 0 17 5 25 10 8 5 11 10 5 10 -5
0 -17 -5 -25 -10z"/>
<path d="M1684 3942 c4 -7 1 -12 -8 -12 -8 0 -17 -4 -20 -9 -4 -5 3 -7 14 -4
26 7 34 19 19 29 -8 4 -9 3 -5 -4z"/>
<path d="M2586 3925 c4 -8 10 -12 15 -9 14 8 10 24 -6 24 -9 0 -12 -6 -9 -15z"/>
<path d="M1550 3919 c0 -5 5 -7 10 -4 6 3 10 8 10 11 0 2 -4 4 -10 4 -5 0 -10
-5 -10 -11z"/>
<path d="M3037 3906 c-4 -10 -1 -13 8 -9 8 3 12 9 9 14 -7 12 -11 11 -17 -5z"/>
<path d="M2350 3900 c-30 -4 -90 -15 -133 -24 -50 -10 -85 -13 -95 -7 -9 5
-33 12 -53 15 -20 3 -44 8 -55 12 -16 5 -16 4 -4 -5 13 -10 13 -12 0 -21 -12
-8 -10 -10 10 -11 35 -1 56 -4 120 -17 30 -6 89 -14 130 -17 41 -4 113 -13
160 -22 104 -19 310 -27 310 -12 0 6 9 7 21 4 15 -5 19 -4 15 4 -4 6 -21 11
-38 11 -24 0 -29 3 -24 17 6 15 5 16 -11 1 -24 -21 -59 -31 -84 -23 -19 6 -20
7 -2 20 10 7 22 11 28 8 5 -3 5 0 -2 7 -9 10 -15 10 -28 -4 -23 -22 -59 -30
-108 -22 -23 4 -51 7 -61 7 -10 0 -43 6 -73 14 -30 8 -58 14 -61 14 -4 -1 -29
0 -57 1 -46 2 -48 2 -20 11 84 25 303 31 330 9 8 -6 19 -8 26 -4 8 5 3 12 -15
21 -32 17 -150 24 -226 13z"/>
<path d="M1515 3885 c4 -11 8 -25 8 -32 0 -6 7 -9 15 -6 7 3 10 9 4 12 -5 3
-14 15 -21 26 -13 20 -13 20 -6 0z"/>
<path d="M1940 3889 c0 -5 5 -7 10 -4 6 3 10 8 10 11 0 2 -4 4 -10 4 -5 0 -10
-5 -10 -11z"/>
<path d="M1970 3884 c0 -8 5 -12 10 -9 6 4 8 11 5 16 -9 14 -15 11 -15 -7z"/>
<path d="M2668 3883 c-22 -6 -23 -29 -2 -37 8 -3 12 -2 9 4 -8 12 34 22 75 18
23 -2 35 2 38 12 4 13 3 13 -10 2 -11 -9 -18 -10 -23 -2 -6 10 -54 12 -87 3z"/>
<path d="M1595 3870 c-3 -6 1 -7 9 -4 18 7 21 14 7 14 -6 0 -13 -4 -16 -10z"/>
<path d="M1650 3859 c0 -11 5 -17 10 -14 6 3 10 13 10 21 0 8 -4 14 -10 14 -5
0 -10 -9 -10 -21z"/>
<path d="M1896 3865 c4 -8 10 -12 15 -9 14 8 10 24 -6 24 -9 0 -12 -6 -9 -15z"/>
<path d="M2620 3870 c0 -5 5 -10 10 -10 6 0 10 5 10 10 0 6 -4 10 -10 10 -5 0
-10 -4 -10 -10z"/>
<path d="M3030 3845 c0 -8 -4 -15 -10 -15 -5 0 -10 -6 -10 -13 0 -7 -9 -30
-20 -52 -22 -44 -24 -55 -10 -55 6 0 10 4 10 9 0 7 29 74 58 134 2 4 -1 7 -7
7 -6 0 -11 -7 -11 -15z"/>
<path d="M1718 3843 c7 -3 16 -2 19 1 4 3 -2 6 -13 5 -11 0 -14 -3 -6 -6z"/>
<path d="M1673 3828 c4 -12 1 -18 -8 -18 -7 0 -16 -4 -19 -8 -2 -4 8 -8 24 -7
25 0 27 2 18 20 -14 27 -23 34 -15 13z"/>
<path d="M1542 3810 c7 -10 14 -18 15 -16 6 6 -9 36 -18 36 -5 0 -4 -9 3 -20z"/>
<path d="M1715 3820 c-3 -5 -1 -10 4 -10 6 0 11 5 11 10 0 6 -2 10 -4 10 -3 0
-8 -4 -11 -10z"/>
<path d="M1750 3821 c0 -6 4 -13 10 -16 6 -3 7 1 4 9 -7 18 -14 21 -14 7z"/>
<path d="M1775 3820 c3 -5 8 -10 11 -10 2 0 4 5 4 10 0 6 -5 10 -11 10 -5 0
-7 -4 -4 -10z"/>
<path d="M1946 3818 c3 -4 9 -8 15 -8 5 0 9 4 9 8 0 5 -7 9 -15 9 -8 0 -12 -4
-9 -9z"/>
<path d="M2800 3820 c-9 -6 -10 -10 -3 -10 6 0 15 5 18 10 8 12 4 12 -15 0z"/>
<path d="M1880 3810 c0 -5 5 -10 10 -10 6 0 10 5 10 10 0 6 -4 10 -10 10 -5 0
-10 -4 -10 -10z"/>
<path d="M2895 3800 c-3 -5 -1 -10 4 -10 6 0 11 5 11 10 0 6 -2 10 -4 10 -3 0
-8 -4 -11 -10z"/>
<path d="M1955 3780 c-10 -11 -22 -17 -26 -14 -10 6 -12 -10 -2 -19 5 -6 53
37 53 49 0 8 -7 4 -25 -16z"/>
<path d="M2217 3783 c5 -12 3 -14 -8 -9 -21 11 53 -54 76 -66 18 -10 18 -9 7
4 -10 13 -10 17 0 21 7 2 -2 7 -20 11 -22 5 -36 16 -42 32 -5 13 -12 24 -14
24 -3 0 -2 -7 1 -17z"/>
<path d="M1710 3777 c0 -9 5 -17 11 -17 5 0 8 -4 4 -9 -3 -5 -1 -12 5 -16 15
-9 12 17 -5 39 -13 17 -15 18 -15 3z"/>
<path d="M1895 3770 c-3 -5 -1 -10 4 -10 6 0 11 5 11 10 0 6 -2 10 -4 10 -3 0
-8 -4 -11 -10z"/>
<path d="M2315 3770 c-3 -5 -1 -10 4 -10 6 0 11 5 11 10 0 6 -2 10 -4 10 -3 0
-8 -4 -11 -10z"/>
<path d="M2360 3766 c0 -7 8 -16 18 -18 12 -4 18 1 18 13 0 12 -7 19 -18 19
-10 0 -18 -6 -18 -14z"/>
<path d="M2876 3771 c-4 -7 -5 -15 -2 -18 9 -9 19 4 14 18 -4 11 -6 11 -12 0z"/>
<path d="M2467 3750 c6 -8 13 -28 15 -45 3 -29 4 -29 9 7 3 21 3 35 0 33 -2
-3 -11 1 -20 8 -14 10 -14 10 -4 -3z"/>
<path d="M2563 3753 c-7 -3 -13 -14 -12 -26 0 -22 0 -22 9 1 13 31 17 28 13
-10 l-3 -33 10 30 c10 31 3 46 -17 38z"/>
<path d="M2796 3745 c-3 -9 -6 -26 -5 -38 1 -16 4 -12 10 12 10 34 6 55 -5 26z"/>
<path d="M2744 3716 c-5 -17 -13 -31 -19 -32 -23 -2 -58 -21 -48 -27 14 -9 74
24 89 48 10 16 10 22 0 31 -10 9 -15 4 -22 -20z"/>
<path d="M1771 3724 c0 -11 3 -14 6 -6 3 7 2 16 -1 19 -3 4 -6 -2 -5 -13z"/>
<path d="M1990 3730 c-9 -6 -10 -10 -3 -10 6 0 15 5 18 10 8 12 4 12 -15 0z"/>
<path d="M2023 3727 c0 -20 24 -30 33 -14 4 7 4 9 -1 5 -4 -4 -13 0 -20 8 -11
15 -12 15 -12 1z"/>
<path d="M2618 3723 c-2 -10 -1 -29 3 -43 6 -20 7 -17 8 18 1 44 -4 54 -11 25z"/>
<path d="M1586 3713 c-6 -14 -5 -15 5 -6 7 7 10 15 7 18 -3 3 -9 -2 -12 -12z"/>
<path d="M1650 3720 c0 -5 5 -10 11 -10 5 0 7 5 4 10 -3 6 -8 10 -11 10 -2 0
-4 -4 -4 -10z"/>
<path d="M1864 3719 c-5 -9 -2 -10 9 -6 9 3 18 2 21 -4 2 -5 3 -4 2 3 -3 17
-23 21 -32 7z"/>
<path d="M2340 3720 c0 -5 5 -10 11 -10 5 0 7 5 4 10 -3 6 -8 10 -11 10 -2 0
-4 -4 -4 -10z"/>
<path d="M2516 3721 c-4 -6 -4 -15 -1 -21 3 -5 2 -10 -4 -10 -6 0 -8 -7 -5
-15 7 -18 20 -12 27 14 6 23 -7 48 -17 32z"/>
<path d="M1820 3692 c0 -28 2 -27 18 4 9 16 8 21 -4 21 -8 0 -14 -10 -14 -25z"/>
<path d="M1918 3701 c-10 -13 -10 -14 1 -4 7 6 20 9 27 6 8 -3 14 -1 14 4 0
15 -29 11 -42 -6z"/>
<path d="M2366 3703 c-4 -9 -4 -18 -1 -21 3 -3 5 0 5 6 0 6 8 12 18 14 15 3
16 4 0 10 -10 4 -19 1 -22 -9z"/>
<path d="M2641 3704 c0 -11 3 -14 6 -6 3 7 2 16 -1 19 -3 4 -6 -2 -5 -13z"/>
<path d="M1618 3703 c7 -3 16 -2 19 1 4 3 -2 6 -13 5 -11 0 -14 -3 -6 -6z"/>
<path d="M1756 3697 c3 -10 9 -15 12 -12 3 3 0 11 -7 18 -10 9 -11 8 -5 -6z"/>
<path d="M1980 3700 c0 -5 5 -10 10 -10 6 0 10 5 10 10 0 6 -4 10 -10 10 -5 0
-10 -4 -10 -10z"/>
<path d="M1856 3685 c-3 -8 -1 -15 4 -15 6 0 10 7 10 15 0 8 -2 15 -4 15 -2 0
-6 -7 -10 -15z"/>
<path d="M2335 3680 c3 -5 8 -10 11 -10 2 0 4 5 4 10 0 6 -5 10 -11 10 -5 0
-7 -4 -4 -10z"/>
<path d="M2551 3674 c0 -11 3 -14 6 -6 3 7 2 16 -1 19 -3 4 -6 -2 -5 -13z"/>
<path d="M1590 3666 c0 -3 9 -10 19 -15 14 -8 22 -7 32 7 11 14 11 15 -1 5 -9
-8 -19 -9 -32 -2 -10 5 -18 7 -18 5z"/>
<path d="M1946 3658 c5 -8 0 -9 -14 -6 -12 4 -20 2 -16 -3 9 -14 41 -10 48 6
3 9 0 15 -10 15 -9 0 -12 -5 -8 -12z"/>
<path d="M2075 3661 c-3 -5 -1 -12 5 -16 5 -3 10 1 10 9 0 18 -6 21 -15 7z"/>
<path d="M2213 3660 c-13 -5 -23 -12 -23 -15 0 -9 16 -5 36 10 22 16 19 18
-13 5z"/>
<path d="M2419 3659 c19 -6 37 -7 42 -2 5 5 -9 10 -33 10 l-43 2 34 -10z"/>
<path d="M1980 3642 c0 -5 7 -9 15 -9 8 0 12 4 9 9 -3 4 -9 8 -15 8 -5 0 -9
-4 -9 -8z"/>
<path d="M2245 3640 c-3 -5 -1 -10 4 -10 6 0 11 5 11 10 0 6 -2 10 -4 10 -3 0
-8 -4 -11 -10z"/>
<path d="M2291 3633 c-1 -20 4 -22 35 -21 25 1 41 -4 50 -17 8 -10 17 -16 20
-12 9 8 44 -11 44 -24 0 -6 -5 -7 -10 -4 -7 4 -10 -4 -7 -22 3 -25 7 -28 43
-28 36 0 39 2 41 30 3 30 3 30 -8 5 -10 -23 -12 -24 -18 -6 -7 18 -8 18 -25
-5 l-18 -24 6 25 c3 14 6 31 6 38 0 7 4 10 10 7 5 -3 7 0 4 9 -4 10 0 14 15
13 12 -1 21 -8 21 -16 0 -11 4 -10 14 4 11 16 17 17 29 7 12 -10 16 -10 19 0
4 10 8 10 21 -1 10 -7 17 -9 17 -3 0 5 14 12 30 14 17 3 30 0 30 -4 0 -5 7 -3
15 6 21 21 19 29 -6 21 -12 -4 -73 -7 -135 -7 -62 1 -116 -3 -119 -8 -7 -11
-29 -7 -49 9 -9 7 -27 11 -40 9 -17 -4 -26 0 -29 11 -3 10 -5 8 -6 -6z"/>
<path d="M2021 3624 c0 -11 3 -14 6 -6 3 7 2 16 -1 19 -3 4 -6 -2 -5 -13z"/>
<path d="M2146 3629 c2 -4 13 -7 24 -6 23 2 17 10 -10 12 -10 1 -17 -2 -14 -6z"/>
<path d="M1500 3626 c0 -2 8 -10 18 -17 15 -13 16 -12 3 4 -13 16 -21 21 -21
13z"/>
<path d="M1573 3623 c9 -2 23 -2 30 0 6 3 -1 5 -18 5 -16 0 -22 -2 -12 -5z"/>
<path d="M1620 3620 c0 -5 5 -10 11 -10 5 0 7 5 4 10 -3 6 -8 10 -11 10 -2 0
-4 -4 -4 -10z"/>
<path d="M2706 3614 c-5 -14 -4 -15 9 -4 17 14 19 20 6 20 -5 0 -12 -7 -15
-16z"/>
<path d="M1486 3588 c4 -13 8 -30 8 -38 0 -17 36 -22 36 -6 0 5 3 7 6 4 3 -4
1 -16 -6 -27 -9 -17 -8 -21 5 -21 8 0 15 -5 15 -12 0 -9 3 -9 11 -1 15 15 -3
63 -32 89 -19 17 -20 17 -14 -2 4 -10 -1 -7 -10 9 -19 33 -29 35 -19 5z"/>
<path d="M1667 3599 c7 -7 15 -10 18 -7 3 3 -2 9 -12 12 -14 6 -15 5 -6 -5z"/>
<path d="M1810 3600 c0 -5 5 -10 11 -10 5 0 7 5 4 10 -3 6 -8 10 -11 10 -2 0
-4 -4 -4 -10z"/>
<path d="M1956 3602 c-3 -5 1 -9 9 -9 8 0 15 4 15 9 0 4 -4 8 -9 8 -6 0 -12
-4 -15 -8z"/>
<path d="M1897 3589 c7 -7 15 -10 18 -7 3 3 -2 9 -12 12 -14 6 -15 5 -6 -5z"/>
<path d="M1650 3581 c0 -6 4 -13 10 -16 6 -3 7 1 4 9 -7 18 -14 21 -14 7z"/>
<path d="M1587 3560 c10 -11 19 -20 21 -20 1 0 -2 9 -8 20 -6 11 -15 20 -20
20 -6 0 -2 -9 7 -20z"/>
<path d="M1950 3573 c8 -3 7 -9 -1 -19 -10 -12 -9 -13 5 -8 18 7 17 26 -2 30
-7 1 -8 0 -2 -3z"/>
<path d="M2138 3573 c7 -3 16 -2 19 1 4 3 -2 6 -13 5 -11 0 -14 -3 -6 -6z"/>
<path d="M2210 3570 c-9 -6 -10 -10 -3 -10 6 0 15 5 18 10 8 12 4 12 -15 0z"/>
<path d="M2395 3559 c-4 -12 -2 -26 5 -33 10 -8 12 -7 7 5 -3 9 -1 21 5 27 6
6 6 12 0 16 -6 3 -14 -3 -17 -15z"/>
<path d="M2651 3564 c0 -11 3 -14 6 -6 3 7 2 16 -1 19 -3 4 -6 -2 -5 -13z"/>
<path d="M2546 3555 c-11 -8 -16 -15 -10 -15 5 0 4 -4 -2 -8 -7 -5 -3 -15 13
-30 l23 -23 0 23 1 23 21 -25 c12 -14 19 -18 15 -9 -4 11 0 16 11 15 11 -1 18
8 20 24 2 14 1 22 -4 18 -4 -4 -13 0 -21 10 -13 15 -14 14 -9 -13 6 -27 5 -28
-8 -12 -9 12 -16 14 -21 8 -3 -6 -11 -11 -17 -11 -6 0 -3 9 7 20 21 23 9 26
-19 5z"/>
<path d="M1755 3550 c3 -5 8 -10 11 -10 2 0 4 5 4 10 0 6 -5 10 -11 10 -5 0
-7 -4 -4 -10z"/>
<path d="M1985 3550 c3 -5 8 -10 11 -10 2 0 4 5 4 10 0 6 -5 10 -11 10 -5 0
-7 -4 -4 -10z"/>
<path d="M2025 3550 c-3 -5 -1 -10 4 -10 6 0 11 5 11 10 0 6 -2 10 -4 10 -3 0
-8 -4 -11 -10z"/>
<path d="M2150 3549 c0 -5 5 -7 10 -4 6 3 10 8 10 11 0 2 -4 4 -10 4 -5 0 -10
-5 -10 -11z"/>
<path d="M1865 3543 c11 -3 23 -10 27 -17 5 -7 8 -5 8 7 0 12 -7 17 -27 16
-22 -1 -23 -2 -8 -6z"/>
<path d="M2213 3525 c-8 -22 5 -31 20 -15 9 10 9 11 0 6 -7 -4 -13 -3 -13 3 0
5 6 12 13 14 9 4 9 6 -1 6 -7 1 -15 -6 -19 -14z"/>
<path d="M1820 3521 c0 -5 7 -12 16 -15 9 -4 14 -13 10 -21 -3 -8 -1 -15 4
-15 15 0 12 29 -4 46 -17 16 -26 18 -26 5z"/>
<path d="M1173 3500 c-1 -11 2 -18 8 -15 11 7 12 35 1 35 -4 0 -8 -9 -9 -20z"/>
<path d="M2295 3510 c-3 -5 -1 -10 4 -10 6 0 11 5 11 10 0 6 -2 10 -4 10 -3 0
-8 -4 -11 -10z"/>
<path d="M1998 3503 c7 -3 16 -2 19 1 4 3 -2 6 -13 5 -11 0 -14 -3 -6 -6z"/>
<path d="M2145 3500 c3 -5 14 -10 23 -10 15 0 15 2 2 10 -20 13 -33 13 -25 0z"/>
<path d="M2260 3496 c0 -8 -6 -16 -12 -19 -7 -2 -10 -7 -7 -11 3 -3 14 2 23
13 11 12 14 21 7 26 -6 3 -11 0 -11 -9z"/>
<path d="M1574 3486 c-6 -16 19 -49 30 -39 3 4 6 -1 6 -11 0 -9 5 -14 10 -11
6 3 10 0 10 -7 0 -14 34 -43 83 -70 17 -10 25 -18 17 -18 -11 0 -11 -3 -2 -12
10 -10 15 -10 22 2 8 12 10 12 15 -3 6 -13 11 -15 28 -6 19 11 19 12 -10 24
-17 7 -35 26 -43 44 -16 39 -24 35 -10 -5 9 -26 9 -27 -4 -11 -8 10 -17 18
-20 18 -19 -2 -29 0 -23 5 6 7 -4 20 -45 62 -49 50 -58 55 -64 38z"/>
<path d="M1971 3479 c0 -9 9 -24 21 -35 14 -12 18 -13 10 -3 -6 9 -8 20 -4 24
4 5 2 5 -5 1 -6 -3 -13 1 -16 11 -4 15 -5 15 -6 2z"/>
<path d="M1760 3470 c0 -5 5 -10 11 -10 5 0 7 5 4 10 -3 6 -8 10 -11 10 -2 0
-4 -4 -4 -10z"/>
<path d="M1814 3458 c3 -10 1 -18 -4 -18 -6 0 -10 -4 -10 -10 0 -5 4 -10 9
-10 14 0 20 26 9 41 -8 11 -9 10 -4 -3z"/>
<path d="M2186 3462 c-3 -5 1 -9 9 -9 8 0 12 4 9 9 -3 4 -7 8 -9 8 -2 0 -6 -4
-9 -8z"/>
<path d="M1875 3451 c-3 -5 -2 -12 3 -15 5 -3 9 1 9 9 0 17 -3 19 -12 6z"/>
<path d="M1917 3449 c7 -7 15 -10 18 -7 3 3 -2 9 -12 12 -14 6 -15 5 -6 -5z"/>
<path d="M2726 3427 c5 -29 3 -37 -7 -35 -9 2 -17 -12 -23 -39 -9 -39 -36 -69
-36 -40 0 8 -4 7 -10 -3 -12 -20 10 -33 29 -17 12 10 14 9 8 -6 -4 -11 -3 -16
3 -12 6 4 10 12 9 18 -3 17 12 48 33 69 9 9 15 24 12 33 -4 8 -1 15 5 15 6 0
11 9 11 20 0 11 -4 20 -10 20 -5 0 -7 -7 -4 -15 10 -24 -6 -17 -16 8 -8 17 -8
13 -4 -16z"/>
<path d="M1945 3429 c-4 -6 -5 -12 -2 -15 2 -3 7 2 10 11 7 17 1 20 -8 4z"/>
<path d="M2165 3430 c-2 -3 5 -6 15 -7 11 -1 22 2 24 5 3 4 -4 8 -15 8 -11 0
-22 -3 -24 -6z"/>
<path d="M2556 3431 c-3 -5 1 -14 9 -21 12 -10 15 -10 15 3 0 19 -16 31 -24
18z"/>
<path d="M2630 3436 c0 -2 7 -9 15 -16 13 -11 14 -10 9 4 -5 14 -24 23 -24 12z"/>
<path d="M2803 3391 c-1 -33 0 -41 7 -26 11 25 12 62 3 68 -5 3 -9 -16 -10
-42z"/>
<path d="M1965 3420 c-3 -5 -1 -10 4 -10 6 0 11 5 11 10 0 6 -2 10 -4 10 -3 0
-8 -4 -11 -10z"/>
<path d="M2601 3417 c-14 -18 -4 -27 28 -27 19 0 22 3 12 9 -8 5 -21 6 -30 3
-14 -5 -14 -3 -2 11 7 9 11 17 8 17 -2 0 -10 -6 -16 -13z"/>
<path d="M1850 3406 c0 -9 4 -15 9 -11 5 3 12 1 16 -5 3 -5 11 -10 17 -10 6 0
8 3 5 7 -4 3 0 11 9 17 13 10 13 12 -5 12 -11 0 -17 -4 -15 -8 8 -12 -11 -9
-24 4 -9 9 -12 8 -12 -6z"/>
<path d="M2020 3411 c0 -6 5 -13 10 -16 6 -4 8 -16 5 -28 -5 -18 -4 -19 4 -6
11 17 4 59 -10 59 -5 0 -9 -4 -9 -9z"/>
<path d="M2126 3395 c-9 -14 -13 -25 -9 -25 10 0 36 40 30 46 -2 3 -12 -7 -21
-21z"/>
<path d="M2207 3405 c-4 -8 -1 -17 5 -21 7 -4 8 -3 4 4 -4 7 -2 12 3 12 6 0
11 5 11 10 0 15 -17 12 -23 -5z"/>
<path d="M2250 3406 c0 -2 7 -7 16 -10 8 -3 12 -2 9 4 -6 10 -25 14 -25 6z"/>
<path d="M1992 3380 c-7 -11 -8 -20 -3 -20 9 0 24 30 18 36 -1 2 -8 -6 -15
-16z"/>
<path d="M2177 3393 c-4 -3 -7 -11 -7 -17 0 -6 5 -5 12 2 6 6 9 14 7 17 -3 3
-9 2 -12 -2z"/>
<path d="M2453 3383 c4 -3 1 -13 -5 -22 -8 -10 -3 -8 12 4 14 11 27 21 29 22
2 2 -6 3 -19 3 -13 0 -20 -3 -17 -7z"/>
<path d="M2320 3364 c0 -8 5 -12 10 -9 6 4 8 11 5 16 -9 14 -15 11 -15 -7z"/>
<path d="M2556 3353 c-6 -14 -5 -15 5 -6 7 7 10 15 7 18 -3 3 -9 -2 -12 -12z"/>
<path d="M1540 3352 c0 -5 7 -16 16 -23 14 -12 16 -11 13 5 -4 20 -29 35 -29
18z"/>
<path d="M2000 3350 c-9 -6 -10 -10 -3 -10 6 0 15 5 18 10 8 12 4 12 -15 0z"/>
<path d="M2212 3351 c-11 -7 -10 -9 3 -14 9 -4 14 -3 10 2 -3 5 1 12 7 14 7 3
9 6 3 6 -5 0 -16 -3 -23 -8z"/>
<path d="M2251 3343 c-7 -8 -11 -16 -8 -19 2 -2 10 2 17 11 17 20 9 27 -9 8z"/>
<path d="M2283 3344 c0 -8 3 -12 6 -9 3 3 11 -5 19 -17 9 -15 11 -17 8 -5 -3
10 -6 22 -6 27 0 4 -6 10 -13 13 -8 3 -14 -1 -14 -9z"/>
<path d="M2632 3344 c-7 -8 -8 -14 -3 -14 10 0 25 19 20 25 -2 1 -10 -3 -17
-11z"/>
<path d="M2404 3324 c4 -9 1 -24 -6 -33 -8 -10 -5 -9 10 3 17 15 19 22 11 33
-15 18 -22 16 -15 -3z"/>
<path d="M2490 3330 c-9 -6 -10 -10 -3 -10 6 0 15 5 18 10 8 12 4 12 -15 0z"/>
<path d="M1817 3306 c-15 -22 -15 -24 1 -19 10 2 18 13 18 24 0 24 0 24 -19
-5z"/>
<path d="M2000 3321 c0 -7 -4 -9 -10 -6 -5 3 -10 2 -10 -4 0 -5 4 -12 9 -15
10 -6 25 24 16 32 -3 3 -5 0 -5 -7z"/>
<path d="M2050 3321 c0 -6 4 -13 10 -16 6 -3 7 1 4 9 -7 18 -14 21 -14 7z"/>
<path d="M2155 3320 c3 -5 14 -14 24 -19 13 -7 18 -6 18 4 0 7 -6 11 -14 8 -7
-3 -13 0 -13 6 0 6 -5 11 -11 11 -5 0 -7 -4 -4 -10z"/>
<path d="M2523 3323 c-7 -2 -13 -9 -13 -15 0 -6 6 -6 15 2 8 6 20 8 26 4 8 -4
9 -3 5 4 -8 13 -13 14 -33 5z"/>
<path d="M2475 3300 c-3 -5 -1 -10 4 -10 6 0 11 5 11 10 0 6 -2 10 -4 10 -3 0
-8 -4 -11 -10z"/>
<path d="M2567 3303 c-4 -3 -7 -13 -7 -22 0 -13 2 -13 9 -2 5 8 14 10 21 6 8
-5 11 -4 6 3 -3 5 0 13 6 15 7 3 4 6 -8 6 -11 1 -24 -2 -27 -6z"/>
<path d="M2025 3291 c-3 -5 -1 -12 5 -16 5 -3 10 1 10 9 0 18 -6 21 -15 7z"/>
<path d="M2753 3292 c-7 -4 -9 -13 -4 -21 6 -9 10 -7 14 8 3 12 4 21 4 21 -1
0 -7 -4 -14 -8z"/>
<path d="M2060 3276 c0 -8 5 -18 10 -21 6 -4 7 -12 4 -18 -4 -7 -3 -8 1 -4 14
12 14 31 -1 45 -12 10 -14 10 -14 -2z"/>
<path d="M1530 3270 c0 -5 5 -10 10 -10 6 0 10 5 10 10 0 6 -4 10 -10 10 -5 0
-10 -4 -10 -10z"/>
<path d="M1690 3270 c0 -5 5 -10 11 -10 5 0 7 5 4 10 -3 6 -8 10 -11 10 -2 0
-4 -4 -4 -10z"/>
<path d="M1740 3269 c0 -5 5 -7 10 -4 6 3 10 8 10 11 0 2 -4 4 -10 4 -5 0 -10
-5 -10 -11z"/>
<path d="M1841 3277 c2 -1 13 -9 24 -17 19 -14 19 -14 6 3 -7 9 -18 17 -24 17
-6 0 -8 -1 -6 -3z"/>
<path d="M2316 3272 c-2 -4 4 -8 14 -8 10 0 16 4 14 8 -3 4 -9 8 -14 8 -5 0
-11 -4 -14 -8z"/>
<path d="M2405 3270 c-19 -8 -19 -9 2 -9 12 -1 25 4 28 9 7 12 -2 12 -30 0z"/>
<path d="M2458 3273 c6 -2 18 -2 25 0 6 3 1 5 -13 5 -14 0 -19 -2 -12 -5z"/>
<path d="M1890 3259 c0 -5 7 -9 15 -9 8 0 15 -7 15 -16 0 -8 5 -12 10 -9 14 9
-3 38 -24 41 -9 1 -16 -2 -16 -7z"/>
<path d="M2275 3260 c9 -14 11 -19 14 -39 0 -5 9 -12 18 -15 16 -6 16 -6 0 12
-9 10 -15 21 -12 24 3 3 -2 11 -12 19 -15 12 -16 12 -8 -1z"/>
<path d="M2624 3245 c-11 -12 -26 -20 -34 -17 -13 5 -13 3 -1 -11 11 -13 11
-17 1 -17 -8 0 -10 -3 -7 -6 4 -4 24 9 46 29 24 22 35 37 27 40 -7 3 -21 -5
-32 -18z"/>
<path d="M1955 3230 c-3 -6 1 -7 9 -4 18 7 21 14 7 14 -6 0 -13 -4 -16 -10z"/>
<path d="M2445 3230 c-4 -6 -11 -7 -17 -4 -7 4 -8 2 -4 -5 6 -9 11 -9 22 0 14
11 18 19 10 19 -3 0 -8 -5 -11 -10z"/>
<path d="M2506 3224 c-9 -8 -16 -21 -16 -27 0 -7 7 -3 15 7 8 11 21 23 27 28
9 5 10 8 1 8 -6 0 -19 -7 -27 -16z"/>
<path d="M2245 3200 c-9 -16 -12 -30 -7 -30 4 0 13 14 19 30 6 17 10 30 7 30
-2 0 -10 -13 -19 -30z"/>
<path d="M1735 3210 c3 -5 8 -10 11 -10 2 0 4 5 4 10 0 6 -5 10 -11 10 -5 0
-7 -4 -4 -10z"/>
<path d="M1990 3214 c0 -3 7 -12 15 -20 13 -13 15 -13 15 -1 0 8 -7 17 -15 21
-8 3 -15 3 -15 0z"/>
<path d="M2080 3216 c0 -2 7 -7 16 -10 8 -3 12 -2 9 4 -6 10 -25 14 -25 6z"/>
<path d="M2208 3213 c6 -2 18 -2 25 0 6 3 1 5 -13 5 -14 0 -19 -2 -12 -5z"/>
<path d="M2460 3210 c-13 -8 -12 -10 3 -10 9 0 17 5 17 10 0 12 -1 12 -20 0z"/>
<path d="M2546 3205 c-11 -8 -15 -15 -9 -15 6 0 16 7 23 15 16 19 11 19 -14 0z"/>
<path d="M1778 3178 c5 -5 16 -8 23 -6 8 3 3 7 -10 11 -17 4 -21 3 -13 -5z"/>
<path d="M2078 3173 c27 -13 35 -14 45 -3 10 10 7 11 -10 5 -14 -4 -23 -2 -23
4 0 6 -10 11 -22 11 -20 0 -18 -3 10 -17z"/>
<path d="M2150 3178 c0 -15 102 -44 138 -39 53 8 81 26 65 42 -11 11 -13 10
-13 -1 0 -12 -2 -12 -9 -2 -7 11 -9 10 -14 -3 -4 -9 -3 -13 3 -10 6 3 10 1 10
-4 0 -14 -17 -14 -25 -1 -3 5 -15 6 -28 1 -14 -5 -30 -5 -40 1 -9 5 -23 6 -30
2 -9 -6 -9 -5 0 7 9 12 6 14 -23 14 -19 0 -34 -3 -34 -7z"/>
<path d="M2428 3158 c5 -5 16 -8 23 -6 8 3 3 7 -10 11 -17 4 -21 3 -13 -5z"/>
<path d="M1785 3110 c3 -5 8 -10 11 -10 2 0 4 5 4 10 0 6 -5 10 -11 10 -5 0
-7 -4 -4 -10z"/>
<path d="M1750 3100 c0 -5 5 -10 11 -10 5 0 7 5 4 10 -3 6 -8 10 -11 10 -2 0
-4 -4 -4 -10z"/>
<path d="M1855 3090 c3 -5 8 -10 11 -10 2 0 4 5 4 10 0 6 -5 10 -11 10 -5 0
-7 -4 -4 -10z"/>
<path d="M2180 3010 c0 -5 5 -10 11 -10 5 0 7 5 4 10 -3 6 -8 10 -11 10 -2 0
-4 -4 -4 -10z"/>
<path d="M1950 2990 c-9 -6 -10 -10 -3 -10 6 0 15 5 18 10 8 12 4 12 -15 0z"/>
<path d="M1858 2953 c6 -2 12 -11 12 -19 0 -8 5 -14 10 -14 7 0 7 6 0 20 -6
11 -16 20 -23 19 -9 0 -9 -2 1 -6z"/>
<path d="M1940 2930 c0 -5 5 -10 11 -10 5 0 7 5 4 10 -3 6 -8 10 -11 10 -2 0
-4 -4 -4 -10z"/>
<path d="M2293 2917 c-47 -23 -56 -38 -20 -34 22 2 75 42 67 50 -3 3 -24 -5
-47 -16z"/>
<path d="M2205 2910 c-4 -6 3 -10 14 -10 25 0 27 6 6 13 -8 4 -17 2 -20 -3z"/>
<path d="M1956 2865 c25 -19 40 -19 24 0 -7 8 -20 15 -28 15 -13 0 -12 -3 4
-15z"/>
<path d="M2040 2860 c0 -5 7 -10 16 -10 8 0 12 5 9 10 -3 6 -10 10 -16 10 -5
0 -9 -4 -9 -10z"/>
<path d="M2120 2859 c0 -5 5 -7 10 -4 6 3 10 8 10 11 0 2 -4 4 -10 4 -5 0 -10
-5 -10 -11z"/>
<path d="M1880 2851 c0 -5 7 -12 16 -15 14 -5 15 -4 4 9 -14 17 -20 19 -20 6z"/>
<path d="M2537 2745 c-11 -25 -23 -45 -27 -45 -4 0 -11 -12 -15 -27 -8 -34
-51 -81 -84 -94 -18 -7 -21 -13 -13 -21 8 -8 4 -22 -17 -52 -29 -44 -49 -83
-77 -156 -9 -25 -21 -49 -26 -54 -4 -6 -8 -20 -8 -33 0 -12 -9 -38 -20 -58
-11 -20 -20 -42 -20 -50 0 -8 -4 -15 -9 -15 -5 0 -11 -10 -14 -22 -6 -22 -6
-22 14 2 37 46 68 98 75 125 17 68 105 185 141 188 12 0 19 5 16 9 -11 19 -93
-36 -93 -62 0 -4 -7 -11 -16 -14 -11 -4 -6 12 17 52 18 31 42 77 55 102 13 25
39 60 59 79 19 19 38 46 42 60 3 14 15 45 25 69 11 24 18 47 16 52 -2 5 -11
-11 -21 -35z"/>
<path d="M1993 2673 c9 -2 23 -2 30 0 6 3 -1 5 -18 5 -16 0 -22 -2 -12 -5z"/>
<path d="M2057 2649 c7 -7 15 -10 18 -7 3 3 -2 9 -12 12 -14 6 -15 5 -6 -5z"/>
<path d="M2180 2636 c0 -2 7 -7 16 -10 8 -3 12 -2 9 4 -6 10 -25 14 -25 6z"/>
<path d="M2410 2609 c0 -11 5 -17 10 -14 6 3 10 13 10 21 0 8 -4 14 -10 14 -5
0 -10 -9 -10 -21z"/>
<path d="M2345 2599 c-9 -28 -2 -33 13 -9 6 11 8 21 3 25 -5 3 -13 -4 -16 -16z"/>
<path d="M2770 2610 c0 -5 5 -10 11 -10 5 0 7 5 4 10 -3 6 -8 10 -11 10 -2 0
-4 -4 -4 -10z"/>
<path d="M2095 2600 c3 -5 8 -10 11 -10 2 0 4 5 4 10 0 6 -5 10 -11 10 -5 0
-7 -4 -4 -10z"/>
<path d="M2830 2600 c0 -5 5 -10 11 -10 5 0 7 5 4 10 -3 6 -8 10 -11 10 -2 0
-4 -4 -4 -10z"/>
<path d="M790 2531 c0 -5 7 -8 17 -7 9 2 51 -10 95 -25 43 -14 78 -23 78 -19
0 5 -26 16 -57 25 -32 8 -68 20 -81 25 -29 12 -52 13 -52 1z"/>
<path d="M1798 2518 c-27 -11 -48 -27 -48 -34 0 -8 -4 -14 -10 -14 -5 0 -10
-6 -10 -12 1 -7 9 -3 20 10 23 27 106 66 122 56 7 -4 8 -3 4 4 -10 16 -22 14
-78 -10z"/>
<path d="M2644 2524 c-19 -15 -19 -15 1 -6 11 5 27 12 35 15 13 5 13 6 -1 6
-8 1 -24 -6 -35 -15z"/>
<path d="M2595 2500 c-3 -6 1 -7 9 -4 18 7 21 14 7 14 -6 0 -13 -4 -16 -10z"/>
<path d="M1408 2493 c7 -3 16 -2 19 1 4 3 -2 6 -13 5 -11 0 -14 -3 -6 -6z"/>
<path d="M2498 2454 c-37 -19 -36 -25 2 -11 17 6 30 15 30 19 0 10 0 10 -32
-8z"/>
<path d="M1605 2409 c-38 -28 -81 -55 -95 -61 -20 -9 -22 -12 -8 -15 9 -2 25
3 35 12 39 36 139 94 163 95 23 1 23 2 5 10 -27 12 -21 14 -100 -41z"/>
<path d="M2115 2034 c9 -9 18 -14 21 -11 9 9 -6 27 -22 27 -13 0 -13 -2 1 -16z"/>
<path d="M2156 2031 c-26 -29 -66 -143 -49 -139 5 1 21 -2 36 -7 43 -12 74 10
82 57 12 71 -33 129 -69 89z m52 -45 c8 -65 -42 -114 -68 -67 -14 27 -14 29
18 58 15 15 21 23 15 19 -14 -8 -18 6 -6 18 15 15 38 0 41 -28z"/>
<path d="M2100 2005 c0 -8 4 -15 10 -15 5 0 7 7 4 15 -4 8 -8 15 -10 15 -2 0
-4 -7 -4 -15z"/>
<path d="M2151 1834 c0 -11 3 -14 6 -6 3 7 2 16 -1 19 -3 4 -6 -2 -5 -13z"/>
<path d="M2051 1734 c0 -11 3 -14 6 -6 3 7 2 16 -1 19 -3 4 -6 -2 -5 -13z"/>
<path d="M1771 1675 c1 -19 18 -51 18 -35 0 8 -4 22 -9 30 -5 8 -9 11 -9 5z"/>
<path d="M2403 1503 c-3 -10 -8 -22 -11 -27 -3 -5 0 -6 5 -3 11 7 25 47 17 47
-3 0 -7 -8 -11 -17z"/>
<path d="M1927 1495 c-4 -8 -2 -17 3 -20 6 -4 10 3 10 14 0 25 -6 27 -13 6z"/>
<path d="M2361 1244 c0 -11 3 -14 6 -6 3 7 2 16 -1 19 -3 4 -6 -2 -5 -13z"/>
<path d="M2256 953 c-6 -14 -5 -15 5 -6 7 7 10 15 7 18 -3 3 -9 -2 -12 -12z"/>
<path d="M2235 919 c-4 -6 -5 -12 -2 -15 2 -3 7 2 10 11 7 17 1 20 -8 4z"/>
<path d="M2138 827 c-34 -40 -42 -75 -27 -113 7 -16 12 -32 11 -36 -1 -3 11
-10 26 -15 90 -30 160 46 121 131 -13 27 -60 52 -83 43 -8 -3 -16 0 -18 8 -2
9 -13 2 -30 -18z m97 -31 c24 -17 24 -69 0 -96 -24 -27 -70 -26 -89 2 -46 65
25 141 89 94z"/>
<path d="M2186 762 c7 -4 14 -16 17 -27 4 -15 5 -14 6 8 1 20 -4 27 -16 27
-12 0 -14 -3 -7 -8z"/>
<path d="M2350 830 c0 -5 5 -10 10 -10 6 0 10 5 10 10 0 6 -4 10 -10 10 -5 0
-10 -4 -10 -10z"/>
</g>
</svg>
