<?xml version="1.0" encoding="utf-8"?>
<!-- Generator: Adobe Illustrator 27.0.0, SVG Export Plug-In . SVG Version: 6.00 Build 0)  -->
<svg version="1.1" id="Layer_1" xmlns="http://www.w3.org/2000/svg" xmlns:xlink="http://www.w3.org/1999/xlink" x="0px" y="0px"
	 viewBox="0 0 176 11" style="enable-background:new 0 0 176 11;" xml:space="preserve">
<style type="text/css">
	.st0{fill:#FF4575;}
</style>
<path class="st0" d="M137.6,4.5c-2.3,0-4.4-0.6-6.2-1.8c-5.5-3.6-12.2-3.6-20-0.2c-5.9,2.6-10.6,2.7-14.3,0.2
	c-5.5-3.6-12.2-3.6-20-0.2C71,5.1,66.3,5.2,62.6,2.7c-5.5-3.6-12.2-3.6-20-0.2C36.7,5.1,32,5.2,28.3,2.7c-5.5-3.6-12.2-3.6-20-0.2
	c-3.1,1.3-5.8,2-8.3,2v6c3.3,0,6.8-0.8,10.6-2.5C16.6,5.4,21.3,5.3,25,7.8c5.5,3.6,12.2,3.6,20,0.2c5.9-2.6,10.6-2.7,14.3-0.2
	c5.5,3.6,12.2,3.6,20,0.2C85.3,5.4,90,5.3,93.7,7.8c2.8,1.8,5.9,2.7,9.4,2.7c3.3,0,6.8-0.8,10.7-2.5c5.9-2.6,10.6-2.7,14.3-0.2
	c2.8,1.9,6,2.8,9.5,2.7V4.5z"/>
</svg>
