<svg width="33" height="32" viewBox="0 0 33 32" fill="none" xmlns="http://www.w3.org/2000/svg">
<path d="M25.7656 11.125C26.7031 10.4219 27.5469 9.57812 28.2031 8.59375C27.3594 8.96875 26.375 9.25 25.3906 9.34375C26.4219 8.73438 27.1719 7.79688 27.5469 6.625C26.6094 7.1875 25.5312 7.60938 24.4531 7.84375C23.5156 6.85938 22.25 6.29688 20.8438 6.29688C18.125 6.29688 15.9219 8.5 15.9219 11.2188C15.9219 11.5938 15.9688 11.9688 16.0625 12.3438C11.9844 12.1094 8.32812 10.1406 5.89062 7.1875C5.46875 7.89062 5.23438 8.73438 5.23438 9.67188C5.23438 11.3594 6.07812 12.8594 7.4375 13.75C6.64062 13.7031 5.84375 13.5156 5.1875 13.1406V13.1875C5.1875 15.5781 6.875 17.5469 9.125 18.0156C8.75 18.1094 8.28125 18.2031 7.85938 18.2031C7.53125 18.2031 7.25 18.1562 6.92188 18.1094C7.53125 20.0781 9.35938 21.4844 11.5156 21.5312C9.82812 22.8438 7.71875 23.6406 5.42188 23.6406C5 23.6406 4.625 23.5938 4.25 23.5469C6.40625 24.9531 8.98438 25.75 11.7969 25.75C20.8438 25.75 25.7656 18.2969 25.7656 11.7812C25.7656 11.5469 25.7656 11.3594 25.7656 11.125Z" fill="black"/>
</svg>
