<svg xmlns="http://www.w3.org/2000/svg" viewBox="0 0 1760 1760" width="1760" height="1760"><title>Favicon-3-svg</title><style>		.s0 { fill: #000000 } 	</style><g id="Layer"><path id="Layer" fill-rule="evenodd" class="s0" d="m920 353.2c102.8-0.7 189.9 29.2 263.5 90.6 13.2 11 41.5 39.9 53 54 41.5 51.1 70.1 108.6 86.4 173.8 10.3 41.3 16.1 90.6 16.1 136.6v18.8h-807.3l0.7 21.2c1.6 48.2 6.2 88 15.1 129.3 21.2 98.3 67.8 185.3 133.2 248.5 57.3 55.5 128.7 89 214.3 100.9 28.1 3.8 41.4 4.6 81.5 4.6 41.7-0.1 53.9-0.9 85.5-6.1 123.3-19.9 216.6-87.6 277.9-201.5 2.8-5.1 5.1-8.8 5.1-8.1 0 2.6-13.1 40.4-18.5 53.1-26.5 62.7-69.1 120-124.8 167.6-59.3 50.7-126.9 83.4-202.5 98-55.7 10.7-122.3 11-184.2 1-108.3-17.7-204.2-69.3-282-151.9-74.5-79.1-120.1-176.9-135.9-292.1-4.1-29.3-5.2-46.5-5.8-86.1-0.8-53.1 1.1-80.4 8.3-123.3 24.2-143.9 100.6-258.6 227.9-342 58.5-38.3 113.8-61.9 176-75 28-5.9 52.4-9.1 87.5-11.5 2.5-0.1 15.5-0.3 29-0.4zm-41.5 16.9c-71.8 6-132.6 28.9-189 71.4-45.6 34.3-78 73.9-104 127-30.9 63.1-47.2 134.3-53 230.4l-0.6 10.4 120.8-0.6c152.8-0.9 235.3-2.5 290.8-5.7 24.5-1.5 70.8-5.8 86.5-8.1 74.2-10.9 122.9-33.8 150.3-70.7 12.2-16.4 19.3-32.8 24.4-57.1 2.6-11.8 2.7-14.2 2.8-39.1 0-21.4-0.4-28.4-1.8-36.5-9.7-52.8-32.6-97.1-70.2-135-30.3-30.6-70.1-55.3-113-70.2-17.6-6.1-47.3-12.5-71-15.3-12.2-1.5-59.4-2.1-73-0.9z"></path></g></svg>