<svg width="120" height="120" viewBox="0 0 120 120" fill="none" xmlns="http://www.w3.org/2000/svg">
<g clip-path="url(#clip0_31_793)">
<path d="M117.737 54.6536L65.3437 2.26325C62.3283 -0.754092 57.4345 -0.754092 54.4153 2.26325L43.5356 13.1429L57.337 26.9443C60.5442 25.8606 64.222 26.5876 66.7786 29.1442C69.3473 31.7172 70.0692 35.4264 68.9592 38.6439L82.26 51.9451C85.478 50.8365 89.1909 51.5537 91.7611 54.1281C95.3531 57.7187 95.3531 63.5383 91.7611 67.1312C88.1681 70.7247 82.3486 70.7247 78.7537 67.1312C76.0519 64.4265 75.3844 60.4586 76.7522 57.13L64.3481 44.7259L64.3467 77.3683C65.2459 77.8129 66.0672 78.4002 66.7786 79.1073C70.3706 82.6979 70.3706 88.518 66.7786 92.1137C63.1856 95.7053 57.3633 95.7053 53.7755 92.1137C50.1834 88.518 50.1834 82.6984 53.7755 79.1078C54.6363 78.2466 55.6593 77.5645 56.7853 77.1011V44.1545C55.6576 43.6942 54.6341 43.0117 53.7755 42.1478C51.0539 39.43 50.3995 35.4367 51.7941 32.095L38.1891 18.4886L2.26406 54.4112C-0.754688 57.4314 -0.754688 62.3256 2.26406 65.3434L54.6581 117.735C57.6745 120.752 62.5673 120.752 65.5875 117.735L117.736 65.5867C120.754 62.5679 120.754 57.6709 117.736 54.6536" fill="#DE4C36"/>
</g>
<defs>
<clipPath id="clip0_31_793">
<rect width="120" height="120" fill="white"/>
</clipPath>
</defs>
</svg>
