<svg width="120" height="120" viewBox="0 0 120 120" fill="none" xmlns="http://www.w3.org/2000/svg">
<g clip-path="url(#clip0_44_1221)">
<path d="M119.509 67.3878C123.709 35.5099 100.493 6.36609 67.6786 2.29409C34.8645 -1.7779 4.68997 20.7344 0.490726 52.5541C-3.70852 84.3739 19.5073 113.576 52.3214 117.706C85.1955 121.778 115.25 99.2657 119.509 67.3878Z" fill="#FF6C37"/>
<path d="M81.6561 39.1747L56.3407 63.723L49.202 56.8006C74.0975 32.6595 76.557 34.7537 81.6561 39.1747Z" fill="white"/>
<path d="M56.3407 64.3046C56.1607 64.3046 56.0407 64.2465 55.9208 64.1301L48.7221 57.2077C48.4821 56.9751 48.4821 56.626 48.7221 56.3933C74.0375 31.845 76.677 34.1719 82.0161 38.8256C82.136 38.9419 82.196 39.0583 82.196 39.2328C82.196 39.4073 82.136 39.5236 82.0161 39.64L56.7006 64.1301C56.6406 64.2465 56.4607 64.3046 56.3407 64.3046ZM50.0418 56.8005L56.3407 62.9085L80.7563 39.2328C76.3171 35.3935 73.3176 34.2301 50.0418 56.8005Z" fill="#FF6C37"/>
<path d="M63.5994 70.7617L56.7006 64.072L82.016 39.5237C88.7948 46.1552 78.6566 56.9169 63.5994 70.7617Z" fill="white"/>
<path d="M63.5993 71.3435C63.4193 71.3435 63.2994 71.2853 63.1794 71.1689L56.2806 64.4792C56.1606 64.3629 56.1606 64.2466 56.1606 64.072C56.1606 63.8975 56.2206 63.7812 56.3406 63.6648L81.6561 39.1165C81.896 38.8838 82.2559 38.8838 82.4959 39.1165C84.0556 40.5126 84.8955 42.4905 84.8355 44.5265C84.7155 50.9835 77.1569 59.1856 64.0792 71.1689C63.8993 71.2853 63.7193 71.3435 63.5993 71.3435ZM57.5404 64.072C61.3797 67.8532 62.9994 69.3656 63.5993 69.9473C73.6775 60.6399 83.4557 51.0998 83.5157 44.5265C83.5757 43.014 82.9758 41.5016 81.956 40.3381L57.5404 64.072Z" fill="#FF6C37"/>
<path d="M49.3219 56.9752L54.421 61.9197C54.541 62.0361 54.541 62.1524 54.421 62.2688C54.361 62.3269 54.361 62.3269 54.301 62.3269L43.7429 64.5374C43.203 64.5956 42.7231 64.2466 42.6031 63.723C42.5431 63.4322 42.6631 63.1413 42.8431 62.9668L48.962 57.0333C49.0819 56.917 49.2619 56.8588 49.3219 56.9752Z" fill="white"/>
<path d="M43.563 65.1191C42.6631 65.1191 42.0033 64.4211 42.0033 63.5485C42.0033 63.1413 42.1832 62.7341 42.4832 62.4432L48.6021 56.5098C48.962 56.2189 49.4419 56.2189 49.8019 56.5098L54.9009 61.4543C55.2609 61.7452 55.2609 62.2687 54.9009 62.6178C54.781 62.7341 54.661 62.7923 54.481 62.8504L43.9229 65.061C43.8029 65.061 43.683 65.1191 43.563 65.1191ZM49.142 57.615L43.263 63.3158C43.1431 63.4322 43.0831 63.6067 43.203 63.7812C43.263 63.9557 43.443 64.0139 43.623 63.9557L53.5212 61.8615L49.142 57.615Z" fill="#FF6C37"/>
<path d="M95.0337 25.5626C91.1943 21.956 85.0155 22.0724 81.2961 25.8535C77.5768 29.6346 77.6968 35.5681 81.5961 39.1747C84.7755 42.1415 89.5746 42.665 93.354 40.4545L86.5152 33.823L95.0337 25.5626Z" fill="white"/>
<path d="M88.3149 42.3741C82.6159 42.3741 77.9968 37.8949 77.9968 32.3686C77.9968 26.8424 82.6159 22.3632 88.3149 22.3632C90.9544 22.3632 93.534 23.3521 95.4536 25.1554C95.5736 25.2717 95.6336 25.3881 95.6336 25.5626C95.6336 25.7371 95.5736 25.8534 95.4536 25.9698L87.3551 33.8229L93.7139 39.9891C93.9539 40.2218 93.9539 40.5708 93.7139 40.8035C93.6539 40.8616 93.6539 40.8616 93.594 40.9198C92.0342 41.8506 90.1746 42.3741 88.3149 42.3741ZM88.3149 23.5848C83.2758 23.5848 79.1965 27.5404 79.2565 32.4268C79.2565 37.3132 83.3358 41.2688 88.3749 41.2107C89.7547 41.2107 91.1344 40.9198 92.3942 40.2799L86.0953 34.2301C85.9753 34.1138 85.9153 33.9974 85.9153 33.8229C85.9153 33.6484 85.9753 33.5321 86.0953 33.4157L94.1339 25.6208C92.5142 24.2828 90.4745 23.5848 88.3149 23.5848Z" fill="#FF6C37"/>
<path d="M95.2136 25.7371L95.0937 25.6207L86.5152 33.8229L93.294 40.3963C93.9539 39.9891 94.6137 39.5237 95.1536 39.0001C98.9929 35.3353 98.9929 29.4019 95.2136 25.7371Z" fill="white"/>
<path d="M93.354 41.0361C93.174 41.0361 93.054 40.978 92.934 40.8616L86.0953 34.2301C85.9753 34.1137 85.9153 33.9974 85.9153 33.8229C85.9153 33.6484 85.9753 33.532 86.0953 33.4157L94.6137 25.1553C94.8537 24.9227 95.2136 24.9227 95.4536 25.1553L95.6336 25.2717C99.6528 29.1692 99.6528 35.4517 95.6936 39.4073C95.0937 39.989 94.4338 40.5126 93.7139 40.9198C93.5339 40.978 93.414 41.0361 93.354 41.0361ZM87.3551 33.8229L93.414 39.6982C93.8939 39.4073 94.3738 39.0001 94.7337 38.6511C98.1531 35.3353 98.3331 29.9254 95.0337 26.4351L87.3551 33.8229Z" fill="#FF6C37"/>
<path d="M82.6759 40.2218C81.2362 38.8257 78.8966 38.8257 77.4568 40.2218L54.8409 62.1524L58.6202 65.8172L82.5559 45.4572C84.1156 44.1774 84.2356 41.9087 82.9159 40.3963C82.7959 40.3381 82.7359 40.2799 82.6759 40.2218Z" fill="white"/>
<path d="M58.5603 66.3989C58.3803 66.3989 58.2603 66.3407 58.1403 66.2244L54.361 62.5596C54.1211 62.3269 54.1211 61.9779 54.361 61.7452L76.977 39.8146C78.6567 38.1858 81.3562 38.1858 83.0359 39.8146C84.7156 41.4434 84.7156 44.0611 83.0359 45.6899C82.9759 45.7481 82.9159 45.8063 82.8559 45.8644L58.9202 66.2244C58.8602 66.3407 58.7402 66.3989 58.5603 66.3989ZM55.6808 62.1524L58.6203 65.0028L82.136 44.9919C83.4558 43.9448 83.5758 42.0251 82.496 40.7454C81.4162 39.4656 79.4365 39.3492 78.1168 40.3963C78.0568 40.4545 77.9968 40.5127 77.8768 40.5708L55.6808 62.1524Z" fill="#FF6C37"/>
<path d="M37.504 87.1079C37.2641 87.2243 37.1441 87.4569 37.2041 87.6896L38.2239 91.878C38.4638 92.4597 38.1039 93.1577 37.444 93.3323C36.9641 93.5068 36.4242 93.3322 36.1243 92.9832L29.5255 86.6425L51.0616 65.759L58.5002 65.8754L63.5393 70.7618C62.3395 71.7507 55.0809 78.5567 37.504 87.1079Z" fill="white"/>
<path d="M37.0242 93.9139C36.5442 93.9139 36.0643 93.7394 35.7644 93.3904L29.2256 87.0497C29.1056 86.9333 29.0456 86.817 29.0456 86.6425C29.0456 86.468 29.1056 86.3516 29.2256 86.2353L50.7617 65.3518C50.8817 65.2354 51.0616 65.1772 51.1816 65.1772L58.6203 65.2936C58.8002 65.2936 58.9202 65.3518 59.0402 65.4681L64.0793 70.3545C64.1993 70.4708 64.2593 70.6454 64.2593 70.8199C64.2593 70.9944 64.1993 71.1107 64.0193 71.2271L63.5994 71.5761C57.2405 76.986 48.6021 82.396 37.864 87.5732L38.8838 91.7034C39.0638 92.4596 38.7039 93.274 37.984 93.6812C37.624 93.8557 37.3241 93.9139 37.0242 93.9139ZM30.4253 86.6425L36.6042 92.5759C36.7842 92.8668 37.1441 92.9832 37.4441 92.8086C37.744 92.6341 37.864 92.2851 37.684 91.9942L36.6642 87.8059C36.5442 87.2824 36.7842 86.817 37.2641 86.5843C47.8822 81.407 56.4607 76.0553 62.7595 70.7617L58.3203 66.457L51.4216 66.3407L30.4253 86.6425Z" fill="#FF6C37"/>
<path d="M24.4264 91.6452L29.5854 86.6425L37.2641 94.0884L25.0263 93.274C24.4864 93.2158 24.1264 92.7505 24.1864 92.2269C24.1864 91.9942 24.2464 91.7615 24.4264 91.6452Z" fill="white"/>
<path d="M37.2641 94.6119L24.9663 93.7975C24.0665 93.7393 23.4666 92.9831 23.5266 92.1106C23.5865 91.7615 23.7065 91.4125 24.0065 91.1798L29.1655 86.1771C29.4055 85.9444 29.7654 85.9444 30.0054 86.1771L37.684 93.623C37.864 93.7975 37.924 94.0302 37.804 94.2629C37.684 94.4956 37.504 94.6119 37.2641 94.6119ZM29.5855 87.4568L24.8463 92.0524C24.6663 92.1687 24.6663 92.4596 24.8463 92.5759C24.9063 92.6341 24.9663 92.6923 25.0863 92.6923L35.7044 93.3903L29.5855 87.4568Z" fill="#FF6C37"/>
<path d="M48.962 68.4348C48.602 68.4348 48.3621 68.144 48.3621 67.8531C48.3621 67.6786 48.422 67.5623 48.542 67.4459L54.361 61.8033C54.6009 61.5706 54.9609 61.5706 55.2008 61.8033L58.9801 65.4681C59.1601 65.6426 59.2201 65.8171 59.1601 66.0498C59.1001 66.2243 58.9202 66.3988 58.6802 66.457L49.0819 68.4348C49.0219 68.4348 48.962 68.4348 48.962 68.4348ZM54.7809 63.0249L50.8216 66.8642L57.3005 65.5263L54.7809 63.0249Z" fill="#FF6C37"/>
<path d="M58.5003 65.8753L51.9015 67.2714C51.4215 67.3878 50.9416 67.0969 50.8217 66.6315C50.7617 66.3407 50.8217 66.0498 51.0616 65.8171L54.721 62.2687L58.5003 65.8753Z" fill="white"/>
<path d="M51.7814 67.8531C50.9416 67.8531 50.2817 67.2132 50.2817 66.3988C50.2817 65.9916 50.4617 65.6426 50.7016 65.3518L54.361 61.8033C54.6009 61.5706 54.9609 61.5706 55.2008 61.8033L58.9801 65.4681C59.1601 65.6426 59.2201 65.8171 59.1601 66.0498C59.1001 66.2243 58.9201 66.3988 58.6802 66.457L52.0814 67.8531C51.9614 67.8531 51.8414 67.8531 51.7814 67.8531ZM54.7809 63.0249L51.5415 66.1662C51.4215 66.2825 51.4215 66.3988 51.4815 66.5152C51.5415 66.6315 51.6615 66.6897 51.8414 66.6897L57.3604 65.5263L54.7809 63.0249Z" fill="#FF6C37"/>
<path d="M95.2737 31.3215C95.1537 30.9725 94.7338 30.798 94.3738 30.9143C94.0139 31.0307 93.8339 31.4379 93.9539 31.7869C93.9539 31.8451 94.0139 31.9032 94.0139 31.9614C94.3738 32.6595 94.2539 33.532 93.7739 34.1719C93.534 34.4628 93.594 34.87 93.8339 35.1026C94.1339 35.3353 94.5538 35.2772 94.7938 34.9863C95.6936 33.881 95.8736 32.4849 95.2737 31.3215Z" fill="#FF6C37"/>
</g>
<defs>
<clipPath id="clip0_44_1221">
<rect width="120" height="120" fill="white"/>
</clipPath>
</defs>
</svg>
