<svg width="120" height="120" viewBox="0 0 120 120" fill="none" xmlns="http://www.w3.org/2000/svg">
<g clip-path="url(#clip0_44_1154)">
<path d="M59.4241 0.46875C29.0339 0.468752 30.9317 13.6477 30.9317 13.6477L30.9656 27.301H59.9661V31.4004H19.4466C19.4466 31.4004 0 29.195 0 59.8589C-2.1675e-06 90.5229 16.9735 89.4354 16.9735 89.4354H27.1033V75.2062C27.1033 75.2062 26.5573 58.2327 43.8058 58.2327H72.5692C72.5692 58.2327 88.7295 58.494 88.7295 42.6144V16.3581C88.7295 16.3581 91.1831 0.46875 59.4241 0.46875ZM43.4331 9.65C46.3184 9.65 48.6505 11.9821 48.6505 14.8674C48.6505 17.7527 46.3184 20.0848 43.4331 20.0848C40.5477 20.0848 38.2157 17.7527 38.2157 14.8674C38.2157 11.9821 40.5477 9.65 43.4331 9.65Z" fill="url(#paint0_linear_44_1154)"/>
<path d="M60.2872 119.557C90.6773 119.557 88.7795 106.378 88.7795 106.378L88.7457 92.7242H59.7451V88.6249H100.265C100.265 88.6249 119.711 90.8303 119.711 60.1664C119.711 29.5024 102.738 30.5899 102.738 30.5899H92.6079V44.8191C92.6079 44.8191 93.1539 61.7926 75.9055 61.7926H47.1421C47.1421 61.7926 30.9817 61.5313 30.9817 77.4109V103.667C30.9817 103.667 28.5281 119.557 60.2872 119.557ZM76.2781 110.375C73.3928 110.375 71.0607 108.043 71.0607 105.158C71.0607 102.273 73.3928 99.9405 76.2781 99.9405C79.1635 99.9405 81.4955 102.273 81.4955 105.158C81.4955 108.043 79.1635 110.375 76.2781 110.375Z" fill="url(#paint1_linear_44_1154)"/>
</g>
<defs>
<linearGradient id="paint0_linear_44_1154" x1="11.5045" y1="11.1804" x2="70.829" y2="69.913" gradientUnits="userSpaceOnUse">
<stop stop-color="#387EB8"/>
<stop offset="1" stop-color="#366994"/>
</linearGradient>
<linearGradient id="paint1_linear_44_1154" x1="47.9179" y1="48.8947" x2="111.626" y2="109.12" gradientUnits="userSpaceOnUse">
<stop stop-color="#FFE052"/>
<stop offset="1" stop-color="#FFC331"/>
</linearGradient>
<clipPath id="clip0_44_1154">
<rect width="120" height="120" fill="white"/>
</clipPath>
</defs>
</svg>
