<?xml version="1.0" encoding="UTF-8"?>
<svg xmlns="http://www.w3.org/2000/svg" xmlns:xlink="http://www.w3.org/1999/xlink" viewBox="0 0 52 52" width="52px" height="52px">
<g id="surface30074203">
<path style=" stroke:none;fill-rule:nonzero;fill:rgb(100%,100%,100%);fill-opacity:1;" d="M 41.0625 0.9375 C 39.976562 1.085938 39.226562 2.09375 39.375 3.1875 L 41.6875 19.0625 C 41.84375 20.148438 42.851562 20.90625 43.9375 20.75 C 45.03125 20.59375 45.78125 19.53125 45.625 18.4375 L 43.375 2.625 C 43.21875 1.539062 42.15625 0.78125 41.0625 0.9375 Z M 29 5.125 C 28.742188 5.171875 28.484375 5.289062 28.25 5.4375 C 27.328125 6.039062 27.085938 7.257812 27.6875 8.1875 L 36.4375 21.625 C 37.039062 22.546875 38.265625 22.789062 39.1875 22.1875 C 40.117188 21.585938 40.351562 20.367188 39.75 19.4375 L 31 6 C 30.546875 5.3125 29.765625 4.984375 29 5.125 Z M 20.25 13.5 C 19.742188 13.59375 19.25 13.921875 18.9375 14.375 C 18.3125 15.28125 18.53125 16.492188 19.4375 17.125 L 32.625 26.25 C 33.523438 26.875 34.75 26.648438 35.375 25.75 C 36.007812 24.84375 35.78125 23.5625 34.875 22.9375 L 21.75 13.875 C 21.296875 13.5625 20.757812 13.40625 20.25 13.5 Z M 15.4375 23 C 14.664062 23.085938 13.984375 23.578125 13.75 24.375 C 13.4375 25.429688 14.070312 26.5625 15.125 26.875 L 30.4375 31.375 C 31.492188 31.6875 32.625 31.117188 32.9375 30.0625 C 33.25 29.007812 32.617188 27.875 31.5625 27.5625 L 16.25 23.0625 C 15.984375 22.984375 15.695312 22.96875 15.4375 23 Z M 4 32 L 4 46 C 4 49.3125 6.6875 52 10 52 L 34 52 C 37.3125 52 40 49.3125 40 46 L 40 32 L 36 32 L 36 46 C 36 47.101562 35.101562 48 34 48 L 10 48 C 8.898438 48 8 47.101562 8 46 L 8 32 Z M 14.25 32.25 C 13.148438 32.140625 12.171875 32.96875 12.0625 34.0625 C 11.953125 35.164062 12.78125 36.140625 13.875 36.25 L 29.8125 37.8125 C 30.914062 37.921875 31.890625 37.101562 32 36 C 32.109375 34.90625 31.28125 33.921875 30.1875 33.8125 Z M 14 40 C 12.898438 40 12 40.898438 12 42 C 12 43.101562 12.898438 44 14 44 L 30 44 C 31.101562 44 32 43.101562 32 42 C 32 40.898438 31.101562 40 30 40 Z M 14 40 "/>
</g>
</svg>
