<svg width="51" height="13" viewBox="0 0 51 13" fill="none" xmlns="http://www.w3.org/2000/svg">
<path d="M1.912 12V6.864H7.64V12H9.208V0.431999H7.64V5.408H1.912V0.431999H0.344V12H1.912ZM10.7709 1.872H14.2589V12H15.8269V1.872H19.2989V0.431999H10.7709V1.872ZM22.4113 12V7.056C22.4113 5.44 22.3793 4.256 22.2993 3.696L25.6593 12H27.1313L30.5073 3.664C30.4273 4.48 30.4113 5.264 30.4113 7.424V12H31.9473V0.431999H30.3793L26.3953 10.16L22.4113 0.431999H20.8753V12H22.4113ZM36.2089 0.431999H34.6409V12H41.2969V10.544H36.2089V0.431999ZM46.3283 12.192C48.8243 12.192 50.5363 10.512 50.5363 8.112C50.5363 5.888 49.0163 4.24 46.6643 4.24C45.8003 4.24 45.0323 4.48 44.4243 4.944L45.1923 1.872H49.8483V0.431999H44.0563L42.6483 6.368L43.9763 6.704C44.5043 6.048 45.4003 5.584 46.3763 5.584C47.9923 5.584 48.9363 6.688 48.9363 8.176C48.9363 9.744 47.9283 10.784 46.3602 10.784C44.8883 10.784 43.9763 9.872 43.9763 8.384H42.4243C42.4243 10.688 43.9603 12.192 46.3283 12.192Z" fill="white"/>
</svg>
