<?xml version="1.0" encoding="utf-8"?>
<!-- Generator: Adobe Illustrator 25.0.1, SVG Export Plug-In . SVG Version: 6.00 Build 0)  -->
<svg version="1.1" id="Layer_1" xmlns="http://www.w3.org/2000/svg" xmlns:xlink="http://www.w3.org/1999/xlink" x="0px" y="0px"
	 viewBox="0 0 24 24" style="enable-background:new 0 0 24 24;" xml:space="preserve">
<g>
	<path d="M12.4,24c-0.3,0-0.5,0-0.8,0c-0.1,0-0.2,0-0.3-0.1c-0.8-0.1-1.5-0.2-2.3-0.3c-4.5-1-8.2-5-8.9-9.6
		c-0.1-0.5-0.1-1.1-0.2-1.6c0-0.3,0-0.6,0-0.8c0,0,0-0.1,0-0.1c0.1-0.6,0.1-1.2,0.2-1.7C1.5,3,8.3-1.3,15,0.4
		c6.3,1.6,10.1,7.8,8.8,14.1c-1,4.8-4.9,8.5-9.7,9.3C13.5,23.9,12.9,23.9,12.4,24z M19,12c0-1.2,0-2.4-0.1-3.5
		c-0.1-1.6-1.2-2.8-2.7-3.2c-0.4-0.1-0.9-0.2-1.3-0.2c-2.1,0-4.2,0-6.3,0.1C6.7,5.3,5.4,6.7,5.2,8.5C5.1,9.7,5.1,11,5.1,12.2
		c0,1.1,0,2.2,0.1,3.3c0.1,1.6,1.2,2.9,2.8,3.2c0.8,0.2,1.7,0.2,2.6,0.2c1.6,0,3.3,0,4.9-0.1c1.8-0.1,3.2-1.5,3.3-3.3
		C18.9,14.3,18.9,13.2,19,12z"/>
	<path d="M12,6.4c1,0,2,0,3,0c1.6,0,2.6,1,2.6,2.6c0,1.8,0,3.6,0,5.3c0,0.4,0,0.8-0.1,1.2c-0.2,1.2-1.1,2-2.4,2c-2,0-4.1,0-6.1,0
		c-1.5,0-2.5-1-2.5-2.5c0-2,0-4.1,0-6.1c0-1.5,1-2.5,2.5-2.5C10,6.4,11,6.4,12,6.4C12,6.4,12,6.4,12,6.4z M8.4,12
		c0,2,1.6,3.6,3.6,3.6c2,0,3.6-1.6,3.6-3.6c0-2-1.6-3.6-3.6-3.6C10.1,8.4,8.4,10,8.4,12z M16.5,8.3c0-0.5-0.4-0.8-0.8-0.8
		c-0.5,0-0.8,0.4-0.8,0.8c0,0.5,0.4,0.8,0.8,0.8C16.2,9.2,16.5,8.8,16.5,8.3z"/>
	<path d="M14.3,12c0,1.2-1.1,2.3-2.3,2.3c-1.2,0-2.3-1-2.3-2.3c0-1.2,1.1-2.3,2.3-2.3C13.3,9.7,14.3,10.8,14.3,12z"/>
</g>
</svg>
