<?xml version="1.0" encoding="utf-8"?>
<!-- Generator: Adobe Illustrator 25.0.1, SVG Export Plug-In . SVG Version: 6.00 Build 0)  -->
<svg version="1.1" id="Layer_1" xmlns="http://www.w3.org/2000/svg" xmlns:xlink="http://www.w3.org/1999/xlink" x="0px" y="0px"
	 viewBox="0 0 16 16" style="enable-background:new 0 0 16 16;" xml:space="preserve">
<g>
	<path d="M8.4,11.3V8.9c0-0.1,0-0.2,0-0.3c0.1-0.2,0.3-0.5,0.7-0.5c0.5,0,0.7,0.4,0.7,0.9v2.2h1.4V8.9c0-1.3-0.7-1.9-1.6-1.9
		C8.9,7,8.6,7.4,8.4,7.7V7.1H7c0,0.4,0,4.2,0,4.2H8.4z"/>
	<rect x="4.9" y="7.1" width="1.4" height="4.2"/>
	<path d="M5.5,6.5L5.5,6.5c0.5,0,0.8-0.3,0.8-0.7c0-0.4-0.3-0.7-0.8-0.7S4.8,5.4,4.8,5.8C4.8,6.2,5.1,6.5,5.5,6.5z"/>
	<path d="M8,0C3.6,0,0,3.6,0,8s3.6,8,8,8s8-3.6,8-8S12.4,0,8,0z M12.7,12.8H3.3V3.5h9.3V12.8z"/>
</g>
</svg>
