<?xml version="1.0" encoding="utf-8"?>
<!-- Generator: Adobe Illustrator 25.0.1, SVG Export Plug-In . SVG Version: 6.00 Build 0)  -->
<svg version="1.1" id="Layer_1" xmlns="http://www.w3.org/2000/svg" xmlns:xlink="http://www.w3.org/1999/xlink" x="0px" y="0px"
	 viewBox="0 0 24 24" style="enable-background:new 0 0 24 24;" xml:space="preserve">
<path d="M12,0C5.4,0,0,5.4,0,12s5.4,12,12,12s12-5.4,12-12S18.6,0,12,0z M13.8,2.7l4.9,5.9l-1.3,1.1l-4.9-5.9L13.8,2.7z M10.5,6.2
	l6.6,3.8l-0.8,1.5L9.6,7.7L10.5,6.2z M8.5,10.7l7.5,1.3l-0.3,1.7l-7.5-1.3L8.5,10.7z M8.2,14.4h7.6v1.7H8.2V14.4z M18.8,19.5H5.2
	v-5.9h1.7v4.3h10.2v-4.3h1.7V19.5z"/>
</svg>
