<svg width="159" height="21" viewBox="0 0 159 21" fill="none" xmlns="http://www.w3.org/2000/svg">
<path d="M8.64332 0.399999C10.3793 0.399999 11.882 0.689332 13.1513 1.268C14.4393 1.84667 15.4287 2.668 16.1193 3.732C16.81 4.796 17.1553 6.056 17.1553 7.512C17.1553 8.94933 16.81 10.2093 16.1193 11.292C15.4287 12.356 14.4393 13.1773 13.1513 13.756C11.882 14.316 10.3793 14.596 8.64332 14.596H4.69532V20H0.15932V0.399999H8.64332ZM8.39132 10.9C9.75399 10.9 10.79 10.6107 11.4993 10.032C12.2087 9.43467 12.5633 8.59467 12.5633 7.512C12.5633 6.41067 12.2087 5.57067 11.4993 4.992C10.79 4.39467 9.75399 4.096 8.39132 4.096H4.69532V10.9H8.39132ZM20.6737 0.399999H25.2097V20H20.6737V0.399999ZM46.0172 16.304V20H28.8812V17.06L39.6332 4.096H29.1052V0.399999H45.5972V3.34L34.8732 16.304H46.0172ZM65.0824 16.304V20H47.9464V17.06L58.6984 4.096H48.1704V0.399999H64.6624V3.34L53.9384 16.304H65.0824ZM81.1795 15.8H72.0795L70.3435 20H65.6955L74.4315 0.399999H78.9115L87.6755 20H82.9155L81.1795 15.8ZM79.7515 12.356L76.6435 4.852L73.5355 12.356H79.7515ZM112.591 9.808C113.711 10.1627 114.588 10.76 115.223 11.6C115.857 12.4213 116.175 13.4387 116.175 14.652C116.175 16.3693 115.503 17.6947 114.159 18.628C112.833 19.5427 110.892 20 108.335 20H98.1987V0.399999H107.775C110.164 0.399999 111.993 0.857332 113.263 1.772C114.551 2.68667 115.195 3.928 115.195 5.496C115.195 6.448 114.961 7.29733 114.495 8.044C114.047 8.79067 113.412 9.37867 112.591 9.808ZM102.707 3.816V8.436H107.215C108.335 8.436 109.184 8.24 109.763 7.848C110.341 7.456 110.631 6.87733 110.631 6.112C110.631 5.34667 110.341 4.77733 109.763 4.404C109.184 4.012 108.335 3.816 107.215 3.816H102.707ZM107.999 16.584C109.193 16.584 110.089 16.388 110.687 15.996C111.303 15.604 111.611 14.9973 111.611 14.176C111.611 12.552 110.407 11.74 107.999 11.74H102.707V16.584H107.999ZM129.381 20.336C127.346 20.336 125.508 19.8973 123.865 19.02C122.241 18.1427 120.962 16.9387 120.029 15.408C119.114 13.8587 118.657 12.1227 118.657 10.2C118.657 8.27733 119.114 6.55067 120.029 5.02C120.962 3.47067 122.241 2.25733 123.865 1.38C125.508 0.502666 127.346 0.0639997 129.381 0.0639997C131.416 0.0639997 133.245 0.502666 134.869 1.38C136.493 2.25733 137.772 3.47067 138.705 5.02C139.638 6.55067 140.105 8.27733 140.105 10.2C140.105 12.1227 139.638 13.8587 138.705 15.408C137.772 16.9387 136.493 18.1427 134.869 19.02C133.245 19.8973 131.416 20.336 129.381 20.336ZM129.381 16.472C130.538 16.472 131.584 16.2107 132.517 15.688C133.45 15.1467 134.178 14.4 134.701 13.448C135.242 12.496 135.513 11.4133 135.513 10.2C135.513 8.98667 135.242 7.904 134.701 6.952C134.178 6 133.45 5.26267 132.517 4.74C131.584 4.19867 130.538 3.928 129.381 3.928C128.224 3.928 127.178 4.19867 126.245 4.74C125.312 5.26267 124.574 6 124.033 6.952C123.51 7.904 123.249 8.98667 123.249 10.2C123.249 11.4133 123.51 12.496 124.033 13.448C124.574 14.4 125.312 15.1467 126.245 15.688C127.178 16.2107 128.224 16.472 129.381 16.472ZM147.58 4.096H141.308V0.399999H158.388V4.096H152.116V20H147.58V4.096Z" fill="white"/>
</svg>
