<svg width="756" height="980" viewBox="0 0 756 980" fill="none" xmlns="http://www.w3.org/2000/svg">
<rect width="756" height="980" fill="#FCEDEA"/>
<g clip-path="url(#clip0_1_92)">
<path d="M557.071 504.698C557.071 505.045 557.071 505.393 557.071 505.393C557.071 517.203 547.592 526.583 535.656 526.583C523.72 526.583 514.242 517.203 514.242 505.393C514.242 505.045 514.242 504.698 514.242 504.698H475.977C476.328 537.004 502.657 563.058 535.656 563.058C568.305 563.058 594.985 537.004 595.336 504.698H557.071Z" fill="#FF4575"/>
<path d="M595.34 504.016C594.98 504.375 594.98 504.375 595.34 504.016C594.98 504.375 595.34 504.375 595.34 504.016Z" fill="#FF0055"/>
<path d="M594.989 504.355C594.638 471.701 568.308 445.647 535.309 445.647C502.66 445.647 475.98 471.701 475.629 504.007C475.629 504.007 475.629 504.007 475.629 504.355C475.629 504.355 475.629 504.355 475.629 504.702H514.245C514.596 493.586 524.075 484.554 535.66 484.554C547.245 484.554 556.372 493.586 557.074 504.702L594.989 504.355Z" fill="#FFC700"/>
<path d="M463.686 504.352C463.686 536.659 437.357 563.06 404.357 563.06C371.709 563.06 345.028 536.659 345.028 504.352C345.028 472.046 371.358 445.645 404.357 445.645C420.506 445.645 435.25 452.245 446.133 462.667C446.133 462.667 375.57 505.047 376.273 504.352H463.686Z" fill="white"/>
<path d="M293.776 445.647H334.499V563.062H293.776V445.647Z" fill="#FFAEC1"/>
<path d="M306.764 558.891C305.71 558.891 305.008 558.544 303.955 558.544H301.498C298.689 558.544 296.232 558.891 293.774 559.586V563.06H318.349C316.242 562.018 314.136 560.976 312.029 560.281C310.274 559.586 308.519 559.239 306.764 558.891Z" fill="white"/>
<path d="M324.671 550.214C321.511 547.782 318.001 545.698 314.139 544.308C313.086 543.961 312.033 543.614 311.331 543.266C310.278 542.919 309.224 542.571 308.171 542.571C307.118 542.224 306.065 542.224 305.012 542.224H301.852C299.044 542.224 296.586 542.572 294.129 543.266V549.519C296.586 548.824 299.395 548.13 301.852 548.13C308.873 548.13 315.192 551.256 320.809 555.772C323.618 557.856 326.075 560.288 328.533 563.067C328.533 563.414 328.884 563.414 328.884 563.762H334.501V559.593C331.341 555.772 328.182 552.993 324.671 550.214Z" fill="white"/>
<path d="M334.146 541.87C331.338 539.091 328.178 536.312 325.019 533.533C321.508 531.101 317.997 528.669 313.785 526.932L310.625 525.89C309.572 525.543 308.168 525.543 307.115 525.196C305.71 524.848 304.657 524.848 303.604 524.848H302.2C301.849 524.848 302.2 524.848 301.498 524.848H301.147H300.445C299.391 524.848 297.987 524.848 296.934 525.196L293.774 525.89V531.796C294.125 531.796 294.477 531.448 294.828 531.448L297.636 530.754C298.689 530.406 299.391 530.754 300.445 530.406H301.147H301.498H302.902C303.955 530.406 305.008 530.406 305.71 530.754C306.413 531.101 307.466 531.101 308.168 531.448L310.625 532.491C314.136 533.88 317.295 535.964 320.104 538.396C325.019 542.565 329.582 547.428 333.444 552.291L334.146 541.87Z" fill="white"/>
<path d="M325.022 516.506C321.511 514.075 318.001 511.643 313.788 509.906L310.629 508.864C309.575 508.517 308.171 508.517 307.118 508.169C306.065 507.822 305.012 507.822 303.959 507.822H302.554C302.203 507.822 302.554 507.822 301.852 507.822H301.501H300.799C299.746 507.822 298.342 507.822 297.288 508.169L294.129 508.864V514.422C294.48 514.422 294.831 514.075 295.182 514.075L297.991 513.38C299.044 513.032 299.746 513.38 300.799 513.032H301.501H301.852C301.501 513.032 301.852 513.032 302.203 513.032H303.607C304.661 513.032 305.714 513.032 306.416 513.38C307.118 513.727 308.171 513.727 308.873 514.075L311.682 515.117C315.192 516.506 318.352 518.591 321.511 521.022C326.426 525.191 330.639 529.707 334.852 534.57V524.843C331.341 522.064 328.182 518.938 325.022 516.506Z" fill="white"/>
<path d="M324.668 499.15C321.157 496.719 317.646 494.287 313.434 492.55L310.274 491.508C309.221 491.161 307.817 491.161 306.764 490.813C305.71 490.466 304.657 490.466 303.604 490.466H302.2C301.849 490.466 302.2 490.466 301.498 490.466H301.147H300.445C299.391 490.466 297.987 490.466 296.934 490.813L293.774 491.508V496.719C294.125 496.719 294.477 496.371 294.828 496.371L297.636 495.677C298.689 495.329 299.391 495.677 300.445 495.329H301.147H301.498C301.147 495.329 301.498 495.329 301.849 495.329H303.253C304.306 495.329 305.359 495.329 306.061 495.677C306.764 496.024 307.817 496.024 308.519 496.371L311.327 497.413C314.838 498.803 317.997 500.887 321.157 503.319C326.072 507.14 330.284 512.003 334.146 516.867V507.835C331.338 505.056 328.178 501.929 324.668 499.15Z" fill="white"/>
<path d="M324.677 489.068C328.187 492.195 331.347 496.016 334.506 499.837V491.153C333.804 490.458 333.102 489.763 332.4 489.068H324.677Z" fill="white"/>
<path d="M238.652 502.624V563.068H279.024V502.276L248.131 502.624H238.652Z" fill="white"/>
<path d="M220.049 445.647C187.401 445.647 160.721 470.659 160.721 501.923V563.062H201.444V502.618H239.007H248.485H279.378C279.027 471.006 252.698 445.647 220.049 445.647Z" fill="#FFC700"/>
<path d="M554.587 300.786H595.31V418.201H554.587V300.786Z" fill="#FF4575"/>
<path d="M520.54 300.786H479.817V359.493H520.54V300.786Z" fill="#FFAEC1"/>
<path d="M479.817 362.274V418.202H520.54V362.274V359.495H479.817V362.274Z" fill="white"/>
<path d="M527.91 341.084C525.452 342.821 522.644 344.558 520.187 346.295V352.895C525.803 348.727 531.42 344.906 537.037 341.084H527.91Z" fill="#0025FF"/>
<path d="M525.452 362.27C532.122 356.364 539.495 351.153 546.867 345.943L552.484 342.122L554.239 340.732H545.463C537.388 345.943 529.314 351.501 521.591 357.754C521.24 358.101 520.538 358.448 520.187 359.143V367.133C521.942 365.743 523.697 364.006 525.452 362.27Z" fill="#0025FF"/>
<path d="M533.532 371.654C536.341 368.18 539.149 365.054 542.66 362.275C549.33 356.369 556.702 351.158 564.074 345.948C566.532 344.211 568.989 342.821 571.446 341.084H563.372C554.947 346.295 546.872 351.853 539.149 358.453C535.639 361.58 532.128 364.706 529.319 368.18C526.16 371.654 523.703 375.822 521.947 380.338H528.266C529.671 377.212 531.426 374.433 533.532 371.654Z" fill="#0025FF"/>
<path d="M560.218 362.271C566.537 356.366 573.91 350.808 581.282 345.25C583.739 343.513 585.846 341.776 588.303 340.039L580.58 340.386C572.505 345.944 564.431 351.85 557.059 358.45C553.548 361.577 550.389 365.05 547.58 368.524C544.772 371.998 542.314 376.167 540.91 380.683L546.527 380.335C547.931 377.209 549.687 374.082 551.793 371.303C553.899 368.524 557.059 365.398 560.218 362.271Z" fill="#0025FF"/>
<path d="M577.415 361.924C583.032 357.061 589 352.545 595.319 348.376V343.513C588.297 348.376 580.925 353.24 574.255 358.798C570.745 361.924 567.234 365.051 564.425 368.525C561.617 371.998 558.809 376.167 557.404 380.335H562.67C565.83 373.388 571.447 367.482 577.415 361.924Z" fill="#0025FF"/>
<path d="M594.618 361.926C594.969 361.926 594.969 361.578 595.32 361.578V356.02C594.267 357.062 592.863 357.757 591.81 358.799C588.299 361.926 584.789 365.052 581.98 368.526C579.172 372 576.714 375.821 574.959 380.337H579.874C581.278 377.21 583.384 374.084 585.491 371.305C588.299 367.831 591.459 365.052 594.618 361.926Z" fill="#0025FF"/>
<path d="M595.321 374.43C594.268 376.167 593.215 378.251 592.513 380.335H595.321V374.43Z" fill="#0025FF"/>
<path d="M467.555 418.201C434.907 418.201 408.227 391.8 408.227 359.493C408.227 327.187 434.556 300.786 467.555 300.786V418.201Z" fill="#FFD338"/>
<path d="M341.866 301.129C358.366 301.129 373.11 307.729 383.642 318.15C372.759 307.382 358.015 300.781 341.866 301.129Z" fill="#D1A537"/>
<path d="M341.513 418.545C357.662 418.545 372.407 411.945 383.289 401.524C383.289 401.524 313.078 359.491 313.429 359.838H282.185C282.536 392.144 308.865 418.545 341.513 418.545Z" fill="#FF4575"/>
<path d="M401.192 359.487C401.192 343.16 394.522 328.57 383.991 318.149C373.459 307.727 358.363 301.127 342.215 301.127C309.566 301.127 282.886 327.181 282.886 359.834H314.13L401.192 359.487Z" fill="#FFAEC1"/>
<path d="M215.14 301.14H255.862V418.555H215.14V301.14Z" fill="#FF4575"/>
<path d="M274.464 322.676V362.972H160.721V322.676H274.464Z" fill="white"/>
</g>
<defs>
<clipPath id="clip0_1_92">
<rect width="436" height="264" fill="white" transform="translate(160 300)"/>
</clipPath>
</defs>
</svg>
