<svg width="360" height="218" viewBox="0 0 360 218" fill="none" xmlns="http://www.w3.org/2000/svg">
<g clip-path="url(#clip0_1_661)">
<path d="M327.857 169.031C327.857 169.317 327.857 169.605 327.857 169.605C327.857 179.357 320.03 187.102 310.175 187.102C300.319 187.102 292.493 179.357 292.493 169.605C292.493 169.317 292.493 169.031 292.493 169.031H260.898C261.188 195.708 282.928 217.222 310.175 217.222C337.133 217.222 359.162 195.708 359.452 169.031H327.857Z" fill="#FF4575"/>
<path d="M359.455 168.468C359.158 168.764 359.158 168.764 359.455 168.468C359.158 168.764 359.455 168.764 359.455 168.468Z" fill="#FF0055"/>
<path d="M359.165 168.748C358.876 141.783 337.135 120.269 309.888 120.269C282.93 120.269 260.901 141.783 260.611 168.46C260.611 168.46 260.611 168.46 260.611 168.748C260.611 168.748 260.611 168.748 260.611 169.034H292.496C292.786 159.855 300.613 152.397 310.178 152.397C319.744 152.397 327.28 159.855 327.859 169.034L359.165 168.748Z" fill="#FFC700"/>
<path d="M250.75 168.745C250.75 195.423 229.01 217.224 201.763 217.224C174.806 217.224 152.775 195.423 152.775 168.745C152.775 142.068 174.516 120.268 201.763 120.268C215.097 120.268 227.271 125.718 236.257 134.324C236.257 134.324 177.994 169.319 178.574 168.745H250.75Z" fill="white"/>
<path d="M110.457 120.269H144.082V217.225H110.457V120.269Z" fill="#FFAEC1"/>
<path d="M121.181 213.781C120.311 213.781 119.731 213.495 118.862 213.495H116.833C114.514 213.495 112.485 213.781 110.456 214.355V217.224H130.747C129.007 216.363 127.268 215.503 125.529 214.929C124.079 214.355 122.63 214.069 121.181 213.781Z" fill="white"/>
<path d="M135.967 206.616C133.358 204.608 130.459 202.887 127.271 201.739C126.401 201.452 125.532 201.166 124.952 200.879C124.083 200.592 123.212 200.305 122.343 200.305C121.474 200.018 120.604 200.018 119.735 200.018H117.125C114.807 200.018 112.777 200.305 110.749 200.879V206.042C112.777 205.468 115.097 204.895 117.125 204.895C122.923 204.895 128.14 207.476 132.778 211.205C135.097 212.926 137.126 214.935 139.156 217.229C139.156 217.516 139.445 217.516 139.445 217.803H144.083V214.361C141.474 211.205 138.866 208.911 135.967 206.616Z" fill="white"/>
<path d="M143.79 199.726C141.472 197.431 138.863 195.136 136.254 192.842C133.355 190.833 130.456 188.825 126.978 187.391L124.369 186.53C123.5 186.244 122.341 186.244 121.471 185.957C120.311 185.67 119.442 185.67 118.572 185.67H117.413C117.123 185.67 117.413 185.67 116.833 185.67H116.543H115.964C115.093 185.67 113.934 185.67 113.065 185.957L110.456 186.53V191.407C110.745 191.407 111.036 191.12 111.326 191.12L113.644 190.547C114.514 190.259 115.093 190.547 115.964 190.259H116.543H116.833H117.992C118.862 190.259 119.731 190.259 120.311 190.547C120.891 190.833 121.761 190.833 122.341 191.12L124.369 191.981C127.268 193.128 129.877 194.849 132.196 196.857C136.254 200.3 140.022 204.316 143.211 208.331L143.79 199.726Z" fill="white"/>
<path d="M136.257 178.781C133.358 176.774 130.459 174.766 126.981 173.331L124.373 172.471C123.502 172.184 122.343 172.184 121.474 171.897C120.604 171.61 119.735 171.61 118.865 171.61H117.705C117.415 171.61 117.705 171.61 117.125 171.61H116.836H116.256C115.387 171.61 114.227 171.61 113.357 171.897L110.749 172.471V177.06C111.038 177.06 111.328 176.774 111.618 176.774L113.937 176.2C114.807 175.913 115.387 176.2 116.256 175.913H116.836H117.125C116.836 175.913 117.125 175.913 117.415 175.913H118.575C119.445 175.913 120.314 175.913 120.894 176.2C121.474 176.486 122.343 176.486 122.923 176.774L125.242 177.634C128.14 178.781 130.749 180.503 133.358 182.51C137.416 185.953 140.895 189.682 144.373 193.698V185.666C141.474 183.371 138.866 180.789 136.257 178.781Z" fill="white"/>
<path d="M135.964 164.45C133.065 162.442 130.166 160.434 126.689 159L124.079 158.139C123.21 157.853 122.051 157.853 121.181 157.565C120.311 157.279 119.442 157.279 118.572 157.279H117.413C117.123 157.279 117.413 157.279 116.833 157.279H116.543H115.964C115.093 157.279 113.934 157.279 113.065 157.565L110.456 158.139V162.442C110.745 162.442 111.036 162.155 111.326 162.155L113.644 161.582C114.514 161.294 115.093 161.582 115.964 161.294H116.543H116.833C116.543 161.294 116.833 161.294 117.123 161.294H118.282C119.152 161.294 120.021 161.294 120.601 161.582C121.181 161.868 122.051 161.868 122.63 162.155L124.949 163.015C127.848 164.163 130.456 165.884 133.065 167.892C137.124 171.047 140.601 175.063 143.79 179.08V171.621C141.472 169.327 138.863 166.744 135.964 164.45Z" fill="white"/>
<path d="M135.972 156.125C138.87 158.707 141.479 161.862 144.087 165.017V157.846C143.508 157.272 142.928 156.698 142.349 156.125H135.972Z" fill="white"/>
<path d="M64.9423 167.318V217.23H98.2767V167.031L72.7686 167.318H64.9423Z" fill="white"/>
<path d="M49.5822 120.269C22.6248 120.269 0.595093 140.923 0.595093 166.739V217.225H34.2194V167.313H65.2349H73.0612H98.569C98.2792 141.209 76.5396 120.269 49.5822 120.269Z" fill="#FFC700"/>
<path d="M325.806 0.648926H359.43V97.6051H325.806V0.648926Z" fill="#FF4575"/>
<path d="M297.694 0.648926H264.069V49.1269H297.694V0.648926Z" fill="#FFAEC1"/>
<path d="M264.069 51.4233V97.6061H297.694V51.4233V49.1284H264.069V51.4233Z" fill="white"/>
<path d="M303.779 33.9258C301.749 35.36 299.431 36.7943 297.402 38.2286V43.6787C302.039 40.2365 306.677 37.0812 311.315 33.9258H303.779Z" fill="#0025FF"/>
<path d="M301.749 51.4196C307.257 46.5432 313.344 42.2403 319.431 37.9375L324.069 34.7822L325.518 33.6348H318.272C311.605 37.9375 304.938 42.5272 298.561 47.6906C298.272 47.9774 297.692 48.2642 297.402 48.838V55.4355C298.851 54.2881 300.3 52.8539 301.749 51.4196Z" fill="#0025FF"/>
<path d="M308.421 59.1687C310.74 56.3002 313.059 53.7185 315.958 51.4237C321.465 46.5472 327.552 42.2445 333.639 37.9417C335.669 36.5074 337.697 35.36 339.726 33.9258H333.059C326.103 38.2286 319.436 42.8182 313.059 48.2684C310.161 50.85 307.262 53.4317 304.942 56.3002C302.334 59.1687 300.305 62.6109 298.855 66.34H304.073C305.233 63.7583 306.682 61.4636 308.421 59.1687Z" fill="#0025FF"/>
<path d="M330.455 51.421C335.673 46.5445 341.761 41.9549 347.848 37.3653C349.876 35.931 351.616 34.4968 353.645 33.0625L347.268 33.3493C340.6 37.9389 333.934 42.8154 327.847 48.2656C324.948 50.8473 322.34 53.7159 320.02 56.5844C317.702 59.4529 315.672 62.8951 314.513 66.6242L319.151 66.3373C320.31 63.7557 321.76 61.1739 323.499 58.8792C325.238 56.5844 327.847 54.0026 330.455 51.421Z" fill="#0025FF"/>
<path d="M344.655 51.1343C349.292 47.1184 354.22 43.3893 359.438 39.9471V35.9312C353.64 39.9471 347.553 43.963 342.045 48.5526C339.147 51.1343 336.248 53.716 333.929 56.5845C331.61 59.453 329.292 62.8952 328.132 66.3374H332.48C335.089 60.6004 339.727 55.7239 344.655 51.1343Z" fill="#0025FF"/>
<path d="M358.859 51.1353C359.149 51.1353 359.149 50.8484 359.439 50.8484V46.2588C358.569 47.1194 357.41 47.693 356.541 48.5537C353.642 51.1353 350.743 53.717 348.424 56.5855C346.106 59.454 344.076 62.6094 342.627 66.3384H346.685C347.844 63.7568 349.583 61.1751 351.323 58.8803C353.642 56.0117 356.251 53.7169 358.859 51.1353Z" fill="#0025FF"/>
<path d="M359.439 61.4609C358.57 62.8952 357.7 64.6163 357.121 66.3374H359.439V61.4609Z" fill="#0025FF"/>
<path d="M253.945 97.6051C226.987 97.6051 204.958 75.8042 204.958 49.1269C204.958 22.4496 226.698 0.648926 253.945 0.648926V97.6051Z" fill="#FFD338"/>
<path d="M150.165 0.93218C163.788 0.93218 175.962 6.38237 184.659 14.9879C175.673 6.09552 163.499 0.64533 150.165 0.93218Z" fill="#D1A537"/>
<path d="M149.873 97.8896C163.207 97.8896 175.382 92.4396 184.367 83.8344C184.367 83.8344 126.395 49.1251 126.685 49.4119H100.887C101.177 76.0892 122.916 97.8896 149.873 97.8896Z" fill="#FF4575"/>
<path d="M199.149 49.1218C199.149 35.6398 193.642 23.592 184.947 14.9864C176.25 6.38085 163.786 0.930664 150.453 0.930664C123.495 0.930664 101.465 22.4446 101.465 49.4086H127.263L199.149 49.1218Z" fill="#FFAEC1"/>
<path d="M45.5281 0.941406H79.1524V97.8976H45.5281V0.941406Z" fill="#FF4575"/>
<path d="M94.5116 18.7246V51.9994H0.595093V18.7246H94.5116Z" fill="white"/>
</g>
<defs>
<clipPath id="clip0_1_661">
<rect width="360" height="218" fill="white"/>
</clipPath>
</defs>
</svg>
