<?xml version="1.0" standalone="no"?>
<!DOCTYPE svg PUBLIC "-//W3C//DTD SVG 20010904//EN"
 "http://www.w3.org/TR/2001/REC-SVG-20010904/DTD/svg10.dtd">
<svg version="1.0" xmlns="http://www.w3.org/2000/svg"
 width="500.000000pt" height="500.000000pt" viewBox="0 0 500.000000 500.000000"
 preserveAspectRatio="xMidYMid meet">
<metadata>
Created by potrace 1.14, written by Peter Selinger 2001-2017
</metadata>
<g transform="translate(0.000000,500.000000) scale(0.100000,-0.100000)"
fill="#000000" stroke="none">
<path d="M990 2935 l0 -675 610 0 610 0 0 145 0 145 -420 0 -420 0 0 530 0
530 -190 0 -190 0 0 -675z"/>
<path d="M2330 2935 l0 -675 493 0 c278 0 529 4 577 10 206 26 346 86 461 200
128 126 173 249 173 465 0 210 -47 338 -169 460 -81 82 -168 131 -297 169
-137 39 -244 46 -758 46 l-480 0 0 -675z m1012 391 c192 -41 305 -162 324
-348 17 -177 -64 -332 -210 -398 -96 -44 -156 -50 -468 -50 l-288 0 0 405 0
405 288 0 c208 0 305 -4 354 -14z"/>
<path d="M1485 2088 c32 -70 56 -74 80 -16 l17 43 19 -42 c25 -59 50 -58 75 4
11 27 21 51 22 55 2 5 -3 8 -12 8 -10 0 -23 -17 -33 -42 l-17 -42 -17 42 c-23
54 -52 57 -69 7 -6 -19 -15 -35 -20 -35 -5 0 -14 16 -21 35 -8 22 -20 35 -31
35 -15 0 -15 -5 7 -52z"/>
<path d="M1710 2085 l0 -55 60 0 c33 0 60 4 60 10 0 6 -20 10 -45 10 -33 0
-45 4 -45 15 0 11 11 15 41 15 24 0 38 4 34 10 -3 6 -22 10 -41 10 -19 0 -34
5 -34 10 0 6 18 10 40 10 22 0 40 5 40 10 0 6 -25 10 -55 10 l-55 0 0 -55z"/>
<path d="M1840 2085 l0 -55 54 0 c56 0 85 17 70 42 -4 7 -8 24 -8 38 -1 23 -5
25 -58 28 l-58 3 0 -56z m88 23 c-7 -20 -58 -23 -58 -4 0 11 10 16 31 16 20 0
29 -4 27 -12z m7 -43 c0 -5 -15 -11 -32 -13 -25 -3 -33 1 -33 13 0 12 8 16 33
13 17 -2 32 -7 32 -13z"/>
<path d="M2020 2085 l0 -55 48 0 c56 0 92 21 92 54 0 37 -30 56 -88 56 l-52 0
0 -55z m101 19 c19 -23 -1 -48 -40 -52 -30 -3 -31 -2 -31 32 0 33 2 36 29 36
16 0 34 -7 42 -16z"/>
<path d="M2170 2085 l0 -55 60 0 c33 0 60 4 60 10 0 6 -20 10 -45 10 -33 0
-45 4 -45 15 0 11 11 15 40 15 22 0 40 5 40 10 0 6 -18 10 -40 10 -57 0 -50
17 9 22 l50 3 22 -47 c30 -63 51 -63 84 2 29 57 29 60 12 60 -7 0 -22 -19 -34
-42 l-20 -43 -22 43 -21 42 -75 0 -75 0 0 -55z"/>
<path d="M2450 2085 l0 -55 55 0 c30 0 55 5 55 10 0 6 -18 10 -40 10 -29 0
-40 4 -40 15 0 10 11 15 35 15 19 0 35 5 35 10 0 6 -16 10 -35 10 -19 0 -35 5
-35 10 0 6 18 10 40 10 22 0 40 5 40 10 0 6 -25 10 -55 10 l-55 0 0 -55z"/>
<path d="M2570 2085 l0 -55 50 0 c28 0 50 5 50 10 0 6 -16 10 -35 10 -35 0
-35 0 -35 45 0 33 -4 45 -15 45 -12 0 -15 -13 -15 -55z"/>
<path d="M2697 2122 c-39 -43 -4 -92 65 -92 50 0 74 25 68 70 -5 41 -102 57
-133 22z m87 -8 c9 -3 16 -17 16 -30 0 -39 -72 -47 -86 -9 -13 32 29 55 70 39z"/>
<path d="M2850 2085 c0 -42 3 -55 15 -55 8 0 15 9 15 19 0 17 8 20 47 23 37 2
49 7 51 21 6 32 -17 47 -74 47 l-54 0 0 -55z m96 24 c3 -6 0 -15 -7 -20 -21
-14 -53 -6 -57 14 -3 13 3 17 27 17 16 0 33 -5 37 -11z"/>
<path d="M2990 2085 l0 -55 60 0 c33 0 60 4 60 10 0 6 -20 10 -45 10 -33 0
-45 4 -45 15 0 11 11 15 40 15 22 0 40 5 40 10 0 6 -18 10 -40 10 -22 0 -40 5
-40 10 0 6 20 10 45 10 25 0 45 5 45 10 0 6 -27 10 -60 10 l-60 0 0 -55z"/>
<path d="M3120 2085 c0 -42 3 -55 15 -55 8 0 15 9 15 20 0 13 7 20 18 20 11 0
27 -9 37 -20 19 -21 55 -27 55 -10 0 6 -6 10 -14 10 -21 0 -25 23 -7 37 12 9
14 16 5 30 -8 13 -26 19 -68 21 l-56 3 0 -56z m95 20 c0 -5 -15 -11 -32 -13
-25 -3 -33 1 -33 13 0 12 8 16 33 13 17 -2 32 -7 32 -13z"/>
<path d="M2330 865 c0 -34 1 -35 38 -34 30 2 32 3 10 6 -16 2 -28 8 -28 13 0
5 12 11 28 13 l27 4 -27 2 c-16 0 -28 5 -28 10 0 5 12 12 28 14 22 3 20 4 -10
6 -37 1 -38 0 -38 -34z"/>
<path d="M2415 890 c-10 -16 4 -30 31 -30 13 0 24 -5 24 -11 0 -8 -11 -9 -32
-5 -24 5 -29 3 -21 -5 16 -16 67 -7 71 14 2 11 -3 17 -15 17 -10 0 -25 5 -33
11 -12 8 -9 10 13 6 15 -2 27 0 27 4 0 12 -57 11 -65 -1z"/>
<path d="M2513 889 c9 -5 17 -21 17 -34 0 -14 5 -25 10 -25 6 0 10 14 10 30 0
20 5 30 15 30 10 0 15 -10 15 -30 0 -27 3 -30 33 -30 43 0 59 12 55 41 -3 23
-7 24 -88 26 -63 2 -80 0 -67 -8z m135 -20 c3 -17 -23 -33 -39 -23 -5 3 -9 14
-9 25 0 15 6 20 22 17 13 -2 24 -10 26 -19z"/>
<path d="M2335 790 c-4 -7 2 -9 19 -4 15 3 26 2 26 -4 0 -5 -11 -13 -25 -16
-14 -4 -25 -13 -25 -21 0 -11 11 -15 43 -13 37 1 38 2 9 5 -34 4 -35 23 -1 23
12 0 19 7 19 20 0 15 -7 20 -29 20 -17 0 -33 -5 -36 -10z"/>
<path d="M2422 783 c-14 -25 3 -53 31 -53 33 0 49 15 45 41 -4 32 -61 40 -76
12z m53 -18 c0 -28 -29 -25 -33 3 -3 19 0 23 15 20 10 -2 18 -12 18 -23z"/>
<path d="M2520 792 c0 -6 9 -8 20 -5 27 7 26 -10 -2 -22 -40 -18 -33 -35 14
-34 29 2 34 3 16 6 -34 5 -37 20 -5 25 35 5 27 32 -10 36 -18 2 -33 -1 -33 -6z"/>
<path d="M2611 776 c-24 -25 -22 -29 21 -40 32 -7 38 0 31 37 -7 33 -23 34
-52 3z m29 -6 c0 -5 -5 -10 -11 -10 -5 0 -7 5 -4 10 3 6 8 10 11 10 2 0 4 -4
4 -10z"/>
</g>
</svg>
