<?xml version="1.0" encoding="UTF-8"?>
<svg xmlns="http://www.w3.org/2000/svg" xmlns:xlink="http://www.w3.org/1999/xlink" viewBox="0 0 60 60" width="60px" height="60px">
<g id="surface413049">
<path style=" stroke:none;fill-rule:nonzero;fill:rgb(85.882354%,22.352941%,55.29412%);fill-opacity:1;" d="M 36.457031 6.261719 C 35.726562 6.246094 35.054688 6.65625 34.734375 7.308594 C 34.410156 7.960938 34.496094 8.742188 34.953125 9.3125 L 48.035156 26.058594 C 48.671875 26.875 49.851562 27.019531 50.667969 26.378906 C 51.484375 25.742188 51.628906 24.5625 50.992188 23.746094 L 37.90625 7 C 37.5625 6.546875 37.027344 6.273438 36.457031 6.261719 Z M 29.234375 13.308594 C 28.4375 13.3125 27.730469 13.820312 27.472656 14.574219 C 27.214844 15.328125 27.457031 16.160156 28.082031 16.65625 L 44.601562 30.03125 C 45.117188 30.46875 45.832031 30.589844 46.46875 30.351562 C 47.105469 30.109375 47.5625 29.546875 47.664062 28.875 C 47.765625 28.203125 47.496094 27.53125 46.957031 27.113281 L 30.445312 13.742188 C 30.105469 13.460938 29.675781 13.304688 29.234375 13.308594 Z M 23.78125 21.785156 C 22.914062 21.816406 22.179688 22.433594 22.003906 23.28125 C 21.828125 24.132812 22.257812 24.992188 23.042969 25.359375 L 42.144531 34.671875 C 42.746094 34.964844 43.460938 34.917969 44.015625 34.542969 C 44.570312 34.167969 44.882812 33.523438 44.835938 32.855469 C 44.789062 32.1875 44.390625 31.59375 43.785156 31.300781 L 24.6875 21.988281 C 24.40625 21.847656 24.09375 21.777344 23.78125 21.789062 Z M 20.5625 31.261719 C 19.59375 31.222656 18.753906 31.933594 18.628906 32.898438 C 18.503906 33.863281 19.140625 34.761719 20.089844 34.96875 L 40.796875 39.75 C 41.457031 39.925781 42.164062 39.726562 42.636719 39.230469 C 43.109375 38.734375 43.273438 38.019531 43.066406 37.367188 C 42.859375 36.714844 42.3125 36.226562 41.636719 36.097656 L 20.933594 31.316406 C 20.8125 31.285156 20.6875 31.269531 20.5625 31.261719 Z M 10.597656 37.472656 C 9.5625 37.488281 8.734375 38.339844 8.75 39.375 L 8.75 49.375 C 8.75 51.769531 10.730469 53.75 13.125 53.75 L 46.875 53.75 C 49.269531 53.75 51.25 51.769531 51.25 49.375 L 51.25 39.375 C 51.257812 38.699219 50.902344 38.070312 50.320312 37.730469 C 49.734375 37.386719 49.015625 37.386719 48.429688 37.730469 C 47.84375 38.070312 47.492188 38.699219 47.5 39.375 L 47.5 49.375 C 47.5 49.742188 47.242188 50 46.875 50 L 13.125 50 C 12.757812 50 12.5 49.742188 12.5 49.375 L 12.5 39.375 C 12.507812 38.867188 12.308594 38.378906 11.949219 38.019531 C 11.589844 37.664062 11.101562 37.464844 10.59375 37.472656 Z M 19.375 41.25 C 18.699219 41.242188 18.070312 41.597656 17.730469 42.179688 C 17.386719 42.765625 17.386719 43.484375 17.730469 44.070312 C 18.070312 44.65625 18.699219 45.007812 19.375 45 L 40.625 45 C 41.300781 45.007812 41.929688 44.65625 42.269531 44.070312 C 42.613281 43.484375 42.613281 42.765625 42.269531 42.179688 C 41.929688 41.597656 41.300781 41.242188 40.625 41.25 Z M 19.375 41.25 "/>
</g>
</svg>
