<?xml version="1.0" encoding="UTF-8"?>
<svg xmlns="http://www.w3.org/2000/svg" xmlns:xlink="http://www.w3.org/1999/xlink" viewBox="0 0 60 60" width="60px" height="60px">
<g id="surface414295">
<path style=" stroke:none;fill-rule:nonzero;fill:rgb(85.882354%,22.352941%,55.29412%);fill-opacity:1;" d="M 30 2.398438 C 14.78125 2.398438 2.398438 14.78125 2.398438 30 C 2.398438 45.21875 14.78125 57.601562 30 57.601562 C 45.21875 57.601562 57.601562 45.21875 57.601562 30 C 57.601562 14.78125 45.21875 2.398438 30 2.398438 Z M 21.601562 42 L 16.800781 42 L 16.800781 24 L 21.601562 24 Z M 19.199219 20.398438 C 17.875 20.398438 16.800781 19.324219 16.800781 18 C 16.800781 16.675781 17.875 15.601562 19.199219 15.601562 C 20.527344 15.601562 21.601562 16.675781 21.601562 18 C 21.601562 19.324219 20.527344 20.398438 19.199219 20.398438 Z M 44.398438 42 L 39.601562 42 L 39.601562 33 C 39.601562 30.691406 37.710938 28.800781 35.398438 28.800781 C 33.089844 28.800781 31.199219 30.691406 31.199219 33 L 31.199219 42 L 26.398438 42 L 26.398438 24 L 31.199219 24 L 31.199219 26.179688 C 32.601562 24.832031 34.503906 24 36.601562 24 C 40.90625 24 44.398438 27.492188 44.398438 31.800781 Z M 44.398438 42 "/>
</g>
</svg>
