<?xml version="1.0" encoding="UTF-8"?>
<svg id="Layer_1" data-name="Layer 1" xmlns="http://www.w3.org/2000/svg" viewBox="0 0 179 48">
  <defs>
    <style>
      .cls-1 {
        fill: #333;
      }

      .cls-1, .cls-2 {
        stroke-width: 0px;
      }

      .cls-2 {
        fill: #f5f5f5;
      }
    </style>
  </defs>
  <path class="cls-2" d="M24,0h131c13.25,0,24,10.75,24,24h0c0,13.25-10.75,24-24,24H24C10.75,48,0,37.25,0,24h0C0,10.75,10.75,0,24,0Z"/>
  <path class="cls-1" d="M24.5,39.99c8.48,0,15.5-7.01,15.5-15.5s-7.02-15.5-15.51-15.5-15.48,7.02-15.48,15.5,7.02,15.5,15.5,15.5ZM15.47,15.06c1.5-1.43,3.32-2.52,5.34-3.12-1.07,1.07-1.97,2.57-2.64,4.39-1.05-.33-1.95-.76-2.7-1.27ZM28.2,11.95c2.01.6,3.82,1.68,5.31,3.11-.73.52-1.63.94-2.68,1.29-.68-1.85-1.58-3.35-2.62-4.4ZM25.55,12.44c1.25.6,2.39,2.22,3.19,4.43-.99.18-2.06.28-3.19.33v-4.76ZM20.25,16.86c.83-2.21,1.95-3.83,3.19-4.43v4.76c-1.14-.05-2.2-.15-3.19-.33ZM11.44,23.45c.21-2.55,1.17-4.91,2.64-6.84.91.68,2.1,1.26,3.48,1.69-.39,1.56-.65,3.3-.72,5.15h-5.4ZM32.15,23.45c-.08-1.85-.33-3.59-.72-5.15,1.38-.43,2.57-1,3.47-1.69,1.49,1.94,2.44,4.29,2.65,6.84h-5.4ZM18.99,23.45c.08-1.64.3-3.2.65-4.61,1.2.24,2.47.39,3.81.45v4.16h-4.45ZM25.55,23.45v-4.16c1.33-.06,2.61-.21,3.81-.45.35,1.41.57,2.97.65,4.61h-4.45ZM11.44,25.55h5.4c.08,1.88.33,3.63.72,5.2-1.36.43-2.54,1-3.44,1.68-1.5-1.95-2.48-4.32-2.69-6.89ZM18.99,25.55h4.45v4.23c-1.32.06-2.61.21-3.8.43-.36-1.42-.6-3.01-.66-4.66ZM25.55,29.77v-4.23h4.45c-.06,1.65-.3,3.24-.66,4.66-1.18-.22-2.46-.38-3.8-.43ZM31.42,30.75c.41-1.58.65-3.33.72-5.2h5.4c-.21,2.57-1.18,4.93-2.68,6.89-.9-.68-2.07-1.25-3.44-1.68ZM25.55,31.88c1.12.04,2.19.15,3.16.33-.81,2.16-1.93,3.76-3.16,4.35v-4.68ZM20.28,32.21c.97-.18,2.04-.29,3.16-.33v4.68c-1.23-.58-2.35-2.19-3.16-4.35ZM15.51,33.97c.74-.51,1.64-.93,2.67-1.26.67,1.8,1.56,3.27,2.59,4.32-1.98-.6-3.78-1.66-5.26-3.06ZM30.81,32.72c1.03.33,1.93.75,2.67,1.26-1.49,1.4-3.29,2.46-5.27,3.06,1.03-1.05,1.92-2.52,2.59-4.32Z"/>
  <path class="cls-1" d="M56.88,17h2.6v11.8h7.32v2.2h-9.92v-14ZM68.61,20.32h2.5v10.68h-2.5v-10.68ZM69.87,18.56c-.45,0-.83-.14-1.14-.42-.31-.29-.46-.65-.46-1.08s.15-.78.46-1.06c.31-.29.69-.44,1.14-.44s.83.14,1.14.42c.31.27.46.61.46,1.02,0,.44-.15.81-.46,1.12-.29.29-.67.44-1.14.44ZM84.39,20.32l-4.58,10.68h-2.58l-4.58-10.68h2.6l3.32,7.92,3.42-7.92h2.4ZM95.7,25.72c0,.17-.01.42-.04.74h-8.38c.15.79.53,1.41,1.14,1.88.63.45,1.4.68,2.32.68,1.17,0,2.14-.39,2.9-1.16l1.34,1.54c-.48.57-1.09,1.01-1.82,1.3-.73.29-1.56.44-2.48.44-1.17,0-2.21-.23-3.1-.7-.89-.47-1.59-1.11-2.08-1.94-.48-.84-.72-1.79-.72-2.84s.23-1.97.7-2.8c.48-.84,1.14-1.49,1.98-1.96.84-.47,1.79-.7,2.84-.7s1.97.23,2.78.7c.83.45,1.47,1.1,1.92,1.94.47.83.7,1.79.7,2.88ZM90.3,22.2c-.8,0-1.48.24-2.04.72-.55.47-.88,1.09-1,1.88h6.06c-.11-.77-.43-1.4-.98-1.88-.55-.48-1.23-.72-2.04-.72ZM114.09,16.16v14.84h-2.4v-1.38c-.41.51-.93.89-1.54,1.14-.6.25-1.27.38-2,.38-1.03,0-1.95-.23-2.78-.68-.81-.45-1.45-1.09-1.92-1.92-.47-.84-.7-1.8-.7-2.88s.23-2.03.7-2.86c.47-.83,1.11-1.47,1.92-1.92.83-.45,1.75-.68,2.78-.68.71,0,1.35.12,1.94.36.59.24,1.09.6,1.5,1.08v-5.48h2.5ZM108.45,29c.6,0,1.14-.13,1.62-.4.48-.28.86-.67,1.14-1.18s.42-1.09.42-1.76-.14-1.25-.42-1.76-.66-.89-1.14-1.16c-.48-.28-1.02-.42-1.62-.42s-1.14.14-1.62.42c-.48.27-.86.65-1.14,1.16s-.42,1.09-.42,1.76.14,1.25.42,1.76.66.9,1.14,1.18c.48.27,1.02.4,1.62.4ZM127.4,25.72c0,.17-.01.42-.04.74h-8.38c.15.79.53,1.41,1.14,1.88.63.45,1.4.68,2.32.68,1.17,0,2.14-.39,2.9-1.16l1.34,1.54c-.48.57-1.09,1.01-1.82,1.3-.73.29-1.56.44-2.48.44-1.17,0-2.21-.23-3.1-.7-.89-.47-1.59-1.11-2.08-1.94-.48-.84-.72-1.79-.72-2.84s.23-1.97.7-2.8c.48-.84,1.14-1.49,1.98-1.96.84-.47,1.79-.7,2.84-.7s1.97.23,2.78.7c.83.45,1.47,1.1,1.92,1.94.47.83.7,1.79.7,2.88ZM122,22.2c-.8,0-1.48.24-2.04.72-.55.47-.88,1.09-1,1.88h6.06c-.11-.77-.43-1.4-.98-1.88-.55-.48-1.23-.72-2.04-.72ZM143.28,20.2c1.35,0,2.41.39,3.2,1.18.79.77,1.18,1.94,1.18,3.5v6.12h-2.5v-5.8c0-.93-.21-1.63-.62-2.1-.41-.48-1.01-.72-1.78-.72-.84,0-1.51.28-2.02.84-.51.55-.76,1.33-.76,2.36v5.42h-2.5v-5.8c0-.93-.21-1.63-.62-2.1-.41-.48-1.01-.72-1.78-.72-.85,0-1.53.27-2.04.82-.49.55-.74,1.34-.74,2.38v5.42h-2.5v-10.68h2.38v1.36c.4-.48.9-.85,1.5-1.1.6-.25,1.27-.38,2-.38.8,0,1.51.15,2.12.46.63.29,1.12.73,1.48,1.32.44-.56,1.01-.99,1.7-1.3.69-.32,1.46-.48,2.3-.48ZM155.76,31.14c-1.08,0-2.05-.23-2.92-.7-.87-.47-1.55-1.11-2.04-1.94-.48-.84-.72-1.79-.72-2.84s.24-1.99.72-2.82c.49-.83,1.17-1.47,2.04-1.94.87-.47,1.84-.7,2.92-.7s2.07.23,2.94.7c.87.47,1.54,1.11,2.02,1.94.49.83.74,1.77.74,2.82s-.25,2-.74,2.84c-.48.83-1.15,1.47-2.02,1.94-.87.47-1.85.7-2.94.7ZM155.76,29c.92,0,1.68-.31,2.28-.92.6-.61.9-1.42.9-2.42s-.3-1.81-.9-2.42c-.6-.61-1.36-.92-2.28-.92s-1.68.31-2.28.92c-.59.61-.88,1.42-.88,2.42s.29,1.81.88,2.42c.6.61,1.36.92,2.28.92Z"/>
</svg>