<?xml version="1.0" encoding="utf-8"?>
<!-- Generator: Adobe Illustrator 28.3.0, SVG Export Plug-In . SVG Version: 6.00 Build 0)  -->
<svg version="1.1" id="Layer_1" xmlns="http://www.w3.org/2000/svg" xmlns:xlink="http://www.w3.org/1999/xlink" x="0px" y="0px"
	 viewBox="0 0 750 749.9" style="enable-background:new 0 0 750 749.9;" xml:space="preserve">
<path d="M677.8,338c0.6,11.5,2,22.9,1.9,34.4c-0.3,86.4-30.7,160.4-92.3,220.9c-47.9,47.1-105.8,75.1-172.5,83.7
	c-71,9.2-137.3-4.9-198.7-41.9c-3.2-1.9-5.9-1.5-9-0.8c-38.5,9-77.1,18-115.6,27c-1.3,0.3-2.5,0.8-4.2,0.3
	c4-17.3,8.1-34.5,12.1-51.8c4.9-21.2,8.6-42.8,14.9-63.5c3.3-10.7-2.8-16.6-6.7-23.7c-6.4-12.2-12.1-24.7-17.2-37.5
	c-9.1-22.6-14.4-46.2-17.7-70.3c-0.2-1.3-0.6-2.6-0.8-3.9c-0.6-11-1.6-21.9-1.7-32.9c-0.3-71.1,21.3-134.8,64.8-191.1
	c10.8-14,22.5-27.4,35.8-38.9c43-37.2,92-62.6,148.3-72.7c58.8-10.6,116.5-5.9,171.4,17.9C591.7,137.1,653.4,213.4,675,321.8
	C676.1,327.1,676.9,332.6,677.8,338z"/>
<path d="M42.6,292.9c-9.9-2.4-19.8-4.9-29.6-7.3c-2.5-0.6-1.7-2.3-1.3-4c4.2-16.9,9.3-33.5,15.9-49.5c6.8-16.4,14.7-32.3,23.6-47.6
	c1.8-3.1,3.1-3.4,6.1-1.5c7.9,5,15.9,9.6,23.9,14.3c2.3,1.3,2.9,2.3,1.4,4.9c-16.3,27.3-28.3,56.5-36.3,87.2
	C45.7,291.5,45.6,293.7,42.6,292.9z"/>
<path d="M37.4,411.1c0.4,3.8,0.8,7.6,1.4,11.3c0.4,2.3,0.1,3.7-2.6,4.1c-9.7,1.4-19.3,2.9-29,4.4c-2.4,0.4-3.2-0.5-3.5-2.8
	c-0.7-5.8-1.5-11.5-2.3-17.2c-1-17.4-1.8-34.8-1.1-52.3c0.5-11.8,1.8-23.5,3.1-35.2c0.4-4,2-4.8,5.8-4.1c8.3,1.5,16.7,2.7,25.1,3.8
	c3.5,0.5,5,1.3,4.4,5.6C34.7,356,33.9,383.5,37.4,411.1z"/>
<path d="M707.2,293c-3.5,0.4-3.1-2.2-3.6-4c-5.8-22.1-13.7-43.4-23.8-63.9c-3.8-7.7-8-15.3-12.4-22.8c-1.4-2.5-1.2-3.5,1.2-5
	c8.2-4.9,16.3-9.8,24.2-15c2.4-1.6,3.4-1.1,4.6,1c16.6,28.2,29.5,58,38.2,89.4c1.1,4,4.6,8.9,2.2,12c-2.1,2.6-7.6,2.4-11.7,3.4
	C719.8,289.8,713.3,291.5,707.2,293z"/>
<path d="M293.1,43.4c0.2,2.6-2.1,2.4-3.7,2.8C267.3,52,246,59.8,225.5,70c-7.7,3.8-15.3,8-22.8,12.3c-2.5,1.4-3.8,1.7-5.4-1.1
	c-4.7-8.2-9.6-16.3-14.7-24.4c-1.3-2.2-1.3-3.3,1-4.7c30.9-18.1,63.5-31.8,98.2-40.6c2.2-0.6,3.4-0.3,4,2.1
	c2.2,9.4,4.6,18.7,6.9,28.1C292.9,42.2,293,42.7,293.1,43.4z"/>
<path d="M466.2,11.2c1.8,0.4,3.5,0.8,5.1,1.2c32.9,8.8,64.1,21.8,93.6,39c3.4,2,3.8,3.4,1.7,6.7c-4.8,7.4-9.3,15-13.7,22.6
	c-1.5,2.5-2.5,3.5-5.6,1.7c-27.2-16.1-56.1-28.1-86.7-36c-3.5-0.9-4.2-2.2-3.3-5.5c2.4-8.8,4.5-17.7,6.7-26.6
	C464.3,12.8,464.2,11.1,466.2,11.2z"/>
<path d="M100.7,173c-0.7-0.5-1.5-1-2.3-1.6c-7.9-5.8-15.8-11.7-23.9-17.3c-2.5-1.7-1-2.4,0-3.8c8.6-11.6,18.1-22.6,28-33.1
	c14.3-15.1,29.8-28.9,46.4-41.6c2.8-2.2,4.3-2.4,6.5,0.8c4.9,7.3,10.3,14.3,15.7,21.3c2,2.6,2.3,4.1-0.6,6.3
	c-25.4,19-47.5,41.2-66.6,66.5C103,171.5,102.5,172.9,100.7,173z"/>
<path d="M597.8,73.4c0.8,0.5,1.7,1,2.4,1.6c27.1,20.6,51.3,44.1,71.8,71.4c4.7,6.3,4.7,6.4-1.6,11c-6.2,4.5-12.4,8.9-18.4,13.7
	c-2.8,2.2-4.2,1.8-6.2-1c-18.1-24.1-39.1-45.3-62.9-63.7c-7.2-5.6-7-5.4-1-12.8c4.6-5.7,8.7-11.7,13.1-17.6
	C595.7,75.1,596.2,73.7,597.8,73.4z"/>
<path d="M319,6.5c-0.8-3.2,2.2-2.8,4.1-3c13.4-1.8,26.8-3.1,40.2-3.4c20.6-0.5,41.2,0.4,61.7,3.1c6.4,0.8,6.3,0.8,5.3,7.3
	c-1.3,8.2-2.5,16.4-3.6,24.7c-0.4,3.1-1.5,4-4.8,3.5c-31.3-4.6-62.6-4.5-93.9-0.1c-2,0.3-4,1.1-4.4-2.1
	C322.1,26.6,320.5,16.8,319,6.5z"/>
<path d="M748,338c1.8,17.4,2.5,34.8,1.6,52.2c-0.6,12.3-1.3,24.5-3.1,36.7c-0.5,3.3-1.5,4.5-5.1,3.9c-8.7-1.5-17.4-2.9-26.2-4
	c-4-0.5-4.5-2.1-4-5.8c3.8-27.6,4.4-55.4,1.1-83.1c-0.2-2.6-0.4-5.3-0.8-7.9c-0.8-6.2-0.8-6,5.6-7c7.2-1.2,14.4-1.7,21.4-3.7
	c5.3-1.5,7.2,0,8,5.5C747.3,329.1,747.6,333.5,748,338z"/>
<path d="M48.3,738.2c-22.7,1.3-40.8-20-35.9-42.5c5.1-23.2,10.8-46.2,16-69.3c0.7-3,1.8-4.2,5-3.4c9,2.3,18.1,4.5,27.2,6.4
	c2.8,0.6,3.2,1.6,2.6,4.3c-5.1,21-10,42.2-15,63.2c-1.3,5.4-1.1,5.7,4.3,4.4c20.5-4.8,41-9.4,61.4-14.4c4.7-1.2,6.2-0.2,7.1,4.6
	c1.4,8.2,3.6,16.2,5.6,24.3c0.8,3.1,0.5,4.7-3.2,5.6c-23.2,5.2-46.3,10.7-69.5,16.1C52.1,738,50,738,48.3,738.2z"/>
<path d="M200.2,667c1.6-0.2,2.8,0.8,4.1,1.6c26.8,15.5,55.1,27.2,85.1,35c3.5,0.9,4.1,2.2,3.3,5.5c-2.3,8.5-4.6,17-6.4,25.7
	c-0.8,3.9-2.3,4.2-5.7,3.3c-28.1-7.3-55-17.8-80.7-31.4c-2.9-1.5-5.4-1.9-8.5-1.1c-9.4,2.4-18.9,4.2-28.1,6.7
	c-3.9,1-4.8-0.1-5.5-3.6c-1.8-8.8-4-17.5-6.1-26.2c-0.5-2.2-0.9-3.8,2-4.5c15.2-3.5,30.5-7.1,45.7-10.6
	C199.5,667.2,199.8,667.1,200.2,667z"/>
<path d="M37.4,588.3c2.3-9.8,4.5-19.9,7-29.9c0.7-2.9,0.5-5.3-0.9-8c-11.2-21-20.1-43-27.3-65.7c-1.9-5.9-3.5-11.8-5.1-17.8
	c-0.5-1.8-0.3-2.3,1.3-2.7c9.7-2.4,19.4-4.8,29.2-7.2c2.5-0.6,3.8,0.3,4.5,3.1c7.8,30,19.2,58.5,34.9,85.1c1.3,2.2,1.8,4.2,1.1,6.9
	c-3.5,14.1-6.7,28.3-9.8,42.5c-0.7,3.5-1.6,4.7-5.5,3.6c-8.8-2.4-17.8-4.3-26.7-6.3C38.2,591.5,36.4,591.2,37.4,588.3z"/>
<path d="M648.6,576.6c1,0.6,1.8,1.1,2.6,1.7c7.7,5.6,15.2,11.3,23,16.8c2.2,1.6,2.6,2.7,0.8,5c-21.5,28.4-46.5,53.4-75,75
	c-2.5,1.9-3.5,1.2-5-1c-5.4-7.6-10.9-15.1-16.6-22.5c-1.9-2.5-1.6-3.7,0.8-5.5c24.8-19.8,47.9-41.3,67-66.9
	C646.9,578.3,647.7,577.5,648.6,576.6z"/>
<path d="M707.3,456.9c9.8,2.4,19.5,4.8,29.2,7.1c3.2,0.8,2.1,2.7,1.6,4.6c-7,27.9-17.3,54.5-30.6,79.9c-3,5.8-6.4,11.3-9.4,17
	c-1.4,2.6-2.5,3.3-5.2,1.5c-8-5.1-16.2-9.9-24.3-14.7c-2.1-1.2-2.7-2.1-1.3-4.6c16.5-27.6,28.6-57,36.6-88.2
	C704.3,457.7,705,456.1,707.3,456.9z"/>
<path d="M467.7,738.4c-2.8,0.8-3.2-0.5-3.6-1.8c-2.4-9.5-4.7-19.1-7.1-28.5c-0.9-3.5,1.3-3.8,3.7-4.4c19.8-5.2,39.1-12,57.6-20.7
	c9.8-4.6,19.5-9.5,28.7-15.2c3.1-1.9,4.3-1.3,6,1.6c4.5,7.9,9.3,15.8,14.2,23.5c1.4,2.3,1.5,3.5-1,5c-30.8,18-63.3,31.6-97.9,40.4
	C467.7,738.3,467.3,738.5,467.7,738.4z"/>
<path d="M374.6,749.8c-16.9,0.4-33.5-1.3-50.3-3.1c-4.8-0.5-5.9-2.2-4.9-7c1.7-8,2.6-16.1,3.6-24.2c0.5-3.5,1.3-5,5.6-4.3
	c31,4.5,62,4.5,93,0c3.5-0.5,4.7,0.3,5.2,3.7c1.2,8.9,2.5,17.8,4.1,26.6c0.8,4.2-1.5,4.7-4.5,5C409.1,748.6,391.9,750.3,374.6,749.8
	z"/>
</svg>
