<?xml version="1.0" encoding="UTF-8"?>
<svg id="Layer_1" data-name="Layer 1" xmlns="http://www.w3.org/2000/svg" viewBox="0 0 219 48">
  <defs>
    <style>
      .cls-1 {
        fill: #fff;
      }

      .cls-1, .cls-2 {
        stroke-width: 0px;
      }

      .cls-2 {
        fill: #eb5577;
      }
    </style>
  </defs>
  <path class="cls-2" d="M24,0h171c13.25,0,24,10.75,24,24h0c0,13.25-10.75,24-24,24H24C10.75,48,0,37.25,0,24h0C0,10.75,10.75,0,24,0Z"/>
  <path class="cls-1" d="M18.65,33.77c0-.13-.13-.26-.32-.26s-.32.13-.32.26.13.26.32.2c.19,0,.32-.07.32-.2ZM16.65,33.44c0,.13.13.33.32.33.13.07.32,0,.39-.13,0-.13-.06-.26-.26-.33-.19-.07-.39,0-.45.13ZM19.55,33.37c-.19,0-.32.13-.32.33,0,.13.19.2.39.13.19-.07.32-.13.26-.26,0-.13-.19-.26-.32-.2ZM23.74,8c-8.9,0-15.74,7-15.74,16.12,0,7.33,4.45,13.61,10.9,15.86.84.13,1.1-.4,1.1-.79v-4.1s-4.52.99-5.48-1.98c0,0-.71-1.92-1.74-2.38,0,0-1.48-1.06.06-1.06,0,0,1.61.13,2.52,1.72,1.42,2.58,3.74,1.85,4.71,1.39.13-1.06.52-1.78,1.03-2.25-3.61-.4-7.29-.92-7.29-7.27,0-1.85.52-2.71,1.55-3.9-.19-.46-.71-2.18.19-4.49,1.29-.4,4.45,1.78,4.45,1.78,1.29-.4,2.65-.53,4-.53s2.77.13,4.06.53c0,0,3.1-2.25,4.45-1.78.9,2.31.32,4.03.19,4.49,1.03,1.19,1.68,2.05,1.68,3.9,0,6.34-3.81,6.87-7.42,7.27.58.53,1.1,1.52,1.1,3.11,0,2.18-.06,4.96-.06,5.48,0,.46.32.99,1.16.79,6.45-2.18,10.84-8.46,10.84-15.79,0-9.12-7.29-16.12-16.26-16.12ZM14.26,30.8c-.13.07-.06.26,0,.4.13.07.26.13.39.07.06-.07.06-.26-.06-.4-.13-.07-.26-.13-.32-.07ZM13.55,30.27c-.06.13,0,.2.13.26.13.07.26.07.32-.07,0-.07-.06-.13-.19-.2-.13-.07-.19-.07-.26,0ZM15.61,32.65c-.06.07-.06.26.13.4.13.13.32.2.39.07.06-.07.06-.26-.06-.4-.13-.13-.32-.2-.45-.07ZM14.9,31.65c-.13.07-.13.26,0,.4.13.13.26.2.39.13.06-.07.06-.26,0-.4-.13-.13-.26-.2-.39-.13Z"/>
  <path class="cls-1" d="M69.68,17l-6.1,14h-2.56l-6.12-14h2.82l4.66,10.8,4.7-10.8h2.6ZM71.01,20.32h2.5v10.68h-2.5v-10.68ZM72.28,18.56c-.45,0-.83-.14-1.14-.42-.31-.29-.46-.65-.46-1.08s.15-.78.46-1.06c.31-.29.69-.44,1.14-.44s.83.14,1.14.42c.31.27.46.61.46,1.02,0,.44-.15.81-.46,1.12-.29.29-.67.44-1.14.44ZM86.84,25.72c0,.17-.01.42-.04.74h-8.38c.15.79.53,1.41,1.14,1.88.63.45,1.4.68,2.32.68,1.17,0,2.14-.39,2.9-1.16l1.34,1.54c-.48.57-1.09,1.01-1.82,1.3-.73.29-1.56.44-2.48.44-1.17,0-2.21-.23-3.1-.7-.89-.47-1.59-1.11-2.08-1.94-.48-.84-.72-1.79-.72-2.84s.23-1.97.7-2.8c.48-.84,1.14-1.49,1.98-1.96.84-.47,1.79-.7,2.84-.7s1.97.23,2.78.7c.83.45,1.47,1.1,1.92,1.94.47.83.7,1.79.7,2.88ZM81.44,22.2c-.8,0-1.48.24-2.04.72-.55.47-.88,1.09-1,1.88h6.06c-.11-.77-.43-1.4-.98-1.88-.55-.48-1.23-.72-2.04-.72ZM105.7,20.32l-3.94,10.68h-2.4l-2.76-7.36-2.8,7.36h-2.4l-3.92-10.68h2.36l2.82,7.88,2.94-7.88h2.1l2.88,7.92,2.9-7.92h2.22ZM119.37,30.42c-.29.24-.65.42-1.08.54-.41.12-.85.18-1.32.18-1.17,0-2.08-.31-2.72-.92-.64-.61-.96-1.51-.96-2.68v-5.14h-1.76v-2h1.76v-2.44h2.5v2.44h2.86v2h-2.86v5.08c0,.52.13.92.38,1.2.25.27.62.4,1.1.4.56,0,1.03-.15,1.4-.44l.7,1.78ZM127.49,20.2c1.35,0,2.43.39,3.24,1.18.81.79,1.22,1.95,1.22,3.5v6.12h-2.5v-5.8c0-.93-.22-1.63-.66-2.1-.44-.48-1.07-.72-1.88-.72-.92,0-1.65.28-2.18.84-.53.55-.8,1.34-.8,2.38v5.4h-2.5v-14.84h2.5v5.4c.41-.44.92-.77,1.52-1,.61-.24,1.29-.36,2.04-.36ZM145.25,25.72c0,.17-.01.42-.04.74h-8.38c.15.79.53,1.41,1.14,1.88.63.45,1.4.68,2.32.68,1.17,0,2.14-.39,2.9-1.16l1.34,1.54c-.48.57-1.09,1.01-1.82,1.3-.73.29-1.56.44-2.48.44-1.17,0-2.21-.23-3.1-.7-.89-.47-1.59-1.11-2.08-1.94-.48-.84-.72-1.79-.72-2.84s.23-1.97.7-2.8c.48-.84,1.14-1.49,1.98-1.96.84-.47,1.79-.7,2.84-.7s1.97.23,2.78.7c.83.45,1.47,1.1,1.92,1.94.47.83.7,1.79.7,2.88ZM139.85,22.2c-.8,0-1.48.24-2.04.72-.55.47-.88,1.09-1,1.88h6.06c-.11-.77-.43-1.4-.98-1.88-.55-.48-1.23-.72-2.04-.72ZM158.08,31.14c-1.11,0-2.1-.23-2.98-.7-.88-.47-1.57-1.11-2.06-1.94-.49-.84-.74-1.79-.74-2.84s.25-1.99.74-2.82,1.17-1.47,2.04-1.94c.88-.47,1.88-.7,3-.7,1.05,0,1.97.21,2.76.64.8.43,1.4,1.04,1.8,1.84l-1.92,1.12c-.31-.49-.69-.86-1.16-1.1-.45-.25-.95-.38-1.5-.38-.93,0-1.71.31-2.32.92-.61.6-.92,1.41-.92,2.42s.3,1.83.9,2.44c.61.6,1.39.9,2.34.9.55,0,1.05-.12,1.5-.36.47-.25.85-.63,1.16-1.12l1.92,1.12c-.41.8-1.02,1.42-1.82,1.86-.79.43-1.7.64-2.74.64ZM169.45,31.14c-1.08,0-2.05-.23-2.92-.7-.87-.47-1.55-1.11-2.04-1.94-.48-.84-.72-1.79-.72-2.84s.24-1.99.72-2.82c.49-.83,1.17-1.47,2.04-1.94.87-.47,1.84-.7,2.92-.7s2.07.23,2.94.7c.87.47,1.54,1.11,2.02,1.94.49.83.74,1.77.74,2.82s-.25,2-.74,2.84c-.48.83-1.15,1.47-2.02,1.94-.87.47-1.85.7-2.94.7ZM169.45,29c.92,0,1.68-.31,2.28-.92.6-.61.9-1.42.9-2.42s-.3-1.81-.9-2.42c-.6-.61-1.36-.92-2.28-.92s-1.68.31-2.28.92c-.59.61-.88,1.42-.88,2.42s.29,1.81.88,2.42c.6.61,1.36.92,2.28.92ZM188,16.16v14.84h-2.4v-1.38c-.41.51-.93.89-1.54,1.14-.6.25-1.27.38-2,.38-1.03,0-1.95-.23-2.78-.68-.81-.45-1.45-1.09-1.92-1.92-.47-.84-.7-1.8-.7-2.88s.23-2.03.7-2.86c.47-.83,1.11-1.47,1.92-1.92.83-.45,1.75-.68,2.78-.68.71,0,1.35.12,1.94.36.59.24,1.09.6,1.5,1.08v-5.48h2.5ZM182.36,29c.6,0,1.14-.13,1.62-.4.48-.28.86-.67,1.14-1.18s.42-1.09.42-1.76-.14-1.25-.42-1.76-.66-.89-1.14-1.16c-.48-.28-1.02-.42-1.62-.42s-1.14.14-1.62.42c-.48.27-.86.65-1.14,1.16-.28.51-.42,1.09-.42,1.76s.14,1.25.42,1.76c.28.51.66.9,1.14,1.18.48.27,1.02.4,1.62.4ZM201.31,25.72c0,.17-.01.42-.04.74h-8.38c.15.79.53,1.41,1.14,1.88.63.45,1.4.68,2.32.68,1.17,0,2.14-.39,2.9-1.16l1.34,1.54c-.48.57-1.09,1.01-1.82,1.3-.73.29-1.56.44-2.48.44-1.17,0-2.21-.23-3.1-.7-.89-.47-1.59-1.11-2.08-1.94-.48-.84-.72-1.79-.72-2.84s.23-1.97.7-2.8c.48-.84,1.14-1.49,1.98-1.96s1.79-.7,2.84-.7,1.97.23,2.78.7c.83.45,1.47,1.1,1.92,1.94.47.83.7,1.79.7,2.88ZM195.91,22.2c-.8,0-1.48.24-2.04.72-.55.47-.88,1.09-1,1.88h6.06c-.11-.77-.43-1.4-.98-1.88-.55-.48-1.23-.72-2.04-.72Z"/>
</svg>