<svg width="30" height="31" viewBox="0 0 30 31" fill="none" xmlns="http://www.w3.org/2000/svg">
<path d="M15 9.01025L9 15.0103L11.1 17.1103L13.5 14.7103V21.0103H16.5V14.7103L18.9 17.1103L21 15.0103L15 9.01025ZM15 0.0102539C17.075 0.0102539 19.025 0.404005 20.85 1.19151C22.675 1.979 24.2625 3.04775 25.6125 4.39775C26.9625 5.74775 28.0312 7.33525 28.8187 9.16025C29.6063 10.9853 30 12.9353 30 15.0103C30 17.0853 29.6063 19.0353 28.8187 20.8603C28.0312 22.6853 26.9625 24.2728 25.6125 25.6228C24.2625 26.9728 22.675 28.0415 20.85 28.829C19.025 29.6165 17.075 30.0103 15 30.0103C12.925 30.0103 10.975 29.6165 9.15 28.829C7.325 28.0415 5.7375 26.9728 4.3875 25.6228C3.0375 24.2728 1.96875 22.6853 1.18125 20.8603C0.393751 19.0353 0 17.0853 0 15.0103C0 12.9353 0.393751 10.9853 1.18125 9.16025C1.96875 7.33525 3.0375 5.74775 4.3875 4.39775C5.7375 3.04775 7.325 1.979 9.15 1.19151C10.975 0.404005 12.925 0.0102539 15 0.0102539ZM15 3.01025C11.65 3.01025 8.8125 4.17275 6.4875 6.49775C4.1625 8.82275 3 11.6603 3 15.0103C3 18.3603 4.1625 21.1978 6.4875 23.5228C8.8125 25.8478 11.65 27.0103 15 27.0103C18.35 27.0103 21.1875 25.8478 23.5125 23.5228C25.8375 21.1978 27 18.3603 27 15.0103C27 11.6603 25.8375 8.82275 23.5125 6.49775C21.1875 4.17275 18.35 3.01025 15 3.01025Z" fill="#1C1B1F"/>
</svg>
