<svg width="25" height="24" viewBox="0 0 25 24" fill="none" xmlns="http://www.w3.org/2000/svg">
<path d="M8.60938 18.6562C8.60938 18.5625 8.51562 18.4688 8.375 18.4688C8.23438 18.4688 8.14062 18.5625 8.14062 18.6562C8.14062 18.75 8.23438 18.8438 8.375 18.7969C8.51562 18.7969 8.60938 18.75 8.60938 18.6562ZM7.15625 18.4219C7.15625 18.5156 7.25 18.6562 7.39062 18.6562C7.48438 18.7031 7.625 18.6562 7.67188 18.5625C7.67188 18.4688 7.625 18.375 7.48438 18.3281C7.34375 18.2812 7.20312 18.3281 7.15625 18.4219ZM9.26562 18.375C9.125 18.375 9.03125 18.4688 9.03125 18.6094C9.03125 18.7031 9.17188 18.75 9.3125 18.7031C9.45312 18.6562 9.54688 18.6094 9.5 18.5156C9.5 18.4219 9.35938 18.3281 9.26562 18.375ZM12.3125 0.375C5.84375 0.375 0.875 5.34375 0.875 11.8125C0.875 17.0156 4.10938 21.4688 8.79688 23.0625C9.40625 23.1562 9.59375 22.7812 9.59375 22.5C9.59375 22.1719 9.59375 20.5781 9.59375 19.5938C9.59375 19.5938 6.3125 20.2969 5.60938 18.1875C5.60938 18.1875 5.09375 16.8281 4.34375 16.5C4.34375 16.5 3.26562 15.75 4.39062 15.75C4.39062 15.75 5.5625 15.8438 6.21875 16.9688C7.25 18.7969 8.9375 18.2812 9.64062 17.9531C9.73438 17.2031 10.0156 16.6875 10.3906 16.3594C7.76562 16.0781 5.09375 15.7031 5.09375 11.2031C5.09375 9.89062 5.46875 9.28125 6.21875 8.4375C6.07812 8.10938 5.70312 6.89062 6.35938 5.25C7.29688 4.96875 9.59375 6.51562 9.59375 6.51562C10.5312 6.23438 11.5156 6.14062 12.5 6.14062C13.5312 6.14062 14.5156 6.23438 15.4531 6.51562C15.4531 6.51562 17.7031 4.92188 18.6875 5.25C19.3438 6.89062 18.9219 8.10938 18.8281 8.4375C19.5781 9.28125 20.0469 9.89062 20.0469 11.2031C20.0469 15.7031 17.2812 16.0781 14.6562 16.3594C15.0781 16.7344 15.4531 17.4375 15.4531 18.5625C15.4531 20.1094 15.4062 22.0781 15.4062 22.4531C15.4062 22.7812 15.6406 23.1562 16.25 23.0156C20.9375 21.4688 24.125 17.0156 24.125 11.8125C24.125 5.34375 18.8281 0.375 12.3125 0.375ZM5.42188 16.5469C5.32812 16.5938 5.375 16.7344 5.42188 16.8281C5.51562 16.875 5.60938 16.9219 5.70312 16.875C5.75 16.8281 5.75 16.6875 5.65625 16.5938C5.5625 16.5469 5.46875 16.5 5.42188 16.5469ZM4.90625 16.1719C4.85938 16.2656 4.90625 16.3125 5 16.3594C5.09375 16.4062 5.1875 16.4062 5.23438 16.3125C5.23438 16.2656 5.1875 16.2188 5.09375 16.1719C5 16.125 4.95312 16.125 4.90625 16.1719ZM6.40625 17.8594C6.35938 17.9062 6.35938 18.0469 6.5 18.1406C6.59375 18.2344 6.73438 18.2812 6.78125 18.1875C6.82812 18.1406 6.82812 18 6.73438 17.9062C6.64062 17.8125 6.5 17.7656 6.40625 17.8594ZM5.89062 17.1562C5.79688 17.2031 5.79688 17.3438 5.89062 17.4375C5.98438 17.5312 6.07812 17.5781 6.17188 17.5312C6.21875 17.4844 6.21875 17.3438 6.17188 17.25C6.07812 17.1562 5.98438 17.1094 5.89062 17.1562Z" fill="#D0D0D0"/>
</svg>
