<svg width="375" height="11" viewBox="0 0 375 11" fill="none" xmlns="http://www.w3.org/2000/svg">
<path d="M0 5.2453C6.87266 2.25157 12.5999 2.25157 17.1816 5.2453C21.7634 8.23904 27.4906 8.23904 34.3633 5.2453C41.236 2.25157 46.9632 2.25157 51.5449 5.2453C56.1267 8.23904 61.8539 8.23904 68.7266 5.2453C75.5993 2.25157 81.3265 2.25157 85.9082 5.2453C90.49 8.23904 96.2172 8.23904 103.09 5.2453C109.963 2.25157 115.69 2.25157 120.272 5.2453C124.853 8.23904 130.581 8.23904 137.453 5.2453C144.326 2.25157 150.053 2.25157 154.635 5.2453C159.217 8.23904 164.944 8.23904 171.816 5.2453" stroke="#FF4575" stroke-width="5.99997"/>
<path d="M171.816 5.2453C178.689 2.25157 184.416 2.25157 188.998 5.2453C193.58 8.23904 199.307 8.23904 206.18 5.2453C213.052 2.25157 218.78 2.25157 223.361 5.2453C227.943 8.23904 233.67 8.23904 240.543 5.2453C247.416 2.25157 253.143 2.25157 257.725 5.2453C262.306 8.23904 268.034 8.23904 274.906 5.2453C281.779 2.25157 287.506 2.25157 292.088 5.2453C296.67 8.23904 302.397 8.23904 309.27 5.2453C316.142 2.25157 321.869 2.25157 326.451 5.2453C331.033 8.23904 336.76 8.23904 343.633 5.2453" stroke="#FF4575" stroke-width="5.99997"/>
<path d="M343.633 5.2453C350.506 2.25157 356.233 2.25157 360.815 5.2453C365.396 8.23904 371.124 8.23904 377.996 5.2453C384.869 2.25157 390.596 2.25157 395.178 5.2453C399.76 8.23904 405.487 8.23904 412.36 5.2453C419.232 2.25157 424.96 2.25157 429.541 5.2453C434.123 8.23904 439.85 8.23904 446.723 5.2453C453.596 2.25157 459.323 2.25157 463.905 5.2453C468.486 8.23904 474.214 8.23904 481.086 5.2453C487.959 2.25157 493.686 2.25157 498.268 5.2453C502.85 8.23904 508.577 8.23904 515.45 5.2453" stroke="#FF4575" stroke-width="5.99997"/>
</svg>
