<svg width="32" height="32" viewBox="0 0 32 32" fill="currentColor" xmlns="http://www.w3.org/2000/svg">
<g id="Btn - github">
<path id="&#239;&#130;&#155;" d="M12.1094 22.6465C12.1094 22.5527 12.0156 22.459 11.875 22.459C11.7344 22.459 11.6406 22.5527 11.6406 22.6465C11.6406 22.7402 11.7344 22.834 11.875 22.7871C12.0156 22.7871 12.1094 22.7402 12.1094 22.6465ZM10.6562 22.4121C10.6562 22.5059 10.75 22.6465 10.8906 22.6465C10.9844 22.6934 11.125 22.6465 11.1719 22.5527C11.1719 22.459 11.125 22.3652 10.9844 22.3184C10.8438 22.2715 10.7031 22.3184 10.6562 22.4121ZM12.7656 22.3652C12.625 22.3652 12.5312 22.459 12.5312 22.5996C12.5312 22.6934 12.6719 22.7402 12.8125 22.6934C12.9531 22.6465 13.0469 22.5996 13 22.5059C13 22.4121 12.8594 22.3184 12.7656 22.3652ZM15.8125 4.36523C9.34375 4.36523 4.375 9.33398 4.375 15.8027C4.375 21.0059 7.60938 25.459 12.2969 27.0527C12.9062 27.1465 13.0938 26.7715 13.0938 26.4902C13.0938 26.1621 13.0938 24.5684 13.0938 23.584C13.0938 23.584 9.8125 24.2871 9.10938 22.1777C9.10938 22.1777 8.59375 20.8184 7.84375 20.4902C7.84375 20.4902 6.76562 19.7402 7.89062 19.7402C7.89062 19.7402 9.0625 19.834 9.71875 20.959C10.75 22.7871 12.4375 22.2715 13.1406 21.9434C13.2344 21.1934 13.5156 20.6777 13.8906 20.3496C11.2656 20.0684 8.59375 19.6934 8.59375 15.1934C8.59375 13.8809 8.96875 13.2715 9.71875 12.4277C9.57812 12.0996 9.20312 10.8809 9.85938 9.24023C10.7969 8.95898 13.0938 10.5059 13.0938 10.5059C14.0312 10.2246 15.0156 10.1309 16 10.1309C17.0312 10.1309 18.0156 10.2246 18.9531 10.5059C18.9531 10.5059 21.2031 8.91211 22.1875 9.24023C22.8438 10.8809 22.4219 12.0996 22.3281 12.4277C23.0781 13.2715 23.5469 13.8809 23.5469 15.1934C23.5469 19.6934 20.7812 20.0684 18.1562 20.3496C18.5781 20.7246 18.9531 21.4277 18.9531 22.5527C18.9531 24.0996 18.9062 26.0684 18.9062 26.4434C18.9062 26.7715 19.1406 27.1465 19.75 27.0059C24.4375 25.459 27.625 21.0059 27.625 15.8027C27.625 9.33398 22.3281 4.36523 15.8125 4.36523ZM8.92188 20.5371C8.82812 20.584 8.875 20.7246 8.92188 20.8184C9.01562 20.8652 9.10938 20.9121 9.20312 20.8652C9.25 20.8184 9.25 20.6777 9.15625 20.584C9.0625 20.5371 8.96875 20.4902 8.92188 20.5371ZM8.40625 20.1621C8.35938 20.2559 8.40625 20.3027 8.5 20.3496C8.59375 20.3965 8.6875 20.3965 8.73438 20.3027C8.73438 20.2559 8.6875 20.209 8.59375 20.1621C8.5 20.1152 8.45312 20.1152 8.40625 20.1621ZM9.90625 21.8496C9.85938 21.8965 9.85938 22.0371 10 22.1309C10.0938 22.2246 10.2344 22.2715 10.2812 22.1777C10.3281 22.1309 10.3281 21.9902 10.2344 21.8965C10.1406 21.8027 10 21.7559 9.90625 21.8496ZM9.39062 21.1465C9.29688 21.1934 9.29688 21.334 9.39062 21.4277C9.48438 21.5215 9.57812 21.5684 9.67188 21.5215C9.71875 21.4746 9.71875 21.334 9.67188 21.2402C9.57812 21.1465 9.48438 21.0996 9.39062 21.1465Z"/>
</g>
</svg>
