<svg xmlns="http://www.w3.org/2000/svg" style="display: none;">
<symbol id="icon-linkedin" viewBox="0 0 24 24">
<svg xmlns="http://www.w3.org/2000/svg" width="32" height="33" viewBox="0 0 32 33" fill="none">
  <path d="M10.1875 25.8682V11.8525H5.82812V25.8682H10.1875ZM7.98438 9.97754C9.39062 9.97754 10.5156 8.80566 10.5156 7.39941C10.5156 6.04004 9.39062 4.91504 7.98438 4.91504C6.625 4.91504 5.5 6.04004 5.5 7.39941C5.5 8.80566 6.625 9.97754 7.98438 9.97754ZM26.4531 25.8682H26.5V18.1807C26.5 14.4307 25.6562 11.5244 21.25 11.5244C19.1406 11.5244 17.7344 12.6963 17.125 13.7744H17.0781V11.8525H12.9062V25.8682H17.2656V18.9307C17.2656 17.1025 17.5938 15.3682 19.8438 15.3682C22.0938 15.3682 22.1406 17.4307 22.1406 19.0713V25.8682H26.4531Z" fill="black"/>
  </symbol>
<symbol id="icon-github" viewBox="0 0 24 24">
  <svg xmlns="http://www.w3.org/2000/svg" width="32" height="33" viewBox="0 0 32 33" fill="none">
  <path d="M12.1094 23.5244C12.1094 23.4307 12.0156 23.3369 11.875 23.3369C11.7344 23.3369 11.6406 23.4307 11.6406 23.5244C11.6406 23.6182 11.7344 23.7119 11.875 23.665C12.0156 23.665 12.1094 23.6182 12.1094 23.5244ZM10.6562 23.29C10.6562 23.3838 10.75 23.5244 10.8906 23.5244C10.9844 23.5713 11.125 23.5244 11.1719 23.4307C11.1719 23.3369 11.125 23.2432 10.9844 23.1963C10.8438 23.1494 10.7031 23.1963 10.6562 23.29ZM12.7656 23.2432C12.625 23.2432 12.5312 23.3369 12.5312 23.4775C12.5312 23.5713 12.6719 23.6182 12.8125 23.5713C12.9531 23.5244 13.0469 23.4775 13 23.3838C13 23.29 12.8594 23.1963 12.7656 23.2432ZM15.8125 5.24316C9.34375 5.24316 4.375 10.2119 4.375 16.6807C4.375 21.8838 7.60938 26.3369 12.2969 27.9307C12.9062 28.0244 13.0938 27.6494 13.0938 27.3682C13.0938 27.04 13.0938 25.4463 13.0938 24.4619C13.0938 24.4619 9.8125 25.165 9.10938 23.0557C9.10938 23.0557 8.59375 21.6963 7.84375 21.3682C7.84375 21.3682 6.76562 20.6182 7.89062 20.6182C7.89062 20.6182 9.0625 20.7119 9.71875 21.8369C10.75 23.665 12.4375 23.1494 13.1406 22.8213C13.2344 22.0713 13.5156 21.5557 13.8906 21.2275C11.2656 20.9463 8.59375 20.5713 8.59375 16.0713C8.59375 14.7588 8.96875 14.1494 9.71875 13.3057C9.57812 12.9775 9.20312 11.7588 9.85938 10.1182C10.7969 9.83691 13.0938 11.3838 13.0938 11.3838C14.0312 11.1025 15.0156 11.0088 16 11.0088C17.0312 11.0088 18.0156 11.1025 18.9531 11.3838C18.9531 11.3838 21.2031 9.79004 22.1875 10.1182C22.8438 11.7588 22.4219 12.9775 22.3281 13.3057C23.0781 14.1494 23.5469 14.7588 23.5469 16.0713C23.5469 20.5713 20.7812 20.9463 18.1562 21.2275C18.5781 21.6025 18.9531 22.3057 18.9531 23.4307C18.9531 24.9775 18.9062 26.9463 18.9062 27.3213C18.9062 27.6494 19.1406 28.0244 19.75 27.8838C24.4375 26.3369 27.625 21.8838 27.625 16.6807C27.625 10.2119 22.3281 5.24316 15.8125 5.24316ZM8.92188 21.415C8.82812 21.4619 8.875 21.6025 8.92188 21.6963C9.01562 21.7432 9.10938 21.79 9.20312 21.7432C9.25 21.6963 9.25 21.5557 9.15625 21.4619C9.0625 21.415 8.96875 21.3682 8.92188 21.415ZM8.40625 21.04C8.35938 21.1338 8.40625 21.1807 8.5 21.2275C8.59375 21.2744 8.6875 21.2744 8.73438 21.1807C8.73438 21.1338 8.6875 21.0869 8.59375 21.04C8.5 20.9932 8.45312 20.9932 8.40625 21.04ZM9.90625 22.7275C9.85938 22.7744 9.85938 22.915 10 23.0088C10.0938 23.1025 10.2344 23.1494 10.2812 23.0557C10.3281 23.0088 10.3281 22.8682 10.2344 22.7744C10.1406 22.6807 10 22.6338 9.90625 22.7275ZM9.39062 22.0244C9.29688 22.0713 9.29688 22.2119 9.39062 22.3057C9.48438 22.3994 9.57812 22.4463 9.67188 22.3994C9.71875 22.3525 9.71875 22.2119 9.67188 22.1182C9.57812 22.0244 9.48438 21.9775 9.39062 22.0244Z" fill="black"/>
   </symbol>
<symbol id="icon-stackoverflow" viewBox="0 0 24 24">
   <svg xmlns="http://www.w3.org/2000/svg" width="32" height="33" viewBox="0 0 32 33" fill="none">
  <path d="M19 25.8682H9V23.8682H19V25.8682ZM25 14.2032L23.379 4.86816L21.386 5.21416L23.006 14.5492L25 14.2032ZM19.036 21.1402L9.29 20.1652L9.104 22.1812L18.859 23.0602L19.036 21.1402ZM19.574 18.5532L10.298 15.9452L9.772 17.8992L19.078 20.3992L19.574 18.5532ZM20.778 16.1402L12.481 11.2762L11.452 13.0192L19.75 17.8842L20.778 16.1402ZM22.644 14.6732L17.305 6.84416L15.633 7.98416L20.972 15.8132L22.644 14.6732ZM20 18.8682V26.8682H8V18.8682H6V28.8682H22V18.8682H20Z" fill="black"/>
   </symbol>

<symbol id="icon-twitter" viewBox="0 0 24 24">
   <svg xmlns="http://www.w3.org/2000/svg" width="32" height="33" viewBox="0 0 32 33" fill="none">
  <path d="M25.5156 11.9932C26.4531 11.29 27.2969 10.4463 27.9531 9.46191C27.1094 9.83691 26.125 10.1182 25.1406 10.2119C26.1719 9.60254 26.9219 8.66504 27.2969 7.49316C26.3594 8.05566 25.2812 8.47754 24.2031 8.71191C23.2656 7.72754 22 7.16504 20.5938 7.16504C17.875 7.16504 15.6719 9.36816 15.6719 12.0869C15.6719 12.4619 15.7188 12.8369 15.8125 13.2119C11.7344 12.9775 8.07812 11.0088 5.64062 8.05566C5.21875 8.75879 4.98438 9.60254 4.98438 10.54C4.98438 12.2275 5.82812 13.7275 7.1875 14.6182C6.39062 14.5713 5.59375 14.3838 4.9375 14.0088V14.0557C4.9375 16.4463 6.625 18.415 8.875 18.8838C8.5 18.9775 8.03125 19.0713 7.60938 19.0713C7.28125 19.0713 7 19.0244 6.67188 18.9775C7.28125 20.9463 9.10938 22.3525 11.2656 22.3994C9.57812 23.7119 7.46875 24.5088 5.17188 24.5088C4.75 24.5088 4.375 24.4619 4 24.415C6.15625 25.8213 8.73438 26.6182 11.5469 26.6182C20.5938 26.6182 25.5156 19.165 25.5156 12.6494C25.5156 12.415 25.5156 12.2275 25.5156 11.9932Z" fill="black"/>
  </symbol>
</svg>

