<svg width="30" height="30" viewBox="0 0 30 30" fill="none" xmlns="http://www.w3.org/2000/svg">
<rect width="30" height="30" fill="white"/>
<path d="M12.0039 17.116C12.4039 16.124 12.8159 15.148 13.2399 14.188C13.6639 13.22 14.0799 12.244 14.4879 11.26H15.0759L17.5599 17.104C17.9679 16.128 18.3759 15.156 18.7839 14.188C19.1919 13.22 19.5959 12.244 19.9959 11.26H20.8359C20.3479 12.452 19.8599 13.632 19.3719 14.8C18.8839 15.968 18.3959 17.148 17.9079 18.34H17.2959L14.7879 12.484L12.2559 18.34H11.6679C11.1879 17.148 10.7039 15.968 10.2159 14.8C9.72791 13.624 9.23591 12.444 8.73991 11.26H9.57991L12.0039 17.116ZM11.2359 19.012H12.7239C13.0599 18.196 13.3959 17.392 13.7319 16.6C14.0759 15.8 14.4239 14.996 14.7759 14.188L16.8399 19.012H18.3399L21.8199 10.588H19.5519C19.2239 11.388 18.8919 12.184 18.5559 12.976C18.2279 13.76 17.8959 14.552 17.5599 15.352L15.5199 10.588H14.0559L12.0039 15.376L10.0119 10.588H7.75591L11.2359 19.012ZM10.2039 10.288L11.3799 11.524L12.3279 13.828C12.5839 13.236 12.8399 12.648 13.0959 12.064C13.3519 11.48 13.6079 10.888 13.8639 10.288H15.7239L16.8999 11.524L17.8719 13.828L18.0159 13.492C18.0639 13.38 18.1159 13.26 18.1719 13.132C18.2359 12.996 18.2879 12.872 18.3279 12.76C18.5039 12.352 18.6799 11.936 18.8559 11.512C19.0319 11.08 19.1999 10.672 19.3599 10.288H22.2639L23.4039 11.524L19.7079 20.476H17.8599L16.6359 19.312L15.6039 16.912C15.3479 17.512 15.0919 18.112 14.8359 18.712C14.5799 19.304 14.3319 19.892 14.0919 20.476H12.2679L11.0439 19.312L7.31191 10.288H10.2039Z" fill="black"/>
<path d="M12.9021 26.2191L13.0295 28.499L12.6876 28.414L12.6263 26.6774L12.6043 26.6719L11.7558 28.1822L11.4084 28.0958L11.3568 26.3675L11.3348 26.362L10.4821 27.8654L10.1403 27.7804L11.3031 25.8214L11.6229 25.9009L11.6883 27.6444L11.7214 27.6526L12.5823 26.1395L12.9021 26.2191Z" fill="black"/>
<path d="M7.59532 23.8162L6.65148 25.8989L6.38886 25.6641L7.13935 24.0944L7.1224 24.0793L5.673 25.0241L5.40614 24.7855L6.16135 23.2277L6.14441 23.2125L4.69452 24.1493L4.4319 23.9145L6.36692 22.718L6.6126 22.9376L5.8626 24.5153L5.88801 24.538L7.34964 23.5965L7.59532 23.8162Z" fill="black"/>
<path d="M3.76176 18.4223C3.83572 18.6191 3.85618 18.8054 3.82314 18.9813C3.78889 19.1567 3.70798 19.3128 3.58042 19.4499C3.45165 19.5864 3.2829 19.6945 3.07418 19.7744C2.86546 19.8543 2.66717 19.8866 2.47933 19.8713C2.29027 19.8554 2.12526 19.7959 1.98429 19.6927C1.84211 19.5889 1.73638 19.4448 1.66709 19.2605C1.62711 19.1541 1.60532 19.0423 1.60172 18.925C1.59812 18.8078 1.62013 18.6914 1.66774 18.5758C1.71447 18.4606 1.79335 18.3528 1.90437 18.2525C2.01539 18.1523 2.16597 18.0657 2.35612 17.993L2.48878 17.9422L3.08044 19.5165L2.80981 19.6201L2.33808 18.3649C2.22311 18.4089 2.12918 18.4712 2.05629 18.5518C1.98307 18.6316 1.9362 18.7235 1.91566 18.8277C1.8948 18.931 1.90569 19.0394 1.94833 19.1528C1.9953 19.2778 2.0669 19.3741 2.16312 19.4417C2.25813 19.5088 2.36387 19.5479 2.48037 19.5591C2.59686 19.5703 2.71126 19.5544 2.82358 19.5114L3.00401 19.4423C3.15789 19.3834 3.27835 19.3069 3.36537 19.2128C3.45118 19.1181 3.50396 19.0122 3.5237 18.8952C3.54255 18.7784 3.52816 18.6567 3.48052 18.5299C3.44954 18.4475 3.41006 18.3774 3.36208 18.3198C3.31288 18.2615 3.25568 18.217 3.19049 18.1862C3.1244 18.1557 3.05099 18.1407 2.97024 18.1412L2.94121 17.8055C3.0558 17.7982 3.16616 17.8173 3.27231 17.8629C3.37757 17.9088 3.47269 17.9788 3.55767 18.073C3.64176 18.1676 3.70979 18.284 3.76176 18.4223Z" fill="black"/>
<path d="M1.67566 13.0467L2.97841 13.2063L2.93837 13.5391L0.772746 13.2738L0.811435 12.9522L1.14981 12.9937L1.15321 12.9655C1.04934 12.9012 0.970265 12.8133 0.915973 12.7017C0.860741 12.59 0.842967 12.4524 0.862651 12.2888C0.880299 12.1421 0.925819 12.0174 0.999211 11.9148C1.07166 11.8121 1.17219 11.7376 1.3008 11.6913C1.42846 11.6449 1.58441 11.633 1.76864 11.6556L3.14471 11.8242L3.10466 12.1571L1.75115 11.9912C1.58102 11.9704 1.44317 11.9983 1.3376 12.0751C1.2311 12.1517 1.16857 12.2671 1.15001 12.4213C1.13723 12.5275 1.14883 12.6253 1.18482 12.7146C1.22092 12.803 1.28027 12.8766 1.36285 12.9354C1.44544 12.9941 1.54971 13.0312 1.67566 13.0467Z" fill="black"/>
<path d="M4.62274 7.89985L4.41294 7.75371L3.8068 5.82205L3.78815 5.80906L3.11131 6.79858L2.85489 6.61997L3.77551 5.27402L3.99464 5.42666L4.6107 7.32369L4.62935 7.33668L5.33185 6.30963L5.58828 6.48825L4.62274 7.89985Z" fill="black"/>
<path d="M8.69544 3.71497L8.57746 3.48813L8.93799 1.49697L8.9275 1.4768L7.86806 2.03792L7.72386 1.76068L9.16491 0.99745L9.28813 1.23437L8.95249 3.19949L8.96297 3.21966L10.0626 2.63726L10.2068 2.91451L8.69544 3.71497Z" fill="black"/>
<path d="M20.036 2.96902L20.4553 0.722204L20.7666 0.887082L20.4126 2.58981L20.4327 2.60045L21.6152 1.33651L21.9315 1.50405L21.5701 3.19641L21.5901 3.20705L22.775 1.95081L23.0863 2.11569L21.4922 3.74023L21.2009 3.58598L21.5526 1.87556L21.5224 1.8596L20.3273 3.12326L20.036 2.96902Z" fill="black"/>
<path d="M24.6176 6.58458L26.0326 4.78883L26.2315 5.07959L25.127 6.42361L25.1399 6.44237L26.7736 5.87215L26.9757 6.1676L25.8695 7.499L25.8823 7.51775L27.5146 6.95547L27.7135 7.24624L25.5479 7.94459L25.3618 7.67259L26.4677 6.32063L26.4485 6.29249L24.8037 6.85658L24.6176 6.58458Z" fill="black"/>
<path d="M27.0603 12.7448C27.0351 12.5361 27.0595 12.3504 27.1334 12.1878C27.2084 12.0259 27.3241 11.8939 27.4807 11.7917C27.6382 11.6904 27.8279 11.6261 28.0498 11.5989C28.2716 11.5718 28.472 11.5882 28.6509 11.6484C28.8309 11.7093 28.9771 11.8068 29.0895 11.9409C29.2031 12.0758 29.2716 12.2411 29.2951 12.4366C29.3087 12.5495 29.3033 12.6632 29.2789 12.7778C29.2546 12.8924 29.2055 13 29.1318 13.1006C29.059 13.2012 28.9567 13.2867 28.825 13.3572C28.6933 13.4277 28.5264 13.4754 28.3243 13.5001L28.1833 13.5174L27.9824 11.8476L28.27 11.8124L28.4302 13.1437C28.5524 13.1287 28.6585 13.0909 28.7485 13.0303C28.8386 12.9706 28.906 12.8927 28.9507 12.7965C28.9955 12.7014 29.0107 12.5936 28.9962 12.4733C28.9803 12.3407 28.9336 12.23 28.8561 12.1413C28.7797 12.0533 28.6862 11.9899 28.5757 11.9509C28.4651 11.912 28.3502 11.8999 28.2308 11.9145L28.0391 11.938C27.8755 11.958 27.7403 12.0032 27.6333 12.0736C27.5274 12.1447 27.451 12.2347 27.404 12.3435C27.3579 12.4522 27.343 12.5738 27.3592 12.7082C27.3697 12.7956 27.3914 12.8731 27.4243 12.9406C27.4583 13.009 27.5033 13.066 27.5593 13.1116C27.6163 13.1571 27.6841 13.1893 27.7627 13.2083L27.7111 13.5409C27.598 13.5204 27.4953 13.4753 27.403 13.4055C27.3116 13.3356 27.2358 13.2447 27.1756 13.1328C27.1164 13.0208 27.0779 12.8915 27.0603 12.7448Z" fill="black"/>
<path d="M27.8119 18.4674L26.5861 17.9983L26.704 17.6845L28.7417 18.4643L28.6277 18.7675L28.3094 18.6456L28.2994 18.6722C28.3848 18.7597 28.4407 18.8642 28.4668 18.9857C28.4938 19.1076 28.4784 19.2457 28.4204 19.3999C28.3684 19.5382 28.2947 19.6483 28.1991 19.7304C28.1044 19.8128 27.9892 19.861 27.8534 19.8749C27.7186 19.8892 27.5645 19.8632 27.3911 19.7968L26.0963 19.3013L26.2143 18.9875L27.4878 19.4749C27.6479 19.5362 27.7883 19.5422 27.9089 19.4931C28.0304 19.4443 28.1185 19.3472 28.1732 19.2018C28.2108 19.1017 28.2228 19.0039 28.2091 18.9084C28.1951 18.8138 28.155 18.728 28.0888 18.651C28.0227 18.5739 27.9304 18.5127 27.8119 18.4674Z" fill="black"/>
<path d="M23.7328 22.7539L23.9015 22.9461L24.0276 24.9672L24.0426 24.9843L24.9364 24.1852L25.1426 24.4201L23.9269 25.5069L23.7507 25.3062L23.6066 23.3164L23.5916 23.2993L22.664 24.1286L22.4578 23.8938L23.7328 22.7539Z" fill="black"/>
<path d="M18.7847 25.8344L18.8454 26.0827L18.0208 27.9272L18.0262 27.9493L19.1896 27.6599L19.2638 27.9635L17.6813 28.3571L17.618 28.0977L18.4121 26.2725L18.4067 26.2504L17.1992 26.5507L17.125 26.2472L18.7847 25.8344Z" fill="black"/>
</svg>
