<svg width="113" height="113" viewBox="0 0 113 113" fill="none" xmlns="http://www.w3.org/2000/svg">
<path fill-rule="evenodd" clip-rule="evenodd" d="M55.887 91.0442C55.5038 91.0442 55.1462 90.942 54.8142 90.7632L51.417 88.7454C50.9062 88.4644 51.1616 88.3623 51.3148 88.3112C52.0045 88.0813 52.1322 88.0302 52.8474 87.6215C52.924 87.5704 53.0262 87.596 53.1028 87.6471L55.7082 89.2052C55.8103 89.2562 55.938 89.2562 56.0147 89.2052L66.2061 83.3048C66.3083 83.2538 66.3594 83.1516 66.3594 83.0239V71.2488C66.3594 71.1211 66.3083 71.0189 66.2061 70.9678L56.0147 65.093C55.9125 65.042 55.7848 65.042 55.7082 65.093L45.5167 70.9678C45.4145 71.0189 45.3634 71.1466 45.3634 71.2488V83.0239C45.3634 83.126 45.4145 83.2538 45.5167 83.3048L48.3008 84.914C49.8078 85.6803 50.7529 84.7863 50.7529 83.8923V72.2705C50.7529 72.1172 50.8806 71.964 51.0594 71.964H52.3621C52.5153 71.964 52.6686 72.0917 52.6686 72.2705V83.8923C52.6686 85.9102 51.5703 87.0851 49.6546 87.0851C49.0671 87.0851 48.6073 87.0851 47.3047 86.4466L44.6227 84.914C43.9586 84.5309 43.5499 83.8157 43.5499 83.0494V71.2743C43.5499 70.5081 43.9586 69.7929 44.6227 69.4097L54.8142 63.5094C55.4527 63.1518 56.3212 63.1518 56.9597 63.5094L67.1512 69.4097C67.8153 69.7929 68.224 70.5081 68.224 71.2743V83.0494C68.224 83.8157 67.8153 84.5309 67.1512 84.914L56.9597 90.8143C56.6277 90.9676 56.2446 91.0442 55.887 91.0442ZM59.0287 82.9472C54.5587 82.9472 53.6392 80.9038 53.6392 79.167C53.6392 79.0137 53.7669 78.8604 53.9457 78.8604H55.2739C55.4272 78.8604 55.5549 78.9626 55.5549 79.1159C55.7592 80.4696 56.3467 81.1337 59.0542 81.1337C61.1998 81.1337 62.1193 80.6484 62.1193 79.499C62.1193 78.8349 61.8639 78.3496 58.5178 78.0175C55.7337 77.7366 53.9968 77.1236 53.9968 74.9014C53.9968 72.8324 55.7337 71.6064 58.6455 71.6064C61.915 71.6064 63.5242 72.7302 63.7285 75.1823C63.7285 75.259 63.703 75.3356 63.6519 75.4122C63.6008 75.4633 63.5242 75.5144 63.4475 75.5144H62.1193C61.9916 75.5144 61.8639 75.4122 61.8384 75.2845C61.5318 73.8797 60.74 73.4199 58.6455 73.4199C56.2956 73.4199 56.0147 74.2373 56.0147 74.8503C56.0147 75.591 56.3467 75.8209 59.514 76.2296C62.6557 76.6382 64.1372 77.2257 64.1372 79.4224C64.1116 81.6701 62.2726 82.9472 59.0287 82.9472Z" fill="#539E43"/>
<path fill-rule="evenodd" clip-rule="evenodd" d="M24.2654 44.9911C24.2654 44.5313 24.01 44.0971 23.6013 43.8672L12.7713 37.6349C12.5925 37.5327 12.3881 37.4816 12.1838 37.4561H12.0816C11.8773 37.4561 11.6729 37.5327 11.4941 37.6349L0.664105 43.8672C0.255425 44.0971 0 44.5313 0 44.9911L0.0255425 61.747C0.0255425 61.9769 0.153255 62.2067 0.357595 62.3089C0.561935 62.4366 0.81736 62.4366 0.996157 62.3089L7.43287 58.6308C7.84155 58.4009 8.09697 57.9667 8.09697 57.5069V49.6654C8.09697 49.2056 8.3524 48.7714 8.76108 48.5415L11.4941 46.9579C11.6985 46.8302 11.9283 46.7791 12.1582 46.7791C12.3881 46.7791 12.618 46.8302 12.7968 46.9579L15.5298 48.5415C15.9385 48.7714 16.1939 49.2056 16.1939 49.6654V57.5069C16.1939 57.9667 16.4494 58.4009 16.8581 58.6308L23.2948 62.3089C23.4991 62.4366 23.7545 62.4366 23.9589 62.3089C24.1632 62.2067 24.2909 61.9769 24.2909 61.747L24.2654 44.9911V44.9911V44.9911Z" fill="#333333"/>
<path fill-rule="evenodd" clip-rule="evenodd" d="M76.3208 21.9262C76.1165 21.8241 75.861 21.8241 75.6822 21.9262C75.4779 22.0539 75.3502 22.2583 75.3502 22.4882V39.0908C75.3502 39.2441 75.2736 39.3973 75.1203 39.4995C74.9671 39.5761 74.8138 39.5761 74.6605 39.4995L71.953 37.9414C71.5444 37.7115 71.0591 37.7115 70.6504 37.9414L59.8204 44.1993C59.4117 44.4292 59.1562 44.8634 59.1562 45.3232V57.8135C59.1562 58.2732 59.4117 58.7074 59.8204 58.9373L70.6504 65.1952C71.0591 65.4251 71.5444 65.4251 71.953 65.1952L82.7831 58.9373C83.1917 58.7074 83.4472 58.2732 83.4472 57.8135V26.6771C83.4472 26.1918 83.1917 25.7576 82.7831 25.5277L76.3208 21.9262V21.9262V21.9262ZM75.3246 53.7011C75.3246 53.8288 75.2735 53.931 75.1713 53.9821L71.4676 56.1276C71.3655 56.1787 71.2378 56.1787 71.1356 56.1276L67.4319 53.9821C67.3298 53.931 67.2787 53.8033 67.2787 53.7011V49.41C67.2787 49.2823 67.3298 49.1801 67.4319 49.129L71.1356 46.9834C71.2378 46.9323 71.3655 46.9323 71.4676 46.9834L75.1713 49.129C75.2735 49.1801 75.3246 49.3078 75.3246 49.41V53.7011V53.7011V53.7011Z" fill="#333333"/>
<path fill-rule="evenodd" clip-rule="evenodd" d="M112.361 49.3078C112.77 49.0779 113 48.6437 113 48.1839V45.1444C113 44.6846 112.745 44.2504 112.361 44.0205L101.608 37.7881C101.199 37.5583 100.714 37.5583 100.305 37.7881L89.4754 44.046C89.0667 44.2759 88.8113 44.7102 88.8113 45.1699V57.6602C88.8113 58.12 89.0667 58.5542 89.4754 58.7841L100.229 64.9143C100.637 65.1442 101.123 65.1442 101.506 64.9143L108.019 61.2872C108.224 61.1851 108.351 60.9552 108.351 60.7253C108.351 60.4954 108.224 60.2655 108.019 60.1634L97.1381 53.9055C96.9338 53.7777 96.8061 53.5734 96.8061 53.3435V49.4355C96.8061 49.2056 96.9338 48.9757 97.1381 48.8736L100.535 46.9323C100.74 46.8046 100.995 46.8046 101.199 46.9323L104.597 48.8736C104.801 49.0013 104.929 49.2056 104.929 49.4355V52.5006C104.929 52.7305 105.056 52.9604 105.261 53.0625C105.465 53.1903 105.72 53.1903 105.925 53.0625L112.361 49.3078V49.3078V49.3078Z" fill="#333333"/>
<path fill-rule="evenodd" clip-rule="evenodd" d="M100.791 48.7203C100.867 48.6692 100.969 48.6692 101.046 48.7203L103.115 49.9208C103.192 49.9719 103.243 50.0485 103.243 50.1507V52.5517C103.243 52.6539 103.192 52.7305 103.115 52.7816L101.046 53.9821C100.969 54.0332 100.867 54.0332 100.791 53.9821L98.7217 52.7816C98.6451 52.7305 98.594 52.6539 98.594 52.5517V50.1507C98.594 50.0485 98.6451 49.9719 98.7217 49.9208L100.791 48.7203V48.7203V48.7203Z" fill="#539E43"/>
<path fill-rule="evenodd" clip-rule="evenodd" d="M42.3749 37.8392C41.9662 37.6093 41.4809 37.6093 41.0723 37.8392L30.3189 44.046C29.9102 44.2759 29.6803 44.7102 29.6803 45.1699V57.6091C29.6803 58.0689 29.9357 58.5031 30.3189 58.733L41.0723 64.9398C41.4809 65.1697 41.9662 65.1697 42.3749 64.9398L53.1283 58.733C53.537 58.5031 53.7669 58.0689 53.7669 57.6091V45.1699C53.7669 44.7102 53.5115 44.2759 53.1283 44.046L42.3749 37.8392V37.8392V37.8392Z" fill="white"/>
<path fill-rule="evenodd" clip-rule="evenodd" d="M42.3749 37.8392C41.9662 37.6093 41.4809 37.6093 41.0723 37.8392L30.3189 44.046C29.9102 44.2759 29.6803 44.7102 29.6803 45.1699V57.6091C29.6803 58.0689 29.9357 58.5031 30.3189 58.733L41.0723 64.9398C41.4809 65.1697 41.9662 65.1697 42.3749 64.9398L53.1283 58.733C53.537 58.5031 53.7669 58.0689 53.7669 57.6091V45.1699C53.7669 44.7102 53.5115 44.2759 53.1283 44.046L42.3749 37.8392V37.8392V37.8392Z" fill="url(#paint0_linear_44_1312)"/>
<mask id="mask0_44_1312" style="mask-type:luminance" maskUnits="userSpaceOnUse" x="29" y="37" width="25" height="29">
<path fill-rule="evenodd" clip-rule="evenodd" d="M42.3749 37.8392C41.9662 37.6093 41.4809 37.6093 41.0723 37.8392L30.3189 44.046C29.9102 44.2759 29.6803 44.7102 29.6803 45.1699V57.6091C29.6803 58.0689 29.9357 58.5031 30.3189 58.733L41.0723 64.9398C41.4809 65.1697 41.9662 65.1697 42.3749 64.9398L53.1283 58.733C53.537 58.5031 53.7669 58.0689 53.7669 57.6091V45.1699C53.7669 44.7102 53.5115 44.2759 53.1283 44.046L42.3749 37.8392V37.8392V37.8392Z" fill="white"/>
</mask>
<g mask="url(#mask0_44_1312)">
<path fill-rule="evenodd" clip-rule="evenodd" d="M53.1541 44.0461L42.3496 37.8393C42.2474 37.7882 42.1197 37.7371 42.0175 37.7115L29.9104 58.4521C30.0126 58.5798 30.1403 58.6819 30.268 58.7586L41.0725 64.9654C41.379 65.1442 41.7366 65.1953 42.0686 65.0931L53.435 44.3015C53.3584 44.1993 53.2562 44.1227 53.1541 44.0461V44.0461V44.0461Z" fill="url(#paint1_linear_44_1312)"/>
</g>
<mask id="mask1_44_1312" style="mask-type:luminance" maskUnits="userSpaceOnUse" x="29" y="37" width="25" height="29">
<path fill-rule="evenodd" clip-rule="evenodd" d="M42.3749 37.8392C41.9662 37.6093 41.4809 37.6093 41.0723 37.8392L30.3189 44.046C29.9102 44.2759 29.6803 44.7102 29.6803 45.1699V57.6091C29.6803 58.0689 29.9357 58.5031 30.3189 58.733L41.0723 64.9398C41.4809 65.1697 41.9662 65.1697 42.3749 64.9398L53.1283 58.733C53.537 58.5031 53.7669 58.0689 53.7669 57.6091V45.1699C53.7669 44.7102 53.5115 44.2759 53.1283 44.046L42.3749 37.8392V37.8392V37.8392Z" fill="white"/>
</mask>
<g mask="url(#mask1_44_1312)">
<path fill-rule="evenodd" clip-rule="evenodd" d="M53.1795 58.733C53.486 58.5542 53.7159 58.2477 53.8181 57.9156L41.9663 37.686C41.6598 37.6349 41.3278 37.6604 41.0468 37.8392L30.319 44.0205L41.8897 65.1186C42.043 65.0931 42.2218 65.042 42.375 64.9654L53.1795 58.733V58.733V58.733Z" fill="url(#paint2_linear_44_1312)"/>
<path fill-rule="evenodd" clip-rule="evenodd" d="M53.1794 58.733L42.4005 64.9398C42.2472 65.0164 42.094 65.0675 41.9152 65.0931L42.1195 65.4762L54.0734 58.5542V58.4009L53.7669 57.8901C53.7158 58.2477 53.4859 58.5542 53.1794 58.733V58.733V58.733Z" fill="url(#paint3_linear_44_1312)"/>
<path fill-rule="evenodd" clip-rule="evenodd" d="M53.1794 58.733L42.4005 64.9398C42.2472 65.0164 42.094 65.0675 41.9152 65.0931L42.1195 65.4762L54.0734 58.5542V58.4009L53.7669 57.8901C53.7158 58.2477 53.4859 58.5542 53.1794 58.733V58.733V58.733Z" fill="url(#paint4_linear_44_1312)"/>
</g>
<defs>
<linearGradient id="paint0_linear_44_1312" x1="39.401" y1="38.9773" x2="27.9546" y2="52.8296" gradientUnits="userSpaceOnUse">
<stop stop-color="#41873F"/>
<stop offset="0.3288" stop-color="#418B3D"/>
<stop offset="0.6352" stop-color="#419637"/>
<stop offset="0.9319" stop-color="#3FA92D"/>
<stop offset="1" stop-color="#3FAE2A"/>
</linearGradient>
<linearGradient id="paint1_linear_44_1312" x1="46.446" y1="68.3783" x2="75.0787" y2="56.9395" gradientUnits="userSpaceOnUse">
<stop offset="0.1376" stop-color="#41873F"/>
<stop offset="0.4032" stop-color="#54A044"/>
<stop offset="0.7136" stop-color="#66B848"/>
<stop offset="0.9081" stop-color="#6CC04A"/>
</linearGradient>
<linearGradient id="paint2_linear_44_1312" x1="29.2876" y1="65.9261" x2="54.1704" y2="65.9261" gradientUnits="userSpaceOnUse">
<stop offset="0.0919165" stop-color="#6CC04A"/>
<stop offset="0.2864" stop-color="#66B848"/>
<stop offset="0.5968" stop-color="#54A044"/>
<stop offset="0.8624" stop-color="#41873F"/>
</linearGradient>
<linearGradient id="paint3_linear_44_1312" x1="29.2875" y1="69.4668" x2="54.1703" y2="69.4668" gradientUnits="userSpaceOnUse">
<stop offset="0.0919165" stop-color="#6CC04A"/>
<stop offset="0.2864" stop-color="#66B848"/>
<stop offset="0.5968" stop-color="#54A044"/>
<stop offset="0.8624" stop-color="#41873F"/>
</linearGradient>
<linearGradient id="paint4_linear_44_1312" x1="26.723" y1="40.0142" x2="24.3771" y2="71.5898" gradientUnits="userSpaceOnUse">
<stop stop-color="#41873F"/>
<stop offset="0.3288" stop-color="#418B3D"/>
<stop offset="0.6352" stop-color="#419637"/>
<stop offset="0.9319" stop-color="#3FA92D"/>
<stop offset="1" stop-color="#3FAE2A"/>
</linearGradient>
</defs>
</svg>
