<svg xmlns="http://www.w3.org/2000/svg" width="144" height="11" viewBox="0 0 144 11" fill="none">
  <path d="M1.5321 5.2453C8.40476 2.25157 14.132 2.25157 18.7138 5.2453C23.2955 8.23904 29.0227 8.23904 35.8954 5.2453C42.7681 2.25157 48.4953 2.25157 53.0771 5.2453C57.6588 8.23904 63.386 8.23904 70.2587 5.2453C77.1314 2.25157 82.8586 2.25157 87.4404 5.2453C92.0221 8.23904 97.7493 8.23904 104.622 5.2453C111.495 2.25157 117.222 2.25157 121.804 5.2453C126.385 8.23904 132.113 8.23904 138.985 5.2453C145.858 2.25157 151.585 2.25157 156.167 5.2453C160.749 8.23904 166.476 8.23904 173.349 5.2453" stroke="#FF4575" stroke-width="5.99997"/>
</svg>
