<svg width="69" height="24" viewBox="0 0 69 24" fill="none" xmlns="http://www.w3.org/2000/svg">
<rect width="69" height="24" fill="black"/>
<path d="M17.456 6.8V18H15.376V13.2H9.584V18H7.504V6.8H9.584V11.424H15.376V6.8H17.456ZM22.7291 8.56H19.0171V6.8H28.5211V8.56H24.8091V18H22.7291V8.56ZM40.3701 18L40.3541 10.576L36.6741 16.72H35.7461L32.0661 10.672V18H30.0821V6.8H31.7941L36.2421 14.224L40.6101 6.8H42.3221L42.3381 18H40.3701ZM45.3634 6.8H47.4434V16.24H53.2994V18H45.3634V6.8ZM57.6455 11.136C59.2242 11.136 60.3922 11.4453 61.1495 12.064C61.9068 12.672 62.2855 13.504 62.2855 14.56C62.2855 15.232 62.1202 15.84 61.7895 16.384C61.4588 16.928 60.9628 17.36 60.3015 17.68C59.6402 18 58.8242 18.16 57.8535 18.16C57.0535 18.16 56.2802 18.048 55.5335 17.824C54.7868 17.5893 54.1575 17.2693 53.6455 16.864L54.5255 15.248C54.9415 15.5893 55.4375 15.8613 56.0135 16.064C56.6002 16.256 57.2028 16.352 57.8215 16.352C58.5575 16.352 59.1335 16.2027 59.5495 15.904C59.9762 15.5947 60.1895 15.1733 60.1895 14.64C60.1895 14.064 59.9602 13.632 59.5015 13.344C59.0535 13.0453 58.2802 12.896 57.1815 12.896H54.4775L55.0535 6.8H61.6295V8.544H56.8135L56.5735 11.136H57.6455Z" fill="white"/>
</svg>
