<svg xmlns="http://www.w3.org/2000/svg" width="176" height="11" viewBox="0 0 176 11" fill="none">
  <path d="M0 5.2453C6.87266 2.25157 12.5999 2.25157 17.1816 5.2453C21.7634 8.23904 27.4906 8.23904 34.3633 5.2453C41.236 2.25157 46.9632 2.25157 51.5449 5.2453C56.1267 8.23904 61.8539 8.23904 68.7266 5.2453C75.5993 2.25157 81.3265 2.25157 85.9082 5.2453C90.49 8.23904 96.2172 8.23904 103.09 5.2453C109.963 2.25157 115.69 2.25157 120.272 5.2453C124.853 8.23904 130.581 8.23904 137.453 5.2453C144.326 2.25157 150.053 2.25157 154.635 5.2453C159.217 8.23904 164.944 8.23904 171.816 5.2453C176 5.2453" stroke="#FF4575" stroke-width="5.99997"/>
</svg>




