<?xml version="1.0" encoding="utf-8"?>
<svg version="1.1" id="Layer_1" xmlns="http://www.w3.org/2000/svg" xmlns:xlink="http://www.w3.org/1999/xlink" x="0px" y="0px"
	 viewBox="0 0 1011.4 114" style="enable-background:new 0 0 1011.4 114;" xml:space="preserve">
<style type="text/css">
	.st0{fill:none;}
	.st1{fill:#FF4575;}
	.st2{fill:#FFFFFF;}
	.st3{fill:#FEEDEA;}
	.st4{font-family:'Montserrat-Bold';}
	.st5{font-size:26.2058px;}
</style>
<rect x="-271.9" y="0" class="st0" width="1512" height="114"/>
<rect x="-271.9" y="0" class="st1" width="1512" height="114"/>
<path class="st2" d="M-250.1-52.8c-1.4,0-2.8-0.2-4.1-0.6c-1.3-0.4-2.3-0.9-3.1-1.6l1.2-2.6c0.7,0.6,1.7,1.1,2.7,1.5
	c1.1,0.4,2.2,0.5,3.3,0.5c1.4,0,2.4-0.2,3-0.7c0.7-0.4,1-1,1-1.7c0-0.5-0.2-0.9-0.6-1.3c-0.4-0.3-0.8-0.6-1.4-0.8s-1.4-0.4-2.3-0.7
	c-1.4-0.3-2.5-0.7-3.4-1s-1.6-0.8-2.2-1.5s-0.9-1.7-0.9-2.9c0-1,0.3-1.9,0.8-2.7c0.6-0.8,1.4-1.5,2.5-2s2.5-0.7,4.1-0.7
	c1.1,0,2.2,0.1,3.3,0.4c1.1,0.3,2,0.7,2.8,1.2l-1.1,2.6c-0.8-0.5-1.6-0.8-2.5-1.1c-0.9-0.2-1.7-0.4-2.5-0.4c-1.3,0-2.3,0.2-3,0.7
	c-0.6,0.5-1,1.1-1,1.8c0,0.5,0.2,0.9,0.5,1.3c0.4,0.3,0.9,0.6,1.4,0.8c0.6,0.2,1.4,0.4,2.3,0.7c1.4,0.3,2.5,0.6,3.3,1
	c0.9,0.3,1.6,0.8,2.2,1.5s0.9,1.6,0.9,2.8c0,1-0.3,1.9-0.8,2.7s-1.4,1.5-2.5,2C-247.2-53.1-248.5-52.8-250.1-52.8z M-234.4-67.1
	c2,0,3.6,0.5,4.7,1.5s1.6,2.4,1.6,4.4v8.2h-3.1v-1.7c-0.4,0.6-1,1.1-1.7,1.4c-0.7,0.3-1.6,0.5-2.7,0.5c-1,0-2-0.2-2.7-0.5
	c-0.8-0.4-1.4-0.9-1.8-1.5s-0.6-1.4-0.6-2.2c0-1.2,0.5-2.2,1.4-3s2.4-1.1,4.4-1.1h3.6v-0.2c0-1-0.3-1.7-0.9-2.2s-1.4-0.8-2.6-0.8
	c-0.8,0-1.6,0.1-2.3,0.4c-0.7,0.2-1.4,0.6-1.9,1l-1.3-2.4c0.7-0.6,1.6-1,2.6-1.3C-236.6-67-235.5-67.1-234.4-67.1z M-234.8-55.3
	c0.8,0,1.5-0.2,2.2-0.5c0.6-0.4,1.1-0.9,1.4-1.6V-59h-3.4c-1.9,0-2.8,0.6-2.8,1.8c0,0.6,0.2,1.1,0.7,1.4S-235.7-55.3-234.8-55.3z
	 M-220.8-65c0.9-1.5,2.6-2.2,4.9-2.2v3.1c-0.3-0.1-0.5-0.1-0.8-0.1c-1.3,0-2.3,0.4-3,1.1c-0.7,0.7-1.1,1.8-1.1,3.2v6.7h-3.3V-67h3.1
	v2H-220.8z M-207.8-67.1c2,0,3.6,0.5,4.7,1.5s1.6,2.4,1.6,4.4v8.2h-3.1v-1.7c-0.4,0.6-1,1.1-1.7,1.4c-0.7,0.3-1.6,0.5-2.7,0.5
	c-1,0-2-0.2-2.7-0.5c-0.8-0.4-1.4-0.9-1.8-1.5s-0.6-1.4-0.6-2.2c0-1.2,0.5-2.2,1.4-3s2.4-1.1,4.4-1.1h3.6v-0.2c0-1-0.3-1.7-0.9-2.2
	s-1.4-0.8-2.6-0.8c-0.8,0-1.6,0.1-2.3,0.4c-0.7,0.2-1.4,0.6-1.9,1l-1.3-2.4c0.7-0.6,1.6-1,2.6-1.3C-210.1-67-209-67.1-207.8-67.1z
	 M-208.3-55.3c0.8,0,1.5-0.2,2.2-0.5c0.6-0.4,1.1-0.9,1.4-1.6V-59h-3.4c-1.9,0-2.8,0.6-2.8,1.8c0,0.6,0.2,1.1,0.7,1.4
	S-209.1-55.3-208.3-55.3z M-184.2-52.8c-1.4,0-2.8-0.2-4.1-0.6c-1.3-0.4-2.3-0.9-3.1-1.6l1.2-2.6c0.7,0.6,1.7,1.1,2.7,1.5
	c1.1,0.4,2.2,0.5,3.3,0.5c1.4,0,2.4-0.2,3-0.7c0.7-0.4,1-1,1-1.7c0-0.5-0.2-0.9-0.6-1.3c-0.4-0.3-0.8-0.6-1.4-0.8s-1.4-0.4-2.3-0.7
	c-1.4-0.3-2.5-0.7-3.4-1s-1.6-0.8-2.2-1.5s-0.9-1.7-0.9-2.9c0-1,0.3-1.9,0.8-2.7c0.6-0.8,1.4-1.5,2.5-2s2.5-0.7,4.1-0.7
	c1.1,0,2.2,0.1,3.3,0.4c1.1,0.3,2,0.7,2.8,1.2l-1.1,2.6c-0.8-0.5-1.6-0.8-2.5-1.1c-0.9-0.2-1.7-0.4-2.5-0.4c-1.3,0-2.3,0.2-3,0.7
	c-0.6,0.5-1,1.1-1,1.8c0,0.5,0.2,0.9,0.5,1.3c0.4,0.3,0.9,0.6,1.4,0.8c0.6,0.2,1.4,0.4,2.3,0.7c1.4,0.3,2.5,0.6,3.3,1
	c0.9,0.3,1.6,0.8,2.2,1.5s0.9,1.6,0.9,2.8c0,1-0.3,1.9-0.8,2.7s-1.4,1.5-2.5,2C-181.2-53.1-182.6-52.8-184.2-52.8z M-161-67l-6,13.9
	h-3.4l-6-13.9h3.4l4.3,10.3l4.5-10.3H-161z M-146.3-60c0,0.2,0,0.5-0.1,1h-10.8c0.2,1,0.7,1.8,1.5,2.4c0.8,0.6,1.8,0.9,3,0.9
	c1.5,0,2.8-0.5,3.8-1.5l1.7,2c-0.6,0.7-1.4,1.3-2.4,1.7s-2,0.6-3.2,0.6c-1.5,0-2.9-0.3-4-0.9c-1.2-0.6-2.1-1.4-2.7-2.5
	s-0.9-2.3-0.9-3.7s0.3-2.6,0.9-3.6c0.6-1.1,1.5-1.9,2.6-2.6c1.1-0.6,2.3-0.9,3.7-0.9c1.4,0,2.6,0.3,3.6,0.9c1.1,0.6,1.9,1.4,2.5,2.5
	C-146.6-62.6-146.3-61.4-146.3-60z M-153.3-64.5c-1,0-1.9,0.3-2.7,0.9c-0.7,0.6-1.1,1.4-1.3,2.4h7.9c-0.1-1-0.6-1.8-1.3-2.4
	C-151.4-64.2-152.2-64.5-153.3-64.5z M-135.2-67.1c1.8,0,3.2,0.5,4.2,1.5c1.1,1,1.6,2.5,1.6,4.6v8h-3.3v-7.6c0-1.2-0.3-2.1-0.9-2.7
	c-0.6-0.6-1.4-0.9-2.4-0.9c-1.2,0-2.1,0.4-2.8,1.1c-0.7,0.7-1,1.7-1,3.1v7h-3.3v-14h3.1v1.8c0.5-0.6,1.2-1.1,2-1.5
	C-137.2-67-136.3-67.1-135.2-67.1z M-121-52.9c-1.1,0-2.2-0.1-3.3-0.4c-1.1-0.3-1.9-0.7-2.6-1.1l1.2-2.5c0.6,0.4,1.4,0.8,2.2,1
	c0.9,0.2,1.8,0.4,2.6,0.4c1.9,0,2.9-0.5,2.9-1.5c0-0.5-0.3-0.8-0.8-1s-1.3-0.4-2.4-0.5c-1.1-0.2-2.1-0.4-2.8-0.6
	c-0.7-0.2-1.3-0.6-1.9-1.2c-0.5-0.6-0.8-1.4-0.8-2.4c0-1.3,0.5-2.4,1.6-3.2s2.6-1.2,4.5-1.2c1,0,1.9,0.1,2.9,0.3
	c1,0.2,1.7,0.5,2.3,0.9l-1.2,2.5c-1.2-0.7-2.5-1-4-1c-1,0-1.7,0.1-2.2,0.4c-0.5,0.3-0.7,0.7-0.7,1.1c0,0.5,0.3,0.9,0.8,1.1
	c0.5,0.2,1.4,0.4,2.5,0.6c1.1,0.2,2,0.4,2.7,0.6c0.7,0.2,1.3,0.6,1.8,1.1s0.8,1.3,0.8,2.3c0,1.3-0.6,2.3-1.7,3.1
	C-117.5-53.3-119.1-52.9-121-52.9z M-107.6-52.9c-1.1,0-2.2-0.1-3.3-0.4s-1.9-0.7-2.6-1.1l1.2-2.5c0.6,0.4,1.4,0.8,2.2,1
	c0.9,0.2,1.8,0.4,2.6,0.4c1.9,0,2.9-0.5,2.9-1.5c0-0.5-0.3-0.8-0.8-1s-1.3-0.4-2.4-0.5c-1.1-0.2-2.1-0.4-2.8-0.6
	c-0.7-0.2-1.3-0.6-1.9-1.2c-0.5-0.6-0.8-1.4-0.8-2.4c0-1.3,0.5-2.4,1.6-3.2s2.6-1.2,4.5-1.2c1,0,1.9,0.1,2.9,0.3
	c1,0.2,1.7,0.5,2.3,0.9l-1.2,2.5c-1.2-0.7-2.5-1-4-1c-1,0-1.7,0.1-2.2,0.4c-0.5,0.3-0.7,0.7-0.7,1.1c0,0.5,0.3,0.9,0.8,1.1
	c0.5,0.2,1.4,0.4,2.5,0.6c1.1,0.2,2,0.4,2.7,0.6c0.7,0.2,1.3,0.6,1.8,1.1s0.8,1.3,0.8,2.3c0,1.3-0.6,2.3-1.7,3.1
	C-104.1-53.3-105.7-52.9-107.6-52.9z M-92.3-52.9c-1.4,0-2.7-0.3-3.8-0.9c-1.1-0.6-2-1.4-2.7-2.5c-0.6-1.1-0.9-2.3-0.9-3.7
	s0.3-2.6,0.9-3.7c0.6-1.1,1.5-1.9,2.7-2.5c1.1-0.6,2.4-0.9,3.8-0.9c1.4,0,2.7,0.3,3.8,0.9s2,1.4,2.6,2.5s1,2.3,1,3.7s-0.3,2.6-1,3.7
	c-0.6,1.1-1.5,1.9-2.6,2.5C-89.6-53.2-90.8-52.9-92.3-52.9z M-92.3-55.7c1.2,0,2.2-0.4,3-1.2s1.2-1.8,1.2-3.2c0-1.3-0.4-2.4-1.2-3.2
	c-0.8-0.8-1.8-1.2-3-1.2s-2.2,0.4-3,1.2s-1.1,1.8-1.1,3.2c0,1.3,0.4,2.4,1.1,3.2C-94.5-56.1-93.5-55.7-92.3-55.7z M-73.8-67.1
	c1.8,0,3.2,0.5,4.2,1.5c1.1,1,1.6,2.5,1.6,4.6v8h-3.3v-7.6c0-1.2-0.3-2.1-0.9-2.7c-0.6-0.6-1.4-0.9-2.4-0.9c-1.2,0-2.1,0.4-2.8,1.1
	c-0.7,0.7-1,1.7-1,3.1v7h-3.3v-14h3.1v1.8c0.5-0.6,1.2-1.1,2-1.5C-75.8-67-74.9-67.1-73.8-67.1z M-55.1-58.2c-0.6,0-1.1-0.2-1.5-0.6
	c-0.4-0.4-0.6-0.9-0.6-1.6c0-0.6,0.2-1.1,0.6-1.5c0.4-0.4,0.9-0.6,1.5-0.6s1.1,0.2,1.5,0.6c0.4,0.4,0.6,0.9,0.6,1.6
	c0,0.7-0.2,1.2-0.6,1.6C-54-58.4-54.5-58.2-55.1-58.2z M-38.4-68.5v5.5h8.8v2.9h-8.8v7h-3.4v-18.2h13.3v2.8H-38.4z M-12.5-67v13.9
	h-3.1v-1.8c-0.5,0.6-1.2,1.1-2,1.5c-0.8,0.3-1.6,0.5-2.5,0.5c-1.9,0-3.3-0.5-4.4-1.5c-1.1-1-1.6-2.6-1.6-4.6v-8h3.3v7.5
	c0,1.2,0.3,2.2,0.8,2.8c0.6,0.6,1.4,0.9,2.4,0.9c1.2,0,2.1-0.4,2.8-1.1c0.7-0.7,1-1.8,1-3.1v-7H-12.5z M-8.2-72.4h3.3v19.3h-3.3
	V-72.4z M-0.7-72.4h3.3v19.3h-3.3V-72.4z M11.2-52.9c-1.1,0-2.2-0.1-3.3-0.4C6.8-53.6,6-54,5.3-54.4l1.2-2.5c0.6,0.4,1.4,0.8,2.2,1
	c0.9,0.2,1.8,0.4,2.6,0.4c1.9,0,2.9-0.5,2.9-1.5c0-0.5-0.3-0.8-0.8-1s-1.3-0.4-2.4-0.5c-1.1-0.2-2.1-0.4-2.8-0.6
	c-0.7-0.2-1.3-0.6-1.9-1.2c-0.5-0.6-0.8-1.4-0.8-2.4c0-1.3,0.5-2.4,1.6-3.2s2.6-1.2,4.5-1.2c1,0,1.9,0.1,2.9,0.3
	c1,0.2,1.7,0.5,2.3,0.9l-1.2,2.5c-1.2-0.7-2.5-1-4-1c-1,0-1.7,0.1-2.2,0.4c-0.5,0.3-0.7,0.7-0.7,1.1c0,0.5,0.3,0.9,0.8,1.1
	c0.5,0.2,1.4,0.4,2.5,0.6c1.1,0.2,2,0.4,2.7,0.6c0.7,0.2,1.3,0.6,1.8,1.1s0.8,1.3,0.8,2.3c0,1.3-0.6,2.3-1.7,3.1
	C14.6-53.3,13.1-52.9,11.2-52.9z M28.6-53.8c-0.4,0.3-0.9,0.5-1.4,0.7s-1.1,0.2-1.7,0.2c-1.5,0-2.7-0.4-3.5-1.2s-1.2-2-1.2-3.5v-6.7
	h-2.3v-2.6h2.3v-3.2h3.3v3.2h3.7v2.6h-3.7v6.6c0,0.7,0.2,1.2,0.5,1.6c0.3,0.3,0.8,0.5,1.4,0.5c0.7,0,1.3-0.2,1.8-0.6L28.6-53.8z
	 M36.6-67.1c2,0,3.6,0.5,4.7,1.5s1.6,2.4,1.6,4.4v8.2h-3.1v-1.7c-0.4,0.6-1,1.1-1.7,1.4c-0.7,0.3-1.6,0.5-2.7,0.5
	c-1,0-2-0.2-2.7-0.5c-0.8-0.4-1.4-0.9-1.8-1.5s-0.6-1.4-0.6-2.2c0-1.2,0.5-2.2,1.4-3c0.9-0.8,2.4-1.1,4.4-1.1h3.6v-0.2
	c0-1-0.3-1.7-0.9-2.2s-1.4-0.8-2.6-0.8c-0.8,0-1.6,0.1-2.3,0.4c-0.7,0.2-1.4,0.6-1.9,1l-1.3-2.4c0.7-0.6,1.6-1,2.6-1.3
	C34.4-67,35.5-67.1,36.6-67.1z M36.2-55.3c0.8,0,1.5-0.2,2.2-0.5c0.6-0.4,1.1-0.9,1.4-1.6V-59h-3.4c-1.9,0-2.8,0.6-2.8,1.8
	c0,0.6,0.2,1.1,0.7,1.4C34.7-55.4,35.3-55.3,36.2-55.3z M53.6-52.9c-1.4,0-2.7-0.3-3.9-0.9c-1.1-0.6-2-1.4-2.7-2.5
	c-0.6-1.1-1-2.3-1-3.7s0.3-2.6,1-3.7c0.6-1.1,1.5-1.9,2.7-2.5c1.1-0.6,2.4-0.9,3.9-0.9c1.4,0,2.6,0.3,3.6,0.8c1,0.6,1.8,1.4,2.3,2.4
	L57-62.4c-0.4-0.6-0.9-1.1-1.5-1.4s-1.2-0.5-2-0.5c-1.2,0-2.2,0.4-3,1.2s-1.2,1.8-1.2,3.2c0,1.3,0.4,2.4,1.2,3.2
	c0.8,0.8,1.8,1.2,3,1.2c0.7,0,1.4-0.2,2-0.5s1.1-0.8,1.5-1.5l2.5,1.5c-0.5,1-1.3,1.8-2.4,2.4C56.2-53.2,55-52.9,53.6-52.9z M67.9-59
	l-2.4,2.3v3.7h-3.3v-19.3h3.3v11.7l6.7-6.2h3.9L70.3-61l6.4,8.1h-4L67.9-59z M86.3-71.3h8c1.9,0,3.7,0.4,5.2,1.1s2.7,1.8,3.5,3.2
	c0.8,1.4,1.2,3,1.2,4.8s-0.4,3.4-1.2,4.8c-0.8,1.4-2,2.4-3.5,3.2c-1.5,0.7-3.2,1.1-5.2,1.1h-8V-71.3z M94.1-55.9
	c1.3,0,2.5-0.3,3.5-0.8s1.8-1.2,2.3-2.2c0.6-1,0.8-2.1,0.8-3.3s-0.3-2.3-0.8-3.3s-1.3-1.7-2.3-2.2s-2.2-0.8-3.5-0.8h-4.4V-56
	L94.1-55.9L94.1-55.9z M120.6-60c0,0.2,0,0.5-0.1,1h-10.9c0.2,1,0.7,1.8,1.5,2.4c0.8,0.6,1.8,0.9,3,0.9c1.5,0,2.8-0.5,3.8-1.5l1.7,2
	c-0.6,0.7-1.4,1.3-2.4,1.7s-2,0.6-3.2,0.6c-1.5,0-2.9-0.3-4-0.9c-1.2-0.6-2.1-1.4-2.7-2.5s-0.9-2.3-0.9-3.7s0.3-2.6,0.9-3.6
	c0.6-1.1,1.5-1.9,2.6-2.6c1.1-0.6,2.3-0.9,3.7-0.9s2.6,0.3,3.6,0.9c1.1,0.6,1.9,1.4,2.5,2.5S120.6-61.4,120.6-60z M113.5-64.5
	c-1,0-1.9,0.3-2.7,0.9c-0.7,0.6-1.1,1.4-1.3,2.4h7.9c-0.1-1-0.6-1.8-1.3-2.4C115.5-64.2,114.6-64.5,113.5-64.5z M136.5-67l-6,13.9
	h-3.4l-6-13.9h3.4l4.3,10.3l4.5-10.3H136.5z M151.2-60c0,0.2,0,0.5-0.1,1h-10.9c0.2,1,0.7,1.8,1.5,2.4c0.8,0.6,1.8,0.9,3,0.9
	c1.5,0,2.8-0.5,3.8-1.5l1.7,2c-0.6,0.7-1.4,1.3-2.4,1.7s-2,0.6-3.2,0.6c-1.5,0-2.9-0.3-4-0.9c-1.2-0.6-2.1-1.4-2.7-2.5
	c-0.6-1.1-0.9-2.3-0.9-3.7s0.3-2.6,0.9-3.6c0.6-1.1,1.5-1.9,2.6-2.6c1.1-0.6,2.3-0.9,3.7-0.9c1.4,0,2.6,0.3,3.6,0.9
	c1.1,0.6,1.9,1.4,2.5,2.5S151.2-61.4,151.2-60z M144.2-64.5c-1,0-1.9,0.3-2.7,0.9c-0.7,0.6-1.1,1.4-1.3,2.4h7.9
	c-0.1-1-0.6-1.8-1.3-2.4C146.1-64.2,145.2-64.5,144.2-64.5z M154.3-72.4h3.3v19.3h-3.3V-72.4z M168.1-52.9c-1.4,0-2.7-0.3-3.8-0.9
	c-1.1-0.6-2-1.4-2.7-2.5c-0.6-1.1-0.9-2.3-0.9-3.7s0.3-2.6,0.9-3.7c0.6-1.1,1.5-1.9,2.7-2.5c1.1-0.6,2.4-0.9,3.8-0.9
	s2.7,0.3,3.8,0.9c1.1,0.6,2,1.4,2.6,2.5c0.6,1.1,1,2.3,1,3.7s-0.3,2.6-1,3.7c-0.6,1.1-1.5,1.9-2.6,2.5
	C170.8-53.2,169.5-52.9,168.1-52.9z M168.1-55.7c1.2,0,2.2-0.4,3-1.2s1.2-1.8,1.2-3.2c0-1.3-0.4-2.4-1.2-3.2c-0.8-0.8-1.8-1.2-3-1.2
	s-2.2,0.4-3,1.2s-1.1,1.8-1.1,3.2c0,1.3,0.4,2.4,1.1,3.2C165.9-56.1,166.9-55.7,168.1-55.7z M186.3-67.1c1.4,0,2.6,0.3,3.6,0.9
	c1.1,0.6,1.9,1.4,2.5,2.5c0.6,1.1,0.9,2.3,0.9,3.7s-0.3,2.7-0.9,3.7c-0.6,1.1-1.4,1.9-2.5,2.5c-1.1,0.6-2.3,0.9-3.6,0.9
	c-1.9,0-3.4-0.6-4.5-1.9v6.7h-3.3v-19h3.1v1.8c0.5-0.7,1.2-1.2,2-1.5C184.5-67,185.4-67.1,186.3-67.1z M186-55.7
	c1.2,0,2.2-0.4,2.9-1.2c0.8-0.8,1.2-1.8,1.2-3.2c0-1.3-0.4-2.4-1.2-3.2c-0.8-0.8-1.7-1.2-2.9-1.2c-0.8,0-1.5,0.2-2.1,0.5
	c-0.6,0.3-1.1,0.9-1.5,1.5c-0.4,0.8-0.6,1.6-0.6,2.5s0.2,1.6,0.5,2.3c0.4,0.7,0.9,1.2,1.5,1.5C184.5-55.9,185.2-55.7,186-55.7z
	 M209.5-60c0,0.2,0,0.5-0.1,1h-10.8c0.2,1,0.7,1.8,1.5,2.4c0.8,0.6,1.8,0.9,3,0.9c1.5,0,2.8-0.5,3.8-1.5l1.7,2
	c-0.6,0.7-1.4,1.3-2.4,1.7s-2,0.6-3.2,0.6c-1.5,0-2.9-0.3-4-0.9c-1.2-0.6-2.1-1.4-2.7-2.5c-0.6-1.1-0.9-2.3-0.9-3.7s0.3-2.6,0.9-3.6
	c0.6-1.1,1.5-1.9,2.6-2.6c1.1-0.6,2.3-0.9,3.7-0.9c1.4,0,2.6,0.3,3.6,0.9c1.1,0.6,1.9,1.4,2.5,2.5C209.2-62.6,209.5-61.4,209.5-60z
	 M202.5-64.5c-1,0-1.9,0.3-2.7,0.9c-0.7,0.6-1.1,1.4-1.3,2.4h7.9c-0.1-1-0.6-1.8-1.3-2.4C204.5-64.2,203.6-64.5,202.5-64.5z
	 M215.8-65c0.9-1.5,2.6-2.2,4.9-2.2v3.1c-0.3-0.1-0.5-0.1-0.8-0.1c-1.3,0-2.3,0.4-3,1.1c-0.7,0.7-1.1,1.8-1.1,3.2v6.7h-3.3V-67h3.3
	V-65z M232.4-58.2c-0.6,0-1.1-0.2-1.5-0.6c-0.4-0.4-0.6-0.9-0.6-1.6c0-0.6,0.2-1.1,0.6-1.5c0.4-0.4,0.9-0.6,1.5-0.6
	c0.6,0,1.1,0.2,1.5,0.6c0.4,0.4,0.6,0.9,0.6,1.6c0,0.7-0.2,1.2-0.6,1.6C233.5-58.4,233-58.2,232.4-58.2z M251.4-52.8
	c-1.4,0-2.8-0.2-4.1-0.6c-1.3-0.4-2.3-0.9-3.1-1.6l1.2-2.6c0.7,0.6,1.7,1.1,2.7,1.5c1.1,0.4,2.2,0.5,3.3,0.5c1.4,0,2.4-0.2,3-0.7
	c0.7-0.4,1-1,1-1.7c0-0.5-0.2-0.9-0.6-1.3c-0.4-0.3-0.8-0.6-1.4-0.8c-0.6-0.2-1.4-0.4-2.3-0.7c-1.4-0.3-2.5-0.7-3.4-1
	c-0.9-0.3-1.6-0.8-2.2-1.5c-0.6-0.7-0.9-1.7-0.9-2.9c0-1,0.3-1.9,0.8-2.7c0.6-0.8,1.4-1.5,2.5-2c1.1-0.5,2.5-0.7,4.1-0.7
	c1.1,0,2.2,0.1,3.3,0.4s2,0.7,2.8,1.2l-1.1,2.6c-0.8-0.5-1.6-0.8-2.5-1.1c-0.9-0.2-1.7-0.4-2.5-0.4c-1.3,0-2.3,0.2-3,0.7
	c-0.6,0.5-1,1.1-1,1.8c0,0.5,0.2,0.9,0.5,1.3c0.4,0.3,0.9,0.6,1.4,0.8c0.6,0.2,1.4,0.4,2.3,0.7c1.4,0.3,2.5,0.6,3.3,1
	c0.9,0.3,1.6,0.8,2.2,1.5s0.9,1.6,0.9,2.8c0,1-0.3,1.9-0.8,2.7s-1.4,1.5-2.5,2C254.3-53.1,253-52.8,251.4-52.8z M267.1-67.1
	c2,0,3.6,0.5,4.7,1.5c1.1,1,1.6,2.4,1.6,4.4v8.2h-3.1v-1.7c-0.4,0.6-1,1.1-1.7,1.4c-0.7,0.3-1.6,0.5-2.7,0.5c-1,0-2-0.2-2.7-0.5
	c-0.8-0.4-1.4-0.9-1.8-1.5c-0.4-0.6-0.6-1.4-0.6-2.2c0-1.2,0.5-2.2,1.4-3s2.4-1.1,4.4-1.1h3.6v-0.2c0-1-0.3-1.7-0.9-2.2
	s-1.4-0.8-2.6-0.8c-0.8,0-1.6,0.1-2.3,0.4c-0.7,0.2-1.4,0.6-1.9,1l-1.3-2.4c0.7-0.6,1.6-1,2.6-1.3C264.9-67,265.9-67.1,267.1-67.1z
	 M266.6-55.3c0.8,0,1.5-0.2,2.2-0.5c0.6-0.4,1.1-0.9,1.4-1.6V-59h-3.4c-1.9,0-2.8,0.6-2.8,1.8c0,0.6,0.2,1.1,0.7,1.4
	C265.2-55.4,265.8-55.3,266.6-55.3z M280.7-65c0.9-1.5,2.6-2.2,4.9-2.2v3.1c-0.3-0.1-0.5-0.1-0.8-0.1c-1.3,0-2.3,0.4-3,1.1
	c-0.7,0.7-1.1,1.8-1.1,3.2v6.7h-3.3V-67h3.1v2H280.7z M293.6-67.1c2,0,3.6,0.5,4.7,1.5c1.1,1,1.6,2.4,1.6,4.4v8.2h-3.1v-1.7
	c-0.4,0.6-1,1.1-1.7,1.4c-0.7,0.3-1.6,0.5-2.7,0.5c-1,0-2-0.2-2.7-0.5c-0.8-0.4-1.4-0.9-1.8-1.5c-0.4-0.6-0.6-1.4-0.6-2.2
	c0-1.2,0.5-2.2,1.4-3s2.4-1.1,4.4-1.1h3.6v-0.2c0-1-0.3-1.7-0.9-2.2s-1.4-0.8-2.6-0.8c-0.8,0-1.6,0.1-2.3,0.4
	c-0.7,0.2-1.4,0.6-1.9,1l-1.3-2.4c0.7-0.6,1.6-1,2.6-1.3C291.4-67,292.5-67.1,293.6-67.1z M293.2-55.3c0.8,0,1.5-0.2,2.2-0.5
	c0.6-0.4,1.1-0.9,1.4-1.6V-59h-3.4c-1.9,0-2.8,0.6-2.8,1.8c0,0.6,0.2,1.1,0.7,1.4C291.7-55.4,292.4-55.3,293.2-55.3z M317.3-52.8
	c-1.4,0-2.8-0.2-4.1-0.6c-1.3-0.4-2.3-0.9-3.1-1.6l1.2-2.6c0.7,0.6,1.7,1.1,2.7,1.5c1.1,0.4,2.2,0.5,3.3,0.5c1.4,0,2.4-0.2,3-0.7
	c0.7-0.4,1-1,1-1.7c0-0.5-0.2-0.9-0.6-1.3c-0.4-0.3-0.8-0.6-1.4-0.8c-0.6-0.2-1.4-0.4-2.3-0.7c-1.4-0.3-2.5-0.7-3.4-1
	s-1.6-0.8-2.2-1.5c-0.6-0.7-0.9-1.7-0.9-2.9c0-1,0.3-1.9,0.8-2.7c0.6-0.8,1.4-1.5,2.5-2s2.5-0.7,4.1-0.7c1.1,0,2.2,0.1,3.3,0.4
	s2,0.7,2.8,1.2l-1.1,2.6c-0.8-0.5-1.6-0.8-2.5-1.1c-0.9-0.2-1.7-0.4-2.5-0.4c-1.3,0-2.3,0.2-3,0.7c-0.6,0.5-1,1.1-1,1.8
	c0,0.5,0.2,0.9,0.5,1.3c0.4,0.3,0.9,0.6,1.4,0.8c0.6,0.2,1.4,0.4,2.3,0.7c1.4,0.3,2.5,0.6,3.3,1c0.9,0.3,1.6,0.8,2.2,1.5
	s0.9,1.6,0.9,2.8c0,1-0.3,1.9-0.8,2.7s-1.4,1.5-2.5,2C320.2-53.1,318.9-52.8,317.3-52.8z M340.5-67l-6,13.9h-3.4l-6-13.9h3.4
	l4.3,10.3l4.5-10.3H340.5z M355.2-60c0,0.2,0,0.5-0.1,1h-10.9c0.2,1,0.7,1.8,1.5,2.4c0.8,0.6,1.8,0.9,3,0.9c1.5,0,2.8-0.5,3.8-1.5
	l1.7,2c-0.6,0.7-1.4,1.3-2.4,1.7s-2,0.6-3.2,0.6c-1.5,0-2.9-0.3-4-0.9c-1.2-0.6-2.1-1.4-2.7-2.5S341-58.6,341-60s0.3-2.6,0.9-3.6
	c0.6-1.1,1.5-1.9,2.6-2.6c1.1-0.6,2.3-0.9,3.7-0.9s2.6,0.3,3.6,0.9c1.1,0.6,1.9,1.4,2.5,2.5C354.9-62.6,355.2-61.4,355.2-60z
	 M348.2-64.5c-1,0-1.9,0.3-2.7,0.9c-0.7,0.6-1.1,1.4-1.3,2.4h7.9c-0.1-1-0.6-1.8-1.3-2.4C350.1-64.2,349.2-64.5,348.2-64.5z
	 M366.2-67.1c1.8,0,3.2,0.5,4.2,1.5c1.1,1,1.6,2.5,1.6,4.6v8h-3.2v-7.6c0-1.2-0.3-2.1-0.9-2.7c-0.6-0.6-1.4-0.9-2.4-0.9
	c-1.2,0-2.1,0.4-2.8,1.1c-0.7,0.7-1,1.7-1,3.1v7h-3.3v-14h3.1v1.8c0.5-0.6,1.2-1.1,2-1.5C364.3-67,365.2-67.1,366.2-67.1z
	 M380.4-52.9c-1.1,0-2.2-0.1-3.3-0.4c-1.1-0.3-1.9-0.7-2.6-1.1l1.2-2.5c0.6,0.4,1.4,0.8,2.2,1c0.9,0.2,1.8,0.4,2.6,0.4
	c1.9,0,2.9-0.5,2.9-1.5c0-0.5-0.3-0.8-0.8-1s-1.3-0.4-2.4-0.5c-1.1-0.2-2.1-0.4-2.8-0.6c-0.7-0.2-1.3-0.6-1.9-1.2
	c-0.5-0.6-0.8-1.4-0.8-2.4c0-1.3,0.5-2.4,1.6-3.2s2.6-1.2,4.5-1.2c1,0,1.9,0.1,2.9,0.3c1,0.2,1.7,0.5,2.3,0.9l-1.2,2.5
	c-1.2-0.7-2.5-1-4-1c-1,0-1.7,0.1-2.2,0.4c-0.5,0.3-0.7,0.7-0.7,1.1c0,0.5,0.3,0.9,0.8,1.1c0.5,0.2,1.4,0.4,2.5,0.6
	c1.1,0.2,2,0.4,2.7,0.6c0.7,0.2,1.3,0.6,1.8,1.1s0.8,1.3,0.8,2.3c0,1.3-0.6,2.3-1.7,3.1C383.9-53.3,382.4-52.9,380.4-52.9z
	 M393.8-52.9c-1.1,0-2.2-0.1-3.3-0.4c-1.1-0.3-1.9-0.7-2.6-1.1l1.2-2.5c0.6,0.4,1.4,0.8,2.2,1c0.9,0.2,1.8,0.4,2.6,0.4
	c1.9,0,2.9-0.5,2.9-1.5c0-0.5-0.3-0.8-0.8-1s-1.3-0.4-2.4-0.5c-1.1-0.2-2.1-0.4-2.8-0.6c-0.7-0.2-1.3-0.6-1.9-1.2
	c-0.5-0.6-0.8-1.4-0.8-2.4c0-1.3,0.5-2.4,1.6-3.2s2.6-1.2,4.5-1.2c1,0,1.9,0.1,2.9,0.3c1,0.2,1.7,0.5,2.3,0.9l-1.2,2.5
	c-1.2-0.7-2.5-1-4-1c-1,0-1.7,0.1-2.2,0.4c-0.5,0.3-0.7,0.7-0.7,1.1c0,0.5,0.3,0.9,0.8,1.1c0.5,0.2,1.4,0.4,2.5,0.6
	c1.1,0.2,2,0.4,2.7,0.6c0.7,0.2,1.3,0.6,1.8,1.1s0.8,1.3,0.8,2.3c0,1.3-0.6,2.3-1.7,3.1C397.3-53.3,395.8-52.9,393.8-52.9z
	 M409.2-52.9c-1.4,0-2.7-0.3-3.8-0.9c-1.1-0.6-2-1.4-2.7-2.5c-0.6-1.1-0.9-2.3-0.9-3.7s0.3-2.6,0.9-3.7c0.6-1.1,1.5-1.9,2.7-2.5
	c1.1-0.6,2.4-0.9,3.8-0.9s2.7,0.3,3.8,0.9c1.1,0.6,2,1.4,2.6,2.5s1,2.3,1,3.7s-0.3,2.6-1,3.7c-0.6,1.1-1.5,1.9-2.6,2.5
	C411.9-53.2,410.6-52.9,409.2-52.9z M409.2-55.7c1.2,0,2.2-0.4,3-1.2s1.2-1.8,1.2-3.2c0-1.3-0.4-2.4-1.2-3.2c-0.8-0.8-1.8-1.2-3-1.2
	s-2.2,0.4-3,1.2s-1.1,1.8-1.1,3.2c0,1.3,0.4,2.4,1.1,3.2C407-56.1,408-55.7,409.2-55.7z M427.6-67.1c1.8,0,3.2,0.5,4.2,1.5
	c1.1,1,1.6,2.5,1.6,4.6v8h-3.3v-7.6c0-1.2-0.3-2.1-0.9-2.7c-0.6-0.6-1.4-0.9-2.4-0.9c-1.2,0-2.1,0.4-2.8,1.1c-0.7,0.7-1,1.7-1,3.1v7
	h-3.3v-14h3.1v1.8c0.5-0.6,1.2-1.1,2-1.5C425.7-67,426.6-67.1,427.6-67.1z M446.3-58.2c-0.6,0-1.1-0.2-1.5-0.6
	c-0.4-0.4-0.6-0.9-0.6-1.6c0-0.6,0.2-1.1,0.6-1.5s0.9-0.6,1.5-0.6s1.1,0.2,1.5,0.6c0.4,0.4,0.6,0.9,0.6,1.6c0,0.7-0.2,1.2-0.6,1.6
	C447.5-58.4,446.9-58.2,446.3-58.2z M463-68.5v5.5h8.8v2.9H463v7h-3.4v-18.2h13.3v2.8H463z M489-67v13.9h-3.1v-1.8
	c-0.5,0.6-1.2,1.1-2,1.5c-0.8,0.3-1.6,0.5-2.5,0.5c-1.9,0-3.3-0.5-4.4-1.5s-1.6-2.6-1.6-4.6v-8h3.3v7.5c0,1.2,0.3,2.2,0.8,2.8
	c0.6,0.6,1.4,0.9,2.4,0.9c1.2,0,2.1-0.4,2.8-1.1c0.7-0.7,1-1.8,1-3.1v-7H489z M493.3-72.4h3.3v19.3h-3.3V-72.4z M500.8-72.4h3.3
	v19.3h-3.3V-72.4z M512.6-52.9c-1.1,0-2.2-0.1-3.3-0.4c-1.1-0.3-1.9-0.7-2.6-1.1l1.2-2.5c0.6,0.4,1.4,0.8,2.2,1
	c0.9,0.2,1.8,0.4,2.6,0.4c1.9,0,2.9-0.5,2.9-1.5c0-0.5-0.3-0.8-0.8-1s-1.3-0.4-2.4-0.5c-1.1-0.2-2.1-0.4-2.8-0.6
	c-0.7-0.2-1.3-0.6-1.9-1.2c-0.5-0.6-0.8-1.4-0.8-2.4c0-1.3,0.5-2.4,1.6-3.2s2.6-1.2,4.5-1.2c1,0,1.9,0.1,2.9,0.3
	c1,0.2,1.7,0.5,2.3,0.9l-1.2,2.5c-1.2-0.7-2.5-1-4-1c-1,0-1.7,0.1-2.2,0.4c-0.5,0.3-0.7,0.7-0.7,1.1c0,0.5,0.3,0.9,0.8,1.1
	c0.5,0.2,1.4,0.4,2.5,0.6c1.1,0.2,2,0.4,2.7,0.6c0.7,0.2,1.3,0.6,1.8,1.1s0.8,1.3,0.8,2.3c0,1.3-0.6,2.3-1.7,3.1
	C516.1-53.3,514.6-52.9,512.6-52.9z M530.1-53.8c-0.4,0.3-0.9,0.5-1.4,0.7s-1.1,0.2-1.7,0.2c-1.5,0-2.7-0.4-3.5-1.2s-1.2-2-1.2-3.5
	v-6.7H520v-2.6h2.3v-3.2h3.3v3.2h3.7v2.6h-3.7v6.6c0,0.7,0.2,1.2,0.5,1.6c0.3,0.3,0.8,0.5,1.4,0.5c0.7,0,1.3-0.2,1.8-0.6L530.1-53.8
	z M538.1-67.1c2,0,3.6,0.5,4.7,1.5c1.1,1,1.6,2.4,1.6,4.4v8.2h-3.1v-1.7c-0.4,0.6-1,1.1-1.7,1.4c-0.7,0.3-1.6,0.5-2.7,0.5
	c-1,0-2-0.2-2.7-0.5c-0.8-0.4-1.4-0.9-1.8-1.5c-0.4-0.6-0.6-1.4-0.6-2.2c0-1.2,0.5-2.2,1.4-3c0.9-0.8,2.4-1.1,4.4-1.1h3.6v-0.2
	c0-1-0.3-1.7-0.9-2.2c-0.6-0.5-1.4-0.8-2.6-0.8c-0.8,0-1.6,0.1-2.3,0.4c-0.7,0.2-1.4,0.6-1.9,1l-1.3-2.4c0.7-0.6,1.6-1,2.6-1.3
	C535.8-67,536.9-67.1,538.1-67.1z M537.6-55.3c0.8,0,1.5-0.2,2.2-0.5c0.6-0.4,1.1-0.9,1.4-1.6V-59h-3.4c-1.9,0-2.8,0.6-2.8,1.8
	c0,0.6,0.2,1.1,0.7,1.4S536.8-55.3,537.6-55.3z M555.1-52.9c-1.4,0-2.7-0.3-3.9-0.9c-1.1-0.6-2-1.4-2.7-2.5c-0.6-1.1-1-2.3-1-3.7
	s0.3-2.6,1-3.7c0.6-1.1,1.5-1.9,2.7-2.5c1.1-0.6,2.4-0.9,3.9-0.9c1.4,0,2.6,0.3,3.6,0.8c1,0.6,1.8,1.4,2.3,2.4l-2.5,1.5
	c-0.4-0.6-0.9-1.1-1.5-1.4c-0.6-0.3-1.2-0.5-2-0.5c-1.2,0-2.2,0.4-3,1.2s-1.2,1.8-1.2,3.2c0,1.3,0.4,2.4,1.2,3.2
	c0.8,0.8,1.8,1.2,3,1.2c0.7,0,1.4-0.2,2-0.5c0.6-0.3,1.1-0.8,1.5-1.5L561-56c-0.5,1-1.3,1.8-2.4,2.4
	C557.6-53.2,556.4-52.9,555.1-52.9z M569.4-59l-2.4,2.3v3.7h-3.3v-19.3h3.3v11.7l6.7-6.2h3.9l-5.8,5.8l6.4,8.1h-4L569.4-59z
	 M587.8-71.3h8c1.9,0,3.7,0.4,5.2,1.1s2.7,1.8,3.5,3.2c0.8,1.4,1.2,3,1.2,4.8s-0.4,3.4-1.2,4.8c-0.8,1.4-2,2.4-3.5,3.2
	c-1.5,0.7-3.2,1.1-5.2,1.1h-8V-71.3z M595.6-55.9c1.3,0,2.5-0.3,3.5-0.8s1.8-1.2,2.3-2.2c0.6-1,0.8-2.1,0.8-3.3s-0.3-2.3-0.8-3.3
	s-1.3-1.7-2.3-2.2s-2.2-0.8-3.5-0.8h-4.4V-56L595.6-55.9L595.6-55.9z M622-60c0,0.2,0,0.5-0.1,1H611c0.2,1,0.7,1.8,1.5,2.4
	c0.8,0.6,1.8,0.9,3,0.9c1.5,0,2.8-0.5,3.8-1.5l1.7,2c-0.6,0.7-1.4,1.3-2.4,1.7s-2,0.6-3.2,0.6c-1.5,0-2.9-0.3-4-0.9
	c-1.2-0.6-2.1-1.4-2.7-2.5c-0.6-1.1-0.9-2.3-0.9-3.7s0.3-2.6,0.9-3.6c0.6-1.1,1.5-1.9,2.6-2.6c1.1-0.6,2.3-0.9,3.7-0.9
	s2.6,0.3,3.6,0.9c1.1,0.6,1.9,1.4,2.5,2.5C621.7-62.6,622-61.4,622-60z M615-64.5c-1,0-1.9,0.3-2.7,0.9c-0.7,0.6-1.1,1.4-1.3,2.4
	h7.9c-0.1-1-0.6-1.8-1.3-2.4C617-64.2,616.1-64.5,615-64.5z M637.9-67l-6,13.9h-3.4l-6-13.9h3.4l4.3,10.3l4.6-10.3H637.9z M652.7-60
	c0,0.2,0,0.5-0.1,1h-10.9c0.2,1,0.7,1.8,1.5,2.4c0.8,0.6,1.8,0.9,3,0.9c1.5,0,2.8-0.5,3.8-1.5l1.7,2c-0.6,0.7-1.4,1.3-2.4,1.7
	s-2,0.6-3.2,0.6c-1.5,0-2.9-0.3-4-0.9c-1.2-0.6-2.1-1.4-2.7-2.5c-0.6-1.1-0.9-2.3-0.9-3.7s0.3-2.6,0.9-3.6c0.6-1.1,1.5-1.9,2.6-2.6
	c1.1-0.6,2.3-0.9,3.7-0.9s2.6,0.3,3.6,0.9c1.1,0.6,1.9,1.4,2.5,2.5C652.4-62.6,652.7-61.4,652.7-60z M645.6-64.5
	c-1,0-1.9,0.3-2.7,0.9c-0.7,0.6-1.1,1.4-1.3,2.4h7.9c-0.1-1-0.6-1.8-1.3-2.4C647.6-64.2,646.7-64.5,645.6-64.5z M655.8-72.4h3.3
	v19.3h-3.3V-72.4z M669.6-52.9c-1.4,0-2.7-0.3-3.8-0.9c-1.1-0.6-2-1.4-2.7-2.5c-0.6-1.1-0.9-2.3-0.9-3.7s0.3-2.6,0.9-3.7
	c0.6-1.1,1.5-1.9,2.7-2.5c1.1-0.6,2.4-0.9,3.8-0.9c1.4,0,2.7,0.3,3.8,0.9s2,1.4,2.6,2.5s1,2.3,1,3.7s-0.3,2.6-1,3.7
	c-0.6,1.1-1.5,1.9-2.6,2.5C672.3-53.2,671-52.9,669.6-52.9z M669.6-55.7c1.2,0,2.2-0.4,3-1.2s1.2-1.8,1.2-3.2c0-1.3-0.4-2.4-1.2-3.2
	c-0.8-0.8-1.8-1.2-3-1.2s-2.2,0.4-3,1.2s-1.1,1.8-1.1,3.2c0,1.3,0.4,2.4,1.1,3.2C667.4-56.1,668.4-55.7,669.6-55.7z M687.8-67.1
	c1.4,0,2.6,0.3,3.6,0.9c1.1,0.6,1.9,1.4,2.5,2.5s0.9,2.3,0.9,3.7s-0.3,2.7-0.9,3.7c-0.6,1.1-1.4,1.9-2.5,2.5s-2.3,0.9-3.6,0.9
	c-1.9,0-3.4-0.6-4.5-1.9v6.7H680v-19h3.1v1.8c0.5-0.7,1.2-1.2,2-1.5C686-67,686.8-67.1,687.8-67.1z M687.4-55.7
	c1.2,0,2.2-0.4,2.9-1.2c0.8-0.8,1.2-1.8,1.2-3.2c0-1.3-0.4-2.4-1.2-3.2c-0.8-0.8-1.7-1.2-2.9-1.2c-0.8,0-1.5,0.2-2.1,0.5
	c-0.6,0.3-1.1,0.9-1.5,1.5c-0.4,0.7-0.5,1.4-0.5,2.3c0,0.9,0.2,1.6,0.5,2.3c0.4,0.7,0.9,1.2,1.5,1.5C686-55.9,686.7-55.7,687.4-55.7
	z M711-60c0,0.2,0,0.5-0.1,1H700c0.2,1,0.7,1.8,1.5,2.4c0.8,0.6,1.8,0.9,3,0.9c1.5,0,2.8-0.5,3.8-1.5l1.7,2
	c-0.6,0.7-1.4,1.3-2.4,1.7s-2,0.6-3.2,0.6c-1.5,0-2.9-0.3-4-0.9c-1.2-0.6-2.1-1.4-2.7-2.5c-0.6-1.1-0.9-2.3-0.9-3.7s0.3-2.6,0.9-3.6
	c0.6-1.1,1.5-1.9,2.6-2.6c1.1-0.6,2.3-0.9,3.7-0.9s2.6,0.3,3.6,0.9c1.1,0.6,1.9,1.4,2.5,2.5C710.7-62.6,711-61.4,711-60z M704-64.5
	c-1,0-1.9,0.3-2.7,0.9c-0.7,0.6-1.1,1.4-1.3,2.4h7.9c-0.1-1-0.6-1.8-1.3-2.4C705.9-64.2,705-64.5,704-64.5z M717.2-65
	c0.9-1.5,2.6-2.2,4.9-2.2v3.1c-0.3-0.1-0.5-0.1-0.8-0.1c-1.3,0-2.3,0.4-3,1.1c-0.7,0.7-1.1,1.8-1.1,3.2v6.7h-3.3V-67h3.1v2H717.2z
	 M733.8-58.2c-0.6,0-1.1-0.2-1.5-0.6c-0.4-0.4-0.6-0.9-0.6-1.6c0-0.6,0.2-1.1,0.6-1.5c0.4-0.4,0.9-0.6,1.5-0.6s1.1,0.2,1.5,0.6
	c0.4,0.4,0.6,0.9,0.6,1.6c0,0.7-0.2,1.2-0.6,1.6C735-58.4,734.5-58.2,733.8-58.2z M752.8-52.8c-1.4,0-2.8-0.2-4.1-0.6
	c-1.3-0.4-2.3-0.9-3.1-1.6l1.2-2.6c0.7,0.6,1.7,1.1,2.7,1.5c1.1,0.4,2.2,0.5,3.3,0.5c1.4,0,2.4-0.2,3-0.7c0.7-0.4,1-1,1-1.7
	c0-0.5-0.2-0.9-0.6-1.3c-0.4-0.3-0.8-0.6-1.4-0.8c-0.6-0.2-1.4-0.4-2.3-0.7c-1.4-0.3-2.5-0.7-3.4-1s-1.6-0.8-2.2-1.5
	c-0.6-0.7-0.9-1.7-0.9-2.9c0-1,0.3-1.9,0.8-2.7c0.6-0.8,1.4-1.5,2.5-2s2.5-0.7,4.1-0.7c1.1,0,2.2,0.1,3.3,0.4s2,0.7,2.8,1.2
	l-1.1,2.6c-0.8-0.5-1.6-0.8-2.5-1.1c-0.9-0.2-1.7-0.4-2.5-0.4c-1.3,0-2.3,0.2-3,0.7c-0.6,0.5-1,1.1-1,1.8c0,0.5,0.2,0.9,0.5,1.3
	c0.4,0.3,0.9,0.6,1.4,0.8c0.6,0.2,1.4,0.4,2.3,0.7c1.4,0.3,2.5,0.6,3.3,1c0.9,0.3,1.6,0.8,2.2,1.5c0.6,0.7,0.9,1.6,0.9,2.8
	c0,1-0.3,1.9-0.8,2.7s-1.4,1.5-2.5,2C755.8-53.1,754.4-52.8,752.8-52.8z M768.6-67.1c2,0,3.6,0.5,4.7,1.5c1.1,1,1.6,2.4,1.6,4.4v8.2
	h-3.1v-1.7c-0.4,0.6-1,1.1-1.7,1.4c-0.7,0.3-1.6,0.5-2.7,0.5c-1,0-2-0.2-2.7-0.5c-0.8-0.4-1.4-0.9-1.8-1.5c-0.4-0.6-0.6-1.4-0.6-2.2
	c0-1.2,0.5-2.2,1.4-3s2.4-1.1,4.4-1.1h3.6v-0.2c0-1-0.3-1.7-0.9-2.2c-0.6-0.5-1.4-0.8-2.6-0.8c-0.8,0-1.6,0.1-2.3,0.4
	c-0.7,0.2-1.4,0.6-1.9,1l-1.3-2.4c0.7-0.6,1.6-1,2.6-1.3C766.3-67,767.4-67.1,768.6-67.1z M768.1-55.3c0.8,0,1.5-0.2,2.2-0.5
	c0.6-0.4,1.1-0.9,1.4-1.6V-59h-3.4c-1.9,0-2.8,0.6-2.8,1.8c0,0.6,0.2,1.1,0.7,1.4C766.6-55.4,767.3-55.3,768.1-55.3z M782.2-65
	c0.9-1.5,2.6-2.2,4.9-2.2v3.1c-0.3-0.1-0.5-0.1-0.8-0.1c-1.3,0-2.3,0.4-3,1.1c-0.7,0.7-1.1,1.8-1.1,3.2v6.7h-3.3V-67h3.1v2H782.2z
	 M795.1-67.1c2,0,3.6,0.5,4.7,1.5c1.1,1,1.6,2.4,1.6,4.4v8.2h-3.1v-1.7c-0.4,0.6-1,1.1-1.7,1.4c-0.7,0.3-1.6,0.5-2.7,0.5
	c-1,0-2-0.2-2.7-0.5c-0.8-0.4-1.4-0.9-1.8-1.5c-0.4-0.6-0.6-1.4-0.6-2.2c0-1.2,0.5-2.2,1.4-3s2.4-1.1,4.4-1.1h3.6v-0.2
	c0-1-0.3-1.7-0.9-2.2c-0.6-0.5-1.4-0.8-2.6-0.8c-0.8,0-1.6,0.1-2.3,0.4c-0.7,0.2-1.4,0.6-1.9,1l-1.3-2.4c0.7-0.6,1.6-1,2.6-1.3
	C792.9-67,794-67.1,795.1-67.1z M794.7-55.3c0.8,0,1.5-0.2,2.2-0.5c0.6-0.4,1.1-0.9,1.4-1.6V-59h-3.5c-1.9,0-2.8,0.6-2.8,1.8
	c0,0.6,0.2,1.1,0.7,1.4C793.2-55.4,793.8-55.3,794.7-55.3z M818.8-52.8c-1.4,0-2.8-0.2-4.1-0.6c-1.3-0.4-2.3-0.9-3.1-1.6l1.2-2.6
	c0.7,0.6,1.7,1.1,2.7,1.5c1.1,0.4,2.2,0.5,3.3,0.5c1.4,0,2.4-0.2,3-0.7c0.7-0.4,1-1,1-1.7c0-0.5-0.2-0.9-0.6-1.3
	c-0.4-0.3-0.8-0.6-1.4-0.8c-0.6-0.2-1.4-0.4-2.3-0.7c-1.4-0.3-2.5-0.7-3.4-1s-1.6-0.8-2.2-1.5c-0.6-0.7-0.9-1.7-0.9-2.9
	c0-1,0.3-1.9,0.8-2.7c0.6-0.8,1.4-1.5,2.5-2s2.5-0.7,4.1-0.7c1.1,0,2.2,0.1,3.3,0.4s2,0.7,2.8,1.2l-1.1,2.6
	c-0.8-0.5-1.6-0.8-2.5-1.1c-0.9-0.2-1.7-0.4-2.5-0.4c-1.3,0-2.3,0.2-3,0.7c-0.6,0.5-1,1.1-1,1.8c0,0.5,0.2,0.9,0.5,1.3
	c0.4,0.3,0.9,0.6,1.4,0.8c0.6,0.2,1.4,0.4,2.3,0.7c1.4,0.3,2.5,0.6,3.3,1c0.9,0.3,1.6,0.8,2.2,1.5c0.6,0.7,0.9,1.6,0.9,2.8
	c0,1-0.3,1.9-0.8,2.7s-1.4,1.5-2.5,2C821.7-53.1,820.4-52.8,818.8-52.8z M841.9-67l-6,13.9h-3.4l-6-13.9h3.4l4.3,10.3l4.6-10.3
	H841.9z M856.7-60c0,0.2,0,0.5-0.1,1h-10.9c0.2,1,0.7,1.8,1.5,2.4c0.8,0.6,1.8,0.9,3,0.9c1.5,0,2.8-0.5,3.8-1.5l1.7,2
	c-0.6,0.7-1.4,1.3-2.4,1.7s-2,0.6-3.2,0.6c-1.5,0-2.9-0.3-4-0.9c-1.2-0.6-2.1-1.4-2.7-2.5c-0.6-1.1-0.9-2.3-0.9-3.7s0.3-2.6,0.9-3.6
	c0.6-1.1,1.5-1.9,2.6-2.6c1.1-0.6,2.3-0.9,3.7-0.9s2.6,0.3,3.6,0.9c1.1,0.6,1.9,1.4,2.5,2.5C856.4-62.6,856.7-61.4,856.7-60z
	 M849.6-64.5c-1,0-1.9,0.3-2.7,0.9c-0.7,0.6-1.1,1.4-1.3,2.4h7.9c-0.1-1-0.6-1.8-1.3-2.4C851.6-64.2,850.7-64.5,849.6-64.5z
	 M867.7-67.1c1.8,0,3.2,0.5,4.2,1.5c1.1,1,1.6,2.5,1.6,4.6v8h-3.3v-7.6c0-1.2-0.3-2.1-0.9-2.7c-0.6-0.6-1.4-0.9-2.4-0.9
	c-1.2,0-2.1,0.4-2.8,1.1c-0.7,0.7-1,1.7-1,3.1v7h-3.3v-14h3.1v1.8c0.5-0.6,1.2-1.1,2-1.5C865.7-67,866.7-67.1,867.7-67.1z
	 M881.9-52.9c-1.1,0-2.2-0.1-3.3-0.4s-1.9-0.7-2.6-1.1l1.2-2.5c0.6,0.4,1.4,0.8,2.2,1c0.9,0.2,1.8,0.4,2.6,0.4
	c1.9,0,2.9-0.5,2.9-1.5c0-0.5-0.3-0.8-0.8-1s-1.3-0.4-2.4-0.5c-1.1-0.2-2.1-0.4-2.8-0.6c-0.7-0.2-1.3-0.6-1.9-1.2
	c-0.5-0.6-0.8-1.4-0.8-2.4c0-1.3,0.5-2.4,1.6-3.2s2.6-1.2,4.5-1.2c1,0,1.9,0.1,2.9,0.3c1,0.2,1.7,0.5,2.3,0.9l-1.2,2.5
	c-1.2-0.7-2.5-1-4-1c-1,0-1.7,0.1-2.2,0.4c-0.5,0.3-0.7,0.7-0.7,1.1c0,0.5,0.3,0.9,0.8,1.1c0.5,0.2,1.4,0.4,2.5,0.6
	c1.1,0.2,2,0.4,2.7,0.6c0.7,0.2,1.3,0.6,1.8,1.1s0.8,1.3,0.8,2.3c0,1.3-0.6,2.3-1.7,3.1C885.4-53.3,883.9-52.9,881.9-52.9z
	 M895.3-52.9c-1.1,0-2.2-0.1-3.3-0.4c-1.1-0.3-1.9-0.7-2.6-1.1l1.2-2.5c0.6,0.4,1.4,0.8,2.2,1c0.9,0.2,1.8,0.4,2.6,0.4
	c1.9,0,2.9-0.5,2.9-1.5c0-0.5-0.3-0.8-0.8-1s-1.3-0.4-2.4-0.5c-1.1-0.2-2.1-0.4-2.8-0.6c-0.7-0.2-1.3-0.6-1.9-1.2
	c-0.5-0.6-0.8-1.4-0.8-2.4c0-1.3,0.5-2.4,1.6-3.2s2.6-1.2,4.5-1.2c1,0,1.9,0.1,2.9,0.3c1,0.2,1.7,0.5,2.3,0.9l-1.2,2.5
	c-1.2-0.7-2.5-1-4-1c-1,0-1.7,0.1-2.2,0.4c-0.5,0.3-0.7,0.7-0.7,1.1c0,0.5,0.3,0.9,0.8,1.1c0.5,0.2,1.4,0.4,2.5,0.6
	c1.1,0.2,2,0.4,2.7,0.6c0.7,0.2,1.3,0.6,1.8,1.1s0.8,1.3,0.8,2.3c0,1.3-0.6,2.3-1.7,3.1C898.8-53.3,897.3-52.9,895.3-52.9z
	 M910.7-52.9c-1.4,0-2.7-0.3-3.8-0.9c-1.1-0.6-2-1.4-2.7-2.5c-0.6-1.1-0.9-2.3-0.9-3.7s0.3-2.6,0.9-3.7c0.6-1.1,1.5-1.9,2.7-2.5
	c1.1-0.6,2.4-0.9,3.8-0.9c1.4,0,2.7,0.3,3.8,0.9s2,1.4,2.6,2.5s1,2.3,1,3.7s-0.3,2.6-1,3.7c-0.6,1.1-1.5,1.9-2.6,2.5
	C913.4-53.2,912.1-52.9,910.7-52.9z M910.7-55.7c1.2,0,2.2-0.4,3-1.2s1.2-1.8,1.2-3.2c0-1.3-0.4-2.4-1.2-3.2c-0.8-0.8-1.8-1.2-3-1.2
	s-2.2,0.4-3,1.2s-1.1,1.8-1.1,3.2c0,1.3,0.4,2.4,1.1,3.2C908.5-56.1,909.5-55.7,910.7-55.7z M929.1-67.1c1.8,0,3.2,0.5,4.2,1.5
	c1.1,1,1.6,2.5,1.6,4.6v8h-3.3v-7.6c0-1.2-0.3-2.1-0.9-2.7c-0.6-0.6-1.4-0.9-2.4-0.9c-1.2,0-2.1,0.4-2.8,1.1c-0.7,0.7-1,1.7-1,3.1v7
	h-3.3v-14h3.1v1.8c0.5-0.6,1.2-1.1,2-1.5C927.1-67,928.1-67.1,929.1-67.1z M947.8-58.2c-0.6,0-1.1-0.2-1.5-0.6
	c-0.4-0.4-0.6-0.9-0.6-1.6c0-0.6,0.2-1.1,0.6-1.5c0.4-0.4,0.9-0.6,1.5-0.6s1.1,0.2,1.5,0.6c0.4,0.4,0.6,0.9,0.6,1.6
	c0,0.7-0.2,1.2-0.6,1.6C948.9-58.4,948.4-58.2,947.8-58.2z M964.5-68.5v5.5h8.8v2.9h-8.8v7h-3.4v-18.2h13.3v2.8H964.5z M990.5-67
	v13.9h-3.1v-1.8c-0.5,0.6-1.2,1.1-2,1.5c-0.8,0.3-1.6,0.5-2.5,0.5c-1.9,0-3.3-0.5-4.4-1.5c-1.1-1-1.6-2.6-1.6-4.6v-8h3.3v7.5
	c0,1.2,0.3,2.2,0.8,2.8c0.6,0.6,1.4,0.9,2.4,0.9c1.2,0,2.1-0.4,2.8-1.1c0.7-0.7,1-1.8,1-3.1v-7H990.5z M994.7-72.4h3.3v19.3h-3.3
	V-72.4z M1002.3-72.4h3.3v19.3h-3.3V-72.4z M1014.1-52.9c-1.1,0-2.2-0.1-3.3-0.4c-1.1-0.3-1.9-0.7-2.6-1.1l1.2-2.5
	c0.6,0.4,1.4,0.8,2.2,1c0.9,0.2,1.8,0.4,2.6,0.4c1.9,0,2.9-0.5,2.9-1.5c0-0.5-0.3-0.8-0.8-1s-1.3-0.4-2.4-0.5
	c-1.1-0.2-2.1-0.4-2.8-0.6c-0.7-0.2-1.3-0.6-1.9-1.2c-0.5-0.6-0.8-1.4-0.8-2.4c0-1.3,0.5-2.4,1.6-3.2s2.6-1.2,4.5-1.2
	c1,0,1.9,0.1,2.9,0.3c1,0.2,1.7,0.5,2.3,0.9l-1.2,2.5c-1.2-0.7-2.5-1-4-1c-1,0-1.7,0.1-2.2,0.4c-0.5,0.3-0.7,0.7-0.7,1.1
	c0,0.5,0.3,0.9,0.8,1.1c0.5,0.2,1.4,0.4,2.5,0.6c1.1,0.2,2,0.4,2.7,0.6c0.7,0.2,1.3,0.6,1.8,1.1s0.8,1.3,0.8,2.3
	c0,1.3-0.6,2.3-1.7,3.1C1017.6-53.3,1016-52.9,1014.1-52.9z M1031.6-53.8c-0.4,0.3-0.9,0.5-1.4,0.7s-1.1,0.2-1.7,0.2
	c-1.5,0-2.7-0.4-3.5-1.2c-0.8-0.8-1.2-2-1.2-3.5v-6.7h-2.3v-2.6h2.3v-3.2h3.3v3.2h3.7v2.6h-3.7v6.6c0,0.7,0.2,1.2,0.5,1.6
	c0.3,0.3,0.8,0.5,1.4,0.5c0.7,0,1.3-0.2,1.8-0.6L1031.6-53.8z M1039.5-67.1c2,0,3.6,0.5,4.7,1.5c1.1,1,1.6,2.4,1.6,4.4v8.2h-3v-1.7
	c-0.4,0.6-1,1.1-1.7,1.4c-0.7,0.3-1.6,0.5-2.7,0.5c-1,0-2-0.2-2.7-0.5c-0.8-0.4-1.4-0.9-1.8-1.5c-0.4-0.6-0.6-1.4-0.6-2.2
	c0-1.2,0.5-2.2,1.4-3s2.4-1.1,4.4-1.1h3.6v-0.2c0-1-0.3-1.7-0.9-2.2s-1.4-0.8-2.6-0.8c-0.8,0-1.6,0.1-2.3,0.4
	c-0.7,0.2-1.4,0.6-1.9,1l-1.3-2.4c0.7-0.6,1.6-1,2.6-1.3C1037.3-67,1038.4-67.1,1039.5-67.1z M1039.1-55.3c0.8,0,1.5-0.2,2.2-0.5
	c0.6-0.4,1.1-0.9,1.4-1.6V-59h-3.4c-1.9,0-2.8,0.6-2.8,1.8c0,0.6,0.2,1.1,0.7,1.4C1037.6-55.4,1038.3-55.3,1039.1-55.3z
	 M1056.6-52.9c-1.4,0-2.7-0.3-3.9-0.9c-1.1-0.6-2-1.4-2.7-2.5c-0.6-1.1-1-2.3-1-3.7s0.3-2.6,1-3.7c0.6-1.1,1.5-1.9,2.7-2.5
	c1.1-0.6,2.4-0.9,3.9-0.9c1.4,0,2.6,0.3,3.6,0.8c1,0.6,1.8,1.4,2.3,2.4l-2.5,1.5c-0.4-0.6-0.9-1.1-1.5-1.4s-1.2-0.5-2-0.5
	c-1.2,0-2.2,0.4-3,1.2c-0.8,0.8-1.2,1.8-1.2,3.2c0,1.3,0.4,2.4,1.2,3.2c0.8,0.8,1.8,1.2,3,1.2c0.7,0,1.4-0.2,2-0.5s1.1-0.8,1.5-1.5
	l2.5,1.5c-0.5,1-1.3,1.8-2.4,2.4C1059.1-53.2,1057.9-52.9,1056.6-52.9z M1070.9-59l-2.4,2.3v3.7h-3.3v-19.3h3.3v11.7l6.7-6.2h3.9
	l-5.8,5.8l6.4,8.1h-4L1070.9-59z M1089.2-71.3h8c1.9,0,3.7,0.4,5.2,1.1s2.7,1.8,3.5,3.2c0.8,1.4,1.2,3,1.2,4.8s-0.4,3.4-1.2,4.8
	c-0.8,1.4-2,2.4-3.5,3.2c-1.5,0.7-3.2,1.1-5.2,1.1h-8V-71.3z M1097-55.9c1.3,0,2.5-0.3,3.5-0.8s1.8-1.2,2.3-2.2
	c0.6-1,0.8-2.1,0.8-3.3s-0.3-2.3-0.8-3.3s-1.3-1.7-2.3-2.2s-2.2-0.8-3.5-0.8h-4.4V-56L1097-55.9L1097-55.9z M1123.5-60
	c0,0.2,0,0.5-0.1,1h-10.9c0.2,1,0.7,1.8,1.5,2.4c0.8,0.6,1.8,0.9,3,0.9c1.5,0,2.8-0.5,3.8-1.5l1.7,2c-0.6,0.7-1.4,1.3-2.4,1.7
	s-2,0.6-3.2,0.6c-1.5,0-2.9-0.3-4-0.9c-1.2-0.6-2.1-1.4-2.7-2.5c-0.6-1.1-0.9-2.3-0.9-3.7s0.3-2.6,0.9-3.6c0.6-1.1,1.5-1.9,2.6-2.6
	c1.1-0.6,2.3-0.9,3.7-0.9s2.6,0.3,3.6,0.9c1.1,0.6,1.9,1.4,2.5,2.5C1123.2-62.6,1123.5-61.4,1123.5-60z M1116.5-64.5
	c-1,0-1.9,0.3-2.7,0.9c-0.7,0.6-1.1,1.4-1.3,2.4h7.9c-0.1-1-0.6-1.8-1.3-2.4C1118.4-64.2,1117.5-64.5,1116.5-64.5z M1139.4-67
	l-6,13.9h-3.4l-6-13.9h3.4l4.3,10.3l4.5-10.3H1139.4z M1154.1-60c0,0.2,0,0.5,0,1h-10.9c0.2,1,0.7,1.8,1.5,2.4
	c0.8,0.6,1.8,0.9,3,0.9c1.5,0,2.8-0.5,3.8-1.5l1.8,2c-0.6,0.7-1.4,1.3-2.4,1.7s-2,0.6-3.2,0.6c-1.5,0-2.9-0.3-4-0.9
	c-1.2-0.6-2.1-1.4-2.7-2.5s-0.9-2.3-0.9-3.7s0.3-2.6,0.9-3.6c0.6-1.1,1.5-1.9,2.6-2.6c1.1-0.6,2.3-0.9,3.7-0.9s2.6,0.3,3.6,0.9
	c1.1,0.6,1.9,1.4,2.5,2.5C1153.8-62.6,1154.1-61.4,1154.1-60z M1147.1-64.5c-1,0-1.9,0.3-2.6,0.9s-1.2,1.4-1.3,2.4h7.9
	c-0.1-1-0.6-1.8-1.3-2.4C1149-64.2,1148.1-64.5,1147.1-64.5z M1157.2-72.4h3.3v19.3h-3.3V-72.4z M1171-52.9c-1.4,0-2.7-0.3-3.8-0.9
	c-1.1-0.6-2-1.4-2.7-2.5c-0.6-1.1-0.9-2.3-0.9-3.7s0.3-2.6,0.9-3.7c0.6-1.1,1.5-1.9,2.7-2.5c1.1-0.6,2.4-0.9,3.8-0.9
	s2.7,0.3,3.8,0.9c1.1,0.6,2,1.4,2.6,2.5s1,2.3,1,3.7s-0.3,2.6-1,3.7c-0.6,1.1-1.5,1.9-2.6,2.5C1173.7-53.2,1172.5-52.9,1171-52.9z
	 M1171-55.7c1.2,0,2.2-0.4,3-1.2s1.2-1.8,1.2-3.2c0-1.3-0.4-2.4-1.2-3.2c-0.8-0.8-1.8-1.2-3-1.2s-2.2,0.4-3,1.2s-1.2,1.8-1.2,3.2
	c0,1.3,0.4,2.4,1.2,3.2C1168.8-56.1,1169.8-55.7,1171-55.7z M1189.3-67.1c1.3,0,2.6,0.3,3.6,0.9c1.1,0.6,1.9,1.4,2.5,2.5
	s0.9,2.3,0.9,3.7s-0.3,2.7-0.9,3.7c-0.6,1.1-1.4,1.9-2.5,2.5s-2.3,0.9-3.6,0.9c-1.9,0-3.4-0.6-4.5-1.9v6.7h-3.2v-19h3.1v1.8
	c0.5-0.7,1.2-1.2,2-1.5C1187.4-67,1188.3-67.1,1189.3-67.1z M1188.9-55.7c1.2,0,2.2-0.4,3-1.2s1.2-1.8,1.2-3.2
	c0-1.3-0.4-2.4-1.2-3.2c-0.8-0.8-1.8-1.2-3-1.2c-0.8,0-1.5,0.2-2.1,0.5c-0.6,0.3-1.1,0.9-1.5,1.5c-0.4,0.7-0.6,1.4-0.6,2.3
	c0,0.9,0.2,1.6,0.6,2.3s0.9,1.2,1.5,1.5C1187.4-55.9,1188.1-55.7,1188.9-55.7z M1212.5-60c0,0.2,0,0.5-0.1,1h-10.9
	c0.2,1,0.7,1.8,1.5,2.4c0.8,0.6,1.8,0.9,3,0.9c1.5,0,2.8-0.5,3.8-1.5l1.7,2c-0.6,0.7-1.4,1.3-2.4,1.7c-0.9,0.4-2,0.6-3.2,0.6
	c-1.5,0-2.9-0.3-4-0.9c-1.2-0.6-2.1-1.4-2.7-2.5s-0.9-2.3-0.9-3.7s0.3-2.6,0.9-3.6c0.6-1.1,1.5-1.9,2.6-2.6c1.1-0.6,2.3-0.9,3.7-0.9
	c1.4,0,2.6,0.3,3.6,0.9c1.1,0.6,1.9,1.4,2.5,2.5C1212.2-62.6,1212.5-61.4,1212.5-60z M1205.5-64.5c-1,0-1.9,0.3-2.7,0.9
	c-0.7,0.6-1.2,1.4-1.3,2.4h7.9c-0.1-1-0.6-1.8-1.3-2.4C1207.4-64.2,1206.5-64.5,1205.5-64.5z M1218.7-65c0.9-1.5,2.6-2.2,4.9-2.2
	v3.1c-0.3-0.1-0.5-0.1-0.8-0.1c-1.3,0-2.3,0.4-3,1.1c-0.7,0.7-1.1,1.8-1.1,3.2v6.7h-3.2V-67h3.1L1218.7-65L1218.7-65z"/>
<path class="st2" d="M-250.1,252.3c-1.4,0-2.8-0.2-4.1-0.6c-1.3-0.4-2.3-0.9-3.1-1.6l1.2-2.6c0.7,0.6,1.7,1.1,2.7,1.5
	c1.1,0.4,2.2,0.5,3.3,0.5c1.4,0,2.4-0.2,3-0.7c0.7-0.4,1-1,1-1.7c0-0.5-0.2-0.9-0.6-1.3c-0.4-0.3-0.8-0.6-1.4-0.8s-1.4-0.4-2.3-0.7
	c-1.4-0.3-2.5-0.7-3.4-1s-1.6-0.8-2.2-1.5s-0.9-1.7-0.9-2.9c0-1,0.3-1.9,0.8-2.7c0.6-0.8,1.4-1.5,2.5-2s2.5-0.7,4.1-0.7
	c1.1,0,2.2,0.1,3.3,0.4c1.1,0.3,2,0.7,2.8,1.2l-1.1,2.6c-0.8-0.5-1.6-0.8-2.5-1.1c-0.9-0.2-1.7-0.4-2.5-0.4c-1.3,0-2.3,0.2-3,0.7
	c-0.6,0.5-1,1.1-1,1.8c0,0.5,0.2,0.9,0.5,1.3c0.4,0.3,0.9,0.6,1.4,0.8c0.6,0.2,1.4,0.4,2.3,0.7c1.4,0.3,2.5,0.6,3.3,1
	c0.9,0.3,1.6,0.8,2.2,1.5s0.9,1.6,0.9,2.8c0,1-0.3,1.9-0.8,2.7s-1.4,1.5-2.5,2C-247.2,252.1-248.5,252.3-250.1,252.3z M-234.4,238
	c2,0,3.6,0.5,4.7,1.5s1.6,2.4,1.6,4.4v8.2h-3.1v-1.7c-0.4,0.6-1,1.1-1.7,1.4c-0.7,0.3-1.6,0.5-2.7,0.5c-1,0-2-0.2-2.7-0.5
	c-0.8-0.4-1.4-0.9-1.8-1.5s-0.6-1.4-0.6-2.2c0-1.2,0.5-2.2,1.4-3s2.4-1.1,4.4-1.1h3.6v-0.2c0-1-0.3-1.7-0.9-2.2s-1.4-0.8-2.6-0.8
	c-0.8,0-1.6,0.1-2.3,0.4c-0.7,0.2-1.4,0.6-1.9,1l-1.3-2.4c0.7-0.6,1.6-1,2.6-1.3C-236.6,238.2-235.5,238-234.4,238z M-234.8,249.9
	c0.8,0,1.5-0.2,2.2-0.5c0.6-0.4,1.1-0.9,1.4-1.6v-1.6h-3.4c-1.9,0-2.8,0.6-2.8,1.8c0,0.6,0.2,1.1,0.7,1.4S-235.7,249.9-234.8,249.9z
	 M-220.8,240.2c0.9-1.5,2.6-2.2,4.9-2.2v3.1c-0.3-0.1-0.5-0.1-0.8-0.1c-1.3,0-2.3,0.4-3,1.1c-0.7,0.7-1.1,1.8-1.1,3.2v6.7h-3.3
	v-13.9h3.1v2.1L-220.8,240.2L-220.8,240.2z M-207.8,238c2,0,3.6,0.5,4.7,1.5s1.6,2.4,1.6,4.4v8.2h-3.1v-1.7c-0.4,0.6-1,1.1-1.7,1.4
	c-0.7,0.3-1.6,0.5-2.7,0.5c-1,0-2-0.2-2.7-0.5c-0.8-0.4-1.4-0.9-1.8-1.5s-0.6-1.4-0.6-2.2c0-1.2,0.5-2.2,1.4-3s2.4-1.1,4.4-1.1h3.6
	v-0.2c0-1-0.3-1.7-0.9-2.2s-1.4-0.8-2.6-0.8c-0.8,0-1.6,0.1-2.3,0.4c-0.7,0.2-1.4,0.6-1.9,1l-1.3-2.4c0.7-0.6,1.6-1,2.6-1.3
	C-210.1,238.2-209,238-207.8,238z M-208.3,249.9c0.8,0,1.5-0.2,2.2-0.5c0.6-0.4,1.1-0.9,1.4-1.6v-1.6h-3.4c-1.9,0-2.8,0.6-2.8,1.8
	c0,0.6,0.2,1.1,0.7,1.4S-209.1,249.9-208.3,249.9z M-184.2,252.3c-1.4,0-2.8-0.2-4.1-0.6c-1.3-0.4-2.3-0.9-3.1-1.6l1.2-2.6
	c0.7,0.6,1.7,1.1,2.7,1.5c1.1,0.4,2.2,0.5,3.3,0.5c1.4,0,2.4-0.2,3-0.7c0.7-0.4,1-1,1-1.7c0-0.5-0.2-0.9-0.6-1.3
	c-0.4-0.3-0.8-0.6-1.4-0.8s-1.4-0.4-2.3-0.7c-1.4-0.3-2.5-0.7-3.4-1s-1.6-0.8-2.2-1.5s-0.9-1.7-0.9-2.9c0-1,0.3-1.9,0.8-2.7
	c0.6-0.8,1.4-1.5,2.5-2s2.5-0.7,4.1-0.7c1.1,0,2.2,0.1,3.3,0.4c1.1,0.3,2,0.7,2.8,1.2l-1.1,2.6c-0.8-0.5-1.6-0.8-2.5-1.1
	c-0.9-0.2-1.7-0.4-2.5-0.4c-1.3,0-2.3,0.2-3,0.7c-0.6,0.5-1,1.1-1,1.8c0,0.5,0.2,0.9,0.5,1.3c0.4,0.3,0.9,0.6,1.4,0.8
	c0.6,0.2,1.4,0.4,2.3,0.7c1.4,0.3,2.5,0.6,3.3,1c0.9,0.3,1.6,0.8,2.2,1.5s0.9,1.6,0.9,2.8c0,1-0.3,1.9-0.8,2.7s-1.4,1.5-2.5,2
	C-181.2,252.1-182.6,252.3-184.2,252.3z M-161,238.2l-6,13.9h-3.4l-6-13.9h3.4l4.3,10.3l4.5-10.3H-161z M-146.3,245.2
	c0,0.2,0,0.5-0.1,1h-10.8c0.2,1,0.7,1.8,1.5,2.4c0.8,0.6,1.8,0.9,3,0.9c1.5,0,2.8-0.5,3.8-1.5l1.7,2c-0.6,0.7-1.4,1.3-2.4,1.7
	s-2,0.6-3.2,0.6c-1.5,0-2.9-0.3-4-0.9c-1.2-0.6-2.1-1.4-2.7-2.5s-0.9-2.3-0.9-3.7s0.3-2.6,0.9-3.6c0.6-1.1,1.5-1.9,2.6-2.6
	c1.1-0.6,2.3-0.9,3.7-0.9c1.4,0,2.6,0.3,3.6,0.9c1.1,0.6,1.9,1.4,2.5,2.5C-146.6,242.5-146.3,243.8-146.3,245.2z M-153.3,240.6
	c-1,0-1.9,0.3-2.7,0.9c-0.7,0.6-1.1,1.4-1.3,2.4h7.9c-0.1-1-0.6-1.8-1.3-2.4C-151.4,240.9-152.2,240.6-153.3,240.6z M-135.2,238
	c1.8,0,3.2,0.5,4.2,1.5c1.1,1,1.6,2.5,1.6,4.6v8h-3.3v-7.6c0-1.2-0.3-2.1-0.9-2.7c-0.6-0.6-1.4-0.9-2.4-0.9c-1.2,0-2.1,0.4-2.8,1.1
	c-0.7,0.7-1,1.7-1,3.1v7h-3.3v-13.9h3.1v1.8c0.5-0.6,1.2-1.1,2-1.5C-137.2,238.2-136.3,238-135.2,238z M-121,252.3
	c-1.1,0-2.2-0.1-3.3-0.4c-1.1-0.3-1.9-0.7-2.6-1.1l1.2-2.5c0.6,0.4,1.4,0.8,2.2,1c0.9,0.2,1.8,0.4,2.6,0.4c1.9,0,2.9-0.5,2.9-1.5
	c0-0.5-0.3-0.8-0.8-1s-1.3-0.4-2.4-0.5c-1.1-0.2-2.1-0.4-2.8-0.6c-0.7-0.2-1.3-0.6-1.9-1.2c-0.5-0.6-0.8-1.4-0.8-2.4
	c0-1.3,0.5-2.4,1.6-3.2s2.6-1.2,4.5-1.2c1,0,1.9,0.1,2.9,0.3s1.7,0.5,2.3,0.9l-1.2,2.5c-1.2-0.7-2.5-1-4-1c-1,0-1.7,0.1-2.2,0.4
	c-0.5,0.3-0.7,0.7-0.7,1.1c0,0.5,0.3,0.9,0.8,1.1c0.5,0.2,1.4,0.4,2.5,0.6c1.1,0.2,2,0.4,2.7,0.6c0.7,0.2,1.3,0.6,1.8,1.1
	s0.8,1.3,0.8,2.3c0,1.3-0.6,2.3-1.7,3.1C-117.5,251.9-119.1,252.3-121,252.3z M-107.6,252.3c-1.1,0-2.2-0.1-3.3-0.4
	c-1.1-0.3-1.9-0.7-2.6-1.1l1.2-2.5c0.6,0.4,1.4,0.8,2.2,1c0.9,0.2,1.8,0.4,2.6,0.4c1.9,0,2.9-0.5,2.9-1.5c0-0.5-0.3-0.8-0.8-1
	s-1.3-0.4-2.4-0.5c-1.1-0.2-2.1-0.4-2.8-0.6c-0.7-0.2-1.3-0.6-1.9-1.2c-0.5-0.6-0.8-1.4-0.8-2.4c0-1.3,0.5-2.4,1.6-3.2
	s2.6-1.2,4.5-1.2c1,0,1.9,0.1,2.9,0.3s1.7,0.5,2.3,0.9l-1.2,2.5c-1.2-0.7-2.5-1-4-1c-1,0-1.7,0.1-2.2,0.4c-0.5,0.3-0.7,0.7-0.7,1.1
	c0,0.5,0.3,0.9,0.8,1.1c0.5,0.2,1.4,0.4,2.5,0.6c1.1,0.2,2,0.4,2.7,0.6c0.7,0.2,1.3,0.6,1.8,1.1s0.8,1.3,0.8,2.3
	c0,1.3-0.6,2.3-1.7,3.1C-104.1,251.9-105.7,252.3-107.6,252.3z M-92.3,252.3c-1.4,0-2.7-0.3-3.8-0.9c-1.1-0.6-2-1.4-2.7-2.5
	c-0.6-1.1-0.9-2.3-0.9-3.7s0.3-2.6,0.9-3.7c0.6-1.1,1.5-1.9,2.7-2.5c1.1-0.6,2.4-0.9,3.8-0.9c1.4,0,2.7,0.3,3.8,0.9
	c1.1,0.6,2,1.4,2.6,2.5s1,2.3,1,3.7s-0.3,2.6-1,3.7c-0.6,1.1-1.5,1.9-2.6,2.5C-89.6,252-90.8,252.3-92.3,252.3z M-92.3,249.5
	c1.2,0,2.2-0.4,3-1.2s1.2-1.8,1.2-3.2c0-1.3-0.4-2.4-1.2-3.2s-1.8-1.2-3-1.2s-2.2,0.4-3,1.2s-1.1,1.8-1.1,3.2c0,1.3,0.4,2.4,1.1,3.2
	C-94.5,249.1-93.5,249.5-92.3,249.5z M-73.8,238c1.8,0,3.2,0.5,4.2,1.5c1.1,1,1.6,2.5,1.6,4.6v8h-3.3v-7.6c0-1.2-0.3-2.1-0.9-2.7
	c-0.6-0.6-1.4-0.9-2.4-0.9c-1.2,0-2.1,0.4-2.8,1.1c-0.7,0.7-1,1.7-1,3.1v7h-3.3v-13.9h3.1v1.8c0.5-0.6,1.2-1.1,2-1.5
	C-75.8,238.2-74.9,238-73.8,238z M-55.1,247c-0.6,0-1.1-0.2-1.5-0.6c-0.4-0.4-0.6-0.9-0.6-1.6c0-0.6,0.2-1.1,0.6-1.5
	c0.4-0.4,0.9-0.6,1.5-0.6s1.1,0.2,1.5,0.6c0.4,0.4,0.6,0.9,0.6,1.6c0,0.7-0.2,1.2-0.6,1.6C-54,246.8-54.5,247-55.1,247z
	 M-38.4,236.7v5.5h8.8v2.9h-8.8v7h-3.4v-18.2h13.3v2.8H-38.4z M-12.5,238.2v13.9h-3.1v-1.8c-0.5,0.6-1.2,1.1-2,1.5
	c-0.8,0.3-1.6,0.5-2.5,0.5c-1.9,0-3.3-0.5-4.4-1.5c-1.1-1-1.6-2.6-1.6-4.6v-7.9h3.3v7.5c0,1.2,0.3,2.2,0.8,2.8
	c0.6,0.6,1.4,0.9,2.4,0.9c1.2,0,2.1-0.4,2.8-1.1c0.7-0.7,1-1.8,1-3.1v-7L-12.5,238.2L-12.5,238.2z M-8.2,232.8h3.3v19.3h-3.3V232.8z
	 M-0.7,232.8h3.3v19.3h-3.3V232.8z M11.2,252.3c-1.1,0-2.2-0.1-3.3-0.4c-1.1-0.3-1.9-0.7-2.6-1.1l1.2-2.5c0.6,0.4,1.4,0.8,2.2,1
	c0.9,0.2,1.8,0.4,2.6,0.4c1.9,0,2.9-0.5,2.9-1.5c0-0.5-0.3-0.8-0.8-1s-1.3-0.4-2.4-0.5c-1.1-0.2-2.1-0.4-2.8-0.6
	c-0.7-0.2-1.3-0.6-1.9-1.2c-0.5-0.6-0.8-1.4-0.8-2.4c0-1.3,0.5-2.4,1.6-3.2s2.6-1.2,4.5-1.2c1,0,1.9,0.1,2.9,0.3s1.7,0.5,2.3,0.9
	l-1.2,2.5c-1.2-0.7-2.5-1-4-1c-1,0-1.7,0.1-2.2,0.4c-0.5,0.3-0.7,0.7-0.7,1.1c0,0.5,0.3,0.9,0.8,1.1c0.5,0.2,1.4,0.4,2.5,0.6
	c1.1,0.2,2,0.4,2.7,0.6c0.7,0.2,1.3,0.6,1.8,1.1s0.8,1.3,0.8,2.3c0,1.3-0.6,2.3-1.7,3.1C14.6,251.9,13.1,252.3,11.2,252.3z
	 M28.6,251.3c-0.4,0.3-0.9,0.5-1.4,0.7s-1.1,0.2-1.7,0.2c-1.5,0-2.7-0.4-3.5-1.2s-1.2-2-1.2-3.5v-6.7h-2.3v-2.6h2.3V235h3.3v3.2h3.7
	v2.6h-3.7v6.6c0,0.7,0.2,1.2,0.5,1.6c0.3,0.3,0.8,0.5,1.4,0.5c0.7,0,1.3-0.2,1.8-0.6L28.6,251.3z M36.6,238c2,0,3.6,0.5,4.7,1.5
	s1.6,2.4,1.6,4.4v8.2h-3.1v-1.7c-0.4,0.6-1,1.1-1.7,1.4c-0.7,0.3-1.6,0.5-2.7,0.5c-1,0-2-0.2-2.7-0.5c-0.8-0.4-1.4-0.9-1.8-1.5
	s-0.6-1.4-0.6-2.2c0-1.2,0.5-2.2,1.4-3c0.9-0.8,2.4-1.1,4.4-1.1h3.6v-0.2c0-1-0.3-1.7-0.9-2.2s-1.4-0.8-2.6-0.8
	c-0.8,0-1.6,0.1-2.3,0.4c-0.7,0.2-1.4,0.6-1.9,1l-1.3-2.4c0.7-0.6,1.6-1,2.6-1.3C34.4,238.2,35.5,238,36.6,238z M36.2,249.9
	c0.8,0,1.5-0.2,2.2-0.5c0.6-0.4,1.1-0.9,1.4-1.6v-1.6h-3.4c-1.9,0-2.8,0.6-2.8,1.8c0,0.6,0.2,1.1,0.7,1.4
	C34.7,249.7,35.3,249.9,36.2,249.9z M53.6,252.3c-1.4,0-2.7-0.3-3.9-0.9c-1.1-0.6-2-1.4-2.7-2.5c-0.6-1.1-1-2.3-1-3.7s0.3-2.6,1-3.7
	c0.6-1.1,1.5-1.9,2.7-2.5c1.1-0.6,2.4-0.9,3.9-0.9c1.4,0,2.6,0.3,3.6,0.8c1,0.6,1.8,1.4,2.3,2.4l-2.5,1.5c-0.4-0.6-0.9-1.1-1.5-1.4
	c-0.6-0.3-1.2-0.5-2-0.5c-1.2,0-2.2,0.4-3,1.2s-1.2,1.8-1.2,3.2c0,1.3,0.4,2.4,1.2,3.2c0.8,0.8,1.8,1.2,3,1.2c0.7,0,1.4-0.2,2-0.5
	s1.1-0.8,1.5-1.5l2.5,1.5c-0.5,1-1.3,1.8-2.4,2.4C56.2,252,55,252.3,53.6,252.3z M67.9,246.1l-2.4,2.3v3.7h-3.3v-19.3h3.3v11.7
	l6.7-6.2h3.9l-5.8,5.8l6.4,8.1h-4L67.9,246.1z M86.3,233.9h8c1.9,0,3.7,0.4,5.2,1.1c1.5,0.7,2.7,1.8,3.5,3.2c0.8,1.4,1.2,3,1.2,4.8
	s-0.4,3.4-1.2,4.8c-0.8,1.4-2,2.4-3.5,3.2c-1.5,0.7-3.2,1.1-5.2,1.1h-8V233.9z M94.1,249.2c1.3,0,2.5-0.3,3.5-0.8s1.8-1.2,2.3-2.2
	c0.6-1,0.8-2.1,0.8-3.3s-0.3-2.3-0.8-3.3s-1.3-1.7-2.3-2.2s-2.2-0.8-3.5-0.8h-4.4v12.5h4.4V249.2z M120.6,245.2c0,0.2,0,0.5-0.1,1
	h-10.9c0.2,1,0.7,1.8,1.5,2.4c0.8,0.6,1.8,0.9,3,0.9c1.5,0,2.8-0.5,3.8-1.5l1.7,2c-0.6,0.7-1.4,1.3-2.4,1.7s-2,0.6-3.2,0.6
	c-1.5,0-2.9-0.3-4-0.9c-1.2-0.6-2.1-1.4-2.7-2.5s-0.9-2.3-0.9-3.7s0.3-2.6,0.9-3.6c0.6-1.1,1.5-1.9,2.6-2.6c1.1-0.6,2.3-0.9,3.7-0.9
	s2.6,0.3,3.6,0.9c1.1,0.6,1.9,1.4,2.5,2.5C120.3,242.5,120.6,243.8,120.6,245.2z M113.5,240.6c-1,0-1.9,0.3-2.7,0.9
	c-0.7,0.6-1.1,1.4-1.3,2.4h7.9c-0.1-1-0.6-1.8-1.3-2.4C115.5,240.9,114.6,240.6,113.5,240.6z M136.5,238.2l-6,13.9h-3.4l-6-13.9h3.4
	l4.3,10.3l4.5-10.3H136.5z M151.2,245.2c0,0.2,0,0.5-0.1,1h-10.9c0.2,1,0.7,1.8,1.5,2.4c0.8,0.6,1.8,0.9,3,0.9
	c1.5,0,2.8-0.5,3.8-1.5l1.7,2c-0.6,0.7-1.4,1.3-2.4,1.7s-2,0.6-3.2,0.6c-1.5,0-2.9-0.3-4-0.9c-1.2-0.6-2.1-1.4-2.7-2.5
	c-0.6-1.1-0.9-2.3-0.9-3.7s0.3-2.6,0.9-3.6c0.6-1.1,1.5-1.9,2.6-2.6c1.1-0.6,2.3-0.9,3.7-0.9c1.4,0,2.6,0.3,3.6,0.9
	c1.1,0.6,1.9,1.4,2.5,2.5C150.9,242.5,151.2,243.8,151.2,245.2z M144.2,240.6c-1,0-1.9,0.3-2.7,0.9c-0.7,0.6-1.1,1.4-1.3,2.4h7.9
	c-0.1-1-0.6-1.8-1.3-2.4C146.1,240.9,145.2,240.6,144.2,240.6z M154.3,232.8h3.3v19.3h-3.3V232.8z M168.1,252.3
	c-1.4,0-2.7-0.3-3.8-0.9c-1.1-0.6-2-1.4-2.7-2.5c-0.6-1.1-0.9-2.3-0.9-3.7s0.3-2.6,0.9-3.7c0.6-1.1,1.5-1.9,2.7-2.5
	c1.1-0.6,2.4-0.9,3.8-0.9s2.7,0.3,3.8,0.9c1.1,0.6,2,1.4,2.6,2.5c0.6,1.1,1,2.3,1,3.7s-0.3,2.6-1,3.7c-0.6,1.1-1.5,1.9-2.6,2.5
	C170.8,252,169.5,252.3,168.1,252.3z M168.1,249.5c1.2,0,2.2-0.4,3-1.2s1.2-1.8,1.2-3.2c0-1.3-0.4-2.4-1.2-3.2s-1.8-1.2-3-1.2
	s-2.2,0.4-3,1.2s-1.1,1.8-1.1,3.2c0,1.3,0.4,2.4,1.1,3.2C165.9,249.1,166.9,249.5,168.1,249.5z M186.3,238c1.4,0,2.6,0.3,3.6,0.9
	c1.1,0.6,1.9,1.4,2.5,2.5c0.6,1.1,0.9,2.3,0.9,3.7s-0.3,2.7-0.9,3.7c-0.6,1.1-1.4,1.9-2.5,2.5c-1.1,0.6-2.3,0.9-3.6,0.9
	c-1.9,0-3.4-0.6-4.5-1.9v6.7h-3.3v-19h3.1v1.8c0.5-0.7,1.2-1.2,2-1.5C184.5,238.2,185.4,238,186.3,238z M186,249.5
	c1.2,0,2.2-0.4,2.9-1.2c0.8-0.8,1.2-1.8,1.2-3.2c0-1.3-0.4-2.4-1.2-3.2s-1.7-1.2-2.9-1.2c-0.8,0-1.5,0.2-2.1,0.5
	c-0.6,0.3-1.1,0.9-1.5,1.5c-0.4,0.7-0.5,1.4-0.5,2.3c0,0.9,0.2,1.6,0.5,2.3c0.4,0.7,0.9,1.2,1.5,1.5
	C184.5,249.3,185.2,249.5,186,249.5z M209.5,245.2c0,0.2,0,0.5-0.1,1h-10.8c0.2,1,0.7,1.8,1.5,2.4c0.8,0.6,1.8,0.9,3,0.9
	c1.5,0,2.8-0.5,3.8-1.5l1.7,2c-0.6,0.7-1.4,1.3-2.4,1.7s-2,0.6-3.2,0.6c-1.5,0-2.9-0.3-4-0.9c-1.2-0.6-2.1-1.4-2.7-2.5
	c-0.6-1.1-0.9-2.3-0.9-3.7s0.3-2.6,0.9-3.6c0.6-1.1,1.5-1.9,2.6-2.6c1.1-0.6,2.3-0.9,3.7-0.9c1.4,0,2.6,0.3,3.6,0.9
	c1.1,0.6,1.9,1.4,2.5,2.5C209.2,242.5,209.5,243.8,209.5,245.2z M202.5,240.6c-1,0-1.9,0.3-2.7,0.9c-0.7,0.6-1.1,1.4-1.3,2.4h7.9
	c-0.1-1-0.6-1.8-1.3-2.4C204.5,240.9,203.6,240.6,202.5,240.6z M215.8,240.2c0.9-1.5,2.6-2.2,4.9-2.2v3.1c-0.3-0.1-0.5-0.1-0.8-0.1
	c-1.3,0-2.3,0.4-3,1.1c-0.7,0.7-1.1,1.8-1.1,3.2v6.7h-3.3v-13.9h3.3V240.2z M232.4,247c-0.6,0-1.1-0.2-1.5-0.6
	c-0.4-0.4-0.6-0.9-0.6-1.6c0-0.6,0.2-1.1,0.6-1.5c0.4-0.4,0.9-0.6,1.5-0.6c0.6,0,1.1,0.2,1.5,0.6c0.4,0.4,0.6,0.9,0.6,1.6
	c0,0.7-0.2,1.2-0.6,1.6C233.5,246.8,233,247,232.4,247z M251.4,252.3c-1.4,0-2.8-0.2-4.1-0.6c-1.3-0.4-2.3-0.9-3.1-1.6l1.2-2.6
	c0.7,0.6,1.7,1.1,2.7,1.5c1.1,0.4,2.2,0.5,3.3,0.5c1.4,0,2.4-0.2,3-0.7c0.7-0.4,1-1,1-1.7c0-0.5-0.2-0.9-0.6-1.3
	c-0.4-0.3-0.8-0.6-1.4-0.8c-0.6-0.2-1.4-0.4-2.3-0.7c-1.4-0.3-2.5-0.7-3.4-1c-0.9-0.3-1.6-0.8-2.2-1.5c-0.6-0.7-0.9-1.7-0.9-2.9
	c0-1,0.3-1.9,0.8-2.7c0.6-0.8,1.4-1.5,2.5-2c1.1-0.5,2.5-0.7,4.1-0.7c1.1,0,2.2,0.1,3.3,0.4c1.1,0.3,2,0.7,2.8,1.2l-1.1,2.6
	c-0.8-0.5-1.6-0.8-2.5-1.1c-0.9-0.2-1.7-0.4-2.5-0.4c-1.3,0-2.3,0.2-3,0.7c-0.6,0.5-1,1.1-1,1.8c0,0.5,0.2,0.9,0.5,1.3
	c0.4,0.3,0.9,0.6,1.4,0.8c0.6,0.2,1.4,0.4,2.3,0.7c1.4,0.3,2.5,0.6,3.3,1c0.9,0.3,1.6,0.8,2.2,1.5s0.9,1.6,0.9,2.8
	c0,1-0.3,1.9-0.8,2.7s-1.4,1.5-2.5,2C254.3,252.1,253,252.3,251.4,252.3z M267.1,238c2,0,3.6,0.5,4.7,1.5c1.1,1,1.6,2.4,1.6,4.4v8.2
	h-3.1v-1.7c-0.4,0.6-1,1.1-1.7,1.4c-0.7,0.3-1.6,0.5-2.7,0.5c-1,0-2-0.2-2.7-0.5c-0.8-0.4-1.4-0.9-1.8-1.5c-0.4-0.6-0.6-1.4-0.6-2.2
	c0-1.2,0.5-2.2,1.4-3s2.4-1.1,4.4-1.1h3.6v-0.2c0-1-0.3-1.7-0.9-2.2s-1.4-0.8-2.6-0.8c-0.8,0-1.6,0.1-2.3,0.4
	c-0.7,0.2-1.4,0.6-1.9,1l-1.3-2.4c0.7-0.6,1.6-1,2.6-1.3C264.9,238.2,265.9,238,267.1,238z M266.6,249.9c0.8,0,1.5-0.2,2.2-0.5
	c0.6-0.4,1.1-0.9,1.4-1.6v-1.6h-3.4c-1.9,0-2.8,0.6-2.8,1.8c0,0.6,0.2,1.1,0.7,1.4C265.2,249.7,265.8,249.9,266.6,249.9z
	 M280.7,240.2c0.9-1.5,2.6-2.2,4.9-2.2v3.1c-0.3-0.1-0.5-0.1-0.8-0.1c-1.3,0-2.3,0.4-3,1.1c-0.7,0.7-1.1,1.8-1.1,3.2v6.7h-3.3v-13.9
	h3.1v2.1L280.7,240.2L280.7,240.2z M293.6,238c2,0,3.6,0.5,4.7,1.5c1.1,1,1.6,2.4,1.6,4.4v8.2h-3.1v-1.7c-0.4,0.6-1,1.1-1.7,1.4
	c-0.7,0.3-1.6,0.5-2.7,0.5c-1,0-2-0.2-2.7-0.5c-0.8-0.4-1.4-0.9-1.8-1.5c-0.4-0.6-0.6-1.4-0.6-2.2c0-1.2,0.5-2.2,1.4-3
	s2.4-1.1,4.4-1.1h3.6v-0.2c0-1-0.3-1.7-0.9-2.2s-1.4-0.8-2.6-0.8c-0.8,0-1.6,0.1-2.3,0.4c-0.7,0.2-1.4,0.6-1.9,1l-1.3-2.4
	c0.7-0.6,1.6-1,2.6-1.3C291.4,238.2,292.5,238,293.6,238z M293.2,249.9c0.8,0,1.5-0.2,2.2-0.5c0.6-0.4,1.1-0.9,1.4-1.6v-1.6h-3.4
	c-1.9,0-2.8,0.6-2.8,1.8c0,0.6,0.2,1.1,0.7,1.4C291.7,249.7,292.4,249.9,293.2,249.9z M317.3,252.3c-1.4,0-2.8-0.2-4.1-0.6
	c-1.3-0.4-2.3-0.9-3.1-1.6l1.2-2.6c0.7,0.6,1.7,1.1,2.7,1.5c1.1,0.4,2.2,0.5,3.3,0.5c1.4,0,2.4-0.2,3-0.7c0.7-0.4,1-1,1-1.7
	c0-0.5-0.2-0.9-0.6-1.3c-0.4-0.3-0.8-0.6-1.4-0.8c-0.6-0.2-1.4-0.4-2.3-0.7c-1.4-0.3-2.5-0.7-3.4-1s-1.6-0.8-2.2-1.5
	c-0.6-0.7-0.9-1.7-0.9-2.9c0-1,0.3-1.9,0.8-2.7c0.6-0.8,1.4-1.5,2.5-2s2.5-0.7,4.1-0.7c1.1,0,2.2,0.1,3.3,0.4c1.1,0.3,2,0.7,2.8,1.2
	l-1.1,2.6c-0.8-0.5-1.6-0.8-2.5-1.1c-0.9-0.2-1.7-0.4-2.5-0.4c-1.3,0-2.3,0.2-3,0.7c-0.6,0.5-1,1.1-1,1.8c0,0.5,0.2,0.9,0.5,1.3
	c0.4,0.3,0.9,0.6,1.4,0.8c0.6,0.2,1.4,0.4,2.3,0.7c1.4,0.3,2.5,0.6,3.3,1c0.9,0.3,1.6,0.8,2.2,1.5s0.9,1.6,0.9,2.8
	c0,1-0.3,1.9-0.8,2.7s-1.4,1.5-2.5,2C320.2,252.1,318.9,252.3,317.3,252.3z M340.5,238.2l-6,13.9h-3.4l-6-13.9h3.4l4.3,10.3
	l4.5-10.3H340.5z M355.2,245.2c0,0.2,0,0.5-0.1,1h-10.9c0.2,1,0.7,1.8,1.5,2.4c0.8,0.6,1.8,0.9,3,0.9c1.5,0,2.8-0.5,3.8-1.5l1.7,2
	c-0.6,0.7-1.4,1.3-2.4,1.7s-2,0.6-3.2,0.6c-1.5,0-2.9-0.3-4-0.9c-1.2-0.6-2.1-1.4-2.7-2.5s-0.9-2.3-0.9-3.7s0.3-2.6,0.9-3.6
	c0.6-1.1,1.5-1.9,2.6-2.6c1.1-0.6,2.3-0.9,3.7-0.9s2.6,0.3,3.6,0.9c1.1,0.6,1.9,1.4,2.5,2.5C354.9,242.5,355.2,243.8,355.2,245.2z
	 M348.2,240.6c-1,0-1.9,0.3-2.7,0.9c-0.7,0.6-1.1,1.4-1.3,2.4h7.9c-0.1-1-0.6-1.8-1.3-2.4C350.1,240.9,349.2,240.6,348.2,240.6z
	 M366.2,238c1.8,0,3.2,0.5,4.2,1.5c1.1,1,1.6,2.5,1.6,4.6v8h-3.2v-7.6c0-1.2-0.3-2.1-0.9-2.7c-0.6-0.6-1.4-0.9-2.4-0.9
	c-1.2,0-2.1,0.4-2.8,1.1c-0.7,0.7-1,1.7-1,3.1v7h-3.3v-13.9h3.1v1.8c0.5-0.6,1.2-1.1,2-1.5C364.3,238.2,365.2,238,366.2,238z
	 M380.4,252.3c-1.1,0-2.2-0.1-3.3-0.4c-1.1-0.3-1.9-0.7-2.6-1.1l1.2-2.5c0.6,0.4,1.4,0.8,2.2,1c0.9,0.2,1.8,0.4,2.6,0.4
	c1.9,0,2.9-0.5,2.9-1.5c0-0.5-0.3-0.8-0.8-1s-1.3-0.4-2.4-0.5c-1.1-0.2-2.1-0.4-2.8-0.6c-0.7-0.2-1.3-0.6-1.9-1.2
	c-0.5-0.6-0.8-1.4-0.8-2.4c0-1.3,0.5-2.4,1.6-3.2s2.6-1.2,4.5-1.2c1,0,1.9,0.1,2.9,0.3s1.7,0.5,2.3,0.9l-1.2,2.5c-1.2-0.7-2.5-1-4-1
	c-1,0-1.7,0.1-2.2,0.4c-0.5,0.3-0.7,0.7-0.7,1.1c0,0.5,0.3,0.9,0.8,1.1c0.5,0.2,1.4,0.4,2.5,0.6c1.1,0.2,2,0.4,2.7,0.6
	c0.7,0.2,1.3,0.6,1.8,1.1s0.8,1.3,0.8,2.3c0,1.3-0.6,2.3-1.7,3.1C383.9,251.9,382.4,252.3,380.4,252.3z M393.8,252.3
	c-1.1,0-2.2-0.1-3.3-0.4c-1.1-0.3-1.9-0.7-2.6-1.1l1.2-2.5c0.6,0.4,1.4,0.8,2.2,1c0.9,0.2,1.8,0.4,2.6,0.4c1.9,0,2.9-0.5,2.9-1.5
	c0-0.5-0.3-0.8-0.8-1s-1.3-0.4-2.4-0.5c-1.1-0.2-2.1-0.4-2.8-0.6c-0.7-0.2-1.3-0.6-1.9-1.2c-0.5-0.6-0.8-1.4-0.8-2.4
	c0-1.3,0.5-2.4,1.6-3.2s2.6-1.2,4.5-1.2c1,0,1.9,0.1,2.9,0.3s1.7,0.5,2.3,0.9l-1.2,2.5c-1.2-0.7-2.5-1-4-1c-1,0-1.7,0.1-2.2,0.4
	c-0.5,0.3-0.7,0.7-0.7,1.1c0,0.5,0.3,0.9,0.8,1.1c0.5,0.2,1.4,0.4,2.5,0.6c1.1,0.2,2,0.4,2.7,0.6c0.7,0.2,1.3,0.6,1.8,1.1
	s0.8,1.3,0.8,2.3c0,1.3-0.6,2.3-1.7,3.1C397.3,251.9,395.8,252.3,393.8,252.3z M409.2,252.3c-1.4,0-2.7-0.3-3.8-0.9
	c-1.1-0.6-2-1.4-2.7-2.5c-0.6-1.1-0.9-2.3-0.9-3.7s0.3-2.6,0.9-3.7c0.6-1.1,1.5-1.9,2.7-2.5c1.1-0.6,2.4-0.9,3.8-0.9
	s2.7,0.3,3.8,0.9c1.1,0.6,2,1.4,2.6,2.5s1,2.3,1,3.7s-0.3,2.6-1,3.7c-0.6,1.1-1.5,1.9-2.6,2.5C411.9,252,410.6,252.3,409.2,252.3z
	 M409.2,249.5c1.2,0,2.2-0.4,3-1.2s1.2-1.8,1.2-3.2c0-1.3-0.4-2.4-1.2-3.2c-0.8-0.8-1.8-1.2-3-1.2s-2.2,0.4-3,1.2s-1.1,1.8-1.1,3.2
	c0,1.3,0.4,2.4,1.1,3.2C407,249.1,408,249.5,409.2,249.5z M427.6,238c1.8,0,3.2,0.5,4.2,1.5c1.1,1,1.6,2.5,1.6,4.6v8h-3.3v-7.6
	c0-1.2-0.3-2.1-0.9-2.7c-0.6-0.6-1.4-0.9-2.4-0.9c-1.2,0-2.1,0.4-2.8,1.1c-0.7,0.7-1,1.7-1,3.1v7h-3.3v-13.9h3.1v1.8
	c0.5-0.6,1.2-1.1,2-1.5C425.7,238.2,426.6,238,427.6,238z M446.3,247c-0.6,0-1.1-0.2-1.5-0.6c-0.4-0.4-0.6-0.9-0.6-1.6
	c0-0.6,0.2-1.1,0.6-1.5s0.9-0.6,1.5-0.6s1.1,0.2,1.5,0.6c0.4,0.4,0.6,0.9,0.6,1.6c0,0.7-0.2,1.2-0.6,1.6
	C447.5,246.8,446.9,247,446.3,247z M463,236.7v5.5h8.8v2.9H463v7h-3.4v-18.2h13.3v2.8H463z M489,238.2v13.9h-3.1v-1.8
	c-0.5,0.6-1.2,1.1-2,1.5c-0.8,0.3-1.6,0.5-2.5,0.5c-1.9,0-3.3-0.5-4.4-1.5s-1.6-2.6-1.6-4.6v-7.9h3.3v7.5c0,1.2,0.3,2.2,0.8,2.8
	c0.6,0.6,1.4,0.9,2.4,0.9c1.2,0,2.1-0.4,2.8-1.1c0.7-0.7,1-1.8,1-3.1v-7L489,238.2L489,238.2z M493.3,232.8h3.3v19.3h-3.3V232.8z
	 M500.8,232.8h3.3v19.3h-3.3V232.8z M512.6,252.3c-1.1,0-2.2-0.1-3.3-0.4c-1.1-0.3-1.9-0.7-2.6-1.1l1.2-2.5c0.6,0.4,1.4,0.8,2.2,1
	c0.9,0.2,1.8,0.4,2.6,0.4c1.9,0,2.9-0.5,2.9-1.5c0-0.5-0.3-0.8-0.8-1s-1.3-0.4-2.4-0.5c-1.1-0.2-2.1-0.4-2.8-0.6
	c-0.7-0.2-1.3-0.6-1.9-1.2c-0.5-0.6-0.8-1.4-0.8-2.4c0-1.3,0.5-2.4,1.6-3.2s2.6-1.2,4.5-1.2c1,0,1.9,0.1,2.9,0.3s1.7,0.5,2.3,0.9
	l-1.2,2.5c-1.2-0.7-2.5-1-4-1c-1,0-1.7,0.1-2.2,0.4c-0.5,0.3-0.7,0.7-0.7,1.1c0,0.5,0.3,0.9,0.8,1.1c0.5,0.2,1.4,0.4,2.5,0.6
	c1.1,0.2,2,0.4,2.7,0.6s1.3,0.6,1.8,1.1s0.8,1.3,0.8,2.3c0,1.3-0.6,2.3-1.7,3.1C516.1,251.9,514.6,252.3,512.6,252.3z M530.1,251.3
	c-0.4,0.3-0.9,0.5-1.4,0.7s-1.1,0.2-1.7,0.2c-1.5,0-2.7-0.4-3.5-1.2s-1.2-2-1.2-3.5v-6.7H520v-2.6h2.3V235h3.3v3.2h3.7v2.6h-3.7v6.6
	c0,0.7,0.2,1.2,0.5,1.6c0.3,0.3,0.8,0.5,1.4,0.5c0.7,0,1.3-0.2,1.8-0.6L530.1,251.3z M538.1,238c2,0,3.6,0.5,4.7,1.5
	c1.1,1,1.6,2.4,1.6,4.4v8.2h-3.1v-1.7c-0.4,0.6-1,1.1-1.7,1.4c-0.7,0.3-1.6,0.5-2.7,0.5c-1,0-2-0.2-2.7-0.5
	c-0.8-0.4-1.4-0.9-1.8-1.5c-0.4-0.6-0.6-1.4-0.6-2.2c0-1.2,0.5-2.2,1.4-3c0.9-0.8,2.4-1.1,4.4-1.1h3.6v-0.2c0-1-0.3-1.7-0.9-2.2
	c-0.6-0.5-1.4-0.8-2.6-0.8c-0.8,0-1.6,0.1-2.3,0.4c-0.7,0.2-1.4,0.6-1.9,1l-1.3-2.4c0.7-0.6,1.6-1,2.6-1.3
	C535.8,238.2,536.9,238,538.1,238z M537.6,249.9c0.8,0,1.5-0.2,2.2-0.5c0.6-0.4,1.1-0.9,1.4-1.6v-1.6h-3.4c-1.9,0-2.8,0.6-2.8,1.8
	c0,0.6,0.2,1.1,0.7,1.4S536.8,249.9,537.6,249.9z M555.1,252.3c-1.4,0-2.7-0.3-3.9-0.9c-1.1-0.6-2-1.4-2.7-2.5c-0.6-1.1-1-2.3-1-3.7
	s0.3-2.6,1-3.7c0.6-1.1,1.5-1.9,2.7-2.5c1.1-0.6,2.4-0.9,3.9-0.9c1.4,0,2.6,0.3,3.6,0.8c1,0.6,1.8,1.4,2.3,2.4l-2.5,1.5
	c-0.4-0.6-0.9-1.1-1.5-1.4c-0.6-0.3-1.2-0.5-2-0.5c-1.2,0-2.2,0.4-3,1.2s-1.2,1.8-1.2,3.2c0,1.3,0.4,2.4,1.2,3.2
	c0.8,0.8,1.8,1.2,3,1.2c0.7,0,1.4-0.2,2-0.5c0.6-0.3,1.1-0.8,1.5-1.5l2.5,1.5c-0.5,1-1.3,1.8-2.4,2.4
	C557.6,252,556.4,252.3,555.1,252.3z M569.4,246.1l-2.4,2.3v3.7h-3.3v-19.3h3.3v11.7l6.7-6.2h3.9l-5.8,5.7l6.4,8.1h-4L569.4,246.1z
	 M587.8,233.9h8c1.9,0,3.7,0.4,5.2,1.1c1.5,0.7,2.7,1.8,3.5,3.2s1.2,3,1.2,4.8s-0.4,3.4-1.2,4.8c-0.8,1.4-2,2.4-3.5,3.2
	c-1.5,0.7-3.2,1.1-5.2,1.1h-8V233.9z M595.6,249.2c1.3,0,2.5-0.3,3.5-0.8s1.8-1.2,2.3-2.2c0.6-1,0.8-2.1,0.8-3.3s-0.3-2.3-0.8-3.3
	s-1.3-1.7-2.3-2.2s-2.2-0.8-3.5-0.8h-4.4v12.5h4.4V249.2z M622,245.2c0,0.2,0,0.5-0.1,1H611c0.2,1,0.7,1.8,1.5,2.4
	c0.8,0.6,1.8,0.9,3,0.9c1.5,0,2.8-0.5,3.8-1.5l1.7,2c-0.6,0.7-1.4,1.3-2.4,1.7s-2,0.6-3.2,0.6c-1.5,0-2.9-0.3-4-0.9
	c-1.2-0.6-2.1-1.4-2.7-2.5c-0.6-1.1-0.9-2.3-0.9-3.7s0.3-2.6,0.9-3.6c0.6-1.1,1.5-1.9,2.6-2.6c1.1-0.6,2.3-0.9,3.7-0.9
	s2.6,0.3,3.6,0.9c1.1,0.6,1.9,1.4,2.5,2.5C621.7,242.5,622,243.8,622,245.2z M615,240.6c-1,0-1.9,0.3-2.7,0.9
	c-0.7,0.6-1.1,1.4-1.3,2.4h7.9c-0.1-1-0.6-1.8-1.3-2.4C617,240.9,616.1,240.6,615,240.6z M637.9,238.2l-6,13.9h-3.4l-6-13.9h3.4
	l4.3,10.3l4.5-10.3H637.9z M652.7,245.2c0,0.2,0,0.5-0.1,1h-10.9c0.2,1,0.7,1.8,1.5,2.4c0.8,0.6,1.8,0.9,3,0.9
	c1.5,0,2.8-0.5,3.8-1.5l1.7,2c-0.6,0.7-1.4,1.3-2.4,1.7s-2,0.6-3.2,0.6c-1.5,0-2.9-0.3-4-0.9c-1.2-0.6-2.1-1.4-2.7-2.5
	c-0.6-1.1-0.9-2.3-0.9-3.7s0.3-2.6,0.9-3.6c0.6-1.1,1.5-1.9,2.6-2.6c1.1-0.6,2.3-0.9,3.7-0.9s2.6,0.3,3.6,0.9
	c1.1,0.6,1.9,1.4,2.5,2.5C652.4,242.5,652.7,243.8,652.7,245.2z M645.6,240.6c-1,0-1.9,0.3-2.7,0.9c-0.7,0.6-1.1,1.4-1.3,2.4h7.9
	c-0.1-1-0.6-1.8-1.3-2.4C647.6,240.9,646.7,240.6,645.6,240.6z M655.8,232.8h3.3v19.3h-3.3V232.8z M669.6,252.3
	c-1.4,0-2.7-0.3-3.8-0.9c-1.1-0.6-2-1.4-2.7-2.5c-0.6-1.1-0.9-2.3-0.9-3.7s0.3-2.6,0.9-3.7c0.6-1.1,1.5-1.9,2.7-2.5
	c1.1-0.6,2.4-0.9,3.8-0.9c1.4,0,2.7,0.3,3.8,0.9c1.1,0.6,2,1.4,2.6,2.5s1,2.3,1,3.7s-0.3,2.6-1,3.7c-0.6,1.1-1.5,1.9-2.6,2.5
	C672.3,252,671,252.3,669.6,252.3z M669.6,249.5c1.2,0,2.2-0.4,3-1.2s1.2-1.8,1.2-3.2c0-1.3-0.4-2.4-1.2-3.2s-1.8-1.2-3-1.2
	s-2.2,0.4-3,1.2s-1.1,1.8-1.1,3.2c0,1.3,0.4,2.4,1.1,3.2C667.4,249.1,668.4,249.5,669.6,249.5z M687.8,238c1.4,0,2.6,0.3,3.6,0.9
	c1.1,0.6,1.9,1.4,2.5,2.5s0.9,2.3,0.9,3.7s-0.3,2.7-0.9,3.7c-0.6,1.1-1.4,1.9-2.5,2.5s-2.3,0.9-3.6,0.9c-1.9,0-3.4-0.6-4.5-1.9v6.7
	H680v-19h3.1v1.8c0.5-0.7,1.2-1.2,2-1.5C686,238.2,686.8,238,687.8,238z M687.4,249.5c1.2,0,2.2-0.4,2.9-1.2
	c0.8-0.8,1.2-1.8,1.2-3.2c0-1.3-0.4-2.4-1.2-3.2s-1.7-1.2-2.9-1.2c-0.8,0-1.5,0.2-2.1,0.5s-1.1,0.9-1.5,1.5
	c-0.4,0.7-0.5,1.4-0.5,2.3c0,0.9,0.2,1.6,0.5,2.3c0.4,0.7,0.9,1.2,1.5,1.5C686,249.3,686.7,249.5,687.4,249.5z M711,245.2
	c0,0.2,0,0.5-0.1,1H700c0.2,1,0.7,1.8,1.5,2.4c0.8,0.6,1.8,0.9,3,0.9c1.5,0,2.8-0.5,3.8-1.5l1.7,2c-0.6,0.7-1.4,1.3-2.4,1.7
	s-2,0.6-3.2,0.6c-1.5,0-2.9-0.3-4-0.9c-1.2-0.6-2.1-1.4-2.7-2.5c-0.6-1.1-0.9-2.3-0.9-3.7s0.3-2.6,0.9-3.6c0.6-1.1,1.5-1.9,2.6-2.6
	c1.1-0.6,2.3-0.9,3.7-0.9s2.6,0.3,3.6,0.9c1.1,0.6,1.9,1.4,2.5,2.5C710.7,242.5,711,243.8,711,245.2z M704,240.6
	c-1,0-1.9,0.3-2.7,0.9c-0.7,0.6-1.1,1.4-1.3,2.4h7.9c-0.1-1-0.6-1.8-1.3-2.4C705.9,240.9,705,240.6,704,240.6z M717.2,240.2
	c0.9-1.5,2.6-2.2,4.9-2.2v3.1c-0.3-0.1-0.5-0.1-0.8-0.1c-1.3,0-2.3,0.4-3,1.1c-0.7,0.7-1.1,1.8-1.1,3.2v6.7h-3.3v-13.9h3.1v2.1
	L717.2,240.2L717.2,240.2z M733.8,247c-0.6,0-1.1-0.2-1.5-0.6c-0.4-0.4-0.6-0.9-0.6-1.6c0-0.6,0.2-1.1,0.6-1.5
	c0.4-0.4,0.9-0.6,1.5-0.6s1.1,0.2,1.5,0.6c0.4,0.4,0.6,0.9,0.6,1.6c0,0.7-0.2,1.2-0.6,1.6C735,246.8,734.5,247,733.8,247z
	 M752.8,252.3c-1.4,0-2.8-0.2-4.1-0.6c-1.3-0.4-2.3-0.9-3.1-1.6l1.2-2.6c0.7,0.6,1.7,1.1,2.7,1.5c1.1,0.4,2.2,0.5,3.3,0.5
	c1.4,0,2.4-0.2,3-0.7c0.7-0.4,1-1,1-1.7c0-0.5-0.2-0.9-0.6-1.3c-0.4-0.3-0.8-0.6-1.4-0.8c-0.6-0.2-1.4-0.4-2.3-0.7
	c-1.4-0.3-2.5-0.7-3.4-1s-1.6-0.8-2.2-1.5c-0.6-0.7-0.9-1.7-0.9-2.9c0-1,0.3-1.9,0.8-2.7c0.6-0.8,1.4-1.5,2.5-2s2.5-0.7,4.1-0.7
	c1.1,0,2.2,0.1,3.3,0.4c1.1,0.3,2,0.7,2.8,1.2l-1.1,2.6c-0.8-0.5-1.6-0.8-2.5-1.1c-0.9-0.2-1.7-0.4-2.5-0.4c-1.3,0-2.3,0.2-3,0.7
	c-0.6,0.5-1,1.1-1,1.8c0,0.5,0.2,0.9,0.5,1.3c0.4,0.3,0.9,0.6,1.4,0.8c0.6,0.2,1.4,0.4,2.3,0.7c1.4,0.3,2.5,0.6,3.3,1
	c0.9,0.3,1.6,0.8,2.2,1.5c0.6,0.7,0.9,1.6,0.9,2.8c0,1-0.3,1.9-0.8,2.7s-1.4,1.5-2.5,2C755.8,252.1,754.4,252.3,752.8,252.3z
	 M768.6,238c2,0,3.6,0.5,4.7,1.5c1.1,1,1.6,2.4,1.6,4.4v8.2h-3.1v-1.7c-0.4,0.6-1,1.1-1.7,1.4c-0.7,0.3-1.6,0.5-2.7,0.5
	c-1,0-2-0.2-2.7-0.5c-0.8-0.4-1.4-0.9-1.8-1.5c-0.4-0.6-0.6-1.4-0.6-2.2c0-1.2,0.5-2.2,1.4-3s2.4-1.1,4.4-1.1h3.6v-0.2
	c0-1-0.3-1.7-0.9-2.2c-0.6-0.5-1.4-0.8-2.6-0.8c-0.8,0-1.6,0.1-2.3,0.4c-0.7,0.2-1.4,0.6-1.9,1l-1.3-2.4c0.7-0.6,1.6-1,2.6-1.3
	C766.3,238.2,767.4,238,768.6,238z M768.1,249.9c0.8,0,1.5-0.2,2.2-0.5c0.6-0.4,1.1-0.9,1.4-1.6v-1.6h-3.4c-1.9,0-2.8,0.6-2.8,1.8
	c0,0.6,0.2,1.1,0.7,1.4C766.6,249.7,767.3,249.9,768.1,249.9z M782.2,240.2c0.9-1.5,2.6-2.2,4.9-2.2v3.1c-0.3-0.1-0.5-0.1-0.8-0.1
	c-1.3,0-2.3,0.4-3,1.1c-0.7,0.7-1.1,1.8-1.1,3.2v6.7h-3.3v-13.9h3.1v2.1L782.2,240.2L782.2,240.2z M795.1,238c2,0,3.6,0.5,4.7,1.5
	c1.1,1,1.6,2.4,1.6,4.4v8.2h-3.1v-1.7c-0.4,0.6-1,1.1-1.7,1.4c-0.7,0.3-1.6,0.5-2.7,0.5c-1,0-2-0.2-2.7-0.5
	c-0.8-0.4-1.4-0.9-1.8-1.5c-0.4-0.6-0.6-1.4-0.6-2.2c0-1.2,0.5-2.2,1.4-3s2.4-1.1,4.4-1.1h3.6v-0.2c0-1-0.3-1.7-0.9-2.2
	c-0.6-0.5-1.4-0.8-2.6-0.8c-0.8,0-1.6,0.1-2.3,0.4c-0.7,0.2-1.4,0.6-1.9,1l-1.3-2.4c0.7-0.6,1.6-1,2.6-1.3
	C792.9,238.2,794,238,795.1,238z M794.7,249.9c0.8,0,1.5-0.2,2.2-0.5c0.6-0.4,1.1-0.9,1.4-1.6v-1.6h-3.5c-1.9,0-2.8,0.6-2.8,1.8
	c0,0.6,0.2,1.1,0.7,1.4C793.2,249.7,793.8,249.9,794.7,249.9z M818.8,252.3c-1.4,0-2.8-0.2-4.1-0.6c-1.3-0.4-2.3-0.9-3.1-1.6
	l1.2-2.6c0.7,0.6,1.7,1.1,2.7,1.5c1.1,0.4,2.2,0.5,3.3,0.5c1.4,0,2.4-0.2,3-0.7c0.7-0.4,1-1,1-1.7c0-0.5-0.2-0.9-0.6-1.3
	c-0.4-0.3-0.8-0.6-1.4-0.8c-0.6-0.2-1.4-0.4-2.3-0.7c-1.4-0.3-2.5-0.7-3.4-1s-1.6-0.8-2.2-1.5c-0.6-0.7-0.9-1.7-0.9-2.9
	c0-1,0.3-1.9,0.8-2.7c0.6-0.8,1.4-1.5,2.5-2s2.5-0.7,4.1-0.7c1.1,0,2.2,0.1,3.3,0.4c1.1,0.3,2,0.7,2.8,1.2l-1.1,2.6
	c-0.8-0.5-1.6-0.8-2.5-1.1c-0.9-0.2-1.7-0.4-2.5-0.4c-1.3,0-2.3,0.2-3,0.7c-0.6,0.5-1,1.1-1,1.8c0,0.5,0.2,0.9,0.5,1.3
	c0.4,0.3,0.9,0.6,1.4,0.8c0.6,0.2,1.4,0.4,2.3,0.7c1.4,0.3,2.5,0.6,3.3,1c0.9,0.3,1.6,0.8,2.2,1.5c0.6,0.7,0.9,1.6,0.9,2.8
	c0,1-0.3,1.9-0.8,2.7s-1.4,1.5-2.5,2C821.7,252.1,820.4,252.3,818.8,252.3z M841.9,238.2l-6,13.9h-3.4l-6-13.9h3.4l4.3,10.3
	l4.5-10.3H841.9z M856.7,245.2c0,0.2,0,0.5-0.1,1h-10.9c0.2,1,0.7,1.8,1.5,2.4c0.8,0.6,1.8,0.9,3,0.9c1.5,0,2.8-0.5,3.8-1.5l1.7,2
	c-0.6,0.7-1.4,1.3-2.4,1.7s-2,0.6-3.2,0.6c-1.5,0-2.9-0.3-4-0.9c-1.2-0.6-2.1-1.4-2.7-2.5c-0.6-1.1-0.9-2.3-0.9-3.7s0.3-2.6,0.9-3.6
	c0.6-1.1,1.5-1.9,2.6-2.6c1.1-0.6,2.3-0.9,3.7-0.9s2.6,0.3,3.6,0.9c1.1,0.6,1.9,1.4,2.5,2.5C856.4,242.5,856.7,243.8,856.7,245.2z
	 M849.6,240.6c-1,0-1.9,0.3-2.7,0.9c-0.7,0.6-1.1,1.4-1.3,2.4h7.9c-0.1-1-0.6-1.8-1.3-2.4C851.6,240.9,850.7,240.6,849.6,240.6z
	 M867.7,238c1.8,0,3.2,0.5,4.2,1.5c1.1,1,1.6,2.5,1.6,4.6v8h-3.3v-7.6c0-1.2-0.3-2.1-0.9-2.7c-0.6-0.6-1.4-0.9-2.4-0.9
	c-1.2,0-2.1,0.4-2.8,1.1c-0.7,0.7-1,1.7-1,3.1v7h-3.3v-13.9h3.1v1.8c0.5-0.6,1.2-1.1,2-1.5C865.7,238.2,866.7,238,867.7,238z
	 M881.9,252.3c-1.1,0-2.2-0.1-3.3-0.4c-1.1-0.3-1.9-0.7-2.6-1.1l1.2-2.5c0.6,0.4,1.4,0.8,2.2,1c0.9,0.2,1.8,0.4,2.6,0.4
	c1.9,0,2.9-0.5,2.9-1.5c0-0.5-0.3-0.8-0.8-1s-1.3-0.4-2.4-0.5c-1.1-0.2-2.1-0.4-2.8-0.6c-0.7-0.2-1.3-0.6-1.9-1.2
	c-0.5-0.6-0.8-1.4-0.8-2.4c0-1.3,0.5-2.4,1.6-3.2s2.6-1.2,4.5-1.2c1,0,1.9,0.1,2.9,0.3s1.7,0.5,2.3,0.9l-1.2,2.5c-1.2-0.7-2.5-1-4-1
	c-1,0-1.7,0.1-2.2,0.4c-0.5,0.3-0.7,0.7-0.7,1.1c0,0.5,0.3,0.9,0.8,1.1c0.5,0.2,1.4,0.4,2.5,0.6c1.1,0.2,2,0.4,2.7,0.6
	c0.7,0.2,1.3,0.6,1.8,1.1s0.8,1.3,0.8,2.3c0,1.3-0.6,2.3-1.7,3.1C885.4,251.9,883.9,252.3,881.9,252.3z M895.3,252.3
	c-1.1,0-2.2-0.1-3.3-0.4c-1.1-0.3-1.9-0.7-2.6-1.1l1.2-2.5c0.6,0.4,1.4,0.8,2.2,1c0.9,0.2,1.8,0.4,2.6,0.4c1.9,0,2.9-0.5,2.9-1.5
	c0-0.5-0.3-0.8-0.8-1s-1.3-0.4-2.4-0.5c-1.1-0.2-2.1-0.4-2.8-0.6c-0.7-0.2-1.3-0.6-1.9-1.2c-0.5-0.6-0.8-1.4-0.8-2.4
	c0-1.3,0.5-2.4,1.6-3.2s2.6-1.2,4.5-1.2c1,0,1.9,0.1,2.9,0.3s1.7,0.5,2.3,0.9l-1.2,2.5c-1.2-0.7-2.5-1-4-1c-1,0-1.7,0.1-2.2,0.4
	c-0.5,0.3-0.7,0.7-0.7,1.1c0,0.5,0.3,0.9,0.8,1.1c0.5,0.2,1.4,0.4,2.5,0.6c1.1,0.2,2,0.4,2.7,0.6c0.7,0.2,1.3,0.6,1.8,1.1
	s0.8,1.3,0.8,2.3c0,1.3-0.6,2.3-1.7,3.1C898.8,251.9,897.3,252.3,895.3,252.3z M910.7,252.3c-1.4,0-2.7-0.3-3.8-0.9
	c-1.1-0.6-2-1.4-2.7-2.5c-0.6-1.1-0.9-2.3-0.9-3.7s0.3-2.6,0.9-3.7c0.6-1.1,1.5-1.9,2.7-2.5c1.1-0.6,2.4-0.9,3.8-0.9
	c1.4,0,2.7,0.3,3.8,0.9c1.1,0.6,2,1.4,2.6,2.5s1,2.3,1,3.7s-0.3,2.6-1,3.7c-0.6,1.1-1.5,1.9-2.6,2.5
	C913.4,252,912.1,252.3,910.7,252.3z M910.7,249.5c1.2,0,2.2-0.4,3-1.2s1.2-1.8,1.2-3.2c0-1.3-0.4-2.4-1.2-3.2s-1.8-1.2-3-1.2
	s-2.2,0.4-3,1.2s-1.1,1.8-1.1,3.2c0,1.3,0.4,2.4,1.1,3.2C908.5,249.1,909.5,249.5,910.7,249.5z M929.1,238c1.8,0,3.2,0.5,4.2,1.5
	c1.1,1,1.6,2.5,1.6,4.6v8h-3.3v-7.6c0-1.2-0.3-2.1-0.9-2.7c-0.6-0.6-1.4-0.9-2.4-0.9c-1.2,0-2.1,0.4-2.8,1.1c-0.7,0.7-1,1.7-1,3.1v7
	h-3.3v-13.9h3.1v1.8c0.5-0.6,1.2-1.1,2-1.5C927.1,238.2,928.1,238,929.1,238z M947.8,247c-0.6,0-1.1-0.2-1.5-0.6
	c-0.4-0.4-0.6-0.9-0.6-1.6c0-0.6,0.2-1.1,0.6-1.5c0.4-0.4,0.9-0.6,1.5-0.6s1.1,0.2,1.5,0.6c0.4,0.4,0.6,0.9,0.6,1.6
	c0,0.7-0.2,1.2-0.6,1.6C948.9,246.8,948.4,247,947.8,247z M964.5,236.7v5.5h8.8v2.9h-8.8v7h-3.4v-18.2h13.3v2.8H964.5z M990.5,238.2
	v13.9h-3.1v-1.8c-0.5,0.6-1.2,1.1-2,1.5c-0.8,0.3-1.6,0.5-2.5,0.5c-1.9,0-3.3-0.5-4.4-1.5c-1.1-1-1.6-2.6-1.6-4.6v-7.9h3.3v7.5
	c0,1.2,0.3,2.2,0.8,2.8c0.6,0.6,1.4,0.9,2.4,0.9c1.2,0,2.1-0.4,2.8-1.1c0.7-0.7,1-1.8,1-3.1v-7L990.5,238.2L990.5,238.2z
	 M994.7,232.8h3.3v19.3h-3.3V232.8z M1002.3,232.8h3.3v19.3h-3.3V232.8z M1014.1,252.3c-1.1,0-2.2-0.1-3.3-0.4
	c-1.1-0.3-1.9-0.7-2.6-1.1l1.2-2.5c0.6,0.4,1.4,0.8,2.2,1c0.9,0.2,1.8,0.4,2.6,0.4c1.9,0,2.9-0.5,2.9-1.5c0-0.5-0.3-0.8-0.8-1
	s-1.3-0.4-2.4-0.5c-1.1-0.2-2.1-0.4-2.8-0.6c-0.7-0.2-1.3-0.6-1.9-1.2c-0.5-0.6-0.8-1.4-0.8-2.4c0-1.3,0.5-2.4,1.6-3.2
	s2.6-1.2,4.5-1.2c1,0,1.9,0.1,2.9,0.3s1.7,0.5,2.3,0.9l-1.2,2.5c-1.2-0.7-2.5-1-4-1c-1,0-1.7,0.1-2.2,0.4c-0.5,0.3-0.7,0.7-0.7,1.1
	c0,0.5,0.3,0.9,0.8,1.1c0.5,0.2,1.4,0.4,2.5,0.6c1.1,0.2,2,0.4,2.7,0.6c0.7,0.2,1.3,0.6,1.8,1.1s0.8,1.3,0.8,2.3
	c0,1.3-0.6,2.3-1.7,3.1C1017.6,251.9,1016,252.3,1014.1,252.3z M1031.6,251.3c-0.4,0.3-0.9,0.5-1.4,0.7s-1.1,0.2-1.7,0.2
	c-1.5,0-2.7-0.4-3.5-1.2c-0.8-0.8-1.2-2-1.2-3.5v-6.7h-2.3v-2.6h2.3V235h3.3v3.2h3.7v2.6h-3.7v6.6c0,0.7,0.2,1.2,0.5,1.6
	c0.3,0.3,0.8,0.5,1.4,0.5c0.7,0,1.3-0.2,1.8-0.6L1031.6,251.3z M1039.5,238c2,0,3.6,0.5,4.7,1.5c1.1,1,1.6,2.4,1.6,4.4v8.2h-3v-1.7
	c-0.4,0.6-1,1.1-1.7,1.4c-0.7,0.3-1.6,0.5-2.7,0.5c-1,0-2-0.2-2.7-0.5c-0.8-0.4-1.4-0.9-1.8-1.5c-0.4-0.6-0.6-1.4-0.6-2.2
	c0-1.2,0.5-2.2,1.4-3s2.4-1.1,4.4-1.1h3.6v-0.2c0-1-0.3-1.7-0.9-2.2s-1.4-0.8-2.6-0.8c-0.8,0-1.6,0.1-2.3,0.4
	c-0.7,0.2-1.4,0.6-1.9,1l-1.3-2.4c0.7-0.6,1.6-1,2.6-1.3C1037.3,238.2,1038.4,238,1039.5,238z M1039.1,249.9c0.8,0,1.5-0.2,2.2-0.5
	c0.6-0.4,1.1-0.9,1.4-1.6v-1.6h-3.4c-1.9,0-2.8,0.6-2.8,1.8c0,0.6,0.2,1.1,0.7,1.4C1037.6,249.7,1038.3,249.9,1039.1,249.9z
	 M1056.6,252.3c-1.4,0-2.7-0.3-3.9-0.9c-1.1-0.6-2-1.4-2.7-2.5c-0.6-1.1-1-2.3-1-3.7s0.3-2.6,1-3.7c0.6-1.1,1.5-1.9,2.7-2.5
	c1.1-0.6,2.4-0.9,3.9-0.9c1.4,0,2.6,0.3,3.6,0.8c1,0.6,1.8,1.4,2.3,2.4l-2.5,1.5c-0.4-0.6-0.9-1.1-1.5-1.4c-0.6-0.3-1.2-0.5-2-0.5
	c-1.2,0-2.2,0.4-3,1.2c-0.8,0.8-1.2,1.8-1.2,3.2c0,1.3,0.4,2.4,1.2,3.2c0.8,0.8,1.8,1.2,3,1.2c0.7,0,1.4-0.2,2-0.5s1.1-0.8,1.5-1.5
	l2.5,1.5c-0.5,1-1.3,1.8-2.4,2.4C1059.1,252,1057.9,252.3,1056.6,252.3z M1070.9,246.1l-2.4,2.3v3.7h-3.3v-19.3h3.3v11.7l6.7-6.2
	h3.9l-5.8,5.8l6.4,8.1h-4L1070.9,246.1z M1089.2,233.9h8c1.9,0,3.7,0.4,5.2,1.1c1.5,0.7,2.7,1.8,3.5,3.2c0.8,1.4,1.2,3,1.2,4.8
	s-0.4,3.4-1.2,4.8c-0.8,1.4-2,2.4-3.5,3.2c-1.5,0.7-3.2,1.1-5.2,1.1h-8V233.9z M1097,249.2c1.3,0,2.5-0.3,3.5-0.8s1.8-1.2,2.3-2.2
	c0.6-1,0.8-2.1,0.8-3.3s-0.3-2.3-0.8-3.3s-1.3-1.7-2.3-2.2s-2.2-0.8-3.5-0.8h-4.4v12.5h4.4V249.2z M1123.5,245.2c0,0.2,0,0.5-0.1,1
	h-10.9c0.2,1,0.7,1.8,1.5,2.4c0.8,0.6,1.8,0.9,3,0.9c1.5,0,2.8-0.5,3.8-1.5l1.7,2c-0.6,0.7-1.4,1.3-2.4,1.7s-2,0.6-3.2,0.6
	c-1.5,0-2.9-0.3-4-0.9c-1.2-0.6-2.1-1.4-2.7-2.5c-0.6-1.1-0.9-2.3-0.9-3.7s0.3-2.6,0.9-3.6c0.6-1.1,1.5-1.9,2.6-2.6
	c1.1-0.6,2.3-0.9,3.7-0.9s2.6,0.3,3.6,0.9c1.1,0.6,1.9,1.4,2.5,2.5C1123.2,242.5,1123.5,243.8,1123.5,245.2z M1116.5,240.6
	c-1,0-1.9,0.3-2.7,0.9c-0.7,0.6-1.1,1.4-1.3,2.4h7.9c-0.1-1-0.6-1.8-1.3-2.4C1118.4,240.9,1117.5,240.6,1116.5,240.6z M1139.4,238.2
	l-6,13.9h-3.4l-6-13.9h3.4l4.3,10.3l4.5-10.3H1139.4z M1154.1,245.2c0,0.2,0,0.5,0,1h-10.9c0.2,1,0.7,1.8,1.5,2.4
	c0.8,0.6,1.8,0.9,3,0.9c1.5,0,2.8-0.5,3.8-1.5l1.8,2c-0.6,0.7-1.4,1.3-2.4,1.7s-2,0.6-3.2,0.6c-1.5,0-2.9-0.3-4-0.9
	c-1.2-0.6-2.1-1.4-2.7-2.5s-0.9-2.3-0.9-3.7s0.3-2.6,0.9-3.6c0.6-1.1,1.5-1.9,2.6-2.6c1.1-0.6,2.3-0.9,3.7-0.9s2.6,0.3,3.6,0.9
	c1.1,0.6,1.9,1.4,2.5,2.5C1153.8,242.5,1154.1,243.8,1154.1,245.2z M1147.1,240.6c-1,0-1.9,0.3-2.6,0.9c-0.7,0.6-1.2,1.4-1.3,2.4
	h7.9c-0.1-1-0.6-1.8-1.3-2.4C1149,240.9,1148.1,240.6,1147.1,240.6z M1157.2,232.8h3.3v19.3h-3.3V232.8z M1171,252.3
	c-1.4,0-2.7-0.3-3.8-0.9c-1.1-0.6-2-1.4-2.7-2.5c-0.6-1.1-0.9-2.3-0.9-3.7s0.3-2.6,0.9-3.7c0.6-1.1,1.5-1.9,2.7-2.5
	c1.1-0.6,2.4-0.9,3.8-0.9s2.7,0.3,3.8,0.9c1.1,0.6,2,1.4,2.6,2.5s1,2.3,1,3.7s-0.3,2.6-1,3.7c-0.6,1.1-1.5,1.9-2.6,2.5
	C1173.7,252,1172.5,252.3,1171,252.3z M1171,249.5c1.2,0,2.2-0.4,3-1.2s1.2-1.8,1.2-3.2c0-1.3-0.4-2.4-1.2-3.2
	c-0.8-0.8-1.8-1.2-3-1.2s-2.2,0.4-3,1.2s-1.2,1.8-1.2,3.2c0,1.3,0.4,2.4,1.2,3.2C1168.8,249.1,1169.8,249.5,1171,249.5z M1189.3,238
	c1.3,0,2.6,0.3,3.6,0.9c1.1,0.6,1.9,1.4,2.5,2.5s0.9,2.3,0.9,3.7s-0.3,2.7-0.9,3.7c-0.6,1.1-1.4,1.9-2.5,2.5s-2.3,0.9-3.6,0.9
	c-1.9,0-3.4-0.6-4.5-1.9v6.7h-3.2v-19h3.1v1.8c0.5-0.7,1.2-1.2,2-1.5C1187.4,238.2,1188.3,238,1189.3,238z M1188.9,249.5
	c1.2,0,2.2-0.4,3-1.2s1.2-1.8,1.2-3.2c0-1.3-0.4-2.4-1.2-3.2c-0.8-0.8-1.8-1.2-3-1.2c-0.8,0-1.5,0.2-2.1,0.5s-1.1,0.9-1.5,1.5
	c-0.4,0.7-0.6,1.4-0.6,2.3c0,0.9,0.2,1.6,0.6,2.3s0.9,1.2,1.5,1.5C1187.4,249.3,1188.1,249.5,1188.9,249.5z M1212.5,245.2
	c0,0.2,0,0.5-0.1,1h-10.9c0.2,1,0.7,1.8,1.5,2.4c0.8,0.6,1.8,0.9,3,0.9c1.5,0,2.8-0.5,3.8-1.5l1.7,2c-0.6,0.7-1.4,1.3-2.4,1.7
	c-0.9,0.4-2,0.6-3.2,0.6c-1.5,0-2.9-0.3-4-0.9c-1.2-0.6-2.1-1.4-2.7-2.5s-0.9-2.3-0.9-3.7s0.3-2.6,0.9-3.6c0.6-1.1,1.5-1.9,2.6-2.6
	c1.1-0.6,2.3-0.9,3.7-0.9c1.4,0,2.6,0.3,3.6,0.9c1.1,0.6,1.9,1.4,2.5,2.5C1212.2,242.5,1212.5,243.8,1212.5,245.2z M1205.5,240.6
	c-1,0-1.9,0.3-2.7,0.9c-0.7,0.6-1.2,1.4-1.3,2.4h7.9c-0.1-1-0.6-1.8-1.3-2.4C1207.4,240.9,1206.5,240.6,1205.5,240.6z M1218.7,240.2
	c0.9-1.5,2.6-2.2,4.9-2.2v3.1c-0.3-0.1-0.5-0.1-0.8-0.1c-1.3,0-2.3,0.4-3,1.1c-0.7,0.7-1.1,1.8-1.1,3.2v6.7h-3.2v-13.9h3.1
	L1218.7,240.2L1218.7,240.2z"/>
<path class="st2" d="M-250.1-90.8c-1.4,0-2.8-0.2-4.1-0.6c-1.3-0.4-2.3-0.9-3.1-1.6l1.2-2.6c0.7,0.6,1.7,1.1,2.7,1.5
	c1.1,0.4,2.2,0.5,3.3,0.5c1.4,0,2.4-0.2,3-0.7c0.7-0.4,1-1,1-1.7c0-0.5-0.2-0.9-0.6-1.3c-0.4-0.3-0.8-0.6-1.4-0.8
	c-0.6-0.2-1.4-0.4-2.3-0.7c-1.4-0.3-2.5-0.7-3.4-1s-1.6-0.8-2.2-1.5s-0.9-1.7-0.9-2.9c0-1,0.3-1.9,0.8-2.7c0.6-0.8,1.4-1.5,2.5-2
	s2.5-0.7,4.1-0.7c1.1,0,2.2,0.1,3.3,0.4c1.1,0.3,2,0.7,2.8,1.2l-1.1,2.6c-0.8-0.5-1.6-0.8-2.5-1.1c-0.9-0.2-1.7-0.4-2.5-0.4
	c-1.3,0-2.3,0.2-3,0.7c-0.6,0.5-1,1.1-1,1.8c0,0.5,0.2,0.9,0.5,1.3c0.4,0.3,0.9,0.6,1.4,0.8c0.6,0.2,1.4,0.4,2.3,0.7
	c1.4,0.3,2.5,0.6,3.3,1c0.9,0.3,1.6,0.8,2.2,1.5s0.9,1.6,0.9,2.8c0,1-0.3,1.9-0.8,2.7c-0.5,0.8-1.4,1.5-2.5,2
	C-247.2-91.1-248.5-90.8-250.1-90.8z M-234.4-105.1c2,0,3.6,0.5,4.7,1.5s1.6,2.4,1.6,4.4v8.2h-3.1v-1.7c-0.4,0.6-1,1.1-1.7,1.4
	s-1.6,0.5-2.7,0.5c-1,0-2-0.2-2.7-0.5c-0.8-0.4-1.4-0.9-1.8-1.5s-0.6-1.4-0.6-2.2c0-1.2,0.5-2.2,1.4-3s2.4-1.1,4.4-1.1h3.6v-0.2
	c0-1-0.3-1.7-0.9-2.2s-1.4-0.8-2.6-0.8c-0.8,0-1.6,0.1-2.3,0.4c-0.7,0.2-1.4,0.6-1.9,1l-1.3-2.4c0.7-0.6,1.6-1,2.6-1.3
	C-236.6-105-235.5-105.1-234.4-105.1z M-234.8-93.3c0.8,0,1.5-0.2,2.2-0.5c0.6-0.4,1.1-0.9,1.4-1.6V-97h-3.4c-1.9,0-2.8,0.6-2.8,1.8
	c0,0.6,0.2,1.1,0.7,1.4S-235.7-93.3-234.8-93.3z M-220.8-103c0.9-1.5,2.6-2.2,4.9-2.2v3.1c-0.3-0.1-0.5-0.1-0.8-0.1
	c-1.3,0-2.3,0.4-3,1.1s-1.1,1.8-1.1,3.2v6.7h-3.3V-105h3.1v2H-220.8z M-207.8-105.1c2,0,3.6,0.5,4.7,1.5s1.6,2.4,1.6,4.4v8.2h-3.1
	v-1.7c-0.4,0.6-1,1.1-1.7,1.4s-1.6,0.5-2.7,0.5c-1,0-2-0.2-2.7-0.5c-0.8-0.4-1.4-0.9-1.8-1.5s-0.6-1.4-0.6-2.2c0-1.2,0.5-2.2,1.4-3
	s2.4-1.1,4.4-1.1h3.6v-0.2c0-1-0.3-1.7-0.9-2.2s-1.4-0.8-2.6-0.8c-0.8,0-1.6,0.1-2.3,0.4c-0.7,0.2-1.4,0.6-1.9,1l-1.3-2.4
	c0.7-0.6,1.6-1,2.6-1.3C-210.1-105-209-105.1-207.8-105.1z M-208.3-93.3c0.8,0,1.5-0.2,2.2-0.5c0.6-0.4,1.1-0.9,1.4-1.6V-97h-3.4
	c-1.9,0-2.8,0.6-2.8,1.8c0,0.6,0.2,1.1,0.7,1.4S-209.1-93.3-208.3-93.3z M-184.2-90.8c-1.4,0-2.8-0.2-4.1-0.6
	c-1.3-0.4-2.3-0.9-3.1-1.6l1.2-2.6c0.7,0.6,1.7,1.1,2.7,1.5c1.1,0.4,2.2,0.5,3.3,0.5c1.4,0,2.4-0.2,3-0.7c0.7-0.4,1-1,1-1.7
	c0-0.5-0.2-0.9-0.6-1.3c-0.4-0.3-0.8-0.6-1.4-0.8c-0.6-0.2-1.4-0.4-2.3-0.7c-1.4-0.3-2.5-0.7-3.4-1s-1.6-0.8-2.2-1.5
	s-0.9-1.7-0.9-2.9c0-1,0.3-1.9,0.8-2.7c0.6-0.8,1.4-1.5,2.5-2s2.5-0.7,4.1-0.7c1.1,0,2.2,0.1,3.3,0.4c1.1,0.3,2,0.7,2.8,1.2
	l-1.1,2.6c-0.8-0.5-1.6-0.8-2.5-1.1c-0.9-0.2-1.7-0.4-2.5-0.4c-1.3,0-2.3,0.2-3,0.7c-0.6,0.5-1,1.1-1,1.8c0,0.5,0.2,0.9,0.5,1.3
	c0.4,0.3,0.9,0.6,1.4,0.8c0.6,0.2,1.4,0.4,2.3,0.7c1.4,0.3,2.5,0.6,3.3,1c0.9,0.3,1.6,0.8,2.2,1.5s0.9,1.6,0.9,2.8
	c0,1-0.3,1.9-0.8,2.7c-0.5,0.8-1.4,1.5-2.5,2C-181.2-91.1-182.6-90.8-184.2-90.8z M-161-105l-6,13.9h-3.4l-6-13.9h3.4l4.3,10.3
	l4.5-10.3H-161z M-146.3-98c0,0.2,0,0.5-0.1,1h-10.8c0.2,1,0.7,1.8,1.5,2.4s1.8,0.9,3,0.9c1.5,0,2.8-0.5,3.8-1.5l1.7,2
	c-0.6,0.7-1.4,1.3-2.4,1.7c-1,0.4-2,0.6-3.2,0.6c-1.5,0-2.9-0.3-4-0.9c-1.2-0.6-2.1-1.4-2.7-2.5s-0.9-2.3-0.9-3.7
	c0-1.4,0.3-2.6,0.9-3.6c0.6-1.1,1.5-1.9,2.6-2.6c1.1-0.6,2.3-0.9,3.7-0.9c1.4,0,2.6,0.3,3.6,0.9c1.1,0.6,1.9,1.4,2.5,2.5
	C-146.6-100.6-146.3-99.4-146.3-98z M-153.3-102.5c-1,0-1.9,0.3-2.7,0.9c-0.7,0.6-1.1,1.4-1.3,2.4h7.9c-0.1-1-0.6-1.8-1.3-2.4
	S-152.2-102.5-153.3-102.5z M-135.2-105.1c1.8,0,3.2,0.5,4.2,1.5c1.1,1,1.6,2.5,1.6,4.6v8h-3.3v-7.6c0-1.2-0.3-2.1-0.9-2.7
	s-1.4-0.9-2.4-0.9c-1.2,0-2.1,0.4-2.8,1.1c-0.7,0.7-1,1.7-1,3.1v7h-3.3v-14h3.1v1.8c0.5-0.6,1.2-1.1,2-1.5
	C-137.2-105-136.3-105.1-135.2-105.1z M-121-90.9c-1.1,0-2.2-0.1-3.3-0.4s-1.9-0.7-2.6-1.1l1.2-2.5c0.6,0.4,1.4,0.8,2.2,1
	c0.9,0.2,1.8,0.4,2.6,0.4c1.9,0,2.9-0.5,2.9-1.5c0-0.5-0.3-0.8-0.8-1s-1.3-0.4-2.4-0.5c-1.1-0.2-2.1-0.4-2.8-0.6s-1.3-0.6-1.9-1.2
	c-0.5-0.6-0.8-1.4-0.8-2.4c0-1.3,0.5-2.4,1.6-3.2c1.1-0.8,2.6-1.2,4.5-1.2c1,0,1.9,0.1,2.9,0.3c1,0.2,1.7,0.5,2.3,0.9l-1.2,2.5
	c-1.2-0.7-2.5-1-4-1c-1,0-1.7,0.1-2.2,0.4s-0.7,0.7-0.7,1.1c0,0.5,0.3,0.9,0.8,1.1s1.4,0.4,2.5,0.6s2,0.4,2.7,0.6s1.3,0.6,1.8,1.1
	s0.8,1.3,0.8,2.3c0,1.3-0.6,2.3-1.7,3.1C-117.5-91.3-119.1-90.9-121-90.9z M-107.6-90.9c-1.1,0-2.2-0.1-3.3-0.4s-1.9-0.7-2.6-1.1
	l1.2-2.5c0.6,0.4,1.4,0.8,2.2,1c0.9,0.2,1.8,0.4,2.6,0.4c1.9,0,2.9-0.5,2.9-1.5c0-0.5-0.3-0.8-0.8-1s-1.3-0.4-2.4-0.5
	c-1.1-0.2-2.1-0.4-2.8-0.6s-1.3-0.6-1.9-1.2c-0.5-0.6-0.8-1.4-0.8-2.4c0-1.3,0.5-2.4,1.6-3.2c1.1-0.8,2.6-1.2,4.5-1.2
	c1,0,1.9,0.1,2.9,0.3c1,0.2,1.7,0.5,2.3,0.9l-1.2,2.5c-1.2-0.7-2.5-1-4-1c-1,0-1.7,0.1-2.2,0.4s-0.7,0.7-0.7,1.1
	c0,0.5,0.3,0.9,0.8,1.1s1.4,0.4,2.5,0.6s2,0.4,2.7,0.6s1.3,0.6,1.8,1.1s0.8,1.3,0.8,2.3c0,1.3-0.6,2.3-1.7,3.1
	C-104.1-91.3-105.7-90.9-107.6-90.9z M-92.3-90.9c-1.4,0-2.7-0.3-3.8-0.9s-2-1.4-2.7-2.5c-0.6-1.1-0.9-2.3-0.9-3.7
	c0-1.4,0.3-2.6,0.9-3.7c0.6-1.1,1.5-1.9,2.7-2.5c1.1-0.6,2.4-0.9,3.8-0.9c1.4,0,2.7,0.3,3.8,0.9s2,1.4,2.6,2.5s1,2.3,1,3.7
	c0,1.4-0.3,2.6-1,3.7c-0.6,1.1-1.5,1.9-2.6,2.5C-89.6-91.2-90.8-90.9-92.3-90.9z M-92.3-93.7c1.2,0,2.2-0.4,3-1.2s1.2-1.8,1.2-3.2
	s-0.4-2.4-1.2-3.2s-1.8-1.2-3-1.2s-2.2,0.4-3,1.2c-0.8,0.8-1.1,1.8-1.1,3.2s0.4,2.4,1.1,3.2C-94.5-94.1-93.5-93.7-92.3-93.7z
	 M-73.8-105.1c1.8,0,3.2,0.5,4.2,1.5c1.1,1,1.6,2.5,1.6,4.6v8h-3.3v-7.6c0-1.2-0.3-2.1-0.9-2.7c-0.6-0.6-1.4-0.9-2.4-0.9
	c-1.2,0-2.1,0.4-2.8,1.1s-1,1.7-1,3.1v7h-3.3v-14h3.1v1.8c0.5-0.6,1.2-1.1,2-1.5C-75.8-105-74.9-105.1-73.8-105.1z M-55.1-96.2
	c-0.6,0-1.1-0.2-1.5-0.6s-0.6-0.9-0.6-1.6c0-0.6,0.2-1.1,0.6-1.5c0.4-0.4,0.9-0.6,1.5-0.6s1.1,0.2,1.5,0.6S-53-99-53-98.3
	s-0.2,1.2-0.6,1.6C-54-96.4-54.5-96.2-55.1-96.2z M-38.4-106.5v5.5h8.8v2.9h-8.8v7h-3.4v-18.2h13.3v2.8H-38.4z M-12.5-105v13.9h-3.1
	v-1.8c-0.5,0.6-1.2,1.1-2,1.5c-0.8,0.3-1.6,0.5-2.5,0.5c-1.9,0-3.3-0.5-4.4-1.5c-1.1-1-1.6-2.6-1.6-4.6v-7.9h3.3v7.5
	c0,1.2,0.3,2.2,0.8,2.8c0.6,0.6,1.4,0.9,2.4,0.9c1.2,0,2.1-0.4,2.8-1.1s1-1.8,1-3.1v-7h3.3V-105z M-8.2-110.4h3.3v19.3h-3.3V-110.4z
	 M-0.7-110.4h3.3v19.3h-3.3V-110.4z M11.2-90.9c-1.1,0-2.2-0.1-3.3-0.4C6.8-91.6,6-92,5.3-92.4l1.2-2.5c0.6,0.4,1.4,0.8,2.2,1
	c0.9,0.2,1.8,0.4,2.6,0.4c1.9,0,2.9-0.5,2.9-1.5c0-0.5-0.3-0.8-0.8-1s-1.3-0.4-2.4-0.5c-1.1-0.2-2.1-0.4-2.8-0.6
	c-0.7-0.2-1.3-0.6-1.9-1.2c-0.5-0.6-0.8-1.4-0.8-2.4c0-1.3,0.5-2.4,1.6-3.2c1.1-0.8,2.6-1.2,4.5-1.2c1,0,1.9,0.1,2.9,0.3
	c1,0.2,1.7,0.5,2.3,0.9l-1.2,2.5c-1.2-0.7-2.5-1-4-1c-1,0-1.7,0.1-2.2,0.4s-0.7,0.7-0.7,1.1c0,0.5,0.3,0.9,0.8,1.1s1.4,0.4,2.5,0.6
	s2,0.4,2.7,0.6s1.3,0.6,1.8,1.1s0.8,1.3,0.8,2.3c0,1.3-0.6,2.3-1.7,3.1C14.6-91.3,13.1-90.9,11.2-90.9z M28.6-91.8
	c-0.4,0.3-0.9,0.5-1.4,0.7s-1.1,0.2-1.7,0.2c-1.5,0-2.7-0.4-3.5-1.2s-1.2-2-1.2-3.5v-6.7h-2.3v-2.6h2.3v-3.2h3.3v3.2h3.7v2.6h-3.7
	v6.6c0,0.7,0.2,1.2,0.5,1.6c0.3,0.3,0.8,0.5,1.4,0.5c0.7,0,1.3-0.2,1.8-0.6L28.6-91.8z M36.6-105.1c2,0,3.6,0.5,4.7,1.5
	s1.6,2.4,1.6,4.4v8.2h-3.1v-1.7c-0.4,0.6-1,1.1-1.7,1.4s-1.6,0.5-2.7,0.5c-1,0-2-0.2-2.7-0.5c-0.8-0.4-1.4-0.9-1.8-1.5
	s-0.6-1.4-0.6-2.2c0-1.2,0.5-2.2,1.4-3c0.9-0.8,2.4-1.1,4.4-1.1h3.6v-0.2c0-1-0.3-1.7-0.9-2.2s-1.4-0.8-2.6-0.8
	c-0.8,0-1.6,0.1-2.3,0.4c-0.7,0.2-1.4,0.6-1.9,1l-1.3-2.4c0.7-0.6,1.6-1,2.6-1.3C34.4-105,35.5-105.1,36.6-105.1z M36.2-93.3
	c0.8,0,1.5-0.2,2.2-0.5c0.6-0.4,1.1-0.9,1.4-1.6V-97h-3.4c-1.9,0-2.8,0.6-2.8,1.8c0,0.6,0.2,1.1,0.7,1.4
	C34.7-93.4,35.3-93.3,36.2-93.3z M53.6-90.9c-1.4,0-2.7-0.3-3.9-0.9c-1.1-0.6-2-1.4-2.7-2.5c-0.6-1.1-1-2.3-1-3.7
	c0-1.4,0.3-2.6,1-3.7c0.6-1.1,1.5-1.9,2.7-2.5c1.1-0.6,2.4-0.9,3.9-0.9c1.4,0,2.6,0.3,3.6,0.8c1,0.6,1.8,1.4,2.3,2.4l-2.5,1.5
	c-0.4-0.6-0.9-1.1-1.5-1.4s-1.2-0.5-2-0.5c-1.2,0-2.2,0.4-3,1.2c-0.8,0.8-1.2,1.8-1.2,3.2c0,1.3,0.4,2.4,1.2,3.2
	c0.8,0.8,1.8,1.2,3,1.2c0.7,0,1.4-0.2,2-0.5s1.1-0.8,1.5-1.5l2.5,1.5c-0.5,1-1.3,1.8-2.4,2.4C56.2-91.2,55-90.9,53.6-90.9z M67.9-97
	l-2.4,2.3v3.7h-3.3v-19.3h3.3v11.7l6.7-6.2h3.9L70.3-99l6.4,8.1h-4L67.9-97z M86.3-109.3h8c1.9,0,3.7,0.4,5.2,1.1s2.7,1.8,3.5,3.2
	c0.8,1.4,1.2,3,1.2,4.8s-0.4,3.4-1.2,4.8c-0.8,1.4-2,2.4-3.5,3.2c-1.5,0.7-3.2,1.1-5.2,1.1h-8V-109.3z M94.1-93.9
	c1.3,0,2.5-0.3,3.5-0.8s1.8-1.2,2.3-2.2c0.6-1,0.8-2.1,0.8-3.3s-0.3-2.3-0.8-3.3s-1.3-1.7-2.3-2.2s-2.2-0.8-3.5-0.8h-4.4V-94
	L94.1-93.9L94.1-93.9z M120.6-98c0,0.2,0,0.5-0.1,1h-10.9c0.2,1,0.7,1.8,1.5,2.4c0.8,0.6,1.8,0.9,3,0.9c1.5,0,2.8-0.5,3.8-1.5l1.7,2
	c-0.6,0.7-1.4,1.3-2.4,1.7c-1,0.4-2,0.6-3.2,0.6c-1.5,0-2.9-0.3-4-0.9c-1.2-0.6-2.1-1.4-2.7-2.5s-0.9-2.3-0.9-3.7
	c0-1.4,0.3-2.6,0.9-3.6c0.6-1.1,1.5-1.9,2.6-2.6c1.1-0.6,2.3-0.9,3.7-0.9s2.6,0.3,3.6,0.9c1.1,0.6,1.9,1.4,2.5,2.5
	S120.6-99.4,120.6-98z M113.5-102.5c-1,0-1.9,0.3-2.7,0.9c-0.7,0.6-1.1,1.4-1.3,2.4h7.9c-0.1-1-0.6-1.8-1.3-2.4
	C115.5-102.2,114.6-102.5,113.5-102.5z M136.5-105l-6,13.9h-3.4l-6-13.9h3.4l4.3,10.3l4.5-10.3H136.5z M151.2-98c0,0.2,0,0.5-0.1,1
	h-10.9c0.2,1,0.7,1.8,1.5,2.4c0.8,0.6,1.8,0.9,3,0.9c1.5,0,2.8-0.5,3.8-1.5l1.7,2c-0.6,0.7-1.4,1.3-2.4,1.7c-1,0.4-2,0.6-3.2,0.6
	c-1.5,0-2.9-0.3-4-0.9c-1.2-0.6-2.1-1.4-2.7-2.5c-0.6-1.1-0.9-2.3-0.9-3.7s0.3-2.6,0.9-3.6c0.6-1.1,1.5-1.9,2.6-2.6
	c1.1-0.6,2.3-0.9,3.7-0.9c1.4,0,2.6,0.3,3.6,0.9c1.1,0.6,1.9,1.4,2.5,2.5S151.2-99.4,151.2-98z M144.2-102.5c-1,0-1.9,0.3-2.7,0.9
	c-0.7,0.6-1.1,1.4-1.3,2.4h7.9c-0.1-1-0.6-1.8-1.3-2.4S145.2-102.5,144.2-102.5z M154.3-110.4h3.3v19.3h-3.3V-110.4z M168.1-90.9
	c-1.4,0-2.7-0.3-3.8-0.9c-1.1-0.6-2-1.4-2.7-2.5c-0.6-1.1-0.9-2.3-0.9-3.7c0-1.4,0.3-2.6,0.9-3.7c0.6-1.1,1.5-1.9,2.7-2.5
	c1.1-0.6,2.4-0.9,3.8-0.9s2.7,0.3,3.8,0.9c1.1,0.6,2,1.4,2.6,2.5c0.6,1.1,1,2.3,1,3.7c0,1.4-0.3,2.6-1,3.7c-0.6,1.1-1.5,1.9-2.6,2.5
	C170.8-91.2,169.5-90.9,168.1-90.9z M168.1-93.7c1.2,0,2.2-0.4,3-1.2c0.8-0.8,1.2-1.8,1.2-3.2s-0.4-2.4-1.2-3.2
	c-0.8-0.8-1.8-1.2-3-1.2s-2.2,0.4-3,1.2c-0.8,0.8-1.1,1.8-1.1,3.2s0.4,2.4,1.1,3.2C165.9-94.1,166.9-93.7,168.1-93.7z M186.3-105.1
	c1.4,0,2.6,0.3,3.6,0.9c1.1,0.6,1.9,1.4,2.5,2.5c0.6,1.1,0.9,2.3,0.9,3.7c0,1.4-0.3,2.7-0.9,3.7c-0.6,1.1-1.4,1.9-2.5,2.5
	c-1.1,0.6-2.3,0.9-3.6,0.9c-1.9,0-3.4-0.6-4.5-1.9v6.7h-3.3v-19h3.1v1.8c0.5-0.7,1.2-1.2,2-1.5C184.5-105,185.4-105.1,186.3-105.1z
	 M186-93.7c1.2,0,2.2-0.4,2.9-1.2c0.8-0.8,1.2-1.8,1.2-3.2s-0.4-2.4-1.2-3.2c-0.8-0.8-1.7-1.2-2.9-1.2c-0.8,0-1.5,0.2-2.1,0.5
	c-0.6,0.3-1.1,0.9-1.5,1.5c-0.4,0.8-0.6,1.6-0.6,2.5s0.2,1.6,0.5,2.3c0.4,0.7,0.9,1.2,1.5,1.5C184.5-93.9,185.2-93.7,186-93.7z
	 M209.5-98c0,0.2,0,0.5-0.1,1h-10.8c0.2,1,0.7,1.8,1.5,2.4s1.8,0.9,3,0.9c1.5,0,2.8-0.5,3.8-1.5l1.7,2c-0.6,0.7-1.4,1.3-2.4,1.7
	c-1,0.4-2,0.6-3.2,0.6c-1.5,0-2.9-0.3-4-0.9c-1.2-0.6-2.1-1.4-2.7-2.5c-0.6-1.1-0.9-2.3-0.9-3.7c0-1.4,0.3-2.6,0.9-3.6
	c0.6-1.1,1.5-1.9,2.6-2.6c1.1-0.6,2.3-0.9,3.7-0.9c1.4,0,2.6,0.3,3.6,0.9c1.1,0.6,1.9,1.4,2.5,2.5C209.2-100.6,209.5-99.4,209.5-98z
	 M202.5-102.5c-1,0-1.9,0.3-2.7,0.9c-0.7,0.6-1.1,1.4-1.3,2.4h7.9c-0.1-1-0.6-1.8-1.3-2.4C204.5-102.2,203.6-102.5,202.5-102.5z
	 M215.8-103c0.9-1.5,2.6-2.2,4.9-2.2v3.1c-0.3-0.1-0.5-0.1-0.8-0.1c-1.3,0-2.3,0.4-3,1.1s-1.1,1.8-1.1,3.2v6.7h-3.3V-105h3.3V-103z
	 M232.4-96.2c-0.6,0-1.1-0.2-1.5-0.6c-0.4-0.4-0.6-0.9-0.6-1.6c0-0.6,0.2-1.1,0.6-1.5c0.4-0.4,0.9-0.6,1.5-0.6
	c0.6,0,1.1,0.2,1.5,0.6c0.4,0.4,0.6,0.9,0.6,1.6s-0.2,1.2-0.6,1.6C233.5-96.4,233-96.2,232.4-96.2z M251.4-90.8
	c-1.4,0-2.8-0.2-4.1-0.6s-2.3-0.9-3.1-1.6l1.2-2.6c0.7,0.6,1.7,1.1,2.7,1.5c1.1,0.4,2.2,0.5,3.3,0.5c1.4,0,2.4-0.2,3-0.7
	c0.7-0.4,1-1,1-1.7c0-0.5-0.2-0.9-0.6-1.3c-0.4-0.3-0.8-0.6-1.4-0.8c-0.6-0.2-1.4-0.4-2.3-0.7c-1.4-0.3-2.5-0.7-3.4-1
	c-0.9-0.3-1.6-0.8-2.2-1.5c-0.6-0.7-0.9-1.7-0.9-2.9c0-1,0.3-1.9,0.8-2.7c0.6-0.8,1.4-1.5,2.5-2c1.1-0.5,2.5-0.7,4.1-0.7
	c1.1,0,2.2,0.1,3.3,0.4s2,0.7,2.8,1.2l-1.1,2.6c-0.8-0.5-1.6-0.8-2.5-1.1c-0.9-0.2-1.7-0.4-2.5-0.4c-1.3,0-2.3,0.2-3,0.7
	c-0.6,0.5-1,1.1-1,1.8c0,0.5,0.2,0.9,0.5,1.3c0.4,0.3,0.9,0.6,1.4,0.8c0.6,0.2,1.4,0.4,2.3,0.7c1.4,0.3,2.5,0.6,3.3,1
	c0.9,0.3,1.6,0.8,2.2,1.5s0.9,1.6,0.9,2.8c0,1-0.3,1.9-0.8,2.7c-0.5,0.8-1.4,1.5-2.5,2C254.3-91.1,253-90.8,251.4-90.8z
	 M267.1-105.1c2,0,3.6,0.5,4.7,1.5c1.1,1,1.6,2.4,1.6,4.4v8.2h-3.1v-1.7c-0.4,0.6-1,1.1-1.7,1.4c-0.7,0.3-1.6,0.5-2.7,0.5
	c-1,0-2-0.2-2.7-0.5c-0.8-0.4-1.4-0.9-1.8-1.5c-0.4-0.6-0.6-1.4-0.6-2.2c0-1.2,0.5-2.2,1.4-3s2.4-1.1,4.4-1.1h3.6v-0.2
	c0-1-0.3-1.7-0.9-2.2s-1.4-0.8-2.6-0.8c-0.8,0-1.6,0.1-2.3,0.4c-0.7,0.2-1.4,0.6-1.9,1l-1.3-2.4c0.7-0.6,1.6-1,2.6-1.3
	C264.9-105,265.9-105.1,267.1-105.1z M266.6-93.3c0.8,0,1.5-0.2,2.2-0.5c0.6-0.4,1.1-0.9,1.4-1.6V-97h-3.4c-1.9,0-2.8,0.6-2.8,1.8
	c0,0.6,0.2,1.1,0.7,1.4C265.2-93.4,265.8-93.3,266.6-93.3z M280.7-103c0.9-1.5,2.6-2.2,4.9-2.2v3.1c-0.3-0.1-0.5-0.1-0.8-0.1
	c-1.3,0-2.3,0.4-3,1.1c-0.7,0.7-1.1,1.8-1.1,3.2v6.7h-3.3V-105h3.1v2H280.7z M293.6-105.1c2,0,3.6,0.5,4.7,1.5
	c1.1,1,1.6,2.4,1.6,4.4v8.2h-3.1v-1.7c-0.4,0.6-1,1.1-1.7,1.4c-0.7,0.3-1.6,0.5-2.7,0.5c-1,0-2-0.2-2.7-0.5
	c-0.8-0.4-1.4-0.9-1.8-1.5c-0.4-0.6-0.6-1.4-0.6-2.2c0-1.2,0.5-2.2,1.4-3s2.4-1.1,4.4-1.1h3.6v-0.2c0-1-0.3-1.7-0.9-2.2
	s-1.4-0.8-2.6-0.8c-0.8,0-1.6,0.1-2.3,0.4c-0.7,0.2-1.4,0.6-1.9,1l-1.3-2.4c0.7-0.6,1.6-1,2.6-1.3
	C291.4-105,292.5-105.1,293.6-105.1z M293.2-93.3c0.8,0,1.5-0.2,2.2-0.5c0.6-0.4,1.1-0.9,1.4-1.6V-97h-3.4c-1.9,0-2.8,0.6-2.8,1.8
	c0,0.6,0.2,1.1,0.7,1.4C291.7-93.4,292.4-93.3,293.2-93.3z M317.3-90.8c-1.4,0-2.8-0.2-4.1-0.6c-1.3-0.4-2.3-0.9-3.1-1.6l1.2-2.6
	c0.7,0.6,1.7,1.1,2.7,1.5c1.1,0.4,2.2,0.5,3.3,0.5c1.4,0,2.4-0.2,3-0.7c0.7-0.4,1-1,1-1.7c0-0.5-0.2-0.9-0.6-1.3
	c-0.4-0.3-0.8-0.6-1.4-0.8c-0.6-0.2-1.4-0.4-2.3-0.7c-1.4-0.3-2.5-0.7-3.4-1s-1.6-0.8-2.2-1.5c-0.6-0.7-0.9-1.7-0.9-2.9
	c0-1,0.3-1.9,0.8-2.7c0.6-0.8,1.4-1.5,2.5-2s2.5-0.7,4.1-0.7c1.1,0,2.2,0.1,3.3,0.4s2,0.7,2.8,1.2l-1.1,2.6
	c-0.8-0.5-1.6-0.8-2.5-1.1c-0.9-0.2-1.7-0.4-2.5-0.4c-1.3,0-2.3,0.2-3,0.7c-0.6,0.5-1,1.1-1,1.8c0,0.5,0.2,0.9,0.5,1.3
	c0.4,0.3,0.9,0.6,1.4,0.8c0.6,0.2,1.4,0.4,2.3,0.7c1.4,0.3,2.5,0.6,3.3,1c0.9,0.3,1.6,0.8,2.2,1.5s0.9,1.6,0.9,2.8
	c0,1-0.3,1.9-0.8,2.7c-0.5,0.8-1.4,1.5-2.5,2C320.2-91.1,318.9-90.8,317.3-90.8z M340.5-105l-6,13.9h-3.4l-6-13.9h3.4l4.3,10.3
	l4.5-10.3H340.5z M355.2-98c0,0.2,0,0.5-0.1,1h-10.9c0.2,1,0.7,1.8,1.5,2.4c0.8,0.6,1.8,0.9,3,0.9c1.5,0,2.8-0.5,3.8-1.5l1.7,2
	c-0.6,0.7-1.4,1.3-2.4,1.7c-1,0.4-2,0.6-3.2,0.6c-1.5,0-2.9-0.3-4-0.9c-1.2-0.6-2.1-1.4-2.7-2.5S341-96.6,341-98
	c0-1.4,0.3-2.6,0.9-3.6c0.6-1.1,1.5-1.9,2.6-2.6c1.1-0.6,2.3-0.9,3.7-0.9s2.6,0.3,3.6,0.9c1.1,0.6,1.9,1.4,2.5,2.5
	C354.9-100.6,355.2-99.4,355.2-98z M348.2-102.5c-1,0-1.9,0.3-2.7,0.9c-0.7,0.6-1.1,1.4-1.3,2.4h7.9c-0.1-1-0.6-1.8-1.3-2.4
	S349.2-102.5,348.2-102.5z M366.2-105.1c1.8,0,3.2,0.5,4.2,1.5c1.1,1,1.6,2.5,1.6,4.6v8h-3.2v-7.6c0-1.2-0.3-2.1-0.9-2.7
	s-1.4-0.9-2.4-0.9c-1.2,0-2.1,0.4-2.8,1.1c-0.7,0.7-1,1.7-1,3.1v7h-3.3v-14h3.1v1.8c0.5-0.6,1.2-1.1,2-1.5
	C364.3-105,365.2-105.1,366.2-105.1z M380.4-90.9c-1.1,0-2.2-0.1-3.3-0.4s-1.9-0.7-2.6-1.1l1.2-2.5c0.6,0.4,1.4,0.8,2.2,1
	c0.9,0.2,1.8,0.4,2.6,0.4c1.9,0,2.9-0.5,2.9-1.5c0-0.5-0.3-0.8-0.8-1s-1.3-0.4-2.4-0.5c-1.1-0.2-2.1-0.4-2.8-0.6
	c-0.7-0.2-1.3-0.6-1.9-1.2c-0.5-0.6-0.8-1.4-0.8-2.4c0-1.3,0.5-2.4,1.6-3.2c1.1-0.8,2.6-1.2,4.5-1.2c1,0,1.9,0.1,2.9,0.3
	c1,0.2,1.7,0.5,2.3,0.9l-1.2,2.5c-1.2-0.7-2.5-1-4-1c-1,0-1.7,0.1-2.2,0.4s-0.7,0.7-0.7,1.1c0,0.5,0.3,0.9,0.8,1.1s1.4,0.4,2.5,0.6
	s2,0.4,2.7,0.6c0.7,0.2,1.3,0.6,1.8,1.1s0.8,1.3,0.8,2.3c0,1.3-0.6,2.3-1.7,3.1C383.9-91.3,382.4-90.9,380.4-90.9z M393.8-90.9
	c-1.1,0-2.2-0.1-3.3-0.4c-1.1-0.3-1.9-0.7-2.6-1.1l1.2-2.5c0.6,0.4,1.4,0.8,2.2,1c0.9,0.2,1.8,0.4,2.6,0.4c1.9,0,2.9-0.5,2.9-1.5
	c0-0.5-0.3-0.8-0.8-1s-1.3-0.4-2.4-0.5c-1.1-0.2-2.1-0.4-2.8-0.6c-0.7-0.2-1.3-0.6-1.9-1.2c-0.5-0.6-0.8-1.4-0.8-2.4
	c0-1.3,0.5-2.4,1.6-3.2c1.1-0.8,2.6-1.2,4.5-1.2c1,0,1.9,0.1,2.9,0.3c1,0.2,1.7,0.5,2.3,0.9l-1.2,2.5c-1.2-0.7-2.5-1-4-1
	c-1,0-1.7,0.1-2.2,0.4s-0.7,0.7-0.7,1.1c0,0.5,0.3,0.9,0.8,1.1s1.4,0.4,2.5,0.6s2,0.4,2.7,0.6s1.3,0.6,1.8,1.1s0.8,1.3,0.8,2.3
	c0,1.3-0.6,2.3-1.7,3.1C397.3-91.3,395.8-90.9,393.8-90.9z M409.2-90.9c-1.4,0-2.7-0.3-3.8-0.9c-1.1-0.6-2-1.4-2.7-2.5
	c-0.6-1.1-0.9-2.3-0.9-3.7c0-1.4,0.3-2.6,0.9-3.7s1.5-1.9,2.7-2.5c1.1-0.6,2.4-0.9,3.8-0.9s2.7,0.3,3.8,0.9c1.1,0.6,2,1.4,2.6,2.5
	s1,2.3,1,3.7c0,1.4-0.3,2.6-1,3.7c-0.6,1.1-1.5,1.9-2.6,2.5C411.9-91.2,410.6-90.9,409.2-90.9z M409.2-93.7c1.2,0,2.2-0.4,3-1.2
	s1.2-1.8,1.2-3.2s-0.4-2.4-1.2-3.2s-1.8-1.2-3-1.2s-2.2,0.4-3,1.2c-0.8,0.8-1.1,1.8-1.1,3.2s0.4,2.4,1.1,3.2
	C407-94.1,408-93.7,409.2-93.7z M427.6-105.1c1.8,0,3.2,0.5,4.2,1.5c1.1,1,1.6,2.5,1.6,4.6v8h-3.3v-7.6c0-1.2-0.3-2.1-0.9-2.7
	s-1.4-0.9-2.4-0.9c-1.2,0-2.1,0.4-2.8,1.1c-0.7,0.7-1,1.7-1,3.1v7h-3.3v-14h3.1v1.8c0.5-0.6,1.2-1.1,2-1.5
	C425.7-105,426.6-105.1,427.6-105.1z M446.3-96.2c-0.6,0-1.1-0.2-1.5-0.6s-0.6-0.9-0.6-1.6c0-0.6,0.2-1.1,0.6-1.5s0.9-0.6,1.5-0.6
	s1.1,0.2,1.5,0.6s0.6,0.9,0.6,1.6s-0.2,1.2-0.6,1.6C447.5-96.4,446.9-96.2,446.3-96.2z M463-106.5v5.5h8.8v2.9H463v7h-3.4v-18.2
	h13.3v2.8H463z M489-105v13.9h-3.1v-1.8c-0.5,0.6-1.2,1.1-2,1.5c-0.8,0.3-1.6,0.5-2.5,0.5c-1.9,0-3.3-0.5-4.4-1.5s-1.6-2.6-1.6-4.6
	v-7.9h3.3v7.5c0,1.2,0.3,2.2,0.8,2.8c0.6,0.6,1.4,0.9,2.4,0.9c1.2,0,2.1-0.4,2.8-1.1c0.7-0.7,1-1.8,1-3.1v-7h3.3L489-105L489-105z
	 M493.3-110.4h3.3v19.3h-3.3V-110.4z M500.8-110.4h3.3v19.3h-3.3V-110.4z M512.6-90.9c-1.1,0-2.2-0.1-3.3-0.4
	c-1.1-0.3-1.9-0.7-2.6-1.1l1.2-2.5c0.6,0.4,1.4,0.8,2.2,1c0.9,0.2,1.8,0.4,2.6,0.4c1.9,0,2.9-0.5,2.9-1.5c0-0.5-0.3-0.8-0.8-1
	s-1.3-0.4-2.4-0.5c-1.1-0.2-2.1-0.4-2.8-0.6c-0.7-0.2-1.3-0.6-1.9-1.2c-0.5-0.6-0.8-1.4-0.8-2.4c0-1.3,0.5-2.4,1.6-3.2
	c1.1-0.8,2.6-1.2,4.5-1.2c1,0,1.9,0.1,2.9,0.3c1,0.2,1.7,0.5,2.3,0.9l-1.2,2.5c-1.2-0.7-2.5-1-4-1c-1,0-1.7,0.1-2.2,0.4
	s-0.7,0.7-0.7,1.1c0,0.5,0.3,0.9,0.8,1.1s1.4,0.4,2.5,0.6c1.1,0.2,2,0.4,2.7,0.6s1.3,0.6,1.8,1.1s0.8,1.3,0.8,2.3
	c0,1.3-0.6,2.3-1.7,3.1C516.1-91.3,514.6-90.9,512.6-90.9z M530.1-91.8c-0.4,0.3-0.9,0.5-1.4,0.7s-1.1,0.2-1.7,0.2
	c-1.5,0-2.7-0.4-3.5-1.2c-0.8-0.8-1.2-2-1.2-3.5v-6.7H520v-2.6h2.3v-3.2h3.3v3.2h3.7v2.6h-3.7v6.6c0,0.7,0.2,1.2,0.5,1.6
	c0.3,0.3,0.8,0.5,1.4,0.5c0.7,0,1.3-0.2,1.8-0.6L530.1-91.8z M538.1-105.1c2,0,3.6,0.5,4.7,1.5c1.1,1,1.6,2.4,1.6,4.4v8.2h-3.1v-1.7
	c-0.4,0.6-1,1.1-1.7,1.4s-1.6,0.5-2.7,0.5c-1,0-2-0.2-2.7-0.5c-0.8-0.4-1.4-0.9-1.8-1.5c-0.4-0.6-0.6-1.4-0.6-2.2
	c0-1.2,0.5-2.2,1.4-3c0.9-0.8,2.4-1.1,4.4-1.1h3.6v-0.2c0-1-0.3-1.7-0.9-2.2c-0.6-0.5-1.4-0.8-2.6-0.8c-0.8,0-1.6,0.1-2.3,0.4
	c-0.7,0.2-1.4,0.6-1.9,1l-1.3-2.4c0.7-0.6,1.6-1,2.6-1.3C535.8-105,536.9-105.1,538.1-105.1z M537.6-93.3c0.8,0,1.5-0.2,2.2-0.5
	c0.6-0.4,1.1-0.9,1.4-1.6V-97h-3.4c-1.9,0-2.8,0.6-2.8,1.8c0,0.6,0.2,1.1,0.7,1.4S536.8-93.3,537.6-93.3z M555.1-90.9
	c-1.4,0-2.7-0.3-3.9-0.9c-1.1-0.6-2-1.4-2.7-2.5c-0.6-1.1-1-2.3-1-3.7c0-1.4,0.3-2.6,1-3.7c0.6-1.1,1.5-1.9,2.7-2.5
	c1.1-0.6,2.4-0.9,3.9-0.9c1.4,0,2.6,0.3,3.6,0.8c1,0.6,1.8,1.4,2.3,2.4l-2.5,1.5c-0.4-0.6-0.9-1.1-1.5-1.4c-0.6-0.3-1.2-0.5-2-0.5
	c-1.2,0-2.2,0.4-3,1.2c-0.8,0.8-1.2,1.8-1.2,3.2c0,1.3,0.4,2.4,1.2,3.2c0.8,0.8,1.8,1.2,3,1.2c0.7,0,1.4-0.2,2-0.5
	c0.6-0.3,1.1-0.8,1.5-1.5L561-94c-0.5,1-1.3,1.8-2.4,2.4C557.6-91.2,556.4-90.9,555.1-90.9z M569.4-97l-2.4,2.3v3.7h-3.3v-19.3h3.3
	v11.7l6.7-6.2h3.9l-5.8,5.8l6.4,8.1h-4L569.4-97z M587.8-109.3h8c1.9,0,3.7,0.4,5.2,1.1s2.7,1.8,3.5,3.2c0.8,1.4,1.2,3,1.2,4.8
	s-0.4,3.4-1.2,4.8c-0.8,1.4-2,2.4-3.5,3.2c-1.5,0.7-3.2,1.1-5.2,1.1h-8V-109.3z M595.6-93.9c1.3,0,2.5-0.3,3.5-0.8s1.8-1.2,2.3-2.2
	c0.6-1,0.8-2.1,0.8-3.3s-0.3-2.3-0.8-3.3s-1.3-1.7-2.3-2.2s-2.2-0.8-3.5-0.8h-4.4V-94L595.6-93.9L595.6-93.9z M622-98
	c0,0.2,0,0.5-0.1,1H611c0.2,1,0.7,1.8,1.5,2.4s1.8,0.9,3,0.9c1.5,0,2.8-0.5,3.8-1.5l1.7,2c-0.6,0.7-1.4,1.3-2.4,1.7
	c-1,0.4-2,0.6-3.2,0.6c-1.5,0-2.9-0.3-4-0.9c-1.2-0.6-2.1-1.4-2.7-2.5c-0.6-1.1-0.9-2.3-0.9-3.7s0.3-2.6,0.9-3.6
	c0.6-1.1,1.5-1.9,2.6-2.6c1.1-0.6,2.3-0.9,3.7-0.9s2.6,0.3,3.6,0.9c1.1,0.6,1.9,1.4,2.5,2.5C621.7-100.6,622-99.4,622-98z
	 M615-102.5c-1,0-1.9,0.3-2.7,0.9c-0.7,0.6-1.1,1.4-1.3,2.4h7.9c-0.1-1-0.6-1.8-1.3-2.4C617-102.2,616.1-102.5,615-102.5z
	 M637.9-105l-6,13.9h-3.4l-6-13.9h3.4l4.3,10.3l4.6-10.3H637.9z M652.7-98c0,0.2,0,0.5-0.1,1h-10.9c0.2,1,0.7,1.8,1.5,2.4
	s1.8,0.9,3,0.9c1.5,0,2.8-0.5,3.8-1.5l1.7,2c-0.6,0.7-1.4,1.3-2.4,1.7c-1,0.4-2,0.6-3.2,0.6c-1.5,0-2.9-0.3-4-0.9
	c-1.2-0.6-2.1-1.4-2.7-2.5c-0.6-1.1-0.9-2.3-0.9-3.7c0-1.4,0.3-2.6,0.9-3.6c0.6-1.1,1.5-1.9,2.6-2.6c1.1-0.6,2.3-0.9,3.7-0.9
	s2.6,0.3,3.6,0.9c1.1,0.6,1.9,1.4,2.5,2.5C652.4-100.6,652.7-99.4,652.7-98z M645.6-102.5c-1,0-1.9,0.3-2.7,0.9
	c-0.7,0.6-1.1,1.4-1.3,2.4h7.9c-0.1-1-0.6-1.8-1.3-2.4C647.6-102.2,646.7-102.5,645.6-102.5z M655.8-110.4h3.3v19.3h-3.3V-110.4z
	 M669.6-90.9c-1.4,0-2.7-0.3-3.8-0.9s-2-1.4-2.7-2.5c-0.6-1.1-0.9-2.3-0.9-3.7c0-1.4,0.3-2.6,0.9-3.7c0.6-1.1,1.5-1.9,2.7-2.5
	c1.1-0.6,2.4-0.9,3.8-0.9c1.4,0,2.7,0.3,3.8,0.9s2,1.4,2.6,2.5s1,2.3,1,3.7c0,1.4-0.3,2.6-1,3.7c-0.6,1.1-1.5,1.9-2.6,2.5
	C672.3-91.2,671-90.9,669.6-90.9z M669.6-93.7c1.2,0,2.2-0.4,3-1.2s1.2-1.8,1.2-3.2s-0.4-2.4-1.2-3.2s-1.8-1.2-3-1.2s-2.2,0.4-3,1.2
	c-0.8,0.8-1.1,1.8-1.1,3.2s0.4,2.4,1.1,3.2C667.4-94.1,668.4-93.7,669.6-93.7z M687.8-105.1c1.4,0,2.6,0.3,3.6,0.9
	c1.1,0.6,1.9,1.4,2.5,2.5s0.9,2.3,0.9,3.7c0,1.4-0.3,2.7-0.9,3.7c-0.6,1.1-1.4,1.9-2.5,2.5s-2.3,0.9-3.6,0.9c-1.9,0-3.4-0.6-4.5-1.9
	v6.7H680v-19h3.1v1.8c0.5-0.7,1.2-1.2,2-1.5C686-105,686.8-105.1,687.8-105.1z M687.4-93.7c1.2,0,2.2-0.4,2.9-1.2
	c0.8-0.8,1.2-1.8,1.2-3.2s-0.4-2.4-1.2-3.2c-0.8-0.8-1.7-1.2-2.9-1.2c-0.8,0-1.5,0.2-2.1,0.5s-1.1,0.9-1.5,1.5
	c-0.4,0.7-0.5,1.4-0.5,2.3s0.2,1.6,0.5,2.3c0.4,0.7,0.9,1.2,1.5,1.5C686-93.9,686.7-93.7,687.4-93.7z M711-98c0,0.2,0,0.5-0.1,1H700
	c0.2,1,0.7,1.8,1.5,2.4s1.8,0.9,3,0.9c1.5,0,2.8-0.5,3.8-1.5l1.7,2c-0.6,0.7-1.4,1.3-2.4,1.7c-1,0.4-2,0.6-3.2,0.6
	c-1.5,0-2.9-0.3-4-0.9c-1.2-0.6-2.1-1.4-2.7-2.5c-0.6-1.1-0.9-2.3-0.9-3.7c0-1.4,0.3-2.6,0.9-3.6c0.6-1.1,1.5-1.9,2.6-2.6
	c1.1-0.6,2.3-0.9,3.7-0.9s2.6,0.3,3.6,0.9c1.1,0.6,1.9,1.4,2.5,2.5C710.7-100.6,711-99.4,711-98z M704-102.5c-1,0-1.9,0.3-2.7,0.9
	c-0.7,0.6-1.1,1.4-1.3,2.4h7.9c-0.1-1-0.6-1.8-1.3-2.4S705-102.5,704-102.5z M717.2-103c0.9-1.5,2.6-2.2,4.9-2.2v3.1
	c-0.3-0.1-0.5-0.1-0.8-0.1c-1.3,0-2.3,0.4-3,1.1s-1.1,1.8-1.1,3.2v6.7h-3.3V-105h3.1v2H717.2z M733.8-96.2c-0.6,0-1.1-0.2-1.5-0.6
	s-0.6-0.9-0.6-1.6c0-0.6,0.2-1.1,0.6-1.5c0.4-0.4,0.9-0.6,1.5-0.6s1.1,0.2,1.5,0.6s0.6,0.9,0.6,1.6s-0.2,1.2-0.6,1.6
	C735-96.4,734.5-96.2,733.8-96.2z M752.8-90.8c-1.4,0-2.8-0.2-4.1-0.6s-2.3-0.9-3.1-1.6l1.2-2.6c0.7,0.6,1.7,1.1,2.7,1.5
	c1.1,0.4,2.2,0.5,3.3,0.5c1.4,0,2.4-0.2,3-0.7c0.7-0.4,1-1,1-1.7c0-0.5-0.2-0.9-0.6-1.3c-0.4-0.3-0.8-0.6-1.4-0.8
	c-0.6-0.2-1.4-0.4-2.3-0.7c-1.4-0.3-2.5-0.7-3.4-1s-1.6-0.8-2.2-1.5c-0.6-0.7-0.9-1.7-0.9-2.9c0-1,0.3-1.9,0.8-2.7
	c0.6-0.8,1.4-1.5,2.5-2s2.5-0.7,4.1-0.7c1.1,0,2.2,0.1,3.3,0.4s2,0.7,2.8,1.2l-1.1,2.6c-0.8-0.5-1.6-0.8-2.5-1.1
	c-0.9-0.2-1.7-0.4-2.5-0.4c-1.3,0-2.3,0.2-3,0.7c-0.6,0.5-1,1.1-1,1.8c0,0.5,0.2,0.9,0.5,1.3c0.4,0.3,0.9,0.6,1.4,0.8
	c0.6,0.2,1.4,0.4,2.3,0.7c1.4,0.3,2.5,0.6,3.3,1c0.9,0.3,1.6,0.8,2.2,1.5c0.6,0.7,0.9,1.6,0.9,2.8c0,1-0.3,1.9-0.8,2.7
	c-0.5,0.8-1.4,1.5-2.5,2C755.8-91.1,754.4-90.8,752.8-90.8z M768.6-105.1c2,0,3.6,0.5,4.7,1.5c1.1,1,1.6,2.4,1.6,4.4v8.2h-3.1v-1.7
	c-0.4,0.6-1,1.1-1.7,1.4s-1.6,0.5-2.7,0.5c-1,0-2-0.2-2.7-0.5c-0.8-0.4-1.4-0.9-1.8-1.5c-0.4-0.6-0.6-1.4-0.6-2.2
	c0-1.2,0.5-2.2,1.4-3s2.4-1.1,4.4-1.1h3.6v-0.2c0-1-0.3-1.7-0.9-2.2c-0.6-0.5-1.4-0.8-2.6-0.8c-0.8,0-1.6,0.1-2.3,0.4
	c-0.7,0.2-1.4,0.6-1.9,1l-1.3-2.4c0.7-0.6,1.6-1,2.6-1.3C766.3-105,767.4-105.1,768.6-105.1z M768.1-93.3c0.8,0,1.5-0.2,2.2-0.5
	c0.6-0.4,1.1-0.9,1.4-1.6V-97h-3.4c-1.9,0-2.8,0.6-2.8,1.8c0,0.6,0.2,1.1,0.7,1.4C766.6-93.4,767.3-93.3,768.1-93.3z M782.2-103
	c0.9-1.5,2.6-2.2,4.9-2.2v3.1c-0.3-0.1-0.5-0.1-0.8-0.1c-1.3,0-2.3,0.4-3,1.1s-1.1,1.8-1.1,3.2v6.7h-3.3V-105h3.1v2H782.2z
	 M795.1-105.1c2,0,3.6,0.5,4.7,1.5c1.1,1,1.6,2.4,1.6,4.4v8.2h-3.1v-1.7c-0.4,0.6-1,1.1-1.7,1.4s-1.6,0.5-2.7,0.5
	c-1,0-2-0.2-2.7-0.5c-0.8-0.4-1.4-0.9-1.8-1.5c-0.4-0.6-0.6-1.4-0.6-2.2c0-1.2,0.5-2.2,1.4-3s2.4-1.1,4.4-1.1h3.6v-0.2
	c0-1-0.3-1.7-0.9-2.2c-0.6-0.5-1.4-0.8-2.6-0.8c-0.8,0-1.6,0.1-2.3,0.4c-0.7,0.2-1.4,0.6-1.9,1l-1.3-2.4c0.7-0.6,1.6-1,2.6-1.3
	C792.9-105,794-105.1,795.1-105.1z M794.7-93.3c0.8,0,1.5-0.2,2.2-0.5c0.6-0.4,1.1-0.9,1.4-1.6V-97h-3.5c-1.9,0-2.8,0.6-2.8,1.8
	c0,0.6,0.2,1.1,0.7,1.4C793.2-93.4,793.8-93.3,794.7-93.3z M818.8-90.8c-1.4,0-2.8-0.2-4.1-0.6s-2.3-0.9-3.1-1.6l1.2-2.6
	c0.7,0.6,1.7,1.1,2.7,1.5c1.1,0.4,2.2,0.5,3.3,0.5c1.4,0,2.4-0.2,3-0.7c0.7-0.4,1-1,1-1.7c0-0.5-0.2-0.9-0.6-1.3
	c-0.4-0.3-0.8-0.6-1.4-0.8c-0.6-0.2-1.4-0.4-2.3-0.7c-1.4-0.3-2.5-0.7-3.4-1s-1.6-0.8-2.2-1.5c-0.6-0.7-0.9-1.7-0.9-2.9
	c0-1,0.3-1.9,0.8-2.7c0.6-0.8,1.4-1.5,2.5-2s2.5-0.7,4.1-0.7c1.1,0,2.2,0.1,3.3,0.4s2,0.7,2.8,1.2l-1.1,2.6
	c-0.8-0.5-1.6-0.8-2.5-1.1c-0.9-0.2-1.7-0.4-2.5-0.4c-1.3,0-2.3,0.2-3,0.7c-0.6,0.5-1,1.1-1,1.8c0,0.5,0.2,0.9,0.5,1.3
	c0.4,0.3,0.9,0.6,1.4,0.8c0.6,0.2,1.4,0.4,2.3,0.7c1.4,0.3,2.5,0.6,3.3,1c0.9,0.3,1.6,0.8,2.2,1.5c0.6,0.7,0.9,1.6,0.9,2.8
	c0,1-0.3,1.9-0.8,2.7c-0.5,0.8-1.4,1.5-2.5,2C821.7-91.1,820.4-90.8,818.8-90.8z M841.9-105l-6,13.9h-3.4l-6-13.9h3.4l4.3,10.3
	l4.6-10.3H841.9z M856.7-98c0,0.2,0,0.5-0.1,1h-10.9c0.2,1,0.7,1.8,1.5,2.4s1.8,0.9,3,0.9c1.5,0,2.8-0.5,3.8-1.5l1.7,2
	c-0.6,0.7-1.4,1.3-2.4,1.7c-1,0.4-2,0.6-3.2,0.6c-1.5,0-2.9-0.3-4-0.9c-1.2-0.6-2.1-1.4-2.7-2.5c-0.6-1.1-0.9-2.3-0.9-3.7
	c0-1.4,0.3-2.6,0.9-3.6c0.6-1.1,1.5-1.9,2.6-2.6c1.1-0.6,2.3-0.9,3.7-0.9s2.6,0.3,3.6,0.9c1.1,0.6,1.9,1.4,2.5,2.5
	C856.4-100.6,856.7-99.4,856.7-98z M849.6-102.5c-1,0-1.9,0.3-2.7,0.9c-0.7,0.6-1.1,1.4-1.3,2.4h7.9c-0.1-1-0.6-1.8-1.3-2.4
	C851.6-102.2,850.7-102.5,849.6-102.5z M867.7-105.1c1.8,0,3.2,0.5,4.2,1.5c1.1,1,1.6,2.5,1.6,4.6v8h-3.3v-7.6
	c0-1.2-0.3-2.1-0.9-2.7c-0.6-0.6-1.4-0.9-2.4-0.9c-1.2,0-2.1,0.4-2.8,1.1s-1,1.7-1,3.1v7h-3.3v-14h3.1v1.8c0.5-0.6,1.2-1.1,2-1.5
	C865.7-105,866.7-105.1,867.7-105.1z M881.9-90.9c-1.1,0-2.2-0.1-3.3-0.4s-1.9-0.7-2.6-1.1l1.2-2.5c0.6,0.4,1.4,0.8,2.2,1
	c0.9,0.2,1.8,0.4,2.6,0.4c1.9,0,2.9-0.5,2.9-1.5c0-0.5-0.3-0.8-0.8-1s-1.3-0.4-2.4-0.5c-1.1-0.2-2.1-0.4-2.8-0.6s-1.3-0.6-1.9-1.2
	c-0.5-0.6-0.8-1.4-0.8-2.4c0-1.3,0.5-2.4,1.6-3.2c1.1-0.8,2.6-1.2,4.5-1.2c1,0,1.9,0.1,2.9,0.3c1,0.2,1.7,0.5,2.3,0.9l-1.2,2.5
	c-1.2-0.7-2.5-1-4-1c-1,0-1.7,0.1-2.2,0.4s-0.7,0.7-0.7,1.1c0,0.5,0.3,0.9,0.8,1.1s1.4,0.4,2.5,0.6s2,0.4,2.7,0.6s1.3,0.6,1.8,1.1
	s0.8,1.3,0.8,2.3c0,1.3-0.6,2.3-1.7,3.1C885.4-91.3,883.9-90.9,881.9-90.9z M895.3-90.9c-1.1,0-2.2-0.1-3.3-0.4s-1.9-0.7-2.6-1.1
	l1.2-2.5c0.6,0.4,1.4,0.8,2.2,1c0.9,0.2,1.8,0.4,2.6,0.4c1.9,0,2.9-0.5,2.9-1.5c0-0.5-0.3-0.8-0.8-1s-1.3-0.4-2.4-0.5
	c-1.1-0.2-2.1-0.4-2.8-0.6s-1.3-0.6-1.9-1.2c-0.5-0.6-0.8-1.4-0.8-2.4c0-1.3,0.5-2.4,1.6-3.2c1.1-0.8,2.6-1.2,4.5-1.2
	c1,0,1.9,0.1,2.9,0.3c1,0.2,1.7,0.5,2.3,0.9l-1.2,2.5c-1.2-0.7-2.5-1-4-1c-1,0-1.7,0.1-2.2,0.4s-0.7,0.7-0.7,1.1
	c0,0.5,0.3,0.9,0.8,1.1s1.4,0.4,2.5,0.6s2,0.4,2.7,0.6s1.3,0.6,1.8,1.1s0.8,1.3,0.8,2.3c0,1.3-0.6,2.3-1.7,3.1
	C898.8-91.3,897.3-90.9,895.3-90.9z M910.7-90.9c-1.4,0-2.7-0.3-3.8-0.9s-2-1.4-2.7-2.5c-0.6-1.1-0.9-2.3-0.9-3.7
	c0-1.4,0.3-2.6,0.9-3.7c0.6-1.1,1.5-1.9,2.7-2.5c1.1-0.6,2.4-0.9,3.8-0.9c1.4,0,2.7,0.3,3.8,0.9s2,1.4,2.6,2.5s1,2.3,1,3.7
	c0,1.4-0.3,2.6-1,3.7c-0.6,1.1-1.5,1.9-2.6,2.5C913.4-91.2,912.1-90.9,910.7-90.9z M910.7-93.7c1.2,0,2.2-0.4,3-1.2
	c0.8-0.8,1.2-1.8,1.2-3.2s-0.4-2.4-1.2-3.2c-0.8-0.8-1.8-1.2-3-1.2s-2.2,0.4-3,1.2c-0.8,0.8-1.1,1.8-1.1,3.2s0.4,2.4,1.1,3.2
	C908.5-94.1,909.5-93.7,910.7-93.7z M929.1-105.1c1.8,0,3.2,0.5,4.2,1.5c1.1,1,1.6,2.5,1.6,4.6v8h-3.3v-7.6c0-1.2-0.3-2.1-0.9-2.7
	c-0.6-0.6-1.4-0.9-2.4-0.9c-1.2,0-2.1,0.4-2.8,1.1s-1,1.7-1,3.1v7h-3.3v-14h3.1v1.8c0.5-0.6,1.2-1.1,2-1.5
	C927.1-105,928.1-105.1,929.1-105.1z M947.8-96.2c-0.6,0-1.1-0.2-1.5-0.6s-0.6-0.9-0.6-1.6c0-0.6,0.2-1.1,0.6-1.5
	c0.4-0.4,0.9-0.6,1.5-0.6s1.1,0.2,1.5,0.6s0.6,0.9,0.6,1.6s-0.2,1.2-0.6,1.6C948.9-96.4,948.4-96.2,947.8-96.2z M964.5-106.5v5.5
	h8.8v2.9h-8.8v7h-3.4v-18.2h13.3v2.8H964.5z M990.5-105v13.9h-3.1v-1.8c-0.5,0.6-1.2,1.1-2,1.5c-0.8,0.3-1.6,0.5-2.5,0.5
	c-1.9,0-3.3-0.5-4.4-1.5c-1.1-1-1.6-2.6-1.6-4.6v-7.9h3.3v7.5c0,1.2,0.3,2.2,0.8,2.8c0.6,0.6,1.4,0.9,2.4,0.9c1.2,0,2.1-0.4,2.8-1.1
	s1-1.8,1-3.1v-7h3.3V-105z M994.7-110.4h3.3v19.3h-3.3V-110.4z M1002.3-110.4h3.3v19.3h-3.3V-110.4z M1014.1-90.9
	c-1.1,0-2.2-0.1-3.3-0.4s-1.9-0.7-2.6-1.1l1.2-2.5c0.6,0.4,1.4,0.8,2.2,1c0.9,0.2,1.8,0.4,2.6,0.4c1.9,0,2.9-0.5,2.9-1.5
	c0-0.5-0.3-0.8-0.8-1s-1.3-0.4-2.4-0.5c-1.1-0.2-2.1-0.4-2.8-0.6s-1.3-0.6-1.9-1.2c-0.5-0.6-0.8-1.4-0.8-2.4c0-1.3,0.5-2.4,1.6-3.2
	c1.1-0.8,2.6-1.2,4.5-1.2c1,0,1.9,0.1,2.9,0.3c1,0.2,1.7,0.5,2.3,0.9l-1.2,2.5c-1.2-0.7-2.5-1-4-1c-1,0-1.7,0.1-2.2,0.4
	s-0.7,0.7-0.7,1.1c0,0.5,0.3,0.9,0.8,1.1s1.4,0.4,2.5,0.6s2,0.4,2.7,0.6s1.3,0.6,1.8,1.1s0.8,1.3,0.8,2.3c0,1.3-0.6,2.3-1.7,3.1
	C1017.6-91.3,1016-90.9,1014.1-90.9z M1031.6-91.8c-0.4,0.3-0.9,0.5-1.4,0.7s-1.1,0.2-1.7,0.2c-1.5,0-2.7-0.4-3.5-1.2
	c-0.8-0.8-1.2-2-1.2-3.5v-6.7h-2.3v-2.6h2.3v-3.2h3.3v3.2h3.7v2.6h-3.7v6.6c0,0.7,0.2,1.2,0.5,1.6c0.3,0.3,0.8,0.5,1.4,0.5
	c0.7,0,1.3-0.2,1.8-0.6L1031.6-91.8z M1039.5-105.1c2,0,3.6,0.5,4.7,1.5c1.1,1,1.6,2.4,1.6,4.4v8.2h-3v-1.7c-0.4,0.6-1,1.1-1.7,1.4
	c-0.7,0.3-1.6,0.5-2.7,0.5c-1,0-2-0.2-2.7-0.5c-0.8-0.4-1.4-0.9-1.8-1.5c-0.4-0.6-0.6-1.4-0.6-2.2c0-1.2,0.5-2.2,1.4-3
	s2.4-1.1,4.4-1.1h3.6v-0.2c0-1-0.3-1.7-0.9-2.2s-1.4-0.8-2.6-0.8c-0.8,0-1.6,0.1-2.3,0.4c-0.7,0.2-1.4,0.6-1.9,1l-1.3-2.4
	c0.7-0.6,1.6-1,2.6-1.3C1037.3-105,1038.4-105.1,1039.5-105.1z M1039.1-93.3c0.8,0,1.5-0.2,2.2-0.5c0.6-0.4,1.1-0.9,1.4-1.6V-97
	h-3.4c-1.9,0-2.8,0.6-2.8,1.8c0,0.6,0.2,1.1,0.7,1.4C1037.6-93.4,1038.3-93.3,1039.1-93.3z M1056.6-90.9c-1.4,0-2.7-0.3-3.9-0.9
	c-1.1-0.6-2-1.4-2.7-2.5c-0.6-1.1-1-2.3-1-3.7c0-1.4,0.3-2.6,1-3.7c0.6-1.1,1.5-1.9,2.7-2.5c1.1-0.6,2.4-0.9,3.9-0.9
	c1.4,0,2.6,0.3,3.6,0.8c1,0.6,1.8,1.4,2.3,2.4l-2.5,1.5c-0.4-0.6-0.9-1.1-1.5-1.4s-1.2-0.5-2-0.5c-1.2,0-2.2,0.4-3,1.2
	c-0.8,0.8-1.2,1.8-1.2,3.2c0,1.3,0.4,2.4,1.2,3.2c0.8,0.8,1.8,1.2,3,1.2c0.7,0,1.4-0.2,2-0.5s1.1-0.8,1.5-1.5l2.5,1.5
	c-0.5,1-1.3,1.8-2.4,2.4C1059.1-91.2,1057.9-90.9,1056.6-90.9z M1070.9-97l-2.4,2.3v3.7h-3.3v-19.3h3.3v11.7l6.7-6.2h3.9l-5.8,5.8
	l6.4,8.1h-4L1070.9-97z M1089.2-109.3h8c1.9,0,3.7,0.4,5.2,1.1s2.7,1.8,3.5,3.2c0.8,1.4,1.2,3,1.2,4.8s-0.4,3.4-1.2,4.8
	c-0.8,1.4-2,2.4-3.5,3.2c-1.5,0.7-3.2,1.1-5.2,1.1h-8V-109.3z M1097-93.9c1.3,0,2.5-0.3,3.5-0.8s1.8-1.2,2.3-2.2
	c0.6-1,0.8-2.1,0.8-3.3s-0.3-2.3-0.8-3.3s-1.3-1.7-2.3-2.2s-2.2-0.8-3.5-0.8h-4.4V-94L1097-93.9L1097-93.9z M1123.5-98
	c0,0.2,0,0.5-0.1,1h-10.9c0.2,1,0.7,1.8,1.5,2.4c0.8,0.6,1.8,0.9,3,0.9c1.5,0,2.8-0.5,3.8-1.5l1.7,2c-0.6,0.7-1.4,1.3-2.4,1.7
	c-1,0.4-2,0.6-3.2,0.6c-1.5,0-2.9-0.3-4-0.9c-1.2-0.6-2.1-1.4-2.7-2.5c-0.6-1.1-0.9-2.3-0.9-3.7c0-1.4,0.3-2.6,0.9-3.6
	c0.6-1.1,1.5-1.9,2.6-2.6c1.1-0.6,2.3-0.9,3.7-0.9s2.6,0.3,3.6,0.9c1.1,0.6,1.9,1.4,2.5,2.5C1123.2-100.6,1123.5-99.4,1123.5-98z
	 M1116.5-102.5c-1,0-1.9,0.3-2.7,0.9c-0.7,0.6-1.1,1.4-1.3,2.4h7.9c-0.1-1-0.6-1.8-1.3-2.4C1118.4-102.2,1117.5-102.5,1116.5-102.5z
	 M1139.4-105l-6,13.9h-3.4l-6-13.9h3.4l4.3,10.3l4.5-10.3H1139.4z M1154.1-98c0,0.2,0,0.5,0,1h-10.9c0.2,1,0.7,1.8,1.5,2.4
	c0.8,0.6,1.8,0.9,3,0.9c1.5,0,2.8-0.5,3.8-1.5l1.8,2c-0.6,0.7-1.4,1.3-2.4,1.7c-1,0.4-2,0.6-3.2,0.6c-1.5,0-2.9-0.3-4-0.9
	c-1.2-0.6-2.1-1.4-2.7-2.5s-0.9-2.3-0.9-3.7c0-1.4,0.3-2.6,0.9-3.6c0.6-1.1,1.5-1.9,2.6-2.6c1.1-0.6,2.3-0.9,3.7-0.9
	s2.6,0.3,3.6,0.9c1.1,0.6,1.9,1.4,2.5,2.5C1153.8-100.6,1154.1-99.4,1154.1-98z M1147.1-102.5c-1,0-1.9,0.3-2.6,0.9
	s-1.2,1.4-1.3,2.4h7.9c-0.1-1-0.6-1.8-1.3-2.4C1149-102.2,1148.1-102.5,1147.1-102.5z M1157.2-110.4h3.3v19.3h-3.3V-110.4z
	 M1171-90.9c-1.4,0-2.7-0.3-3.8-0.9c-1.1-0.6-2-1.4-2.7-2.5c-0.6-1.1-0.9-2.3-0.9-3.7c0-1.4,0.3-2.6,0.9-3.7s1.5-1.9,2.7-2.5
	c1.1-0.6,2.4-0.9,3.8-0.9s2.7,0.3,3.8,0.9c1.1,0.6,2,1.4,2.6,2.5s1,2.3,1,3.7c0,1.4-0.3,2.6-1,3.7c-0.6,1.1-1.5,1.9-2.6,2.5
	C1173.7-91.2,1172.5-90.9,1171-90.9z M1171-93.7c1.2,0,2.2-0.4,3-1.2c0.8-0.8,1.2-1.8,1.2-3.2s-0.4-2.4-1.2-3.2
	c-0.8-0.8-1.8-1.2-3-1.2s-2.2,0.4-3,1.2c-0.8,0.8-1.2,1.8-1.2,3.2s0.4,2.4,1.2,3.2C1168.8-94.1,1169.8-93.7,1171-93.7z
	 M1189.3-105.1c1.3,0,2.6,0.3,3.6,0.9c1.1,0.6,1.9,1.4,2.5,2.5s0.9,2.3,0.9,3.7c0,1.4-0.3,2.7-0.9,3.7c-0.6,1.1-1.4,1.9-2.5,2.5
	s-2.3,0.9-3.6,0.9c-1.9,0-3.4-0.6-4.5-1.9v6.7h-3.2v-19h3.1v1.8c0.5-0.7,1.2-1.2,2-1.5C1187.4-105,1188.3-105.1,1189.3-105.1z
	 M1188.9-93.7c1.2,0,2.2-0.4,3-1.2c0.8-0.8,1.2-1.8,1.2-3.2s-0.4-2.4-1.2-3.2c-0.8-0.8-1.8-1.2-3-1.2c-0.8,0-1.5,0.2-2.1,0.5
	s-1.1,0.9-1.5,1.5c-0.4,0.7-0.6,1.4-0.6,2.3s0.2,1.6,0.6,2.3c0.4,0.7,0.9,1.2,1.5,1.5C1187.4-93.9,1188.1-93.7,1188.9-93.7z
	 M1212.5-98c0,0.2,0,0.5-0.1,1h-10.9c0.2,1,0.7,1.8,1.5,2.4s1.8,0.9,3,0.9c1.5,0,2.8-0.5,3.8-1.5l1.7,2c-0.6,0.7-1.4,1.3-2.4,1.7
	c-0.9,0.4-2,0.6-3.2,0.6c-1.5,0-2.9-0.3-4-0.9c-1.2-0.6-2.1-1.4-2.7-2.5s-0.9-2.3-0.9-3.7c0-1.4,0.3-2.6,0.9-3.6
	c0.6-1.1,1.5-1.9,2.6-2.6c1.1-0.6,2.3-0.9,3.7-0.9c1.4,0,2.6,0.3,3.6,0.9c1.1,0.6,1.9,1.4,2.5,2.5
	C1212.2-100.6,1212.5-99.4,1212.5-98z M1205.5-102.5c-1,0-1.9,0.3-2.7,0.9c-0.7,0.6-1.2,1.4-1.3,2.4h7.9c-0.1-1-0.6-1.8-1.3-2.4
	C1207.4-102.2,1206.5-102.5,1205.5-102.5z M1218.7-103c0.9-1.5,2.6-2.2,4.9-2.2v3.1c-0.3-0.1-0.5-0.1-0.8-0.1c-1.3,0-2.3,0.4-3,1.1
	s-1.1,1.8-1.1,3.2v6.7h-3.2V-105h3.1L1218.7-103L1218.7-103z"/>
<text transform="matrix(1 0 0 1 -256.8999 65.3323)" class="st3 st4 st5">Manne Johansson  Web Developer  Manne Johansson  Web Developer  Manne Johansson  Web Developer</text>
</svg>
