<?xml version="1.0" encoding="utf-8"?>
<!-- Generator: Adobe Illustrator 27.0.0, SVG Export Plug-In . SVG Version: 6.00 Build 0)  -->
<svg version="1.1" id="Layer_1" xmlns="http://www.w3.org/2000/svg" xmlns:xlink="http://www.w3.org/1999/xlink" x="0px" y="0px"
	 viewBox="0 0 744 114" style="enable-background:new 0 0 744 114;" xml:space="preserve">
<style type="text/css">
	.st0{fill:none;}
	.st1{fill:#FF4575;}
	.st2{fill:#FFFFFF;}
	.st3{fill:#FEEDEA;}
	.st4{font-family:'Montserrat-Bold';}
	.st5{font-size:26.2058px;}
</style>
<rect x="-400.7" y="0" class="st0" width="1512" height="114"/>
<rect x="-400.7" y="0" class="st1" width="1512" height="114"/>
<path class="st2" d="M-378.9-52.8c-1.4,0-2.8-0.2-4.1-0.6c-1.3-0.4-2.3-0.9-3.1-1.6l1.2-2.6c0.7,0.6,1.7,1.1,2.7,1.5
	c1.1,0.4,2.2,0.5,3.3,0.5c1.4,0,2.4-0.2,3-0.7c0.7-0.4,1-1,1-1.7c0-0.5-0.2-0.9-0.6-1.3c-0.4-0.3-0.8-0.6-1.4-0.8s-1.4-0.4-2.3-0.7
	c-1.4-0.3-2.5-0.7-3.4-1s-1.6-0.8-2.2-1.5s-0.9-1.7-0.9-2.9c0-1,0.3-1.9,0.8-2.7c0.6-0.8,1.4-1.5,2.5-2s2.5-0.7,4.1-0.7
	c1.1,0,2.2,0.1,3.3,0.4c1.1,0.3,2,0.7,2.8,1.2l-1.1,2.6c-0.8-0.5-1.6-0.8-2.5-1.1c-0.9-0.2-1.7-0.4-2.5-0.4c-1.3,0-2.3,0.2-3,0.7
	c-0.6,0.5-1,1.1-1,1.8c0,0.5,0.2,0.9,0.5,1.3c0.4,0.3,0.9,0.6,1.4,0.8c0.6,0.2,1.4,0.4,2.3,0.7c1.4,0.3,2.5,0.6,3.3,1
	c0.9,0.3,1.6,0.8,2.2,1.5s0.9,1.6,0.9,2.8c0,1-0.3,1.9-0.8,2.7s-1.4,1.5-2.5,2C-376-53.1-377.3-52.8-378.9-52.8z M-363.2-67.1
	c2,0,3.6,0.5,4.7,1.5s1.6,2.4,1.6,4.4v8.2h-3.1v-1.7c-0.4,0.6-1,1.1-1.7,1.4c-0.7,0.3-1.6,0.5-2.7,0.5c-1,0-2-0.2-2.7-0.5
	c-0.8-0.4-1.4-0.9-1.8-1.5s-0.6-1.4-0.6-2.2c0-1.2,0.5-2.2,1.4-3s2.4-1.1,4.4-1.1h3.6v-0.2c0-1-0.3-1.7-0.9-2.2s-1.4-0.8-2.6-0.8
	c-0.8,0-1.6,0.1-2.3,0.4c-0.7,0.2-1.4,0.6-1.9,1l-1.3-2.4c0.7-0.6,1.6-1,2.6-1.3C-365.4-67-364.3-67.1-363.2-67.1z M-363.6-55.3
	c0.8,0,1.5-0.2,2.2-0.5c0.6-0.4,1.1-0.9,1.4-1.6V-59h-3.4c-1.9,0-2.8,0.6-2.8,1.8c0,0.6,0.2,1.1,0.7,1.4S-364.5-55.3-363.6-55.3z
	 M-349.6-65c0.9-1.5,2.6-2.2,4.9-2.2v3.1c-0.3-0.1-0.5-0.1-0.8-0.1c-1.3,0-2.3,0.4-3,1.1c-0.7,0.7-1.1,1.8-1.1,3.2v6.7h-3.3V-67h3.1
	v2H-349.6z M-336.6-67.1c2,0,3.6,0.5,4.7,1.5s1.6,2.4,1.6,4.4v8.2h-3.1v-1.7c-0.4,0.6-1,1.1-1.7,1.4c-0.7,0.3-1.6,0.5-2.7,0.5
	c-1,0-2-0.2-2.7-0.5c-0.8-0.4-1.4-0.9-1.8-1.5s-0.6-1.4-0.6-2.2c0-1.2,0.5-2.2,1.4-3s2.4-1.1,4.4-1.1h3.6v-0.2c0-1-0.3-1.7-0.9-2.2
	s-1.4-0.8-2.6-0.8c-0.8,0-1.6,0.1-2.3,0.4c-0.7,0.2-1.4,0.6-1.9,1l-1.3-2.4c0.7-0.6,1.6-1,2.6-1.3C-338.9-67-337.8-67.1-336.6-67.1z
	 M-337.1-55.3c0.8,0,1.5-0.2,2.2-0.5c0.6-0.4,1.1-0.9,1.4-1.6V-59h-3.4c-1.9,0-2.8,0.6-2.8,1.8c0,0.6,0.2,1.1,0.7,1.4
	S-337.9-55.3-337.1-55.3z M-313-52.8c-1.4,0-2.8-0.2-4.1-0.6c-1.3-0.4-2.3-0.9-3.1-1.6l1.2-2.6c0.7,0.6,1.7,1.1,2.7,1.5
	c1.1,0.4,2.2,0.5,3.3,0.5c1.4,0,2.4-0.2,3-0.7c0.7-0.4,1-1,1-1.7c0-0.5-0.2-0.9-0.6-1.3c-0.4-0.3-0.8-0.6-1.4-0.8s-1.4-0.4-2.3-0.7
	c-1.4-0.3-2.5-0.7-3.4-1s-1.6-0.8-2.2-1.5s-0.9-1.7-0.9-2.9c0-1,0.3-1.9,0.8-2.7c0.6-0.8,1.4-1.5,2.5-2s2.5-0.7,4.1-0.7
	c1.1,0,2.2,0.1,3.3,0.4c1.1,0.3,2,0.7,2.8,1.2l-1.1,2.6c-0.8-0.5-1.6-0.8-2.5-1.1c-0.9-0.2-1.7-0.4-2.5-0.4c-1.3,0-2.3,0.2-3,0.7
	c-0.6,0.5-1,1.1-1,1.8c0,0.5,0.2,0.9,0.5,1.3c0.4,0.3,0.9,0.6,1.4,0.8c0.6,0.2,1.4,0.4,2.3,0.7c1.4,0.3,2.5,0.6,3.3,1
	c0.9,0.3,1.6,0.8,2.2,1.5s0.9,1.6,0.9,2.8c0,1-0.3,1.9-0.8,2.7s-1.4,1.5-2.5,2C-310-53.1-311.4-52.8-313-52.8z M-289.8-67l-6,13.9
	h-3.4l-6-13.9h3.4l4.3,10.3L-293-67H-289.8z M-275.1-60c0,0.2,0,0.5-0.1,1H-286c0.2,1,0.7,1.8,1.5,2.4c0.8,0.6,1.8,0.9,3,0.9
	c1.5,0,2.8-0.5,3.8-1.5l1.7,2c-0.6,0.7-1.4,1.3-2.4,1.7s-2,0.6-3.2,0.6c-1.5,0-2.9-0.3-4-0.9c-1.2-0.6-2.1-1.4-2.7-2.5
	s-0.9-2.3-0.9-3.7s0.3-2.6,0.9-3.6c0.6-1.1,1.5-1.9,2.6-2.6c1.1-0.6,2.3-0.9,3.7-0.9c1.4,0,2.6,0.3,3.6,0.9c1.1,0.6,1.9,1.4,2.5,2.5
	C-275.4-62.6-275.1-61.4-275.1-60z M-282.1-64.5c-1,0-1.9,0.3-2.7,0.9c-0.7,0.6-1.1,1.4-1.3,2.4h7.9c-0.1-1-0.6-1.8-1.3-2.4
	C-280.2-64.2-281-64.5-282.1-64.5z M-264-67.1c1.8,0,3.2,0.5,4.2,1.5c1.1,1,1.6,2.5,1.6,4.6v8h-3.3v-7.6c0-1.2-0.3-2.1-0.9-2.7
	c-0.6-0.6-1.4-0.9-2.4-0.9c-1.2,0-2.1,0.4-2.8,1.1c-0.7,0.7-1,1.7-1,3.1v7h-3.3v-14h3.1v1.8c0.5-0.6,1.2-1.1,2-1.5
	C-266-67-265.1-67.1-264-67.1z M-249.8-52.9c-1.1,0-2.2-0.1-3.3-0.4c-1.1-0.3-1.9-0.7-2.6-1.1l1.2-2.5c0.6,0.4,1.4,0.8,2.2,1
	c0.9,0.2,1.8,0.4,2.6,0.4c1.9,0,2.9-0.5,2.9-1.5c0-0.5-0.3-0.8-0.8-1s-1.3-0.4-2.4-0.5c-1.1-0.2-2.1-0.4-2.8-0.6
	c-0.7-0.2-1.3-0.6-1.9-1.2c-0.5-0.6-0.8-1.4-0.8-2.4c0-1.3,0.5-2.4,1.6-3.2s2.6-1.2,4.5-1.2c1,0,1.9,0.1,2.9,0.3
	c1,0.2,1.7,0.5,2.3,0.9l-1.2,2.5c-1.2-0.7-2.5-1-4-1c-1,0-1.7,0.1-2.2,0.4c-0.5,0.3-0.7,0.7-0.7,1.1c0,0.5,0.3,0.9,0.8,1.1
	c0.5,0.2,1.4,0.4,2.5,0.6c1.1,0.2,2,0.4,2.7,0.6c0.7,0.2,1.3,0.6,1.8,1.1s0.8,1.3,0.8,2.3c0,1.3-0.6,2.3-1.7,3.1
	C-246.3-53.3-247.9-52.9-249.8-52.9z M-236.4-52.9c-1.1,0-2.2-0.1-3.3-0.4s-1.9-0.7-2.6-1.1l1.2-2.5c0.6,0.4,1.4,0.8,2.2,1
	c0.9,0.2,1.8,0.4,2.6,0.4c1.9,0,2.9-0.5,2.9-1.5c0-0.5-0.3-0.8-0.8-1s-1.3-0.4-2.4-0.5c-1.1-0.2-2.1-0.4-2.8-0.6
	c-0.7-0.2-1.3-0.6-1.9-1.2c-0.5-0.6-0.8-1.4-0.8-2.4c0-1.3,0.5-2.4,1.6-3.2s2.6-1.2,4.5-1.2c1,0,1.9,0.1,2.9,0.3
	c1,0.2,1.7,0.5,2.3,0.9l-1.2,2.5c-1.2-0.7-2.5-1-4-1c-1,0-1.7,0.1-2.2,0.4c-0.5,0.3-0.7,0.7-0.7,1.1c0,0.5,0.3,0.9,0.8,1.1
	c0.5,0.2,1.4,0.4,2.5,0.6c1.1,0.2,2,0.4,2.7,0.6c0.7,0.2,1.3,0.6,1.8,1.1s0.8,1.3,0.8,2.3c0,1.3-0.6,2.3-1.7,3.1
	C-232.9-53.3-234.5-52.9-236.4-52.9z M-221.1-52.9c-1.4,0-2.7-0.3-3.8-0.9c-1.1-0.6-2-1.4-2.7-2.5c-0.6-1.1-0.9-2.3-0.9-3.7
	s0.3-2.6,0.9-3.7c0.6-1.1,1.5-1.9,2.7-2.5c1.1-0.6,2.4-0.9,3.8-0.9c1.4,0,2.7,0.3,3.8,0.9s2,1.4,2.6,2.5s1,2.3,1,3.7s-0.3,2.6-1,3.7
	c-0.6,1.1-1.5,1.9-2.6,2.5C-218.4-53.2-219.6-52.9-221.1-52.9z M-221.1-55.7c1.2,0,2.2-0.4,3-1.2s1.2-1.8,1.2-3.2
	c0-1.3-0.4-2.4-1.2-3.2c-0.8-0.8-1.8-1.2-3-1.2s-2.2,0.4-3,1.2s-1.1,1.8-1.1,3.2c0,1.3,0.4,2.4,1.1,3.2
	C-223.3-56.1-222.3-55.7-221.1-55.7z M-202.6-67.1c1.8,0,3.2,0.5,4.2,1.5c1.1,1,1.6,2.5,1.6,4.6v8h-3.3v-7.6c0-1.2-0.3-2.1-0.9-2.7
	c-0.6-0.6-1.4-0.9-2.4-0.9c-1.2,0-2.1,0.4-2.8,1.1c-0.7,0.7-1,1.7-1,3.1v7h-3.3v-14h3.1v1.8c0.5-0.6,1.2-1.1,2-1.5
	C-204.6-67-203.7-67.1-202.6-67.1z M-183.9-58.2c-0.6,0-1.1-0.2-1.5-0.6c-0.4-0.4-0.6-0.9-0.6-1.6c0-0.6,0.2-1.1,0.6-1.5
	c0.4-0.4,0.9-0.6,1.5-0.6s1.1,0.2,1.5,0.6c0.4,0.4,0.6,0.9,0.6,1.6c0,0.7-0.2,1.2-0.6,1.6C-182.8-58.4-183.3-58.2-183.9-58.2z
	 M-167.2-68.5v5.5h8.8v2.9h-8.8v7h-3.4v-18.2h13.3v2.8H-167.2z M-141.3-67v13.9h-3.1v-1.8c-0.5,0.6-1.2,1.1-2,1.5
	c-0.8,0.3-1.6,0.5-2.5,0.5c-1.9,0-3.3-0.5-4.4-1.5c-1.1-1-1.6-2.6-1.6-4.6v-8h3.3v7.5c0,1.2,0.3,2.2,0.8,2.8
	c0.6,0.6,1.4,0.9,2.4,0.9c1.2,0,2.1-0.4,2.8-1.1c0.7-0.7,1-1.8,1-3.1v-7H-141.3z M-137-72.4h3.3v19.3h-3.3V-72.4z M-129.5-72.4h3.3
	v19.3h-3.3V-72.4z M-117.6-52.9c-1.1,0-2.2-0.1-3.3-0.4c-1.1-0.3-1.9-0.7-2.6-1.1l1.2-2.5c0.6,0.4,1.4,0.8,2.2,1
	c0.9,0.2,1.8,0.4,2.6,0.4c1.9,0,2.9-0.5,2.9-1.5c0-0.5-0.3-0.8-0.8-1s-1.3-0.4-2.4-0.5c-1.1-0.2-2.1-0.4-2.8-0.6
	c-0.7-0.2-1.3-0.6-1.9-1.2c-0.5-0.6-0.8-1.4-0.8-2.4c0-1.3,0.5-2.4,1.6-3.2s2.6-1.2,4.5-1.2c1,0,1.9,0.1,2.9,0.3
	c1,0.2,1.7,0.5,2.3,0.9l-1.2,2.5c-1.2-0.7-2.5-1-4-1c-1,0-1.7,0.1-2.2,0.4c-0.5,0.3-0.7,0.7-0.7,1.1c0,0.5,0.3,0.9,0.8,1.1
	c0.5,0.2,1.4,0.4,2.5,0.6c1.1,0.2,2,0.4,2.7,0.6c0.7,0.2,1.3,0.6,1.8,1.1s0.8,1.3,0.8,2.3c0,1.3-0.6,2.3-1.7,3.1
	C-114.2-53.3-115.7-52.9-117.6-52.9z M-100.2-53.8c-0.4,0.3-0.9,0.5-1.4,0.7s-1.1,0.2-1.7,0.2c-1.5,0-2.7-0.4-3.5-1.2
	s-1.2-2-1.2-3.5v-6.7h-2.3v-2.6h2.3v-3.2h3.3v3.2h3.7v2.6h-3.7v6.6c0,0.7,0.2,1.2,0.5,1.6c0.3,0.3,0.8,0.5,1.4,0.5
	c0.7,0,1.3-0.2,1.8-0.6L-100.2-53.8z M-92.2-67.1c2,0,3.6,0.5,4.7,1.5s1.6,2.4,1.6,4.4v8.2H-89v-1.7c-0.4,0.6-1,1.1-1.7,1.4
	c-0.7,0.3-1.6,0.5-2.7,0.5c-1,0-2-0.2-2.7-0.5c-0.8-0.4-1.4-0.9-1.8-1.5s-0.6-1.4-0.6-2.2c0-1.2,0.5-2.2,1.4-3s2.4-1.1,4.4-1.1h3.6
	v-0.2c0-1-0.3-1.7-0.9-2.2s-1.4-0.8-2.6-0.8c-0.8,0-1.6,0.1-2.3,0.4c-0.7,0.2-1.4,0.6-1.9,1l-1.3-2.4c0.7-0.6,1.6-1,2.6-1.3
	C-94.4-67-93.3-67.1-92.2-67.1z M-92.6-55.3c0.8,0,1.5-0.2,2.2-0.5c0.6-0.4,1.1-0.9,1.4-1.6V-59h-3.4c-1.9,0-2.8,0.6-2.8,1.8
	c0,0.6,0.2,1.1,0.7,1.4C-94.1-55.4-93.5-55.3-92.6-55.3z M-75.2-52.9c-1.4,0-2.7-0.3-3.9-0.9c-1.1-0.6-2-1.4-2.7-2.5
	c-0.6-1.1-1-2.3-1-3.7s0.3-2.6,1-3.7c0.6-1.1,1.5-1.9,2.7-2.5c1.1-0.6,2.4-0.9,3.9-0.9c1.4,0,2.6,0.3,3.6,0.8c1,0.6,1.8,1.4,2.3,2.4
	l-2.5,1.5c-0.4-0.6-0.9-1.1-1.5-1.4s-1.2-0.5-2-0.5c-1.2,0-2.2,0.4-3,1.2s-1.2,1.8-1.2,3.2c0,1.3,0.4,2.4,1.2,3.2
	c0.8,0.8,1.8,1.2,3,1.2c0.7,0,1.4-0.2,2-0.5s1.1-0.8,1.5-1.5l2.5,1.5c-0.5,1-1.3,1.8-2.4,2.4C-72.6-53.2-73.8-52.9-75.2-52.9z
	 M-60.9-59l-2.4,2.3v3.7h-3.3v-19.3h3.3v11.7l6.7-6.2h3.9l-5.8,5.8l6.4,8.1h-4L-60.9-59z M-42.5-71.3h8c1.9,0,3.7,0.4,5.2,1.1
	s2.7,1.8,3.5,3.2c0.8,1.4,1.2,3,1.2,4.8s-0.4,3.4-1.2,4.8c-0.8,1.4-2,2.4-3.5,3.2c-1.5,0.7-3.2,1.1-5.2,1.1h-8V-71.3z M-34.7-55.9
	c1.3,0,2.5-0.3,3.5-0.8s1.8-1.2,2.3-2.2c0.6-1,0.8-2.1,0.8-3.3s-0.3-2.3-0.8-3.3s-1.3-1.7-2.3-2.2s-2.2-0.8-3.5-0.8h-4.4V-56
	L-34.7-55.9L-34.7-55.9z M-8.2-60c0,0.2,0,0.5-0.1,1h-10.9c0.2,1,0.7,1.8,1.5,2.4c0.8,0.6,1.8,0.9,3,0.9c1.5,0,2.8-0.5,3.8-1.5
	l1.7,2c-0.6,0.7-1.4,1.3-2.4,1.7s-2,0.6-3.2,0.6c-1.5,0-2.9-0.3-4-0.9c-1.2-0.6-2.1-1.4-2.7-2.5s-0.9-2.3-0.9-3.7s0.3-2.6,0.9-3.6
	c0.6-1.1,1.5-1.9,2.6-2.6c1.1-0.6,2.3-0.9,3.7-0.9s2.6,0.3,3.6,0.9c1.1,0.6,1.9,1.4,2.5,2.5S-8.2-61.4-8.2-60z M-15.3-64.5
	c-1,0-1.9,0.3-2.7,0.9c-0.7,0.6-1.1,1.4-1.3,2.4h7.9c-0.1-1-0.6-1.8-1.3-2.4C-13.3-64.2-14.2-64.5-15.3-64.5z M7.7-67l-6,13.9h-3.4
	l-6-13.9h3.4L0-56.7L4.5-67H7.7z M22.4-60c0,0.2,0,0.5-0.1,1H11.4c0.2,1,0.7,1.8,1.5,2.4c0.8,0.6,1.8,0.9,3,0.9
	c1.5,0,2.8-0.5,3.8-1.5l1.7,2c-0.6,0.7-1.4,1.3-2.4,1.7s-2,0.6-3.2,0.6c-1.5,0-2.9-0.3-4-0.9c-1.2-0.6-2.1-1.4-2.7-2.5
	S8.2-58.6,8.2-60s0.3-2.6,0.9-3.6c0.6-1.1,1.5-1.9,2.6-2.6c1.1-0.6,2.3-0.9,3.7-0.9s2.6,0.3,3.6,0.9c1.1,0.6,1.9,1.4,2.5,2.5
	S22.4-61.4,22.4-60z M15.4-64.5c-1,0-1.9,0.3-2.7,0.9c-0.7,0.6-1.1,1.4-1.3,2.4h7.9c-0.1-1-0.6-1.8-1.3-2.4
	C17.3-64.2,16.4-64.5,15.4-64.5z M25.5-72.4h3.3v19.3h-3.3V-72.4z M39.3-52.9c-1.4,0-2.7-0.3-3.8-0.9c-1.1-0.6-2-1.4-2.7-2.5
	c-0.6-1.1-0.9-2.3-0.9-3.7s0.3-2.6,0.9-3.7c0.6-1.1,1.5-1.9,2.7-2.5c1.1-0.6,2.4-0.9,3.8-0.9c1.4,0,2.7,0.3,3.8,0.9s2,1.4,2.6,2.5
	s1,2.3,1,3.7s-0.3,2.6-1,3.7c-0.6,1.1-1.5,1.9-2.6,2.5C42-53.2,40.7-52.9,39.3-52.9z M39.3-55.7c1.2,0,2.2-0.4,3-1.2
	s1.2-1.8,1.2-3.2c0-1.3-0.4-2.4-1.2-3.2c-0.8-0.8-1.8-1.2-3-1.2s-2.2,0.4-3,1.2s-1.1,1.8-1.1,3.2c0,1.3,0.4,2.4,1.1,3.2
	C37.1-56.1,38.1-55.7,39.3-55.7z M57.5-67.1c1.4,0,2.6,0.3,3.6,0.9c1.1,0.6,1.9,1.4,2.5,2.5s0.9,2.3,0.9,3.7s-0.3,2.7-0.9,3.7
	c-0.6,1.1-1.4,1.9-2.5,2.5s-2.3,0.9-3.6,0.9c-1.9,0-3.4-0.6-4.5-1.9v6.7h-3.3v-19h3.1v1.8c0.5-0.7,1.2-1.2,2-1.5
	C55.7-67,56.6-67.1,57.5-67.1z M57.2-55.7c1.2,0,2.2-0.4,2.9-1.2c0.8-0.8,1.2-1.8,1.2-3.2c0-1.3-0.4-2.4-1.2-3.2
	c-0.8-0.8-1.7-1.2-2.9-1.2c-0.8,0-1.5,0.2-2.1,0.5c-0.6,0.3-1.1,0.9-1.5,1.5C53.2-61.7,53-60.9,53-60s0.2,1.6,0.5,2.3
	c0.4,0.7,0.9,1.2,1.5,1.5C55.7-55.9,56.4-55.7,57.2-55.7z M80.7-60c0,0.2,0,0.5-0.1,1H69.8c0.2,1,0.7,1.8,1.5,2.4
	c0.8,0.6,1.8,0.9,3,0.9c1.5,0,2.8-0.5,3.8-1.5l1.7,2c-0.6,0.7-1.4,1.3-2.4,1.7s-2,0.6-3.2,0.6c-1.5,0-2.9-0.3-4-0.9
	c-1.2-0.6-2.1-1.4-2.7-2.5s-0.9-2.3-0.9-3.7s0.3-2.6,0.9-3.6c0.6-1.1,1.5-1.9,2.6-2.6c1.1-0.6,2.3-0.9,3.7-0.9
	c1.4,0,2.6,0.3,3.6,0.9c1.1,0.6,1.9,1.4,2.5,2.5C80.4-62.6,80.7-61.4,80.7-60z M73.7-64.5c-1,0-1.9,0.3-2.7,0.9
	c-0.7,0.6-1.1,1.4-1.3,2.4h7.9c-0.1-1-0.6-1.8-1.3-2.4C75.7-64.2,74.8-64.5,73.7-64.5z M87-65c0.9-1.5,2.6-2.2,4.9-2.2v3.1
	c-0.3-0.1-0.5-0.1-0.8-0.1c-1.3,0-2.3,0.4-3,1.1c-0.7,0.7-1.1,1.8-1.1,3.2v6.7h-3.3V-67H87V-65z M103.6-58.2c-0.6,0-1.1-0.2-1.5-0.6
	c-0.4-0.4-0.6-0.9-0.6-1.6c0-0.6,0.2-1.1,0.6-1.5s0.9-0.6,1.5-0.6s1.1,0.2,1.5,0.6c0.4,0.4,0.6,0.9,0.6,1.6c0,0.7-0.2,1.2-0.6,1.6
	C104.7-58.4,104.2-58.2,103.6-58.2z M122.6-52.8c-1.4,0-2.8-0.2-4.1-0.6c-1.3-0.4-2.3-0.9-3.1-1.6l1.2-2.6c0.7,0.6,1.7,1.1,2.7,1.5
	c1.1,0.4,2.2,0.5,3.3,0.5c1.4,0,2.4-0.2,3-0.7c0.7-0.4,1-1,1-1.7c0-0.5-0.2-0.9-0.6-1.3c-0.4-0.3-0.8-0.6-1.4-0.8s-1.4-0.4-2.3-0.7
	c-1.4-0.3-2.5-0.7-3.4-1s-1.6-0.8-2.2-1.5s-0.9-1.7-0.9-2.9c0-1,0.3-1.9,0.8-2.7c0.6-0.8,1.4-1.5,2.5-2s2.5-0.7,4.1-0.7
	c1.1,0,2.2,0.1,3.3,0.4c1.1,0.3,2,0.7,2.8,1.2l-1.1,2.6c-0.8-0.5-1.6-0.8-2.5-1.1c-0.9-0.2-1.7-0.4-2.5-0.4c-1.3,0-2.3,0.2-3,0.7
	c-0.6,0.5-1,1.1-1,1.8c0,0.5,0.2,0.9,0.5,1.3c0.4,0.3,0.9,0.6,1.4,0.8c0.6,0.2,1.4,0.4,2.3,0.7c1.4,0.3,2.5,0.6,3.3,1
	c0.9,0.3,1.6,0.8,2.2,1.5s0.9,1.6,0.9,2.8c0,1-0.3,1.9-0.8,2.7s-1.4,1.5-2.5,2C125.5-53.1,124.2-52.8,122.6-52.8z M138.3-67.1
	c2,0,3.6,0.5,4.7,1.5c1.1,1,1.6,2.4,1.6,4.4v8.2h-3.1v-1.7c-0.4,0.6-1,1.1-1.7,1.4c-0.7,0.3-1.6,0.5-2.7,0.5c-1,0-2-0.2-2.7-0.5
	c-0.8-0.4-1.4-0.9-1.8-1.5c-0.4-0.6-0.6-1.4-0.6-2.2c0-1.2,0.5-2.2,1.4-3s2.4-1.1,4.4-1.1h3.6v-0.2c0-1-0.3-1.7-0.9-2.2
	c-0.6-0.5-1.4-0.8-2.6-0.8c-0.8,0-1.6,0.1-2.3,0.4c-0.7,0.2-1.4,0.6-1.9,1l-1.3-2.4c0.7-0.6,1.6-1,2.6-1.3
	C136.1-67,137.1-67.1,138.3-67.1z M137.8-55.3c0.8,0,1.5-0.2,2.2-0.5c0.6-0.4,1.1-0.9,1.4-1.6V-59H138c-1.9,0-2.8,0.6-2.8,1.8
	c0,0.6,0.2,1.1,0.7,1.4C136.4-55.4,137-55.3,137.8-55.3z M151.9-65c0.9-1.5,2.6-2.2,4.9-2.2v3.1c-0.3-0.1-0.5-0.1-0.8-0.1
	c-1.3,0-2.3,0.4-3,1.1c-0.7,0.7-1.1,1.8-1.1,3.2v6.7h-3.3V-67h3.1v2H151.9z M164.8-67.1c2,0,3.6,0.5,4.7,1.5c1.1,1,1.6,2.4,1.6,4.4
	v8.2H168v-1.7c-0.4,0.6-1,1.1-1.7,1.4c-0.7,0.3-1.6,0.5-2.7,0.5c-1,0-2-0.2-2.7-0.5c-0.8-0.4-1.4-0.9-1.8-1.5
	c-0.4-0.6-0.6-1.4-0.6-2.2c0-1.2,0.5-2.2,1.4-3s2.4-1.1,4.4-1.1h3.6v-0.2c0-1-0.3-1.7-0.9-2.2c-0.6-0.5-1.4-0.8-2.6-0.8
	c-0.8,0-1.6,0.1-2.3,0.4c-0.7,0.2-1.4,0.6-1.9,1l-1.3-2.4c0.7-0.6,1.6-1,2.6-1.3C162.6-67,163.7-67.1,164.8-67.1z M164.4-55.3
	c0.8,0,1.5-0.2,2.2-0.5c0.6-0.4,1.1-0.9,1.4-1.6V-59h-3.4c-1.9,0-2.8,0.6-2.8,1.8c0,0.6,0.2,1.1,0.7,1.4
	C162.9-55.4,163.6-55.3,164.4-55.3z M188.5-52.8c-1.4,0-2.8-0.2-4.1-0.6c-1.3-0.4-2.3-0.9-3.1-1.6l1.2-2.6c0.7,0.6,1.7,1.1,2.7,1.5
	c1.1,0.4,2.2,0.5,3.3,0.5c1.4,0,2.4-0.2,3-0.7c0.7-0.4,1-1,1-1.7c0-0.5-0.2-0.9-0.6-1.3c-0.4-0.3-0.8-0.6-1.4-0.8
	c-0.6-0.2-1.4-0.4-2.3-0.7c-1.4-0.3-2.5-0.7-3.4-1s-1.6-0.8-2.2-1.5c-0.6-0.7-0.9-1.7-0.9-2.9c0-1,0.3-1.9,0.8-2.7
	c0.6-0.8,1.4-1.5,2.5-2s2.5-0.7,4.1-0.7c1.1,0,2.2,0.1,3.3,0.4s2,0.7,2.8,1.2l-1.1,2.6c-0.8-0.5-1.6-0.8-2.5-1.1
	c-0.9-0.2-1.7-0.4-2.5-0.4c-1.3,0-2.3,0.2-3,0.7c-0.6,0.5-1,1.1-1,1.8c0,0.5,0.2,0.9,0.5,1.3c0.4,0.3,0.9,0.6,1.4,0.8
	c0.6,0.2,1.4,0.4,2.3,0.7c1.4,0.3,2.5,0.6,3.3,1c0.9,0.3,1.6,0.8,2.2,1.5c0.6,0.7,0.9,1.6,0.9,2.8c0,1-0.3,1.9-0.8,2.7
	s-1.4,1.5-2.5,2C191.4-53.1,190.1-52.8,188.5-52.8z M211.7-67l-6,13.9h-3.4l-6-13.9h3.4l4.3,10.3l4.5-10.3H211.7z M226.4-60
	c0,0.2,0,0.5-0.1,1h-10.9c0.2,1,0.7,1.8,1.5,2.4c0.8,0.6,1.8,0.9,3,0.9c1.5,0,2.8-0.5,3.8-1.5l1.7,2c-0.6,0.7-1.4,1.3-2.4,1.7
	s-2,0.6-3.2,0.6c-1.5,0-2.9-0.3-4-0.9c-1.2-0.6-2.1-1.4-2.7-2.5c-0.6-1.1-0.9-2.3-0.9-3.7s0.3-2.6,0.9-3.6c0.6-1.1,1.5-1.9,2.6-2.6
	c1.1-0.6,2.3-0.9,3.7-0.9s2.6,0.3,3.6,0.9c1.1,0.6,1.9,1.4,2.5,2.5C226.1-62.6,226.4-61.4,226.4-60z M219.4-64.5
	c-1,0-1.9,0.3-2.7,0.9c-0.7,0.6-1.1,1.4-1.3,2.4h7.9c-0.1-1-0.6-1.8-1.3-2.4C221.3-64.2,220.4-64.5,219.4-64.5z M237.4-67.1
	c1.8,0,3.2,0.5,4.2,1.5c1.1,1,1.6,2.5,1.6,4.6v8H240v-7.6c0-1.2-0.3-2.1-0.9-2.7c-0.6-0.6-1.4-0.9-2.4-0.9c-1.2,0-2.1,0.4-2.8,1.1
	c-0.7,0.7-1,1.7-1,3.1v7h-3.3v-14h3.1v1.8c0.5-0.6,1.2-1.1,2-1.5C235.5-67,236.4-67.1,237.4-67.1z M251.6-52.9
	c-1.1,0-2.2-0.1-3.3-0.4c-1.1-0.3-1.9-0.7-2.6-1.1l1.2-2.5c0.6,0.4,1.4,0.8,2.2,1c0.9,0.2,1.8,0.4,2.6,0.4c1.9,0,2.9-0.5,2.9-1.5
	c0-0.5-0.3-0.8-0.8-1s-1.3-0.4-2.4-0.5c-1.1-0.2-2.1-0.4-2.8-0.6c-0.7-0.2-1.3-0.6-1.9-1.2c-0.5-0.6-0.8-1.4-0.8-2.4
	c0-1.3,0.5-2.4,1.6-3.2s2.6-1.2,4.5-1.2c1,0,1.9,0.1,2.9,0.3c1,0.2,1.7,0.5,2.3,0.9l-1.2,2.5c-1.2-0.7-2.5-1-4-1
	c-1,0-1.7,0.1-2.2,0.4c-0.5,0.3-0.7,0.7-0.7,1.1c0,0.5,0.3,0.9,0.8,1.1c0.5,0.2,1.4,0.4,2.5,0.6c1.1,0.2,2,0.4,2.7,0.6
	c0.7,0.2,1.3,0.6,1.8,1.1s0.8,1.3,0.8,2.3c0,1.3-0.6,2.3-1.7,3.1C255.1-53.3,253.6-52.9,251.6-52.9z M265-52.9
	c-1.1,0-2.2-0.1-3.3-0.4c-1.1-0.3-1.9-0.7-2.6-1.1l1.2-2.5c0.6,0.4,1.4,0.8,2.2,1c0.9,0.2,1.8,0.4,2.6,0.4c1.9,0,2.9-0.5,2.9-1.5
	c0-0.5-0.3-0.8-0.8-1s-1.3-0.4-2.4-0.5c-1.1-0.2-2.1-0.4-2.8-0.6c-0.7-0.2-1.3-0.6-1.9-1.2c-0.5-0.6-0.8-1.4-0.8-2.4
	c0-1.3,0.5-2.4,1.6-3.2s2.6-1.2,4.5-1.2c1,0,1.9,0.1,2.9,0.3c1,0.2,1.7,0.5,2.3,0.9l-1.2,2.5c-1.2-0.7-2.5-1-4-1
	c-1,0-1.7,0.1-2.2,0.4c-0.5,0.3-0.7,0.7-0.7,1.1c0,0.5,0.3,0.9,0.8,1.1c0.5,0.2,1.4,0.4,2.5,0.6c1.1,0.2,2,0.4,2.7,0.6
	c0.7,0.2,1.3,0.6,1.8,1.1s0.8,1.3,0.8,2.3c0,1.3-0.6,2.3-1.7,3.1C268.5-53.3,267-52.9,265-52.9z M280.4-52.9c-1.4,0-2.7-0.3-3.8-0.9
	c-1.1-0.6-2-1.4-2.7-2.5c-0.6-1.1-0.9-2.3-0.9-3.7s0.3-2.6,0.9-3.7c0.6-1.1,1.5-1.9,2.7-2.5c1.1-0.6,2.4-0.9,3.8-0.9
	s2.7,0.3,3.8,0.9c1.1,0.6,2,1.4,2.6,2.5s1,2.3,1,3.7s-0.3,2.6-1,3.7c-0.6,1.1-1.5,1.9-2.6,2.5C283.1-53.2,281.8-52.9,280.4-52.9z
	 M280.4-55.7c1.2,0,2.2-0.4,3-1.2s1.2-1.8,1.2-3.2c0-1.3-0.4-2.4-1.2-3.2c-0.8-0.8-1.8-1.2-3-1.2s-2.2,0.4-3,1.2s-1.1,1.8-1.1,3.2
	c0,1.3,0.4,2.4,1.1,3.2C278.2-56.1,279.2-55.7,280.4-55.7z M298.8-67.1c1.8,0,3.2,0.5,4.2,1.5c1.1,1,1.6,2.5,1.6,4.6v8h-3.3v-7.6
	c0-1.2-0.3-2.1-0.9-2.7c-0.6-0.6-1.4-0.9-2.4-0.9c-1.2,0-2.1,0.4-2.8,1.1c-0.7,0.7-1,1.7-1,3.1v7h-3.3v-14h3.1v1.8
	c0.5-0.6,1.2-1.1,2-1.5C296.9-67,297.8-67.1,298.8-67.1z M317.5-58.2c-0.6,0-1.1-0.2-1.5-0.6c-0.4-0.4-0.6-0.9-0.6-1.6
	c0-0.6,0.2-1.1,0.6-1.5s0.9-0.6,1.5-0.6s1.1,0.2,1.5,0.6c0.4,0.4,0.6,0.9,0.6,1.6c0,0.7-0.2,1.2-0.6,1.6
	C318.7-58.4,318.1-58.2,317.5-58.2z M334.2-68.5v5.5h8.8v2.9h-8.8v7h-3.4v-18.2h13.3v2.8H334.2z M360.2-67v13.9h-3.1v-1.8
	c-0.5,0.6-1.2,1.1-2,1.5c-0.8,0.3-1.6,0.5-2.5,0.5c-1.9,0-3.3-0.5-4.4-1.5s-1.6-2.6-1.6-4.6v-8h3.3v7.5c0,1.2,0.3,2.2,0.8,2.8
	c0.6,0.6,1.4,0.9,2.4,0.9c1.2,0,2.1-0.4,2.8-1.1c0.7-0.7,1-1.8,1-3.1v-7H360.2z M364.5-72.4h3.3v19.3h-3.3V-72.4z M372-72.4h3.3
	v19.3H372V-72.4z M383.8-52.9c-1.1,0-2.2-0.1-3.3-0.4c-1.1-0.3-1.9-0.7-2.6-1.1l1.2-2.5c0.6,0.4,1.4,0.8,2.2,1
	c0.9,0.2,1.8,0.4,2.6,0.4c1.9,0,2.9-0.5,2.9-1.5c0-0.5-0.3-0.8-0.8-1s-1.3-0.4-2.4-0.5c-1.1-0.2-2.1-0.4-2.8-0.6
	c-0.7-0.2-1.3-0.6-1.9-1.2c-0.5-0.6-0.8-1.4-0.8-2.4c0-1.3,0.5-2.4,1.6-3.2s2.6-1.2,4.5-1.2c1,0,1.9,0.1,2.9,0.3
	c1,0.2,1.7,0.5,2.3,0.9l-1.2,2.5c-1.2-0.7-2.5-1-4-1c-1,0-1.7,0.1-2.2,0.4c-0.5,0.3-0.7,0.7-0.7,1.1c0,0.5,0.3,0.9,0.8,1.1
	c0.5,0.2,1.4,0.4,2.5,0.6c1.1,0.2,2,0.4,2.7,0.6c0.7,0.2,1.3,0.6,1.8,1.1s0.8,1.3,0.8,2.3c0,1.3-0.6,2.3-1.7,3.1
	C387.3-53.3,385.8-52.9,383.8-52.9z M401.3-53.8c-0.4,0.3-0.9,0.5-1.4,0.7s-1.1,0.2-1.7,0.2c-1.5,0-2.7-0.4-3.5-1.2s-1.2-2-1.2-3.5
	v-6.7h-2.3v-2.6h2.3v-3.2h3.3v3.2h3.7v2.6h-3.7v6.6c0,0.7,0.2,1.2,0.5,1.6c0.3,0.3,0.8,0.5,1.4,0.5c0.7,0,1.3-0.2,1.8-0.6
	L401.3-53.8z M409.3-67.1c2,0,3.6,0.5,4.7,1.5s1.6,2.4,1.6,4.4v8.2h-3.1v-1.7c-0.4,0.6-1,1.1-1.7,1.4c-0.7,0.3-1.6,0.5-2.7,0.5
	c-1,0-2-0.2-2.7-0.5c-0.8-0.4-1.4-0.9-1.8-1.5S403-56.2,403-57c0-1.2,0.5-2.2,1.4-3s2.4-1.1,4.4-1.1h3.6v-0.2c0-1-0.3-1.7-0.9-2.2
	s-1.4-0.8-2.6-0.8c-0.8,0-1.6,0.1-2.3,0.4c-0.7,0.2-1.4,0.6-1.9,1l-1.3-2.4c0.7-0.6,1.6-1,2.6-1.3C407-67,408.1-67.1,409.3-67.1z
	 M408.8-55.3c0.8,0,1.5-0.2,2.2-0.5c0.6-0.4,1.1-0.9,1.4-1.6V-59H409c-1.9,0-2.8,0.6-2.8,1.8c0,0.6,0.2,1.1,0.7,1.4
	S408-55.3,408.8-55.3z M426.3-52.9c-1.4,0-2.7-0.3-3.9-0.9c-1.1-0.6-2-1.4-2.7-2.5c-0.6-1.1-1-2.3-1-3.7s0.3-2.6,1-3.7
	c0.6-1.1,1.5-1.9,2.7-2.5c1.1-0.6,2.4-0.9,3.9-0.9c1.4,0,2.6,0.3,3.6,0.8c1,0.6,1.8,1.4,2.3,2.4l-2.5,1.5c-0.4-0.6-0.9-1.1-1.5-1.4
	s-1.2-0.5-2-0.5c-1.2,0-2.2,0.4-3,1.2s-1.2,1.8-1.2,3.2c0,1.3,0.4,2.4,1.2,3.2c0.8,0.8,1.8,1.2,3,1.2c0.7,0,1.4-0.2,2-0.5
	s1.1-0.8,1.5-1.5l2.5,1.5c-0.5,1-1.3,1.8-2.4,2.4C428.8-53.2,427.6-52.9,426.3-52.9z M440.6-59l-2.4,2.3v3.7h-3.3v-19.3h3.3v11.7
	l6.7-6.2h3.9L443-61l6.4,8.1h-4L440.6-59z M459-71.3h8c1.9,0,3.7,0.4,5.2,1.1s2.7,1.8,3.5,3.2c0.8,1.4,1.2,3,1.2,4.8
	s-0.4,3.4-1.2,4.8c-0.8,1.4-2,2.4-3.5,3.2c-1.5,0.7-3.2,1.1-5.2,1.1h-8V-71.3z M466.8-55.9c1.3,0,2.5-0.3,3.5-0.8s1.8-1.2,2.3-2.2
	c0.6-1,0.8-2.1,0.8-3.3s-0.3-2.3-0.8-3.3s-1.3-1.7-2.3-2.2s-2.2-0.8-3.5-0.8h-4.4V-56L466.8-55.9L466.8-55.9z M493.2-60
	c0,0.2,0,0.5-0.1,1h-10.9c0.2,1,0.7,1.8,1.5,2.4c0.8,0.6,1.8,0.9,3,0.9c1.5,0,2.8-0.5,3.8-1.5l1.7,2c-0.6,0.7-1.4,1.3-2.4,1.7
	s-2,0.6-3.2,0.6c-1.5,0-2.9-0.3-4-0.9c-1.2-0.6-2.1-1.4-2.7-2.5S479-58.6,479-60s0.3-2.6,0.9-3.6c0.6-1.1,1.5-1.9,2.6-2.6
	c1.1-0.6,2.3-0.9,3.7-0.9c1.4,0,2.6,0.3,3.6,0.9c1.1,0.6,1.9,1.4,2.5,2.5C492.9-62.6,493.2-61.4,493.2-60z M486.2-64.5
	c-1,0-1.9,0.3-2.7,0.9c-0.7,0.6-1.1,1.4-1.3,2.4h7.9c-0.1-1-0.6-1.8-1.3-2.4C488.2-64.2,487.3-64.5,486.2-64.5z M509.1-67l-6,13.9
	h-3.4l-6-13.9h3.4l4.3,10.3L506-67H509.1z M523.9-60c0,0.2,0,0.5-0.1,1h-10.9c0.2,1,0.7,1.8,1.5,2.4c0.8,0.6,1.8,0.9,3,0.9
	c1.5,0,2.8-0.5,3.8-1.5l1.7,2c-0.6,0.7-1.4,1.3-2.4,1.7s-2,0.6-3.2,0.6c-1.5,0-2.9-0.3-4-0.9c-1.2-0.6-2.1-1.4-2.7-2.5
	s-0.9-2.3-0.9-3.7s0.3-2.6,0.9-3.6c0.6-1.1,1.5-1.9,2.6-2.6c1.1-0.6,2.3-0.9,3.7-0.9s2.6,0.3,3.6,0.9c1.1,0.6,1.9,1.4,2.5,2.5
	C523.6-62.6,523.9-61.4,523.9-60z M516.8-64.5c-1,0-1.9,0.3-2.7,0.9c-0.7,0.6-1.1,1.4-1.3,2.4h7.9c-0.1-1-0.6-1.8-1.3-2.4
	C518.8-64.2,517.9-64.5,516.8-64.5z M527-72.4h3.3v19.3H527V-72.4z M540.8-52.9c-1.4,0-2.7-0.3-3.8-0.9c-1.1-0.6-2-1.4-2.7-2.5
	c-0.6-1.1-0.9-2.3-0.9-3.7s0.3-2.6,0.9-3.7c0.6-1.1,1.5-1.9,2.7-2.5c1.1-0.6,2.4-0.9,3.8-0.9c1.4,0,2.7,0.3,3.8,0.9s2,1.4,2.6,2.5
	s1,2.3,1,3.7s-0.3,2.6-1,3.7c-0.6,1.1-1.5,1.9-2.6,2.5C543.5-53.2,542.2-52.9,540.8-52.9z M540.8-55.7c1.2,0,2.2-0.4,3-1.2
	s1.2-1.8,1.2-3.2c0-1.3-0.4-2.4-1.2-3.2c-0.8-0.8-1.8-1.2-3-1.2s-2.2,0.4-3,1.2s-1.1,1.8-1.1,3.2c0,1.3,0.4,2.4,1.1,3.2
	C538.6-56.1,539.6-55.7,540.8-55.7z M559-67.1c1.4,0,2.6,0.3,3.6,0.9c1.1,0.6,1.9,1.4,2.5,2.5s0.9,2.3,0.9,3.7s-0.3,2.7-0.9,3.7
	c-0.6,1.1-1.4,1.9-2.5,2.5s-2.3,0.9-3.6,0.9c-1.9,0-3.4-0.6-4.5-1.9v6.7h-3.3v-19h3.1v1.8c0.5-0.7,1.2-1.2,2-1.5
	C557.2-67,558-67.1,559-67.1z M558.6-55.7c1.2,0,2.2-0.4,2.9-1.2c0.8-0.8,1.2-1.8,1.2-3.2c0-1.3-0.4-2.4-1.2-3.2
	c-0.8-0.8-1.7-1.2-2.9-1.2c-0.8,0-1.5,0.2-2.1,0.5c-0.6,0.3-1.1,0.9-1.5,1.5c-0.4,0.7-0.5,1.4-0.5,2.3c0,0.9,0.2,1.6,0.5,2.3
	c0.4,0.7,0.9,1.2,1.5,1.5C557.2-55.9,557.9-55.7,558.6-55.7z M582.2-60c0,0.2,0,0.5-0.1,1h-10.9c0.2,1,0.7,1.8,1.5,2.4
	c0.8,0.6,1.8,0.9,3,0.9c1.5,0,2.8-0.5,3.8-1.5l1.7,2c-0.6,0.7-1.4,1.3-2.4,1.7s-2,0.6-3.2,0.6c-1.5,0-2.9-0.3-4-0.9
	c-1.2-0.6-2.1-1.4-2.7-2.5c-0.6-1.1-0.9-2.3-0.9-3.7s0.3-2.6,0.9-3.6c0.6-1.1,1.5-1.9,2.6-2.6c1.1-0.6,2.3-0.9,3.7-0.9
	s2.6,0.3,3.6,0.9c1.1,0.6,1.9,1.4,2.5,2.5C581.9-62.6,582.2-61.4,582.2-60z M575.2-64.5c-1,0-1.9,0.3-2.7,0.9
	c-0.7,0.6-1.1,1.4-1.3,2.4h7.9c-0.1-1-0.6-1.8-1.3-2.4C577.1-64.2,576.2-64.5,575.2-64.5z M588.4-65c0.9-1.5,2.6-2.2,4.9-2.2v3.1
	c-0.3-0.1-0.5-0.1-0.8-0.1c-1.3,0-2.3,0.4-3,1.1c-0.7,0.7-1.1,1.8-1.1,3.2v6.7h-3.3V-67h3.1v2H588.4z M605-58.2
	c-0.6,0-1.1-0.2-1.5-0.6c-0.4-0.4-0.6-0.9-0.6-1.6c0-0.6,0.2-1.1,0.6-1.5c0.4-0.4,0.9-0.6,1.5-0.6s1.1,0.2,1.5,0.6
	c0.4,0.4,0.6,0.9,0.6,1.6c0,0.7-0.2,1.2-0.6,1.6C606.2-58.4,605.7-58.2,605-58.2z M624-52.8c-1.4,0-2.8-0.2-4.1-0.6
	c-1.3-0.4-2.3-0.9-3.1-1.6l1.2-2.6c0.7,0.6,1.7,1.1,2.7,1.5c1.1,0.4,2.2,0.5,3.3,0.5c1.4,0,2.4-0.2,3-0.7c0.7-0.4,1-1,1-1.7
	c0-0.5-0.2-0.9-0.6-1.3c-0.4-0.3-0.8-0.6-1.4-0.8c-0.6-0.2-1.4-0.4-2.3-0.7c-1.4-0.3-2.5-0.7-3.4-1s-1.6-0.8-2.2-1.5
	c-0.6-0.7-0.9-1.7-0.9-2.9c0-1,0.3-1.9,0.8-2.7c0.6-0.8,1.4-1.5,2.5-2s2.5-0.7,4.1-0.7c1.1,0,2.2,0.1,3.3,0.4s2,0.7,2.8,1.2
	l-1.1,2.6c-0.8-0.5-1.6-0.8-2.5-1.1c-0.9-0.2-1.7-0.4-2.5-0.4c-1.3,0-2.3,0.2-3,0.7c-0.6,0.5-1,1.1-1,1.8c0,0.5,0.2,0.9,0.5,1.3
	c0.4,0.3,0.9,0.6,1.4,0.8c0.6,0.2,1.4,0.4,2.3,0.7c1.4,0.3,2.5,0.6,3.3,1c0.9,0.3,1.6,0.8,2.2,1.5c0.6,0.7,0.9,1.6,0.9,2.8
	c0,1-0.3,1.9-0.8,2.7s-1.4,1.5-2.5,2C627-53.1,625.6-52.8,624-52.8z M639.8-67.1c2,0,3.6,0.5,4.7,1.5c1.1,1,1.6,2.4,1.6,4.4v8.2H643
	v-1.7c-0.4,0.6-1,1.1-1.7,1.4c-0.7,0.3-1.6,0.5-2.7,0.5c-1,0-2-0.2-2.7-0.5c-0.8-0.4-1.4-0.9-1.8-1.5c-0.4-0.6-0.6-1.4-0.6-2.2
	c0-1.2,0.5-2.2,1.4-3s2.4-1.1,4.4-1.1h3.6v-0.2c0-1-0.3-1.7-0.9-2.2c-0.6-0.5-1.4-0.8-2.6-0.8c-0.8,0-1.6,0.1-2.3,0.4
	c-0.7,0.2-1.4,0.6-1.9,1l-1.3-2.4c0.7-0.6,1.6-1,2.6-1.3C637.5-67,638.6-67.1,639.8-67.1z M639.3-55.3c0.8,0,1.5-0.2,2.2-0.5
	c0.6-0.4,1.1-0.9,1.4-1.6V-59h-3.4c-1.9,0-2.8,0.6-2.8,1.8c0,0.6,0.2,1.1,0.7,1.4C637.8-55.4,638.5-55.3,639.3-55.3z M653.4-65
	c0.9-1.5,2.6-2.2,4.9-2.2v3.1c-0.3-0.1-0.5-0.1-0.8-0.1c-1.3,0-2.3,0.4-3,1.1c-0.7,0.7-1.1,1.8-1.1,3.2v6.7h-3.3V-67h3.1v2H653.4z
	 M666.3-67.1c2,0,3.6,0.5,4.7,1.5c1.1,1,1.6,2.4,1.6,4.4v8.2h-3.1v-1.7c-0.4,0.6-1,1.1-1.7,1.4c-0.7,0.3-1.6,0.5-2.7,0.5
	c-1,0-2-0.2-2.7-0.5c-0.8-0.4-1.4-0.9-1.8-1.5c-0.4-0.6-0.6-1.4-0.6-2.2c0-1.2,0.5-2.2,1.4-3s2.4-1.1,4.4-1.1h3.6v-0.2
	c0-1-0.3-1.7-0.9-2.2c-0.6-0.5-1.4-0.8-2.6-0.8c-0.8,0-1.6,0.1-2.3,0.4c-0.7,0.2-1.4,0.6-1.9,1l-1.3-2.4c0.7-0.6,1.6-1,2.6-1.3
	C664.1-67,665.2-67.1,666.3-67.1z M665.9-55.3c0.8,0,1.5-0.2,2.2-0.5c0.6-0.4,1.1-0.9,1.4-1.6V-59H666c-1.9,0-2.8,0.6-2.8,1.8
	c0,0.6,0.2,1.1,0.7,1.4C664.4-55.4,665-55.3,665.9-55.3z M690-52.8c-1.4,0-2.8-0.2-4.1-0.6c-1.3-0.4-2.3-0.9-3.1-1.6l1.2-2.6
	c0.7,0.6,1.7,1.1,2.7,1.5c1.1,0.4,2.2,0.5,3.3,0.5c1.4,0,2.4-0.2,3-0.7c0.7-0.4,1-1,1-1.7c0-0.5-0.2-0.9-0.6-1.3
	c-0.4-0.3-0.8-0.6-1.4-0.8c-0.6-0.2-1.4-0.4-2.3-0.7c-1.4-0.3-2.5-0.7-3.4-1s-1.6-0.8-2.2-1.5c-0.6-0.7-0.9-1.7-0.9-2.9
	c0-1,0.3-1.9,0.8-2.7c0.6-0.8,1.4-1.5,2.5-2s2.5-0.7,4.1-0.7c1.1,0,2.2,0.1,3.3,0.4s2,0.7,2.8,1.2l-1.1,2.6
	c-0.8-0.5-1.6-0.8-2.5-1.1c-0.9-0.2-1.7-0.4-2.5-0.4c-1.3,0-2.3,0.2-3,0.7c-0.6,0.5-1,1.1-1,1.8c0,0.5,0.2,0.9,0.5,1.3
	c0.4,0.3,0.9,0.6,1.4,0.8c0.6,0.2,1.4,0.4,2.3,0.7c1.4,0.3,2.5,0.6,3.3,1c0.9,0.3,1.6,0.8,2.2,1.5c0.6,0.7,0.9,1.6,0.9,2.8
	c0,1-0.3,1.9-0.8,2.7s-1.4,1.5-2.5,2C692.9-53.1,691.6-52.8,690-52.8z M713.1-67l-6,13.9h-3.4l-6-13.9h3.4l4.3,10.3L710-67H713.1z
	 M727.9-60c0,0.2,0,0.5-0.1,1h-10.9c0.2,1,0.7,1.8,1.5,2.4c0.8,0.6,1.8,0.9,3,0.9c1.5,0,2.8-0.5,3.8-1.5l1.7,2
	c-0.6,0.7-1.4,1.3-2.4,1.7s-2,0.6-3.2,0.6c-1.5,0-2.9-0.3-4-0.9c-1.2-0.6-2.1-1.4-2.7-2.5c-0.6-1.1-0.9-2.3-0.9-3.7s0.3-2.6,0.9-3.6
	c0.6-1.1,1.5-1.9,2.6-2.6c1.1-0.6,2.3-0.9,3.7-0.9s2.6,0.3,3.6,0.9c1.1,0.6,1.9,1.4,2.5,2.5C727.6-62.6,727.9-61.4,727.9-60z
	 M720.8-64.5c-1,0-1.9,0.3-2.7,0.9c-0.7,0.6-1.1,1.4-1.3,2.4h7.9c-0.1-1-0.6-1.8-1.3-2.4C722.8-64.2,721.9-64.5,720.8-64.5z
	 M738.9-67.1c1.8,0,3.2,0.5,4.2,1.5c1.1,1,1.6,2.5,1.6,4.6v8h-3.3v-7.6c0-1.2-0.3-2.1-0.9-2.7c-0.6-0.6-1.4-0.9-2.4-0.9
	c-1.2,0-2.1,0.4-2.8,1.1c-0.7,0.7-1,1.7-1,3.1v7H731v-14h3.1v1.8c0.5-0.6,1.2-1.1,2-1.5C736.9-67,737.9-67.1,738.9-67.1z
	 M753.1-52.9c-1.1,0-2.2-0.1-3.3-0.4s-1.9-0.7-2.6-1.1l1.2-2.5c0.6,0.4,1.4,0.8,2.2,1c0.9,0.2,1.8,0.4,2.6,0.4
	c1.9,0,2.9-0.5,2.9-1.5c0-0.5-0.3-0.8-0.8-1s-1.3-0.4-2.4-0.5c-1.1-0.2-2.1-0.4-2.8-0.6c-0.7-0.2-1.3-0.6-1.9-1.2
	c-0.5-0.6-0.8-1.4-0.8-2.4c0-1.3,0.5-2.4,1.6-3.2s2.6-1.2,4.5-1.2c1,0,1.9,0.1,2.9,0.3c1,0.2,1.7,0.5,2.3,0.9l-1.2,2.5
	c-1.2-0.7-2.5-1-4-1c-1,0-1.7,0.1-2.2,0.4c-0.5,0.3-0.7,0.7-0.7,1.1c0,0.5,0.3,0.9,0.8,1.1c0.5,0.2,1.4,0.4,2.5,0.6
	c1.1,0.2,2,0.4,2.7,0.6c0.7,0.2,1.3,0.6,1.8,1.1s0.8,1.3,0.8,2.3c0,1.3-0.6,2.3-1.7,3.1C756.6-53.3,755.1-52.9,753.1-52.9z
	 M766.5-52.9c-1.1,0-2.2-0.1-3.3-0.4c-1.1-0.3-1.9-0.7-2.6-1.1l1.2-2.5c0.6,0.4,1.4,0.8,2.2,1c0.9,0.2,1.8,0.4,2.6,0.4
	c1.9,0,2.9-0.5,2.9-1.5c0-0.5-0.3-0.8-0.8-1s-1.3-0.4-2.4-0.5c-1.1-0.2-2.1-0.4-2.8-0.6c-0.7-0.2-1.3-0.6-1.9-1.2
	c-0.5-0.6-0.8-1.4-0.8-2.4c0-1.3,0.5-2.4,1.6-3.2s2.6-1.2,4.5-1.2c1,0,1.9,0.1,2.9,0.3c1,0.2,1.7,0.5,2.3,0.9l-1.2,2.5
	c-1.2-0.7-2.5-1-4-1c-1,0-1.7,0.1-2.2,0.4c-0.5,0.3-0.7,0.7-0.7,1.1c0,0.5,0.3,0.9,0.8,1.1c0.5,0.2,1.4,0.4,2.5,0.6
	c1.1,0.2,2,0.4,2.7,0.6c0.7,0.2,1.3,0.6,1.8,1.1s0.8,1.3,0.8,2.3c0,1.3-0.6,2.3-1.7,3.1C770-53.3,768.5-52.9,766.5-52.9z
	 M781.9-52.9c-1.4,0-2.7-0.3-3.8-0.9c-1.1-0.6-2-1.4-2.7-2.5c-0.6-1.1-0.9-2.3-0.9-3.7s0.3-2.6,0.9-3.7c0.6-1.1,1.5-1.9,2.7-2.5
	c1.1-0.6,2.4-0.9,3.8-0.9c1.4,0,2.7,0.3,3.8,0.9s2,1.4,2.6,2.5s1,2.3,1,3.7s-0.3,2.6-1,3.7c-0.6,1.1-1.5,1.9-2.6,2.5
	C784.6-53.2,783.3-52.9,781.9-52.9z M781.9-55.7c1.2,0,2.2-0.4,3-1.2s1.2-1.8,1.2-3.2c0-1.3-0.4-2.4-1.2-3.2c-0.8-0.8-1.8-1.2-3-1.2
	s-2.2,0.4-3,1.2s-1.1,1.8-1.1,3.2c0,1.3,0.4,2.4,1.1,3.2C779.7-56.1,780.7-55.7,781.9-55.7z M800.3-67.1c1.8,0,3.2,0.5,4.2,1.5
	c1.1,1,1.6,2.5,1.6,4.6v8h-3.3v-7.6c0-1.2-0.3-2.1-0.9-2.7c-0.6-0.6-1.4-0.9-2.4-0.9c-1.2,0-2.1,0.4-2.8,1.1c-0.7,0.7-1,1.7-1,3.1v7
	h-3.3v-14h3.1v1.8c0.5-0.6,1.2-1.1,2-1.5C798.3-67,799.3-67.1,800.3-67.1z M819-58.2c-0.6,0-1.1-0.2-1.5-0.6
	c-0.4-0.4-0.6-0.9-0.6-1.6c0-0.6,0.2-1.1,0.6-1.5c0.4-0.4,0.9-0.6,1.5-0.6s1.1,0.2,1.5,0.6c0.4,0.4,0.6,0.9,0.6,1.6
	c0,0.7-0.2,1.2-0.6,1.6C820.1-58.4,819.6-58.2,819-58.2z M835.7-68.5v5.5h8.8v2.9h-8.8v7h-3.4v-18.2h13.3v2.8H835.7z M861.7-67v13.9
	h-3.1v-1.8c-0.5,0.6-1.2,1.1-2,1.5c-0.8,0.3-1.6,0.5-2.5,0.5c-1.9,0-3.3-0.5-4.4-1.5c-1.1-1-1.6-2.6-1.6-4.6v-8h3.3v7.5
	c0,1.2,0.3,2.2,0.8,2.8c0.6,0.6,1.4,0.9,2.4,0.9c1.2,0,2.1-0.4,2.8-1.1c0.7-0.7,1-1.8,1-3.1v-7H861.7z M865.9-72.4h3.3v19.3h-3.3
	V-72.4z M873.5-72.4h3.3v19.3h-3.3V-72.4z M885.3-52.9c-1.1,0-2.2-0.1-3.3-0.4c-1.1-0.3-1.9-0.7-2.6-1.1l1.2-2.5
	c0.6,0.4,1.4,0.8,2.2,1c0.9,0.2,1.8,0.4,2.6,0.4c1.9,0,2.9-0.5,2.9-1.5c0-0.5-0.3-0.8-0.8-1s-1.3-0.4-2.4-0.5
	c-1.1-0.2-2.1-0.4-2.8-0.6c-0.7-0.2-1.3-0.6-1.9-1.2c-0.5-0.6-0.8-1.4-0.8-2.4c0-1.3,0.5-2.4,1.6-3.2s2.6-1.2,4.5-1.2
	c1,0,1.9,0.1,2.9,0.3c1,0.2,1.7,0.5,2.3,0.9l-1.2,2.5c-1.2-0.7-2.5-1-4-1c-1,0-1.7,0.1-2.2,0.4c-0.5,0.3-0.7,0.7-0.7,1.1
	c0,0.5,0.3,0.9,0.8,1.1c0.5,0.2,1.4,0.4,2.5,0.6c1.1,0.2,2,0.4,2.7,0.6c0.7,0.2,1.3,0.6,1.8,1.1s0.8,1.3,0.8,2.3
	c0,1.3-0.6,2.3-1.7,3.1C888.8-53.3,887.2-52.9,885.3-52.9z M902.8-53.8c-0.4,0.3-0.9,0.5-1.4,0.7s-1.1,0.2-1.7,0.2
	c-1.5,0-2.7-0.4-3.5-1.2s-1.2-2-1.2-3.5v-6.7h-2.3v-2.6h2.3v-3.2h3.3v3.2h3.7v2.6h-3.7v6.6c0,0.7,0.2,1.2,0.5,1.6
	c0.3,0.3,0.8,0.5,1.4,0.5c0.7,0,1.3-0.2,1.8-0.6L902.8-53.8z M910.7-67.1c2,0,3.6,0.5,4.7,1.5c1.1,1,1.6,2.4,1.6,4.4v8.2h-3v-1.7
	c-0.4,0.6-1,1.1-1.7,1.4c-0.7,0.3-1.6,0.5-2.7,0.5c-1,0-2-0.2-2.7-0.5c-0.8-0.4-1.4-0.9-1.8-1.5c-0.4-0.6-0.6-1.4-0.6-2.2
	c0-1.2,0.5-2.2,1.4-3s2.4-1.1,4.4-1.1h3.6v-0.2c0-1-0.3-1.7-0.9-2.2c-0.6-0.5-1.4-0.8-2.6-0.8c-0.8,0-1.6,0.1-2.3,0.4
	c-0.7,0.2-1.4,0.6-1.9,1l-1.3-2.4c0.7-0.6,1.6-1,2.6-1.3C908.5-67,909.6-67.1,910.7-67.1z M910.3-55.3c0.8,0,1.5-0.2,2.2-0.5
	c0.6-0.4,1.1-0.9,1.4-1.6V-59h-3.4c-1.9,0-2.8,0.6-2.8,1.8c0,0.6,0.2,1.1,0.7,1.4C908.8-55.4,909.5-55.3,910.3-55.3z M927.8-52.9
	c-1.4,0-2.7-0.3-3.9-0.9c-1.1-0.6-2-1.4-2.7-2.5c-0.6-1.1-1-2.3-1-3.7s0.3-2.6,1-3.7c0.6-1.1,1.5-1.9,2.7-2.5
	c1.1-0.6,2.4-0.9,3.9-0.9c1.4,0,2.6,0.3,3.6,0.8c1,0.6,1.8,1.4,2.3,2.4l-2.5,1.5c-0.4-0.6-0.9-1.1-1.5-1.4s-1.2-0.5-2-0.5
	c-1.2,0-2.2,0.4-3,1.2s-1.2,1.8-1.2,3.2c0,1.3,0.4,2.4,1.2,3.2s1.8,1.2,3,1.2c0.7,0,1.4-0.2,2-0.5s1.1-0.8,1.5-1.5l2.5,1.5
	c-0.5,1-1.3,1.8-2.4,2.4C930.3-53.2,929.1-52.9,927.8-52.9z M942.1-59l-2.4,2.3v3.7h-3.3v-19.3h3.3v11.7l6.7-6.2h3.9l-5.8,5.8
	l6.4,8.1h-4L942.1-59z M960.4-71.3h8c1.9,0,3.7,0.4,5.2,1.1s2.7,1.8,3.5,3.2c0.8,1.4,1.2,3,1.2,4.8s-0.4,3.4-1.2,4.8
	c-0.8,1.4-2,2.4-3.5,3.2c-1.5,0.7-3.2,1.1-5.2,1.1h-8V-71.3z M968.2-55.9c1.3,0,2.5-0.3,3.5-0.8s1.8-1.2,2.3-2.2
	c0.6-1,0.8-2.1,0.8-3.3s-0.3-2.3-0.8-3.3s-1.3-1.7-2.3-2.2s-2.2-0.8-3.5-0.8h-4.4V-56L968.2-55.9L968.2-55.9z M994.7-60
	c0,0.2,0,0.5-0.1,1h-10.9c0.2,1,0.7,1.8,1.5,2.4c0.8,0.6,1.8,0.9,3,0.9c1.5,0,2.8-0.5,3.8-1.5l1.7,2c-0.6,0.7-1.4,1.3-2.4,1.7
	s-2,0.6-3.2,0.6c-1.5,0-2.9-0.3-4-0.9c-1.2-0.6-2.1-1.4-2.7-2.5c-0.6-1.1-0.9-2.3-0.9-3.7s0.3-2.6,0.9-3.6c0.6-1.1,1.5-1.9,2.6-2.6
	c1.1-0.6,2.3-0.9,3.7-0.9s2.6,0.3,3.6,0.9c1.1,0.6,1.9,1.4,2.5,2.5C994.4-62.6,994.7-61.4,994.7-60z M987.7-64.5
	c-1,0-1.9,0.3-2.7,0.9c-0.7,0.6-1.1,1.4-1.3,2.4h7.9c-0.1-1-0.6-1.8-1.3-2.4C989.6-64.2,988.7-64.5,987.7-64.5z M1010.6-67l-6,13.9
	h-3.4l-6-13.9h3.4l4.3,10.3l4.5-10.3H1010.6z M1025.3-60c0,0.2,0,0.5,0,1h-10.9c0.2,1,0.7,1.8,1.5,2.4c0.8,0.6,1.8,0.9,3,0.9
	c1.5,0,2.8-0.5,3.8-1.5l1.8,2c-0.6,0.7-1.4,1.3-2.4,1.7s-2,0.6-3.2,0.6c-1.5,0-2.9-0.3-4-0.9c-1.2-0.6-2.1-1.4-2.7-2.5
	c-0.6-1.1-0.9-2.3-0.9-3.7s0.3-2.6,0.9-3.6c0.6-1.1,1.5-1.9,2.6-2.6c1.1-0.6,2.3-0.9,3.7-0.9s2.6,0.3,3.6,0.9
	c1.1,0.6,1.9,1.4,2.5,2.5C1025-62.6,1025.3-61.4,1025.3-60z M1018.3-64.5c-1,0-1.9,0.3-2.6,0.9c-0.7,0.6-1.2,1.4-1.3,2.4h7.9
	c-0.1-1-0.6-1.8-1.3-2.4C1020.2-64.2,1019.3-64.5,1018.3-64.5z M1028.4-72.4h3.3v19.3h-3.3V-72.4z M1042.2-52.9
	c-1.4,0-2.7-0.3-3.8-0.9c-1.1-0.6-2-1.4-2.7-2.5c-0.6-1.1-0.9-2.3-0.9-3.7s0.3-2.6,0.9-3.7c0.6-1.1,1.5-1.9,2.7-2.5
	c1.1-0.6,2.4-0.9,3.8-0.9s2.7,0.3,3.8,0.9c1.1,0.6,2,1.4,2.6,2.5s1,2.3,1,3.7s-0.3,2.6-1,3.7c-0.6,1.1-1.5,1.9-2.6,2.5
	C1044.9-53.2,1043.7-52.9,1042.2-52.9z M1042.2-55.7c1.2,0,2.2-0.4,3-1.2s1.2-1.8,1.2-3.2c0-1.3-0.4-2.4-1.2-3.2
	c-0.8-0.8-1.8-1.2-3-1.2s-2.2,0.4-3,1.2s-1.2,1.8-1.2,3.2c0,1.3,0.4,2.4,1.2,3.2C1040-56.1,1041-55.7,1042.2-55.7z M1060.5-67.1
	c1.3,0,2.6,0.3,3.6,0.9c1.1,0.6,1.9,1.4,2.5,2.5s0.9,2.3,0.9,3.7s-0.3,2.7-0.9,3.7c-0.6,1.1-1.4,1.9-2.5,2.5s-2.3,0.9-3.6,0.9
	c-1.9,0-3.4-0.6-4.5-1.9v6.7h-3.2v-19h3.1v1.8c0.5-0.7,1.2-1.2,2-1.5C1058.6-67,1059.5-67.1,1060.5-67.1z M1060.1-55.7
	c1.2,0,2.2-0.4,3-1.2s1.2-1.8,1.2-3.2c0-1.3-0.4-2.4-1.2-3.2c-0.8-0.8-1.8-1.2-3-1.2c-0.8,0-1.5,0.2-2.1,0.5
	c-0.6,0.3-1.1,0.9-1.5,1.5c-0.4,0.7-0.6,1.4-0.6,2.3c0,0.9,0.2,1.6,0.6,2.3s0.9,1.2,1.5,1.5C1058.6-55.9,1059.3-55.7,1060.1-55.7z
	 M1083.7-60c0,0.2,0,0.5-0.1,1h-10.9c0.2,1,0.7,1.8,1.5,2.4c0.8,0.6,1.8,0.9,3,0.9c1.5,0,2.8-0.5,3.8-1.5l1.7,2
	c-0.6,0.7-1.4,1.3-2.4,1.7c-0.9,0.4-2,0.6-3.2,0.6c-1.5,0-2.9-0.3-4-0.9c-1.2-0.6-2.1-1.4-2.7-2.5s-0.9-2.3-0.9-3.7s0.3-2.6,0.9-3.6
	c0.6-1.1,1.5-1.9,2.6-2.6c1.1-0.6,2.3-0.9,3.7-0.9c1.4,0,2.6,0.3,3.6,0.9c1.1,0.6,1.9,1.4,2.5,2.5
	C1083.4-62.6,1083.7-61.4,1083.7-60z M1076.7-64.5c-1,0-1.9,0.3-2.7,0.9c-0.7,0.6-1.2,1.4-1.3,2.4h7.9c-0.1-1-0.6-1.8-1.3-2.4
	C1078.6-64.2,1077.7-64.5,1076.7-64.5z M1089.9-65c0.9-1.5,2.6-2.2,4.9-2.2v3.1c-0.3-0.1-0.5-0.1-0.8-0.1c-1.3,0-2.3,0.4-3,1.1
	c-0.7,0.7-1.1,1.8-1.1,3.2v6.7h-3.2V-67h3.1L1089.9-65L1089.9-65z"/>
<path class="st2" d="M-378.9,252.3c-1.4,0-2.8-0.2-4.1-0.6c-1.3-0.4-2.3-0.9-3.1-1.6l1.2-2.6c0.7,0.6,1.7,1.1,2.7,1.5
	c1.1,0.4,2.2,0.5,3.3,0.5c1.4,0,2.4-0.2,3-0.7c0.7-0.4,1-1,1-1.7c0-0.5-0.2-0.9-0.6-1.3c-0.4-0.3-0.8-0.6-1.4-0.8s-1.4-0.4-2.3-0.7
	c-1.4-0.3-2.5-0.7-3.4-1s-1.6-0.8-2.2-1.5s-0.9-1.7-0.9-2.9c0-1,0.3-1.9,0.8-2.7c0.6-0.8,1.4-1.5,2.5-2s2.5-0.7,4.1-0.7
	c1.1,0,2.2,0.1,3.3,0.4c1.1,0.3,2,0.7,2.8,1.2l-1.1,2.6c-0.8-0.5-1.6-0.8-2.5-1.1c-0.9-0.2-1.7-0.4-2.5-0.4c-1.3,0-2.3,0.2-3,0.7
	c-0.6,0.5-1,1.1-1,1.8c0,0.5,0.2,0.9,0.5,1.3c0.4,0.3,0.9,0.6,1.4,0.8c0.6,0.2,1.4,0.4,2.3,0.7c1.4,0.3,2.5,0.6,3.3,1
	c0.9,0.3,1.6,0.8,2.2,1.5s0.9,1.6,0.9,2.8c0,1-0.3,1.9-0.8,2.7s-1.4,1.5-2.5,2C-376,252.1-377.3,252.3-378.9,252.3z M-363.2,238
	c2,0,3.6,0.5,4.7,1.5s1.6,2.4,1.6,4.4v8.2h-3.1v-1.7c-0.4,0.6-1,1.1-1.7,1.4c-0.7,0.3-1.6,0.5-2.7,0.5c-1,0-2-0.2-2.7-0.5
	c-0.8-0.4-1.4-0.9-1.8-1.5s-0.6-1.4-0.6-2.2c0-1.2,0.5-2.2,1.4-3s2.4-1.1,4.4-1.1h3.6v-0.2c0-1-0.3-1.7-0.9-2.2s-1.4-0.8-2.6-0.8
	c-0.8,0-1.6,0.1-2.3,0.4c-0.7,0.2-1.4,0.6-1.9,1l-1.3-2.4c0.7-0.6,1.6-1,2.6-1.3C-365.4,238.2-364.3,238-363.2,238z M-363.6,249.9
	c0.8,0,1.5-0.2,2.2-0.5c0.6-0.4,1.1-0.9,1.4-1.6v-1.6h-3.4c-1.9,0-2.8,0.6-2.8,1.8c0,0.6,0.2,1.1,0.7,1.4S-364.5,249.9-363.6,249.9z
	 M-349.6,240.2c0.9-1.5,2.6-2.2,4.9-2.2v3.1c-0.3-0.1-0.5-0.1-0.8-0.1c-1.3,0-2.3,0.4-3,1.1c-0.7,0.7-1.1,1.8-1.1,3.2v6.7h-3.3
	v-13.9h3.1v2.1H-349.6z M-336.6,238c2,0,3.6,0.5,4.7,1.5s1.6,2.4,1.6,4.4v8.2h-3.1v-1.7c-0.4,0.6-1,1.1-1.7,1.4
	c-0.7,0.3-1.6,0.5-2.7,0.5c-1,0-2-0.2-2.7-0.5c-0.8-0.4-1.4-0.9-1.8-1.5s-0.6-1.4-0.6-2.2c0-1.2,0.5-2.2,1.4-3s2.4-1.1,4.4-1.1h3.6
	v-0.2c0-1-0.3-1.7-0.9-2.2s-1.4-0.8-2.6-0.8c-0.8,0-1.6,0.1-2.3,0.4c-0.7,0.2-1.4,0.6-1.9,1l-1.3-2.4c0.7-0.6,1.6-1,2.6-1.3
	C-338.9,238.2-337.8,238-336.6,238z M-337.1,249.9c0.8,0,1.5-0.2,2.2-0.5c0.6-0.4,1.1-0.9,1.4-1.6v-1.6h-3.4c-1.9,0-2.8,0.6-2.8,1.8
	c0,0.6,0.2,1.1,0.7,1.4S-337.9,249.9-337.1,249.9z M-313,252.3c-1.4,0-2.8-0.2-4.1-0.6c-1.3-0.4-2.3-0.9-3.1-1.6l1.2-2.6
	c0.7,0.6,1.7,1.1,2.7,1.5c1.1,0.4,2.2,0.5,3.3,0.5c1.4,0,2.4-0.2,3-0.7c0.7-0.4,1-1,1-1.7c0-0.5-0.2-0.9-0.6-1.3
	c-0.4-0.3-0.8-0.6-1.4-0.8s-1.4-0.4-2.3-0.7c-1.4-0.3-2.5-0.7-3.4-1s-1.6-0.8-2.2-1.5s-0.9-1.7-0.9-2.9c0-1,0.3-1.9,0.8-2.7
	c0.6-0.8,1.4-1.5,2.5-2s2.5-0.7,4.1-0.7c1.1,0,2.2,0.1,3.3,0.4c1.1,0.3,2,0.7,2.8,1.2l-1.1,2.6c-0.8-0.5-1.6-0.8-2.5-1.1
	c-0.9-0.2-1.7-0.4-2.5-0.4c-1.3,0-2.3,0.2-3,0.7c-0.6,0.5-1,1.1-1,1.8c0,0.5,0.2,0.9,0.5,1.3c0.4,0.3,0.9,0.6,1.4,0.8
	c0.6,0.2,1.4,0.4,2.3,0.7c1.4,0.3,2.5,0.6,3.3,1c0.9,0.3,1.6,0.8,2.2,1.5s0.9,1.6,0.9,2.8c0,1-0.3,1.9-0.8,2.7s-1.4,1.5-2.5,2
	C-310,252.1-311.4,252.3-313,252.3z M-289.8,238.2l-6,13.9h-3.4l-6-13.9h3.4l4.3,10.3l4.5-10.3H-289.8z M-275.1,245.2
	c0,0.2,0,0.5-0.1,1H-286c0.2,1,0.7,1.8,1.5,2.4c0.8,0.6,1.8,0.9,3,0.9c1.5,0,2.8-0.5,3.8-1.5l1.7,2c-0.6,0.7-1.4,1.3-2.4,1.7
	s-2,0.6-3.2,0.6c-1.5,0-2.9-0.3-4-0.9c-1.2-0.6-2.1-1.4-2.7-2.5s-0.9-2.3-0.9-3.7s0.3-2.6,0.9-3.6c0.6-1.1,1.5-1.9,2.6-2.6
	c1.1-0.6,2.3-0.9,3.7-0.9c1.4,0,2.6,0.3,3.6,0.9c1.1,0.6,1.9,1.4,2.5,2.5C-275.4,242.5-275.1,243.8-275.1,245.2z M-282.1,240.6
	c-1,0-1.9,0.3-2.7,0.9c-0.7,0.6-1.1,1.4-1.3,2.4h7.9c-0.1-1-0.6-1.8-1.3-2.4C-280.2,240.9-281,240.6-282.1,240.6z M-264,238
	c1.8,0,3.2,0.5,4.2,1.5c1.1,1,1.6,2.5,1.6,4.6v8h-3.3v-7.6c0-1.2-0.3-2.1-0.9-2.7c-0.6-0.6-1.4-0.9-2.4-0.9c-1.2,0-2.1,0.4-2.8,1.1
	c-0.7,0.7-1,1.7-1,3.1v7h-3.3v-13.9h3.1v1.8c0.5-0.6,1.2-1.1,2-1.5C-266,238.2-265.1,238-264,238z M-249.8,252.3
	c-1.1,0-2.2-0.1-3.3-0.4c-1.1-0.3-1.9-0.7-2.6-1.1l1.2-2.5c0.6,0.4,1.4,0.8,2.2,1c0.9,0.2,1.8,0.4,2.6,0.4c1.9,0,2.9-0.5,2.9-1.5
	c0-0.5-0.3-0.8-0.8-1s-1.3-0.4-2.4-0.5c-1.1-0.2-2.1-0.4-2.8-0.6c-0.7-0.2-1.3-0.6-1.9-1.2c-0.5-0.6-0.8-1.4-0.8-2.4
	c0-1.3,0.5-2.4,1.6-3.2s2.6-1.2,4.5-1.2c1,0,1.9,0.1,2.9,0.3s1.7,0.5,2.3,0.9l-1.2,2.5c-1.2-0.7-2.5-1-4-1c-1,0-1.7,0.1-2.2,0.4
	c-0.5,0.3-0.7,0.7-0.7,1.1c0,0.5,0.3,0.9,0.8,1.1c0.5,0.2,1.4,0.4,2.5,0.6c1.1,0.2,2,0.4,2.7,0.6c0.7,0.2,1.3,0.6,1.8,1.1
	s0.8,1.3,0.8,2.3c0,1.3-0.6,2.3-1.7,3.1C-246.3,251.9-247.9,252.3-249.8,252.3z M-236.4,252.3c-1.1,0-2.2-0.1-3.3-0.4
	c-1.1-0.3-1.9-0.7-2.6-1.1l1.2-2.5c0.6,0.4,1.4,0.8,2.2,1c0.9,0.2,1.8,0.4,2.6,0.4c1.9,0,2.9-0.5,2.9-1.5c0-0.5-0.3-0.8-0.8-1
	s-1.3-0.4-2.4-0.5c-1.1-0.2-2.1-0.4-2.8-0.6c-0.7-0.2-1.3-0.6-1.9-1.2c-0.5-0.6-0.8-1.4-0.8-2.4c0-1.3,0.5-2.4,1.6-3.2
	s2.6-1.2,4.5-1.2c1,0,1.9,0.1,2.9,0.3s1.7,0.5,2.3,0.9l-1.2,2.5c-1.2-0.7-2.5-1-4-1c-1,0-1.7,0.1-2.2,0.4c-0.5,0.3-0.7,0.7-0.7,1.1
	c0,0.5,0.3,0.9,0.8,1.1c0.5,0.2,1.4,0.4,2.5,0.6c1.1,0.2,2,0.4,2.7,0.6c0.7,0.2,1.3,0.6,1.8,1.1s0.8,1.3,0.8,2.3
	c0,1.3-0.6,2.3-1.7,3.1C-232.9,251.9-234.5,252.3-236.4,252.3z M-221.1,252.3c-1.4,0-2.7-0.3-3.8-0.9c-1.1-0.6-2-1.4-2.7-2.5
	c-0.6-1.1-0.9-2.3-0.9-3.7s0.3-2.6,0.9-3.7c0.6-1.1,1.5-1.9,2.7-2.5c1.1-0.6,2.4-0.9,3.8-0.9c1.4,0,2.7,0.3,3.8,0.9
	c1.1,0.6,2,1.4,2.6,2.5s1,2.3,1,3.7s-0.3,2.6-1,3.7c-0.6,1.1-1.5,1.9-2.6,2.5C-218.4,252-219.6,252.3-221.1,252.3z M-221.1,249.5
	c1.2,0,2.2-0.4,3-1.2s1.2-1.8,1.2-3.2c0-1.3-0.4-2.4-1.2-3.2s-1.8-1.2-3-1.2s-2.2,0.4-3,1.2s-1.1,1.8-1.1,3.2c0,1.3,0.4,2.4,1.1,3.2
	C-223.3,249.1-222.3,249.5-221.1,249.5z M-202.6,238c1.8,0,3.2,0.5,4.2,1.5c1.1,1,1.6,2.5,1.6,4.6v8h-3.3v-7.6
	c0-1.2-0.3-2.1-0.9-2.7c-0.6-0.6-1.4-0.9-2.4-0.9c-1.2,0-2.1,0.4-2.8,1.1c-0.7,0.7-1,1.7-1,3.1v7h-3.3v-13.9h3.1v1.8
	c0.5-0.6,1.2-1.1,2-1.5C-204.6,238.2-203.7,238-202.6,238z M-183.9,247c-0.6,0-1.1-0.2-1.5-0.6c-0.4-0.4-0.6-0.9-0.6-1.6
	c0-0.6,0.2-1.1,0.6-1.5c0.4-0.4,0.9-0.6,1.5-0.6s1.1,0.2,1.5,0.6c0.4,0.4,0.6,0.9,0.6,1.6c0,0.7-0.2,1.2-0.6,1.6
	C-182.8,246.8-183.3,247-183.9,247z M-167.2,236.7v5.5h8.8v2.9h-8.8v7h-3.4v-18.2h13.3v2.8H-167.2z M-141.3,238.2v13.9h-3.1v-1.8
	c-0.5,0.6-1.2,1.1-2,1.5c-0.8,0.3-1.6,0.5-2.5,0.5c-1.9,0-3.3-0.5-4.4-1.5c-1.1-1-1.6-2.6-1.6-4.6v-7.9h3.3v7.5
	c0,1.2,0.3,2.2,0.8,2.8c0.6,0.6,1.4,0.9,2.4,0.9c1.2,0,2.1-0.4,2.8-1.1c0.7-0.7,1-1.8,1-3.1v-7L-141.3,238.2L-141.3,238.2z
	 M-137,232.8h3.3v19.3h-3.3V232.8z M-129.5,232.8h3.3v19.3h-3.3V232.8z M-117.6,252.3c-1.1,0-2.2-0.1-3.3-0.4
	c-1.1-0.3-1.9-0.7-2.6-1.1l1.2-2.5c0.6,0.4,1.4,0.8,2.2,1c0.9,0.2,1.8,0.4,2.6,0.4c1.9,0,2.9-0.5,2.9-1.5c0-0.5-0.3-0.8-0.8-1
	s-1.3-0.4-2.4-0.5c-1.1-0.2-2.1-0.4-2.8-0.6c-0.7-0.2-1.3-0.6-1.9-1.2c-0.5-0.6-0.8-1.4-0.8-2.4c0-1.3,0.5-2.4,1.6-3.2
	s2.6-1.2,4.5-1.2c1,0,1.9,0.1,2.9,0.3s1.7,0.5,2.3,0.9l-1.2,2.5c-1.2-0.7-2.5-1-4-1c-1,0-1.7,0.1-2.2,0.4c-0.5,0.3-0.7,0.7-0.7,1.1
	c0,0.5,0.3,0.9,0.8,1.1c0.5,0.2,1.4,0.4,2.5,0.6c1.1,0.2,2,0.4,2.7,0.6c0.7,0.2,1.3,0.6,1.8,1.1s0.8,1.3,0.8,2.3
	c0,1.3-0.6,2.3-1.7,3.1C-114.2,251.9-115.7,252.3-117.6,252.3z M-100.2,251.3c-0.4,0.3-0.9,0.5-1.4,0.7s-1.1,0.2-1.7,0.2
	c-1.5,0-2.7-0.4-3.5-1.2s-1.2-2-1.2-3.5v-6.7h-2.3v-2.6h2.3V235h3.3v3.2h3.7v2.6h-3.7v6.6c0,0.7,0.2,1.2,0.5,1.6
	c0.3,0.3,0.8,0.5,1.4,0.5c0.7,0,1.3-0.2,1.8-0.6L-100.2,251.3z M-92.2,238c2,0,3.6,0.5,4.7,1.5s1.6,2.4,1.6,4.4v8.2H-89v-1.7
	c-0.4,0.6-1,1.1-1.7,1.4c-0.7,0.3-1.6,0.5-2.7,0.5c-1,0-2-0.2-2.7-0.5c-0.8-0.4-1.4-0.9-1.8-1.5s-0.6-1.4-0.6-2.2
	c0-1.2,0.5-2.2,1.4-3s2.4-1.1,4.4-1.1h3.6v-0.2c0-1-0.3-1.7-0.9-2.2s-1.4-0.8-2.6-0.8c-0.8,0-1.6,0.1-2.3,0.4
	c-0.7,0.2-1.4,0.6-1.9,1l-1.3-2.4c0.7-0.6,1.6-1,2.6-1.3C-94.4,238.2-93.3,238-92.2,238z M-92.6,249.9c0.8,0,1.5-0.2,2.2-0.5
	c0.6-0.4,1.1-0.9,1.4-1.6v-1.6h-3.4c-1.9,0-2.8,0.6-2.8,1.8c0,0.6,0.2,1.1,0.7,1.4C-94.1,249.7-93.5,249.9-92.6,249.9z M-75.2,252.3
	c-1.4,0-2.7-0.3-3.9-0.9c-1.1-0.6-2-1.4-2.7-2.5c-0.6-1.1-1-2.3-1-3.7s0.3-2.6,1-3.7c0.6-1.1,1.5-1.9,2.7-2.5
	c1.1-0.6,2.4-0.9,3.9-0.9c1.4,0,2.6,0.3,3.6,0.8c1,0.6,1.8,1.4,2.3,2.4l-2.5,1.5c-0.4-0.6-0.9-1.1-1.5-1.4c-0.6-0.3-1.2-0.5-2-0.5
	c-1.2,0-2.2,0.4-3,1.2s-1.2,1.8-1.2,3.2c0,1.3,0.4,2.4,1.2,3.2c0.8,0.8,1.8,1.2,3,1.2c0.7,0,1.4-0.2,2-0.5s1.1-0.8,1.5-1.5l2.5,1.5
	c-0.5,1-1.3,1.8-2.4,2.4C-72.6,252-73.8,252.3-75.2,252.3z M-60.9,246.1l-2.4,2.3v3.7h-3.3v-19.3h3.3v11.7l6.7-6.2h3.9l-5.8,5.8
	l6.4,8.1h-4L-60.9,246.1z M-42.5,233.9h8c1.9,0,3.7,0.4,5.2,1.1c1.5,0.7,2.7,1.8,3.5,3.2s1.2,3,1.2,4.8s-0.4,3.4-1.2,4.8
	c-0.8,1.4-2,2.4-3.5,3.2c-1.5,0.7-3.2,1.1-5.2,1.1h-8V233.9z M-34.7,249.2c1.3,0,2.5-0.3,3.5-0.8s1.8-1.2,2.3-2.2
	c0.6-1,0.8-2.1,0.8-3.3s-0.3-2.3-0.8-3.3s-1.3-1.7-2.3-2.2s-2.2-0.8-3.5-0.8h-4.4v12.5h4.4V249.2z M-8.2,245.2c0,0.2,0,0.5-0.1,1
	h-10.9c0.2,1,0.7,1.8,1.5,2.4c0.8,0.6,1.8,0.9,3,0.9c1.5,0,2.8-0.5,3.8-1.5l1.7,2c-0.6,0.7-1.4,1.3-2.4,1.7s-2,0.6-3.2,0.6
	c-1.5,0-2.9-0.3-4-0.9c-1.2-0.6-2.1-1.4-2.7-2.5s-0.9-2.3-0.9-3.7s0.3-2.6,0.9-3.6c0.6-1.1,1.5-1.9,2.6-2.6c1.1-0.6,2.3-0.9,3.7-0.9
	s2.6,0.3,3.6,0.9c1.1,0.6,1.9,1.4,2.5,2.5C-8.5,242.5-8.2,243.8-8.2,245.2z M-15.3,240.6c-1,0-1.9,0.3-2.7,0.9
	c-0.7,0.6-1.1,1.4-1.3,2.4h7.9c-0.1-1-0.6-1.8-1.3-2.4C-13.3,240.9-14.2,240.6-15.3,240.6z M7.7,238.2l-6,13.9h-3.4l-6-13.9h3.4
	L0,248.5l4.5-10.3H7.7z M22.4,245.2c0,0.2,0,0.5-0.1,1H11.4c0.2,1,0.7,1.8,1.5,2.4c0.8,0.6,1.8,0.9,3,0.9c1.5,0,2.8-0.5,3.8-1.5
	l1.7,2c-0.6,0.7-1.4,1.3-2.4,1.7s-2,0.6-3.2,0.6c-1.5,0-2.9-0.3-4-0.9c-1.2-0.6-2.1-1.4-2.7-2.5s-0.9-2.3-0.9-3.7s0.3-2.6,0.9-3.6
	c0.6-1.1,1.5-1.9,2.6-2.6c1.1-0.6,2.3-0.9,3.7-0.9s2.6,0.3,3.6,0.9c1.1,0.6,1.9,1.4,2.5,2.5C22.1,242.5,22.4,243.8,22.4,245.2z
	 M15.4,240.6c-1,0-1.9,0.3-2.7,0.9c-0.7,0.6-1.1,1.4-1.3,2.4h7.9c-0.1-1-0.6-1.8-1.3-2.4C17.3,240.9,16.4,240.6,15.4,240.6z
	 M25.5,232.8h3.3v19.3h-3.3V232.8z M39.3,252.3c-1.4,0-2.7-0.3-3.8-0.9c-1.1-0.6-2-1.4-2.7-2.5c-0.6-1.1-0.9-2.3-0.9-3.7
	s0.3-2.6,0.9-3.7c0.6-1.1,1.5-1.9,2.7-2.5c1.1-0.6,2.4-0.9,3.8-0.9c1.4,0,2.7,0.3,3.8,0.9c1.1,0.6,2,1.4,2.6,2.5s1,2.3,1,3.7
	s-0.3,2.6-1,3.7c-0.6,1.1-1.5,1.9-2.6,2.5C42,252,40.7,252.3,39.3,252.3z M39.3,249.5c1.2,0,2.2-0.4,3-1.2s1.2-1.8,1.2-3.2
	c0-1.3-0.4-2.4-1.2-3.2s-1.8-1.2-3-1.2s-2.2,0.4-3,1.2s-1.1,1.8-1.1,3.2c0,1.3,0.4,2.4,1.1,3.2C37.1,249.1,38.1,249.5,39.3,249.5z
	 M57.5,238c1.4,0,2.6,0.3,3.6,0.9c1.1,0.6,1.9,1.4,2.5,2.5s0.9,2.3,0.9,3.7s-0.3,2.7-0.9,3.7c-0.6,1.1-1.4,1.9-2.5,2.5
	s-2.3,0.9-3.6,0.9c-1.9,0-3.4-0.6-4.5-1.9v6.7h-3.3v-19h3.1v1.8c0.5-0.7,1.2-1.2,2-1.5C55.7,238.2,56.6,238,57.5,238z M57.2,249.5
	c1.2,0,2.2-0.4,2.9-1.2c0.8-0.8,1.2-1.8,1.2-3.2c0-1.3-0.4-2.4-1.2-3.2s-1.7-1.2-2.9-1.2c-0.8,0-1.5,0.2-2.1,0.5s-1.1,0.9-1.5,1.5
	c-0.4,0.7-0.5,1.4-0.5,2.3c0,0.9,0.2,1.6,0.5,2.3c0.4,0.7,0.9,1.2,1.5,1.5C55.7,249.3,56.4,249.5,57.2,249.5z M80.7,245.2
	c0,0.2,0,0.5-0.1,1H69.8c0.2,1,0.7,1.8,1.5,2.4c0.8,0.6,1.8,0.9,3,0.9c1.5,0,2.8-0.5,3.8-1.5l1.7,2c-0.6,0.7-1.4,1.3-2.4,1.7
	s-2,0.6-3.2,0.6c-1.5,0-2.9-0.3-4-0.9c-1.2-0.6-2.1-1.4-2.7-2.5s-0.9-2.3-0.9-3.7s0.3-2.6,0.9-3.6c0.6-1.1,1.5-1.9,2.6-2.6
	c1.1-0.6,2.3-0.9,3.7-0.9c1.4,0,2.6,0.3,3.6,0.9c1.1,0.6,1.9,1.4,2.5,2.5C80.4,242.5,80.7,243.8,80.7,245.2z M73.7,240.6
	c-1,0-1.9,0.3-2.7,0.9c-0.7,0.6-1.1,1.4-1.3,2.4h7.9c-0.1-1-0.6-1.8-1.3-2.4C75.7,240.9,74.8,240.6,73.7,240.6z M87,240.2
	c0.9-1.5,2.6-2.2,4.9-2.2v3.1c-0.3-0.1-0.5-0.1-0.8-0.1c-1.3,0-2.3,0.4-3,1.1c-0.7,0.7-1.1,1.8-1.1,3.2v6.7h-3.3v-13.9H87V240.2z
	 M103.6,247c-0.6,0-1.1-0.2-1.5-0.6c-0.4-0.4-0.6-0.9-0.6-1.6c0-0.6,0.2-1.1,0.6-1.5s0.9-0.6,1.5-0.6s1.1,0.2,1.5,0.6
	c0.4,0.4,0.6,0.9,0.6,1.6c0,0.7-0.2,1.2-0.6,1.6C104.7,246.8,104.2,247,103.6,247z M122.6,252.3c-1.4,0-2.8-0.2-4.1-0.6
	c-1.3-0.4-2.3-0.9-3.1-1.6l1.2-2.6c0.7,0.6,1.7,1.1,2.7,1.5c1.1,0.4,2.2,0.5,3.3,0.5c1.4,0,2.4-0.2,3-0.7c0.7-0.4,1-1,1-1.7
	c0-0.5-0.2-0.9-0.6-1.3c-0.4-0.3-0.8-0.6-1.4-0.8s-1.4-0.4-2.3-0.7c-1.4-0.3-2.5-0.7-3.4-1s-1.6-0.8-2.2-1.5s-0.9-1.7-0.9-2.9
	c0-1,0.3-1.9,0.8-2.7c0.6-0.8,1.4-1.5,2.5-2s2.5-0.7,4.1-0.7c1.1,0,2.2,0.1,3.3,0.4c1.1,0.3,2,0.7,2.8,1.2l-1.1,2.6
	c-0.8-0.5-1.6-0.8-2.5-1.1c-0.9-0.2-1.7-0.4-2.5-0.4c-1.3,0-2.3,0.2-3,0.7c-0.6,0.5-1,1.1-1,1.8c0,0.5,0.2,0.9,0.5,1.3
	c0.4,0.3,0.9,0.6,1.4,0.8c0.6,0.2,1.4,0.4,2.3,0.7c1.4,0.3,2.5,0.6,3.3,1c0.9,0.3,1.6,0.8,2.2,1.5s0.9,1.6,0.9,2.8
	c0,1-0.3,1.9-0.8,2.7s-1.4,1.5-2.5,2C125.5,252.1,124.2,252.3,122.6,252.3z M138.3,238c2,0,3.6,0.5,4.7,1.5c1.1,1,1.6,2.4,1.6,4.4
	v8.2h-3.1v-1.7c-0.4,0.6-1,1.1-1.7,1.4c-0.7,0.3-1.6,0.5-2.7,0.5c-1,0-2-0.2-2.7-0.5c-0.8-0.4-1.4-0.9-1.8-1.5
	c-0.4-0.6-0.6-1.4-0.6-2.2c0-1.2,0.5-2.2,1.4-3s2.4-1.1,4.4-1.1h3.6v-0.2c0-1-0.3-1.7-0.9-2.2c-0.6-0.5-1.4-0.8-2.6-0.8
	c-0.8,0-1.6,0.1-2.3,0.4c-0.7,0.2-1.4,0.6-1.9,1l-1.3-2.4c0.7-0.6,1.6-1,2.6-1.3C136.1,238.2,137.1,238,138.3,238z M137.8,249.9
	c0.8,0,1.5-0.2,2.2-0.5c0.6-0.4,1.1-0.9,1.4-1.6v-1.6H138c-1.9,0-2.8,0.6-2.8,1.8c0,0.6,0.2,1.1,0.7,1.4
	C136.4,249.7,137,249.9,137.8,249.9z M151.9,240.2c0.9-1.5,2.6-2.2,4.9-2.2v3.1c-0.3-0.1-0.5-0.1-0.8-0.1c-1.3,0-2.3,0.4-3,1.1
	c-0.7,0.7-1.1,1.8-1.1,3.2v6.7h-3.3v-13.9h3.1v2.1H151.9z M164.8,238c2,0,3.6,0.5,4.7,1.5c1.1,1,1.6,2.4,1.6,4.4v8.2H168v-1.7
	c-0.4,0.6-1,1.1-1.7,1.4c-0.7,0.3-1.6,0.5-2.7,0.5c-1,0-2-0.2-2.7-0.5c-0.8-0.4-1.4-0.9-1.8-1.5c-0.4-0.6-0.6-1.4-0.6-2.2
	c0-1.2,0.5-2.2,1.4-3s2.4-1.1,4.4-1.1h3.6v-0.2c0-1-0.3-1.7-0.9-2.2c-0.6-0.5-1.4-0.8-2.6-0.8c-0.8,0-1.6,0.1-2.3,0.4
	c-0.7,0.2-1.4,0.6-1.9,1l-1.3-2.4c0.7-0.6,1.6-1,2.6-1.3C162.6,238.2,163.7,238,164.8,238z M164.4,249.9c0.8,0,1.5-0.2,2.2-0.5
	c0.6-0.4,1.1-0.9,1.4-1.6v-1.6h-3.4c-1.9,0-2.8,0.6-2.8,1.8c0,0.6,0.2,1.1,0.7,1.4C162.9,249.7,163.6,249.9,164.4,249.9z
	 M188.5,252.3c-1.4,0-2.8-0.2-4.1-0.6c-1.3-0.4-2.3-0.9-3.1-1.6l1.2-2.6c0.7,0.6,1.7,1.1,2.7,1.5c1.1,0.4,2.2,0.5,3.3,0.5
	c1.4,0,2.4-0.2,3-0.7c0.7-0.4,1-1,1-1.7c0-0.5-0.2-0.9-0.6-1.3c-0.4-0.3-0.8-0.6-1.4-0.8c-0.6-0.2-1.4-0.4-2.3-0.7
	c-1.4-0.3-2.5-0.7-3.4-1s-1.6-0.8-2.2-1.5c-0.6-0.7-0.9-1.7-0.9-2.9c0-1,0.3-1.9,0.8-2.7c0.6-0.8,1.4-1.5,2.5-2s2.5-0.7,4.1-0.7
	c1.1,0,2.2,0.1,3.3,0.4c1.1,0.3,2,0.7,2.8,1.2l-1.1,2.6c-0.8-0.5-1.6-0.8-2.5-1.1c-0.9-0.2-1.7-0.4-2.5-0.4c-1.3,0-2.3,0.2-3,0.7
	c-0.6,0.5-1,1.1-1,1.8c0,0.5,0.2,0.9,0.5,1.3c0.4,0.3,0.9,0.6,1.4,0.8c0.6,0.2,1.4,0.4,2.3,0.7c1.4,0.3,2.5,0.6,3.3,1
	c0.9,0.3,1.6,0.8,2.2,1.5c0.6,0.7,0.9,1.6,0.9,2.8c0,1-0.3,1.9-0.8,2.7s-1.4,1.5-2.5,2C191.4,252.1,190.1,252.3,188.5,252.3z
	 M211.7,238.2l-6,13.9h-3.4l-6-13.9h3.4l4.3,10.3l4.5-10.3H211.7z M226.4,245.2c0,0.2,0,0.5-0.1,1h-10.9c0.2,1,0.7,1.8,1.5,2.4
	c0.8,0.6,1.8,0.9,3,0.9c1.5,0,2.8-0.5,3.8-1.5l1.7,2c-0.6,0.7-1.4,1.3-2.4,1.7s-2,0.6-3.2,0.6c-1.5,0-2.9-0.3-4-0.9
	c-1.2-0.6-2.1-1.4-2.7-2.5c-0.6-1.1-0.9-2.3-0.9-3.7s0.3-2.6,0.9-3.6c0.6-1.1,1.5-1.9,2.6-2.6c1.1-0.6,2.3-0.9,3.7-0.9
	s2.6,0.3,3.6,0.9c1.1,0.6,1.9,1.4,2.5,2.5C226.1,242.5,226.4,243.8,226.4,245.2z M219.4,240.6c-1,0-1.9,0.3-2.7,0.9
	c-0.7,0.6-1.1,1.4-1.3,2.4h7.9c-0.1-1-0.6-1.8-1.3-2.4C221.3,240.9,220.4,240.6,219.4,240.6z M237.4,238c1.8,0,3.2,0.5,4.2,1.5
	c1.1,1,1.6,2.5,1.6,4.6v8H240v-7.6c0-1.2-0.3-2.1-0.9-2.7c-0.6-0.6-1.4-0.9-2.4-0.9c-1.2,0-2.1,0.4-2.8,1.1c-0.7,0.7-1,1.7-1,3.1v7
	h-3.3v-13.9h3.1v1.8c0.5-0.6,1.2-1.1,2-1.5C235.5,238.2,236.4,238,237.4,238z M251.6,252.3c-1.1,0-2.2-0.1-3.3-0.4
	c-1.1-0.3-1.9-0.7-2.6-1.1l1.2-2.5c0.6,0.4,1.4,0.8,2.2,1c0.9,0.2,1.8,0.4,2.6,0.4c1.9,0,2.9-0.5,2.9-1.5c0-0.5-0.3-0.8-0.8-1
	s-1.3-0.4-2.4-0.5c-1.1-0.2-2.1-0.4-2.8-0.6c-0.7-0.2-1.3-0.6-1.9-1.2c-0.5-0.6-0.8-1.4-0.8-2.4c0-1.3,0.5-2.4,1.6-3.2
	s2.6-1.2,4.5-1.2c1,0,1.9,0.1,2.9,0.3s1.7,0.5,2.3,0.9l-1.2,2.5c-1.2-0.7-2.5-1-4-1c-1,0-1.7,0.1-2.2,0.4c-0.5,0.3-0.7,0.7-0.7,1.1
	c0,0.5,0.3,0.9,0.8,1.1c0.5,0.2,1.4,0.4,2.5,0.6c1.1,0.2,2,0.4,2.7,0.6c0.7,0.2,1.3,0.6,1.8,1.1s0.8,1.3,0.8,2.3
	c0,1.3-0.6,2.3-1.7,3.1C255.1,251.9,253.6,252.3,251.6,252.3z M265,252.3c-1.1,0-2.2-0.1-3.3-0.4c-1.1-0.3-1.9-0.7-2.6-1.1l1.2-2.5
	c0.6,0.4,1.4,0.8,2.2,1c0.9,0.2,1.8,0.4,2.6,0.4c1.9,0,2.9-0.5,2.9-1.5c0-0.5-0.3-0.8-0.8-1s-1.3-0.4-2.4-0.5
	c-1.1-0.2-2.1-0.4-2.8-0.6c-0.7-0.2-1.3-0.6-1.9-1.2c-0.5-0.6-0.8-1.4-0.8-2.4c0-1.3,0.5-2.4,1.6-3.2s2.6-1.2,4.5-1.2
	c1,0,1.9,0.1,2.9,0.3s1.7,0.5,2.3,0.9l-1.2,2.5c-1.2-0.7-2.5-1-4-1c-1,0-1.7,0.1-2.2,0.4c-0.5,0.3-0.7,0.7-0.7,1.1
	c0,0.5,0.3,0.9,0.8,1.1c0.5,0.2,1.4,0.4,2.5,0.6c1.1,0.2,2,0.4,2.7,0.6c0.7,0.2,1.3,0.6,1.8,1.1s0.8,1.3,0.8,2.3
	c0,1.3-0.6,2.3-1.7,3.1C268.5,251.9,267,252.3,265,252.3z M280.4,252.3c-1.4,0-2.7-0.3-3.8-0.9c-1.1-0.6-2-1.4-2.7-2.5
	c-0.6-1.1-0.9-2.3-0.9-3.7s0.3-2.6,0.9-3.7c0.6-1.1,1.5-1.9,2.7-2.5c1.1-0.6,2.4-0.9,3.8-0.9s2.7,0.3,3.8,0.9c1.1,0.6,2,1.4,2.6,2.5
	s1,2.3,1,3.7s-0.3,2.6-1,3.7c-0.6,1.1-1.5,1.9-2.6,2.5C283.1,252,281.8,252.3,280.4,252.3z M280.4,249.5c1.2,0,2.2-0.4,3-1.2
	s1.2-1.8,1.2-3.2c0-1.3-0.4-2.4-1.2-3.2c-0.8-0.8-1.8-1.2-3-1.2s-2.2,0.4-3,1.2s-1.1,1.8-1.1,3.2c0,1.3,0.4,2.4,1.1,3.2
	C278.2,249.1,279.2,249.5,280.4,249.5z M298.8,238c1.8,0,3.2,0.5,4.2,1.5c1.1,1,1.6,2.5,1.6,4.6v8h-3.3v-7.6c0-1.2-0.3-2.1-0.9-2.7
	c-0.6-0.6-1.4-0.9-2.4-0.9c-1.2,0-2.1,0.4-2.8,1.1c-0.7,0.7-1,1.7-1,3.1v7h-3.3v-13.9h3.1v1.8c0.5-0.6,1.2-1.1,2-1.5
	C296.9,238.2,297.8,238,298.8,238z M317.5,247c-0.6,0-1.1-0.2-1.5-0.6c-0.4-0.4-0.6-0.9-0.6-1.6c0-0.6,0.2-1.1,0.6-1.5
	s0.9-0.6,1.5-0.6s1.1,0.2,1.5,0.6c0.4,0.4,0.6,0.9,0.6,1.6c0,0.7-0.2,1.2-0.6,1.6C318.7,246.8,318.1,247,317.5,247z M334.2,236.7
	v5.5h8.8v2.9h-8.8v7h-3.4v-18.2h13.3v2.8H334.2z M360.2,238.2v13.9h-3.1v-1.8c-0.5,0.6-1.2,1.1-2,1.5c-0.8,0.3-1.6,0.5-2.5,0.5
	c-1.9,0-3.3-0.5-4.4-1.5s-1.6-2.6-1.6-4.6v-7.9h3.3v7.5c0,1.2,0.3,2.2,0.8,2.8c0.6,0.6,1.4,0.9,2.4,0.9c1.2,0,2.1-0.4,2.8-1.1
	c0.7-0.7,1-1.8,1-3.1v-7L360.2,238.2L360.2,238.2z M364.5,232.8h3.3v19.3h-3.3V232.8z M372,232.8h3.3v19.3H372V232.8z M383.8,252.3
	c-1.1,0-2.2-0.1-3.3-0.4c-1.1-0.3-1.9-0.7-2.6-1.1l1.2-2.5c0.6,0.4,1.4,0.8,2.2,1c0.9,0.2,1.8,0.4,2.6,0.4c1.9,0,2.9-0.5,2.9-1.5
	c0-0.5-0.3-0.8-0.8-1s-1.3-0.4-2.4-0.5c-1.1-0.2-2.1-0.4-2.8-0.6c-0.7-0.2-1.3-0.6-1.9-1.2c-0.5-0.6-0.8-1.4-0.8-2.4
	c0-1.3,0.5-2.4,1.6-3.2s2.6-1.2,4.5-1.2c1,0,1.9,0.1,2.9,0.3s1.7,0.5,2.3,0.9l-1.2,2.5c-1.2-0.7-2.5-1-4-1c-1,0-1.7,0.1-2.2,0.4
	c-0.5,0.3-0.7,0.7-0.7,1.1c0,0.5,0.3,0.9,0.8,1.1c0.5,0.2,1.4,0.4,2.5,0.6c1.1,0.2,2,0.4,2.7,0.6s1.3,0.6,1.8,1.1s0.8,1.3,0.8,2.3
	c0,1.3-0.6,2.3-1.7,3.1C387.3,251.9,385.8,252.3,383.8,252.3z M401.3,251.3c-0.4,0.3-0.9,0.5-1.4,0.7s-1.1,0.2-1.7,0.2
	c-1.5,0-2.7-0.4-3.5-1.2s-1.2-2-1.2-3.5v-6.7h-2.3v-2.6h2.3V235h3.3v3.2h3.7v2.6h-3.7v6.6c0,0.7,0.2,1.2,0.5,1.6
	c0.3,0.3,0.8,0.5,1.4,0.5c0.7,0,1.3-0.2,1.8-0.6L401.3,251.3z M409.3,238c2,0,3.6,0.5,4.7,1.5s1.6,2.4,1.6,4.4v8.2h-3.1v-1.7
	c-0.4,0.6-1,1.1-1.7,1.4c-0.7,0.3-1.6,0.5-2.7,0.5c-1,0-2-0.2-2.7-0.5c-0.8-0.4-1.4-0.9-1.8-1.5s-0.6-1.4-0.6-2.2
	c0-1.2,0.5-2.2,1.4-3s2.4-1.1,4.4-1.1h3.6v-0.2c0-1-0.3-1.7-0.9-2.2s-1.4-0.8-2.6-0.8c-0.8,0-1.6,0.1-2.3,0.4
	c-0.7,0.2-1.4,0.6-1.9,1l-1.3-2.4c0.7-0.6,1.6-1,2.6-1.3C407,238.2,408.1,238,409.3,238z M408.8,249.9c0.8,0,1.5-0.2,2.2-0.5
	c0.6-0.4,1.1-0.9,1.4-1.6v-1.6H409c-1.9,0-2.8,0.6-2.8,1.8c0,0.6,0.2,1.1,0.7,1.4S408,249.9,408.8,249.9z M426.3,252.3
	c-1.4,0-2.7-0.3-3.9-0.9c-1.1-0.6-2-1.4-2.7-2.5c-0.6-1.1-1-2.3-1-3.7s0.3-2.6,1-3.7c0.6-1.1,1.5-1.9,2.7-2.5
	c1.1-0.6,2.4-0.9,3.9-0.9c1.4,0,2.6,0.3,3.6,0.8c1,0.6,1.8,1.4,2.3,2.4l-2.5,1.5c-0.4-0.6-0.9-1.1-1.5-1.4c-0.6-0.3-1.2-0.5-2-0.5
	c-1.2,0-2.2,0.4-3,1.2s-1.2,1.8-1.2,3.2c0,1.3,0.4,2.4,1.2,3.2c0.8,0.8,1.8,1.2,3,1.2c0.7,0,1.4-0.2,2-0.5s1.1-0.8,1.5-1.5l2.5,1.5
	c-0.5,1-1.3,1.8-2.4,2.4C428.8,252,427.6,252.3,426.3,252.3z M440.6,246.1l-2.4,2.3v3.7h-3.3v-19.3h3.3v11.7l6.7-6.2h3.9L443,244
	l6.4,8.1h-4L440.6,246.1z M459,233.9h8c1.9,0,3.7,0.4,5.2,1.1c1.5,0.7,2.7,1.8,3.5,3.2s1.2,3,1.2,4.8s-0.4,3.4-1.2,4.8
	c-0.8,1.4-2,2.4-3.5,3.2c-1.5,0.7-3.2,1.1-5.2,1.1h-8V233.9z M466.8,249.2c1.3,0,2.5-0.3,3.5-0.8s1.8-1.2,2.3-2.2
	c0.6-1,0.8-2.1,0.8-3.3s-0.3-2.3-0.8-3.3s-1.3-1.7-2.3-2.2s-2.2-0.8-3.5-0.8h-4.4v12.5h4.4V249.2z M493.2,245.2c0,0.2,0,0.5-0.1,1
	h-10.9c0.2,1,0.7,1.8,1.5,2.4c0.8,0.6,1.8,0.9,3,0.9c1.5,0,2.8-0.5,3.8-1.5l1.7,2c-0.6,0.7-1.4,1.3-2.4,1.7s-2,0.6-3.2,0.6
	c-1.5,0-2.9-0.3-4-0.9c-1.2-0.6-2.1-1.4-2.7-2.5s-0.9-2.3-0.9-3.7s0.3-2.6,0.9-3.6c0.6-1.1,1.5-1.9,2.6-2.6c1.1-0.6,2.3-0.9,3.7-0.9
	c1.4,0,2.6,0.3,3.6,0.9c1.1,0.6,1.9,1.4,2.5,2.5C492.9,242.5,493.2,243.8,493.2,245.2z M486.2,240.6c-1,0-1.9,0.3-2.7,0.9
	c-0.7,0.6-1.1,1.4-1.3,2.4h7.9c-0.1-1-0.6-1.8-1.3-2.4C488.2,240.9,487.3,240.6,486.2,240.6z M509.1,238.2l-6,13.9h-3.4l-6-13.9h3.4
	l4.3,10.3l4.5-10.3H509.1z M523.9,245.2c0,0.2,0,0.5-0.1,1h-10.9c0.2,1,0.7,1.8,1.5,2.4c0.8,0.6,1.8,0.9,3,0.9
	c1.5,0,2.8-0.5,3.8-1.5l1.7,2c-0.6,0.7-1.4,1.3-2.4,1.7s-2,0.6-3.2,0.6c-1.5,0-2.9-0.3-4-0.9c-1.2-0.6-2.1-1.4-2.7-2.5
	s-0.9-2.3-0.9-3.7s0.3-2.6,0.9-3.6c0.6-1.1,1.5-1.9,2.6-2.6c1.1-0.6,2.3-0.9,3.7-0.9s2.6,0.3,3.6,0.9c1.1,0.6,1.9,1.4,2.5,2.5
	C523.6,242.5,523.9,243.8,523.9,245.2z M516.8,240.6c-1,0-1.9,0.3-2.7,0.9c-0.7,0.6-1.1,1.4-1.3,2.4h7.9c-0.1-1-0.6-1.8-1.3-2.4
	C518.8,240.9,517.9,240.6,516.8,240.6z M527,232.8h3.3v19.3H527V232.8z M540.8,252.3c-1.4,0-2.7-0.3-3.8-0.9c-1.1-0.6-2-1.4-2.7-2.5
	c-0.6-1.1-0.9-2.3-0.9-3.7s0.3-2.6,0.9-3.7c0.6-1.1,1.5-1.9,2.7-2.5c1.1-0.6,2.4-0.9,3.8-0.9c1.4,0,2.7,0.3,3.8,0.9
	c1.1,0.6,2,1.4,2.6,2.5s1,2.3,1,3.7s-0.3,2.6-1,3.7c-0.6,1.1-1.5,1.9-2.6,2.5C543.5,252,542.2,252.3,540.8,252.3z M540.8,249.5
	c1.2,0,2.2-0.4,3-1.2s1.2-1.8,1.2-3.2c0-1.3-0.4-2.4-1.2-3.2s-1.8-1.2-3-1.2s-2.2,0.4-3,1.2s-1.1,1.8-1.1,3.2c0,1.3,0.4,2.4,1.1,3.2
	C538.6,249.1,539.6,249.5,540.8,249.5z M559,238c1.4,0,2.6,0.3,3.6,0.9c1.1,0.6,1.9,1.4,2.5,2.5s0.9,2.3,0.9,3.7s-0.3,2.7-0.9,3.7
	c-0.6,1.1-1.4,1.9-2.5,2.5s-2.3,0.9-3.6,0.9c-1.9,0-3.4-0.6-4.5-1.9v6.7h-3.3v-19h3.1v1.8c0.5-0.7,1.2-1.2,2-1.5
	C557.2,238.2,558,238,559,238z M558.6,249.5c1.2,0,2.2-0.4,2.9-1.2c0.8-0.8,1.2-1.8,1.2-3.2c0-1.3-0.4-2.4-1.2-3.2s-1.7-1.2-2.9-1.2
	c-0.8,0-1.5,0.2-2.1,0.5s-1.1,0.9-1.5,1.5c-0.4,0.7-0.5,1.4-0.5,2.3c0,0.9,0.2,1.6,0.5,2.3c0.4,0.7,0.9,1.2,1.5,1.5
	C557.2,249.3,557.9,249.5,558.6,249.5z M582.2,245.2c0,0.2,0,0.5-0.1,1h-10.9c0.2,1,0.7,1.8,1.5,2.4c0.8,0.6,1.8,0.9,3,0.9
	c1.5,0,2.8-0.5,3.8-1.5l1.7,2c-0.6,0.7-1.4,1.3-2.4,1.7s-2,0.6-3.2,0.6c-1.5,0-2.9-0.3-4-0.9c-1.2-0.6-2.1-1.4-2.7-2.5
	c-0.6-1.1-0.9-2.3-0.9-3.7s0.3-2.6,0.9-3.6c0.6-1.1,1.5-1.9,2.6-2.6c1.1-0.6,2.3-0.9,3.7-0.9s2.6,0.3,3.6,0.9
	c1.1,0.6,1.9,1.4,2.5,2.5C581.9,242.5,582.2,243.8,582.2,245.2z M575.2,240.6c-1,0-1.9,0.3-2.7,0.9c-0.7,0.6-1.1,1.4-1.3,2.4h7.9
	c-0.1-1-0.6-1.8-1.3-2.4C577.1,240.9,576.2,240.6,575.2,240.6z M588.4,240.2c0.9-1.5,2.6-2.2,4.9-2.2v3.1c-0.3-0.1-0.5-0.1-0.8-0.1
	c-1.3,0-2.3,0.4-3,1.1c-0.7,0.7-1.1,1.8-1.1,3.2v6.7h-3.3v-13.9h3.1v2.1H588.4z M605,247c-0.6,0-1.1-0.2-1.5-0.6
	c-0.4-0.4-0.6-0.9-0.6-1.6c0-0.6,0.2-1.1,0.6-1.5c0.4-0.4,0.9-0.6,1.5-0.6s1.1,0.2,1.5,0.6c0.4,0.4,0.6,0.9,0.6,1.6
	c0,0.7-0.2,1.2-0.6,1.6C606.2,246.8,605.7,247,605,247z M624,252.3c-1.4,0-2.8-0.2-4.1-0.6c-1.3-0.4-2.3-0.9-3.1-1.6l1.2-2.6
	c0.7,0.6,1.7,1.1,2.7,1.5c1.1,0.4,2.2,0.5,3.3,0.5c1.4,0,2.4-0.2,3-0.7c0.7-0.4,1-1,1-1.7c0-0.5-0.2-0.9-0.6-1.3
	c-0.4-0.3-0.8-0.6-1.4-0.8c-0.6-0.2-1.4-0.4-2.3-0.7c-1.4-0.3-2.5-0.7-3.4-1s-1.6-0.8-2.2-1.5c-0.6-0.7-0.9-1.7-0.9-2.9
	c0-1,0.3-1.9,0.8-2.7c0.6-0.8,1.4-1.5,2.5-2s2.5-0.7,4.1-0.7c1.1,0,2.2,0.1,3.3,0.4c1.1,0.3,2,0.7,2.8,1.2l-1.1,2.6
	c-0.8-0.5-1.6-0.8-2.5-1.1c-0.9-0.2-1.7-0.4-2.5-0.4c-1.3,0-2.3,0.2-3,0.7c-0.6,0.5-1,1.1-1,1.8c0,0.5,0.2,0.9,0.5,1.3
	c0.4,0.3,0.9,0.6,1.4,0.8c0.6,0.2,1.4,0.4,2.3,0.7c1.4,0.3,2.5,0.6,3.3,1c0.9,0.3,1.6,0.8,2.2,1.5c0.6,0.7,0.9,1.6,0.9,2.8
	c0,1-0.3,1.9-0.8,2.7s-1.4,1.5-2.5,2C627,252.1,625.6,252.3,624,252.3z M639.8,238c2,0,3.6,0.5,4.7,1.5c1.1,1,1.6,2.4,1.6,4.4v8.2
	H643v-1.7c-0.4,0.6-1,1.1-1.7,1.4c-0.7,0.3-1.6,0.5-2.7,0.5c-1,0-2-0.2-2.7-0.5c-0.8-0.4-1.4-0.9-1.8-1.5c-0.4-0.6-0.6-1.4-0.6-2.2
	c0-1.2,0.5-2.2,1.4-3s2.4-1.1,4.4-1.1h3.6v-0.2c0-1-0.3-1.7-0.9-2.2c-0.6-0.5-1.4-0.8-2.6-0.8c-0.8,0-1.6,0.1-2.3,0.4
	c-0.7,0.2-1.4,0.6-1.9,1l-1.3-2.4c0.7-0.6,1.6-1,2.6-1.3C637.5,238.2,638.6,238,639.8,238z M639.3,249.9c0.8,0,1.5-0.2,2.2-0.5
	c0.6-0.4,1.1-0.9,1.4-1.6v-1.6h-3.4c-1.9,0-2.8,0.6-2.8,1.8c0,0.6,0.2,1.1,0.7,1.4C637.8,249.7,638.5,249.9,639.3,249.9z
	 M653.4,240.2c0.9-1.5,2.6-2.2,4.9-2.2v3.1c-0.3-0.1-0.5-0.1-0.8-0.1c-1.3,0-2.3,0.4-3,1.1c-0.7,0.7-1.1,1.8-1.1,3.2v6.7h-3.3v-13.9
	h3.1v2.1H653.4z M666.3,238c2,0,3.6,0.5,4.7,1.5c1.1,1,1.6,2.4,1.6,4.4v8.2h-3.1v-1.7c-0.4,0.6-1,1.1-1.7,1.4
	c-0.7,0.3-1.6,0.5-2.7,0.5c-1,0-2-0.2-2.7-0.5c-0.8-0.4-1.4-0.9-1.8-1.5c-0.4-0.6-0.6-1.4-0.6-2.2c0-1.2,0.5-2.2,1.4-3
	s2.4-1.1,4.4-1.1h3.6v-0.2c0-1-0.3-1.7-0.9-2.2c-0.6-0.5-1.4-0.8-2.6-0.8c-0.8,0-1.6,0.1-2.3,0.4c-0.7,0.2-1.4,0.6-1.9,1l-1.3-2.4
	c0.7-0.6,1.6-1,2.6-1.3C664.1,238.2,665.2,238,666.3,238z M665.9,249.9c0.8,0,1.5-0.2,2.2-0.5c0.6-0.4,1.1-0.9,1.4-1.6v-1.6H666
	c-1.9,0-2.8,0.6-2.8,1.8c0,0.6,0.2,1.1,0.7,1.4C664.4,249.7,665,249.9,665.9,249.9z M690,252.3c-1.4,0-2.8-0.2-4.1-0.6
	c-1.3-0.4-2.3-0.9-3.1-1.6l1.2-2.6c0.7,0.6,1.7,1.1,2.7,1.5c1.1,0.4,2.2,0.5,3.3,0.5c1.4,0,2.4-0.2,3-0.7c0.7-0.4,1-1,1-1.7
	c0-0.5-0.2-0.9-0.6-1.3c-0.4-0.3-0.8-0.6-1.4-0.8c-0.6-0.2-1.4-0.4-2.3-0.7c-1.4-0.3-2.5-0.7-3.4-1s-1.6-0.8-2.2-1.5
	c-0.6-0.7-0.9-1.7-0.9-2.9c0-1,0.3-1.9,0.8-2.7c0.6-0.8,1.4-1.5,2.5-2s2.5-0.7,4.1-0.7c1.1,0,2.2,0.1,3.3,0.4c1.1,0.3,2,0.7,2.8,1.2
	l-1.1,2.6c-0.8-0.5-1.6-0.8-2.5-1.1c-0.9-0.2-1.7-0.4-2.5-0.4c-1.3,0-2.3,0.2-3,0.7c-0.6,0.5-1,1.1-1,1.8c0,0.5,0.2,0.9,0.5,1.3
	c0.4,0.3,0.9,0.6,1.4,0.8c0.6,0.2,1.4,0.4,2.3,0.7c1.4,0.3,2.5,0.6,3.3,1c0.9,0.3,1.6,0.8,2.2,1.5c0.6,0.7,0.9,1.6,0.9,2.8
	c0,1-0.3,1.9-0.8,2.7s-1.4,1.5-2.5,2C692.9,252.1,691.6,252.3,690,252.3z M713.1,238.2l-6,13.9h-3.4l-6-13.9h3.4l4.3,10.3l4.5-10.3
	H713.1z M727.9,245.2c0,0.2,0,0.5-0.1,1h-10.9c0.2,1,0.7,1.8,1.5,2.4c0.8,0.6,1.8,0.9,3,0.9c1.5,0,2.8-0.5,3.8-1.5l1.7,2
	c-0.6,0.7-1.4,1.3-2.4,1.7s-2,0.6-3.2,0.6c-1.5,0-2.9-0.3-4-0.9c-1.2-0.6-2.1-1.4-2.7-2.5c-0.6-1.1-0.9-2.3-0.9-3.7s0.3-2.6,0.9-3.6
	c0.6-1.1,1.5-1.9,2.6-2.6c1.1-0.6,2.3-0.9,3.7-0.9s2.6,0.3,3.6,0.9c1.1,0.6,1.9,1.4,2.5,2.5C727.6,242.5,727.9,243.8,727.9,245.2z
	 M720.8,240.6c-1,0-1.9,0.3-2.7,0.9c-0.7,0.6-1.1,1.4-1.3,2.4h7.9c-0.1-1-0.6-1.8-1.3-2.4C722.8,240.9,721.9,240.6,720.8,240.6z
	 M738.9,238c1.8,0,3.2,0.5,4.2,1.5c1.1,1,1.6,2.5,1.6,4.6v8h-3.3v-7.6c0-1.2-0.3-2.1-0.9-2.7c-0.6-0.6-1.4-0.9-2.4-0.9
	c-1.2,0-2.1,0.4-2.8,1.1c-0.7,0.7-1,1.7-1,3.1v7H731v-13.9h3.1v1.8c0.5-0.6,1.2-1.1,2-1.5C736.9,238.2,737.9,238,738.9,238z
	 M753.1,252.3c-1.1,0-2.2-0.1-3.3-0.4c-1.1-0.3-1.9-0.7-2.6-1.1l1.2-2.5c0.6,0.4,1.4,0.8,2.2,1c0.9,0.2,1.8,0.4,2.6,0.4
	c1.9,0,2.9-0.5,2.9-1.5c0-0.5-0.3-0.8-0.8-1s-1.3-0.4-2.4-0.5c-1.1-0.2-2.1-0.4-2.8-0.6c-0.7-0.2-1.3-0.6-1.9-1.2
	c-0.5-0.6-0.8-1.4-0.8-2.4c0-1.3,0.5-2.4,1.6-3.2s2.6-1.2,4.5-1.2c1,0,1.9,0.1,2.9,0.3s1.7,0.5,2.3,0.9l-1.2,2.5c-1.2-0.7-2.5-1-4-1
	c-1,0-1.7,0.1-2.2,0.4c-0.5,0.3-0.7,0.7-0.7,1.1c0,0.5,0.3,0.9,0.8,1.1c0.5,0.2,1.4,0.4,2.5,0.6c1.1,0.2,2,0.4,2.7,0.6
	c0.7,0.2,1.3,0.6,1.8,1.1s0.8,1.3,0.8,2.3c0,1.3-0.6,2.3-1.7,3.1C756.6,251.9,755.1,252.3,753.1,252.3z M766.5,252.3
	c-1.1,0-2.2-0.1-3.3-0.4c-1.1-0.3-1.9-0.7-2.6-1.1l1.2-2.5c0.6,0.4,1.4,0.8,2.2,1c0.9,0.2,1.8,0.4,2.6,0.4c1.9,0,2.9-0.5,2.9-1.5
	c0-0.5-0.3-0.8-0.8-1s-1.3-0.4-2.4-0.5c-1.1-0.2-2.1-0.4-2.8-0.6c-0.7-0.2-1.3-0.6-1.9-1.2c-0.5-0.6-0.8-1.4-0.8-2.4
	c0-1.3,0.5-2.4,1.6-3.2s2.6-1.2,4.5-1.2c1,0,1.9,0.1,2.9,0.3s1.7,0.5,2.3,0.9l-1.2,2.5c-1.2-0.7-2.5-1-4-1c-1,0-1.7,0.1-2.2,0.4
	c-0.5,0.3-0.7,0.7-0.7,1.1c0,0.5,0.3,0.9,0.8,1.1c0.5,0.2,1.4,0.4,2.5,0.6c1.1,0.2,2,0.4,2.7,0.6c0.7,0.2,1.3,0.6,1.8,1.1
	s0.8,1.3,0.8,2.3c0,1.3-0.6,2.3-1.7,3.1C770,251.9,768.5,252.3,766.5,252.3z M781.9,252.3c-1.4,0-2.7-0.3-3.8-0.9
	c-1.1-0.6-2-1.4-2.7-2.5c-0.6-1.1-0.9-2.3-0.9-3.7s0.3-2.6,0.9-3.7c0.6-1.1,1.5-1.9,2.7-2.5c1.1-0.6,2.4-0.9,3.8-0.9
	c1.4,0,2.7,0.3,3.8,0.9c1.1,0.6,2,1.4,2.6,2.5s1,2.3,1,3.7s-0.3,2.6-1,3.7c-0.6,1.1-1.5,1.9-2.6,2.5
	C784.6,252,783.3,252.3,781.9,252.3z M781.9,249.5c1.2,0,2.2-0.4,3-1.2s1.2-1.8,1.2-3.2c0-1.3-0.4-2.4-1.2-3.2s-1.8-1.2-3-1.2
	s-2.2,0.4-3,1.2s-1.1,1.8-1.1,3.2c0,1.3,0.4,2.4,1.1,3.2C779.7,249.1,780.7,249.5,781.9,249.5z M800.3,238c1.8,0,3.2,0.5,4.2,1.5
	c1.1,1,1.6,2.5,1.6,4.6v8h-3.3v-7.6c0-1.2-0.3-2.1-0.9-2.7c-0.6-0.6-1.4-0.9-2.4-0.9c-1.2,0-2.1,0.4-2.8,1.1c-0.7,0.7-1,1.7-1,3.1v7
	h-3.3v-13.9h3.1v1.8c0.5-0.6,1.2-1.1,2-1.5C798.3,238.2,799.3,238,800.3,238z M819,247c-0.6,0-1.1-0.2-1.5-0.6
	c-0.4-0.4-0.6-0.9-0.6-1.6c0-0.6,0.2-1.1,0.6-1.5c0.4-0.4,0.9-0.6,1.5-0.6s1.1,0.2,1.5,0.6c0.4,0.4,0.6,0.9,0.6,1.6
	c0,0.7-0.2,1.2-0.6,1.6C820.1,246.8,819.6,247,819,247z M835.7,236.7v5.5h8.8v2.9h-8.8v7h-3.4v-18.2h13.3v2.8H835.7z M861.7,238.2
	v13.9h-3.1v-1.8c-0.5,0.6-1.2,1.1-2,1.5c-0.8,0.3-1.6,0.5-2.5,0.5c-1.9,0-3.3-0.5-4.4-1.5c-1.1-1-1.6-2.6-1.6-4.6v-7.9h3.3v7.5
	c0,1.2,0.3,2.2,0.8,2.8c0.6,0.6,1.4,0.9,2.4,0.9c1.2,0,2.1-0.4,2.8-1.1c0.7-0.7,1-1.8,1-3.1v-7L861.7,238.2L861.7,238.2z
	 M865.9,232.8h3.3v19.3h-3.3V232.8z M873.5,232.8h3.3v19.3h-3.3V232.8z M885.3,252.3c-1.1,0-2.2-0.1-3.3-0.4
	c-1.1-0.3-1.9-0.7-2.6-1.1l1.2-2.5c0.6,0.4,1.4,0.8,2.2,1c0.9,0.2,1.8,0.4,2.6,0.4c1.9,0,2.9-0.5,2.9-1.5c0-0.5-0.3-0.8-0.8-1
	s-1.3-0.4-2.4-0.5c-1.1-0.2-2.1-0.4-2.8-0.6c-0.7-0.2-1.3-0.6-1.9-1.2c-0.5-0.6-0.8-1.4-0.8-2.4c0-1.3,0.5-2.4,1.6-3.2
	s2.6-1.2,4.5-1.2c1,0,1.9,0.1,2.9,0.3s1.7,0.5,2.3,0.9l-1.2,2.5c-1.2-0.7-2.5-1-4-1c-1,0-1.7,0.1-2.2,0.4c-0.5,0.3-0.7,0.7-0.7,1.1
	c0,0.5,0.3,0.9,0.8,1.1c0.5,0.2,1.4,0.4,2.5,0.6c1.1,0.2,2,0.4,2.7,0.6c0.7,0.2,1.3,0.6,1.8,1.1s0.8,1.3,0.8,2.3
	c0,1.3-0.6,2.3-1.7,3.1C888.8,251.9,887.2,252.3,885.3,252.3z M902.8,251.3c-0.4,0.3-0.9,0.5-1.4,0.7s-1.1,0.2-1.7,0.2
	c-1.5,0-2.7-0.4-3.5-1.2s-1.2-2-1.2-3.5v-6.7h-2.3v-2.6h2.3V235h3.3v3.2h3.7v2.6h-3.7v6.6c0,0.7,0.2,1.2,0.5,1.6
	c0.3,0.3,0.8,0.5,1.4,0.5c0.7,0,1.3-0.2,1.8-0.6L902.8,251.3z M910.7,238c2,0,3.6,0.5,4.7,1.5c1.1,1,1.6,2.4,1.6,4.4v8.2h-3v-1.7
	c-0.4,0.6-1,1.1-1.7,1.4c-0.7,0.3-1.6,0.5-2.7,0.5c-1,0-2-0.2-2.7-0.5c-0.8-0.4-1.4-0.9-1.8-1.5c-0.4-0.6-0.6-1.4-0.6-2.2
	c0-1.2,0.5-2.2,1.4-3s2.4-1.1,4.4-1.1h3.6v-0.2c0-1-0.3-1.7-0.9-2.2c-0.6-0.5-1.4-0.8-2.6-0.8c-0.8,0-1.6,0.1-2.3,0.4
	c-0.7,0.2-1.4,0.6-1.9,1l-1.3-2.4c0.7-0.6,1.6-1,2.6-1.3C908.5,238.2,909.6,238,910.7,238z M910.3,249.9c0.8,0,1.5-0.2,2.2-0.5
	c0.6-0.4,1.1-0.9,1.4-1.6v-1.6h-3.4c-1.9,0-2.8,0.6-2.8,1.8c0,0.6,0.2,1.1,0.7,1.4C908.8,249.7,909.5,249.9,910.3,249.9z
	 M927.8,252.3c-1.4,0-2.7-0.3-3.9-0.9c-1.1-0.6-2-1.4-2.7-2.5c-0.6-1.1-1-2.3-1-3.7s0.3-2.6,1-3.7c0.6-1.1,1.5-1.9,2.7-2.5
	c1.1-0.6,2.4-0.9,3.9-0.9c1.4,0,2.6,0.3,3.6,0.8c1,0.6,1.8,1.4,2.3,2.4l-2.5,1.5c-0.4-0.6-0.9-1.1-1.5-1.4c-0.6-0.3-1.2-0.5-2-0.5
	c-1.2,0-2.2,0.4-3,1.2s-1.2,1.8-1.2,3.2c0,1.3,0.4,2.4,1.2,3.2s1.8,1.2,3,1.2c0.7,0,1.4-0.2,2-0.5s1.1-0.8,1.5-1.5l2.5,1.5
	c-0.5,1-1.3,1.8-2.4,2.4C930.3,252,929.1,252.3,927.8,252.3z M942.1,246.1l-2.4,2.3v3.7h-3.3v-19.3h3.3v11.7l6.7-6.2h3.9l-5.8,5.8
	l6.4,8.1h-4L942.1,246.1z M960.4,233.9h8c1.9,0,3.7,0.4,5.2,1.1c1.5,0.7,2.7,1.8,3.5,3.2s1.2,3,1.2,4.8s-0.4,3.4-1.2,4.8
	c-0.8,1.4-2,2.4-3.5,3.2c-1.5,0.7-3.2,1.1-5.2,1.1h-8V233.9z M968.2,249.2c1.3,0,2.5-0.3,3.5-0.8s1.8-1.2,2.3-2.2
	c0.6-1,0.8-2.1,0.8-3.3s-0.3-2.3-0.8-3.3s-1.3-1.7-2.3-2.2s-2.2-0.8-3.5-0.8h-4.4v12.5h4.4V249.2z M994.7,245.2c0,0.2,0,0.5-0.1,1
	h-10.9c0.2,1,0.7,1.8,1.5,2.4c0.8,0.6,1.8,0.9,3,0.9c1.5,0,2.8-0.5,3.8-1.5l1.7,2c-0.6,0.7-1.4,1.3-2.4,1.7s-2,0.6-3.2,0.6
	c-1.5,0-2.9-0.3-4-0.9c-1.2-0.6-2.1-1.4-2.7-2.5c-0.6-1.1-0.9-2.3-0.9-3.7s0.3-2.6,0.9-3.6c0.6-1.1,1.5-1.9,2.6-2.6
	c1.1-0.6,2.3-0.9,3.7-0.9s2.6,0.3,3.6,0.9c1.1,0.6,1.9,1.4,2.5,2.5C994.4,242.5,994.7,243.8,994.7,245.2z M987.7,240.6
	c-1,0-1.9,0.3-2.7,0.9c-0.7,0.6-1.1,1.4-1.3,2.4h7.9c-0.1-1-0.6-1.8-1.3-2.4C989.6,240.9,988.7,240.6,987.7,240.6z M1010.6,238.2
	l-6,13.9h-3.4l-6-13.9h3.4l4.3,10.3l4.5-10.3H1010.6z M1025.3,245.2c0,0.2,0,0.5,0,1h-10.9c0.2,1,0.7,1.8,1.5,2.4
	c0.8,0.6,1.8,0.9,3,0.9c1.5,0,2.8-0.5,3.8-1.5l1.8,2c-0.6,0.7-1.4,1.3-2.4,1.7s-2,0.6-3.2,0.6c-1.5,0-2.9-0.3-4-0.9
	c-1.2-0.6-2.1-1.4-2.7-2.5c-0.6-1.1-0.9-2.3-0.9-3.7s0.3-2.6,0.9-3.6c0.6-1.1,1.5-1.9,2.6-2.6c1.1-0.6,2.3-0.9,3.7-0.9
	s2.6,0.3,3.6,0.9c1.1,0.6,1.9,1.4,2.5,2.5C1025,242.5,1025.3,243.8,1025.3,245.2z M1018.3,240.6c-1,0-1.9,0.3-2.6,0.9
	c-0.7,0.6-1.2,1.4-1.3,2.4h7.9c-0.1-1-0.6-1.8-1.3-2.4C1020.2,240.9,1019.3,240.6,1018.3,240.6z M1028.4,232.8h3.3v19.3h-3.3V232.8z
	 M1042.2,252.3c-1.4,0-2.7-0.3-3.8-0.9c-1.1-0.6-2-1.4-2.7-2.5c-0.6-1.1-0.9-2.3-0.9-3.7s0.3-2.6,0.9-3.7c0.6-1.1,1.5-1.9,2.7-2.5
	c1.1-0.6,2.4-0.9,3.8-0.9s2.7,0.3,3.8,0.9c1.1,0.6,2,1.4,2.6,2.5s1,2.3,1,3.7s-0.3,2.6-1,3.7c-0.6,1.1-1.5,1.9-2.6,2.5
	C1044.9,252,1043.7,252.3,1042.2,252.3z M1042.2,249.5c1.2,0,2.2-0.4,3-1.2s1.2-1.8,1.2-3.2c0-1.3-0.4-2.4-1.2-3.2
	c-0.8-0.8-1.8-1.2-3-1.2s-2.2,0.4-3,1.2s-1.2,1.8-1.2,3.2c0,1.3,0.4,2.4,1.2,3.2C1040,249.1,1041,249.5,1042.2,249.5z M1060.5,238
	c1.3,0,2.6,0.3,3.6,0.9c1.1,0.6,1.9,1.4,2.5,2.5s0.9,2.3,0.9,3.7s-0.3,2.7-0.9,3.7c-0.6,1.1-1.4,1.9-2.5,2.5s-2.3,0.9-3.6,0.9
	c-1.9,0-3.4-0.6-4.5-1.9v6.7h-3.2v-19h3.1v1.8c0.5-0.7,1.2-1.2,2-1.5C1058.6,238.2,1059.5,238,1060.5,238z M1060.1,249.5
	c1.2,0,2.2-0.4,3-1.2s1.2-1.8,1.2-3.2c0-1.3-0.4-2.4-1.2-3.2c-0.8-0.8-1.8-1.2-3-1.2c-0.8,0-1.5,0.2-2.1,0.5s-1.1,0.9-1.5,1.5
	c-0.4,0.7-0.6,1.4-0.6,2.3c0,0.9,0.2,1.6,0.6,2.3s0.9,1.2,1.5,1.5C1058.6,249.3,1059.3,249.5,1060.1,249.5z M1083.7,245.2
	c0,0.2,0,0.5-0.1,1h-10.9c0.2,1,0.7,1.8,1.5,2.4c0.8,0.6,1.8,0.9,3,0.9c1.5,0,2.8-0.5,3.8-1.5l1.7,2c-0.6,0.7-1.4,1.3-2.4,1.7
	c-0.9,0.4-2,0.6-3.2,0.6c-1.5,0-2.9-0.3-4-0.9c-1.2-0.6-2.1-1.4-2.7-2.5s-0.9-2.3-0.9-3.7s0.3-2.6,0.9-3.6c0.6-1.1,1.5-1.9,2.6-2.6
	c1.1-0.6,2.3-0.9,3.7-0.9c1.4,0,2.6,0.3,3.6,0.9c1.1,0.6,1.9,1.4,2.5,2.5C1083.4,242.5,1083.7,243.8,1083.7,245.2z M1076.7,240.6
	c-1,0-1.9,0.3-2.7,0.9c-0.7,0.6-1.2,1.4-1.3,2.4h7.9c-0.1-1-0.6-1.8-1.3-2.4C1078.6,240.9,1077.7,240.6,1076.7,240.6z M1089.9,240.2
	c0.9-1.5,2.6-2.2,4.9-2.2v3.1c-0.3-0.1-0.5-0.1-0.8-0.1c-1.3,0-2.3,0.4-3,1.1c-0.7,0.7-1.1,1.8-1.1,3.2v6.7h-3.2v-13.9h3.1
	L1089.9,240.2L1089.9,240.2z"/>
<path class="st2" d="M-378.9-90.8c-1.4,0-2.8-0.2-4.1-0.6c-1.3-0.4-2.3-0.9-3.1-1.6l1.2-2.6c0.7,0.6,1.7,1.1,2.7,1.5
	c1.1,0.4,2.2,0.5,3.3,0.5c1.4,0,2.4-0.2,3-0.7c0.7-0.4,1-1,1-1.7c0-0.5-0.2-0.9-0.6-1.3c-0.4-0.3-0.8-0.6-1.4-0.8
	c-0.6-0.2-1.4-0.4-2.3-0.7c-1.4-0.3-2.5-0.7-3.4-1s-1.6-0.8-2.2-1.5s-0.9-1.7-0.9-2.9c0-1,0.3-1.9,0.8-2.7c0.6-0.8,1.4-1.5,2.5-2
	s2.5-0.7,4.1-0.7c1.1,0,2.2,0.1,3.3,0.4c1.1,0.3,2,0.7,2.8,1.2l-1.1,2.6c-0.8-0.5-1.6-0.8-2.5-1.1c-0.9-0.2-1.7-0.4-2.5-0.4
	c-1.3,0-2.3,0.2-3,0.7c-0.6,0.5-1,1.1-1,1.8c0,0.5,0.2,0.9,0.5,1.3c0.4,0.3,0.9,0.6,1.4,0.8c0.6,0.2,1.4,0.4,2.3,0.7
	c1.4,0.3,2.5,0.6,3.3,1c0.9,0.3,1.6,0.8,2.2,1.5s0.9,1.6,0.9,2.8c0,1-0.3,1.9-0.8,2.7c-0.5,0.8-1.4,1.5-2.5,2
	C-376-91.1-377.3-90.8-378.9-90.8z M-363.2-105.1c2,0,3.6,0.5,4.7,1.5s1.6,2.4,1.6,4.4v8.2h-3.1v-1.7c-0.4,0.6-1,1.1-1.7,1.4
	s-1.6,0.5-2.7,0.5c-1,0-2-0.2-2.7-0.5c-0.8-0.4-1.4-0.9-1.8-1.5s-0.6-1.4-0.6-2.2c0-1.2,0.5-2.2,1.4-3s2.4-1.1,4.4-1.1h3.6v-0.2
	c0-1-0.3-1.7-0.9-2.2s-1.4-0.8-2.6-0.8c-0.8,0-1.6,0.1-2.3,0.4c-0.7,0.2-1.4,0.6-1.9,1l-1.3-2.4c0.7-0.6,1.6-1,2.6-1.3
	C-365.4-105-364.3-105.1-363.2-105.1z M-363.6-93.3c0.8,0,1.5-0.2,2.2-0.5c0.6-0.4,1.1-0.9,1.4-1.6V-97h-3.4c-1.9,0-2.8,0.6-2.8,1.8
	c0,0.6,0.2,1.1,0.7,1.4S-364.5-93.3-363.6-93.3z M-349.6-103c0.9-1.5,2.6-2.2,4.9-2.2v3.1c-0.3-0.1-0.5-0.1-0.8-0.1
	c-1.3,0-2.3,0.4-3,1.1s-1.1,1.8-1.1,3.2v6.7h-3.3V-105h3.1v2H-349.6z M-336.6-105.1c2,0,3.6,0.5,4.7,1.5s1.6,2.4,1.6,4.4v8.2h-3.1
	v-1.7c-0.4,0.6-1,1.1-1.7,1.4s-1.6,0.5-2.7,0.5c-1,0-2-0.2-2.7-0.5c-0.8-0.4-1.4-0.9-1.8-1.5s-0.6-1.4-0.6-2.2c0-1.2,0.5-2.2,1.4-3
	s2.4-1.1,4.4-1.1h3.6v-0.2c0-1-0.3-1.7-0.9-2.2s-1.4-0.8-2.6-0.8c-0.8,0-1.6,0.1-2.3,0.4c-0.7,0.2-1.4,0.6-1.9,1l-1.3-2.4
	c0.7-0.6,1.6-1,2.6-1.3C-338.9-105-337.8-105.1-336.6-105.1z M-337.1-93.3c0.8,0,1.5-0.2,2.2-0.5c0.6-0.4,1.1-0.9,1.4-1.6V-97h-3.4
	c-1.9,0-2.8,0.6-2.8,1.8c0,0.6,0.2,1.1,0.7,1.4S-337.9-93.3-337.1-93.3z M-313-90.8c-1.4,0-2.8-0.2-4.1-0.6
	c-1.3-0.4-2.3-0.9-3.1-1.6l1.2-2.6c0.7,0.6,1.7,1.1,2.7,1.5c1.1,0.4,2.2,0.5,3.3,0.5c1.4,0,2.4-0.2,3-0.7c0.7-0.4,1-1,1-1.7
	c0-0.5-0.2-0.9-0.6-1.3c-0.4-0.3-0.8-0.6-1.4-0.8c-0.6-0.2-1.4-0.4-2.3-0.7c-1.4-0.3-2.5-0.7-3.4-1s-1.6-0.8-2.2-1.5
	s-0.9-1.7-0.9-2.9c0-1,0.3-1.9,0.8-2.7c0.6-0.8,1.4-1.5,2.5-2s2.5-0.7,4.1-0.7c1.1,0,2.2,0.1,3.3,0.4c1.1,0.3,2,0.7,2.8,1.2
	l-1.1,2.6c-0.8-0.5-1.6-0.8-2.5-1.1c-0.9-0.2-1.7-0.4-2.5-0.4c-1.3,0-2.3,0.2-3,0.7c-0.6,0.5-1,1.1-1,1.8c0,0.5,0.2,0.9,0.5,1.3
	c0.4,0.3,0.9,0.6,1.4,0.8c0.6,0.2,1.4,0.4,2.3,0.7c1.4,0.3,2.5,0.6,3.3,1c0.9,0.3,1.6,0.8,2.2,1.5s0.9,1.6,0.9,2.8
	c0,1-0.3,1.9-0.8,2.7c-0.5,0.8-1.4,1.5-2.5,2C-310-91.1-311.4-90.8-313-90.8z M-289.8-105l-6,13.9h-3.4l-6-13.9h3.4l4.3,10.3
	l4.5-10.3H-289.8z M-275.1-98c0,0.2,0,0.5-0.1,1H-286c0.2,1,0.7,1.8,1.5,2.4s1.8,0.9,3,0.9c1.5,0,2.8-0.5,3.8-1.5l1.7,2
	c-0.6,0.7-1.4,1.3-2.4,1.7c-1,0.4-2,0.6-3.2,0.6c-1.5,0-2.9-0.3-4-0.9c-1.2-0.6-2.1-1.4-2.7-2.5s-0.9-2.3-0.9-3.7
	c0-1.4,0.3-2.6,0.9-3.6c0.6-1.1,1.5-1.9,2.6-2.6c1.1-0.6,2.3-0.9,3.7-0.9c1.4,0,2.6,0.3,3.6,0.9c1.1,0.6,1.9,1.4,2.5,2.5
	C-275.4-100.6-275.1-99.4-275.1-98z M-282.1-102.5c-1,0-1.9,0.3-2.7,0.9c-0.7,0.6-1.1,1.4-1.3,2.4h7.9c-0.1-1-0.6-1.8-1.3-2.4
	S-281-102.5-282.1-102.5z M-264-105.1c1.8,0,3.2,0.5,4.2,1.5c1.1,1,1.6,2.5,1.6,4.6v8h-3.3v-7.6c0-1.2-0.3-2.1-0.9-2.7
	s-1.4-0.9-2.4-0.9c-1.2,0-2.1,0.4-2.8,1.1c-0.7,0.7-1,1.7-1,3.1v7h-3.3v-14h3.1v1.8c0.5-0.6,1.2-1.1,2-1.5
	C-266-105-265.1-105.1-264-105.1z M-249.8-90.9c-1.1,0-2.2-0.1-3.3-0.4s-1.9-0.7-2.6-1.1l1.2-2.5c0.6,0.4,1.4,0.8,2.2,1
	c0.9,0.2,1.8,0.4,2.6,0.4c1.9,0,2.9-0.5,2.9-1.5c0-0.5-0.3-0.8-0.8-1s-1.3-0.4-2.4-0.5c-1.1-0.2-2.1-0.4-2.8-0.6s-1.3-0.6-1.9-1.2
	c-0.5-0.6-0.8-1.4-0.8-2.4c0-1.3,0.5-2.4,1.6-3.2c1.1-0.8,2.6-1.2,4.5-1.2c1,0,1.9,0.1,2.9,0.3c1,0.2,1.7,0.5,2.3,0.9l-1.2,2.5
	c-1.2-0.7-2.5-1-4-1c-1,0-1.7,0.1-2.2,0.4s-0.7,0.7-0.7,1.1c0,0.5,0.3,0.9,0.8,1.1s1.4,0.4,2.5,0.6s2,0.4,2.7,0.6s1.3,0.6,1.8,1.1
	s0.8,1.3,0.8,2.3c0,1.3-0.6,2.3-1.7,3.1C-246.3-91.3-247.9-90.9-249.8-90.9z M-236.4-90.9c-1.1,0-2.2-0.1-3.3-0.4s-1.9-0.7-2.6-1.1
	l1.2-2.5c0.6,0.4,1.4,0.8,2.2,1c0.9,0.2,1.8,0.4,2.6,0.4c1.9,0,2.9-0.5,2.9-1.5c0-0.5-0.3-0.8-0.8-1s-1.3-0.4-2.4-0.5
	c-1.1-0.2-2.1-0.4-2.8-0.6s-1.3-0.6-1.9-1.2c-0.5-0.6-0.8-1.4-0.8-2.4c0-1.3,0.5-2.4,1.6-3.2c1.1-0.8,2.6-1.2,4.5-1.2
	c1,0,1.9,0.1,2.9,0.3c1,0.2,1.7,0.5,2.3,0.9l-1.2,2.5c-1.2-0.7-2.5-1-4-1c-1,0-1.7,0.1-2.2,0.4s-0.7,0.7-0.7,1.1
	c0,0.5,0.3,0.9,0.8,1.1s1.4,0.4,2.5,0.6s2,0.4,2.7,0.6s1.3,0.6,1.8,1.1s0.8,1.3,0.8,2.3c0,1.3-0.6,2.3-1.7,3.1
	C-232.9-91.3-234.5-90.9-236.4-90.9z M-221.1-90.9c-1.4,0-2.7-0.3-3.8-0.9s-2-1.4-2.7-2.5c-0.6-1.1-0.9-2.3-0.9-3.7
	c0-1.4,0.3-2.6,0.9-3.7c0.6-1.1,1.5-1.9,2.7-2.5c1.1-0.6,2.4-0.9,3.8-0.9c1.4,0,2.7,0.3,3.8,0.9s2,1.4,2.6,2.5s1,2.3,1,3.7
	c0,1.4-0.3,2.6-1,3.7c-0.6,1.1-1.5,1.9-2.6,2.5C-218.4-91.2-219.6-90.9-221.1-90.9z M-221.1-93.7c1.2,0,2.2-0.4,3-1.2
	s1.2-1.8,1.2-3.2s-0.4-2.4-1.2-3.2s-1.8-1.2-3-1.2s-2.2,0.4-3,1.2c-0.8,0.8-1.1,1.8-1.1,3.2s0.4,2.4,1.1,3.2
	C-223.3-94.1-222.3-93.7-221.1-93.7z M-202.6-105.1c1.8,0,3.2,0.5,4.2,1.5c1.1,1,1.6,2.5,1.6,4.6v8h-3.3v-7.6c0-1.2-0.3-2.1-0.9-2.7
	c-0.6-0.6-1.4-0.9-2.4-0.9c-1.2,0-2.1,0.4-2.8,1.1s-1,1.7-1,3.1v7h-3.3v-14h3.1v1.8c0.5-0.6,1.2-1.1,2-1.5
	C-204.6-105-203.7-105.1-202.6-105.1z M-183.9-96.2c-0.6,0-1.1-0.2-1.5-0.6s-0.6-0.9-0.6-1.6c0-0.6,0.2-1.1,0.6-1.5
	c0.4-0.4,0.9-0.6,1.5-0.6s1.1,0.2,1.5,0.6s0.6,0.9,0.6,1.6s-0.2,1.2-0.6,1.6C-182.8-96.4-183.3-96.2-183.9-96.2z M-167.2-106.5v5.5
	h8.8v2.9h-8.8v7h-3.4v-18.2h13.3v2.8H-167.2z M-141.3-105v13.9h-3.1v-1.8c-0.5,0.6-1.2,1.1-2,1.5c-0.8,0.3-1.6,0.5-2.5,0.5
	c-1.9,0-3.3-0.5-4.4-1.5c-1.1-1-1.6-2.6-1.6-4.6v-7.9h3.3v7.5c0,1.2,0.3,2.2,0.8,2.8c0.6,0.6,1.4,0.9,2.4,0.9c1.2,0,2.1-0.4,2.8-1.1
	s1-1.8,1-3.1v-7h3.3V-105z M-137-110.4h3.3v19.3h-3.3V-110.4z M-129.5-110.4h3.3v19.3h-3.3V-110.4z M-117.6-90.9
	c-1.1,0-2.2-0.1-3.3-0.4c-1.1-0.3-1.9-0.7-2.6-1.1l1.2-2.5c0.6,0.4,1.4,0.8,2.2,1c0.9,0.2,1.8,0.4,2.6,0.4c1.9,0,2.9-0.5,2.9-1.5
	c0-0.5-0.3-0.8-0.8-1s-1.3-0.4-2.4-0.5c-1.1-0.2-2.1-0.4-2.8-0.6c-0.7-0.2-1.3-0.6-1.9-1.2c-0.5-0.6-0.8-1.4-0.8-2.4
	c0-1.3,0.5-2.4,1.6-3.2c1.1-0.8,2.6-1.2,4.5-1.2c1,0,1.9,0.1,2.9,0.3c1,0.2,1.7,0.5,2.3,0.9l-1.2,2.5c-1.2-0.7-2.5-1-4-1
	c-1,0-1.7,0.1-2.2,0.4s-0.7,0.7-0.7,1.1c0,0.5,0.3,0.9,0.8,1.1s1.4,0.4,2.5,0.6s2,0.4,2.7,0.6s1.3,0.6,1.8,1.1s0.8,1.3,0.8,2.3
	c0,1.3-0.6,2.3-1.7,3.1C-114.2-91.3-115.7-90.9-117.6-90.9z M-100.2-91.8c-0.4,0.3-0.9,0.5-1.4,0.7s-1.1,0.2-1.7,0.2
	c-1.5,0-2.7-0.4-3.5-1.2s-1.2-2-1.2-3.5v-6.7h-2.3v-2.6h2.3v-3.2h3.3v3.2h3.7v2.6h-3.7v6.6c0,0.7,0.2,1.2,0.5,1.6
	c0.3,0.3,0.8,0.5,1.4,0.5c0.7,0,1.3-0.2,1.8-0.6L-100.2-91.8z M-92.2-105.1c2,0,3.6,0.5,4.7,1.5s1.6,2.4,1.6,4.4v8.2H-89v-1.7
	c-0.4,0.6-1,1.1-1.7,1.4s-1.6,0.5-2.7,0.5c-1,0-2-0.2-2.7-0.5c-0.8-0.4-1.4-0.9-1.8-1.5s-0.6-1.4-0.6-2.2c0-1.2,0.5-2.2,1.4-3
	s2.4-1.1,4.4-1.1h3.6v-0.2c0-1-0.3-1.7-0.9-2.2s-1.4-0.8-2.6-0.8c-0.8,0-1.6,0.1-2.3,0.4c-0.7,0.2-1.4,0.6-1.9,1l-1.3-2.4
	c0.7-0.6,1.6-1,2.6-1.3C-94.4-105-93.3-105.1-92.2-105.1z M-92.6-93.3c0.8,0,1.5-0.2,2.2-0.5c0.6-0.4,1.1-0.9,1.4-1.6V-97h-3.4
	c-1.9,0-2.8,0.6-2.8,1.8c0,0.6,0.2,1.1,0.7,1.4C-94.1-93.4-93.5-93.3-92.6-93.3z M-75.2-90.9c-1.4,0-2.7-0.3-3.9-0.9
	c-1.1-0.6-2-1.4-2.7-2.5c-0.6-1.1-1-2.3-1-3.7c0-1.4,0.3-2.6,1-3.7c0.6-1.1,1.5-1.9,2.7-2.5c1.1-0.6,2.4-0.9,3.9-0.9
	c1.4,0,2.6,0.3,3.6,0.8c1,0.6,1.8,1.4,2.3,2.4l-2.5,1.5c-0.4-0.6-0.9-1.1-1.5-1.4s-1.2-0.5-2-0.5c-1.2,0-2.2,0.4-3,1.2
	c-0.8,0.8-1.2,1.8-1.2,3.2c0,1.3,0.4,2.4,1.2,3.2c0.8,0.8,1.8,1.2,3,1.2c0.7,0,1.4-0.2,2-0.5s1.1-0.8,1.5-1.5l2.5,1.5
	c-0.5,1-1.3,1.8-2.4,2.4C-72.6-91.2-73.8-90.9-75.2-90.9z M-60.9-97l-2.4,2.3v3.7h-3.3v-19.3h3.3v11.7l6.7-6.2h3.9l-5.8,5.8l6.4,8.1
	h-4L-60.9-97z M-42.5-109.3h8c1.9,0,3.7,0.4,5.2,1.1s2.7,1.8,3.5,3.2c0.8,1.4,1.2,3,1.2,4.8s-0.4,3.4-1.2,4.8
	c-0.8,1.4-2,2.4-3.5,3.2c-1.5,0.7-3.2,1.1-5.2,1.1h-8V-109.3z M-34.7-93.9c1.3,0,2.5-0.3,3.5-0.8s1.8-1.2,2.3-2.2
	c0.6-1,0.8-2.1,0.8-3.3s-0.3-2.3-0.8-3.3s-1.3-1.7-2.3-2.2s-2.2-0.8-3.5-0.8h-4.4V-94h4.4V-93.9z M-8.2-98c0,0.2,0,0.5-0.1,1h-10.9
	c0.2,1,0.7,1.8,1.5,2.4s1.8,0.9,3,0.9c1.5,0,2.8-0.5,3.8-1.5l1.7,2c-0.6,0.7-1.4,1.3-2.4,1.7c-1,0.4-2,0.6-3.2,0.6
	c-1.5,0-2.9-0.3-4-0.9c-1.2-0.6-2.1-1.4-2.7-2.5s-0.9-2.3-0.9-3.7c0-1.4,0.3-2.6,0.9-3.6c0.6-1.1,1.5-1.9,2.6-2.6
	c1.1-0.6,2.3-0.9,3.7-0.9s2.6,0.3,3.6,0.9c1.1,0.6,1.9,1.4,2.5,2.5S-8.2-99.4-8.2-98z M-15.3-102.5c-1,0-1.9,0.3-2.7,0.9
	c-0.7,0.6-1.1,1.4-1.3,2.4h7.9c-0.1-1-0.6-1.8-1.3-2.4C-13.3-102.2-14.2-102.5-15.3-102.5z M7.7-105l-6,13.9h-3.4l-6-13.9h3.4
	L0-94.7L4.5-105H7.7z M22.4-98c0,0.2,0,0.5-0.1,1H11.4c0.2,1,0.7,1.8,1.5,2.4s1.8,0.9,3,0.9c1.5,0,2.8-0.5,3.8-1.5l1.7,2
	c-0.6,0.7-1.4,1.3-2.4,1.7c-1,0.4-2,0.6-3.2,0.6c-1.5,0-2.9-0.3-4-0.9c-1.2-0.6-2.1-1.4-2.7-2.5S8.2-96.6,8.2-98
	c0-1.4,0.3-2.6,0.9-3.6c0.6-1.1,1.5-1.9,2.6-2.6c1.1-0.6,2.3-0.9,3.7-0.9s2.6,0.3,3.6,0.9c1.1,0.6,1.9,1.4,2.5,2.5
	S22.4-99.4,22.4-98z M15.4-102.5c-1,0-1.9,0.3-2.7,0.9c-0.7,0.6-1.1,1.4-1.3,2.4h7.9c-0.1-1-0.6-1.8-1.3-2.4S16.4-102.5,15.4-102.5z
	 M25.5-110.4h3.3v19.3h-3.3V-110.4z M39.3-90.9c-1.4,0-2.7-0.3-3.8-0.9s-2-1.4-2.7-2.5c-0.6-1.1-0.9-2.3-0.9-3.7
	c0-1.4,0.3-2.6,0.9-3.7s1.5-1.9,2.7-2.5c1.1-0.6,2.4-0.9,3.8-0.9c1.4,0,2.7,0.3,3.8,0.9s2,1.4,2.6,2.5s1,2.3,1,3.7
	c0,1.4-0.3,2.6-1,3.7c-0.6,1.1-1.5,1.9-2.6,2.5C42-91.2,40.7-90.9,39.3-90.9z M39.3-93.7c1.2,0,2.2-0.4,3-1.2
	c0.8-0.8,1.2-1.8,1.2-3.2s-0.4-2.4-1.2-3.2c-0.8-0.8-1.8-1.2-3-1.2s-2.2,0.4-3,1.2c-0.8,0.8-1.1,1.8-1.1,3.2s0.4,2.4,1.1,3.2
	C37.1-94.1,38.1-93.7,39.3-93.7z M57.5-105.1c1.4,0,2.6,0.3,3.6,0.9c1.1,0.6,1.9,1.4,2.5,2.5s0.9,2.3,0.9,3.7c0,1.4-0.3,2.7-0.9,3.7
	c-0.6,1.1-1.4,1.9-2.5,2.5s-2.3,0.9-3.6,0.9c-1.9,0-3.4-0.6-4.5-1.9v6.7h-3.3v-19h3.1v1.8c0.5-0.7,1.2-1.2,2-1.5
	C55.7-105,56.6-105.1,57.5-105.1z M57.2-93.7c1.2,0,2.2-0.4,2.9-1.2c0.8-0.8,1.2-1.8,1.2-3.2s-0.4-2.4-1.2-3.2
	c-0.8-0.8-1.7-1.2-2.9-1.2c-0.8,0-1.5,0.2-2.1,0.5s-1.1,0.9-1.5,1.5C53.2-99.7,53-98.9,53-98s0.2,1.6,0.5,2.3
	c0.4,0.7,0.9,1.2,1.5,1.5C55.7-93.9,56.4-93.7,57.2-93.7z M80.7-98c0,0.2,0,0.5-0.1,1H69.8c0.2,1,0.7,1.8,1.5,2.4s1.8,0.9,3,0.9
	c1.5,0,2.8-0.5,3.8-1.5l1.7,2c-0.6,0.7-1.4,1.3-2.4,1.7c-1,0.4-2,0.6-3.2,0.6c-1.5,0-2.9-0.3-4-0.9c-1.2-0.6-2.1-1.4-2.7-2.5
	s-0.9-2.3-0.9-3.7c0-1.4,0.3-2.6,0.9-3.6c0.6-1.1,1.5-1.9,2.6-2.6c1.1-0.6,2.3-0.9,3.7-0.9c1.4,0,2.6,0.3,3.6,0.9
	c1.1,0.6,1.9,1.4,2.5,2.5C80.4-100.6,80.7-99.4,80.7-98z M73.7-102.5c-1,0-1.9,0.3-2.7,0.9c-0.7,0.6-1.1,1.4-1.3,2.4h7.9
	c-0.1-1-0.6-1.8-1.3-2.4C75.7-102.2,74.8-102.5,73.7-102.5z M87-103c0.9-1.5,2.6-2.2,4.9-2.2v3.1c-0.3-0.1-0.5-0.1-0.8-0.1
	c-1.3,0-2.3,0.4-3,1.1S87-99.3,87-97.9v6.7h-3.3V-105H87V-103z M103.6-96.2c-0.6,0-1.1-0.2-1.5-0.6s-0.6-0.9-0.6-1.6
	c0-0.6,0.2-1.1,0.6-1.5s0.9-0.6,1.5-0.6s1.1,0.2,1.5,0.6s0.6,0.9,0.6,1.6s-0.2,1.2-0.6,1.6C104.7-96.4,104.2-96.2,103.6-96.2z
	 M122.6-90.8c-1.4,0-2.8-0.2-4.1-0.6c-1.3-0.4-2.3-0.9-3.1-1.6l1.2-2.6c0.7,0.6,1.7,1.1,2.7,1.5c1.1,0.4,2.2,0.5,3.3,0.5
	c1.4,0,2.4-0.2,3-0.7c0.7-0.4,1-1,1-1.7c0-0.5-0.2-0.9-0.6-1.3c-0.4-0.3-0.8-0.6-1.4-0.8c-0.6-0.2-1.4-0.4-2.3-0.7
	c-1.4-0.3-2.5-0.7-3.4-1s-1.6-0.8-2.2-1.5s-0.9-1.7-0.9-2.9c0-1,0.3-1.9,0.8-2.7c0.6-0.8,1.4-1.5,2.5-2s2.5-0.7,4.1-0.7
	c1.1,0,2.2,0.1,3.3,0.4c1.1,0.3,2,0.7,2.8,1.2l-1.1,2.6c-0.8-0.5-1.6-0.8-2.5-1.1c-0.9-0.2-1.7-0.4-2.5-0.4c-1.3,0-2.3,0.2-3,0.7
	c-0.6,0.5-1,1.1-1,1.8c0,0.5,0.2,0.9,0.5,1.3c0.4,0.3,0.9,0.6,1.4,0.8c0.6,0.2,1.4,0.4,2.3,0.7c1.4,0.3,2.5,0.6,3.3,1
	c0.9,0.3,1.6,0.8,2.2,1.5s0.9,1.6,0.9,2.8c0,1-0.3,1.9-0.8,2.7c-0.5,0.8-1.4,1.5-2.5,2C125.5-91.1,124.2-90.8,122.6-90.8z
	 M138.3-105.1c2,0,3.6,0.5,4.7,1.5c1.1,1,1.6,2.4,1.6,4.4v8.2h-3.1v-1.7c-0.4,0.6-1,1.1-1.7,1.4s-1.6,0.5-2.7,0.5
	c-1,0-2-0.2-2.7-0.5c-0.8-0.4-1.4-0.9-1.8-1.5c-0.4-0.6-0.6-1.4-0.6-2.2c0-1.2,0.5-2.2,1.4-3s2.4-1.1,4.4-1.1h3.6v-0.2
	c0-1-0.3-1.7-0.9-2.2c-0.6-0.5-1.4-0.8-2.6-0.8c-0.8,0-1.6,0.1-2.3,0.4c-0.7,0.2-1.4,0.6-1.9,1l-1.3-2.4c0.7-0.6,1.6-1,2.6-1.3
	C136.1-105,137.1-105.1,138.3-105.1z M137.8-93.3c0.8,0,1.5-0.2,2.2-0.5c0.6-0.4,1.1-0.9,1.4-1.6V-97H138c-1.9,0-2.8,0.6-2.8,1.8
	c0,0.6,0.2,1.1,0.7,1.4C136.4-93.4,137-93.3,137.8-93.3z M151.9-103c0.9-1.5,2.6-2.2,4.9-2.2v3.1c-0.3-0.1-0.5-0.1-0.8-0.1
	c-1.3,0-2.3,0.4-3,1.1s-1.1,1.8-1.1,3.2v6.7h-3.3V-105h3.1v2H151.9z M164.8-105.1c2,0,3.6,0.5,4.7,1.5c1.1,1,1.6,2.4,1.6,4.4v8.2
	H168v-1.7c-0.4,0.6-1,1.1-1.7,1.4s-1.6,0.5-2.7,0.5c-1,0-2-0.2-2.7-0.5c-0.8-0.4-1.4-0.9-1.8-1.5c-0.4-0.6-0.6-1.4-0.6-2.2
	c0-1.2,0.5-2.2,1.4-3s2.4-1.1,4.4-1.1h3.6v-0.2c0-1-0.3-1.7-0.9-2.2c-0.6-0.5-1.4-0.8-2.6-0.8c-0.8,0-1.6,0.1-2.3,0.4
	c-0.7,0.2-1.4,0.6-1.9,1l-1.3-2.4c0.7-0.6,1.6-1,2.6-1.3C162.6-105,163.7-105.1,164.8-105.1z M164.4-93.3c0.8,0,1.5-0.2,2.2-0.5
	c0.6-0.4,1.1-0.9,1.4-1.6V-97h-3.4c-1.9,0-2.8,0.6-2.8,1.8c0,0.6,0.2,1.1,0.7,1.4C162.9-93.4,163.6-93.3,164.4-93.3z M188.5-90.8
	c-1.4,0-2.8-0.2-4.1-0.6s-2.3-0.9-3.1-1.6l1.2-2.6c0.7,0.6,1.7,1.1,2.7,1.5c1.1,0.4,2.2,0.5,3.3,0.5c1.4,0,2.4-0.2,3-0.7
	c0.7-0.4,1-1,1-1.7c0-0.5-0.2-0.9-0.6-1.3c-0.4-0.3-0.8-0.6-1.4-0.8c-0.6-0.2-1.4-0.4-2.3-0.7c-1.4-0.3-2.5-0.7-3.4-1
	s-1.6-0.8-2.2-1.5c-0.6-0.7-0.9-1.7-0.9-2.9c0-1,0.3-1.9,0.8-2.7c0.6-0.8,1.4-1.5,2.5-2s2.5-0.7,4.1-0.7c1.1,0,2.2,0.1,3.3,0.4
	s2,0.7,2.8,1.2l-1.1,2.6c-0.8-0.5-1.6-0.8-2.5-1.1c-0.9-0.2-1.7-0.4-2.5-0.4c-1.3,0-2.3,0.2-3,0.7c-0.6,0.5-1,1.1-1,1.8
	c0,0.5,0.2,0.9,0.5,1.3c0.4,0.3,0.9,0.6,1.4,0.8c0.6,0.2,1.4,0.4,2.3,0.7c1.4,0.3,2.5,0.6,3.3,1c0.9,0.3,1.6,0.8,2.2,1.5
	c0.6,0.7,0.9,1.6,0.9,2.8c0,1-0.3,1.9-0.8,2.7c-0.5,0.8-1.4,1.5-2.5,2C191.4-91.1,190.1-90.8,188.5-90.8z M211.7-105l-6,13.9h-3.4
	l-6-13.9h3.4l4.3,10.3l4.5-10.3H211.7z M226.4-98c0,0.2,0,0.5-0.1,1h-10.9c0.2,1,0.7,1.8,1.5,2.4s1.8,0.9,3,0.9
	c1.5,0,2.8-0.5,3.8-1.5l1.7,2c-0.6,0.7-1.4,1.3-2.4,1.7c-1,0.4-2,0.6-3.2,0.6c-1.5,0-2.9-0.3-4-0.9c-1.2-0.6-2.1-1.4-2.7-2.5
	c-0.6-1.1-0.9-2.3-0.9-3.7c0-1.4,0.3-2.6,0.9-3.6c0.6-1.1,1.5-1.9,2.6-2.6c1.1-0.6,2.3-0.9,3.7-0.9s2.6,0.3,3.6,0.9
	c1.1,0.6,1.9,1.4,2.5,2.5C226.1-100.6,226.4-99.4,226.4-98z M219.4-102.5c-1,0-1.9,0.3-2.7,0.9c-0.7,0.6-1.1,1.4-1.3,2.4h7.9
	c-0.1-1-0.6-1.8-1.3-2.4C221.3-102.2,220.4-102.5,219.4-102.5z M237.4-105.1c1.8,0,3.2,0.5,4.2,1.5c1.1,1,1.6,2.5,1.6,4.6v8H240
	v-7.6c0-1.2-0.3-2.1-0.9-2.7c-0.6-0.6-1.4-0.9-2.4-0.9c-1.2,0-2.1,0.4-2.8,1.1s-1,1.7-1,3.1v7h-3.3v-14h3.1v1.8
	c0.5-0.6,1.2-1.1,2-1.5C235.5-105,236.4-105.1,237.4-105.1z M251.6-90.9c-1.1,0-2.2-0.1-3.3-0.4s-1.9-0.7-2.6-1.1l1.2-2.5
	c0.6,0.4,1.4,0.8,2.2,1c0.9,0.2,1.8,0.4,2.6,0.4c1.9,0,2.9-0.5,2.9-1.5c0-0.5-0.3-0.8-0.8-1s-1.3-0.4-2.4-0.5
	c-1.1-0.2-2.1-0.4-2.8-0.6s-1.3-0.6-1.9-1.2c-0.5-0.6-0.8-1.4-0.8-2.4c0-1.3,0.5-2.4,1.6-3.2c1.1-0.8,2.6-1.2,4.5-1.2
	c1,0,1.9,0.1,2.9,0.3c1,0.2,1.7,0.5,2.3,0.9l-1.2,2.5c-1.2-0.7-2.5-1-4-1c-1,0-1.7,0.1-2.2,0.4s-0.7,0.7-0.7,1.1
	c0,0.5,0.3,0.9,0.8,1.1s1.4,0.4,2.5,0.6s2,0.4,2.7,0.6s1.3,0.6,1.8,1.1s0.8,1.3,0.8,2.3c0,1.3-0.6,2.3-1.7,3.1
	C255.1-91.3,253.6-90.9,251.6-90.9z M265-90.9c-1.1,0-2.2-0.1-3.3-0.4c-1.1-0.3-1.9-0.7-2.6-1.1l1.2-2.5c0.6,0.4,1.4,0.8,2.2,1
	c0.9,0.2,1.8,0.4,2.6,0.4c1.9,0,2.9-0.5,2.9-1.5c0-0.5-0.3-0.8-0.8-1s-1.3-0.4-2.4-0.5c-1.1-0.2-2.1-0.4-2.8-0.6
	c-0.7-0.2-1.3-0.6-1.9-1.2c-0.5-0.6-0.8-1.4-0.8-2.4c0-1.3,0.5-2.4,1.6-3.2c1.1-0.8,2.6-1.2,4.5-1.2c1,0,1.9,0.1,2.9,0.3
	c1,0.2,1.7,0.5,2.3,0.9l-1.2,2.5c-1.2-0.7-2.5-1-4-1c-1,0-1.7,0.1-2.2,0.4s-0.7,0.7-0.7,1.1c0,0.5,0.3,0.9,0.8,1.1s1.4,0.4,2.5,0.6
	s2,0.4,2.7,0.6s1.3,0.6,1.8,1.1s0.8,1.3,0.8,2.3c0,1.3-0.6,2.3-1.7,3.1C268.5-91.3,267-90.9,265-90.9z M280.4-90.9
	c-1.4,0-2.7-0.3-3.8-0.9c-1.1-0.6-2-1.4-2.7-2.5c-0.6-1.1-0.9-2.3-0.9-3.7c0-1.4,0.3-2.6,0.9-3.7s1.5-1.9,2.7-2.5
	c1.1-0.6,2.4-0.9,3.8-0.9s2.7,0.3,3.8,0.9c1.1,0.6,2,1.4,2.6,2.5s1,2.3,1,3.7c0,1.4-0.3,2.6-1,3.7c-0.6,1.1-1.5,1.9-2.6,2.5
	C283.1-91.2,281.8-90.9,280.4-90.9z M280.4-93.7c1.2,0,2.2-0.4,3-1.2s1.2-1.8,1.2-3.2s-0.4-2.4-1.2-3.2s-1.8-1.2-3-1.2
	s-2.2,0.4-3,1.2c-0.8,0.8-1.1,1.8-1.1,3.2s0.4,2.4,1.1,3.2C278.2-94.1,279.2-93.7,280.4-93.7z M298.8-105.1c1.8,0,3.2,0.5,4.2,1.5
	c1.1,1,1.6,2.5,1.6,4.6v8h-3.3v-7.6c0-1.2-0.3-2.1-0.9-2.7s-1.4-0.9-2.4-0.9c-1.2,0-2.1,0.4-2.8,1.1c-0.7,0.7-1,1.7-1,3.1v7h-3.3
	v-14h3.1v1.8c0.5-0.6,1.2-1.1,2-1.5C296.9-105,297.8-105.1,298.8-105.1z M317.5-96.2c-0.6,0-1.1-0.2-1.5-0.6s-0.6-0.9-0.6-1.6
	c0-0.6,0.2-1.1,0.6-1.5s0.9-0.6,1.5-0.6s1.1,0.2,1.5,0.6s0.6,0.9,0.6,1.6s-0.2,1.2-0.6,1.6C318.7-96.4,318.1-96.2,317.5-96.2z
	 M334.2-106.5v5.5h8.8v2.9h-8.8v7h-3.4v-18.2h13.3v2.8H334.2z M360.2-105v13.9h-3.1v-1.8c-0.5,0.6-1.2,1.1-2,1.5
	c-0.8,0.3-1.6,0.5-2.5,0.5c-1.9,0-3.3-0.5-4.4-1.5s-1.6-2.6-1.6-4.6v-7.9h3.3v7.5c0,1.2,0.3,2.2,0.8,2.8c0.6,0.6,1.4,0.9,2.4,0.9
	c1.2,0,2.1-0.4,2.8-1.1c0.7-0.7,1-1.8,1-3.1v-7h3.3V-105z M364.5-110.4h3.3v19.3h-3.3V-110.4z M372-110.4h3.3v19.3H372V-110.4z
	 M383.8-90.9c-1.1,0-2.2-0.1-3.3-0.4c-1.1-0.3-1.9-0.7-2.6-1.1l1.2-2.5c0.6,0.4,1.4,0.8,2.2,1c0.9,0.2,1.8,0.4,2.6,0.4
	c1.9,0,2.9-0.5,2.9-1.5c0-0.5-0.3-0.8-0.8-1s-1.3-0.4-2.4-0.5c-1.1-0.2-2.1-0.4-2.8-0.6c-0.7-0.2-1.3-0.6-1.9-1.2
	c-0.5-0.6-0.8-1.4-0.8-2.4c0-1.3,0.5-2.4,1.6-3.2c1.1-0.8,2.6-1.2,4.5-1.2c1,0,1.9,0.1,2.9,0.3c1,0.2,1.7,0.5,2.3,0.9l-1.2,2.5
	c-1.2-0.7-2.5-1-4-1c-1,0-1.7,0.1-2.2,0.4s-0.7,0.7-0.7,1.1c0,0.5,0.3,0.9,0.8,1.1s1.4,0.4,2.5,0.6s2,0.4,2.7,0.6s1.3,0.6,1.8,1.1
	s0.8,1.3,0.8,2.3c0,1.3-0.6,2.3-1.7,3.1C387.3-91.3,385.8-90.9,383.8-90.9z M401.3-91.8c-0.4,0.3-0.9,0.5-1.4,0.7s-1.1,0.2-1.7,0.2
	c-1.5,0-2.7-0.4-3.5-1.2c-0.8-0.8-1.2-2-1.2-3.5v-6.7h-2.3v-2.6h2.3v-3.2h3.3v3.2h3.7v2.6h-3.7v6.6c0,0.7,0.2,1.2,0.5,1.6
	c0.3,0.3,0.8,0.5,1.4,0.5c0.7,0,1.3-0.2,1.8-0.6L401.3-91.8z M409.3-105.1c2,0,3.6,0.5,4.7,1.5s1.6,2.4,1.6,4.4v8.2h-3.1v-1.7
	c-0.4,0.6-1,1.1-1.7,1.4s-1.6,0.5-2.7,0.5c-1,0-2-0.2-2.7-0.5c-0.8-0.4-1.4-0.9-1.8-1.5S403-94.2,403-95c0-1.2,0.5-2.2,1.4-3
	s2.4-1.1,4.4-1.1h3.6v-0.2c0-1-0.3-1.7-0.9-2.2s-1.4-0.8-2.6-0.8c-0.8,0-1.6,0.1-2.3,0.4c-0.7,0.2-1.4,0.6-1.9,1l-1.3-2.4
	c0.7-0.6,1.6-1,2.6-1.3C407-105,408.1-105.1,409.3-105.1z M408.8-93.3c0.8,0,1.5-0.2,2.2-0.5c0.6-0.4,1.1-0.9,1.4-1.6V-97H409
	c-1.9,0-2.8,0.6-2.8,1.8c0,0.6,0.2,1.1,0.7,1.4S408-93.3,408.8-93.3z M426.3-90.9c-1.4,0-2.7-0.3-3.9-0.9c-1.1-0.6-2-1.4-2.7-2.5
	c-0.6-1.1-1-2.3-1-3.7c0-1.4,0.3-2.6,1-3.7c0.6-1.1,1.5-1.9,2.7-2.5c1.1-0.6,2.4-0.9,3.9-0.9c1.4,0,2.6,0.3,3.6,0.8
	c1,0.6,1.8,1.4,2.3,2.4l-2.5,1.5c-0.4-0.6-0.9-1.1-1.5-1.4s-1.2-0.5-2-0.5c-1.2,0-2.2,0.4-3,1.2c-0.8,0.8-1.2,1.8-1.2,3.2
	c0,1.3,0.4,2.4,1.2,3.2c0.8,0.8,1.8,1.2,3,1.2c0.7,0,1.4-0.2,2-0.5s1.1-0.8,1.5-1.5l2.5,1.5c-0.5,1-1.3,1.8-2.4,2.4
	C428.8-91.2,427.6-90.9,426.3-90.9z M440.6-97l-2.4,2.3v3.7h-3.3v-19.3h3.3v11.7l6.7-6.2h3.9L443-99l6.4,8.1h-4L440.6-97z
	 M459-109.3h8c1.9,0,3.7,0.4,5.2,1.1s2.7,1.8,3.5,3.2c0.8,1.4,1.2,3,1.2,4.8s-0.4,3.4-1.2,4.8c-0.8,1.4-2,2.4-3.5,3.2
	c-1.5,0.7-3.2,1.1-5.2,1.1h-8V-109.3z M466.8-93.9c1.3,0,2.5-0.3,3.5-0.8s1.8-1.2,2.3-2.2c0.6-1,0.8-2.1,0.8-3.3s-0.3-2.3-0.8-3.3
	s-1.3-1.7-2.3-2.2s-2.2-0.8-3.5-0.8h-4.4V-94h4.4V-93.9z M493.2-98c0,0.2,0,0.5-0.1,1h-10.9c0.2,1,0.7,1.8,1.5,2.4s1.8,0.9,3,0.9
	c1.5,0,2.8-0.5,3.8-1.5l1.7,2c-0.6,0.7-1.4,1.3-2.4,1.7c-1,0.4-2,0.6-3.2,0.6c-1.5,0-2.9-0.3-4-0.9c-1.2-0.6-2.1-1.4-2.7-2.5
	S479-96.6,479-98c0-1.4,0.3-2.6,0.9-3.6c0.6-1.1,1.5-1.9,2.6-2.6c1.1-0.6,2.3-0.9,3.7-0.9c1.4,0,2.6,0.3,3.6,0.9
	c1.1,0.6,1.9,1.4,2.5,2.5C492.9-100.6,493.2-99.4,493.2-98z M486.2-102.5c-1,0-1.9,0.3-2.7,0.9c-0.7,0.6-1.1,1.4-1.3,2.4h7.9
	c-0.1-1-0.6-1.8-1.3-2.4C488.2-102.2,487.3-102.5,486.2-102.5z M509.1-105l-6,13.9h-3.4l-6-13.9h3.4l4.3,10.3L506-105H509.1z
	 M523.9-98c0,0.2,0,0.5-0.1,1h-10.9c0.2,1,0.7,1.8,1.5,2.4s1.8,0.9,3,0.9c1.5,0,2.8-0.5,3.8-1.5l1.7,2c-0.6,0.7-1.4,1.3-2.4,1.7
	c-1,0.4-2,0.6-3.2,0.6c-1.5,0-2.9-0.3-4-0.9c-1.2-0.6-2.1-1.4-2.7-2.5s-0.9-2.3-0.9-3.7c0-1.4,0.3-2.6,0.9-3.6
	c0.6-1.1,1.5-1.9,2.6-2.6c1.1-0.6,2.3-0.9,3.7-0.9s2.6,0.3,3.6,0.9c1.1,0.6,1.9,1.4,2.5,2.5C523.6-100.6,523.9-99.4,523.9-98z
	 M516.8-102.5c-1,0-1.9,0.3-2.7,0.9c-0.7,0.6-1.1,1.4-1.3,2.4h7.9c-0.1-1-0.6-1.8-1.3-2.4C518.8-102.2,517.9-102.5,516.8-102.5z
	 M527-110.4h3.3v19.3H527V-110.4z M540.8-90.9c-1.4,0-2.7-0.3-3.8-0.9s-2-1.4-2.7-2.5c-0.6-1.1-0.9-2.3-0.9-3.7
	c0-1.4,0.3-2.6,0.9-3.7c0.6-1.1,1.5-1.9,2.7-2.5c1.1-0.6,2.4-0.9,3.8-0.9c1.4,0,2.7,0.3,3.8,0.9s2,1.4,2.6,2.5s1,2.3,1,3.7
	c0,1.4-0.3,2.6-1,3.7c-0.6,1.1-1.5,1.9-2.6,2.5C543.5-91.2,542.2-90.9,540.8-90.9z M540.8-93.7c1.2,0,2.2-0.4,3-1.2s1.2-1.8,1.2-3.2
	s-0.4-2.4-1.2-3.2s-1.8-1.2-3-1.2s-2.2,0.4-3,1.2c-0.8,0.8-1.1,1.8-1.1,3.2s0.4,2.4,1.1,3.2C538.6-94.1,539.6-93.7,540.8-93.7z
	 M559-105.1c1.4,0,2.6,0.3,3.6,0.9c1.1,0.6,1.9,1.4,2.5,2.5s0.9,2.3,0.9,3.7c0,1.4-0.3,2.7-0.9,3.7c-0.6,1.1-1.4,1.9-2.5,2.5
	s-2.3,0.9-3.6,0.9c-1.9,0-3.4-0.6-4.5-1.9v6.7h-3.3v-19h3.1v1.8c0.5-0.7,1.2-1.2,2-1.5C557.2-105,558-105.1,559-105.1z M558.6-93.7
	c1.2,0,2.2-0.4,2.9-1.2c0.8-0.8,1.2-1.8,1.2-3.2s-0.4-2.4-1.2-3.2c-0.8-0.8-1.7-1.2-2.9-1.2c-0.8,0-1.5,0.2-2.1,0.5
	s-1.1,0.9-1.5,1.5c-0.4,0.7-0.5,1.4-0.5,2.3s0.2,1.6,0.5,2.3c0.4,0.7,0.9,1.2,1.5,1.5C557.2-93.9,557.9-93.7,558.6-93.7z M582.2-98
	c0,0.2,0,0.5-0.1,1h-10.9c0.2,1,0.7,1.8,1.5,2.4s1.8,0.9,3,0.9c1.5,0,2.8-0.5,3.8-1.5l1.7,2c-0.6,0.7-1.4,1.3-2.4,1.7
	c-1,0.4-2,0.6-3.2,0.6c-1.5,0-2.9-0.3-4-0.9c-1.2-0.6-2.1-1.4-2.7-2.5c-0.6-1.1-0.9-2.3-0.9-3.7c0-1.4,0.3-2.6,0.9-3.6
	c0.6-1.1,1.5-1.9,2.6-2.6c1.1-0.6,2.3-0.9,3.7-0.9s2.6,0.3,3.6,0.9c1.1,0.6,1.9,1.4,2.5,2.5C581.9-100.6,582.2-99.4,582.2-98z
	 M575.2-102.5c-1,0-1.9,0.3-2.7,0.9c-0.7,0.6-1.1,1.4-1.3,2.4h7.9c-0.1-1-0.6-1.8-1.3-2.4S576.2-102.5,575.2-102.5z M588.4-103
	c0.9-1.5,2.6-2.2,4.9-2.2v3.1c-0.3-0.1-0.5-0.1-0.8-0.1c-1.3,0-2.3,0.4-3,1.1s-1.1,1.8-1.1,3.2v6.7h-3.3V-105h3.1v2H588.4z
	 M605-96.2c-0.6,0-1.1-0.2-1.5-0.6s-0.6-0.9-0.6-1.6c0-0.6,0.2-1.1,0.6-1.5c0.4-0.4,0.9-0.6,1.5-0.6s1.1,0.2,1.5,0.6
	s0.6,0.9,0.6,1.6s-0.2,1.2-0.6,1.6C606.2-96.4,605.7-96.2,605-96.2z M624-90.8c-1.4,0-2.8-0.2-4.1-0.6s-2.3-0.9-3.1-1.6l1.2-2.6
	c0.7,0.6,1.7,1.1,2.7,1.5c1.1,0.4,2.2,0.5,3.3,0.5c1.4,0,2.4-0.2,3-0.7c0.7-0.4,1-1,1-1.7c0-0.5-0.2-0.9-0.6-1.3
	c-0.4-0.3-0.8-0.6-1.4-0.8c-0.6-0.2-1.4-0.4-2.3-0.7c-1.4-0.3-2.5-0.7-3.4-1s-1.6-0.8-2.2-1.5c-0.6-0.7-0.9-1.7-0.9-2.9
	c0-1,0.3-1.9,0.8-2.7c0.6-0.8,1.4-1.5,2.5-2s2.5-0.7,4.1-0.7c1.1,0,2.2,0.1,3.3,0.4s2,0.7,2.8,1.2l-1.1,2.6
	c-0.8-0.5-1.6-0.8-2.5-1.1c-0.9-0.2-1.7-0.4-2.5-0.4c-1.3,0-2.3,0.2-3,0.7c-0.6,0.5-1,1.1-1,1.8c0,0.5,0.2,0.9,0.5,1.3
	c0.4,0.3,0.9,0.6,1.4,0.8c0.6,0.2,1.4,0.4,2.3,0.7c1.4,0.3,2.5,0.6,3.3,1c0.9,0.3,1.6,0.8,2.2,1.5c0.6,0.7,0.9,1.6,0.9,2.8
	c0,1-0.3,1.9-0.8,2.7c-0.5,0.8-1.4,1.5-2.5,2C627-91.1,625.6-90.8,624-90.8z M639.8-105.1c2,0,3.6,0.5,4.7,1.5
	c1.1,1,1.6,2.4,1.6,4.4v8.2H643v-1.7c-0.4,0.6-1,1.1-1.7,1.4s-1.6,0.5-2.7,0.5c-1,0-2-0.2-2.7-0.5c-0.8-0.4-1.4-0.9-1.8-1.5
	c-0.4-0.6-0.6-1.4-0.6-2.2c0-1.2,0.5-2.2,1.4-3s2.4-1.1,4.4-1.1h3.6v-0.2c0-1-0.3-1.7-0.9-2.2c-0.6-0.5-1.4-0.8-2.6-0.8
	c-0.8,0-1.6,0.1-2.3,0.4c-0.7,0.2-1.4,0.6-1.9,1l-1.3-2.4c0.7-0.6,1.6-1,2.6-1.3C637.5-105,638.6-105.1,639.8-105.1z M639.3-93.3
	c0.8,0,1.5-0.2,2.2-0.5c0.6-0.4,1.1-0.9,1.4-1.6V-97h-3.4c-1.9,0-2.8,0.6-2.8,1.8c0,0.6,0.2,1.1,0.7,1.4
	C637.8-93.4,638.5-93.3,639.3-93.3z M653.4-103c0.9-1.5,2.6-2.2,4.9-2.2v3.1c-0.3-0.1-0.5-0.1-0.8-0.1c-1.3,0-2.3,0.4-3,1.1
	s-1.1,1.8-1.1,3.2v6.7h-3.3V-105h3.1v2H653.4z M666.3-105.1c2,0,3.6,0.5,4.7,1.5c1.1,1,1.6,2.4,1.6,4.4v8.2h-3.1v-1.7
	c-0.4,0.6-1,1.1-1.7,1.4s-1.6,0.5-2.7,0.5c-1,0-2-0.2-2.7-0.5c-0.8-0.4-1.4-0.9-1.8-1.5c-0.4-0.6-0.6-1.4-0.6-2.2
	c0-1.2,0.5-2.2,1.4-3s2.4-1.1,4.4-1.1h3.6v-0.2c0-1-0.3-1.7-0.9-2.2c-0.6-0.5-1.4-0.8-2.6-0.8c-0.8,0-1.6,0.1-2.3,0.4
	c-0.7,0.2-1.4,0.6-1.9,1l-1.3-2.4c0.7-0.6,1.6-1,2.6-1.3C664.1-105,665.2-105.1,666.3-105.1z M665.9-93.3c0.8,0,1.5-0.2,2.2-0.5
	c0.6-0.4,1.1-0.9,1.4-1.6V-97H666c-1.9,0-2.8,0.6-2.8,1.8c0,0.6,0.2,1.1,0.7,1.4C664.4-93.4,665-93.3,665.9-93.3z M690-90.8
	c-1.4,0-2.8-0.2-4.1-0.6s-2.3-0.9-3.1-1.6l1.2-2.6c0.7,0.6,1.7,1.1,2.7,1.5c1.1,0.4,2.2,0.5,3.3,0.5c1.4,0,2.4-0.2,3-0.7
	c0.7-0.4,1-1,1-1.7c0-0.5-0.2-0.9-0.6-1.3c-0.4-0.3-0.8-0.6-1.4-0.8c-0.6-0.2-1.4-0.4-2.3-0.7c-1.4-0.3-2.5-0.7-3.4-1
	s-1.6-0.8-2.2-1.5c-0.6-0.7-0.9-1.7-0.9-2.9c0-1,0.3-1.9,0.8-2.7c0.6-0.8,1.4-1.5,2.5-2s2.5-0.7,4.1-0.7c1.1,0,2.2,0.1,3.3,0.4
	s2,0.7,2.8,1.2l-1.1,2.6c-0.8-0.5-1.6-0.8-2.5-1.1c-0.9-0.2-1.7-0.4-2.5-0.4c-1.3,0-2.3,0.2-3,0.7c-0.6,0.5-1,1.1-1,1.8
	c0,0.5,0.2,0.9,0.5,1.3c0.4,0.3,0.9,0.6,1.4,0.8c0.6,0.2,1.4,0.4,2.3,0.7c1.4,0.3,2.5,0.6,3.3,1c0.9,0.3,1.6,0.8,2.2,1.5
	c0.6,0.7,0.9,1.6,0.9,2.8c0,1-0.3,1.9-0.8,2.7c-0.5,0.8-1.4,1.5-2.5,2C692.9-91.1,691.6-90.8,690-90.8z M713.1-105l-6,13.9h-3.4
	l-6-13.9h3.4l4.3,10.3L710-105H713.1z M727.9-98c0,0.2,0,0.5-0.1,1h-10.9c0.2,1,0.7,1.8,1.5,2.4s1.8,0.9,3,0.9
	c1.5,0,2.8-0.5,3.8-1.5l1.7,2c-0.6,0.7-1.4,1.3-2.4,1.7c-1,0.4-2,0.6-3.2,0.6c-1.5,0-2.9-0.3-4-0.9c-1.2-0.6-2.1-1.4-2.7-2.5
	c-0.6-1.1-0.9-2.3-0.9-3.7c0-1.4,0.3-2.6,0.9-3.6c0.6-1.1,1.5-1.9,2.6-2.6c1.1-0.6,2.3-0.9,3.7-0.9s2.6,0.3,3.6,0.9
	c1.1,0.6,1.9,1.4,2.5,2.5C727.6-100.6,727.9-99.4,727.9-98z M720.8-102.5c-1,0-1.9,0.3-2.7,0.9c-0.7,0.6-1.1,1.4-1.3,2.4h7.9
	c-0.1-1-0.6-1.8-1.3-2.4C722.8-102.2,721.9-102.5,720.8-102.5z M738.9-105.1c1.8,0,3.2,0.5,4.2,1.5c1.1,1,1.6,2.5,1.6,4.6v8h-3.3
	v-7.6c0-1.2-0.3-2.1-0.9-2.7c-0.6-0.6-1.4-0.9-2.4-0.9c-1.2,0-2.1,0.4-2.8,1.1s-1,1.7-1,3.1v7H731v-14h3.1v1.8
	c0.5-0.6,1.2-1.1,2-1.5C736.9-105,737.9-105.1,738.9-105.1z M753.1-90.9c-1.1,0-2.2-0.1-3.3-0.4s-1.9-0.7-2.6-1.1l1.2-2.5
	c0.6,0.4,1.4,0.8,2.2,1c0.9,0.2,1.8,0.4,2.6,0.4c1.9,0,2.9-0.5,2.9-1.5c0-0.5-0.3-0.8-0.8-1s-1.3-0.4-2.4-0.5
	c-1.1-0.2-2.1-0.4-2.8-0.6s-1.3-0.6-1.9-1.2c-0.5-0.6-0.8-1.4-0.8-2.4c0-1.3,0.5-2.4,1.6-3.2c1.1-0.8,2.6-1.2,4.5-1.2
	c1,0,1.9,0.1,2.9,0.3c1,0.2,1.7,0.5,2.3,0.9l-1.2,2.5c-1.2-0.7-2.5-1-4-1c-1,0-1.7,0.1-2.2,0.4s-0.7,0.7-0.7,1.1
	c0,0.5,0.3,0.9,0.8,1.1s1.4,0.4,2.5,0.6s2,0.4,2.7,0.6s1.3,0.6,1.8,1.1s0.8,1.3,0.8,2.3c0,1.3-0.6,2.3-1.7,3.1
	C756.6-91.3,755.1-90.9,753.1-90.9z M766.5-90.9c-1.1,0-2.2-0.1-3.3-0.4s-1.9-0.7-2.6-1.1l1.2-2.5c0.6,0.4,1.4,0.8,2.2,1
	c0.9,0.2,1.8,0.4,2.6,0.4c1.9,0,2.9-0.5,2.9-1.5c0-0.5-0.3-0.8-0.8-1s-1.3-0.4-2.4-0.5c-1.1-0.2-2.1-0.4-2.8-0.6s-1.3-0.6-1.9-1.2
	c-0.5-0.6-0.8-1.4-0.8-2.4c0-1.3,0.5-2.4,1.6-3.2c1.1-0.8,2.6-1.2,4.5-1.2c1,0,1.9,0.1,2.9,0.3c1,0.2,1.7,0.5,2.3,0.9l-1.2,2.5
	c-1.2-0.7-2.5-1-4-1c-1,0-1.7,0.1-2.2,0.4s-0.7,0.7-0.7,1.1c0,0.5,0.3,0.9,0.8,1.1s1.4,0.4,2.5,0.6s2,0.4,2.7,0.6s1.3,0.6,1.8,1.1
	s0.8,1.3,0.8,2.3c0,1.3-0.6,2.3-1.7,3.1C770-91.3,768.5-90.9,766.5-90.9z M781.9-90.9c-1.4,0-2.7-0.3-3.8-0.9s-2-1.4-2.7-2.5
	c-0.6-1.1-0.9-2.3-0.9-3.7c0-1.4,0.3-2.6,0.9-3.7c0.6-1.1,1.5-1.9,2.7-2.5c1.1-0.6,2.4-0.9,3.8-0.9c1.4,0,2.7,0.3,3.8,0.9
	s2,1.4,2.6,2.5s1,2.3,1,3.7c0,1.4-0.3,2.6-1,3.7c-0.6,1.1-1.5,1.9-2.6,2.5C784.6-91.2,783.3-90.9,781.9-90.9z M781.9-93.7
	c1.2,0,2.2-0.4,3-1.2c0.8-0.8,1.2-1.8,1.2-3.2s-0.4-2.4-1.2-3.2c-0.8-0.8-1.8-1.2-3-1.2s-2.2,0.4-3,1.2c-0.8,0.8-1.1,1.8-1.1,3.2
	s0.4,2.4,1.1,3.2C779.7-94.1,780.7-93.7,781.9-93.7z M800.3-105.1c1.8,0,3.2,0.5,4.2,1.5c1.1,1,1.6,2.5,1.6,4.6v8h-3.3v-7.6
	c0-1.2-0.3-2.1-0.9-2.7c-0.6-0.6-1.4-0.9-2.4-0.9c-1.2,0-2.1,0.4-2.8,1.1s-1,1.7-1,3.1v7h-3.3v-14h3.1v1.8c0.5-0.6,1.2-1.1,2-1.5
	C798.3-105,799.3-105.1,800.3-105.1z M819-96.2c-0.6,0-1.1-0.2-1.5-0.6s-0.6-0.9-0.6-1.6c0-0.6,0.2-1.1,0.6-1.5
	c0.4-0.4,0.9-0.6,1.5-0.6s1.1,0.2,1.5,0.6s0.6,0.9,0.6,1.6s-0.2,1.2-0.6,1.6C820.1-96.4,819.6-96.2,819-96.2z M835.7-106.5v5.5h8.8
	v2.9h-8.8v7h-3.4v-18.2h13.3v2.8H835.7z M861.7-105v13.9h-3.1v-1.8c-0.5,0.6-1.2,1.1-2,1.5c-0.8,0.3-1.6,0.5-2.5,0.5
	c-1.9,0-3.3-0.5-4.4-1.5c-1.1-1-1.6-2.6-1.6-4.6v-7.9h3.3v7.5c0,1.2,0.3,2.2,0.8,2.8c0.6,0.6,1.4,0.9,2.4,0.9c1.2,0,2.1-0.4,2.8-1.1
	s1-1.8,1-3.1v-7h3.3V-105z M865.9-110.4h3.3v19.3h-3.3V-110.4z M873.5-110.4h3.3v19.3h-3.3V-110.4z M885.3-90.9
	c-1.1,0-2.2-0.1-3.3-0.4s-1.9-0.7-2.6-1.1l1.2-2.5c0.6,0.4,1.4,0.8,2.2,1c0.9,0.2,1.8,0.4,2.6,0.4c1.9,0,2.9-0.5,2.9-1.5
	c0-0.5-0.3-0.8-0.8-1s-1.3-0.4-2.4-0.5c-1.1-0.2-2.1-0.4-2.8-0.6s-1.3-0.6-1.9-1.2c-0.5-0.6-0.8-1.4-0.8-2.4c0-1.3,0.5-2.4,1.6-3.2
	c1.1-0.8,2.6-1.2,4.5-1.2c1,0,1.9,0.1,2.9,0.3c1,0.2,1.7,0.5,2.3,0.9l-1.2,2.5c-1.2-0.7-2.5-1-4-1c-1,0-1.7,0.1-2.2,0.4
	s-0.7,0.7-0.7,1.1c0,0.5,0.3,0.9,0.8,1.1s1.4,0.4,2.5,0.6s2,0.4,2.7,0.6s1.3,0.6,1.8,1.1s0.8,1.3,0.8,2.3c0,1.3-0.6,2.3-1.7,3.1
	C888.8-91.3,887.2-90.9,885.3-90.9z M902.8-91.8c-0.4,0.3-0.9,0.5-1.4,0.7s-1.1,0.2-1.7,0.2c-1.5,0-2.7-0.4-3.5-1.2
	c-0.8-0.8-1.2-2-1.2-3.5v-6.7h-2.3v-2.6h2.3v-3.2h3.3v3.2h3.7v2.6h-3.7v6.6c0,0.7,0.2,1.2,0.5,1.6c0.3,0.3,0.8,0.5,1.4,0.5
	c0.7,0,1.3-0.2,1.8-0.6L902.8-91.8z M910.7-105.1c2,0,3.6,0.5,4.7,1.5c1.1,1,1.6,2.4,1.6,4.4v8.2h-3v-1.7c-0.4,0.6-1,1.1-1.7,1.4
	s-1.6,0.5-2.7,0.5c-1,0-2-0.2-2.7-0.5c-0.8-0.4-1.4-0.9-1.8-1.5c-0.4-0.6-0.6-1.4-0.6-2.2c0-1.2,0.5-2.2,1.4-3s2.4-1.1,4.4-1.1h3.6
	v-0.2c0-1-0.3-1.7-0.9-2.2c-0.6-0.5-1.4-0.8-2.6-0.8c-0.8,0-1.6,0.1-2.3,0.4c-0.7,0.2-1.4,0.6-1.9,1l-1.3-2.4c0.7-0.6,1.6-1,2.6-1.3
	C908.5-105,909.6-105.1,910.7-105.1z M910.3-93.3c0.8,0,1.5-0.2,2.2-0.5c0.6-0.4,1.1-0.9,1.4-1.6V-97h-3.4c-1.9,0-2.8,0.6-2.8,1.8
	c0,0.6,0.2,1.1,0.7,1.4C908.8-93.4,909.5-93.3,910.3-93.3z M927.8-90.9c-1.4,0-2.7-0.3-3.9-0.9c-1.1-0.6-2-1.4-2.7-2.5
	c-0.6-1.1-1-2.3-1-3.7c0-1.4,0.3-2.6,1-3.7c0.6-1.1,1.5-1.9,2.7-2.5c1.1-0.6,2.4-0.9,3.9-0.9c1.4,0,2.6,0.3,3.6,0.8
	c1,0.6,1.8,1.4,2.3,2.4l-2.5,1.5c-0.4-0.6-0.9-1.1-1.5-1.4s-1.2-0.5-2-0.5c-1.2,0-2.2,0.4-3,1.2c-0.8,0.8-1.2,1.8-1.2,3.2
	c0,1.3,0.4,2.4,1.2,3.2c0.8,0.8,1.8,1.2,3,1.2c0.7,0,1.4-0.2,2-0.5s1.1-0.8,1.5-1.5l2.5,1.5c-0.5,1-1.3,1.8-2.4,2.4
	C930.3-91.2,929.1-90.9,927.8-90.9z M942.1-97l-2.4,2.3v3.7h-3.3v-19.3h3.3v11.7l6.7-6.2h3.9l-5.8,5.8l6.4,8.1h-4L942.1-97z
	 M960.4-109.3h8c1.9,0,3.7,0.4,5.2,1.1s2.7,1.8,3.5,3.2c0.8,1.4,1.2,3,1.2,4.8s-0.4,3.4-1.2,4.8s-2,2.4-3.5,3.2
	c-1.5,0.7-3.2,1.1-5.2,1.1h-8V-109.3z M968.2-93.9c1.3,0,2.5-0.3,3.5-0.8s1.8-1.2,2.3-2.2c0.6-1,0.8-2.1,0.8-3.3s-0.3-2.3-0.8-3.3
	s-1.3-1.7-2.3-2.2s-2.2-0.8-3.5-0.8h-4.4V-94h4.4V-93.9z M994.7-98c0,0.2,0,0.5-0.1,1h-10.9c0.2,1,0.7,1.8,1.5,2.4s1.8,0.9,3,0.9
	c1.5,0,2.8-0.5,3.8-1.5l1.7,2c-0.6,0.7-1.4,1.3-2.4,1.7c-1,0.4-2,0.6-3.2,0.6c-1.5,0-2.9-0.3-4-0.9c-1.2-0.6-2.1-1.4-2.7-2.5
	c-0.6-1.1-0.9-2.3-0.9-3.7c0-1.4,0.3-2.6,0.9-3.6c0.6-1.1,1.5-1.9,2.6-2.6c1.1-0.6,2.3-0.9,3.7-0.9s2.6,0.3,3.6,0.9
	c1.1,0.6,1.9,1.4,2.5,2.5C994.4-100.6,994.7-99.4,994.7-98z M987.7-102.5c-1,0-1.9,0.3-2.7,0.9c-0.7,0.6-1.1,1.4-1.3,2.4h7.9
	c-0.1-1-0.6-1.8-1.3-2.4C989.6-102.2,988.7-102.5,987.7-102.5z M1010.6-105l-6,13.9h-3.4l-6-13.9h3.4l4.3,10.3l4.5-10.3H1010.6z
	 M1025.3-98c0,0.2,0,0.5,0,1h-10.9c0.2,1,0.7,1.8,1.5,2.4s1.8,0.9,3,0.9c1.5,0,2.8-0.5,3.8-1.5l1.8,2c-0.6,0.7-1.4,1.3-2.4,1.7
	c-1,0.4-2,0.6-3.2,0.6c-1.5,0-2.9-0.3-4-0.9c-1.2-0.6-2.1-1.4-2.7-2.5c-0.6-1.1-0.9-2.3-0.9-3.7c0-1.4,0.3-2.6,0.9-3.6
	c0.6-1.1,1.5-1.9,2.6-2.6c1.1-0.6,2.3-0.9,3.7-0.9s2.6,0.3,3.6,0.9c1.1,0.6,1.9,1.4,2.5,2.5C1025-100.6,1025.3-99.4,1025.3-98z
	 M1018.3-102.5c-1,0-1.9,0.3-2.6,0.9c-0.7,0.6-1.2,1.4-1.3,2.4h7.9c-0.1-1-0.6-1.8-1.3-2.4C1020.2-102.2,1019.3-102.5,1018.3-102.5z
	 M1028.4-110.4h3.3v19.3h-3.3V-110.4z M1042.2-90.9c-1.4,0-2.7-0.3-3.8-0.9c-1.1-0.6-2-1.4-2.7-2.5c-0.6-1.1-0.9-2.3-0.9-3.7
	c0-1.4,0.3-2.6,0.9-3.7s1.5-1.9,2.7-2.5c1.1-0.6,2.4-0.9,3.8-0.9s2.7,0.3,3.8,0.9c1.1,0.6,2,1.4,2.6,2.5s1,2.3,1,3.7
	c0,1.4-0.3,2.6-1,3.7c-0.6,1.1-1.5,1.9-2.6,2.5C1044.9-91.2,1043.7-90.9,1042.2-90.9z M1042.2-93.7c1.2,0,2.2-0.4,3-1.2
	c0.8-0.8,1.2-1.8,1.2-3.2s-0.4-2.4-1.2-3.2c-0.8-0.8-1.8-1.2-3-1.2s-2.2,0.4-3,1.2c-0.8,0.8-1.2,1.8-1.2,3.2s0.4,2.4,1.2,3.2
	C1040-94.1,1041-93.7,1042.2-93.7z M1060.5-105.1c1.3,0,2.6,0.3,3.6,0.9c1.1,0.6,1.9,1.4,2.5,2.5s0.9,2.3,0.9,3.7
	c0,1.4-0.3,2.7-0.9,3.7c-0.6,1.1-1.4,1.9-2.5,2.5s-2.3,0.9-3.6,0.9c-1.9,0-3.4-0.6-4.5-1.9v6.7h-3.2v-19h3.1v1.8
	c0.5-0.7,1.2-1.2,2-1.5C1058.6-105,1059.5-105.1,1060.5-105.1z M1060.1-93.7c1.2,0,2.2-0.4,3-1.2c0.8-0.8,1.2-1.8,1.2-3.2
	s-0.4-2.4-1.2-3.2c-0.8-0.8-1.8-1.2-3-1.2c-0.8,0-1.5,0.2-2.1,0.5s-1.1,0.9-1.5,1.5c-0.4,0.7-0.6,1.4-0.6,2.3s0.2,1.6,0.6,2.3
	c0.4,0.7,0.9,1.2,1.5,1.5C1058.6-93.9,1059.3-93.7,1060.1-93.7z M1083.7-98c0,0.2,0,0.5-0.1,1h-10.9c0.2,1,0.7,1.8,1.5,2.4
	s1.8,0.9,3,0.9c1.5,0,2.8-0.5,3.8-1.5l1.7,2c-0.6,0.7-1.4,1.3-2.4,1.7c-0.9,0.4-2,0.6-3.2,0.6c-1.5,0-2.9-0.3-4-0.9
	c-1.2-0.6-2.1-1.4-2.7-2.5s-0.9-2.3-0.9-3.7c0-1.4,0.3-2.6,0.9-3.6c0.6-1.1,1.5-1.9,2.6-2.6c1.1-0.6,2.3-0.9,3.7-0.9
	c1.4,0,2.6,0.3,3.6,0.9c1.1,0.6,1.9,1.4,2.5,2.5C1083.4-100.6,1083.7-99.4,1083.7-98z M1076.7-102.5c-1,0-1.9,0.3-2.7,0.9
	c-0.7,0.6-1.2,1.4-1.3,2.4h7.9c-0.1-1-0.6-1.8-1.3-2.4C1078.6-102.2,1077.7-102.5,1076.7-102.5z M1089.9-103
	c0.9-1.5,2.6-2.2,4.9-2.2v3.1c-0.3-0.1-0.5-0.1-0.8-0.1c-1.3,0-2.3,0.4-3,1.1s-1.1,1.8-1.1,3.2v6.7h-3.2V-105h3.1L1089.9-103
	L1089.9-103z"/>
<text transform="matrix(1 0 0 1 -385.6932 65.3323)" class="st3 st4 st5">Manne Johansson  Web Developer  Manne Johansson  Web Developer  Manne Johansson  Web Developer</text>
</svg>
