<svg xmlns="http://www.w3.org/2000/svg" xmlns:xlink="http://www.w3.org/1999/xlink" version="1.1" x="0px" y="0px" viewBox="0 0 25 31.25" style="enable-background:new 0 0 25 25;" xml:space="preserve"><g><path d="M0.5,20.2c0,1.6,1.3,2.9,2.9,2.9h18.1c1.6,0,2.9-1.3,2.9-2.9c0-5.1,0-6.9,0-12.1c0-1.5-1.2-2.9-2.9-2.9H17V3.9   c0-1.1-0.9-2-2-2H10c-1.1,0-2,0.9-2,2v1.2H3.4c-1.5,0-2.8,1.2-2.9,2.7c0,0.1,0,0.2,0,0.2v0C0.5,13.3,0.5,15,0.5,20.2z M22.5,20.2   c0,0.5-0.4,0.9-0.9,0.9H3.4c-0.5,0-0.9-0.4-0.9-0.9v-7C3.3,13.7,4.2,14,5.2,14h5.7v0.8c0,0.9,0.7,1.6,1.6,1.6s1.6-0.7,1.6-1.6V14   h5.7c1,0,1.9-0.3,2.7-0.8V20.2z M10,3.9H15c0,0,0,0,0,0v1.2h-5L10,3.9z"/></g></svg>