<?xml version="1.0" encoding="utf-8"?>
<svg version="1.1" id="Layer_1" xmlns="http://www.w3.org/2000/svg" xmlns:xlink="http://www.w3.org/1999/xlink" x="0px" y="0px"
	 viewBox="0 0 137.6 11" style="enable-background:new 0 0 137.6 11;" xml:space="preserve">
<style type="text/css">
	.st0{fill:#FFFFFF;}
	.st1{fill:#FFECEA;}
	.st2{fill:#FF4575;}
</style>
<rect x="0" y="0" class="st0" width="137.6" height="5.5"/>
<rect x="0" y="5.5" class="st1" width="137.6" height="5.5"/>
<path class="st2" d="M137.6,4.5c-2.3,0-4.4-0.6-6.2-1.8c-5.5-3.6-12.2-3.6-20-0.2c-5.9,2.6-10.6,2.7-14.3,0.2
	c-5.5-3.6-12.2-3.6-20-0.2C71,5.1,66.3,5.2,62.6,2.7c-5.5-3.6-12.2-3.6-20-0.2C36.7,5.1,32,5.2,28.3,2.7c-5.5-3.6-12.2-3.6-20-0.2
	c-3.1,1.3-5.8,2-8.3,2v6c3.3,0,6.8-0.8,10.6-2.5c6-2.6,10.7-2.7,14.4-0.2c5.5,3.6,12.2,3.6,20,0.2c5.9-2.6,10.6-2.7,14.3-0.2
	c5.5,3.6,12.2,3.6,20,0.2c6-2.6,10.7-2.7,14.4-0.2c2.8,1.8,5.9,2.7,9.4,2.7c3.3,0,6.8-0.8,10.7-2.5c5.9-2.6,10.6-2.7,14.3-0.2
	c2.8,1.9,6,2.8,9.5,2.7L137.6,4.5L137.6,4.5z"/>
</svg>
